<svg width="32" height="32" viewBox="0 0 32 32" fill="none" xmlns="http://www.w3.org/2000/svg">
<path d="M7.80127 24.7814C9.86681 26.774 12.6767 28.0001 15.7734 28.0001C18.3127 28.0001 20.6589 27.1753 22.5604 25.78L27.2413 17.1318C27.252 16.9278 27.2578 16.7224 27.2578 16.5156C27.2578 10.173 22.1161 5.03125 15.7734 5.03125C9.43078 5.03125 4.28906 10.173 4.28906 16.5156C4.28906 17.3819 4.38562 18.2255 4.56741 19.0369L7.80127 24.7814Z" fill="#41416B"/>
<path d="M9.29717 15.897C10.1622 15.897 10.9996 16.1481 11.7185 16.623L11.7429 16.6391L11.7718 16.6358C12.1211 16.5962 12.4684 16.6021 12.8069 16.6506C13.0867 16.6907 13.3576 16.5335 13.4514 16.2767C13.6285 15.7922 13.863 15.3396 14.1444 14.9241C11.7508 13.5265 10.1362 10.9321 10.1248 7.98535C10.1202 6.78581 10.3777 5.64698 10.8432 4.62258C11.0179 4.23801 10.5994 3.85331 10.2287 4.0559C7.70496 5.43562 5.99974 8.12513 6.02768 11.2106C6.0446 13.0771 6.70465 14.7991 7.79651 16.1628C8.26953 15.9902 8.7762 15.897 9.29717 15.897Z" fill="#FCBE2C"/>
<path d="M8.99914 13.5815C7.68021 10.3683 8.33829 6.84446 10.3994 4.34743C10.5049 4.21969 10.6462 4.16419 10.7847 4.16598C10.6598 4.01354 10.4367 3.94219 10.2287 4.05587C7.70496 5.43559 5.99974 8.12508 6.02768 11.2105C6.0446 13.0771 6.70465 14.799 7.79651 16.1628C8.26962 15.9902 8.77624 15.897 9.29721 15.897C9.72054 15.897 10.1371 15.9575 10.5365 16.0745C9.90607 15.3501 9.38201 14.5143 8.99914 13.5815Z" fill="#FFA921"/>
<path d="M21.0912 8.96405C20.8768 8.96405 20.7031 8.79028 20.7031 8.57597V8.06386C20.7031 7.84955 20.8769 7.67578 21.0912 7.67578C21.3055 7.67578 21.4793 7.84955 21.4793 8.06386V8.57597C21.4793 8.79028 21.3056 8.96405 21.0912 8.96405Z" fill="#FCBE2C"/>
<path d="M21.0912 6.82586C20.8768 6.82586 20.7031 6.6521 20.7031 6.43779V5.92568C20.7031 5.71136 20.8769 5.5376 21.0912 5.5376C21.3055 5.5376 21.4793 5.71136 21.4793 5.92568V6.43779C21.4793 6.6521 21.3056 6.82586 21.0912 6.82586Z" fill="#FCBE2C"/>
<path d="M22.4158 7.63895H21.9037C21.6894 7.63895 21.5156 7.46518 21.5156 7.25087C21.5156 7.03656 21.6894 6.86279 21.9037 6.86279H22.4158C22.6301 6.86279 22.8039 7.03656 22.8039 7.25087C22.8039 7.46518 22.6302 7.63895 22.4158 7.63895Z" fill="#FCBE2C"/>
<path d="M20.279 7.63895H19.767C19.5527 7.63895 19.3789 7.46518 19.3789 7.25087C19.3789 7.03656 19.5527 6.86279 19.767 6.86279H20.279C20.4934 6.86279 20.6671 7.03656 20.6671 7.25087C20.6671 7.46518 20.4934 7.63895 20.279 7.63895Z" fill="#FCBE2C"/>
<path d="M23.6425 10.9981C23.3618 10.9981 23.125 10.7702 23.125 10.4807C23.125 10.1492 23.4299 9.90982 23.7433 9.97305C23.9913 10.0234 24.1599 10.2403 24.1599 10.4807C24.1599 10.7674 23.9246 10.9981 23.6425 10.9981Z" fill="#9292DD"/>
<path d="M4.50705 15.2083C4.23245 15.2083 4 14.9856 4 14.7012C4 14.3765 4.29864 14.1419 4.60595 14.2038C4.84877 14.253 5.01414 14.465 5.01414 14.7012C5.01409 14.9846 4.7815 15.2083 4.50705 15.2083Z" fill="#FCBE2C"/>
<path d="M16.9086 7.12554C16.8304 7.11359 16.7646 7.06175 16.7373 6.9875C16.3725 5.9937 15.4179 5.28467 14.2976 5.28467C13.1761 5.28467 12.2212 5.99548 11.8574 6.99097C11.8234 7.08387 11.7272 7.13675 11.6292 7.12268C11.5506 7.11143 11.4703 7.10557 11.3886 7.10557C10.686 7.10557 10.0841 7.53504 9.83018 8.14564C9.80182 8.21379 9.74206 8.2639 9.66931 8.27623C9.14365 8.36543 8.74371 8.82392 8.7461 9.37554C8.74882 9.99068 9.26482 10.4809 9.87996 10.4809H16.6205C17.5518 10.4809 18.3307 9.73972 18.339 8.80854C18.3466 7.95711 17.7235 7.25018 16.9086 7.12554Z" fill="#7070AB"/>
<path d="M11.933 9.24926C12.0002 9.21879 12.0453 9.15514 12.0553 9.08201C12.1455 8.42689 12.6183 7.85834 13.2977 7.67947C13.3767 7.65865 13.4559 7.64389 13.5348 7.63479C13.6331 7.62345 13.7126 7.54784 13.7218 7.44936C13.8018 6.59197 14.3068 5.81703 15.0751 5.40336C14.8295 5.32643 14.5685 5.28467 14.2976 5.28467C13.1762 5.28467 12.2213 5.99548 11.8574 6.99097C11.8234 7.08387 11.7273 7.13675 11.6293 7.12268C11.5507 7.11143 11.4703 7.10553 11.3886 7.10553C10.6861 7.10553 10.0842 7.535 9.83023 8.14559C9.80187 8.21375 9.7421 8.26386 9.66931 8.27618C9.14365 8.36539 8.74371 8.82387 8.7461 9.3755C8.74882 9.99064 9.26482 10.4808 9.87996 10.4808H11.3054C11.2012 9.96973 11.4676 9.4602 11.933 9.24926Z" fill="#616196"/>
<path d="M24.0612 24.4671C25.9092 22.5418 27.0927 19.974 27.243 17.1319C26.788 16.8546 26.2754 16.6623 25.727 16.5784C25.5358 16.5491 25.3748 16.4224 25.3082 16.2408C24.4163 13.8112 22.0823 12.0776 19.3434 12.0776C16.6016 12.0776 14.267 13.8155 13.3775 16.2493C13.2944 16.4765 13.0592 16.6057 12.8198 16.5714C12.6276 16.5438 12.4312 16.5294 12.2314 16.5294C12.0267 16.5294 11.8256 16.5448 11.6289 16.5736C12.4413 17.0824 13.087 17.8523 13.4297 18.7896C13.5003 18.9828 13.704 19.1013 13.914 19.0711C14.0468 19.0521 14.1825 19.0424 14.3173 19.0424C15.4631 19.0424 16.4881 19.7264 16.9284 20.785C16.9895 20.9319 17.117 21.035 17.2695 21.0609C17.726 21.1384 18.117 21.3786 18.3886 21.7161C18.8434 21.1688 19.5275 20.8329 20.2636 20.8329C21.2811 20.8329 22.2002 21.4744 22.5506 22.4292C22.5863 22.5265 22.6732 22.5968 22.7775 22.6127H22.7775C23.5355 22.7286 24.102 23.3952 24.0952 24.1632C24.0942 24.2672 24.0823 24.3688 24.0612 24.4671Z" fill="#616196"/>
<path d="M16.2506 18.267C16.3739 18.2303 16.4667 18.1309 16.5013 18.007C16.8114 16.8969 17.7618 16.0265 18.9771 15.8777C19.1185 15.8604 19.2587 15.8536 19.3971 15.8564C19.5695 15.86 19.7248 15.7482 19.7638 15.5802C20.0536 14.3351 20.8621 13.2662 21.9754 12.6471C21.1735 12.2815 20.2823 12.0776 19.3434 12.0776C16.6016 12.0776 14.267 13.8155 13.3775 16.2493C13.2944 16.4765 13.0592 16.6057 12.8198 16.5714C12.6276 16.5438 12.4312 16.5294 12.2314 16.5294C12.0267 16.5294 11.8256 16.5448 11.6289 16.5736C12.4413 17.0824 13.087 17.8523 13.4297 18.7896C13.5003 18.9828 13.7041 19.1013 13.914 19.0711C14.0468 19.0521 14.1825 19.0424 14.3173 19.0424C14.5965 19.0424 14.8685 19.0833 15.1267 19.1601C15.3683 18.7385 15.7654 18.4118 16.2506 18.267Z" fill="#515181"/>
<path d="M17.2807 20.978C17.1552 20.9567 17.0521 20.8702 17.0031 20.7526C16.565 19.6992 15.5266 18.9583 14.3145 18.9583C14.1735 18.9583 14.035 18.9684 13.8994 18.9879C13.7304 19.0121 13.5644 18.921 13.5058 18.7606C12.8781 17.0432 11.2307 15.8169 9.29591 15.8169C7.36316 15.8169 5.71616 17.0401 5.08686 18.7547C5.03984 18.8828 4.92622 18.9722 4.79127 18.9929C4.71523 19.0045 4.64038 19.0197 4.56641 19.0371C5.06581 21.2662 6.21303 23.2502 7.80036 24.7816H14.9726C14.9708 24.7584 14.9688 24.7354 14.9687 24.7119C14.9665 24.2221 15.3149 23.8073 15.797 23.7255C15.8929 23.7091 15.973 23.6445 16.0113 23.5524C16.2534 22.9703 16.817 22.5942 17.4471 22.5942C17.5211 22.5942 17.5957 22.5995 17.6689 22.61C17.8005 22.629 17.9289 22.5542 17.9734 22.4324C18.0802 22.1402 18.2404 21.8776 18.44 21.6533C18.1533 21.3035 17.7457 21.0569 17.2807 20.978Z" fill="#8080C1"/>
<path d="M22.79 22.5356C22.7143 22.524 22.6506 22.4738 22.6243 22.402C22.2714 21.4408 21.348 20.7549 20.2644 20.7549C19.1796 20.7549 18.256 21.4424 17.9041 22.4054C17.8712 22.4952 17.7781 22.5464 17.6834 22.5328C17.6073 22.5218 17.5297 22.5162 17.4506 22.5162C16.771 22.5162 16.1888 22.9316 15.9431 23.5222C15.9157 23.5881 15.8579 23.6366 15.7875 23.6485C15.2791 23.7348 14.8922 24.1783 14.8945 24.7119C14.8972 25.3069 15.3963 25.7811 15.9913 25.7811H22.5113C22.5286 25.7811 22.5457 25.7803 22.5629 25.7798C23.1379 25.3578 23.6721 24.8837 24.1587 24.3643C24.1675 24.2985 24.1729 24.2316 24.1735 24.1635C24.1809 23.3399 23.5781 22.6561 22.79 22.5356Z" fill="#7070AB"/>
<path d="M18.2088 24.8655C18.2713 24.831 18.3098 24.7661 18.3139 24.6949C18.3505 24.0562 18.7627 23.4717 19.404 23.2471C19.4786 23.221 19.5539 23.2007 19.6292 23.1858C19.7231 23.1674 19.7941 23.0883 19.7954 22.9926C19.807 22.1316 20.2636 21.3209 21.0161 20.8708C20.7776 20.7957 20.5238 20.7549 20.2605 20.7549C19.1757 20.7549 18.2521 21.4424 17.9002 22.4054C17.8673 22.4952 17.7742 22.5464 17.6795 22.5328C17.6034 22.5218 17.5258 22.5162 17.4467 22.5162C16.7671 22.5162 16.1849 22.9316 15.9392 23.5222C15.9118 23.5881 15.854 23.6366 15.7836 23.6485C15.2752 23.7348 14.8883 24.1783 14.8906 24.7119C14.8933 25.3069 15.3924 25.7811 15.9874 25.7811H17.6556C17.664 25.4048 17.8712 25.0521 18.2088 24.8655Z" fill="#616196"/>
<path d="M6.46236 22.679C6.45022 21.3156 7.44805 20.1835 8.75286 19.9839C8.87806 19.9648 8.98353 19.8818 9.02722 19.7628C9.55278 18.331 10.8432 17.2688 12.4032 17.0701C11.5977 16.2942 10.5027 15.8169 9.29586 15.8169C7.36311 15.8169 5.71611 17.0401 5.08681 18.7547C5.0398 18.8828 4.92617 18.9722 4.79122 18.9929C4.71519 19.0045 4.64033 19.0197 4.56641 19.0371C4.92434 20.6348 5.61523 22.1067 6.56239 23.3762C6.49958 23.1542 6.46452 22.9207 6.46236 22.679Z" fill="#7070AB"/>
</svg>
