<svg width="32" height="32" viewBox="0 0 32 32" fill="none" xmlns="http://www.w3.org/2000/svg">
<path d="M20.6154 29.2307H4L12.3077 24.6152L20.6154 29.2307Z" fill="#028F5D"/>
<path d="M27.9995 29.2306H13.2305L20.6151 22.769L27.9995 29.2306Z" fill="#09A66D"/>
<path d="M21.0757 15.8464C21.0757 18.6503 18.8026 20.9233 15.9988 20.9233C13.1949 20.9233 10.9219 18.6503 10.9219 15.8464C10.9219 13.0426 13.1949 10.7695 15.9988 10.7695C18.8026 10.7695 21.0757 13.0426 21.0757 15.8464Z" fill="#FCBE2C"/>
<path d="M12.9032 15.3848C12.8586 15.3851 12.8143 15.3784 12.7717 15.3655C12.5274 15.293 12.3882 15.0362 12.4605 14.7919C12.817 13.5979 13.7511 12.6639 14.9451 12.3074C15.19 12.2365 15.446 12.3776 15.5168 12.6223C15.5868 12.8648 15.4495 13.1184 15.2081 13.1922C14.3131 13.4596 13.6127 14.1599 13.3453 15.0549C13.2872 15.2506 13.1073 15.3848 12.9032 15.3848Z" fill="#FEB644"/>
<path d="M17.7524 4.0308L16.3677 2.18469C16.3623 2.17742 16.3529 2.17513 16.3469 2.16849C16.1946 1.9761 15.9152 1.9437 15.7226 2.09598C15.6958 2.11738 15.6715 2.14169 15.6501 2.16849C15.6441 2.17513 15.6349 2.17742 15.6293 2.18469L14.2446 4.0308C14.0917 4.23481 14.1331 4.52401 14.3371 4.67712C14.5409 4.83003 14.8303 4.78868 14.9832 4.58467L15.5371 3.84631V6.15405C15.5371 6.40875 15.7436 6.61547 15.9985 6.61547C16.2534 6.61547 16.4601 6.40875 16.4601 6.15405V3.84631L17.014 4.58467C17.1671 4.78848 17.4563 4.8294 17.6601 4.67629C17.8637 4.52338 17.9048 4.2346 17.7524 4.0308Z" fill="#EE6C4D"/>
<path d="M20.895 11.4128C20.6401 11.4126 20.4336 11.2061 20.4336 10.9512C20.4336 10.8288 20.4822 10.7114 20.5686 10.625L21.2218 9.97181C21.405 9.79481 21.6974 9.79979 21.8744 9.98324C22.0472 10.1621 22.0472 10.4457 21.8744 10.6244L21.2214 11.2771C21.1348 11.3638 21.0174 11.4126 20.895 11.4128Z" fill="#FBB540"/>
<path d="M21.4619 21.7781C21.3396 21.7781 21.2222 21.7295 21.1356 21.6428L20.483 20.9903C20.3027 20.8101 20.3025 20.5178 20.4828 20.3375C20.6629 20.1572 20.9552 20.157 21.1356 20.3373L21.7887 20.9903C21.9689 21.1706 21.9689 21.4627 21.7885 21.643C21.7019 21.7297 21.5843 21.7783 21.4619 21.7781Z" fill="#FBB540"/>
<path d="M11.105 11.4128C10.9826 11.4128 10.8652 11.3641 10.7788 11.2775L10.1256 10.6243C9.94861 10.4411 9.9536 10.1488 10.137 9.97177C10.3159 9.79912 10.5995 9.79912 10.7784 9.97177L11.431 10.625C11.6111 10.8051 11.6111 11.0974 11.4307 11.2775C11.3443 11.3641 11.2269 11.4128 11.1046 11.4128H11.105Z" fill="#FBB540"/>
<path d="M9.07727 16.308H7.23116C6.97625 16.308 6.76953 16.1013 6.76953 15.8464C6.76953 15.5915 6.97625 15.3848 7.23116 15.3848H9.07727C9.33219 15.3848 9.5387 15.5915 9.5387 15.8464C9.5387 16.1013 9.33219 16.308 9.07727 16.308Z" fill="#FCBE2C"/>
<path d="M16.0005 24.1537C15.7456 24.1537 15.5391 23.947 15.5391 23.6921V22.769C15.5391 22.5141 15.7456 22.3076 16.0005 22.3076C16.2554 22.3076 16.4621 22.5141 16.4621 22.769V23.6921C16.4621 23.947 16.2554 24.1537 16.0005 24.1537Z" fill="#FCBE2C"/>
<path d="M24.7687 16.308H22.9226C22.6677 16.308 22.4609 16.1013 22.4609 15.8464C22.4609 15.5915 22.6677 15.3848 22.9226 15.3848H24.7687C25.0236 15.3848 25.2301 15.5915 25.2301 15.8464C25.2301 16.1013 25.0236 16.308 24.7687 16.308Z" fill="#FCBE2C"/>
<path d="M16.0005 9.38468C15.7456 9.38468 15.5391 9.17817 15.5391 8.92326V8.0002C15.5391 7.74529 15.7456 7.53857 16.0005 7.53857C16.2554 7.53857 16.4621 7.74529 16.4621 8.0002V8.92326C16.4621 9.17817 16.2554 9.38468 16.0005 9.38468Z" fill="#FCBE2C"/>
<path d="M10.4497 21.856C10.1948 21.8557 9.98828 21.6492 9.98828 21.3943C9.98828 21.2719 10.0369 21.1546 10.1233 21.0681L10.7765 20.4154C10.9641 20.2427 11.256 20.255 11.4286 20.4424C11.5911 20.6192 11.5911 20.8909 11.4286 21.0675L10.7755 21.7207C10.689 21.8071 10.5719 21.8557 10.4497 21.856Z" fill="#FBB540"/>
</svg>
