<svg width="32" height="32" viewBox="0 0 32 32" fill="none" xmlns="http://www.w3.org/2000/svg">
<path d="M25.5472 18.7705C25.4374 18.7705 25.3295 18.7784 25.2234 18.7924C24.9452 16.6775 23.1358 15.0449 20.945 15.0449C19.1153 15.0449 17.5517 16.1836 16.9238 17.7908C15.391 17.895 14.1797 19.1705 14.1797 20.7298C14.1797 22.3571 15.4989 23.6764 17.1263 23.6764H25.5471C26.9018 23.6764 28.0001 22.5781 28.0001 21.2234C28.0001 19.8687 26.9019 18.7705 25.5472 18.7705Z" fill="url(#paint0_linear_420_25275)"/>
<path d="M25.5472 18.7705C25.4374 18.7705 25.3295 18.7784 25.2234 18.7924C24.9452 16.6775 23.1358 15.0449 20.945 15.0449C19.1153 15.0449 17.5517 16.1836 16.9238 17.7908C15.391 17.895 14.1797 19.1705 14.1797 20.7298C14.1797 22.3571 15.4989 23.6764 17.1263 23.6764H25.5471C26.9018 23.6764 28.0001 22.5781 28.0001 21.2234C28.0001 19.8687 26.9019 18.7705 25.5472 18.7705Z" fill="#616196"/>
<path d="M15.7795 18.1099C14.8298 18.5988 14.1797 19.5879 14.1797 20.7298C14.1797 22.3571 15.4989 23.6764 17.1263 23.6764H23.113V23.6293C19.6315 23.6293 16.695 21.2971 15.7795 18.1099Z" fill="url(#paint1_linear_420_25275)"/>
<path d="M15.7795 18.1099C14.8298 18.5988 14.1797 19.5879 14.1797 20.7298C14.1797 22.3571 15.4989 23.6764 17.1263 23.6764H23.113V23.6293C19.6315 23.6293 16.695 21.2971 15.7795 18.1099Z" fill="#515181"/>
<path d="M25.5482 18.7705C25.4384 18.7705 25.3305 18.7784 25.2245 18.7924C24.9463 16.6775 23.1369 15.0449 20.946 15.0449C20.6224 15.0449 20.3072 15.0812 20.0039 15.1488C21.6476 15.5145 22.9383 16.817 23.2857 18.4675C23.3232 18.6457 23.4795 18.7707 23.6616 18.7705H23.6649C25.0196 18.7705 26.1179 19.8687 26.1179 21.2234C26.1179 22.5782 25.0196 23.6764 23.6649 23.6764H25.5078C26.853 23.6764 27.9783 22.6104 28.0008 21.2654C28.0238 19.8915 26.9169 18.7705 25.5482 18.7705Z" fill="url(#paint2_linear_420_25275)"/>
<path d="M25.5482 18.7705C25.4384 18.7705 25.3305 18.7784 25.2245 18.7924C24.9463 16.6775 23.1369 15.0449 20.946 15.0449C20.6224 15.0449 20.3072 15.0812 20.0039 15.1488C21.6476 15.5145 22.9383 16.817 23.2857 18.4675C23.3232 18.6457 23.4795 18.7707 23.6616 18.7705H23.6649C25.0196 18.7705 26.1179 19.8687 26.1179 21.2234C26.1179 22.5782 25.0196 23.6764 23.6649 23.6764H25.5078C26.853 23.6764 27.9783 22.6104 28.0008 21.2654C28.0238 19.8915 26.9169 18.7705 25.5482 18.7705Z" fill="#515181"/>
<path d="M21.9353 23.6296C17.7054 23.6296 14.2795 20.1875 14.3058 15.9515C14.332 11.7401 17.7238 8.37036 21.9353 8.37036C23.1876 8.37036 24.3695 8.6721 25.412 9.20688C26.1882 9.60499 26.9451 8.63704 26.3625 7.98782C24.1761 5.55144 21.0076 4.0145 17.4796 4.0001C10.8492 3.97309 5.42969 9.36956 5.42969 16.0001C5.42969 22.6274 10.8023 28 17.4297 28C20.9753 28 24.1616 26.4621 26.3581 24.0171C26.9414 23.3678 26.1929 22.392 25.4165 22.7908C24.3728 23.327 23.1894 23.6296 21.9353 23.6296Z" fill="url(#paint3_linear_420_25275)"/>
<path d="M21.9353 23.6296C17.7054 23.6296 14.2795 20.1875 14.3058 15.9515C14.332 11.7401 17.7238 8.37036 21.9353 8.37036C23.1876 8.37036 24.3695 8.6721 25.412 9.20688C26.1882 9.60499 26.9451 8.63704 26.3625 7.98782C24.1761 5.55144 21.0076 4.0145 17.4796 4.0001C10.8492 3.97309 5.42969 9.36956 5.42969 16.0001C5.42969 22.6274 10.8023 28 17.4297 28C20.9753 28 24.1616 26.4621 26.3581 24.0171C26.9414 23.3678 26.1929 22.392 25.4165 22.7908C24.3728 23.327 23.1894 23.6296 21.9353 23.6296Z" fill="#FCBE2C"/>
<path d="M5.98705 12.6091H11.6617C12.5747 12.6091 13.3148 11.869 13.3148 10.9561C13.3148 10.0432 12.5747 9.30307 11.6617 9.30307C11.5877 9.30307 11.515 9.30844 11.4436 9.31785C11.3002 8.22754 10.5526 7.32811 9.54823 6.96533C7.85312 8.44651 6.57632 10.3951 5.92188 12.6075C5.94357 12.6082 5.96517 12.6091 5.98705 12.6091Z" fill="url(#paint4_linear_420_25275)"/>
<path d="M11.7652 25.28C12.8718 25.28 13.7688 24.383 13.7688 23.2765C13.7688 22.17 12.8718 21.2729 11.7652 21.2729C10.6587 21.2729 9.76172 22.17 9.76172 23.2765C9.76172 24.383 10.6587 25.28 11.7652 25.28Z" fill="url(#paint5_linear_420_25275)"/>
<path d="M11.7652 25.28C12.8718 25.28 13.7688 24.383 13.7688 23.2765C13.7688 22.17 12.8718 21.2729 11.7652 21.2729C10.6587 21.2729 9.76172 22.17 9.76172 23.2765C9.76172 24.383 10.6587 25.28 11.7652 25.28Z" fill="#FFA921"/>
<path d="M16.6128 8.04693C17.3849 8.04693 18.0108 7.42103 18.0108 6.64895C18.0108 5.87687 17.3849 5.25098 16.6128 5.25098C15.8407 5.25098 15.2148 5.87687 15.2148 6.64895C15.2148 7.42103 15.8407 8.04693 16.6128 8.04693Z" fill="url(#paint6_linear_420_25275)"/>
<path d="M16.6128 8.04693C17.3849 8.04693 18.0108 7.42103 18.0108 6.64895C18.0108 5.87687 17.3849 5.25098 16.6128 5.25098C15.8407 5.25098 15.2148 5.87687 15.2148 6.64895C15.2148 7.42103 15.8407 8.04693 16.6128 8.04693Z" fill="#FFA921"/>
<path d="M19.4862 5.8201C19.545 6.31012 19.9418 6.70254 20.4324 6.75671C20.7782 6.79492 21.0958 6.66913 21.3171 6.44739C21.6855 6.07831 22.2744 6.04786 22.6979 6.35214C23.2301 6.73454 23.8853 7.28066 24.4788 7.98786C24.7144 8.26847 24.7313 8.58913 24.6013 8.84941C24.8829 8.95449 25.1567 9.07567 25.4214 9.21195C26.2006 9.61308 26.9515 8.64532 26.3665 7.99275C24.18 5.55346 21.0096 4.0145 17.4792 4.0001C17.1456 3.99873 16.8152 4.01177 16.4883 4.03732C17.6886 4.13059 18.8392 4.40066 19.9145 4.82108C19.617 5.04156 19.4371 5.41158 19.4862 5.8201Z" fill="url(#paint7_linear_420_25275)"/>
<path d="M19.4862 5.8201C19.545 6.31012 19.9418 6.70254 20.4324 6.75671C20.7782 6.79492 21.0958 6.66913 21.3171 6.44739C21.6855 6.07831 22.2744 6.04786 22.6979 6.35214C23.2301 6.73454 23.8853 7.28066 24.4788 7.98786C24.7144 8.26847 24.7313 8.58913 24.6013 8.84941C24.8829 8.95449 25.1567 9.07567 25.4214 9.21195C26.2006 9.61308 26.9515 8.64532 26.3665 7.99275C24.18 5.55346 21.0096 4.0145 17.4792 4.0001C17.1456 3.99873 16.8152 4.01177 16.4883 4.03732C17.6886 4.13059 18.8392 4.40066 19.9145 4.82108C19.617 5.04156 19.4371 5.41158 19.4862 5.8201Z" fill="#FFA921"/>
<path d="M25.4188 22.7906C25.1553 22.926 24.8829 23.0464 24.6026 23.1508C24.7316 23.4129 24.7225 23.7436 24.4771 24.0169C22.4765 26.2438 19.6547 27.7177 16.4883 27.963C16.7997 27.9872 17.1144 27.9998 17.432 27.9998C20.9776 27.9998 24.1639 26.4619 26.3604 24.0169C26.9438 23.3676 26.1952 22.3917 25.4188 22.7906Z" fill="url(#paint8_linear_420_25275)"/>
<path d="M25.4188 22.7906C25.1553 22.926 24.8829 23.0464 24.6026 23.1508C24.7316 23.4129 24.7225 23.7436 24.4771 24.0169C22.4765 26.2438 19.6547 27.7177 16.4883 27.963C16.7997 27.9872 17.1144 27.9998 17.432 27.9998C20.9776 27.9998 24.1639 26.4619 26.3604 24.0169C26.9438 23.3676 26.1952 22.3917 25.4188 22.7906Z" fill="#FFA921"/>
<path d="M20.9932 23.5716C17.2079 23.1059 14.2805 19.8681 14.3048 15.9513C14.329 12.0597 17.2272 8.88701 20.9903 8.42758C20.6825 8.38979 20.3691 8.37012 20.051 8.37012C15.8922 8.37012 12.533 11.6562 12.4245 15.7938C12.4235 15.7938 12.4225 15.7937 12.4214 15.7937C11.6218 15.7937 10.979 16.465 11.0258 17.2748C11.0662 17.9732 11.632 18.5419 12.3301 18.5868C12.335 18.5871 12.3398 18.5874 12.3447 18.5876C12.6587 18.6046 12.941 18.7891 13.068 19.0768C14.2511 21.7579 16.9323 23.6293 20.0511 23.6293C20.3701 23.6294 20.6845 23.6096 20.9932 23.5716Z" fill="url(#paint9_linear_420_25275)"/>
<path d="M20.9932 23.5716C17.2079 23.1059 14.2805 19.8681 14.3048 15.9513C14.329 12.0597 17.2272 8.88701 20.9903 8.42758C20.6825 8.38979 20.3691 8.37012 20.051 8.37012C15.8922 8.37012 12.533 11.6562 12.4245 15.7938C12.4235 15.7938 12.4225 15.7937 12.4214 15.7937C11.6218 15.7937 10.979 16.465 11.0258 17.2748C11.0662 17.9732 11.632 18.5419 12.3301 18.5868C12.335 18.5871 12.3398 18.5874 12.3447 18.5876C12.6587 18.6046 12.941 18.7891 13.068 19.0768C14.2511 21.7579 16.9323 23.6293 20.0511 23.6293C20.3701 23.6294 20.6845 23.6096 20.9932 23.5716Z" fill="#FFA921"/>
<path d="M11.6604 8.12582C11.5864 8.12582 11.5137 8.13119 11.4423 8.1406C11.2548 6.71538 10.0355 5.61523 8.5591 5.61523C7.32611 5.61523 6.27242 6.38253 5.84927 7.46568C4.81628 7.53585 4 8.39542 4 9.44615C4 10.5428 4.88903 11.4319 5.98574 11.4319H11.6604C12.5734 11.4319 13.3134 10.6918 13.3134 9.77886C13.3134 8.86587 12.5734 8.12582 11.6604 8.12582Z" fill="url(#paint10_linear_420_25275)"/>
<path d="M11.6604 8.12582C11.5864 8.12582 11.5137 8.13119 11.4423 8.1406C11.2548 6.71538 10.0355 5.61523 8.5591 5.61523C7.32611 5.61523 6.27242 6.38253 5.84927 7.46568C4.81628 7.53585 4 8.39542 4 9.44615C4 10.5428 4.88903 11.4319 5.98574 11.4319H11.6604C12.5734 11.4319 13.3134 10.6918 13.3134 9.77886C13.3134 8.86587 12.5734 8.12582 11.6604 8.12582Z" fill="#616196"/>
<path d="M11.6599 8.12582C11.5859 8.12582 11.5132 8.13119 11.4418 8.1406C11.2543 6.71538 10.035 5.61523 8.5586 5.61523C8.22905 5.61523 7.91253 5.67053 7.61719 5.77152C8.57756 6.10018 9.31144 6.91707 9.52213 7.92625C9.54693 8.04493 9.65319 8.12596 9.77446 8.12578H9.77667C10.6896 8.12578 11.4297 8.86587 11.4297 9.77881C11.4297 10.6918 10.6896 11.4318 9.77667 11.4318H11.6273C12.5542 11.4318 13.3304 10.6733 13.3127 9.74658C13.2954 8.84855 12.5621 8.12582 11.6599 8.12582Z" fill="url(#paint11_linear_420_25275)"/>
<path d="M11.6599 8.12582C11.5859 8.12582 11.5132 8.13119 11.4418 8.1406C11.2543 6.71538 10.035 5.61523 8.5586 5.61523C8.22905 5.61523 7.91253 5.67053 7.61719 5.77152C8.57756 6.10018 9.31144 6.91707 9.52213 7.92625C9.54693 8.04493 9.65319 8.12596 9.77446 8.12578H9.77667C10.6896 8.12578 11.4297 8.86587 11.4297 9.77881C11.4297 10.6918 10.6896 11.4318 9.77667 11.4318H11.6273C12.5542 11.4318 13.3304 10.6733 13.3127 9.74658C13.2954 8.84855 12.5621 8.12582 11.6599 8.12582Z" fill="#515181"/>
<defs>
<linearGradient id="paint0_linear_420_25275" x1="13.9214" y1="19.3607" x2="29.7367" y2="19.3607" gradientUnits="userSpaceOnUse">
<stop stop-color="#814AA0"/>
<stop offset="0.4701" stop-color="#5B3374"/>
<stop offset="1" stop-color="#192A7D"/>
</linearGradient>
<linearGradient id="paint1_linear_420_25275" x1="1.45543" y1="20.8931" x2="22.378" y2="20.8931" gradientUnits="userSpaceOnUse">
<stop stop-color="#814AA0"/>
<stop offset="0.4701" stop-color="#5B3374"/>
<stop offset="1" stop-color="#192A7D"/>
</linearGradient>
<linearGradient id="paint2_linear_420_25275" x1="8.61302" y1="19.3607" x2="27.3431" y2="19.3607" gradientUnits="userSpaceOnUse">
<stop stop-color="#814AA0"/>
<stop offset="0.4701" stop-color="#5B3374"/>
<stop offset="1" stop-color="#192A7D"/>
</linearGradient>
<linearGradient id="paint3_linear_420_25275" x1="5.03463" y1="16" x2="29.2251" y2="16" gradientUnits="userSpaceOnUse">
<stop stop-color="#FFF9DF"/>
<stop offset="0.593" stop-color="#FFE177"/>
<stop offset="1" stop-color="#FEB237"/>
</linearGradient>
<linearGradient id="paint4_linear_420_25275" x1="7.71896" y1="9.78721" x2="16.4107" y2="9.78721" gradientUnits="userSpaceOnUse">
<stop stop-color="#FFE177"/>
<stop offset="1" stop-color="#FEB237"/>
</linearGradient>
<linearGradient id="paint5_linear_420_25275" x1="6.70344" y1="23.2765" x2="15.1169" y2="23.2765" gradientUnits="userSpaceOnUse">
<stop stop-color="#FFE177"/>
<stop offset="1" stop-color="#FEB237"/>
</linearGradient>
<linearGradient id="paint6_linear_420_25275" x1="13.0809" y1="6.64895" x2="18.9514" y2="6.64895" gradientUnits="userSpaceOnUse">
<stop stop-color="#FFE177"/>
<stop offset="1" stop-color="#FEB237"/>
</linearGradient>
<linearGradient id="paint7_linear_420_25275" x1="8.78969" y1="6.65313" x2="29.9688" y2="6.65313" gradientUnits="userSpaceOnUse">
<stop stop-color="#FFE177"/>
<stop offset="1" stop-color="#FEB237"/>
</linearGradient>
<linearGradient id="paint8_linear_420_25275" x1="8.79475" y1="25.3487" x2="29.9599" y2="25.3487" gradientUnits="userSpaceOnUse">
<stop stop-color="#FFE177"/>
<stop offset="1" stop-color="#FEB237"/>
</linearGradient>
<linearGradient id="paint9_linear_420_25275" x1="3.41425" y1="15.9997" x2="24.3474" y2="15.9997" gradientUnits="userSpaceOnUse">
<stop stop-color="#FFE177"/>
<stop offset="1" stop-color="#FEB237"/>
</linearGradient>
<linearGradient id="paint10_linear_420_25275" x1="3.82593" y1="8.52356" x2="14.4837" y2="8.52356" gradientUnits="userSpaceOnUse">
<stop stop-color="#814AA0"/>
<stop offset="0.4701" stop-color="#5B3374"/>
<stop offset="1" stop-color="#192A7D"/>
</linearGradient>
<linearGradient id="paint11_linear_420_25275" x1="2.21126" y1="8.52356" x2="12.6336" y2="8.52356" gradientUnits="userSpaceOnUse">
<stop stop-color="#814AA0"/>
<stop offset="0.4701" stop-color="#5B3374"/>
<stop offset="1" stop-color="#192A7D"/>
</linearGradient>
</defs>
</svg>
