<svg width="32" height="32" viewBox="0 0 32 32" fill="none" xmlns="http://www.w3.org/2000/svg">
<path d="M16 17.5938C15.9319 17.5938 15.8639 17.5839 15.798 17.5641C14.287 17.1108 12.9905 16.2022 12.0488 14.9365C11.1071 13.6709 10.6094 12.168 10.6094 10.5905V6.57812C10.6094 6.18981 10.9242 5.875 11.3125 5.875C12.201 5.875 12.9998 5.38131 13.3971 4.58664L13.4961 4.38873C13.6152 4.15047 13.8587 4 14.125 4H17.875C18.1413 4 18.3848 4.15047 18.5039 4.38869L18.6029 4.58664C19.0002 5.38131 19.799 5.875 20.6875 5.875C21.0758 5.875 21.3906 6.18981 21.3906 6.57812V10.5905C21.3906 12.168 20.8929 13.6709 19.9512 14.9365C19.0095 16.2022 17.713 17.1108 16.202 17.5641C16.1361 17.5839 16.0681 17.5938 16 17.5938Z" fill="#4D4354"/>
<path d="M20.6875 5.875C19.799 5.875 19.0002 5.38131 18.6029 4.58669L18.5039 4.38873C18.3848 4.15047 18.1413 4 17.875 4H16V17.5938C16.0681 17.5938 16.1361 17.5839 16.202 17.5641C17.713 17.1108 19.0095 16.2022 19.9512 14.9365C20.8929 13.6709 21.3906 12.168 21.3906 10.5905V6.57812C21.3906 6.18981 21.0758 5.875 20.6875 5.875Z" fill="#201429"/>
<path d="M12.0156 7.21577V10.5905C12.0156 13.1338 13.608 15.343 16 16.1527C18.392 15.343 19.9844 13.1338 19.9844 10.5905V7.21577C18.9203 7.01491 17.9951 6.36264 17.4473 5.40625H14.5527C14.0049 6.36264 13.0797 7.01491 12.0156 7.21577Z" fill="#F7F4F2"/>
<path d="M17.4473 5.40625H16V16.1527C18.392 15.3429 19.9844 13.1337 19.9844 10.5905V7.21577C18.9203 7.01491 17.9951 6.36259 17.4473 5.40625Z" fill="#F7F4F2"/>
<path d="M15.3375 12.826C15.1576 12.826 14.9776 12.7573 14.8404 12.62L13.5145 11.2942C13.2399 11.0196 13.2399 10.5744 13.5145 10.2998C13.7891 10.0252 14.2343 10.0252 14.5089 10.2998L15.3376 11.1284L17.492 8.97401C17.7666 8.69942 18.2118 8.69942 18.4864 8.97401C18.761 9.24861 18.761 9.69378 18.4864 9.96837L15.8348 12.62C15.6974 12.7573 15.5175 12.826 15.3375 12.826Z" fill="#4D4354"/>
<path d="M17.4916 8.97401L16 10.4656V12.4543L18.4859 9.96837C18.7605 9.69378 18.7605 9.24861 18.4859 8.97401C18.2113 8.69942 17.7661 8.69942 17.4916 8.97401Z" fill="#201429"/>
<path d="M8.92188 20.0312C6.20795 20.0312 4 22.2392 4 24.9531V27.2969C4 27.6852 4.31481 28 4.70312 28H12.0156L13.5369 23.2424C12.8403 21.3693 11.0345 20.0312 8.92188 20.0312Z" fill="#FEB644"/>
<path d="M12.0156 28L13.5369 23.2424C12.8403 21.3693 11.0345 20.0312 8.92188 20.0312V28H12.0156Z" fill="#FFA921"/>
<path d="M8.92188 21.4375C7.24183 21.4375 5.875 20.0707 5.875 18.3906C5.875 16.7106 7.24183 15.3438 8.92188 15.3438C10.6019 15.3438 11.9688 16.7106 11.9688 18.3906C11.9688 20.0707 10.6019 21.4375 8.92188 21.4375Z" fill="#FDD4BB"/>
<path d="M11.9688 18.3906C11.9688 16.7106 10.6019 15.3438 8.92188 15.3438V21.4375C10.6019 21.4375 11.9688 20.0707 11.9688 18.3906Z" fill="#F9B5A1"/>
<path d="M23.0801 20.0312C20.9711 20.0312 19.1679 21.3648 18.4688 23.2328L19.9864 28H27.2989C27.6872 28 28.002 27.6852 28.002 27.2969V24.9531C28.002 22.2392 25.794 20.0312 23.0801 20.0312Z" fill="#F58B71"/>
<path d="M27.2969 28C27.6852 28 28 27.6852 28 27.2969V24.9531C28 22.2392 25.792 20.0312 23.0781 20.0312V28H27.2969Z" fill="#EE6C4D"/>
<path d="M23.0781 21.4375C21.3981 21.4375 20.0312 20.0707 20.0312 18.3906C20.0312 16.7106 21.3981 15.3438 23.0781 15.3438C24.7582 15.3438 26.125 16.7106 26.125 18.3906C26.125 20.0707 24.7582 21.4375 23.0781 21.4375Z" fill="#FDD4BB"/>
<path d="M26.125 18.3906C26.125 16.7106 24.7582 15.3438 23.0781 15.3438V21.4375C24.7582 21.4375 26.125 20.0707 26.125 18.3906Z" fill="#F9B5A1"/>
<path d="M19.9844 28H12.0156V26.4102C12.0156 24.2166 13.7672 22.3965 15.9607 22.3752C18.1756 22.3537 19.9844 24.1493 19.9844 26.3594V28Z" fill="#DFD6E5"/>
<path d="M16 22.3755V28.0002H19.9844V26.3595C19.9844 24.1626 18.1969 22.3755 16 22.3755Z" fill="#C2B0CF"/>
<path d="M16 23.7812C14.5784 23.7812 13.4219 22.6247 13.4219 21.2031C13.4219 19.7815 14.5784 18.625 16 18.625C17.4216 18.625 18.5781 19.7815 18.5781 21.2031C18.5781 22.6247 17.4216 23.7812 16 23.7812Z" fill="#FDD4BB"/>
<path d="M18.5781 21.2031C18.5781 19.7815 17.4216 18.625 16 18.625V23.7812C17.4216 23.7812 18.5781 22.6247 18.5781 21.2031Z" fill="#F9B5A1"/>
</svg>
