<svg width="32" height="32" viewBox="0 0 32 32" fill="none" xmlns="http://www.w3.org/2000/svg">
<path d="M9.1653 15.2699L7.28876 9.864C7.20939 9.5474 7.01334 9.27247 6.73988 9.09426C6.46642 8.91605 6.13574 8.84772 5.81404 8.90295C5.64907 8.93812 5.49297 9.00643 5.35519 9.10373C5.21741 9.20104 5.10083 9.32531 5.01251 9.46901C4.9242 9.61272 4.86599 9.77287 4.84141 9.93974C4.81684 10.1066 4.82642 10.2767 4.86956 10.4398L6.79995 16.4008L9.1653 15.2699Z" fill="#F9B5A1"/>
<path d="M22.6602 15.2699L24.5367 9.864C24.6161 9.5474 24.8121 9.27247 25.0856 9.09426C25.359 8.91605 25.6897 8.84772 26.0114 8.90295C26.1764 8.93812 26.3325 9.00643 26.4703 9.10373C26.608 9.20104 26.7246 9.32531 26.8129 9.46901C26.9013 9.61272 26.9595 9.77287 26.984 9.93974C27.0086 10.1066 26.999 10.2767 26.9559 10.4398L25.0255 16.4008L22.6602 15.2699Z" fill="#F9B5A1"/>
<path d="M13.0331 17.5121L9.37114 15.3654C9.11774 15.2191 8.82075 15.1671 8.53269 15.2185C8.24462 15.27 7.98404 15.4217 7.797 15.6467L6.46064 11.5212C6.38126 11.2046 6.18522 10.9297 5.91176 10.7515C5.6383 10.5733 5.30761 10.5049 4.98592 10.5602C4.82095 10.5953 4.66484 10.6637 4.52706 10.761C4.38929 10.8583 4.2727 10.9825 4.18439 11.1262C4.09607 11.2699 4.03786 11.4301 4.01329 11.597C3.98872 11.7638 3.99829 11.934 4.04143 12.097L5.84341 18.8203C5.92607 19.1347 6.10058 19.4174 6.34465 19.6322L9.14496 22.1218C9.31968 22.2774 9.45947 22.4682 9.55515 22.6817C9.65082 22.8952 9.70021 23.1265 9.70005 23.3604V24.686H14.671V20.3712C14.6711 19.7932 14.5199 19.2252 14.2326 18.7236C13.9453 18.2221 13.5317 17.8044 13.0331 17.5121Z" fill="#FDD4BB"/>
<path d="M26.8414 10.5602C26.5197 10.5049 26.189 10.5733 25.9155 10.7515C25.6421 10.9297 25.446 11.2046 25.3666 11.5212L24.0286 15.6467C23.8416 15.4217 23.581 15.27 23.2929 15.2185C23.0049 15.1671 22.7079 15.2191 22.4545 15.3654L18.7925 17.5121C18.2942 17.8046 17.881 18.2224 17.594 18.7239C17.3069 19.2255 17.156 19.7933 17.1563 20.3712V24.686H22.1272V23.3604C22.1271 23.1265 22.1765 22.8952 22.2721 22.6817C22.3678 22.4682 22.5076 22.2774 22.6823 22.1218L25.4826 19.6322C25.7267 19.4174 25.9012 19.1347 25.9839 18.8203L27.7858 12.097C27.829 11.934 27.8386 11.7638 27.814 11.597C27.7894 11.4301 27.7312 11.2699 27.6429 11.1262C27.5546 10.9825 27.438 10.8583 27.3002 10.761C27.1624 10.6637 27.0063 10.5953 26.8414 10.5602Z" fill="#FDD4BB"/>
<path d="M16.7422 24.686V28H22.5417V24.686H22.1274H17.1564H16.7422Z" fill="#FFA921"/>
<path d="M15.0846 24.686H14.6704H9.6994H9.28516V28H15.0846V24.686Z" fill="#FFA921"/>
<path d="M21.4822 10.4193L21.1881 10.7135L15.9147 15.9868L10.6413 10.7135L10.3472 10.4193C9.98896 10.0758 9.7029 9.66428 9.5058 9.20877C9.3087 8.75327 9.20454 8.26299 9.19942 7.7667C9.1943 7.27041 9.28832 6.77809 9.47597 6.31861C9.66363 5.85913 9.94114 5.44175 10.2922 5.09094C10.6433 4.74012 11.0609 4.46294 11.5205 4.27565C11.9802 4.08835 12.4726 3.99472 12.9688 4.00023C13.4651 4.00574 13.9553 4.11029 14.4107 4.30775C14.866 4.5052 15.2774 4.79159 15.6206 5.15011L15.9147 5.44423L16.2088 5.15011C16.552 4.79159 16.9634 4.5052 17.4187 4.30775C17.8741 4.11029 18.3643 4.00574 18.8606 4.00023C19.3568 3.99472 19.8492 4.08835 20.3089 4.27565C20.7685 4.46294 21.1861 4.74012 21.5372 5.09094C21.8883 5.44175 22.1658 5.85913 22.3534 6.31861C22.5411 6.77809 22.6351 7.27041 22.63 7.7667C22.6249 8.26299 22.5207 8.75327 22.3236 9.20877C22.1265 9.66428 21.8404 10.0758 21.4822 10.4193Z" fill="#F58B71"/>
<path d="M21.4817 5.15032C21.0876 4.75201 20.6079 4.44877 20.079 4.26365C19.5502 4.07853 18.986 4.0164 18.4296 4.08197C19.1272 4.15929 19.7889 4.43213 20.3383 4.86906C20.8876 5.30598 21.3024 5.88922 21.5348 6.55158C21.7672 7.21394 21.8077 7.92848 21.6518 8.61288C21.4958 9.29727 21.1497 9.92369 20.6532 10.42L20.3591 10.7141L15.5 15.5728L15.9142 15.987L21.1876 10.7137L21.4817 10.4195C22.1799 9.7205 22.5721 8.77291 22.5721 7.78493C22.5721 6.79695 22.1799 5.84936 21.4817 5.15032Z" fill="#EE6C4D"/>
<path d="M16.7437 11.8445V10.1875H18.4007V8.53052H16.7437V6.87354H15.0867V8.53052H13.4297V10.1875H15.0867V11.8445H16.7437Z" fill="#F1F2F2"/>
<path d="M23.698 16.6909L20.9292 18.2237C20.85 18.2695 20.7914 18.3438 20.7651 18.4314C20.7389 18.519 20.747 18.6133 20.7879 18.6951C20.8098 18.7388 20.8404 18.7776 20.8778 18.8091C20.9152 18.8406 20.9587 18.8641 21.0055 18.8781C21.0523 18.8922 21.1016 18.8965 21.1501 18.8908C21.1987 18.8851 21.2456 18.8695 21.2879 18.845L23.698 17.5194C23.9496 17.3736 24.1421 17.1441 24.242 16.8709C24.3418 16.5977 24.3427 16.2982 24.2444 16.0244C24.1486 16.3052 23.9545 16.5419 23.698 16.6909Z" fill="#F9B5A1"/>
<path d="M8.12728 16.6909L10.8961 18.2237C10.9752 18.2695 11.0339 18.3438 11.0602 18.4314C11.0864 18.519 11.0783 18.6133 11.0374 18.6951C11.0155 18.7388 10.9849 18.7776 10.9475 18.8091C10.9101 18.8406 10.8666 18.8641 10.8198 18.8781C10.7729 18.8922 10.7237 18.8965 10.6752 18.8908C10.6266 18.8851 10.5797 18.8695 10.5374 18.845L8.12728 17.5194C7.87566 17.3736 7.68316 17.1441 7.58332 16.8709C7.48349 16.5977 7.48262 16.2982 7.58089 16.0244C7.67673 16.3052 7.87077 16.5419 8.12728 16.6909Z" fill="#F9B5A1"/>
</svg>
