<svg width="32" height="32" viewBox="0 0 32 32" fill="none" xmlns="http://www.w3.org/2000/svg">
<path d="M16 28C12.7947 28 9.78123 26.7518 7.51473 24.4853C5.24823 22.2188 4 19.2053 4 16C4 12.7947 5.24823 9.78123 7.51473 7.51473C9.78123 5.24823 12.7947 4 16 4C19.2053 4 22.2188 5.24823 24.4853 7.51473C26.7518 9.78123 28 12.7947 28 16C28 19.2053 26.7518 22.2188 24.4853 24.4853C22.2188 26.7518 19.2053 28 16 28Z" fill="#FFA921"/>
<path d="M15.9985 25.8032C13.38 25.8032 10.9182 24.7835 9.06659 22.9319C7.21503 21.0803 6.19531 18.6185 6.19531 16C6.19531 13.3815 7.21503 10.9197 9.06664 9.06806C10.9182 7.2165 13.38 6.19678 15.9985 6.19678C18.617 6.19678 21.0788 7.2165 22.9304 9.06811C24.782 10.9197 25.8017 13.3815 25.8017 16C25.8017 18.6185 24.782 21.0803 22.9304 22.9319C21.0788 24.7835 18.617 25.8032 15.9985 25.8032Z" fill="#FEB644"/>
<path d="M19.3685 13.4609H19.3671L18.5707 13.4623C18.4638 12.9372 18.2416 12.4447 17.9168 12.0149L19.3698 12.0121C19.7698 12.0114 20.0935 11.6865 20.0928 11.2865C20.092 10.8869 19.7679 10.5635 19.3685 10.5635H19.3671L15.0685 10.5714C15.0532 10.5713 15.038 10.5703 15.0226 10.5703H15.0138L12.6328 10.5759C11.7312 10.5781 11.6507 12.0129 12.6376 12.0246L15.0686 12.0201C15.6308 12.0318 16.1577 12.2552 16.5572 12.6536C16.7906 12.8866 16.9644 13.1632 17.0713 13.4651L12.6332 13.4733C12.2331 13.4741 11.9094 13.799 11.9102 14.199C11.9109 14.5986 12.235 14.922 12.6345 14.922H12.6358L17.0715 14.9138C16.7735 15.7561 15.97 16.3628 15.0276 16.365L12.6328 16.3707C11.9837 16.3722 11.6665 17.2036 12.1525 17.6356L17.4377 22.3481C17.5758 22.4713 17.748 22.5318 17.9195 22.5318C18.1188 22.5318 18.3173 22.45 18.4604 22.2895C18.7266 21.9909 18.7004 21.533 18.4018 21.2668L14.5303 17.815L15.031 17.8138C16.7772 17.8097 18.2378 16.561 18.5721 14.9111L19.3698 14.9096C19.7699 14.9088 20.0936 14.5839 20.0928 14.1839C20.092 13.7843 19.7679 13.4609 19.3685 13.4609Z" fill="white"/>
</svg>
