<svg width="32" height="32" viewBox="0 0 32 32" fill="none" xmlns="http://www.w3.org/2000/svg">
<g clip-path="url(#clip0_420_25534)">
<path d="M22.0985 17.8074C22.0985 13.4453 18.5717 9.90918 14.2211 9.90918C9.87054 9.90918 6.34375 13.4453 6.34375 17.8074C6.34375 22.1696 9.87054 25.7057 14.2211 25.7057C18.5717 25.7057 22.0985 22.1696 22.0985 17.8074Z" fill="#FEB644"/>
<path d="M14.2207 9.90918C13.8164 9.90918 13.4191 9.93976 13.0312 9.99872C16.8173 10.5737 19.719 13.8507 19.719 17.8074C19.719 21.7642 16.8173 25.0412 13.0312 25.6161C13.4191 25.6751 13.8164 25.7057 14.2207 25.7057C18.5713 25.7057 22.0981 22.1696 22.0981 17.8074C22.0981 13.4453 18.5713 9.90918 14.2207 9.90918Z" fill="#FFA921"/>
<path d="M13.1986 12.9785C11.9851 13.7389 11.0749 14.9554 11.7575 16.3243C12.4402 17.6931 13.957 17.1608 15.3601 16.9707C16.7633 16.7806 15.7014 21.1151 16.5357 22.1797C17.3699 23.2443 19.721 21.1151 19.4936 19.7462C19.1567 17.7196 19.0385 17.0086 21.7688 15.5639L21.7762 15.5612C20.8559 12.4449 18.0701 10.1326 14.7158 9.9248L14.7154 9.93671C14.7154 9.93671 14.412 12.218 13.1986 12.9785Z" fill="#F58B71"/>
<path d="M8.98798 21.3813C8.6236 20.8256 9.63269 19.5184 9.86011 18.5298C10.0877 17.5412 8.72247 17.6172 8.30536 17.275C7.88824 16.9327 7.31934 15.45 6.90222 15.1077L6.83557 15.0552C6.5177 15.9121 6.34375 16.8394 6.34375 17.8073C6.34375 20.418 7.60718 22.7324 9.55432 24.1703L9.5567 24.0048C9.5567 24.0048 9.86011 22.7121 8.98798 21.3813Z" fill="#F58B71"/>
<path d="M19.4914 19.7463C19.4897 19.7364 19.4881 19.7267 19.4865 19.7168C19.3358 20.3256 19.1146 20.9066 18.832 21.4504C19.2801 20.9216 19.5795 20.2769 19.4914 19.7463Z" fill="#F58B71"/>
<path d="M14.7158 9.9248L14.7155 9.93671C14.7155 9.93671 14.6902 10.1271 14.625 10.4159C17.3873 11.4614 19.4097 14.0187 19.688 17.0817C20.0361 16.6056 20.6728 16.1438 21.7689 15.5639L21.7762 15.5612C20.8559 12.4449 18.0701 10.1326 14.7158 9.9248Z" fill="#EE6C4D"/>
<path d="M14.2105 27.9999C13.6526 27.9999 13.0907 27.9541 12.5291 27.8613C9.84456 27.418 7.49331 25.9559 5.90853 23.7443C4.32375 21.5328 3.69515 18.8364 4.13863 16.152C4.17068 15.9576 4.35488 15.8261 4.54879 15.8581C4.74325 15.8902 4.8749 16.0738 4.84267 16.2683C4.4305 18.7646 5.01498 21.272 6.48879 23.3287C7.96261 25.3853 10.1489 26.7449 12.6455 27.1572C17.7994 28.0087 22.6839 24.5082 23.5352 19.3551C23.9473 16.8588 23.3629 14.3514 21.8891 12.2947C20.4154 10.2381 18.229 8.87853 15.7325 8.46617C15.538 8.43413 15.4064 8.25048 15.4384 8.05602C15.4707 7.86156 15.6547 7.73009 15.8486 7.76213C18.5333 8.20543 20.8845 9.66753 22.4691 11.8791C24.0539 14.0906 24.6825 16.787 24.2392 19.4714C23.7959 22.1557 22.3336 24.5068 20.1219 26.0914C18.3727 27.3445 16.3205 27.9999 14.2105 27.9999Z" fill="#028F5D"/>
<path d="M12.0436 12.6197C8.23425 11.9733 5.87109 7.17705 5.87109 7.17705C5.87109 7.17705 9.68427 3.4287 13.4936 4.07488C17.3029 4.72106 19.6661 9.51733 19.6661 9.51733C19.6661 9.51733 15.8529 13.2659 12.0436 12.6197Z" fill="#09A66D"/>
<path d="M13.4957 4.07478C12.7682 3.95136 12.041 3.98853 11.3398 4.12898C14.9901 4.94856 17.2417 9.51722 17.2417 9.51722C17.2417 9.51722 14.7456 11.9707 11.7749 12.5654C11.8644 12.5855 11.9545 12.604 12.0457 12.6196C15.855 13.2658 19.6682 9.51722 19.6682 9.51722C19.6682 9.51722 17.3051 4.72096 13.4957 4.07478Z" fill="#028F5D"/>
<path d="M19.4507 9.11926L15.7255 8.49084L12.2457 4.01025C11.9681 4.02655 11.6931 4.06207 11.4218 4.11298L14.6854 8.31525L11.8764 7.84137L9.47955 4.7403C9.2547 4.84174 9.03607 4.9494 8.82532 5.0611L10.8389 7.66632L6.19409 6.88263C5.98553 7.06482 5.87109 7.17725 5.87109 7.17725C5.87109 7.17725 5.94763 7.33234 6.09448 7.5896L10.7141 8.3689L8.15204 10.3499C8.31702 10.5198 8.49005 10.6877 8.67096 10.8507L11.6717 8.53058L14.6455 9.03229L10.6011 12.1614C10.8521 12.2786 11.1116 12.38 11.3791 12.4617L15.6031 9.19397L19.3308 9.82275C19.5469 9.63434 19.6661 9.51752 19.6661 9.51752C19.6661 9.51752 19.5923 9.3681 19.4507 9.11926Z" fill="#028F5D"/>
<path d="M22.2569 7.96411C23.2788 5.54602 26.8195 4.73193 26.8195 4.73193C26.8195 4.73193 28.7035 7.83832 27.6816 10.2564C26.6599 12.6745 23.119 13.4886 23.119 13.4886C23.119 13.4886 21.235 10.3822 22.2569 7.96411Z" fill="#09A66D"/>
<path d="M26.8206 4.73193C26.8206 4.73193 26.0155 4.91724 25.0623 5.37317C25.5513 6.40918 26.3266 8.51178 25.5892 10.2564C25.0547 11.5213 23.8309 12.3473 22.7852 12.8474C22.9739 13.2473 23.1202 13.4886 23.1202 13.4886C23.1202 13.4886 26.6609 12.6745 27.6829 10.2564C28.7046 7.83832 26.8206 4.73193 26.8206 4.73193Z" fill="#09A66D"/>
<path d="M27.9705 8.26202L25.2477 9.40424L27.0353 5.13037C26.9073 4.87769 26.8189 4.73193 26.8189 4.73193C26.8189 4.73193 26.6505 4.77075 26.3763 4.85645L24.5288 9.27332L23.3831 6.45441C23.189 6.62561 23.0059 6.81165 22.8398 7.01324L24.1381 10.2075L22.9186 13.1229C23.0376 13.3553 23.1183 13.4886 23.1183 13.4886C23.1183 13.4886 23.3015 13.4465 23.5959 13.3531L24.8551 10.3428L27.9694 9.03656C27.9901 8.77783 27.989 8.51837 27.9705 8.26202Z" fill="#028F5D"/>
</g>
<defs>
<clipPath id="clip0_420_25534">
<rect width="24" height="24" fill="white" transform="translate(4 4)"/>
</clipPath>
</defs>
</svg>
