<svg width="32" height="32" viewBox="0 0 32 32" fill="none" xmlns="http://www.w3.org/2000/svg">
<path d="M11.05 15.2163C7.0578 14.8414 4 11.5311 4 7.51562V6.10937C4 4.94622 4.94622 4 6.10938 4C7.27253 4 8.21875 4.94622 8.21875 6.10937C8.21875 6.49731 8.53394 6.8125 8.92188 6.8125H10.375C10.7636 6.8125 11.0781 7.12698 11.0781 7.51562C11.0781 7.90427 10.7636 8.21875 10.375 8.21875H8.92188C7.75872 8.21875 6.8125 7.27253 6.8125 6.10937C6.8125 5.72144 6.49731 5.40625 6.10938 5.40625C5.72144 5.40625 5.40625 5.72144 5.40625 6.10937V7.51562C5.40625 10.8012 7.91613 13.5093 11.1818 13.8156C11.5684 13.852 11.852 14.1953 11.8163 14.5819C11.7799 14.9672 11.4386 15.2517 11.05 15.2163Z" fill="#FFA921"/>
<path d="M20.2296 14.5819C20.1939 14.1953 20.4775 13.852 20.8641 13.8156C24.1297 13.5093 26.5927 10.8012 26.5927 7.51562V6.10938C26.5927 5.72144 26.2776 5.40625 25.8896 5.40625C25.5017 5.40625 25.1865 5.72144 25.1865 6.10938C25.1865 7.27253 24.2403 8.21875 23.0771 8.21875H21.6709C21.2822 8.21875 20.9677 7.90427 20.9677 7.51562C20.9677 7.12698 21.2822 6.8125 21.6709 6.8125H23.0771C23.4651 6.8125 23.7802 6.49731 23.7802 6.10938C23.7802 4.94622 24.7265 4 25.8896 4C27.0528 4 27.999 4.94622 27.999 6.10938V7.51562C27.999 11.5311 24.9881 14.8414 20.9959 15.2163C20.6073 15.2517 20.266 14.9673 20.2296 14.5819Z" fill="#FF9F40"/>
<path d="M21.6719 4H16H10.375C9.98636 4 9.67188 4.31448 9.67188 4.70312V11.7344C9.67188 14.4226 11.3809 16.7943 13.8906 17.68V23.0781H16H18.1094V17.68C20.6191 16.7943 22.375 14.4226 22.375 11.7344V4.70312C22.375 4.31448 22.0605 4 21.6719 4Z" fill="#FEB644"/>
<path d="M18.1094 17.68C20.6191 16.7943 22.375 14.4226 22.375 11.7344V4.70312C22.375 4.31448 22.0605 4 21.6719 4H16V23.0781H18.1094V17.68Z" fill="#FFA921"/>
<path d="M19.5915 9.42189C19.5084 9.16713 19.2887 8.98174 19.0237 8.9433L17.3702 8.70297L16.6307 7.20471C16.5126 6.96438 16.2565 6.84424 16.0004 6.84424C15.7443 6.84424 15.4881 6.96438 15.3701 7.20471L14.6306 8.70297L12.9771 8.9433C12.7121 8.98174 12.4924 9.16713 12.4093 9.42189C12.3269 9.67596 12.3956 9.95543 12.5871 10.1422L13.784 11.3088L13.5017 12.9554C13.4564 13.2191 13.5649 13.4855 13.7812 13.6427C13.9975 13.8006 14.2873 13.8213 14.5214 13.6963L16.0004 12.9197L17.4794 13.6962C17.7128 13.82 18.0017 13.8019 18.2196 13.6427C18.4359 13.4854 18.5444 13.219 18.4991 12.9553L18.2168 11.3088L19.4136 10.1421C19.6052 9.95543 19.6739 9.67596 19.5915 9.42189Z" fill="#F58B71"/>
<path d="M18.2192 13.6427C18.4355 13.4855 18.544 13.2191 18.4987 12.9554L18.2164 11.3088L19.4132 10.1422C19.6048 9.95543 19.6735 9.67596 19.5911 9.42189C19.508 9.16713 19.2883 8.98174 19.0233 8.9433L17.3698 8.70297L16.6303 7.20471C16.5122 6.96438 16.2561 6.84424 16 6.84424V12.9197L17.479 13.6962C17.7123 13.82 18.0013 13.8019 18.2192 13.6427Z" fill="#EE6C4D"/>
<path d="M21.625 25.1875H20.9219V23.0781C20.9219 22.6895 20.6074 22.375 20.2188 22.375H16H11.7812C11.3926 22.375 11.0781 22.6895 11.0781 23.0781V25.1875H10.375C9.98636 25.1875 9.67188 25.502 9.67188 25.8906V27.2969C9.67188 27.6855 9.98636 28 10.375 28H16H21.625C22.0136 28 22.3281 27.6855 22.3281 27.2969V25.8906C22.3281 25.502 22.0136 25.1875 21.625 25.1875Z" fill="#4D4354"/>
<path d="M22.3281 27.2969V25.8906C22.3281 25.502 22.0136 25.1875 21.625 25.1875H20.9219V23.0781C20.9219 22.6895 20.6074 22.375 20.2188 22.375H16V28H21.625C22.0136 28 22.3281 27.6855 22.3281 27.2969Z" fill="#201429"/>
<path d="M17.4062 24.4844H16H14.5938C14.2051 24.4844 13.8906 24.7989 13.8906 25.1875C13.8906 25.5761 14.2051 25.8906 14.5938 25.8906H16H17.4062C17.7949 25.8906 18.1094 25.5761 18.1094 25.1875C18.1094 24.7989 17.7949 24.4844 17.4062 24.4844Z" fill="#201429"/>
<path d="M18.1094 25.1875C18.1094 24.7989 17.7949 24.4844 17.4062 24.4844H16V25.8906H17.4062C17.7949 25.8906 18.1094 25.5761 18.1094 25.1875Z" fill="#4D4354"/>
</svg>
