<svg width="57" height="56" viewBox="0 0 57 56" fill="none" xmlns="http://www.w3.org/2000/svg">
<g clip-path="url(#clip0_30175_40302)">
<path d="M47.3215 20.1327C47.3215 9.53914 38.7338 0.951477 28.1402 0.951477C17.5466 0.951477 8.95898 9.53914 8.95898 20.1327C8.95898 28.4055 14.1962 35.4546 21.5359 38.1463V44.4901C21.5359 46.6835 23.3141 48.4618 25.5071 48.4618H30.7734C32.9664 48.4618 34.7446 46.6835 34.7446 44.4901V38.1463C42.0843 35.4546 47.3215 28.4055 47.3215 20.1327V20.1327Z" fill="#FFC850"/>
<path d="M28.1401 0.951477C27.3942 0.951477 26.6589 0.995483 25.9355 1.07837C35.4901 2.17212 42.9118 10.2851 42.9118 20.1327C42.9118 28.4055 37.6746 35.4546 30.3349 38.1463V44.4901C30.3349 46.6835 28.5567 48.4618 26.3636 48.4618H30.7728C32.9663 48.4618 34.7445 46.6835 34.7445 44.4901V38.1463C42.0842 35.4546 47.3214 28.4055 47.3214 20.1327C47.3214 9.53914 38.7337 0.951477 28.1401 0.951477V0.951477Z" fill="#FEB644"/>
<path d="M9.55698 0.577205C9.23783 0.250361 8.71445 0.24438 8.38803 0.563533C8.06119 0.882259 8.05478 1.40606 8.37393 1.73248L11.609 5.04535C11.771 5.21113 11.9855 5.29444 12.2004 5.29444C12.4089 5.29444 12.6173 5.21625 12.778 5.05903C13.1048 4.7403 13.1108 4.21649 12.7921 3.89008L9.55698 0.577205Z" fill="#FEB644"/>
<path d="M4.21361 7.48492L8.19555 9.8476C8.328 9.92621 8.47326 9.96381 8.61682 9.96381C8.89923 9.96381 9.17395 9.81897 9.32861 9.55878C9.56189 9.16571 9.43243 8.65857 9.03937 8.42572L5.05742 6.06305C4.66478 5.8302 4.15721 5.95965 3.92436 6.35187C3.69151 6.74493 3.82096 7.25207 4.21361 7.48492Z" fill="#FEB644"/>
<path d="M1.6836 14.118L6.14149 15.3698C6.21583 15.3907 6.29103 15.4006 6.36537 15.4006C6.72639 15.4006 7.05836 15.1622 7.1609 14.7973C7.28438 14.3576 7.0276 13.9009 6.58839 13.7774L2.1305 12.526C1.69086 12.4021 1.23413 12.6589 1.11108 13.0985C0.987611 13.5382 1.24396 13.9945 1.6836 14.118V14.118Z" fill="#FEB644"/>
<path d="M5.59748 21.235C6.04951 21.235 6.41865 20.8714 6.4242 20.4181C6.42933 19.9614 6.06361 19.5871 5.60731 19.5815L0.977236 19.5264C0.973818 19.5264 0.970401 19.5264 0.96741 19.5264C0.515383 19.5264 0.146242 19.89 0.140687 20.3433C0.135133 20.8001 0.501284 21.1743 0.957583 21.1799L5.58766 21.235H5.59748Z" fill="#FEB644"/>
<path d="M7.16741 26.0386C7.05419 25.596 6.6043 25.3289 6.16167 25.4421L1.67515 26.5872C1.23295 26.7 0.965491 27.1503 1.07871 27.5925C1.17399 27.9663 1.51023 28.215 1.87895 28.215C1.94688 28.215 2.01566 28.2069 2.08402 28.1893L6.57054 27.0439C7.01317 26.9311 7.2802 26.4808 7.16741 26.0386Z" fill="#FEB644"/>
<path d="M9.33889 31.2749C9.11544 30.8771 8.61128 30.7357 8.21309 30.9591L4.17604 33.2265C3.77784 33.45 3.63642 33.9541 3.85987 34.3519C4.01155 34.6224 4.29225 34.774 4.58149 34.774C4.71864 34.774 4.8575 34.7399 4.98567 34.6681L9.02272 32.4007C9.42092 32.1772 9.56234 31.6731 9.33889 31.2749V31.2749Z" fill="#FEB644"/>
<path d="M11.6226 35.7571L8.30969 38.9923C7.98284 39.3114 7.97686 39.8348 8.29602 40.1612C8.45794 40.3274 8.67242 40.4107 8.88733 40.4107C9.09582 40.4107 9.30432 40.3321 9.46496 40.1753L12.7778 36.9402C13.1047 36.6215 13.1107 36.0976 12.7919 35.7712C12.4728 35.4444 11.949 35.4384 11.6226 35.7571Z" fill="#FEB644"/>
<path d="M44.6725 35.7712C44.3533 35.4444 43.8295 35.4384 43.5031 35.7571C43.1763 36.0763 43.1703 36.5997 43.489 36.9265L46.7241 40.2394C46.886 40.4052 47.1009 40.4885 47.3159 40.4885C47.5239 40.4885 47.7324 40.4103 47.8931 40.2531C48.2199 39.9344 48.2263 39.4105 47.9072 39.0841L44.6725 35.7712Z" fill="#FEB644"/>
<path d="M52.0669 33.3317L48.0845 30.969C47.6919 30.7361 47.1847 30.8656 46.9519 31.2578C46.7186 31.6509 46.8485 32.158 47.2411 32.3909L51.2231 34.7535C51.3555 34.8322 51.5008 34.8693 51.6439 34.8693C51.9263 34.8693 52.2015 34.7249 52.3561 34.4643C52.589 34.0717 52.4595 33.5645 52.0669 33.3317V33.3317Z" fill="#FEB644"/>
<path d="M54.5981 26.6987L50.1407 25.4468C49.701 25.3234 49.2443 25.5797 49.1208 26.0193C48.9973 26.459 49.2541 26.9153 49.6933 27.0388L54.1512 28.2906C54.226 28.3115 54.3012 28.3214 54.3751 28.3214C54.7365 28.3214 55.0685 28.0829 55.1706 27.7181C55.2941 27.2784 55.0377 26.8221 54.5981 26.6987V26.6987Z" fill="#FEB644"/>
<path d="M55.3241 19.6367L50.694 19.5815C50.6906 19.5815 50.6872 19.5815 50.6842 19.5815C50.2322 19.5815 49.863 19.9451 49.8575 20.3984C49.8519 20.8552 50.2177 21.2294 50.6744 21.235L55.3045 21.2901H55.3143C55.7663 21.2901 56.1355 20.9265 56.141 20.4732C56.1466 20.0165 55.7804 19.6422 55.3241 19.6367Z" fill="#FEB644"/>
<path d="M49.1157 14.778C49.2114 15.1519 49.5476 15.4005 49.9163 15.4005C49.9838 15.4005 50.0526 15.3924 50.1214 15.3749L54.6079 14.2294C55.0501 14.1166 55.3172 13.6663 55.2044 13.2241C55.0916 12.7815 54.6417 12.5145 54.1986 12.6277L49.7125 13.7727C49.2699 13.8855 49.0029 14.3358 49.1157 14.778V14.778Z" fill="#FEB644"/>
<path d="M46.9439 9.5417C47.0955 9.81172 47.3762 9.96339 47.6655 9.96339C47.8026 9.96339 47.9415 9.92921 48.0697 9.85744L52.1067 7.59047C52.5049 7.36659 52.6463 6.86287 52.4229 6.46467C52.199 6.06648 51.6953 5.92506 51.2971 6.14851L47.26 8.41591C46.8618 8.63936 46.7204 9.14308 46.9439 9.5417Z" fill="#FEB644"/>
<path d="M44.0807 5.29442C44.2892 5.29442 44.4977 5.21624 44.6584 5.05901L47.9712 1.82432C48.2977 1.50517 48.3041 0.981792 47.9849 0.654949C47.6658 0.328532 47.1424 0.322551 46.816 0.641277L43.5031 3.87596C43.1763 4.19512 43.1703 4.71849 43.489 5.04534C43.6514 5.21154 43.8658 5.29442 44.0807 5.29442Z" fill="#FEB644"/>
<path d="M32.8775 27.9454C32.5651 27.6121 32.0422 27.5955 31.7089 27.9074L28.9677 30.4777V19.2509C28.9677 18.7942 28.5977 18.4242 28.141 18.4242C27.6843 18.4242 27.3143 18.7942 27.3143 19.2509V30.4785L24.5722 27.9074C24.2389 27.5955 23.7156 27.6121 23.4033 27.9454C23.0909 28.2782 23.108 28.8016 23.4408 29.1139L27.3143 32.7455V43.3912C27.3143 43.8479 27.6843 44.2179 28.141 44.2179C28.5973 44.2179 28.9677 43.8479 28.9677 43.3912V32.7442L32.8399 29.1139C33.1731 28.8016 33.1898 28.2782 32.8775 27.9454V27.9454Z" fill="#49CB5C"/>
<path d="M18.165 27.0742C20.1743 29.0836 23.1958 29.5006 24.5092 29.5851C24.8655 29.6082 25.1599 29.3138 25.1368 28.9575C25.0522 27.6437 24.6356 24.6227 22.6259 22.6129C20.6161 20.6036 17.595 20.1866 16.2812 20.102C15.9249 20.0789 15.6305 20.3733 15.6536 20.7296C15.7386 22.0434 16.1552 25.0645 18.165 27.0742V27.0742Z" fill="#09A66D"/>
<path d="M25.1379 28.9575C25.0533 27.6438 24.6367 24.6227 22.627 22.6129C20.6172 20.6031 17.5961 20.1866 16.2823 20.102C15.947 20.0802 15.6667 20.34 15.6543 20.6672C16.7968 21.0364 18.0123 21.6362 18.989 22.6129C20.9987 24.6223 21.4153 27.6438 21.5003 28.9571C21.5016 28.978 21.5016 28.999 21.5007 29.0195C22.709 29.4096 23.8352 29.5416 24.5103 29.5852C24.8666 29.6082 25.161 29.3139 25.1379 28.9575Z" fill="#028F5D"/>
<path d="M38.1157 27.0742C36.108 29.0818 33.0904 29.4997 31.7749 29.5847C31.4169 29.6082 31.1208 29.3121 31.1438 28.9537C31.2289 27.6382 31.6467 24.6205 33.6548 22.6129C35.6624 20.6053 38.68 20.1874 39.9955 20.1024C40.3536 20.0789 40.6496 20.375 40.6266 20.7334C40.5411 22.0489 40.1237 25.0661 38.1157 27.0742V27.0742Z" fill="#09A66D"/>
<path d="M39.9955 20.102C39.2291 20.152 37.8854 20.3152 36.5002 20.839C36.3383 22.3219 35.8025 24.8679 34.0372 26.6333C33.1989 27.4715 32.1846 28.0317 31.1917 28.4072C31.1695 28.611 31.1541 28.7952 31.1438 28.9537C31.1208 29.3121 31.4169 29.6082 31.7749 29.5851C33.0904 29.4997 36.108 29.0818 38.1157 27.0742C40.1237 25.0666 40.5411 22.0489 40.6266 20.7334C40.6496 20.375 40.3536 20.0789 39.9955 20.102V20.102Z" fill="#028F5D"/>
<path d="M31.2951 15.4459C31.2951 18.3046 29.4318 20.7471 28.5692 21.7247C28.3419 21.9823 27.9395 21.9823 27.7122 21.7247C26.8496 20.7471 24.9863 18.3046 24.9863 15.4459C24.9863 12.5871 26.8496 10.1442 27.7122 9.16661C27.9395 8.90898 28.3424 8.90898 28.5692 9.16661C29.4318 10.1442 31.2951 12.5871 31.2951 15.4459Z" fill="#09A66D"/>
<path d="M28.5696 9.16661C28.3423 8.90898 27.9398 8.90898 27.7125 9.16661C27.3536 9.57335 26.8213 10.2347 26.3223 11.0734C27.0225 12.2501 27.6578 13.7766 27.6578 15.4459C27.6578 17.1147 27.0225 18.6412 26.3223 19.8179C26.8213 20.6566 27.3536 21.3179 27.7125 21.7247C27.9398 21.9823 28.3427 21.9823 28.5696 21.7247C29.4322 20.7471 31.2954 18.3046 31.2954 15.4459C31.2954 12.5871 29.4322 10.1442 28.5696 9.16661Z" fill="#028F5D"/>
<path d="M30.7742 55.7373H25.5084C23.3149 55.7373 21.5371 53.9591 21.5371 51.7656V45.3091C21.5371 43.1156 23.3149 41.3374 25.5084 41.3374H30.7742C32.9677 41.3374 34.7459 43.1156 34.7459 45.3091V51.7656C34.7459 53.9591 32.9677 55.7373 30.7742 55.7373Z" fill="#DFD6E5"/>
<path d="M30.7739 41.3374H25.9238C28.1169 41.3374 29.8951 43.1156 29.8951 45.3091V51.7656C29.8951 53.9591 28.1169 55.7373 25.9238 55.7373H30.7739C32.9674 55.7373 34.7456 53.9591 34.7456 51.7656V45.3091C34.7456 43.1156 32.9674 41.3374 30.7739 41.3374V41.3374Z" fill="#C2B0CF"/>
<path d="M36.6067 44.3042L20.7618 45.2433C19.7009 45.3061 18.8033 44.4679 18.793 43.4049C18.7841 42.4145 19.5531 41.5908 20.5418 41.5322L36.3867 40.5931C37.4475 40.5299 38.3452 41.3682 38.3554 42.4312C38.3644 43.4215 37.5953 44.2457 36.6067 44.3042V44.3042Z" fill="#EE6C4D"/>
<path d="M36.6067 51.7815L20.7618 52.7206C19.7009 52.7834 18.8033 51.9452 18.793 50.8822C18.7841 49.8918 19.5531 49.0681 20.5418 49.0095L36.3867 48.0704C37.4475 48.0072 38.3452 48.8455 38.3554 49.9085C38.3644 50.8992 37.5953 51.723 36.6067 51.7815V51.7815Z" fill="#201429"/>
<path d="M36.6067 51.7815L20.7618 52.7206C19.7009 52.7834 18.8033 51.9452 18.793 50.8822C18.7841 49.8918 19.5531 49.0681 20.5418 49.0095L36.3867 48.0704C37.4475 48.0072 38.3452 48.8455 38.3554 49.9085C38.3644 50.8992 37.5953 51.723 36.6067 51.7815V51.7815Z" fill="#EE6C4D"/>
</g>
<defs>
<clipPath id="clip0_30175_40302">
<rect width="56" height="56" fill="white" transform="translate(0.25)"/>
</clipPath>
</defs>
</svg>
