<svg width="57" height="56" viewBox="0 0 57 56" fill="none" xmlns="http://www.w3.org/2000/svg">
<g clip-path="url(#clip0_30175_40200)">
<path d="M30.0586 43.2031H44.2778V55.1797H30.0586V43.2031Z" fill="#201429"/>
<path d="M35.5021 22.2219V24.7456C35.5021 27.2944 31.9647 27.3508 30.6055 27.165C25.2666 26.4348 21.1363 21.8512 21.1147 16.315C21.1117 15.5527 20.536 14.894 19.7755 14.8515C18.954 14.8056 18.2734 15.4589 18.2734 16.2711C18.2734 22.8779 22.9226 28.4179 29.1182 29.7865C29.6079 29.8946 29.9588 30.3253 29.9582 30.8273V30.8361L29.9918 44.3004H44.2782L44.2446 30.8361V30.8273C44.2442 30.3253 44.5949 29.8946 45.0846 29.7865C51.2802 28.418 55.9294 22.8779 55.9294 16.2711C55.9294 15.4587 55.2489 14.8056 54.4273 14.8515C53.667 14.894 53.0912 15.5528 53.0882 16.315C53.0666 21.8081 49.0001 26.3635 43.7215 27.1473C42.3658 27.3485 38.4379 27.1996 38.4379 24.6625V22.2219H35.5021Z" fill="#FFD3BD"/>
<path d="M37.1089 23.4092H37.0996C34.5259 23.4092 32.4395 21.3228 32.4395 18.7491V16.3598C32.4395 13.7861 34.5259 11.6996 37.0996 11.6996H37.1089C39.6826 11.6996 41.769 13.7861 41.769 16.3598V18.7491C41.769 21.3228 39.6827 23.4092 37.1089 23.4092Z" fill="#FFD3BD"/>
<path d="M43.7218 27.1472C42.9456 27.2625 41.3274 27.262 40.0848 26.7653V27.5692C40.0848 29.2184 38.7492 30.5552 37.1017 30.5552C35.454 30.5552 34.1185 29.2184 34.1185 27.5692V26.7755C32.9734 27.2996 31.4091 27.2748 30.6058 27.1648C29.5894 27.0258 28.6171 26.7464 27.7084 26.348L26.6113 28.9728C27.411 29.3203 28.2494 29.5944 29.1184 29.7863C29.6081 29.8945 29.959 30.3252 29.9584 30.8271V30.836L29.992 44.3002H44.2784L44.2448 30.836V30.8271C44.2443 30.3252 44.5951 29.8945 45.0848 29.7863C45.9626 29.5924 46.8093 29.3146 47.6163 28.9621L46.5193 26.3376C45.6407 26.7254 44.7023 27.0017 43.7218 27.1472Z" fill="#EE6C4D"/>
<path d="M18.799 40.2916V42.8153C18.799 45.364 15.2616 45.4204 13.9024 45.2346C8.56349 44.5044 4.43319 39.9209 4.41153 34.3847C4.40858 33.6223 3.83283 32.9637 3.07235 32.9211C2.25084 32.8752 1.57031 33.5284 1.57031 34.3407C1.57031 40.9476 6.21949 46.4875 12.4151 47.8561C12.9048 47.9643 13.2556 48.395 13.2551 48.8969V48.9058V55.1796H27.5415V48.9058V48.8969C27.541 48.395 27.8918 47.9643 28.3815 47.8561C34.5771 46.4876 39.2263 40.9476 39.2263 34.3407C39.2263 33.5284 38.5457 32.8752 37.7242 32.9211C36.9638 32.9637 36.3881 33.6224 36.385 34.3847C36.3635 39.8778 32.297 44.4331 27.0183 45.2169C25.6626 45.4181 21.7348 45.2693 21.7348 42.7321V40.2916H18.799Z" fill="#FFD3BD"/>
<path d="M20.4058 41.4789H20.3965C17.8228 41.4789 15.7363 39.3924 15.7363 36.8187V34.4294C15.7363 31.8557 17.8228 29.7693 20.3965 29.7693H20.4058C22.9795 29.7693 25.0659 31.8557 25.0659 34.4294V36.8187C25.0659 39.3924 22.9796 41.4789 20.4058 41.4789Z" fill="#FFD3BD"/>
<path d="M36.2294 36.1788C35.4413 40.844 31.7101 44.5203 27.019 45.2169C26.2429 45.3322 24.6247 45.3316 23.3821 44.8349V45.6388C23.3821 47.288 22.0464 48.6249 20.3989 48.6249C18.7513 48.6249 17.4157 47.288 17.4157 45.6388V44.8451C16.2706 45.3692 14.7064 45.3444 13.903 45.2345C9.15366 44.5849 5.36351 40.8851 4.56847 36.1788L1.75 36.5653C2.65737 42.1624 6.92997 46.6444 12.4156 47.8561C12.9053 47.9643 13.2562 48.395 13.2556 48.8969V48.9058V55.1796H27.542V48.9058V48.8969C27.5416 48.395 27.8923 47.9643 28.382 47.8561C33.8677 46.6444 38.1403 42.1623 39.0476 36.5651L36.2294 36.1788Z" fill="#FFC850"/>
<path d="M15.7377 26.8412C16.7933 26.8412 16.7951 25.2006 15.7377 25.2006C14.6821 25.2006 14.6803 26.8412 15.7377 26.8412Z" fill="#C2B0CF"/>
<path d="M10.392 36.4172C11.4477 36.4172 11.4495 34.7766 10.392 34.7766C9.33634 34.7766 9.33459 36.4172 10.392 36.4172Z" fill="#C2B0CF"/>
<path d="M1.54234 15.7642C2.59803 15.7642 2.59978 14.1236 1.54234 14.1236C0.486762 14.1236 0.485012 15.7642 1.54234 15.7642Z" fill="#C2B0CF"/>
<path d="M8.58726 7.99396C9.64295 7.99396 9.6447 6.35333 8.58726 6.35333C7.53168 6.35333 7.52993 7.99396 8.58726 7.99396Z" fill="#C2B0CF"/>
<path d="M23.6556 11.254C24.7113 11.254 24.7131 9.61334 23.6556 9.61334C22.6 9.61334 22.5983 11.254 23.6556 11.254Z" fill="#C2B0CF"/>
<path d="M27.0698 18.9214C28.1255 18.9214 28.1272 17.2808 27.0698 17.2808C26.0141 17.2808 26.0123 18.9214 27.0698 18.9214Z" fill="#C2B0CF"/>
<path d="M27.6967 1.6474C28.7524 1.6474 28.7541 0.0067749 27.6967 0.0067749C26.641 0.0067749 26.6393 1.6474 27.6967 1.6474Z" fill="#C2B0CF"/>
<path d="M53.7514 8.81427C54.8071 8.81427 54.8088 7.17365 53.7514 7.17365C52.6957 7.17365 52.694 8.81427 53.7514 8.81427Z" fill="#C2B0CF"/>
<path d="M46.722 4.71228C47.7777 4.71228 47.7795 3.07166 46.722 3.07166C45.6664 3.07166 45.6647 4.71228 46.722 4.71228Z" fill="#C2B0CF"/>
<path d="M40.8178 8.81427C41.8735 8.81427 41.8753 7.17365 40.8178 7.17365C39.7621 7.17365 39.7604 8.81427 40.8178 8.81427Z" fill="#C2B0CF"/>
<path d="M53.3432 33.9182C54.3989 33.9182 54.4006 32.2776 53.3432 32.2776C52.2875 32.2776 52.2858 33.9182 53.3432 33.9182Z" fill="#C2B0CF"/>
<path d="M49.6752 50.4218C50.7309 50.4218 50.7327 48.7812 49.6752 48.7812C48.6195 48.7812 48.6178 50.4218 49.6752 50.4218Z" fill="#C2B0CF"/>
<path d="M53.3432 45.5252C54.3989 45.5252 54.4006 43.8846 53.3432 43.8846C52.2875 43.8846 52.2858 45.5252 53.3432 45.5252Z" fill="#C2B0CF"/>
<path d="M8.58726 55.9999C9.64295 55.9999 9.6447 54.3593 8.58726 54.3593C7.53168 54.3593 7.52993 55.9999 8.58726 55.9999Z" fill="#C2B0CF"/>
<path d="M6.64368 28.3518C6.43379 28.3518 6.22379 28.2718 6.06366 28.1116L2.94144 24.9894C2.62108 24.6689 2.62108 24.1496 2.94144 23.8293C3.2618 23.509 3.78122 23.509 4.10147 23.8293L7.22369 26.9515C7.54405 27.272 7.54405 27.7913 7.22369 28.1116C7.06357 28.2718 6.85357 28.3518 6.64368 28.3518Z" fill="#DFD6E5"/>
<path d="M1.5712 3.66519C1.27392 3.66519 0.987139 3.50309 0.841451 3.2208C0.633748 2.81808 0.791795 2.32338 1.19451 2.11567L5.11867 0.091469C5.52139 -0.115906 6.01609 0.0419222 6.2238 0.444532C6.4315 0.84725 6.27345 1.34195 5.87073 1.54966L1.94658 3.57375C1.82626 3.63577 1.69775 3.66519 1.5712 3.66519Z" fill="#DFD6E5"/>
<path d="M10.0165 19.4713C9.95448 19.4713 9.89137 19.4642 9.82837 19.4494C9.38737 19.3459 9.11371 18.9044 9.21718 18.4633L10.2262 14.1645C10.3296 13.7235 10.7707 13.45 11.2123 13.5533C11.6533 13.6568 11.9269 14.0983 11.8235 14.5395L10.8145 18.8382C10.7256 19.2162 10.3886 19.4713 10.0165 19.4713Z" fill="#DFD6E5"/>
<path d="M51.7998 39.9398C51.6152 39.9398 51.4296 39.8779 51.2764 39.7507L47.8785 36.9309C47.5298 36.6415 47.4818 36.1244 47.7711 35.7757C48.0604 35.427 48.5775 35.379 48.9262 35.6684L52.3241 38.4882C52.6727 38.7776 52.7208 39.2947 52.4315 39.6434C52.2694 39.8389 52.0354 39.9398 51.7998 39.9398Z" fill="#DFD6E5"/>
<path d="M1.56996 53.3145C1.38533 53.3145 1.19972 53.2526 1.04649 53.1254C0.697801 52.8359 0.649786 52.3189 0.939082 51.9702L3.75888 48.5724C4.04818 48.2235 4.56541 48.1756 4.91399 48.465C5.26257 48.7544 5.31069 49.2714 5.02139 49.6201L2.2016 53.0179C2.03939 53.2135 1.80544 53.3145 1.56996 53.3145Z" fill="#DFD6E5"/>
<path d="M53.109 55.9999C52.9244 55.9999 52.7388 55.938 52.5856 55.8109C52.2369 55.5215 52.1888 55.0045 52.4781 54.6558L55.2979 51.258C55.5872 50.9092 56.1044 50.8612 56.453 51.1506C56.8017 51.44 56.8498 51.957 56.5605 52.3057L53.7407 55.7035C53.5785 55.899 53.3446 55.9999 53.109 55.9999Z" fill="#DFD6E5"/>
<path d="M18.8875 5.66068C18.7694 5.66068 18.6495 5.63509 18.5358 5.58095L14.5483 3.6845C14.1391 3.48992 13.9652 3.00046 14.1598 2.59129C14.3544 2.18234 14.8436 2.00832 15.2529 2.20279L19.2404 4.09925C19.6495 4.29382 19.8234 4.78328 19.6289 5.19245C19.4884 5.48787 19.1942 5.66068 18.8875 5.66068Z" fill="#DFD6E5"/>
<path d="M30.8594 9.53483C30.6459 9.53483 30.4326 9.45203 30.2719 9.28699C29.9557 8.96247 29.9624 8.44316 30.2869 8.12707L33.4492 5.04543C33.7735 4.72912 34.2929 4.73579 34.6092 5.06041C34.9254 5.38493 34.9187 5.90424 34.5942 6.22033L31.4319 9.30197C31.2724 9.45739 31.0658 9.53483 30.8594 9.53483Z" fill="#DFD6E5"/>
<path d="M49.2165 17.3454C49.003 17.3454 48.7897 17.2626 48.629 17.0975L45.5473 13.9353C45.2311 13.6108 45.2378 13.0915 45.5623 12.7754C45.8866 12.4592 46.406 12.4657 46.7222 12.7904L49.8039 15.9526C50.1201 16.2771 50.1134 16.7964 49.7889 17.1125C49.6294 17.2679 49.4229 17.3454 49.2165 17.3454Z" fill="#DFD6E5"/>
<path d="M55.9309 2.35441C55.8868 2.35441 55.8422 2.35091 55.7973 2.34347L51.4398 1.63012C50.9928 1.55695 50.6896 1.1352 50.7629 0.688078C50.836 0.241062 51.2576 -0.0624535 51.7049 0.0111558L56.0624 0.7245C56.5094 0.797671 56.8126 1.21942 56.7394 1.66655C56.6735 2.06861 56.3255 2.35441 55.9309 2.35441Z" fill="#DFD6E5"/>
<path d="M20.4058 29.7694H20.3965C17.8228 29.7694 15.7363 31.8559 15.7363 34.4296H25.0659C25.0659 31.8557 22.9796 29.7694 20.4058 29.7694Z" fill="#201429"/>
<path d="M37.1089 11.6998H37.0996C34.5259 11.6998 32.4395 13.7862 32.4395 16.3599H41.769C41.769 13.7862 39.6827 11.6998 37.1089 11.6998Z" fill="#201429"/>
</g>
<defs>
<clipPath id="clip0_30175_40200">
<rect width="56" height="56" fill="white" transform="translate(0.75)"/>
</clipPath>
</defs>
</svg>
