<svg width="57" height="56" viewBox="0 0 57 56" fill="none" xmlns="http://www.w3.org/2000/svg">
<g clip-path="url(#clip0_30175_40171)">
<path d="M28.5944 52.3488C28.1386 52.3488 27.763 51.986 27.7498 51.5276C27.7365 51.0611 28.1039 50.6723 28.5705 50.659C29.0379 50.6376 29.4305 50.9995 29.4511 51.4661C29.472 51.9322 29.1097 52.327 28.6431 52.3475L28.6188 52.3483C28.6107 52.3488 28.6025 52.3488 28.5944 52.3488ZM25.1961 52.2215C25.1628 52.2215 25.1299 52.2197 25.0961 52.2159L25.094 52.2155C24.6296 52.1689 24.2933 51.7553 24.3399 51.2905C24.3865 50.8261 24.8035 50.4881 25.2675 50.5343L25.2935 50.5368C25.7571 50.5915 26.0886 51.0115 26.0339 51.4751C25.9835 51.9053 25.6187 52.2215 25.1961 52.2215ZM31.985 51.9608C31.5894 51.9608 31.2361 51.6818 31.157 51.2789C31.0665 50.8209 31.3647 50.3766 31.8227 50.2865L31.8385 50.2835C32.2969 50.1959 32.7396 50.4967 32.8272 50.9551C32.9147 51.4131 32.6144 51.8562 32.1559 51.9437L32.1495 51.945C32.094 51.9557 32.0393 51.9608 31.985 51.9608ZM21.8431 51.5776C21.7696 51.5776 21.6948 51.5678 21.6201 51.5477L21.6154 51.5464C21.1646 51.4263 20.8955 50.9636 21.0151 50.5129C21.1347 50.0617 21.597 49.793 22.0477 49.9122L22.0653 49.9169C22.5156 50.0399 22.7809 50.5043 22.6578 50.9547C22.5553 51.3306 22.2148 51.5776 21.8431 51.5776ZM35.2783 51.0581C34.9326 51.0581 34.6088 50.8453 34.4836 50.5018C34.3242 50.063 34.5507 49.5781 34.989 49.4187L35.0031 49.414C35.4419 49.2564 35.926 49.4841 36.084 49.9233C36.2421 50.3625 36.0135 50.8466 35.5743 51.0047L35.5671 51.0072C35.4714 51.0418 35.374 51.0581 35.2783 51.0581ZM18.6242 50.4249C18.5089 50.4249 18.3918 50.401 18.2794 50.3501L18.2679 50.345C17.8428 50.1523 17.6544 49.6516 17.8471 49.2265C18.0397 48.8013 18.54 48.6129 18.9656 48.8056C19.3911 48.9979 19.5847 49.5003 19.3928 49.9259C19.2514 50.239 18.9455 50.4249 18.6242 50.4249ZM38.3912 49.6614C38.0887 49.6614 37.7969 49.499 37.6448 49.2141C37.4247 48.8022 37.5807 48.2899 37.9926 48.0703C38.4014 47.8456 38.9154 47.9947 39.1406 48.4036C39.3653 48.8125 39.2166 49.3264 38.8073 49.5512L38.7881 49.5618C38.6612 49.6293 38.5253 49.6614 38.3912 49.6614ZM46.0666 42.1068L46.0722 42.1107L45.9829 42.047L46.0666 42.1068ZM7.05567 38.4231C6.72199 38.4231 6.40583 38.224 6.2721 37.8959L6.26997 37.8899C6.0918 37.4584 6.29731 36.9641 6.7284 36.7863C7.15992 36.6082 7.65424 36.8137 7.83198 37.2448L7.83796 37.2597C8.01398 37.6921 7.80549 38.1851 7.37312 38.3607C7.26929 38.403 7.1612 38.4231 7.05567 38.4231ZM49.0044 36.8013C48.916 36.8013 48.8258 36.7872 48.7369 36.7577C48.2973 36.6112 48.058 36.1378 48.1995 35.6973C48.3375 35.2534 48.8083 35.0026 49.253 35.1376C49.6995 35.2735 49.9516 35.7439 49.8166 36.1899L49.8059 36.2232C49.688 36.5774 49.3582 36.8013 49.0044 36.8013ZM6.02216 35.1696C5.63978 35.1696 5.29328 34.9086 5.20057 34.5206L5.19801 34.5095C5.08991 34.0554 5.36976 33.5995 5.82392 33.491C6.27808 33.3825 6.73396 33.6627 6.84205 34.1169L6.84461 34.128C6.95313 34.5817 6.67286 35.0376 6.21912 35.1461C6.1529 35.1619 6.08711 35.1696 6.02216 35.1696ZM49.7816 33.4773C49.7328 33.4773 49.6837 33.473 49.6337 33.4641C49.1774 33.3837 48.8715 32.9505 48.9467 32.4946C49.0176 32.0354 49.4462 31.7183 49.9059 31.7858C50.3673 31.8542 50.6865 32.2819 50.6185 32.7437L50.613 32.7788C50.5408 33.1885 50.184 33.4773 49.7816 33.4773ZM5.5005 31.7944C5.06684 31.7944 4.69813 31.4637 4.65968 31.0241L4.65711 30.989C4.62977 30.5229 4.98524 30.1234 5.45136 30.0957C5.91322 30.0675 6.31184 30.4191 6.34388 30.8805C6.38105 31.3436 6.03754 31.7517 5.57398 31.7914C5.5492 31.7935 5.52485 31.7944 5.5005 31.7944ZM50.0405 30.0734C49.5735 30.0734 49.1954 29.6953 49.1954 29.2283V29.2172C49.1954 29.2113 49.1954 29.2053 49.1954 29.1997C49.1954 29.1925 49.1954 29.1848 49.1954 29.1775V29.1664C49.1954 28.6994 49.5735 28.3209 50.0405 28.3209C50.507 28.3209 50.8856 28.6994 50.8856 29.1664V29.1775C50.8856 29.1835 50.8856 29.1895 50.8851 29.195C50.8856 29.2023 50.8856 29.2096 50.8856 29.2172V29.2283C50.8856 29.6953 50.5074 30.0734 50.0405 30.0734ZM5.49836 28.3824C5.47401 28.3824 5.44923 28.3811 5.42445 28.379C4.96003 28.3388 4.6161 27.9304 4.6554 27.4664C4.68787 27.005 5.08265 26.6533 5.54792 26.6824C6.01405 26.7097 6.36951 27.1096 6.34217 27.5753L6.33918 27.6104C6.30116 28.0504 5.93201 28.3824 5.49836 28.3824ZM49.7751 26.6196C49.3727 26.6196 49.0164 26.3312 48.9441 25.921L48.9382 25.886C48.8707 25.4242 49.1898 24.9948 49.6517 24.9268C50.111 24.8589 50.5412 25.1772 50.61 25.6378C50.6847 26.0932 50.3793 26.5256 49.923 26.6063C49.8734 26.6153 49.8238 26.6196 49.7751 26.6196ZM49.917 25.742L49.7743 25.763L49.917 25.742ZM6.01106 25.008C5.94611 25.008 5.87989 25.0003 5.81409 24.9845C5.36079 24.8764 5.08051 24.4214 5.18775 23.9681C5.28773 23.5174 5.73249 23.2294 6.1858 23.3242C6.64252 23.4199 6.93562 23.8677 6.83991 24.3244L6.83222 24.359C6.73994 24.747 6.39344 25.008 6.01106 25.008ZM48.9997 23.3007C48.6442 23.3007 48.3123 23.0734 48.1939 22.7184L48.1845 22.6889C48.0469 22.2429 48.2973 21.7699 48.7438 21.6328C49.1902 21.4952 49.6623 21.7456 49.7999 22.192L49.8004 22.1933C49.9478 22.6364 49.7072 23.1102 49.2642 23.2576C49.177 23.2871 49.0877 23.3007 48.9997 23.3007ZM7.03559 21.7494C6.92963 21.7494 6.82197 21.7293 6.71772 21.687C6.28535 21.5114 6.07728 21.0184 6.25288 20.586L6.25715 20.5758C6.43275 20.1434 6.92536 19.9349 7.35816 20.1105C7.79053 20.2861 7.9986 20.7791 7.82301 21.2115L7.81873 21.2222C7.68543 21.5503 7.36927 21.7494 7.03559 21.7494ZM47.718 20.1353C47.4103 20.1353 47.113 19.9665 46.9626 19.6751L46.9498 19.6503C46.7438 19.2312 46.9164 18.7249 47.3356 18.519C47.7543 18.3131 48.2606 18.4857 48.4669 18.9044L48.4673 18.9061C48.6818 19.3205 48.5173 19.8272 48.1025 20.0413C47.9794 20.1049 47.8478 20.1353 47.718 20.1353ZM8.5489 18.6878C8.39893 18.6878 8.24683 18.648 8.10969 18.5639C7.71192 18.3216 7.58588 17.8034 7.82642 17.4056C8.05927 17.0078 8.56983 16.8694 8.9723 17.0976C9.37818 17.3278 9.52088 17.8435 9.29102 18.2494C9.28461 18.2605 9.27778 18.2716 9.27094 18.2827C9.11201 18.5438 8.83387 18.6878 8.5489 18.6878ZM45.9633 17.2035C45.6928 17.2035 45.4266 17.0736 45.2634 16.8331C44.9921 16.4533 45.0823 15.929 45.4625 15.6577C45.8419 15.3864 46.3726 15.4783 46.6439 15.8581L46.6618 15.8837C46.9237 16.27 46.8233 16.7955 46.4371 17.0578C46.2918 17.1565 46.1269 17.2035 45.9633 17.2035ZM10.5125 15.894C10.322 15.894 10.131 15.8299 9.97291 15.6992C9.61402 15.401 9.56446 14.8682 9.86268 14.5089L9.86994 14.5003C10.1682 14.141 10.7005 14.0919 11.0598 14.3897C11.4191 14.6879 11.4687 15.2207 11.1705 15.58L11.1632 15.5885C10.9962 15.7902 10.7552 15.894 10.5125 15.894ZM43.786 14.5742C43.5638 14.5742 43.3421 14.4875 43.1763 14.3145C42.8495 13.9812 42.8542 13.445 43.1879 13.1182C43.5207 12.7918 44.0552 12.7965 44.3816 13.1297L44.3957 13.1438C44.7191 13.4805 44.708 14.0158 44.3713 14.3388C44.2073 14.4965 43.9966 14.5742 43.786 14.5742ZM12.8778 13.4314C12.6436 13.4314 12.4112 13.3352 12.2441 13.1464C11.9348 12.7969 11.9677 12.2628 12.3172 11.9535L12.3206 11.9505C12.668 11.6399 13.2025 11.6681 13.5139 12.0155C13.825 12.3624 13.7976 12.8952 13.4511 13.2071L13.4374 13.2194C13.2764 13.3617 13.0764 13.4314 12.8778 13.4314ZM41.2341 12.3056C41.0606 12.3056 40.8863 12.2526 40.7355 12.1424L40.7068 12.1206C40.3386 11.8339 40.2719 11.3032 40.5586 10.9345C40.8448 10.5667 41.3742 10.5 41.7425 10.785C42.1116 11.0623 42.1902 11.5861 41.9168 11.9595C41.751 12.1859 41.4943 12.3056 41.2341 12.3056ZM41.3101 11.3451L41.2255 11.4536L41.3101 11.3451ZM15.5882 11.3566C15.3092 11.3566 15.0362 11.2186 14.8751 10.9661C14.6243 10.5731 14.7393 10.0518 15.131 9.80019C15.5164 9.54555 16.0364 9.64766 16.2961 10.0309C16.5585 10.4171 16.4576 10.9426 16.0714 11.2045L16.0419 11.2242C15.9014 11.3139 15.7441 11.3566 15.5882 11.3566ZM38.3651 10.4505C38.2318 10.4505 38.0964 10.4188 37.9703 10.3518L37.9503 10.3407C37.5414 10.1159 37.3923 9.60195 37.617 9.19308C37.8417 8.7842 38.3557 8.63509 38.7646 8.85982L38.7672 8.86111C39.1752 9.0837 39.3294 9.59597 39.1089 10.0053C38.956 10.289 38.6655 10.4505 38.3651 10.4505ZM18.5828 9.71944C18.2606 9.71944 17.9526 9.53444 17.8116 9.22213C17.6193 8.79702 17.8082 8.29671 18.2333 8.10445L18.2529 8.09591C18.6802 7.90835 19.1783 8.1036 19.3659 8.53127C19.5526 8.95894 19.3578 9.45711 18.9301 9.64425C18.8173 9.69509 18.699 9.71944 18.5828 9.71944Z" fill="#DFD6E5"/>
<path d="M34.2758 45.6231L21.5519 32.8992C20.7543 32.102 20.7534 30.8117 21.5498 30.0158C21.8643 29.7013 22.2573 29.5108 22.6658 29.4462C23.2891 29.3458 23.9509 29.536 24.4333 30.0183L21.1567 26.7418C20.7585 26.3436 20.5586 25.8215 20.5586 25.3007C20.5586 25.1922 20.5671 25.0832 20.5847 24.9747C20.65 24.5654 20.8397 24.1732 21.1546 23.8583C21.4661 23.5468 21.8523 23.358 22.2556 23.2909C22.8046 23.1995 23.3831 23.3332 23.8441 23.6925L22.5974 22.4458C22.1988 22.0472 21.9988 21.5238 21.9988 21.0026C21.998 20.8919 22.0078 20.7804 22.0262 20.6715C22.0916 20.2647 22.2808 19.8747 22.594 19.5615C22.9089 19.2466 23.3015 19.056 23.7121 18.9915C24.335 18.8911 24.9973 19.0817 25.4792 19.5636L26.907 20.9915C26.426 20.5104 26.2346 19.8473 26.335 19.2244C26.3995 18.8155 26.5892 18.4233 26.9049 18.108C27.7 17.3129 28.9916 17.3137 29.7884 18.1106L38.0573 26.3795L38.0804 26.3466C38.4995 25.9274 38.9934 25.6297 39.5202 25.4519C40.8203 25.0136 42.317 25.3131 43.3543 26.3508L47.2098 30.2063C47.9511 30.9472 48.3668 31.9512 48.3685 32.9979L48.3706 35.4102C48.3715 36.5373 48.8201 37.6186 49.6186 38.4171L50.4782 39.2768L40.6443 49.1107L39.5454 48.0118C38.8148 47.2812 37.8428 46.8411 36.8127 46.7736C35.8557 46.7108 34.9547 46.302 34.2758 45.6231Z" fill="#FECBAA"/>
<path d="M40.0041 49.7494L51.1663 38.5871C51.5342 38.2193 52.1302 38.2193 52.498 38.5871L56.4731 42.5622C56.841 42.9301 56.841 43.5265 56.4731 43.894L45.3113 55.0562C44.9435 55.4241 44.347 55.4241 43.9796 55.0562L40.0041 51.0811C39.6367 50.7132 39.6367 50.1168 40.0041 49.7494Z" fill="#FFC850"/>
<path d="M51.4644 43.5974C51.7947 43.9277 52.3292 43.9281 52.6586 43.5987C52.988 43.2693 52.9876 42.7344 52.6577 42.4046C52.3275 42.0743 51.793 42.0739 51.4636 42.4033C51.1342 42.7331 51.1346 43.2676 51.4644 43.5974Z" fill="#EE6C4D"/>
<path d="M40.9038 29.2262L38.0566 26.3795L38.0797 26.3466C38.4988 25.9274 38.9927 25.6296 39.5195 25.4519L42.0988 28.0312C42.4286 28.361 42.4286 28.8964 42.0988 29.2262C41.7681 29.5569 41.2336 29.556 40.9038 29.2262Z" fill="#FBB38F"/>
<path d="M23.2239 45.6243L35.9478 32.9005C36.7454 32.1029 36.7463 30.813 35.9503 30.017C35.6354 29.7022 35.2428 29.5116 34.8339 29.4471C34.2106 29.3467 33.5488 29.5372 33.0664 30.0192L36.343 26.7431C36.7411 26.3449 36.9411 25.8228 36.9411 25.3015C36.9411 25.1934 36.9326 25.0841 36.915 24.976C36.8497 24.5662 36.66 24.1745 36.3451 23.8596C36.0336 23.5481 35.6474 23.3593 35.2441 23.2922C34.6951 23.2008 34.1166 23.3345 33.6556 23.6938L34.9023 22.4467C35.3009 22.0485 35.5009 21.5251 35.5009 21.0039C35.5017 20.8928 35.4919 20.7813 35.4735 20.6723C35.4086 20.266 35.2189 19.8755 34.9057 19.5623C34.5908 19.2479 34.1982 19.0573 33.7876 18.9928C33.1647 18.8924 32.5024 19.0825 32.0205 19.5649L30.5927 20.9928C31.0737 20.5112 31.2651 19.8486 31.1647 19.2252C31.1002 18.8168 30.9105 18.4246 30.5948 18.1088C29.7997 17.3137 28.5081 17.3146 27.7113 18.1114L19.4424 26.3803L19.4193 26.3479C19.0002 25.9287 18.5063 25.6309 17.9795 25.4532C16.679 25.0148 15.1827 25.3143 14.1454 26.3517L10.2899 30.2076C9.54865 30.9484 9.13293 31.9525 9.13123 32.9992L9.12866 35.411C9.12823 36.5385 8.67963 37.6199 7.8811 38.4184L7.02148 39.278L16.8554 49.112L17.9543 48.0131C18.6849 47.2825 19.6569 46.8424 20.687 46.7749C21.644 46.7121 22.545 46.3032 23.2239 45.6243Z" fill="#FECBAA"/>
<path d="M17.4949 49.7502L6.33272 38.5884C5.96486 38.2206 5.36885 38.2206 5.00099 38.5884L1.02589 42.5635C0.658035 42.9314 0.658035 43.5274 1.02589 43.8952L12.1877 55.0575C12.5556 55.4253 13.152 55.4253 13.5198 55.0575L17.4949 51.0824C17.8628 50.7145 17.8628 50.1181 17.4949 49.7502Z" fill="#EE6C4D"/>
<path d="M13.685 51.2473C14.0153 50.917 14.0157 50.3825 13.6863 50.0531C13.3569 49.7233 12.822 49.7237 12.4922 50.054C12.1619 50.3838 12.1615 50.9187 12.4909 51.2481C12.8207 51.5776 13.3552 51.5771 13.685 51.2473Z" fill="#201429"/>
<path d="M16.5952 29.2275L19.4419 26.3803L19.4188 26.3478C18.9997 25.9287 18.5058 25.6309 17.979 25.4532L15.3997 28.032C15.0699 28.3619 15.0699 28.8977 15.3997 29.2275C15.7304 29.5582 16.2649 29.5573 16.5952 29.2275Z" fill="#FBB38F"/>
<path d="M36.8871 15.1305V33.1248C36.8871 34.2528 35.9758 35.1654 34.85 35.1654C34.4048 35.1654 33.9925 35.0222 33.6575 34.7787C33.1461 34.4091 32.8124 33.8063 32.8124 33.1248V37.7583C32.8124 38.3214 32.5847 38.832 32.2164 39.2003C32.14 39.2772 32.0562 39.3481 31.9673 39.4122C31.6315 39.6557 31.2205 39.7989 30.7753 39.7989C30.3348 39.7989 29.9277 39.6591 29.5953 39.4216C29.1424 39.0982 28.8279 38.5944 28.7562 38.0138V39.7775C28.7562 40.341 28.5272 40.8524 28.1589 41.2207C28.0811 41.2998 27.9952 41.372 27.9055 41.4361C27.5718 41.6775 27.1617 41.8193 26.7186 41.8193C26.2739 41.8193 25.8611 41.6762 25.5253 41.4318C25.0139 41.0622 24.6802 40.4594 24.6802 39.7775V37.7583C24.6802 38.4389 24.347 39.0426 23.8351 39.4122C23.5006 39.6557 23.0892 39.7989 22.6431 39.7989C21.5182 39.7989 20.6056 38.885 20.6056 37.7583V26.0642L20.5663 26.071C19.9737 26.071 19.4136 25.9322 18.9154 25.6856C17.6862 25.076 16.8398 23.8062 16.8398 22.339V16.8861C16.8398 15.8385 17.2556 14.8344 17.9947 14.0927L19.6985 12.3859C20.4954 11.5878 20.9427 10.5064 20.9427 9.37723V8.16129H34.8496V9.71518C34.8496 10.7483 35.226 11.7467 35.9066 12.523C36.5389 13.2442 36.8871 14.1705 36.8871 15.1305Z" fill="#FEDFC5"/>
<path d="M35.9503 30.017C35.6354 29.7022 35.2428 29.512 34.8339 29.4471C34.2106 29.3467 33.5488 29.5373 33.0664 30.0196L36.3429 26.7431C36.7411 26.3449 36.9415 25.8228 36.9415 25.302C36.9415 25.1934 36.9325 25.0841 36.915 24.976C36.8497 24.5662 36.6604 24.1745 36.3455 23.8596C36.034 23.5481 35.6474 23.3593 35.2445 23.2922C34.6955 23.2008 34.117 23.3345 33.6556 23.6938L34.9027 22.4467C35.3009 22.0485 35.5008 21.5251 35.5008 21.0039C35.5017 20.8932 35.4923 20.7817 35.4739 20.6723C35.4086 20.266 35.2189 19.8755 34.9057 19.5623C34.5912 19.2479 34.1982 19.0573 33.788 18.9928C33.1651 18.8924 32.5024 19.083 32.0205 19.5649L30.5926 20.9928C31.0737 20.5112 31.2651 19.8486 31.1647 19.2252C31.1002 18.8168 30.9105 18.4246 30.5952 18.1088C29.7997 17.3137 28.5081 17.3146 27.7113 18.1114L19.4424 26.3803L19.4193 26.3479C19.0002 25.9287 18.5063 25.6309 17.9795 25.4532C17.3557 25.243 16.6871 25.2041 16.0449 25.3336C16.5619 26.115 17.2848 26.7631 18.1658 27.2002C18.4102 27.3211 18.6605 27.4228 18.916 27.5048V37.7583C18.916 39.8155 20.5883 41.489 22.6433 41.489C22.8907 41.489 23.1342 41.4651 23.3713 41.4181C23.6367 41.9603 24.0323 42.4375 24.5309 42.7977C24.8402 43.0233 25.1777 43.1959 25.5328 43.3155L35.9477 32.9005C36.7454 32.1029 36.7463 30.813 35.9503 30.017Z" fill="#FBB38F"/>
<path d="M38.5762 33.1248V25.9283C38.4014 26.0509 38.2348 26.1906 38.0784 26.3466L38.0554 26.3795L29.7865 18.1106C28.9896 17.3137 27.6981 17.3129 26.903 18.108C26.5872 18.4233 26.3975 18.8155 26.333 19.2244C26.2326 19.8473 26.424 20.5104 26.9051 20.9915L25.4772 19.5636C24.9953 19.0817 24.3331 18.8911 23.7102 18.9915C23.2996 19.056 22.9069 19.2466 22.5921 19.5615C22.2789 19.8747 22.0892 20.2647 22.0238 20.6715C22.0059 20.7804 21.996 20.8919 21.9969 21.0026C21.9969 21.5238 22.1969 22.0472 22.5955 22.4458L23.8422 23.6925C23.3808 23.3332 22.8027 23.1995 22.2537 23.2909C21.8504 23.358 21.4641 23.5468 21.1527 23.8583C20.8378 24.1732 20.6481 24.5654 20.5827 24.9747C20.5652 25.0832 20.5562 25.1922 20.5567 25.3007C20.5562 25.8219 20.7566 26.3436 21.1548 26.7418L24.4314 30.0183C23.9494 29.5364 23.2872 29.3458 22.6643 29.4462C22.2554 29.5108 21.8623 29.7013 21.5479 30.0158C20.7519 30.8122 20.7528 32.102 21.55 32.8997L30.074 41.4232C30.303 41.4668 30.5371 41.489 30.7742 41.489C31.5642 41.489 32.3196 41.2442 32.9553 40.7832C33.1173 40.6662 33.2706 40.5358 33.4108 40.3957C34.1145 39.692 34.502 38.7555 34.502 37.7583V36.8397C34.6165 36.8504 34.7327 36.8556 34.8489 36.8556C36.9039 36.8556 38.5762 35.182 38.5762 33.1248Z" fill="#FBB38F"/>
<path d="M36.8871 15.1305V33.1248C36.8871 34.2528 35.9758 35.1654 34.85 35.1654C34.8196 35.1654 34.7867 35.1654 34.7543 35.1632C34.3471 35.144 33.9699 35.0056 33.6601 34.78C33.6588 34.78 33.6588 34.7787 33.6575 34.7787C33.1461 34.4091 32.8124 33.8063 32.8124 33.1248V37.7583C32.8124 38.3214 32.5847 38.832 32.2164 39.2003C32.14 39.2772 32.0562 39.3481 31.9673 39.4122C31.6315 39.6557 31.2205 39.7989 30.7753 39.7989C30.3348 39.7989 29.9277 39.6591 29.5953 39.4216C29.1424 39.0982 28.8279 38.5944 28.7562 38.0138V39.7775C28.7562 40.341 28.5272 40.8524 28.1589 41.2207C28.0811 41.2998 27.9952 41.372 27.9055 41.4361C27.5718 41.6775 27.1617 41.8193 26.7186 41.8193C26.2739 41.8193 25.8611 41.6762 25.5253 41.4318C25.0139 41.0622 24.6802 40.4594 24.6802 39.7775V37.7583C24.6802 38.4389 24.347 39.0426 23.8351 39.4122C23.5006 39.6557 23.0892 39.7989 22.6431 39.7989C21.5182 39.7989 20.6056 38.885 20.6056 37.7583V26.0642L20.5663 26.071C19.9737 26.071 19.4136 25.9322 18.9154 25.6856C17.6862 25.076 16.8398 23.8062 16.8398 22.339V16.8861C16.8398 15.8385 17.2556 14.8344 17.9947 14.0927L19.6985 12.3859C20.1912 11.8924 20.5505 11.2904 20.7521 10.6346C20.8786 10.2292 20.9427 9.80191 20.9427 9.37723V8.16129H34.8496V9.71518C34.8496 10.0634 34.8871 10.4308 34.9837 10.7662C35.1461 11.4122 35.4618 12.015 35.9066 12.523C36.5333 13.2387 36.8871 14.1773 36.8871 15.1305Z" fill="#FEDFC5"/>
<path d="M36.8869 15.1305V33.1248C36.8869 34.2528 35.9756 35.1654 34.8498 35.1654C34.8195 35.1654 34.7866 35.1654 34.7541 35.1632C34.3469 35.144 33.9697 35.0056 33.6599 34.78L33.6945 17.4406C33.6945 17.336 33.671 17.1702 33.627 16.9596C32.8494 13.172 29.6528 10.6346 25.7866 10.6346H20.752C20.8784 10.2287 20.9425 9.80191 20.9425 9.37723V8.16129H34.8494V9.71518C34.8494 10.0634 34.887 10.4308 34.9835 10.7662C35.1459 11.4122 35.4616 12.015 35.9064 12.523C36.5331 13.2387 36.8869 14.1773 36.8869 15.1305Z" fill="#FFC8AC"/>
<path d="M35.7549 8.16171H19.969C19.449 8.16171 19.0273 7.74002 19.0273 7.22006V1.59793C19.0273 1.07797 19.449 0.656281 19.969 0.656281H35.7549C36.2748 0.656281 36.6965 1.07797 36.6965 1.59793V7.22006C36.6965 7.74002 36.2748 8.16171 35.7549 8.16171Z" fill="#4D4354"/>
<path d="M23.4884 4.40921C23.4884 3.94223 23.1107 3.56412 22.6446 3.56412C22.1785 3.56412 21.8008 3.94223 21.8008 4.40921C21.8008 4.87576 22.1785 5.2543 22.6446 5.2543C23.1107 5.2543 23.4884 4.87576 23.4884 4.40921Z" fill="#EE6C4D"/>
<path d="M33.6574 23.7079V34.7787C33.1456 34.4091 32.8119 33.8063 32.8119 33.1244V37.7579C32.8119 38.3214 32.5846 38.832 32.2159 39.2002C32.1394 39.2771 32.0561 39.3481 31.9668 39.4122V23.7079C31.9668 23.2413 32.3458 22.8628 32.8119 22.8628C33.2784 22.8628 33.6574 23.2413 33.6574 23.7079Z" fill="#FBB38F"/>
<path d="M29.5964 23.7079V39.4211C29.1431 39.0977 28.8291 38.594 28.7569 38.0138V39.7775C28.7569 40.3406 28.5283 40.8524 28.1596 41.2207C28.0818 41.2997 27.9964 41.3715 27.9062 41.436V23.7079C27.9062 23.2413 28.2848 22.8628 28.7513 22.8628C29.2179 22.8628 29.5964 23.2413 29.5964 23.7079Z" fill="#FBB38F"/>
<path d="M25.5261 23.7079V41.4313C25.0147 41.0618 24.681 40.4589 24.681 39.7775V37.7579C24.681 38.4385 24.3478 39.0426 23.8359 39.4122V23.7079C23.8359 23.2413 24.2149 22.8628 24.681 22.8628C25.1489 22.8628 25.5261 23.2413 25.5261 23.7079Z" fill="#FBB38F"/>
<path d="M20.6062 22.0378V26.0641L20.5665 26.0706C19.9739 26.0706 19.4138 25.9321 18.916 25.6856V22.0378C18.916 21.5712 19.2946 21.1927 19.7611 21.1927C20.2285 21.1927 20.6062 21.5712 20.6062 22.0378Z" fill="#FBB38F"/>
</g>
<defs>
<clipPath id="clip0_30175_40171">
<rect width="56" height="56" fill="white" transform="translate(0.75)"/>
</clipPath>
</defs>
</svg>
