<svg width="18" height="23" viewBox="0 0 18 23" fill="none" xmlns="http://www.w3.org/2000/svg">
<path d="M0.950879 0.4715C1.12091 0.36988 1.31575 0.316162 1.51435 0.316162C1.71296 0.316162 1.90779 0.36988 2.07781 0.4715L17.0827 10.552C17.2552 10.6588 17.3975 10.8073 17.4961 10.9836C17.5948 11.1598 17.6465 11.358 17.6465 11.5595C17.6465 11.761 17.5948 11.9592 17.4961 12.1354C17.3975 12.3117 17.2552 12.4602 17.0827 12.567L2.07781 22.6475C1.90788 22.7494 1.71302 22.8033 1.51435 22.8033C1.31569 22.8033 1.12081 22.7494 0.950879 22.6475C0.777317 22.5416 0.634243 22.3931 0.535437 22.2166C0.436632 22.04 0.385425 21.8412 0.386758 21.6393V1.48227C0.3851 1.27999 0.436143 1.08072 0.534958 0.903663C0.633773 0.726611 0.777023 0.57776 0.950879 0.4715Z" fill="#EE6C4D"/>
</svg>
