<svg width="44" height="44" viewBox="0 0 44 44" fill="none" xmlns="http://www.w3.org/2000/svg">
<circle cx="22" cy="22" r="22" fill="#EE6C4D"/>
<path d="M28.0653 20.5186C27.9913 20.4427 27.712 20.1179 27.4517 19.8508C25.926 18.1707 21.9457 15.4207 19.8625 14.5813C19.5461 14.4464 18.7462 14.1609 18.3189 14.1426C17.9093 14.1426 17.519 14.2369 17.1465 14.4281C16.6821 14.6952 16.3096 15.1156 16.1055 15.6119C15.9741 15.9563 15.77 16.9869 15.77 17.0052C15.5659 18.1327 15.4536 19.9647 15.4536 21.9892C15.4536 23.9182 15.5659 25.6756 15.733 26.8201C15.7521 26.8384 15.9562 28.1191 16.1795 28.5578C16.589 29.3592 17.3889 29.8569 18.2449 29.8569H18.3189C18.8763 29.8372 20.0487 29.3396 20.0487 29.3213C22.0197 28.4806 25.9081 25.8654 27.4708 24.1277C27.4708 24.1277 27.911 23.6811 28.1023 23.4022C28.4008 23.0015 28.5488 22.5052 28.5488 22.0089C28.5488 21.455 28.3817 20.939 28.0653 20.5186Z" fill="white"/>
</svg>
