<svg width="20" height="20" viewBox="0 0 20 20" fill="none" xmlns="http://www.w3.org/2000/svg">
<path fill-rule="evenodd" clip-rule="evenodd" d="M15.8335 9.16634H10.8335V4.16634C10.8335 3.70551 10.4602 3.33301 10.0002 3.33301C9.54016 3.33301 9.16683 3.70551 9.16683 4.16634V9.16634H4.16683C3.70683 9.16634 3.3335 9.53884 3.3335 9.99967C3.3335 10.4605 3.70683 10.833 4.16683 10.833H9.16683V15.833C9.16683 16.2938 9.54016 16.6663 10.0002 16.6663C10.4602 16.6663 10.8335 16.2938 10.8335 15.833V10.833H15.8335C16.2935 10.833 16.6668 10.4605 16.6668 9.99967C16.6668 9.53884 16.2935 9.16634 15.8335 9.16634" fill="#4D4354"/>
</svg>
