<svg width="24" height="24" viewBox="0 0 24 24" fill="none" xmlns="http://www.w3.org/2000/svg">
<g clip-path="url(#clip0_34262_207964)">
<path d="M12 22C6.47708 22 2 17.5229 2 12C2 6.47708 6.47708 2 12 2C17.5229 2 22 6.47708 22 12C21.9934 17.5202 17.5202 21.9934 12 22ZM12 3.25C7.16754 3.25 3.25 7.16754 3.25 12C3.25 16.8325 7.16754 20.75 12 20.75C16.8325 20.75 20.75 16.8325 20.75 12C20.7448 7.16968 16.8303 3.25519 12 3.25Z" fill="#4D4354"/>
<path d="M12 13.25C10.1906 13.1577 8.79502 11.6223 8.87498 9.8125C8.79502 8.00266 10.1906 6.46732 12 6.375C13.8094 6.46732 15.2049 8.00266 15.125 9.8125C15.2049 11.6223 13.8094 13.1577 12 13.25ZM12 7.625C10.8821 7.71899 10.0468 8.69342 10.125 9.8125C10.0468 10.9316 10.8821 11.906 12 12C13.1178 11.906 13.9531 10.9316 13.875 9.8125C13.9531 8.69342 13.1178 7.71899 12 7.625Z" fill="#4D4354"/>
<path d="M8.25 16.375C7.90485 16.375 7.625 16.0952 7.625 15.75C7.625 13.6818 9.58743 12 12 12C12.3452 12 12.625 12.2798 12.625 12.625C12.625 12.9702 12.3452 13.25 12 13.25C10.2768 13.25 8.875 14.3712 8.875 15.75C8.875 16.0952 8.59515 16.375 8.25 16.375Z" fill="#4D4354"/>
<path d="M13.875 17.625C13.7093 17.625 13.5503 17.5591 13.4331 17.4419L12.1831 16.1919C11.9463 15.9467 11.9497 15.5568 12.1907 15.3157C12.4318 15.0747 12.8217 15.0713 13.0669 15.3081L13.875 16.1162L17.1831 12.8081C17.4283 12.5713 17.8182 12.5747 18.0593 12.8157C18.3004 13.0568 18.3037 13.4467 18.0669 13.6919L14.3169 17.4419C14.1997 17.5591 14.0407 17.625 13.875 17.625Z" fill="#4D4354"/>
</g>
<defs>
<clipPath id="clip0_34262_207964">
<rect width="20" height="20" fill="white" transform="translate(2 2)"/>
</clipPath>
</defs>
</svg>
