<svg width="24" height="24" viewBox="0 0 24 24" fill="none" xmlns="http://www.w3.org/2000/svg">
<path fill-rule="evenodd" clip-rule="evenodd" d="M17.9101 2.75C16.8943 2.75 16.0801 3.56421 16.0801 4.58C16.0801 5.55792 16.8322 6.34607 17.7843 6.40782C17.8642 6.40073 17.946 6.40073 18.0258 6.40782C18.9763 6.34613 19.7317 5.559 19.7401 4.57733C19.7386 3.57086 18.9231 2.75 17.9101 2.75ZM14.5801 4.58C14.5801 2.73579 16.0659 1.25 17.9101 1.25C19.7562 1.25 21.2401 2.74768 21.2401 4.58V4.58536H21.2401C21.2272 6.38428 19.8112 7.84488 18.0272 7.90951C17.9864 7.91099 17.9456 7.90913 17.9051 7.90396C17.8646 7.90913 17.8237 7.91099 17.7829 7.90951C15.9999 7.84491 14.5801 6.38403 14.5801 4.58Z" fill="#EE6C4D"/>
<path fill-rule="evenodd" clip-rule="evenodd" d="M16.8111 8.85124C18.3315 8.58491 20.065 8.83883 21.3252 9.67506L21.3266 9.67596C22.188 10.2502 22.7181 11.0823 22.7181 12.01C22.7181 12.9377 22.188 13.7698 21.3266 14.344C20.0757 15.1813 18.3629 15.4342 16.8464 15.1796C16.4379 15.1111 16.1623 14.7243 16.2309 14.3158C16.2995 13.9073 16.6862 13.6318 17.0947 13.7003C18.3177 13.9057 19.6242 13.6789 20.4932 13.0969L20.4945 13.096C21.0431 12.7302 21.2181 12.3223 21.2181 12.01C21.2181 11.6978 21.0433 11.2901 20.4952 10.9245C19.6155 10.3411 18.2894 10.1151 17.07 10.3287C16.662 10.4002 16.2733 10.1274 16.2018 9.71941C16.1303 9.31141 16.4031 8.92271 16.8111 8.85124Z" fill="#EE6C4D"/>
<path fill-rule="evenodd" clip-rule="evenodd" d="M2.73047 4.58C2.73047 2.74768 4.21437 1.25 6.06047 1.25C7.90469 1.25 9.39047 2.73579 9.39047 4.58C9.39047 6.38403 7.97062 7.84491 6.18763 7.90951C6.14681 7.91099 6.10595 7.90913 6.06547 7.90396C6.02499 7.90913 5.98413 7.91099 5.94331 7.90951C4.15938 7.84488 2.74334 6.38429 2.73049 4.58536L2.73047 4.58ZM4.23047 4.57733C4.23885 5.559 4.99425 6.34613 5.94472 6.40782C6.02458 6.40073 6.10637 6.40073 6.18623 6.40782C7.13834 6.34607 7.89047 5.55792 7.89047 4.58C7.89047 3.56421 7.07626 2.75 6.06047 2.75C5.04747 2.75 4.23191 3.57087 4.23047 4.57733Z" fill="#EE6C4D"/>
<path fill-rule="evenodd" clip-rule="evenodd" d="M3.47578 10.9245C4.35554 10.3411 5.68164 10.1151 6.90101 10.3287C7.30901 10.4002 7.6977 10.1274 7.76918 9.71941C7.84065 9.31141 7.56784 8.92271 7.15984 8.85124C5.63953 8.58491 3.906 8.83883 2.64575 9.67506L2.64575 9.67506L2.6444 9.67596C1.78302 10.2502 1.25293 11.0823 1.25293 12.01C1.25293 12.9374 1.78274 13.7693 2.64373 14.3436C3.89469 15.1812 5.60784 15.4343 7.1246 15.1796C7.5331 15.1111 7.80866 14.7243 7.74008 14.3158C7.6715 13.9073 7.28475 13.6318 6.87625 13.7003C5.65329 13.9057 4.34679 13.6789 3.47781 13.0969L3.47645 13.096C2.92784 12.7302 2.75293 12.3223 2.75293 12.01C2.75293 11.6978 2.9277 11.2901 3.47578 10.9245Z" fill="#EE6C4D"/>
<path fill-rule="evenodd" clip-rule="evenodd" d="M11.9111 10.2188C10.8953 10.2188 10.0811 11.033 10.0811 12.0488C10.0811 13.0267 10.8332 13.8148 11.7853 13.8766C11.8663 13.8694 11.9492 13.8695 12.0302 13.8769C12.9729 13.8228 13.7326 13.033 13.7411 12.0461C13.7396 11.0396 12.924 10.2188 11.9111 10.2188ZM8.58105 12.0488C8.58105 10.2045 10.0668 8.71875 11.9111 8.71875C13.7572 8.71875 15.2411 10.2164 15.2411 12.0488V12.0541H15.241C15.2282 13.8482 13.8158 15.3265 12.0228 15.3784C11.9838 15.3796 11.9447 15.3777 11.9061 15.3727C11.8656 15.3779 11.8247 15.3797 11.7839 15.3783C10.0009 15.3137 8.58105 13.8528 8.58105 12.0488Z" fill="#EE6C4D"/>
<path fill-rule="evenodd" clip-rule="evenodd" d="M12.0045 16.2344C13.173 16.2344 14.3818 16.5254 15.3267 17.1553C16.1881 17.7296 16.7182 18.5617 16.7182 19.4894C16.7182 20.4169 16.1883 21.2489 15.3271 21.8232C14.3781 22.4576 13.1697 22.7519 12.0007 22.7519C10.8317 22.7519 9.62331 22.4576 8.67435 21.8232C7.81316 21.2489 7.2832 20.4169 7.2832 19.4894C7.2832 18.5617 7.81329 17.7296 8.67468 17.1553L8.67648 17.1541L8.67648 17.1541C9.62546 16.5254 10.8357 16.2344 12.0045 16.2344ZM9.50584 18.404C8.95793 18.7696 8.7832 19.1772 8.7832 19.4894C8.7832 19.8017 8.95811 20.2096 9.50673 20.5753L9.50763 20.5759C10.1586 21.0113 11.0599 21.2519 12.0007 21.2519C12.9415 21.2519 13.8428 21.0113 14.4938 20.5759L14.4947 20.5753C15.0433 20.2096 15.2182 19.8017 15.2182 19.4894C15.2182 19.177 15.0433 18.7692 14.4947 18.4034C13.8496 17.9734 12.9484 17.7344 12.0045 17.7344C11.0611 17.7344 10.1568 17.9731 9.50584 18.404Z" fill="#EE6C4D"/>
</svg>
