<svg width="40" height="40" viewBox="0 0 40 40" fill="none" xmlns="http://www.w3.org/2000/svg">
<circle cx="20" cy="20" r="20" fill="#4D4354"/>
<mask id="mask0_512_51234" style="mask-type:alpha" maskUnits="userSpaceOnUse" x="0" y="0" width="40" height="40">
<circle cx="20" cy="20" r="20" fill="#B5B5BE"/>
</mask>
<g mask="url(#mask0_512_51234)">
<path fill-rule="evenodd" clip-rule="evenodd" d="M26.6666 16.6667C26.6666 20.3433 23.6766 23.3333 19.9999 23.3333C16.3233 23.3333 13.3333 20.3433 13.3333 16.6667C13.3333 12.99 16.3233 10 19.9999 10C23.6766 10 26.6666 12.99 26.6666 16.6667ZM31.6666 38.3333C31.6666 39.2533 30.9216 40 29.9999 40H9.99992C9.07825 40 8.33325 39.2533 8.33325 38.3333C8.33325 31.9 13.5683 26.6667 19.9999 26.6667C26.4316 26.6667 31.6666 31.9 31.6666 38.3333Z" fill="#C2B0CF"/>
</g>
</svg>
