<svg width="20" height="20" viewBox="0 0 20 20" fill="none" xmlns="http://www.w3.org/2000/svg">
<path fill-rule="evenodd" clip-rule="evenodd" d="M10.8335 2.5H3.3335V17.5H12.5002C14.8013 17.5 16.6668 15.6345 16.6668 13.3333C16.6668 11.5436 15.5385 10.0175 13.9543 9.42745C14.6051 8.69235 15.0002 7.72564 15.0002 6.66667C15.0002 4.36548 13.1347 2.5 10.8335 2.5ZM10.8335 9.16667C12.2142 9.16667 13.3335 8.04738 13.3335 6.66667C13.3335 5.28595 12.2142 4.16667 10.8335 4.16667H5.00016V9.16667H10.8335ZM5.00016 15.8333V10.8333H12.5002C13.8809 10.8333 15.0002 11.9526 15.0002 13.3333C15.0002 14.714 13.8809 15.8333 12.5002 15.8333H5.00016Z" fill="#4D4354"/>
</svg>
