<svg width="12" height="14" viewBox="0 0 12 14" fill="#4D4354" xmlns="http://www.w3.org/2000/svg">
<path fill-rule="evenodd" clip-rule="evenodd" d="M0.222168 5.23486C0.222168 4.95872 0.446026 4.73486 0.722168 4.73486H11.4166C11.6927 4.73486 11.9166 4.95872 11.9166 5.23486C11.9166 5.51101 11.6927 5.73486 11.4166 5.73486H0.722168C0.446026 5.73486 0.222168 5.51101 0.222168 5.23486Z"/>
<path fill-rule="evenodd" clip-rule="evenodd" d="M8.23242 7.57861C8.23242 7.30247 8.45628 7.07861 8.73242 7.07861H8.73842C9.01456 7.07861 9.23842 7.30247 9.23842 7.57861C9.23842 7.85476 9.01456 8.07861 8.73842 8.07861H8.73242C8.45628 8.07861 8.23242 7.85476 8.23242 7.57861Z"/>
<path fill-rule="evenodd" clip-rule="evenodd" d="M5.56934 7.57861C5.56934 7.30247 5.79319 7.07861 6.06934 7.07861H6.07534C6.35148 7.07861 6.57534 7.30247 6.57534 7.57861C6.57534 7.85476 6.35148 8.07861 6.07534 8.07861H6.06934C5.79319 8.07861 5.56934 7.85476 5.56934 7.57861Z"/>
<path fill-rule="evenodd" clip-rule="evenodd" d="M2.90137 7.57861C2.90137 7.30247 3.12522 7.07861 3.40137 7.07861H3.40737C3.68351 7.07861 3.90737 7.30247 3.90737 7.57861C3.90737 7.85476 3.68351 8.07861 3.40737 8.07861H3.40137C3.12522 8.07861 2.90137 7.85476 2.90137 7.57861Z"/>
<path fill-rule="evenodd" clip-rule="evenodd" d="M8.23242 9.91016C8.23242 9.63401 8.45628 9.41016 8.73242 9.41016H8.73842C9.01456 9.41016 9.23842 9.63401 9.23842 9.91016C9.23842 10.1863 9.01456 10.4102 8.73842 10.4102H8.73242C8.45628 10.4102 8.23242 10.1863 8.23242 9.91016Z"/>
<path fill-rule="evenodd" clip-rule="evenodd" d="M5.56934 9.91016C5.56934 9.63401 5.79319 9.41016 6.06934 9.41016H6.07534C6.35148 9.41016 6.57534 9.63401 6.57534 9.91016C6.57534 10.1863 6.35148 10.4102 6.07534 10.4102H6.06934C5.79319 10.4102 5.56934 10.1863 5.56934 9.91016Z"/>
<path fill-rule="evenodd" clip-rule="evenodd" d="M2.90137 9.91016C2.90137 9.63401 3.12522 9.41016 3.40137 9.41016H3.40737C3.68351 9.41016 3.90737 9.63401 3.90737 9.91016C3.90737 10.1863 3.68351 10.4102 3.40737 10.4102H3.40137C3.12522 10.4102 2.90137 10.1863 2.90137 9.91016Z"/>
<path fill-rule="evenodd" clip-rule="evenodd" d="M8.49268 0.29248C8.76882 0.29248 8.99268 0.516338 8.99268 0.79248V2.76708C8.99268 3.04322 8.76882 3.26708 8.49268 3.26708C8.21653 3.26708 7.99268 3.04322 7.99268 2.76708V0.79248C7.99268 0.516338 8.21653 0.29248 8.49268 0.29248Z"/>
<path fill-rule="evenodd" clip-rule="evenodd" d="M3.64551 0.29248C3.92165 0.29248 4.14551 0.516338 4.14551 0.79248V2.76708C4.14551 3.04322 3.92165 3.26708 3.64551 3.26708C3.36937 3.26708 3.14551 3.04322 3.14551 2.76708V0.79248C3.14551 0.516338 3.36937 0.29248 3.64551 0.29248Z"/>
<path fill-rule="evenodd" clip-rule="evenodd" d="M1.09248 2.09369C1.70519 1.51122 2.55794 1.23975 3.5291 1.23975H8.6093C9.58273 1.23975 10.436 1.511 11.0478 2.09416C11.6633 2.68087 11.9693 3.52133 11.9665 4.52617V10.0011C11.9665 11.006 11.6589 11.8473 11.0433 12.435C10.4312 13.0193 9.57813 13.2923 8.6039 13.2923H3.5291C2.55493 13.2923 1.70111 13.0134 1.08899 12.4201C0.474382 11.8244 0.166504 10.9729 0.166504 9.95555V4.52555C0.166504 3.51994 0.475907 2.67983 1.09248 2.09369ZM1.78148 2.81845C1.4073 3.17416 1.1665 3.72695 1.1665 4.52555V9.95555C1.1665 10.7706 1.40883 11.3375 1.78497 11.7021C2.1636 12.0691 2.74108 12.2923 3.5291 12.2923H8.6039C9.39727 12.2923 9.97547 12.0719 10.3528 11.7117C10.7266 11.3548 10.9665 10.8005 10.9665 10.0011V4.52555L10.9665 4.52405C10.9689 3.72508 10.7302 3.17296 10.3578 2.81798C9.98151 2.4593 9.40348 2.23975 8.6093 2.23975H3.5291C2.73807 2.23975 2.15951 2.45908 1.78148 2.81845Z"/>
</svg>
