<svg width="24" height="24" viewBox="0 0 24 24" fill="none" xmlns="http://www.w3.org/2000/svg">
<path fill-rule="evenodd" clip-rule="evenodd" d="M3.33398 9.66406C3.33398 9.24985 3.66977 8.91406 4.08398 8.91406H20.1256C20.5398 8.91406 20.8756 9.24985 20.8756 9.66406C20.8756 10.0783 20.5398 10.4141 20.1256 10.4141H4.08398C3.66977 10.4141 3.33398 10.0783 3.33398 9.66406Z" fill="#EE6C4D"/>
<path fill-rule="evenodd" clip-rule="evenodd" d="M15.3486 13.1797C15.3486 12.7655 15.6844 12.4297 16.0986 12.4297H16.1076C16.5218 12.4297 16.8576 12.7655 16.8576 13.1797C16.8576 13.5939 16.5218 13.9297 16.1076 13.9297H16.0986C15.6844 13.9297 15.3486 13.5939 15.3486 13.1797Z" fill="#EE6C4D"/>
<path fill-rule="evenodd" clip-rule="evenodd" d="M11.3545 13.1797C11.3545 12.7655 11.6903 12.4297 12.1045 12.4297H12.1135C12.5277 12.4297 12.8635 12.7655 12.8635 13.1797C12.8635 13.5939 12.5277 13.9297 12.1135 13.9297H12.1045C11.6903 13.9297 11.3545 13.5939 11.3545 13.1797Z" fill="#EE6C4D"/>
<path fill-rule="evenodd" clip-rule="evenodd" d="M7.35254 13.1797C7.35254 12.7655 7.68833 12.4297 8.10254 12.4297H8.11154C8.52575 12.4297 8.86154 12.7655 8.86154 13.1797C8.86154 13.5939 8.52575 13.9297 8.11154 13.9297H8.10254C7.68833 13.9297 7.35254 13.5939 7.35254 13.1797Z" fill="#EE6C4D"/>
<path fill-rule="evenodd" clip-rule="evenodd" d="M15.3486 16.6758C15.3486 16.2616 15.6844 15.9258 16.0986 15.9258H16.1076C16.5218 15.9258 16.8576 16.2616 16.8576 16.6758C16.8576 17.09 16.5218 17.4258 16.1076 17.4258H16.0986C15.6844 17.4258 15.3486 17.09 15.3486 16.6758Z" fill="#EE6C4D"/>
<path fill-rule="evenodd" clip-rule="evenodd" d="M11.3545 16.6758C11.3545 16.2616 11.6903 15.9258 12.1045 15.9258H12.1135C12.5277 15.9258 12.8635 16.2616 12.8635 16.6758C12.8635 17.09 12.5277 17.4258 12.1135 17.4258H12.1045C11.6903 17.4258 11.3545 17.09 11.3545 16.6758Z" fill="#EE6C4D"/>
<path fill-rule="evenodd" clip-rule="evenodd" d="M7.35254 16.6758C7.35254 16.2616 7.68833 15.9258 8.10254 15.9258H8.11154C8.52575 15.9258 8.86154 16.2616 8.86154 16.6758C8.86154 17.09 8.52575 17.4258 8.11154 17.4258H8.10254C7.68833 17.4258 7.35254 17.09 7.35254 16.6758Z" fill="#EE6C4D"/>
<path fill-rule="evenodd" clip-rule="evenodd" d="M15.7393 2.25C16.1535 2.25 16.4893 2.58579 16.4893 3V5.9619C16.4893 6.37611 16.1535 6.7119 15.7393 6.7119C15.325 6.7119 14.9893 6.37611 14.9893 5.9619V3C14.9893 2.58579 15.325 2.25 15.7393 2.25Z" fill="#EE6C4D"/>
<path fill-rule="evenodd" clip-rule="evenodd" d="M8.46875 2.25C8.88296 2.25 9.21875 2.58579 9.21875 3V5.9619C9.21875 6.37611 8.88296 6.7119 8.46875 6.7119C8.05454 6.7119 7.71875 6.37611 7.71875 5.9619V3C7.71875 2.58579 8.05454 2.25 8.46875 2.25Z" fill="#EE6C4D"/>
<path fill-rule="evenodd" clip-rule="evenodd" d="M4.63897 4.95279C5.55804 4.07908 6.83716 3.67188 8.2939 3.67188H15.9142C17.3743 3.67188 18.6542 4.07875 19.5719 4.95349C20.4951 5.83355 20.9542 7.09424 20.95 8.60151V16.814C20.95 18.3213 20.4886 19.5832 19.5652 20.4647C18.6471 21.3412 17.3674 21.7508 15.9061 21.7508H8.2939C6.83264 21.7508 5.55191 21.3324 4.63372 20.4424C3.71182 19.5489 3.25 18.2716 3.25 16.7456V8.60057C3.25 7.09217 3.7141 5.832 4.63897 4.95279ZM5.67246 6.03994C5.1112 6.5735 4.75 7.40268 4.75 8.60057V16.7456C4.75 17.9682 5.11348 18.8185 5.6777 19.3654C6.24564 19.9158 7.11186 20.2508 8.2939 20.2508H15.9061C17.0962 20.2508 17.9634 19.9201 18.5294 19.3798C19.0901 18.8445 19.45 18.013 19.45 16.814V8.60057L19.45 8.59833C19.4536 7.39987 19.0955 6.57169 18.5369 6.03923C17.9725 5.5012 17.1055 5.17188 15.9142 5.17188H8.2939C7.10734 5.17188 6.23951 5.50087 5.67246 6.03994Z" fill="#EE6C4D"/>
</svg>
