<svg width="24" height="24" viewBox="0 0 24 24" fill="none" xmlns="http://www.w3.org/2000/svg">
<path fill-rule="evenodd" clip-rule="evenodd" d="M3.33398 9.66406C3.33398 9.24985 3.66977 8.91406 4.08398 8.91406H20.1256C20.5398 8.91406 20.8756 9.24985 20.8756 9.66406C20.8756 10.0783 20.5398 10.4141 20.1256 10.4141H4.08398C3.66977 10.4141 3.33398 10.0783 3.33398 9.66406Z" fill="#4D4354"/>
<path fill-rule="evenodd" clip-rule="evenodd" d="M15.3496 13.1797C15.3496 12.7655 15.6854 12.4297 16.0996 12.4297H16.1086C16.5228 12.4297 16.8586 12.7655 16.8586 13.1797C16.8586 13.5939 16.5228 13.9297 16.1086 13.9297H16.0996C15.6854 13.9297 15.3496 13.5939 15.3496 13.1797Z" fill="#4D4354"/>
<path fill-rule="evenodd" clip-rule="evenodd" d="M11.3555 13.1797C11.3555 12.7655 11.6913 12.4297 12.1055 12.4297H12.1145C12.5287 12.4297 12.8645 12.7655 12.8645 13.1797C12.8645 13.5939 12.5287 13.9297 12.1145 13.9297H12.1055C11.6913 13.9297 11.3555 13.5939 11.3555 13.1797Z" fill="#4D4354"/>
<path fill-rule="evenodd" clip-rule="evenodd" d="M7.35156 13.1797C7.35156 12.7655 7.68735 12.4297 8.10156 12.4297H8.11056C8.52478 12.4297 8.86056 12.7655 8.86056 13.1797C8.86056 13.5939 8.52478 13.9297 8.11056 13.9297H8.10156C7.68735 13.9297 7.35156 13.5939 7.35156 13.1797Z" fill="#4D4354"/>
<path fill-rule="evenodd" clip-rule="evenodd" d="M15.3496 16.6758C15.3496 16.2616 15.6854 15.9258 16.0996 15.9258H16.1086C16.5228 15.9258 16.8586 16.2616 16.8586 16.6758C16.8586 17.09 16.5228 17.4258 16.1086 17.4258H16.0996C15.6854 17.4258 15.3496 17.09 15.3496 16.6758Z" fill="#4D4354"/>
<path fill-rule="evenodd" clip-rule="evenodd" d="M11.3555 16.6758C11.3555 16.2616 11.6913 15.9258 12.1055 15.9258H12.1145C12.5287 15.9258 12.8645 16.2616 12.8645 16.6758C12.8645 17.09 12.5287 17.4258 12.1145 17.4258H12.1055C11.6913 17.4258 11.3555 17.09 11.3555 16.6758Z" fill="#4D4354"/>
<path fill-rule="evenodd" clip-rule="evenodd" d="M7.35156 16.6758C7.35156 16.2616 7.68735 15.9258 8.10156 15.9258H8.11056C8.52478 15.9258 8.86056 16.2616 8.86056 16.6758C8.86056 17.09 8.52478 17.4258 8.11056 17.4258H8.10156C7.68735 17.4258 7.35156 17.09 7.35156 16.6758Z" fill="#4D4354"/>
<path fill-rule="evenodd" clip-rule="evenodd" d="M15.7402 2.25C16.1544 2.25 16.4902 2.58579 16.4902 3V5.9619C16.4902 6.37611 16.1544 6.7119 15.7402 6.7119C15.326 6.7119 14.9902 6.37611 14.9902 5.9619V3C14.9902 2.58579 15.326 2.25 15.7402 2.25Z" fill="#4D4354"/>
<path fill-rule="evenodd" clip-rule="evenodd" d="M8.46875 2.25C8.88296 2.25 9.21875 2.58579 9.21875 3V5.9619C9.21875 6.37611 8.88296 6.7119 8.46875 6.7119C8.05454 6.7119 7.71875 6.37611 7.71875 5.9619V3C7.71875 2.58579 8.05454 2.25 8.46875 2.25Z" fill="#4D4354"/>
<path fill-rule="evenodd" clip-rule="evenodd" d="M4.63897 4.95279C5.55804 4.07908 6.83716 3.67188 8.2939 3.67188H15.9142C17.3743 3.67188 18.6542 4.07875 19.5719 4.95349C20.4951 5.83355 20.9542 7.09424 20.95 8.60151V16.814C20.95 18.3213 20.4886 19.5832 19.5652 20.4647C18.6471 21.3412 17.3674 21.7508 15.9061 21.7508H8.2939C6.83264 21.7508 5.55191 21.3324 4.63372 20.4424C3.71182 19.5489 3.25 18.2716 3.25 16.7456V8.60057C3.25 7.09217 3.7141 5.832 4.63897 4.95279ZM5.67246 6.03994C5.1112 6.5735 4.75 7.40268 4.75 8.60057V16.7456C4.75 17.9682 5.11348 18.8185 5.6777 19.3654C6.24564 19.9158 7.11186 20.2508 8.2939 20.2508H15.9061C17.0962 20.2508 17.9634 19.9201 18.5294 19.3798C19.0901 18.8445 19.45 18.013 19.45 16.814V8.60057L19.45 8.59833C19.4536 7.39987 19.0955 6.57169 18.5369 6.03923C17.9725 5.5012 17.1055 5.17188 15.9142 5.17188H8.2939C7.10734 5.17188 6.23951 5.50087 5.67246 6.03994Z" fill="#4D4354"/>
</svg>
