<svg width="134" height="95" viewBox="0 0 134 95" fill="none" xmlns="http://www.w3.org/2000/svg">
<circle r="2" transform="matrix(1 0 0 -1 25.5 2)" fill="#C2B0CF"/>
<path fill-rule="evenodd" clip-rule="evenodd" d="M65.4164 87.0202C65.4164 94.6598 37.75 94.6598 37.75 87.0202C37.75 79.3808 43.9441 73.1875 51.5837 73.1875C59.2232 73.1875 65.4164 79.3808 65.4164 87.0202Z" fill="#DFD6E5"/>
<path fill-rule="evenodd" clip-rule="evenodd" d="M65.1149 84.1367C62.3123 90.0113 40.8543 90.0113 38.0515 84.1367C37.8539 85.0675 37.75 86.0329 37.75 87.0226C37.75 94.6622 65.4164 94.6622 65.4164 87.0226C65.4164 86.033 65.3124 85.0677 65.1149 84.1367Z" fill="#C2B0CF"/>
<path fill-rule="evenodd" clip-rule="evenodd" d="M45.1895 63.1113C45.1895 66.6424 48.0517 69.5047 51.583 69.5047C55.1141 69.5047 57.9763 66.6424 57.9763 63.1113C57.9763 59.5812 55.1141 56.7188 51.583 56.7188C48.0519 56.7188 45.1895 59.581 45.1895 63.1113Z" fill="#C2B0CF"/>
<path fill-rule="evenodd" clip-rule="evenodd" d="M55.4407 49.9574L49.9595 43.7557H47.7469C46.4414 43.7557 45.373 42.4136 45.373 40.7732V28.2325C45.373 26.5921 46.4414 25.25 47.7469 25.25H73.5679C74.8735 25.25 75.9417 26.5923 75.9417 28.2325V40.7732C75.9417 42.4136 74.8734 43.7557 73.5679 43.7557L55.501 43.7555L55.4407 49.9574Z" fill="#B2A2BD"/>
<path fill-rule="evenodd" clip-rule="evenodd" d="M83.7524 56.8122L89.6434 50.1468H92.0213C93.4245 50.1468 94.5725 48.7044 94.5725 46.9413V33.4634C94.5725 31.7003 93.4245 30.2578 92.0213 30.2578H64.27C62.8668 30.2578 61.7188 31.7003 61.7188 33.4634V46.9413C61.7188 48.7042 62.867 50.1468 64.27 50.1468L83.6875 50.1467L83.7524 56.8122Z" fill="#DFD6E5"/>
<path fill-rule="evenodd" clip-rule="evenodd" d="M78.1339 38.8906C77.4077 38.8906 76.8189 39.4793 76.8189 40.2055C76.8189 40.9318 77.4075 41.5205 78.1339 41.5205C78.86 41.5205 79.4488 40.9317 79.4488 40.2055C79.4487 39.4793 78.86 38.8906 78.1339 38.8906ZM85.7924 38.8906C85.0662 38.8906 84.4775 39.4793 84.4775 40.2055C84.4775 40.9318 85.0662 41.5205 85.7924 41.5205C86.5186 41.5205 87.1074 40.9317 87.1074 40.2055C87.1074 39.4793 86.5186 38.8906 85.7924 38.8906ZM70.4751 38.8906C69.7488 38.8906 69.1602 39.4793 69.1602 40.2055C69.1602 40.9318 69.7488 41.5205 70.4751 41.5205C71.2013 41.5205 71.79 40.9317 71.79 40.2055C71.7901 39.4793 71.2015 38.8906 70.4751 38.8906Z" fill="#F4F6F8"/>
<path fill-rule="evenodd" clip-rule="evenodd" d="M105.25 87.0202C105.25 94.6598 77.584 94.6598 77.584 87.0202C77.584 79.3808 83.778 73.1875 91.4177 73.1875C99.0573 73.1875 105.25 79.3808 105.25 87.0202Z" fill="#DFD6E5"/>
<path fill-rule="evenodd" clip-rule="evenodd" d="M104.949 84.1367C102.146 90.0113 80.6883 90.0113 77.8855 84.1367C77.6879 85.0675 77.584 86.0329 77.584 87.0226C77.584 94.6622 105.25 94.6622 105.25 87.0226C105.25 86.033 105.146 85.0677 104.949 84.1367Z" fill="#C2B0CF"/>
<path fill-rule="evenodd" clip-rule="evenodd" d="M85.0234 63.1113C85.0234 66.6424 87.8857 69.5047 91.417 69.5047C94.948 69.5047 97.8103 66.6424 97.8103 63.1113C97.8103 59.5812 94.948 56.7188 91.417 56.7188C87.8857 56.7188 85.0234 59.581 85.0234 63.1113Z" fill="#C2B0CF"/>
<circle r="2" transform="matrix(1 0 0 -1 120.5 18)" fill="#C2B0CF"/>
<path fill-rule="evenodd" clip-rule="evenodd" d="M130.166 50.3346H126.166V46.3346C126.166 45.966 125.867 45.668 125.499 45.668C125.131 45.668 124.833 45.966 124.833 46.3346V50.3346H120.833C120.465 50.3346 120.166 50.6326 120.166 51.0013C120.166 51.37 120.465 51.668 120.833 51.668H124.833V55.668C124.833 56.0366 125.131 56.3346 125.499 56.3346C125.867 56.3346 126.166 56.0366 126.166 55.668V51.668H130.166C130.534 51.668 130.833 51.37 130.833 51.0013C130.833 50.6326 130.534 50.3346 130.166 50.3346Z" fill="#DFD6E5"/>
<circle r="2" transform="matrix(1 0 0 -1 2.5 41)" fill="#DFD6E5"/>
<path fill-rule="evenodd" clip-rule="evenodd" d="M17.166 86.3346H13.166V82.3346C13.166 81.966 12.8673 81.668 12.4993 81.668C12.1313 81.668 11.8327 81.966 11.8327 82.3346V86.3346H7.83268C7.46468 86.3346 7.16602 86.6326 7.16602 87.0013C7.16602 87.37 7.46468 87.668 7.83268 87.668H11.8327V91.668C11.8327 92.0366 12.1313 92.3346 12.4993 92.3346C12.8673 92.3346 13.166 92.0366 13.166 91.668V87.668H17.166C17.534 87.668 17.8327 87.37 17.8327 87.0013C17.8327 86.6326 17.534 86.3346 17.166 86.3346Z" fill="#C2B0CF"/>
<path fill-rule="evenodd" clip-rule="evenodd" d="M60.834 3.66536H58.834V1.66536C58.834 1.48103 58.6847 1.33203 58.5007 1.33203C58.3167 1.33203 58.1673 1.48103 58.1673 1.66536V3.66536H56.1673C55.9833 3.66536 55.834 3.81436 55.834 3.9987C55.834 4.18303 55.9833 4.33203 56.1673 4.33203H58.1673V6.33203C58.1673 6.51636 58.3167 6.66536 58.5007 6.66536C58.6847 6.66536 58.834 6.51636 58.834 6.33203V4.33203H60.834C61.018 4.33203 61.1673 4.18303 61.1673 3.9987C61.1673 3.81436 61.018 3.66536 60.834 3.66536Z" fill="#C2B0CF"/>
</svg>
