<svg width="20" height="20" viewBox="0 0 20 20" fill="none" xmlns="http://www.w3.org/2000/svg">
<path fill-rule="evenodd" clip-rule="evenodd" d="M17.4976 9.14533H17.5001C17.9593 9.14533 18.3326 9.51699 18.3335 9.97616C18.3401 12.202 17.4793 14.2978 15.9093 15.8762C14.3401 17.4545 12.2501 18.327 10.0243 18.3337H10.0001C7.78262 18.3337 5.69679 17.4737 4.12429 15.9095C2.54595 14.3403 1.67345 12.2503 1.66679 10.0245C1.66012 7.79783 2.52095 5.70283 4.09095 4.12449C5.66012 2.54616 7.75012 1.67366 9.97595 1.66699C10.6385 1.67699 11.3135 1.74366 11.9601 1.89866C12.4068 2.00699 12.6826 2.45699 12.5743 2.90449C12.4668 3.35116 12.0143 3.62616 11.5693 3.51949C11.0518 3.39449 10.5026 3.34199 9.98095 3.33366C8.20012 3.33866 6.52762 4.03699 5.27262 5.29949C4.01679 6.56199 3.32845 8.23866 3.33345 10.0195C3.33845 11.8003 4.03679 13.472 5.29929 14.7278C6.55762 15.9787 8.22595 16.667 10.0001 16.667H10.0193C11.8001 16.662 13.4726 15.9637 14.7276 14.7012C15.9835 13.4378 16.6718 11.762 16.6668 9.98116C16.666 9.52116 17.0376 9.14616 17.4976 9.14533ZM6.91095 9.41108C7.23679 9.08524 7.76345 9.08524 8.08929 9.41108L9.95929 11.2811L15.2068 5.28441C15.5101 4.94024 16.036 4.90358 16.3826 5.20691C16.7285 5.50941 16.7635 6.03608 16.4601 6.38274L10.6268 13.0494C10.4751 13.2227 10.2585 13.3252 10.0276 13.3336H10.0001C9.77929 13.3336 9.56762 13.2461 9.41095 13.0894L6.91095 10.5894C6.58512 10.2636 6.58512 9.73691 6.91095 9.41108Z" fill="#4D4354"/>
</svg>
