<svg width="25" height="24" viewBox="0 0 25 24" fill="none" xmlns="http://www.w3.org/2000/svg">
<g id="Icon / Other">
<g id="Time">
<g id="Time Circle">
<path id="Stroke 1 (Stroke)" fill-rule="evenodd" clip-rule="evenodd" d="M12.75 3.75C11.0689 3.75 9.42548 4.24852 8.02766 5.18251C6.62984 6.1165 5.54037 7.44402 4.89703 8.99719C4.25368 10.5504 4.08536 12.2594 4.41333 13.9083C4.7413 15.5571 5.55085 17.0717 6.7396 18.2604C7.92834 19.4492 9.4429 20.2587 11.0917 20.5867C12.7406 20.9146 14.4496 20.7463 16.0028 20.103C17.556 19.4596 18.8835 18.3702 19.8175 16.9723C20.7515 15.5745 21.25 13.9311 21.25 12.25C21.25 9.99566 20.3545 7.83365 18.7604 6.23959C17.1664 4.64553 15.0043 3.75 12.75 3.75ZM7.1943 3.9353C8.83879 2.83649 10.7722 2.25 12.75 2.25C15.4022 2.25 17.9457 3.30357 19.8211 5.17893C21.6964 7.0543 22.75 9.59784 22.75 12.25C22.75 14.2278 22.1635 16.1612 21.0647 17.8057C19.9659 19.4502 18.4041 20.7319 16.5768 21.4888C14.7496 22.2457 12.7389 22.4437 10.7991 22.0579C8.85929 21.672 7.07746 20.7196 5.67894 19.3211C4.28041 17.9225 3.328 16.1407 2.94215 14.2009C2.5563 12.2611 2.75433 10.2504 3.51121 8.42317C4.26809 6.5959 5.54981 5.03412 7.1943 3.9353Z" fill="#EE6C4D"/>
<path id="Stroke 3 (Stroke)" fill-rule="evenodd" clip-rule="evenodd" d="M12.4111 7.34766C12.8253 7.34766 13.1611 7.68344 13.1611 8.09766V12.5191L16.5659 14.5539C16.9214 14.7663 17.0374 15.2268 16.8249 15.5824C16.6124 15.938 16.152 16.0539 15.7964 15.8415L12.0264 13.5885C11.7998 13.4531 11.6611 13.2086 11.6611 12.9447V8.09766C11.6611 7.68344 11.9969 7.34766 12.4111 7.34766Z" fill="#EE6C4D"/>
</g>
</g>
</g>
</svg>
