<svg width="16" height="17" viewBox="0 0 16 17" fill="#4D4354" xmlns="http://www.w3.org/2000/svg">
<path clip-rule="evenodd" d="M8.16667 3.16504C7.04591 3.16504 5.95032 3.49738 5.01844 4.12004C4.08656 4.74271 3.36025 5.62772 2.93135 6.66317C2.50246 7.69861 2.39024 8.83799 2.60889 9.93722C2.82754 11.0364 3.36723 12.0461 4.15973 12.8386C4.95223 13.6311 5.96193 14.1708 7.06116 14.3895C8.16038 14.6081 9.29976 14.4959 10.3352 14.067C11.3707 13.6381 12.2557 12.9118 12.8783 11.9799C13.501 11.0481 13.8333 9.95247 13.8333 8.83171C13.8333 7.32881 13.2363 5.88747 12.1736 4.82477C11.1109 3.76206 9.66956 3.16504 8.16667 3.16504ZM4.46287 3.28858C5.5592 2.55603 6.84813 2.16504 8.16667 2.16504C9.93478 2.16504 11.6305 2.86742 12.8807 4.11766C14.131 5.3679 14.8333 7.0636 14.8333 8.83171C14.8333 10.1502 14.4423 11.4392 13.7098 12.5355C12.9773 13.6318 11.9361 14.4863 10.7179 14.9909C9.49972 15.4955 8.15927 15.6275 6.86607 15.3703C5.57286 15.113 4.38497 14.4781 3.45262 13.5458C2.52027 12.6134 1.88534 11.4255 1.6281 10.1323C1.37087 8.8391 1.50289 7.49866 2.00747 6.28048C2.51206 5.06231 3.36654 4.02112 4.46287 3.28858Z"/>
<path clip-rule="evenodd" d="M7.94043 5.56238C8.21657 5.56238 8.44043 5.78624 8.44043 6.06238V9.01004L10.7103 10.3665C10.9473 10.5082 11.0246 10.8152 10.883 11.0522C10.7413 11.2892 10.4343 11.3666 10.1973 11.2249L7.68394 9.72291C7.53291 9.63265 7.44043 9.46966 7.44043 9.29371V6.06238C7.44043 5.78624 7.66429 5.56238 7.94043 5.56238Z"/>
</svg>
