<svg width="178" height="145" viewBox="0 0 178 145" fill="none" xmlns="http://www.w3.org/2000/svg">
<g clip-path="url(#clip0_33905_194113)">
<path d="M149.102 48.6902V100.915C149.102 106.226 144.795 110.535 139.481 110.535H38.7218C33.4078 110.535 29.1016 106.226 29.1016 100.915V48.6902C29.1016 43.5998 33.2279 39.4766 38.3152 39.4766H139.888C144.975 39.4766 149.102 43.5998 149.102 48.6902Z" fill="#EBE4EF"/>
<path d="M139.886 39.4766H133.907C138.994 39.4766 143.12 43.6 143.12 48.6902V100.915C143.12 106.226 138.814 110.535 133.5 110.535H139.48C144.794 110.535 149.1 106.226 149.1 100.915V48.6905C149.1 43.6 144.974 39.4766 139.886 39.4766Z" fill="#DFD6E5"/>
<path d="M63.3577 96.2594C62.3574 96.2594 61.5469 95.4489 61.5469 94.4486V52.2972C61.5469 51.2969 62.3574 50.4863 63.3577 50.4863C64.3581 50.4863 65.1686 51.2969 65.1686 52.2972V94.4486C65.1686 95.4489 64.3581 96.2594 63.3577 96.2594Z" fill="#EDF5FA"/>
<path d="M149.102 44.4578V48.688H29.1016V44.4578C29.1016 39.3681 33.2279 35.2441 38.3152 35.2441H139.888C144.975 35.2441 149.102 39.3681 149.102 44.4578Z" fill="#DFD6E5"/>
<path d="M149.101 44.4578V48.688H143.12V44.4578C143.12 39.3681 138.994 35.2441 133.906 35.2441H139.887C144.974 35.2441 149.101 39.3681 149.101 44.4578Z" fill="#C2B0CF"/>
<path d="M41.9778 115.098L59.583 87.7935C61.3516 85.0506 65.3626 85.0506 67.1309 87.7935L84.7362 115.098C86.6629 118.086 84.5177 122.022 80.9621 122.022H45.7516C42.1963 122.022 40.051 118.086 41.9778 115.098Z" fill="#FAD289"/>
<path d="M84.7343 115.099L67.1279 87.7933C65.4885 85.2484 61.915 85.0649 59.9979 87.2428C59.8482 87.4118 59.7082 87.5953 59.5802 87.7933L58.5859 89.3352C58.5859 89.3352 58.6156 89.2898 58.6663 89.2125C59.2963 88.2552 60.702 88.2559 61.3314 89.2137C61.3317 89.214 61.3317 89.2142 61.3317 89.2142L78.0218 115.099C79.9486 118.085 77.8021 122.021 74.248 122.021H80.9603C84.5146 122.021 86.6611 118.085 84.7343 115.099Z" fill="#F5BE6B"/>
<path d="M136.893 55.9025H62.4112C60.4193 55.9025 58.8047 54.2877 58.8047 52.296C58.8047 50.304 60.4195 48.6895 62.4112 48.6895H136.893C138.885 48.6895 140.5 50.3043 140.5 52.296C140.5 54.2879 138.885 55.9025 136.893 55.9025Z" fill="#B8A4C7"/>
<path d="M136.894 48.6895H130.07C132.062 48.6895 133.677 50.3043 133.677 52.296C133.677 54.2879 132.062 55.9025 130.07 55.9025H136.894C138.886 55.9025 140.501 54.2877 140.501 52.296C140.5 50.304 138.886 48.6895 136.894 48.6895Z" fill="#9C86AC"/>
<path d="M127.821 44.9744V65.7004L127.241 68.2351L127.821 70.7329V80.6451L127.241 83.1945L127.821 85.7363V95.6328L127.241 98.2102L127.821 100.926V110.694L127.241 113.224L127.821 115.753V125.641L127.03 128.19H113.588L112.793 125.659V115.755L113.517 113.166L112.793 110.692V101.121L113.517 98.2102L112.793 95.6304V85.7363L113.517 83.1038L112.793 80.6654V70.7329L113.517 68.3394L112.793 65.6463V44.9744C112.793 42.9825 114.408 41.3672 116.4 41.3672H124.213C126.206 41.3672 127.821 42.9825 127.821 44.9744Z" fill="#C2B0CF"/>
<path d="M124.214 41.3672H118.391C120.383 41.3672 121.997 42.982 121.997 44.9737V128.191H127.031L127.821 125.725V115.749L127.031 113.224L127.821 110.699V100.789L126.996 98.2107L127.821 95.6374V85.7146L126.96 83.195L127.821 80.6497V70.7293L126.96 68.2298L127.821 65.6997V44.9737C127.821 42.982 126.206 41.3672 124.214 41.3672Z" fill="#B8A4C7"/>
<path d="M50.0312 43.942H41.3499C40.3496 43.942 39.5391 43.1315 39.5391 42.1312C39.5391 41.1309 40.3496 40.3203 41.3499 40.3203H50.0312C51.0315 40.3203 51.8421 41.1309 51.8421 42.1312C51.8421 43.1315 51.0315 43.942 50.0312 43.942Z" fill="#C2B0CF"/>
<path d="M138.184 44.0049C139.175 44.0049 139.978 43.202 139.978 42.2114C139.978 41.2209 139.175 40.418 138.184 40.418C137.194 40.418 136.391 41.2209 136.391 42.2114C136.391 43.202 137.194 44.0049 138.184 44.0049Z" fill="#EBE4EF"/>
<path d="M132.532 44.0049C133.522 44.0049 134.325 43.202 134.325 42.2114C134.325 41.2209 133.522 40.418 132.532 40.418C131.541 40.418 130.738 41.2209 130.738 42.2114C130.738 43.202 131.541 44.0049 132.532 44.0049Z" fill="#C2B0CF"/>
<path d="M62.9107 118.804C63.9012 118.804 64.7041 118.001 64.7041 117.01C64.7041 116.02 63.9012 115.217 62.9107 115.217C61.9202 115.217 61.1172 116.02 61.1172 117.01C61.1172 118.001 61.9202 118.804 62.9107 118.804Z" fill="white"/>
<path d="M64.7233 96.8109V110.571C64.7233 111.571 63.912 112.382 62.9124 112.382C61.9128 112.382 61.1016 111.571 61.1016 110.571V96.8109C61.1016 95.8113 61.9128 95 62.9124 95C62.9776 95 63.0404 95.0024 63.1032 95.0097C64.0134 95.1038 64.7233 95.8765 64.7233 96.8109Z" fill="white"/>
<path d="M64.7217 96.811V97.5257L63.1016 95.0098C64.0118 95.1039 64.7217 95.8766 64.7217 96.811Z" fill="white"/>
<path d="M127.825 65.6996L121.59 59.4654C121.593 59.5156 120.569 58.2441 119.031 59.4654L112.797 65.6972V70.7604L117.749 75.7125L112.797 80.6646V85.7253L117.749 90.6775L112.797 95.6296V100.789L117.749 105.741L112.797 110.691V115.754L117.749 120.706L112.797 125.659V128.189H115.39L120.311 123.268L125.231 128.189H127.825V125.661L122.873 120.706L127.825 115.752V110.694L122.873 105.741L127.825 100.787V95.632L122.873 90.6775L127.825 85.7229V80.667L122.873 75.7125L127.825 70.7579V65.6996ZM125.231 113.224L120.311 118.145L115.388 113.224L120.311 108.301L125.231 113.224ZM125.28 98.2082L120.311 103.18L115.339 98.2082L120.311 93.2392L125.28 98.2082ZM125.231 83.195L120.311 88.1157L115.388 83.195L120.311 78.2718L125.231 83.195ZM120.311 73.1507L115.388 68.23L120.311 63.3068L125.231 68.2276L120.311 73.1507Z" fill="#DFD6E5"/>
<path d="M136.489 134.756H103.504C101.424 134.756 99.7383 133.07 99.7383 130.99C99.7383 128.91 101.424 127.225 103.504 127.225H136.489C138.569 127.225 140.255 128.911 140.255 130.99C140.255 133.07 138.569 134.756 136.489 134.756Z" fill="#DFD6E5"/>
<path d="M136.489 127.225H129.801C131.881 127.225 133.567 128.911 133.567 130.99C133.567 133.07 131.881 134.756 129.801 134.756H136.489C138.569 134.756 140.254 133.07 140.254 130.99C140.254 128.911 138.568 127.225 136.489 127.225Z" fill="#C2B0CF"/>
</g>
<circle r="2.67368" transform="matrix(1 0 0 -1 33.5213 2.67397)" fill="#C2B0CF"/>
<circle r="2.67368" transform="matrix(1 0 0 -1 160.521 24.0626)" fill="#C2B0CF"/>
<path fill-rule="evenodd" clip-rule="evenodd" d="M173.447 67.2874H168.099V61.9401C168.099 61.4472 167.7 61.0488 167.208 61.0488C166.716 61.0488 166.317 61.4472 166.317 61.9401V67.2874H160.969C160.477 67.2874 160.078 67.6858 160.078 68.1787C160.078 68.6715 160.477 69.0699 160.969 69.0699H166.317V74.4172C166.317 74.9101 166.716 75.3085 167.208 75.3085C167.7 75.3085 168.099 74.9101 168.099 74.4172V69.0699H173.447C173.939 69.0699 174.338 68.6715 174.338 68.1787C174.338 67.6858 173.939 67.2874 173.447 67.2874Z" fill="#DFD6E5"/>
<circle r="2.67368" transform="matrix(1 0 0 -1 2.77525 54.8107)" fill="#DFD6E5"/>
<path fill-rule="evenodd" clip-rule="evenodd" d="M22.384 115.414H17.0367V110.067C17.0367 109.574 16.6374 109.176 16.1454 109.176C15.6535 109.176 15.2542 109.574 15.2542 110.067V115.414H9.90685C9.4149 115.414 9.01562 115.813 9.01562 116.306C9.01562 116.798 9.4149 117.197 9.90685 117.197H15.2542V122.544C15.2542 123.037 15.6535 123.435 16.1454 123.435C16.6374 123.435 17.0367 123.037 17.0367 122.544V117.197H22.384C22.876 117.197 23.2753 116.798 23.2753 116.306C23.2753 115.813 22.876 115.414 22.384 115.414Z" fill="#C2B0CF"/>
<path fill-rule="evenodd" clip-rule="evenodd" d="M80.7584 4.9025H78.0847V2.22882C78.0847 1.98239 77.8851 1.7832 77.6391 1.7832C77.3932 1.7832 77.1935 1.98239 77.1935 2.22882V4.9025H74.5198C74.2739 4.9025 74.0742 5.10169 74.0742 5.34812C74.0742 5.59454 74.2739 5.79373 74.5198 5.79373H77.1935V8.46741C77.1935 8.71384 77.3932 8.91303 77.6391 8.91303C77.8851 8.91303 78.0847 8.71384 78.0847 8.46741V5.79373H80.7584C81.0044 5.79373 81.204 5.59454 81.204 5.34812C81.204 5.10169 81.0044 4.9025 80.7584 4.9025Z" fill="#C2B0CF"/>
<defs>
<clipPath id="clip0_33905_194113">
<rect width="120" height="120" fill="white" transform="translate(29.1016 25)"/>
</clipPath>
</defs>
</svg>
