<svg width="24" height="24" viewBox="0 0 24 24" fill="none" xmlns="http://www.w3.org/2000/svg">
<path d="M19.1699 21.3652H9.20898C7.99728 21.3652 7.01172 20.3797 7.01172 19.168V9.20703C7.01172 7.99533 7.99728 7.00977 9.20898 7.00977H19.1699C20.3816 7.00977 21.3672 7.99533 21.3672 9.20703V19.168C21.3672 20.3797 20.3816 21.3652 19.1699 21.3652ZM9.20898 8.47461C8.80512 8.47461 8.47656 8.80317 8.47656 9.20703V19.168C8.47656 19.5718 8.80512 19.9004 9.20898 19.9004H19.1699C19.5738 19.9004 19.9023 19.5718 19.9023 19.168V9.20703C19.9023 8.80317 19.5738 8.47461 19.1699 8.47461H9.20898ZM5.54688 15.5059H4.81445C4.41059 15.5059 4.08203 15.1773 4.08203 14.7734V4.8125C4.08203 4.40864 4.41059 4.08008 4.81445 4.08008H14.7754C15.1793 4.08008 15.5078 4.40864 15.5078 4.8125V5.5083H16.9727V4.8125C16.9727 3.6008 15.9871 2.61523 14.7754 2.61523H4.81445C3.60275 2.61523 2.61719 3.6008 2.61719 4.8125V14.7734C2.61719 15.9851 3.60275 16.9707 4.81445 16.9707H5.54688V15.5059Z" fill="#4D4354"/>
</svg>
