<svg width="21" height="21" viewBox="0 0 21 21" fill="currentColor" xmlns="http://www.w3.org/2000/svg">
<path fill-rule="evenodd" clip-rule="evenodd" d="M20.5075 10.6893C20.5075 5.26684 16.1117 0.871094 10.6893 0.871094C5.26684 0.871094 0.871094 5.26684 0.871094 10.6893C0.871094 16.1117 5.26684 20.5075 10.6893 20.5075C16.1117 20.5075 20.5075 16.1117 20.5075 10.6893ZM7.28182 14.7528L13.9681 8.07115V12.5614C13.9681 12.8193 14.176 13.0284 14.4326 13.0284C14.6891 13.0284 14.8971 12.8193 14.8971 12.5614V6.94845C14.8971 6.69025 14.6886 6.48106 14.4318 6.48148L14.4237 6.4815L14.4154 6.48151L8.85773 6.4908C8.60119 6.49123 8.39357 6.70064 8.39399 6.95854C8.39442 7.21644 8.60273 7.42516 8.85927 7.42473L13.3046 7.41731L6.62688 14.0905C6.18763 14.5294 6.84258 15.1918 7.28182 14.7528Z"/>
</svg>
