<svg width="80" height="56" viewBox="0 0 80 56" fill="none" xmlns="http://www.w3.org/2000/svg">
<rect width="80" height="56" rx="8" fill="#F3EFF5"/>
<g clip-path="url(#clip0_492_29989)">
<path d="M34.2495 34.5313C32.6486 34.5313 31.2246 33.5062 30.7075 31.9802L30.6725 31.8652C30.5505 31.4611 30.4994 31.1212 30.4994 30.7812V23.9629L28.0734 32.0611C27.7614 33.2522 28.4724 34.4871 29.6654 34.8162L45.1288 38.9574C45.3218 39.0074 45.5148 39.0314 45.7049 39.0314C46.7008 39.0314 47.6109 38.3703 47.866 37.3962L48.7669 34.5313H34.2495Z" fill="#C2B0CF"/>
<path d="M52.0001 19.2808V30.7812C52.0001 32.0212 50.99 33.0313 49.75 33.0313H34.2496C34.1496 33.0313 34.0496 33.0212 33.9595 33.0111C32.9096 32.8813 32.0896 32.0212 32.0096 30.9612C31.9995 30.9012 31.9995 30.8411 31.9995 30.7812V19.2808C31.9995 18.0408 33.0095 17.0308 34.2496 17.0308H49.75C50.99 17.0308 52.0001 18.0408 52.0001 19.2808Z" fill="#C2B0CF"/>
<path d="M38.9995 22.0309C38.9995 23.1354 38.1041 24.031 36.9996 24.031C35.8949 24.031 34.9995 23.1354 34.9995 22.0309C34.9995 20.9264 35.8949 20.0308 36.9996 20.0308C38.1041 20.0308 38.9995 20.9264 38.9995 22.0309Z" fill="#DFD6E5"/>
<path d="M52 27.9708V30.7809C52 32.021 50.99 33.031 49.75 33.031H34.2495C34.1495 33.031 34.0496 33.0209 33.9595 33.0109L44.2598 22.7107C44.9398 22.0307 46.0597 22.0307 46.7398 22.7107L52 27.9708Z" fill="#4D4354"/>
<path d="M46.06 33.0309H34.2497C34.1498 33.0309 34.0498 33.0208 33.9597 33.0108C32.9098 32.8809 32.0898 32.0209 32.0098 30.9608L36.7598 26.2106C37.4399 25.5307 38.5598 25.5307 39.2399 26.2106L46.06 33.0309Z" fill="#DFD6E5"/>
</g>
<defs>
<clipPath id="clip0_492_29989">
<rect width="24" height="24" fill="white" transform="translate(28 16)"/>
</clipPath>
</defs>
</svg>
