<svg width="46" height="46" viewBox="0 0 46 46" fill="none" xmlns="http://www.w3.org/2000/svg">
<path d="M3 23C3 11.9543 11.9543 3 23 3C34.0457 3 43 11.9543 43 23C43 34.0457 34.0457 43 23 43C11.9543 43 3 34.0457 3 23Z" fill="#E34444"/>
<path fill-rule="evenodd" clip-rule="evenodd" d="M29 30C29 30.551 28.552 31 28 31H18C17.448 31 17 30.551 17 30V19H29V30ZM21 15.328C21 15.173 21.214 15 21.5 15H24.5C24.786 15 25 15.173 25 15.328V17H21V15.328ZM32 17H31H27V15.328C27 14.044 25.879 13 24.5 13H21.5C20.121 13 19 14.044 19 15.328V17H15H14C13.45 17 13 17.45 13 18C13 18.55 13.45 19 14 19H15V30C15 31.654 16.346 33 18 33H28C29.654 33 31 31.654 31 30V19H32C32.55 19 33 18.55 33 18C33 17.45 32.55 17 32 17Z" fill="white"/>
<path d="M23 40C13.6112 40 6 32.3888 6 23H0C0 35.7025 10.2975 46 23 46V40ZM40 23C40 32.3888 32.3888 40 23 40V46C35.7025 46 46 35.7025 46 23H40ZM23 6C32.3888 6 40 13.6112 40 23H46C46 10.2975 35.7025 0 23 0V6ZM23 0C10.2975 0 0 10.2975 0 23H6C6 13.6112 13.6112 6 23 6V0Z" fill="#201429" fill-opacity="0.16"/>
</svg>
