<svg width="24" height="24" viewBox="0 0 24 24" fill="none" xmlns="http://www.w3.org/2000/svg">
<path d="M14.2929 4.70711C13.9024 4.31658 13.9024 3.68342 14.2929 3.29289C14.6834 2.90237 15.3166 2.90237 15.7071 3.29289L20.7071 8.29289C21.0976 8.68342 21.0976 9.31658 20.7071 9.70711L15.7071 14.7071C15.3166 15.0976 14.6834 15.0976 14.2929 14.7071C13.9024 14.3166 13.9024 13.6834 14.2929 13.2929L17.5858 10H12C9.69968 10 7.95525 10.6876 6.79767 11.7399C5.64584 12.7871 5 14.2613 5 16V19.9997C5 20.552 4.55229 21 4 21C3.44772 21 3 20.5523 3 20V16C3 13.7387 3.85416 11.7129 5.45233 10.2601C7.04475 8.8124 9.30032 8 12 8H17.5858L14.2929 4.70711Z" fill="#4D4354"/>
</svg>
