<svg width="24" height="25" viewBox="0 0 24 25" fill="#4D4354" xmlns="http://www.w3.org/2000/svg">
<path fill-rule="evenodd" clip-rule="evenodd" d="M8.13425 21.7149C8.81844 22.1389 9.69741 22.3223 10.6866 22.3223C11.0066 22.3223 11.302 22.1508 11.4607 21.873C12.2086 20.5643 13.0788 19.6647 13.9784 18.7348C14.0721 18.638 14.166 18.5409 14.2602 18.4429C15.1318 17.5363 16.0146 16.5637 16.635 15.1896H20.0483C20.5407 15.1896 20.9399 14.7904 20.9399 14.298V5.38208C20.9399 4.88967 20.5407 4.49049 20.0483 4.49049H16.107L9.16195 3.37928C6.45337 2.94591 3.99969 5.03821 3.99969 7.78123V10.5599L3.25846 12.413C2.556 14.1691 3.84762 16.0811 5.7408 16.0811H7.98657C7.71187 16.4979 7.48385 16.9054 7.3044 17.3009C6.92054 18.147 6.73379 18.995 6.8515 19.7798C6.97446 20.5995 7.42028 21.2724 8.13425 21.7149ZM16.9277 6.27367H19.1567V13.4064H16.9277V6.27367ZM15.1446 14.1355C14.6591 15.3798 13.9029 16.2417 12.9747 17.2071C12.882 17.3035 12.7874 17.4011 12.6914 17.5002C11.8939 18.323 10.9942 19.2513 10.1953 20.5177C9.6732 20.4697 9.31032 20.3459 9.07357 20.1992C8.79844 20.0287 8.65915 19.8099 8.61495 19.5152C8.56548 19.1855 8.62949 18.6962 8.92826 18.0377C9.22388 17.3861 9.72555 16.6229 10.466 15.7767C10.6964 15.5134 10.7515 15.1397 10.6069 14.8211C10.4624 14.5026 10.1449 14.298 9.79502 14.298H5.7408C5.1109 14.298 4.67951 13.6617 4.9141 13.0752L5.7191 11.0627C5.76123 10.9574 5.78287 10.845 5.78287 10.7316V7.78123C5.78287 6.13542 7.25508 4.88004 8.88023 5.14006L15.1446 6.14235V14.1355Z"/>
</svg>
