<svg width="20" height="21" viewBox="0 0 20 21" fill="none" xmlns="http://www.w3.org/2000/svg">
<path fill-rule="evenodd" clip-rule="evenodd" d="M6.77854 17.9118C7.3487 18.2651 8.08117 18.418 8.90551 18.418C9.17213 18.418 9.41832 18.2751 9.5506 18.0436C10.1738 16.953 10.899 16.2033 11.6487 15.4284C11.7267 15.3477 11.805 15.2668 11.8835 15.1852C12.6098 14.4297 13.3455 13.6192 13.8625 12.474H16.7069C17.1172 12.474 17.4499 12.1414 17.4499 11.7311V4.30115C17.4499 3.89081 17.1172 3.55816 16.7069 3.55816H13.4225L7.63496 2.63215C5.37781 2.271 3.33308 4.01459 3.33308 6.30044V8.616L2.71538 10.1602C2.13 11.6237 3.20635 13.217 4.784 13.217H6.65548C6.42656 13.5643 6.23654 13.9039 6.087 14.2335C5.76711 14.9386 5.61149 15.6453 5.70958 16.2992C5.81205 16.9824 6.18357 17.5431 6.77854 17.9118ZM14.1064 5.04414H15.9639V10.9881H14.1064V5.04414ZM12.6205 11.5956C12.2159 12.6326 11.5857 13.3508 10.8123 14.1553C10.735 14.2357 10.6562 14.317 10.5761 14.3996C9.91157 15.0853 9.16187 15.8588 8.49604 16.9142C8.061 16.8742 7.7586 16.771 7.56131 16.6487C7.33203 16.5066 7.21596 16.3244 7.17912 16.0788C7.1379 15.804 7.19124 15.3962 7.44021 14.8475C7.68657 14.3045 8.10463 13.6685 8.72167 12.9633C8.91365 12.7439 8.95957 12.4325 8.83911 12.167C8.71864 11.9015 8.45405 11.7311 8.16252 11.7311H4.784C4.25909 11.7311 3.89959 11.2008 4.09508 10.7121L4.76592 9.03503C4.80102 8.94727 4.81906 8.85361 4.81906 8.75909V6.30044C4.81906 4.92893 6.0459 3.88278 7.40019 4.09947L12.6205 4.93471V11.5956Z" fill="#EE6C4D"/>
</svg>
