<svg width="20" height="20" viewBox="0 0 20 20" fill="none" xmlns="http://www.w3.org/2000/svg">
<path fill-rule="evenodd" clip-rule="evenodd" d="M6.77952 17.4108C7.34967 17.7642 8.08215 17.917 8.90648 17.917C9.17311 17.917 9.4193 17.7741 9.55158 17.5426C10.1748 16.452 10.9 15.7024 11.6497 14.9274C11.7277 14.8467 11.806 14.7658 11.8845 14.6842C12.6108 13.9287 13.3465 13.1182 13.8635 11.9731H16.7079C17.1182 11.9731 17.4509 11.6404 17.4509 11.2301V3.80017C17.4509 3.38983 17.1182 3.05718 16.7079 3.05718H13.4235L7.63593 2.13117C5.37879 1.77003 3.33405 3.51361 3.33405 5.79947V8.11503L2.71636 9.65927C2.13098 11.1227 3.20732 12.7161 4.78497 12.7161H6.65645C6.42754 13.0633 6.23752 13.4029 6.08797 13.7325C5.76809 14.4376 5.61246 15.1443 5.71056 15.7982C5.81303 16.4814 6.18455 17.0421 6.77952 17.4108ZM14.1074 4.54316H15.9649V10.4871H14.1074V4.54316ZM12.6214 11.0947C12.2169 12.1316 11.5867 12.8498 10.8132 13.6543C10.736 13.7347 10.6572 13.816 10.5771 13.8986C9.91255 14.5843 9.16284 15.3578 8.49702 16.4132C8.06197 16.3732 7.75958 16.27 7.56229 16.1477C7.33301 16.0056 7.21693 15.8234 7.1801 15.5778C7.13888 15.303 7.19222 14.8952 7.44119 14.3465C7.68754 13.8035 8.1056 13.1675 8.72265 12.4623C8.91463 12.2429 8.96055 11.9315 8.84008 11.6661C8.71962 11.4006 8.45502 11.2301 8.16349 11.2301H4.78497C4.26006 11.2301 3.90057 10.6999 4.09606 10.2111L4.76689 8.53405C4.802 8.44629 4.82003 8.35264 4.82003 8.25811V5.79947C4.82003 4.42795 6.04688 3.3818 7.40116 3.59849L12.6214 4.43373V11.0947Z" fill="#4D4354"/>
</svg>
