<svg width="24" height="25" viewBox="0 0 24 25" fill="none" xmlns="http://www.w3.org/2000/svg">
<path fill-rule="evenodd" clip-rule="evenodd" d="M12.25 3.28027C12.6642 3.28027 13 3.61606 13 4.03027V16.0713C13 16.4855 12.6642 16.8213 12.25 16.8213C11.8358 16.8213 11.5 16.4855 11.5 16.0713V4.03027C11.5 3.61606 11.8358 3.28027 12.25 3.28027Z" fill="#EE6C4D"/>
<path fill-rule="evenodd" clip-rule="evenodd" d="M15.6953 12.6121C15.9887 12.9044 15.9897 13.3793 15.6974 13.6728L12.7814 16.6008C12.6407 16.7421 12.4495 16.8216 12.25 16.8216C12.0506 16.8216 11.8593 16.7421 11.7186 16.6008L8.8026 13.6728C8.51031 13.3793 8.51128 12.9044 8.80478 12.6121C9.09827 12.3198 9.57314 12.3208 9.86543 12.6143L12.25 15.0087L14.6346 12.6143C14.9269 12.3208 15.4018 12.3198 15.6953 12.6121Z" fill="#EE6C4D"/>
<path fill-rule="evenodd" clip-rule="evenodd" d="M20.75 12.4485C20.7501 12.0631 20.6743 11.6815 20.5269 11.3254C20.3795 10.9694 20.1634 10.6458 19.8909 10.3733C19.6185 10.1008 19.295 9.88458 18.939 9.73709C18.583 9.58959 18.2014 9.51367 17.816 9.51367H16.883C16.4688 9.51367 16.133 9.17789 16.133 8.76367C16.133 8.34946 16.4688 8.01367 16.883 8.01367H17.816C18.3984 8.01367 18.9751 8.1284 19.5131 8.35131C20.0511 8.57421 20.54 8.90092 20.9517 9.31279C21.3635 9.72465 21.6901 10.2136 21.9128 10.7517C22.1356 11.2897 22.2501 11.8664 22.25 12.4487C22.25 12.4487 22.25 12.4486 22.25 12.4487V17.3327C22.25 18.5063 21.7838 19.6318 20.9539 20.4616C20.1241 21.2915 18.9986 21.7577 17.825 21.7577H6.685C5.50877 21.7577 4.3807 21.2904 3.54898 20.4587C2.71726 19.627 2.25 18.4989 2.25 17.3227V12.4377C2.25032 11.2643 2.71667 10.1389 3.54648 9.3093C4.37629 8.47971 5.50163 8.01367 6.675 8.01367H7.617C8.03121 8.01367 8.367 8.34946 8.367 8.76367C8.367 9.17789 8.03121 9.51367 7.617 9.51367H6.675C5.89938 9.51367 5.15552 9.82173 4.60699 10.3701C4.05852 10.9184 3.75027 11.6621 3.75 12.4377C3.75 12.4377 3.75 12.4376 3.75 12.4377V17.3227C3.75 18.1011 4.05922 18.8476 4.60964 19.398C5.16006 19.9484 5.90659 20.2577 6.685 20.2577H17.825C18.6008 20.2577 19.3447 19.9495 19.8933 19.401C20.4418 18.8524 20.75 18.1084 20.75 17.3327V12.4485Z" fill="#EE6C4D"/>
</svg>
