<svg width="32" height="32" viewBox="0 0 32 32" fill="none" xmlns="http://www.w3.org/2000/svg">
<path fill-rule="evenodd" clip-rule="evenodd" d="M7.61981 4.00016C6.96172 4.00016 6.40205 4.48031 6.30199 5.13075L4.21951 18.6668H10.6654C11.3134 18.6668 11.867 19.1326 11.9786 19.7698L11.98 19.7766C11.9825 19.7886 11.9878 19.8132 11.9966 19.8487C12.0144 19.9198 12.046 20.0323 12.0965 20.1723C12.1988 20.4554 12.3714 20.8304 12.6487 21.2002C13.1678 21.8923 14.1187 22.6668 15.9987 22.6668C17.8787 22.6668 18.8296 21.8923 19.3487 21.2002C19.626 20.8304 19.7986 20.4554 19.9009 20.1723C19.9514 20.0323 19.983 19.9198 20.0007 19.8487C20.0096 19.8132 20.0149 19.7886 20.0174 19.7766L20.0187 19.7698C20.1304 19.1326 20.684 18.6668 21.332 18.6668H27.7779L25.6954 5.13075C25.5953 4.48031 25.0357 4.00016 24.3776 4.00016H21.4532C20.7169 4.00016 20.1199 3.40321 20.1199 2.66683C20.1199 1.93045 20.7169 1.3335 21.4532 1.3335H24.3776C26.3519 1.3335 28.0309 2.77394 28.3311 4.72527L30.6654 19.8982V26.6668C30.6654 28.876 28.8745 30.6668 26.6654 30.6668H5.33203C3.12289 30.6668 1.33203 28.876 1.33203 26.6668V19.8982L3.66633 4.72527C3.96653 2.77394 5.64553 1.3335 7.61981 1.3335H10.5442C11.2805 1.3335 11.8775 1.93045 11.8775 2.66683C11.8775 3.40321 11.2805 4.00016 10.5442 4.00016H7.61981ZM27.9987 21.3335H22.3107C22.1361 21.7611 21.873 22.2788 21.482 22.8002C20.5011 24.108 18.7854 25.3335 15.9987 25.3335C13.212 25.3335 11.4963 24.108 10.5154 22.8002C10.1244 22.2788 9.86132 21.7611 9.68665 21.3335H3.9987V26.6668C3.9987 27.4032 4.59565 28.0002 5.33203 28.0002H26.6654C27.4017 28.0002 27.9987 27.4032 27.9987 26.6668V21.3335Z" fill="#1E1E1E"/>
<path d="M9.72255 9.72402C10.2433 9.20332 11.0875 9.20332 11.6082 9.72402L14.6654 12.7812V2.66683C14.6654 1.93045 15.2623 1.3335 15.9987 1.3335C16.7351 1.3335 17.332 1.93045 17.332 2.66683V12.7812L20.3892 9.72402C20.9099 9.20332 21.7541 9.20332 22.2748 9.72402C22.7955 10.2447 22.7955 11.0889 22.2748 11.6096L16.9415 16.943C16.4208 17.4637 15.5766 17.4637 15.0559 16.943L9.72255 11.6096C9.20186 11.0889 9.20186 10.2447 9.72255 9.72402Z" fill="#1E1E1E"/>
</svg>
