<svg width="77" height="78" viewBox="0 0 77 78" fill="none" xmlns="http://www.w3.org/2000/svg">
<g opacity="0.2">
<path fill-rule="evenodd" clip-rule="evenodd" d="M69 4.76562C69 6.97476 70.7909 8.76562 73 8.76562C75.2091 8.76562 77 6.97476 77 4.76562C77 2.55649 75.2091 0.765625 73 0.765625C70.7909 0.765625 69 2.55649 69 4.76562Z" fill="#4D4354"/>
<path fill-rule="evenodd" clip-rule="evenodd" d="M69 27.7656C69 29.9748 70.7909 31.7656 73 31.7656C75.2091 31.7656 77 29.9748 77 27.7656C77 25.5565 75.2091 23.7656 73 23.7656C70.7909 23.7656 69 25.5565 69 27.7656Z" fill="#4D4354"/>
<path fill-rule="evenodd" clip-rule="evenodd" d="M69 50.7656C69 52.9748 70.7909 54.7656 73 54.7656C75.2091 54.7656 77 52.9748 77 50.7656C77 48.5565 75.2091 46.7656 73 46.7656C70.7909 46.7656 69 48.5565 69 50.7656Z" fill="#4D4354"/>
<path fill-rule="evenodd" clip-rule="evenodd" d="M69 73.7656C69 75.9748 70.7909 77.7656 73 77.7656C75.2091 77.7656 77 75.9748 77 73.7656C77 71.5565 75.2091 69.7656 73 69.7656C70.7909 69.7656 69 71.5565 69 73.7656Z" fill="#4D4354"/>
<path fill-rule="evenodd" clip-rule="evenodd" d="M46 4.76562C46 6.97476 47.7909 8.76562 50 8.76562C52.2091 8.76562 54 6.97476 54 4.76562C54 2.55649 52.2091 0.765625 50 0.765625C47.7909 0.765625 46 2.55649 46 4.76562Z" fill="#4D4354"/>
<path fill-rule="evenodd" clip-rule="evenodd" d="M46 27.7656C46 29.9748 47.7909 31.7656 50 31.7656C52.2091 31.7656 54 29.9748 54 27.7656C54 25.5565 52.2091 23.7656 50 23.7656C47.7909 23.7656 46 25.5565 46 27.7656Z" fill="#4D4354"/>
<path fill-rule="evenodd" clip-rule="evenodd" d="M46 50.7656C46 52.9748 47.7909 54.7656 50 54.7656C52.2091 54.7656 54 52.9748 54 50.7656C54 48.5565 52.2091 46.7656 50 46.7656C47.7909 46.7656 46 48.5565 46 50.7656Z" fill="#4D4354"/>
<path fill-rule="evenodd" clip-rule="evenodd" d="M46 73.7656C46 75.9748 47.7909 77.7656 50 77.7656C52.2091 77.7656 54 75.9748 54 73.7656C54 71.5565 52.2091 69.7656 50 69.7656C47.7909 69.7656 46 71.5565 46 73.7656Z" fill="#4D4354"/>
<path fill-rule="evenodd" clip-rule="evenodd" d="M23 4.76562C23 6.97476 24.7909 8.76562 27 8.76562C29.2091 8.76562 31 6.97476 31 4.76562C31 2.55649 29.2091 0.765625 27 0.765625C24.7909 0.765625 23 2.55649 23 4.76562Z" fill="#4D4354"/>
<path fill-rule="evenodd" clip-rule="evenodd" d="M23 27.7656C23 29.9748 24.7909 31.7656 27 31.7656C29.2091 31.7656 31 29.9748 31 27.7656C31 25.5565 29.2091 23.7656 27 23.7656C24.7909 23.7656 23 25.5565 23 27.7656Z" fill="#4D4354"/>
<path fill-rule="evenodd" clip-rule="evenodd" d="M23 50.7656C23 52.9748 24.7909 54.7656 27 54.7656C29.2091 54.7656 31 52.9748 31 50.7656C31 48.5565 29.2091 46.7656 27 46.7656C24.7909 46.7656 23 48.5565 23 50.7656Z" fill="#4D4354"/>
<path fill-rule="evenodd" clip-rule="evenodd" d="M23 73.7656C23 75.9748 24.7909 77.7656 27 77.7656C29.2091 77.7656 31 75.9748 31 73.7656C31 71.5565 29.2091 69.7656 27 69.7656C24.7909 69.7656 23 71.5565 23 73.7656Z" fill="#4D4354"/>
<path fill-rule="evenodd" clip-rule="evenodd" d="M-1.74846e-07 4.76562C-2.7141e-07 6.97476 1.79086 8.76562 4 8.76562C6.20914 8.76562 8 6.97476 8 4.76562C8 2.55649 6.20914 0.765625 4 0.765625C1.79086 0.765625 -7.8281e-08 2.55649 -1.74846e-07 4.76562Z" fill="#4D4354"/>
<path fill-rule="evenodd" clip-rule="evenodd" d="M-1.74846e-07 27.7656C-2.7141e-07 29.9748 1.79086 31.7656 4 31.7656C6.20914 31.7656 8 29.9748 8 27.7656C8 25.5565 6.20914 23.7656 4 23.7656C1.79086 23.7656 -7.8281e-08 25.5565 -1.74846e-07 27.7656Z" fill="#4D4354"/>
<path fill-rule="evenodd" clip-rule="evenodd" d="M-1.74846e-07 50.7656C-2.7141e-07 52.9748 1.79086 54.7656 4 54.7656C6.20914 54.7656 8 52.9748 8 50.7656C8 48.5565 6.20914 46.7656 4 46.7656C1.79086 46.7656 -7.8281e-08 48.5565 -1.74846e-07 50.7656Z" fill="#4D4354"/>
<path fill-rule="evenodd" clip-rule="evenodd" d="M-1.74846e-07 73.7656C-2.7141e-07 75.9748 1.79086 77.7656 4 77.7656C6.20914 77.7656 8 75.9748 8 73.7656C8 71.5565 6.20914 69.7656 4 69.7656C1.79086 69.7656 -7.8281e-08 71.5565 -1.74846e-07 73.7656Z" fill="#4D4354"/>
</g>
</svg>
