<svg width="20" height="20" viewBox="0 0 20 20" fill="none" xmlns="http://www.w3.org/2000/svg">
<path fill-rule="evenodd" clip-rule="evenodd" d="M15.8334 14.9997H4.16675C3.70758 14.9997 3.33341 14.6263 3.33341 14.1663V6.04134L9.50008 10.6663C9.64841 10.778 9.82425 10.833 10.0001 10.833C10.1759 10.833 10.3517 10.778 10.5001 10.6663L16.6667 6.04134V14.1663C16.6667 14.6263 16.2926 14.9997 15.8334 14.9997V14.9997ZM15.2776 4.99967L10.0001 8.95801L4.72258 4.99967H15.2776ZM15.8334 3.33301H4.16675C2.78841 3.33301 1.66675 4.45467 1.66675 5.83301V14.1663C1.66675 15.5447 2.78841 16.6663 4.16675 16.6663H15.8334C17.2117 16.6663 18.3334 15.5447 18.3334 14.1663V5.83301C18.3334 4.45467 17.2117 3.33301 15.8334 3.33301V3.33301Z" fill="#4D4354"/>
</svg>
