<svg width="28" height="28" viewBox="0 0 28 28" fill="none" xmlns="http://www.w3.org/2000/svg">
<path fill-rule="evenodd" clip-rule="evenodd" d="M22.0711 20.8572H6.07115C5.44144 20.8572 4.92829 20.3452 4.92829 19.7143V8.57146L13.3854 14.9143C13.5889 15.0675 13.83 15.1429 14.0711 15.1429C14.3123 15.1429 14.5534 15.0675 14.7569 14.9143L23.214 8.57146V19.7143C23.214 20.3452 22.7009 20.8572 22.0711 20.8572V20.8572ZM21.3089 7.14289L14.0711 12.5715L6.83344 7.14289H21.3089ZM22.0712 4.85718H6.07115C4.18086 4.85718 2.64258 6.39546 2.64258 8.28575V19.7143C2.64258 21.6046 4.18086 23.1429 6.07115 23.1429H22.0712C23.9614 23.1429 25.4997 21.6046 25.4997 19.7143V8.28575C25.4997 6.39546 23.9614 4.85718 22.0712 4.85718V4.85718Z" fill="white"/>
</svg>
