<svg width="48" height="48" viewBox="0 0 48 48" fill="none" xmlns="http://www.w3.org/2000/svg">
<path d="M48 23.9999C47.9993 19.4135 46.6844 14.9234 44.2111 11.0611C41.7378 7.19879 38.2096 4.12602 34.0442 2.20658C29.8789 0.287146 25.2507 -0.398587 20.7077 0.230567C16.1647 0.85972 11.8971 2.77741 8.41011 5.75662C4.92312 8.73582 2.36279 12.6518 1.03221 17.0409C-0.298371 21.43 -0.343472 26.1084 0.902244 30.5224C2.14796 34.9363 4.63233 38.9009 8.06123 41.9468C11.4901 44.9927 15.72 46.9923 20.25 47.7089V30.9379H14.156V23.9999H20.25V18.7119C20.25 12.6979 23.831 9.3749 29.316 9.3749C31.1157 9.40005 32.9112 9.5568 34.688 9.8439V15.7499H31.659C28.678 15.7499 27.75 17.6019 27.75 19.4999V23.9999H34.406L33.342 30.9379H27.75V47.7089C33.3957 46.8158 38.5373 43.937 42.2495 39.5907C45.9618 35.2444 48.0009 29.7158 48 23.9999Z" fill="#1877F2"/>
<path d="M33.3423 30.938L34.4062 24.001H27.7502V19.501C27.7502 17.601 28.6783 15.751 31.6593 15.751H34.6873V9.844C32.9104 9.5569 31.115 9.40015 29.3153 9.375C23.8313 9.375 20.2502 12.698 20.2502 18.712V24H14.1562V30.938H20.2502V47.709C22.7352 48.0965 25.2653 48.0965 27.7502 47.709V30.938H33.3423Z" fill="white"/>
</svg>
