<svg width="73" height="63" viewBox="0 0 73 63" fill="none" xmlns="http://www.w3.org/2000/svg">
<path fill-rule="evenodd" clip-rule="evenodd" d="M35.303 33.7621C37.4199 25.9068 45.4454 21.2198 53.2286 23.2934C56.9662 24.2891 60.1468 26.7426 62.0709 30.1141C63.995 33.4856 64.5048 37.4989 63.4882 41.2712C61.3713 49.1265 53.3457 53.8135 45.5626 51.7399C37.7795 49.6663 33.1861 41.6173 35.303 33.7621ZM60.1943 52.6667L63.4799 57.168L63.5527 57.1874C64.1709 58.2707 63.7965 59.6602 62.7164 60.291C61.6362 60.9218 60.2595 60.555 59.6413 59.4717L57.2324 54.5576C56.9923 54.1387 56.9285 53.6395 57.0549 53.1704C57.1814 52.7012 57.4877 52.3006 57.9062 52.0571C58.711 51.5965 59.729 51.8677 60.1943 52.6667Z" fill="url(#paint0_linear_33722_153920)"/>
<g filter="url(#filter0_f_33722_153920)">
<path d="M51.4824 29.7706C47.2405 28.6396 42.8678 31.1912 41.7157 35.4698C40.5636 39.7484 43.0684 44.1339 47.3103 45.2649C51.5521 46.396 55.9248 43.8443 57.0769 39.5657C57.6302 37.511 57.3516 35.3247 56.3024 33.4878C55.2532 31.6509 53.5194 30.3137 51.4824 29.7706Z" fill="#0062FF" fill-opacity="0.5"/>
</g>
<g filter="url(#filter1_b_33722_153920)">
<g filter="url(#filter2_b_33722_153920)">
<mask id="path-3-outside-1_33722_153920" maskUnits="userSpaceOnUse" x="-1.48215" y="-0.731057" width="64.9912" height="64.832" fill="black">
<rect fill="white" x="-1.48215" y="-0.731057" width="64.9912" height="64.832"/>
<path fill-rule="evenodd" clip-rule="evenodd" d="M54.7366 21.7134C51.579 9.99623 39.6079 3.005 27.9984 6.09802C22.4233 7.58333 17.6789 11.243 14.8089 16.272C11.939 21.301 11.1785 27.2874 12.6949 32.9141C15.8525 44.6313 27.8236 51.6225 39.4331 48.5295C51.0426 45.4365 57.8942 33.4305 54.7366 21.7134ZM17.609 49.9132L12.7082 56.6274L12.5995 56.6564C11.6774 58.2722 12.236 60.3449 13.8471 61.2858C15.4582 62.2267 17.5118 61.6796 18.4339 60.0637L22.0271 52.7338C22.3852 52.1089 22.4804 51.3643 22.2918 50.6645C22.1032 49.9646 21.6463 49.3671 21.022 49.004C19.8216 48.3169 18.3031 48.7214 17.609 49.9132Z"/>
</mask>
<path fill-rule="evenodd" clip-rule="evenodd" d="M54.7366 21.7134C51.579 9.99623 39.6079 3.005 27.9984 6.09802C22.4233 7.58333 17.6789 11.243 14.8089 16.272C11.939 21.301 11.1785 27.2874 12.6949 32.9141C15.8525 44.6313 27.8236 51.6225 39.4331 48.5295C51.0426 45.4365 57.8942 33.4305 54.7366 21.7134ZM17.609 49.9132L12.7082 56.6274L12.5995 56.6564C11.6774 58.2722 12.236 60.3449 13.8471 61.2858C15.4582 62.2267 17.5118 61.6796 18.4339 60.0637L22.0271 52.7338C22.3852 52.1089 22.4804 51.3643 22.2918 50.6645C22.1032 49.9646 21.6463 49.3671 21.022 49.004C19.8216 48.3169 18.3031 48.7214 17.609 49.9132Z" fill="#3EA0FE" fill-opacity="0.35"/>
<path d="M27.9984 6.09802L27.7386 5.13236L27.9984 6.09802ZM54.7366 21.7134L55.7028 21.4555L54.7366 21.7134ZM14.8089 16.272L13.9394 15.7758L14.8089 16.272ZM12.6949 32.9141L11.7287 33.172L12.6949 32.9141ZM39.4331 48.5295L39.1733 47.5638L39.4331 48.5295ZM12.7082 56.6274L13.5172 57.2173C13.3827 57.4017 13.1888 57.5343 12.968 57.5931L12.7082 56.6274ZM17.609 49.9132L18.4742 50.4171C18.457 50.4467 18.4382 50.4754 18.418 50.5031L17.609 49.9132ZM12.5995 56.6564L11.73 56.1601C11.8621 55.9285 12.0817 55.7595 12.3397 55.6907L12.5995 56.6564ZM18.4339 60.0637L19.3328 60.5047C19.3236 60.5235 19.3138 60.5419 19.3035 60.56L18.4339 60.0637ZM22.0271 52.7338L21.1283 52.2928C21.1377 52.2735 21.1478 52.2546 21.1584 52.236L22.0271 52.7338ZM21.022 49.004L21.5181 48.1371L21.5242 48.1406L21.022 49.004ZM27.7386 5.13236C39.8907 1.89479 52.404 9.2144 55.7028 21.4555L53.7704 21.9712C50.754 10.7781 39.3251 4.11522 28.2582 7.06368L27.7386 5.13236ZM13.9394 15.7758C16.9408 10.5164 21.9041 6.68679 27.7386 5.13236L28.2582 7.06368C22.9425 8.47988 18.417 11.9697 15.6785 16.7683L13.9394 15.7758ZM11.7287 33.172C10.1442 27.2922 10.9382 21.0347 13.9394 15.7758L15.6785 16.7683C12.9398 21.5674 12.2129 27.2825 13.6611 32.6563L11.7287 33.172ZM39.6929 49.4951C27.5408 52.7327 15.0275 45.4131 11.7287 33.172L13.6611 32.6563C16.6775 43.8494 28.1064 50.5123 39.1733 47.5638L39.6929 49.4951ZM55.7028 21.4555C59.0017 33.6969 51.8453 46.2575 39.6929 49.4951L39.1733 47.5638C50.2399 44.6155 56.7868 33.164 53.7704 21.9712L55.7028 21.4555ZM11.8992 56.0376L16.8001 49.3234L18.418 50.5031L13.5172 57.2173L11.8992 56.0376ZM12.3397 55.6907L12.4484 55.6618L12.968 57.5931L12.8593 57.6221L12.3397 55.6907ZM13.3434 62.1482C11.2585 60.9306 10.5362 58.252 11.73 56.1601L13.4691 57.1527C12.8186 58.2925 13.2135 59.7591 14.3508 60.4233L13.3434 62.1482ZM19.3035 60.56C18.1058 62.6586 15.435 63.3698 13.3434 62.1482L14.3508 60.4233C15.4814 61.0836 16.9178 60.7005 17.5644 59.5675L19.3035 60.56ZM22.926 53.1748L19.3328 60.5047L17.5351 59.6227L21.1283 52.2928L22.926 53.1748ZM23.258 50.4066C23.5149 51.36 23.3858 52.3764 22.8959 53.2316L21.1584 52.236C21.3845 51.8414 21.4459 51.3686 21.3256 50.9223L23.258 50.4066ZM21.5242 48.1406C22.3782 48.6374 23.0011 49.4532 23.258 50.4066L21.3256 50.9223C21.2054 50.476 20.9144 50.0968 20.5198 49.8673L21.5242 48.1406ZM16.7438 49.4094C17.7142 47.7431 19.8407 47.177 21.5181 48.1371L20.5259 49.8708C19.8025 49.4568 18.892 49.6997 18.4742 50.4171L16.7438 49.4094Z" fill="url(#paint1_linear_33722_153920)" mask="url(#path-3-outside-1_33722_153920)"/>
</g>
</g>
<defs>
<filter id="filter0_f_33722_153920" x="26.4355" y="14.5039" width="45.9199" height="46.0273" filterUnits="userSpaceOnUse" color-interpolation-filters="sRGB">
<feFlood flood-opacity="0" result="BackgroundImageFix"/>
<feBlend mode="normal" in="SourceGraphic" in2="BackgroundImageFix" result="shape"/>
<feGaussianBlur stdDeviation="7.5" result="effect1_foregroundBlur_33722_153920"/>
</filter>
<filter id="filter1_b_33722_153920" x="-13.0693" y="-19.6328" width="93.5762" height="106.379" filterUnits="userSpaceOnUse" color-interpolation-filters="sRGB">
<feFlood flood-opacity="0" result="BackgroundImageFix"/>
<feGaussianBlur in="BackgroundImage" stdDeviation="12"/>
<feComposite in2="SourceAlpha" operator="in" result="effect1_backgroundBlur_33722_153920"/>
<feBlend mode="normal" in="SourceGraphic" in2="effect1_backgroundBlur_33722_153920" result="shape"/>
</filter>
<filter id="filter2_b_33722_153920" x="-13.0693" y="-19.6328" width="93.5762" height="106.379" filterUnits="userSpaceOnUse" color-interpolation-filters="sRGB">
<feFlood flood-opacity="0" result="BackgroundImageFix"/>
<feGaussianBlur in="BackgroundImage" stdDeviation="12"/>
<feComposite in2="SourceAlpha" operator="in" result="effect1_backgroundBlur_33722_153920"/>
<feBlend mode="normal" in="SourceGraphic" in2="effect1_backgroundBlur_33722_153920" result="shape"/>
</filter>
<linearGradient id="paint0_linear_33722_153920" x1="72.147" y1="28.3377" x2="28.2039" y2="48.0094" gradientUnits="userSpaceOnUse">
<stop stop-color="#39AFFD"/>
<stop offset="1" stop-color="#477FFF"/>
</linearGradient>
<linearGradient id="paint1_linear_33722_153920" x1="42.7506" y1="8.27414" x2="12.4453" y2="59.431" gradientUnits="userSpaceOnUse">
<stop stop-color="white" stop-opacity="0.25"/>
<stop offset="1" stop-color="white" stop-opacity="0"/>
</linearGradient>
</defs>
</svg>
