<svg width="77" height="77" viewBox="0 0 77 77" fill="none" xmlns="http://www.w3.org/2000/svg">
<g filter="url(#filter0_b_33722_153926)">
<path d="M62.8345 38.6672C62.8345 52.2909 51.7909 63.3345 38.1672 63.3345C24.5435 63.3345 13.5 52.2909 13.5 38.6672C13.5 25.046 24.5435 14 38.1672 14C51.7909 14 62.8345 25.046 62.8345 38.6672Z" fill="url(#paint0_linear_33722_153926)"/>
</g>
<g filter="url(#filter1_f_33722_153926)">
<path d="M38.2308 22.6133C29.4714 22.6133 22.3623 29.724 22.3623 38.4818C22.3623 47.2428 29.4714 54.3503 38.2308 54.3503C47.0061 54.3503 54.0993 47.2428 54.0993 38.4818C54.0993 29.724 47.0061 22.6133 38.2308 22.6133Z" fill="#FF8C22"/>
</g>
<g filter="url(#filter2_b_33722_153926)">
<path d="M72.5005 48.3313C72.5005 61.955 61.457 72.9985 47.8333 72.9985C34.2095 72.9985 23.166 61.955 23.166 48.3313C23.166 34.7101 34.2095 23.6641 47.8333 23.6641C61.457 23.6641 72.5005 34.7101 72.5005 48.3313Z" fill="#FFE895" fill-opacity="0.4"/>
<path d="M47.8333 73.4985C61.7331 73.4985 73.0005 62.2312 73.0005 48.3313C73.0005 34.4339 61.7331 23.1641 47.8333 23.1641C33.9334 23.1641 22.666 34.4339 22.666 48.3313C22.666 62.2312 33.9334 73.4985 47.8333 73.4985Z" stroke="url(#paint1_linear_33722_153926)" stroke-linecap="round" stroke-linejoin="round"/>
</g>
<g filter="url(#filter3_bd_33722_153926)">
<mask id="path-5-inside-1_33722_153926" fill="white">
<path d="M57.3551 39.5998L53.359 52.2294C53.211 52.7474 52.7916 53.1667 52.2736 53.3172L39.6933 57.2615C38.8546 57.5353 38.0406 56.7188 38.312 55.8801L42.2587 43.2258C42.4067 42.7078 42.8261 42.3132 43.3441 42.1405L55.9737 38.1937C56.837 37.9224 57.6264 38.7364 57.3551 39.5998Z"/>
</mask>
<path d="M57.3551 39.5998L53.359 52.2294C53.211 52.7474 52.7916 53.1667 52.2736 53.3172L39.6933 57.2615C38.8546 57.5353 38.0406 56.7188 38.312 55.8801L42.2587 43.2258C42.4067 42.7078 42.8261 42.3132 43.3441 42.1405L55.9737 38.1937C56.837 37.9224 57.6264 38.7364 57.3551 39.5998Z" fill="url(#paint2_linear_33722_153926)"/>
<path d="M53.359 52.2294L52.9775 52.1087L52.9744 52.1195L53.359 52.2294ZM52.2736 53.3172L52.162 52.933L52.1539 52.9355L52.2736 53.3172ZM39.6933 57.2615L39.5736 56.8798L39.5692 56.8813L39.6933 57.2615ZM38.312 55.8801L38.6926 56.0033L38.6938 55.9992L38.312 55.8801ZM42.2587 43.2258L42.6407 43.345L42.6433 43.3357L42.2587 43.2258ZM43.3441 42.1405L43.2247 41.7586L43.2176 41.761L43.3441 42.1405ZM55.9737 38.1937L56.093 38.5755L56.0936 38.5753L55.9737 38.1937ZM56.9737 39.4791L52.9776 52.1087L53.7403 52.3501L57.7364 39.7204L56.9737 39.4791ZM52.9744 52.1195C52.8644 52.5044 52.5487 52.8208 52.162 52.9331L52.3852 53.7013C53.0345 53.5127 53.5575 52.9904 53.7436 52.3393L52.9744 52.1195ZM52.1539 52.9355L39.5737 56.8798L39.813 57.6432L52.3933 53.6989L52.1539 52.9355ZM39.5692 56.8813C39.0433 57.0529 38.5211 56.5331 38.6925 56.0033L37.9314 55.757C37.5601 56.9046 38.6659 58.0177 39.8175 57.6418L39.5692 56.8813ZM38.6938 55.9992L42.6406 43.3449L41.8769 43.1068L37.9301 55.761L38.6938 55.9992ZM42.6433 43.3357C42.7502 42.9616 43.0602 42.6568 43.4706 42.52L43.2176 41.761C42.5919 41.9696 42.0632 42.4541 41.8741 43.116L42.6433 43.3357ZM43.4634 42.5223L56.093 38.5755L55.8544 37.8119L43.2248 41.7587L43.4634 42.5223ZM56.0936 38.5753C56.6362 38.4048 57.1518 38.9125 56.9735 39.4798L57.7367 39.7197C58.101 38.5603 57.0379 37.44 55.8538 37.8121L56.0936 38.5753Z" fill="url(#paint3_linear_33722_153926)" mask="url(#path-5-inside-1_33722_153926)"/>
</g>
<defs>
<filter id="filter0_b_33722_153926" x="0.5" y="1" width="75.334" height="75.3359" filterUnits="userSpaceOnUse" color-interpolation-filters="sRGB">
<feFlood flood-opacity="0" result="BackgroundImageFix"/>
<feGaussianBlur in="BackgroundImage" stdDeviation="6.5"/>
<feComposite in2="SourceAlpha" operator="in" result="effect1_backgroundBlur_33722_153926"/>
<feBlend mode="normal" in="SourceGraphic" in2="effect1_backgroundBlur_33722_153926" result="shape"/>
</filter>
<filter id="filter1_f_33722_153926" x="0.362305" y="0.613281" width="75.7373" height="75.7383" filterUnits="userSpaceOnUse" color-interpolation-filters="sRGB">
<feFlood flood-opacity="0" result="BackgroundImageFix"/>
<feBlend mode="normal" in="SourceGraphic" in2="BackgroundImageFix" result="shape"/>
<feGaussianBlur stdDeviation="11" result="effect1_foregroundBlur_33722_153926"/>
</filter>
<filter id="filter2_b_33722_153926" x="7.16602" y="7.66406" width="81.334" height="81.3359" filterUnits="userSpaceOnUse" color-interpolation-filters="sRGB">
<feFlood flood-opacity="0" result="BackgroundImageFix"/>
<feGaussianBlur in="BackgroundImage" stdDeviation="7.5"/>
<feComposite in2="SourceAlpha" operator="in" result="effect1_backgroundBlur_33722_153926"/>
<feBlend mode="normal" in="SourceGraphic" in2="effect1_backgroundBlur_33722_153926" result="shape"/>
</filter>
<filter id="filter3_bd_33722_153926" x="23.2588" y="23.1406" width="49.1504" height="49.1758" filterUnits="userSpaceOnUse" color-interpolation-filters="sRGB">
<feFlood flood-opacity="0" result="BackgroundImageFix"/>
<feGaussianBlur in="BackgroundImage" stdDeviation="7.5"/>
<feComposite in2="SourceAlpha" operator="in" result="effect1_backgroundBlur_33722_153926"/>
<feColorMatrix in="SourceAlpha" type="matrix" values="0 0 0 0 0 0 0 0 0 0 0 0 0 0 0 0 0 0 127 0" result="hardAlpha"/>
<feOffset dx="5" dy="5"/>
<feGaussianBlur stdDeviation="5"/>
<feColorMatrix type="matrix" values="0 0 0 0 1 0 0 0 0 0.785333 0 0 0 0 0.368627 0 0 0 0.3 0"/>
<feBlend mode="normal" in2="effect1_backgroundBlur_33722_153926" result="effect2_dropShadow_33722_153926"/>
<feBlend mode="normal" in="SourceGraphic" in2="effect2_dropShadow_33722_153926" result="shape"/>
</filter>
<linearGradient id="paint0_linear_33722_153926" x1="41.7992" y1="41.9709" x2="-1.55047" y2="63.0485" gradientUnits="userSpaceOnUse">
<stop stop-color="#FFB18F"/>
<stop offset="1" stop-color="#F28B2C"/>
</linearGradient>
<linearGradient id="paint1_linear_33722_153926" x1="31.0193" y1="29.4116" x2="62.4894" y2="68.3881" gradientUnits="userSpaceOnUse">
<stop stop-color="white" stop-opacity="0.25"/>
<stop offset="1" stop-color="white" stop-opacity="0"/>
</linearGradient>
<linearGradient id="paint2_linear_33722_153926" x1="48.0594" y1="41.4856" x2="44.6534" y2="56.1901" gradientUnits="userSpaceOnUse">
<stop stop-color="white"/>
<stop offset="1" stop-color="white" stop-opacity="0.2"/>
</linearGradient>
<linearGradient id="paint3_linear_33722_153926" x1="41.3073" y1="40.3745" x2="53.542" y2="55.5084" gradientUnits="userSpaceOnUse">
<stop stop-color="white" stop-opacity="0.25"/>
<stop offset="1" stop-color="white" stop-opacity="0"/>
</linearGradient>
</defs>
</svg>
