<svg width="24" height="24" viewBox="0 0 24 24" fill="#EE6C4D" xmlns="http://www.w3.org/2000/svg">
<path d="M2.5 3.5L2 21L20 20.5L22 11.5L20 6.5L11.5 6L10 3.5H2.5Z" fill="#EE6C4D" fill-opacity="0.08"/>
<path fill-rule="evenodd" clip-rule="evenodd" d="M1 5C1 3.34315 2.34315 2 4 2H10C10.3344 2 10.6466 2.1671 10.8321 2.4453L12.5352 5H18C19.6569 5 21 6.34315 21 8V9.06313C22.6464 9.40546 23.7402 11.0865 23.2758 12.7894L21.3667 19.7894C21.0107 21.0945 19.8253 22 18.4724 22H2C1.44772 22 1 21.5523 1 21V5ZM19 9V8C19 7.44772 18.5523 7 18 7H12C11.6656 7 11.3534 6.8329 11.1679 6.5547L9.46482 4H4C3.44772 4 3 4.44772 3 5V13.5327L3.6333 11.2106C3.98926 9.90546 5.17474 9 6.52759 9H19ZM3.30925 20H18.4724C18.9234 20 19.3185 19.6982 19.4372 19.2631L21.3463 12.2631C21.5198 11.627 21.0409 11 20.3815 11H6.52759C6.07664 11 5.68148 11.3018 5.56283 11.7369L3.30925 20Z"/>
</svg>
