<svg width="24" height="24" viewBox="0 0 24 24" fill="none" xmlns="http://www.w3.org/2000/svg">
<path fill-rule="evenodd" clip-rule="evenodd" d="M1 5C1 3.34315 2.34315 2 4 2H10C10.3344 2 10.6466 2.1671 10.8321 2.4453L12.5352 5H20C21.6569 5 23 6.34315 23 8V19C23 20.6569 21.6569 22 20 22H4C2.34315 22 1 20.6569 1 19V5ZM4 4C3.44772 4 3 4.44772 3 5V19C3 19.5523 3.44772 20 4 20H20C20.5523 20 21 19.5523 21 19V8C21 7.44772 20.5523 7 20 7H12C11.6656 7 11.3534 6.8329 11.1679 6.5547L9.46482 4H4Z" fill="#EE6C4D"/>
<path d="M2.5 3.5V20H21.5V6.5L11.5 6L10 3.5H2.5Z" fill="#EE6C4D" fill-opacity="0.08"/>
</svg>
