<svg width="20" height="20" viewBox="0 0 20 20" fill="none" xmlns="http://www.w3.org/2000/svg">
<path d="M15.1218 1.66699V2.6874H16.2729L14.0273 4.8166C13.2324 4.00313 12.1239 3.49727 10.8994 3.49727C9.25212 3.49727 7.81475 4.41237 7.06839 5.76078C7.00446 5.75798 6.9402 5.75628 6.87555 5.75628C4.46286 5.75628 2.5 7.71914 2.5 10.1319C2.5 12.372 4.19219 14.224 6.36533 14.4775V15.8335H4.83776V16.8539H6.3654V18.3337H7.38581V16.8539H8.98011V15.8335H7.38581V14.4775C8.81641 14.3106 10.0384 13.451 10.7065 12.2439C10.7705 12.2467 10.8347 12.2484 10.8993 12.2484C13.312 12.2484 15.2749 10.2855 15.2749 7.87282C15.2749 7.05293 15.048 6.28512 14.6541 5.62855L17.0929 3.31611V4.58346H18.1133V1.66699H15.1218ZM6.87562 13.487C5.02559 13.487 3.52048 11.9819 3.52048 10.1318C3.52048 8.35384 4.91061 6.89476 6.661 6.78372C6.57145 7.13203 6.5238 7.49694 6.5238 7.87282C6.5238 9.84105 7.83018 11.5097 9.62135 12.0578C9.01374 12.9215 8.00954 13.487 6.87562 13.487ZM10.0802 11.1266C8.62487 10.7601 7.54424 9.44037 7.54424 7.87282C7.54424 7.5266 7.59697 7.19245 7.69479 6.878C9.15016 7.24453 10.2308 8.56429 10.2308 10.1318C10.2308 10.4781 10.178 10.8122 10.0802 11.1266ZM11.114 11.2209C11.2035 10.8726 11.2512 10.5077 11.2512 10.1318C11.2512 8.16357 9.94482 6.49489 8.15368 5.94681C8.7613 5.08314 9.76553 4.51761 10.8994 4.51761C12.7495 4.51761 14.2546 6.02272 14.2546 7.87279C14.2545 9.65075 12.8644 11.1099 11.114 11.2209Z" fill="#4D4354"/>
</svg>
