<svg width="24" height="24" viewBox="0 0 24 24" fill="none" xmlns="http://www.w3.org/2000/svg">
<g clip-path="url(#clip0_33858_225069)">
<path d="M12 0C7.15884 0 3.23438 3.92691 3.23438 8.77036C3.23438 14.1025 6.88791 15.359 8.80477 18.6282C10.5893 21.6705 10.5908 24 12 24C13.4614 24 13.3692 21.8299 15.1952 18.6283C17.0208 15.4261 20.7656 14.1025 20.7656 8.77036C20.7656 3.92691 16.8412 0 12 0V0ZM12 12.1313C10.1889 12.1313 8.72072 10.6624 8.72072 8.85056C8.72072 7.94414 9.08775 7.1242 9.68133 6.53025C10.2749 5.93677 11.0945 5.56927 12 5.56927C13.8111 5.56927 15.2788 7.03823 15.2788 8.85056C15.2788 10.6624 13.8111 12.1313 12 12.1313Z" fill="#4CAF50"/>
<path d="M12.0018 0C11.7578 0 11.5163 0.0104531 11.2773 0.03C15.7795 0.398625 19.3185 4.17098 19.3185 8.77036C19.3185 14.1025 15.5737 15.4261 13.7481 18.6282C12.3018 21.164 12.0588 23.0525 11.2942 23.7284C11.4902 23.9049 11.7173 24 12.0018 24C13.4632 24 13.371 21.8299 15.197 18.6283C17.0226 15.4261 20.7674 14.1025 20.7674 8.77036C20.7674 3.92691 16.843 0 12.0018 0V0Z" fill="#43A047"/>
<path d="M9.68119 6.53022L3.91809 12.2964C3.49655 11.3358 3.23438 10.1995 3.23438 8.77028C3.23438 6.36854 4.19934 4.19265 5.76206 2.60889L9.68119 6.53022Z" fill="#F44336"/>
<path d="M14.34 11.147C14.9198 10.5552 15.2774 9.7446 15.2774 8.85046C15.2774 7.03813 13.8093 5.56921 11.9985 5.56921C11.0928 5.56921 10.2731 5.93657 9.67969 6.53034L15.4852 0.72168C17.5603 1.62238 19.2182 3.30304 20.0907 5.39399L14.3402 11.1477L14.34 11.147Z" fill="#42A5F5"/>
<path d="M15.4855 0.72168L14.9961 1.21134C16.943 2.36015 18.4075 4.24007 19.0117 6.4739L20.0911 5.39399C19.2185 3.30299 17.5606 1.62238 15.4855 0.72168Z" fill="#2196F3"/>
<path d="M14.3416 11.1476L8.01222 17.4804C6.63606 15.7459 4.87042 14.4708 3.91797 12.2965L9.68106 6.53027C9.08763 7.12404 8.72045 7.94421 8.72045 8.8504C8.72045 10.6622 10.1886 12.1311 11.9999 12.1311C12.917 12.1311 13.7463 11.7543 14.3414 11.1469L14.3416 11.1476Z" fill="#FFC107"/>
<path d="M15.4864 0.721687L9.68084 6.53039L5.76172 2.60911C7.35116 0.998156 9.55902 0 11.9997 0C13.2388 0 14.4181 0.257437 15.4864 0.721687Z" fill="#1E88E5"/>
<path d="M12.0018 0C11.7579 0 11.5164 0.0104062 11.2775 0.03C11.2774 0.03 11.2774 0.0300469 11.2773 0.0300469C12.6279 0.140625 13.8915 0.557766 14.9992 1.21134L15.4885 0.721688C14.4202 0.257437 13.2409 0 12.0018 0V0Z" fill="#1976D2"/>
</g>
<defs>
<clipPath id="clip0_33858_225069">
<rect width="24" height="24" fill="white"/>
</clipPath>
</defs>
</svg>
