<svg width="24" height="24" viewBox="0 0 24 24" fill="none" xmlns="http://www.w3.org/2000/svg">
<path d="M6 2.1001L0 8.1001L3 9.95714L6 8.1001L7.69411 5.1001L6 2.1001Z" fill="#FF2820"/>
<path d="M6 8.1001H0V15.9001L3 17.5475L6 15.9001V8.1001Z" fill="#0084FF"/>
<path d="M0 15.8999V19.8999C0 20.9999 0.9 21.8999 2.00002 21.8999H6L7.69411 18.7151L6 15.8999H0Z" fill="#0066DD"/>
<path d="M22.761 4.23058L19.0501 7.17015V7.20029L17.8398 11.8208L19.0501 16.4967L22.7445 19.47C23.2401 19.8859 24.0001 19.5366 24.0001 18.8877V4.81286C24.0001 4.16401 23.2566 3.81465 22.761 4.23058Z" fill="#00AD3C"/>
<path d="M19.05 7.16996V4.07714C19.05 2.98979 18.1691 2.1001 17.0925 2.1001H13.1775H6V8.1001H13.35V12.0001L17.2989 11.5602L19.05 7.16996Z" fill="#FFBA00"/>
<path d="M13.35 15.9H6V21.9H13.1775H17.0925C18.1691 21.9 19.05 21.0116 19.05 19.9258V16.5L17.091 12.4753L13.35 12V15.9Z" fill="#00AD3C"/>
<path d="M13.3516 12.0001L19.0516 16.5001V7.16992L13.3516 12.0001Z" fill="#00831E"/>
</svg>
