<svg width="24" height="24" viewBox="0 0 24 24" fill="none" xmlns="http://www.w3.org/2000/svg">
<path fill-rule="evenodd" clip-rule="evenodd" d="M7.22005 6C6.35605 6 5.54605 6.334 4.94005 6.941C3.68205 8.201 3.68205 10.252 4.94105 11.514L12 18.585L19.06 11.514C20.319 10.252 20.319 8.201 19.06 6.941C17.848 5.726 15.712 5.728 14.5 6.941L12.708 8.736C12.332 9.113 11.668 9.113 11.292 8.736L9.50005 6.94C8.89405 6.334 8.08505 6 7.22005 6ZM12 21C11.735 21 11.48 20.895 11.293 20.706L3.52505 12.926C1.48905 10.886 1.48905 7.567 3.52505 5.527C4.50905 4.543 5.82105 4 7.22005 4C8.61905 4 9.93205 4.543 10.915 5.527L12 6.614L13.085 5.528C14.069 4.543 15.381 4 16.781 4C18.179 4 19.492 4.543 20.475 5.527C22.512 7.567 22.512 10.886 20.476 12.926L12.708 20.707C12.52 20.895 12.266 21 12 21Z" fill="#EE6C4D"/>
</svg>
