<svg width="16" height="16" viewBox="0 0 16 16" fill="none" xmlns="http://www.w3.org/2000/svg">
<path fill-rule="evenodd" clip-rule="evenodd" d="M8.00003 14.0013C7.8227 14.0013 7.65336 13.9313 7.52803 13.8053L2.35003 8.61863C0.992698 7.25864 0.992698 5.04597 2.35003 3.68597C3.00536 3.02997 3.8807 2.66797 4.81336 2.66797C5.74603 2.66797 6.62136 3.02997 7.2767 3.68597L8.00003 4.41064L8.7227 3.68664C9.3787 3.02997 10.254 2.66797 11.1867 2.66797C12.1194 2.66797 12.9947 3.02997 13.65 3.68597C15.0074 5.04597 15.0074 7.25864 13.6507 8.61863L8.47203 13.806C8.3467 13.9313 8.17736 14.0013 8.00003 14.0013Z" fill="#EF5A46"/>
</svg>
