<svg width="22" height="22" viewBox="0 0 22 22" fill="none" xmlns="http://www.w3.org/2000/svg">
<path d="M10.993 6.90039C9.90294 6.90039 8.85749 7.33343 8.08667 8.10425C7.31585 8.87507 6.88281 9.92052 6.88281 11.0106C6.88281 12.1007 7.31585 13.1462 8.08667 13.917C8.85749 14.6878 9.90294 15.1208 10.993 15.1208C12.0831 15.1208 13.1286 14.6878 13.8994 13.917C14.6702 13.1462 15.1033 12.1007 15.1033 11.0106C15.1033 9.92052 14.6702 8.87507 13.8994 8.10425C13.1286 7.33343 12.0831 6.90039 10.993 6.90039ZM10.993 13.68C10.2849 13.68 9.60567 13.3986 9.10491 12.8979C8.60414 12.3971 8.32282 11.7179 8.32282 11.0097C8.32282 10.3015 8.60414 9.62236 9.10491 9.1216C9.60567 8.62083 10.2849 8.3395 10.993 8.3395C11.7012 8.3395 12.3804 8.62083 12.8812 9.1216C13.3819 9.62236 13.6633 10.3015 13.6633 11.0097C13.6633 11.7179 13.3819 12.3971 12.8812 12.8979C12.3804 13.3986 11.7012 13.68 10.993 13.68Z" fill="#201429"/>
<path d="M15.2668 7.70746C15.796 7.70746 16.225 7.27845 16.225 6.74924C16.225 6.22003 15.796 5.79102 15.2668 5.79102C14.7376 5.79102 14.3086 6.22003 14.3086 6.74924C14.3086 7.27845 14.7376 7.70746 15.2668 7.70746Z" fill="#201429"/>
<path d="M18.5792 5.77651C18.3734 5.24512 18.059 4.76254 17.6559 4.35968C17.2529 3.95681 16.7702 3.64253 16.2388 3.43696C15.6168 3.2035 14.9598 3.07726 14.2957 3.06362C13.4397 3.02629 13.1685 3.01563 10.9979 3.01563C8.82721 3.01562 8.54898 3.01562 7.70009 3.06362C7.03644 3.07656 6.37988 3.20283 5.75876 3.43696C5.22715 3.64229 4.74433 3.95649 4.34128 4.35938C3.93823 4.76228 3.62385 5.24498 3.41832 5.77651C3.18481 6.39839 3.05886 7.05548 3.04587 7.71963C3.00765 8.57474 2.99609 8.84585 2.99609 11.0174C2.99609 13.1881 2.99609 13.4645 3.04587 14.3152C3.0592 14.9801 3.18454 15.6361 3.41832 16.2592C3.62443 16.7905 3.93911 17.273 4.34226 17.6759C4.74541 18.0787 5.22815 18.393 5.75965 18.5987C6.37959 18.8416 7.03642 18.9769 7.70187 18.9987C8.55787 19.0361 8.82898 19.0476 10.9997 19.0476C13.1703 19.0476 13.4485 19.0476 14.2974 18.9987C14.9615 18.9852 15.6185 18.8593 16.2405 18.6263C16.7719 18.4202 17.2544 18.1057 17.6574 17.7027C18.0604 17.2997 18.3749 16.8172 18.581 16.2858C18.8148 15.6636 18.9401 15.0076 18.9534 14.3427C18.9917 13.4876 19.0032 13.2165 19.0032 11.045C19.0032 8.8734 19.0032 8.59785 18.9534 7.74718C18.9431 7.07365 18.8165 6.40696 18.5792 5.77651ZM17.4965 14.2494C17.4908 14.7617 17.3973 15.2692 17.2201 15.7498C17.0866 16.0955 16.8822 16.4094 16.6202 16.6713C16.3581 16.9333 16.0441 17.1375 15.6983 17.2707C15.223 17.4471 14.7209 17.5406 14.2139 17.5472C13.3694 17.5863 13.1312 17.5961 10.9659 17.5961C8.79876 17.5961 8.57743 17.5961 7.71698 17.5472C7.21025 17.541 6.70838 17.4475 6.23343 17.2707C5.88648 17.1383 5.57121 16.9345 5.308 16.6725C5.04479 16.4105 4.8395 16.0962 4.70543 15.7498C4.53071 15.2743 4.43726 14.7728 4.42898 14.2663C4.39076 13.4218 4.38187 13.1836 4.38187 11.0183C4.38187 8.85207 4.38187 8.63074 4.42898 7.7694C4.43473 7.25742 4.52823 6.75022 4.70543 6.26985C4.97654 5.56851 5.53209 5.01651 6.23343 4.74807C6.70862 4.57219 7.21034 4.4787 7.71698 4.47163C8.56232 4.4334 8.79965 4.42274 10.9659 4.42274C13.1321 4.42274 13.3543 4.42274 14.2139 4.47163C14.7209 4.47772 15.2231 4.57124 15.6983 4.74807C16.044 4.88165 16.358 5.08603 16.6201 5.3481C16.8821 5.61017 17.0865 5.92413 17.2201 6.26985C17.3948 6.74536 17.4883 7.24688 17.4965 7.7534C17.5348 8.59874 17.5445 8.83607 17.5445 11.0023C17.5445 13.1676 17.5445 13.4005 17.5063 14.2503H17.4965V14.2494Z" fill="#201429"/>
</svg>
