<svg width="20" height="20" viewBox="0 0 20 20" fill="none" xmlns="http://www.w3.org/2000/svg">
<path fill-rule="evenodd" clip-rule="evenodd" d="M7.49984 3.33333C7.49984 2.8731 7.87293 2.5 8.33317 2.5H14.9998C15.4601 2.5 15.8332 2.8731 15.8332 3.33333C15.8332 3.79357 15.4601 4.16667 14.9998 4.16667H12.3172L9.40048 15.8333H11.6665C12.1267 15.8333 12.4998 16.2064 12.4998 16.6667C12.4998 17.1269 12.1267 17.5 11.6665 17.5H4.99984C4.5396 17.5 4.1665 17.1269 4.1665 16.6667C4.1665 16.2064 4.5396 15.8333 4.99984 15.8333H7.68252L10.5992 4.16667H8.33317C7.87293 4.16667 7.49984 3.79357 7.49984 3.33333Z" fill="#4D4354"/>
</svg>
