<svg width="20" height="20" viewBox="0 0 20 20" fill="none" xmlns="http://www.w3.org/2000/svg">
<path fill-rule="evenodd" clip-rule="evenodd" d="M15.8333 9.16692H5.94575L8.97325 5.53358C9.26825 5.18025 9.21992 4.65442 8.86659 4.36025C8.51242 4.06525 7.98742 4.11358 7.69325 4.46692L3.52659 9.46692C3.49409 9.50608 3.47742 9.55192 3.45325 9.59525C3.43325 9.63025 3.40909 9.66025 3.39409 9.69858C3.35659 9.79442 3.33409 9.89525 3.33409 9.99692C3.33409 9.99775 3.33325 9.99942 3.33325 10.0002C3.33325 10.0011 3.33409 10.0028 3.33409 10.0036C3.33409 10.1053 3.35659 10.2061 3.39409 10.3019C3.40909 10.3402 3.43325 10.3702 3.45325 10.4052C3.47742 10.4486 3.49409 10.4944 3.52659 10.5336L7.69325 15.5336C7.85825 15.7311 8.09492 15.8336 8.33325 15.8336C8.52159 15.8336 8.71075 15.7703 8.86659 15.6403C9.21992 15.3461 9.26825 14.8203 8.97325 14.4669L5.94575 10.8336H15.8333C16.2933 10.8336 16.6666 10.4602 16.6666 10.0002C16.6666 9.54025 16.2933 9.16692 15.8333 9.16692" fill="#4D4354"/>
</svg>
