<svg width="20" height="21" viewBox="0 0 20 21" fill="none" xmlns="http://www.w3.org/2000/svg">
<path fill-rule="evenodd" clip-rule="evenodd" d="M6.77854 3.08819C7.3487 2.73485 8.08117 2.58203 8.90551 2.58203C9.17213 2.58203 9.41832 2.7249 9.5506 2.9564C10.1738 4.04702 10.899 4.79666 11.6487 5.57162C11.7267 5.65227 11.805 5.73321 11.8835 5.81482C12.6098 6.57031 13.3455 7.38083 13.8625 8.52596H16.7069C17.1172 8.52596 17.4499 8.8586 17.4499 9.26895V16.6989C17.4499 17.1092 17.1172 17.4418 16.7069 17.4418H13.4225L7.63496 18.3679C5.37781 18.729 3.33308 16.9854 3.33308 14.6996V12.384L2.71538 10.8398C2.13 9.3763 3.20635 7.78297 4.784 7.78297H6.65548C6.42656 7.43569 6.23654 7.09611 6.087 6.76649C5.76711 6.06145 5.61149 5.35474 5.70958 4.70079C5.81205 4.01763 6.18357 3.4569 6.77854 3.08819ZM14.1064 15.9559H15.9639V10.0119H14.1064V15.9559ZM12.6205 9.40436C12.2159 8.36743 11.5857 7.6492 10.8123 6.84471C10.735 6.76432 10.6562 6.68301 10.5761 6.60042C9.91157 5.91472 9.16187 5.14118 8.49604 4.08582C8.061 4.12585 7.7586 4.22902 7.56131 4.35129C7.33203 4.49337 7.21596 4.67563 7.17912 4.92122C7.1379 5.19601 7.19124 5.60378 7.44021 6.15253C7.68657 6.69552 8.10463 7.3315 8.72167 8.03669C8.91365 8.25609 8.95957 8.56749 8.83911 8.83297C8.71864 9.09845 8.45405 9.26895 8.16252 9.26895H4.784C4.25909 9.26895 3.89959 9.79915 4.09508 10.2879L4.76592 11.965C4.80102 12.0527 4.81906 12.1464 4.81906 12.2409V14.6996C4.81906 16.0711 6.0459 17.1172 7.40019 16.9005L12.6205 16.0653V9.40436Z" fill="#EE6C4D"/>
</svg>
