<svg width="20" height="20" viewBox="0 0 20 20" fill="none" xmlns="http://www.w3.org/2000/svg">
<path fill-rule="evenodd" clip-rule="evenodd" d="M6.77952 2.58916C7.34967 2.23583 8.08215 2.08301 8.90648 2.08301C9.17311 2.08301 9.4193 2.22587 9.55158 2.45737C10.1748 3.548 10.9 4.29763 11.6497 5.07259C11.7277 5.15325 11.806 5.23418 11.8845 5.3158C12.6108 6.07128 13.3465 6.8818 13.8635 8.02693H16.7079C17.1182 8.02693 17.4509 8.35958 17.4509 8.76992V16.1998C17.4509 16.6102 17.1182 16.9428 16.7079 16.9428H13.4235L7.63593 17.8688C5.37879 18.23 3.33405 16.4864 3.33405 14.2005V11.885L2.71636 10.3407C2.13098 8.87728 3.20732 7.28394 4.78497 7.28394H6.65645C6.42754 6.93666 6.23752 6.59709 6.08797 6.26747C5.76809 5.56242 5.61246 4.85571 5.71056 4.20176C5.81303 3.51861 6.18455 2.95788 6.77952 2.58916ZM14.1074 15.4568H15.9649V9.51291H14.1074V15.4568ZM12.6214 8.90534C12.2169 7.8684 11.5867 7.15018 10.8132 6.34568C10.736 6.2653 10.6572 6.18398 10.5771 6.10139C9.91255 5.41569 9.16284 4.64215 8.49702 3.5868C8.06197 3.62682 7.75958 3.73 7.56229 3.85226C7.33301 3.99435 7.21693 4.17661 7.1801 4.4222C7.13888 4.69698 7.19222 5.10476 7.44119 5.65351C7.68754 6.1965 8.1056 6.83247 8.72265 7.53767C8.91463 7.75707 8.96055 8.06847 8.84008 8.33395C8.71962 8.59943 8.45502 8.76992 8.16349 8.76992H4.78497C4.26006 8.76992 3.90057 9.30013 4.09606 9.78885L4.76689 11.4659C4.802 11.5537 4.82003 11.6474 4.82003 11.7419V14.2005C4.82003 15.572 6.04688 16.6182 7.40116 16.4015L12.6214 15.5663V8.90534Z" fill="#4D4354"/>
</svg>
