<svg width="20" height="20" viewBox="0 0 20 20" fill="none" xmlns="http://www.w3.org/2000/svg">
<path fill-rule="evenodd" clip-rule="evenodd" d="M7.20214 2.93365C8.03199 2.11945 9.14889 1.66445 10.3115 1.667C11.474 1.66955 12.5889 2.12944 13.4152 2.94728C14.2415 3.76512 14.7128 4.87523 14.7272 6.03772L14.7273 6.0455L14.7273 7.83634C14.7273 8.18151 14.4475 8.46134 14.1023 8.46134C13.7571 8.46134 13.4773 8.18151 13.4773 7.83634V6.04957C13.466 5.21675 13.1279 4.42167 12.5359 3.83568C11.943 3.24883 11.1429 2.91883 10.3087 2.917C9.4745 2.91517 8.67305 3.24166 8.07757 3.82591C7.4833 4.40898 7.14179 5.20206 7.12646 6.03433V7.83634C7.12646 8.18151 6.84664 8.46134 6.50146 8.46134C6.15629 8.46134 5.87646 8.18151 5.87646 7.83634V6.01831C5.89604 4.8559 6.37229 3.74786 7.20214 2.93365Z" fill="#4D4354"/>
<path fill-rule="evenodd" clip-rule="evenodd" d="M7.11825 8.40039C6.44593 8.40039 5.80114 8.66747 5.32574 9.14287C4.85033 9.61828 4.58325 10.2631 4.58325 10.9354V14.5096C4.58325 15.1819 4.85033 15.8267 5.32574 16.3021C5.80114 16.7775 6.44593 17.0446 7.11825 17.0446H13.4858C13.8187 17.0446 14.1483 16.979 14.4559 16.8516C14.7634 16.7242 15.0429 16.5375 15.2783 16.3021C15.5137 16.0667 15.7004 15.7872 15.8278 15.4797C15.9552 15.1721 16.0208 14.8425 16.0208 14.5096V10.9354C16.0208 10.6025 15.9552 10.2728 15.8278 9.96529C15.7004 9.65773 15.5137 9.37827 15.2783 9.14287C15.0429 8.90748 14.7634 8.72075 14.4559 8.59336C14.1483 8.46596 13.8187 8.40039 13.4858 8.40039H7.11825ZM4.44185 8.25899C5.15168 7.54917 6.11441 7.15039 7.11825 7.15039H13.4858C13.9828 7.15039 14.475 7.24829 14.9342 7.43851C15.3934 7.62872 15.8107 7.90752 16.1622 8.25899C16.5136 8.61046 16.7924 9.02772 16.9826 9.48693C17.1729 9.94615 17.2708 10.4383 17.2708 10.9354V14.5096C17.2708 15.0066 17.1729 15.4988 16.9826 15.958C16.7924 16.4172 16.5136 16.8345 16.1622 17.186C15.8107 17.5374 15.3934 17.8162 14.9342 18.0064C14.475 18.1967 13.9828 18.2946 13.4858 18.2946H7.11825C6.11441 18.2946 5.15168 17.8958 4.44185 17.186C3.73203 16.4761 3.33325 15.5134 3.33325 14.5096V10.9354C3.33325 9.93155 3.73203 8.96882 4.44185 8.25899Z" fill="#4D4354"/>
<path fill-rule="evenodd" clip-rule="evenodd" d="M10.3025 11.1719C10.6477 11.1719 10.9275 11.4517 10.9275 11.7969V13.6477C10.9275 13.9929 10.6477 14.2727 10.3025 14.2727C9.95731 14.2727 9.67749 13.9929 9.67749 13.6477V11.7969C9.67749 11.4517 9.95731 11.1719 10.3025 11.1719Z" fill="#4D4354"/>
</svg>
