<svg width="24" height="24" viewBox="0 0 24 24" fill="none" xmlns="http://www.w3.org/2000/svg">
<path d="M5.90641 7.78125V9.9412C5.4348 10.1055 5.04644 10.4509 4.82815 10.9178L3.9018 12.904C3.30438 14.186 3.5929 15.7008 4.61988 16.6735L7.31266 19.2231V23.5312C7.31266 23.7901 7.52257 24 7.78141 24H9.89078C10.1496 24 10.3595 23.7901 10.3595 23.5312C10.3595 23.2724 10.1496 23.0625 9.89078 23.0625H8.25016V19.0214C8.25016 18.8926 8.19719 18.7695 8.10368 18.681L5.26455 15.9928C4.53096 15.298 4.3248 14.2158 4.75155 13.3002L5.67761 11.3145C5.90238 10.8338 6.46408 10.646 6.92379 10.8606L11.5544 13.0197C10.9054 13.8961 9.70619 14.227 8.68033 13.7488L7.4058 13.1544C7.17114 13.0449 6.89224 13.1466 6.78288 13.3811C6.67343 13.6157 6.77496 13.8946 7.00957 14.0041L8.28414 14.5985C8.80661 14.8421 9.39363 14.9505 9.99991 14.8883C10.989 15.9569 11.5314 17.3378 11.5314 18.8025C11.5314 19.0614 11.7413 19.2712 12.0002 19.2712C12.259 19.2712 12.4689 19.0614 12.4689 18.8025C12.4689 17.2635 11.9537 15.804 11.0056 14.6202C11.7037 14.3096 12.2973 13.7561 12.6448 13.011C12.645 13.0106 12.6451 13.0102 12.6453 13.0098C12.8781 13.1137 13.1355 13.1719 13.4064 13.1719C13.8249 13.1719 14.2118 13.034 14.5241 12.8013C14.8252 13.4354 15.4716 13.875 16.2189 13.875C16.5076 13.875 16.7812 13.8093 17.0257 13.6922C16.8964 14.5337 16.687 15.301 16.4699 16.0951C16.1161 17.3891 15.7502 18.7271 15.7502 20.4375V23.0625H14.1095C13.8507 23.0625 13.6408 23.2724 13.6408 23.5312C13.6408 23.7901 13.8507 24 14.1095 24H16.2189C16.4777 24 16.6877 23.7901 16.6877 23.5312V20.4375C16.6877 18.853 17.0211 17.6335 17.3742 16.3424C17.728 15.0484 18.0939 13.7104 18.0939 12V9.1875C18.0939 8.15363 17.2528 7.3125 16.2189 7.3125C15.8004 7.3125 15.4135 7.45041 15.1012 7.68309C14.8001 7.04897 14.1537 6.60938 13.4064 6.60938C12.9879 6.60938 12.601 6.74728 12.2887 6.97997C11.9876 6.34584 11.3412 5.90625 10.5939 5.90625C10.0343 5.90625 9.53149 6.153 9.18766 6.54305C8.84383 6.153 8.341 5.90625 7.78141 5.90625C6.74754 5.90625 5.90641 6.74738 5.90641 7.78125V7.78125ZM15.2814 9.1875C15.2814 8.67056 15.702 8.25 16.2189 8.25C16.7358 8.25 17.1564 8.67056 17.1564 9.1875V12C17.1564 12.5169 16.7358 12.9375 16.2189 12.9375C15.702 12.9375 15.2814 12.5169 15.2814 12V9.1875ZM12.4689 8.48438C12.4689 7.96744 12.8895 7.54688 13.4064 7.54688C13.9233 7.54688 14.3439 7.96744 14.3439 8.48438V11.2969C14.3439 11.8138 13.9233 12.2344 13.4064 12.2344C12.8895 12.2344 12.4689 11.8138 12.4689 11.2969V8.48438ZM9.65641 7.78125C9.65641 7.26431 10.077 6.84375 10.5939 6.84375C11.1108 6.84375 11.5314 7.26431 11.5314 7.78125V11.2969C11.5314 11.5639 11.5879 11.8178 11.689 12.048L9.65641 11.1003V7.78125ZM6.84391 7.78125C6.84391 7.26431 7.26447 6.84375 7.78141 6.84375C8.29835 6.84375 8.71891 7.26431 8.71891 7.78125V10.6632L7.32021 10.0111C7.16796 9.93998 7.00769 9.8903 6.84391 9.86217V7.78125Z" fill="#EE6C4D"/>
<path d="M12.4688 2.15625V0.46875C12.4688 0.209859 12.2588 0 12 0C11.7412 0 11.5312 0.209859 11.5312 0.46875V2.15625C11.5312 2.41514 11.7412 2.625 12 2.625C12.2588 2.625 12.4688 2.41514 12.4688 2.15625Z" fill="#EE6C4D"/>
<path d="M8.01567 3.69275C8.23987 3.56333 8.31674 3.27669 8.18732 3.05244L7.4842 1.83416C7.35477 1.60991 7.06809 1.53304 6.84388 1.66246C6.61968 1.79188 6.5428 2.07852 6.67223 2.30277L7.37535 3.52105C7.50435 3.74459 7.79085 3.82255 8.01567 3.69275Z" fill="#EE6C4D"/>
<path d="M4.22443 5.96912L3.00614 5.26599C2.7817 5.13653 2.49516 5.21345 2.36583 5.4377C2.23641 5.6619 2.31328 5.94859 2.53749 6.07801L3.75577 6.78114C3.97903 6.90995 4.26614 6.83467 4.39608 6.60943C4.5255 6.38518 4.44863 6.09854 4.22443 5.96912Z" fill="#EE6C4D"/>
<path d="M16.6248 3.52106L17.328 2.30278C17.4574 2.07858 17.3805 1.79189 17.1563 1.66247C16.9319 1.533 16.6454 1.60997 16.516 1.83417L15.8129 3.05245C15.6834 3.27666 15.7603 3.56334 15.9845 3.69277C16.2078 3.82153 16.4948 3.74625 16.6248 3.52106Z" fill="#EE6C4D"/>
<path d="M20.2444 6.78113L21.4627 6.078C21.6869 5.94858 21.7638 5.66194 21.6344 5.43769C21.5049 5.21348 21.2183 5.13651 20.9941 5.26598L19.7758 5.96911C19.5516 6.09853 19.4747 6.38518 19.6041 6.60943C19.7331 6.83298 20.0196 6.91093 20.2444 6.78113V6.78113Z" fill="#EE6C4D"/>
<path d="M12 24C12.2589 24 12.4688 23.7901 12.4688 23.5312C12.4688 23.2724 12.2589 23.0625 12 23.0625C11.7411 23.0625 11.5312 23.2724 11.5312 23.5312C11.5312 23.7901 11.7411 24 12 24Z" fill="#EE6C4D"/>
</svg>
