<svg width="24" height="24" viewBox="0 0 24 24" fill="none" xmlns="http://www.w3.org/2000/svg">
<path d="M22 11V15C22 16.657 20.657 18 19 18C17.343 18 16 16.657 16 15V10H21C21.5525 10 22 10.4475 22 11ZM19 8C20.1045 8 21 7.1045 21 6C21 4.8955 20.1045 4 19 4C17.8955 4 17 4.8955 17 6C17 7.1045 17.8955 8 19 8Z" fill="#5059C9"/>
<path d="M17.5 11V16.5C17.5 19.3715 15.0795 21.678 12.167 21.489C9.5095 21.317 7.5 18.9915 7.5 16.3285V10H16.5C17.0525 10 17.5 10.4475 17.5 11ZM12.5 8.5C14.157 8.5 15.5 7.157 15.5 5.5C15.5 3.843 14.157 2.5 12.5 2.5C10.843 2.5 9.5 3.843 9.5 5.5C9.5 7.157 10.843 8.5 12.5 8.5Z" fill="#7B83EB"/>
<path d="M12.5 8.5C14.1569 8.5 15.5 7.15685 15.5 5.5C15.5 3.84315 14.1569 2.5 12.5 2.5C10.8431 2.5 9.5 3.84315 9.5 5.5C9.5 7.15685 10.8431 8.5 12.5 8.5Z" fill="#7B83EB"/>
<path opacity="0.05" d="M13 16.6595V10H7.5V16.3285C7.5 17.0955 7.6715 17.8325 7.972 18.5H11.159C12.176 18.5 13 17.676 13 16.6595Z" fill="black"/>
<path opacity="0.07" d="M7.5 10V16.3285C7.5 16.9085 7.6005 17.4705 7.777 18H11.106C11.968 18 12.6665 17.3015 12.6665 16.4395V10H7.5Z" fill="black"/>
<path opacity="0.09" d="M12.3335 10H7.5V16.3285C7.5 16.7295 7.5505 17.1205 7.637 17.5H11.053C11.76 17.5 12.333 16.927 12.333 16.22V10H12.3335Z" fill="black"/>
<path d="M11 17H3C2.4475 17 2 16.5525 2 16V8C2 7.4475 2.4475 7 3 7H11C11.5525 7 12 7.4475 12 8V16C12 16.5525 11.5525 17 11 17Z" fill="url(#paint0_linear_33859_110438)"/>
<path d="M9.03284 9.49951H4.96484V10.3595H6.48834V14.4995H7.50934V10.3595H9.03284V9.49951Z" fill="white"/>
<defs>
<linearGradient id="paint0_linear_33859_110438" x1="2.324" y1="7.324" x2="11.7015" y2="16.7015" gradientUnits="userSpaceOnUse">
<stop stop-color="#5961C3"/>
<stop offset="1" stop-color="#3A41AC"/>
</linearGradient>
</defs>
</svg>
