<svg width="200" height="113" viewBox="0 0 200 113" fill="none" xmlns="http://www.w3.org/2000/svg">
<circle r="2" transform="matrix(1 0 0 -1 98 91)" fill="#4D4354"/>
<circle r="2" transform="matrix(1 0 0 -1 17 13)" fill="#201429" fill-opacity="0.16"/>
<rect x="22" y="35" width="60" height="56" rx="12" fill="#201429" fill-opacity="0.16"/>
<path opacity="0.4" d="M62 66.9409C62.0035 68.2788 61.4756 69.5633 60.5324 70.5121C59.5892 71.4609 58.3079 71.9964 56.97 72.0009H47.05C45.7121 72.0017 44.4287 71.4713 43.4818 70.5262C42.5348 69.5811 42.0019 68.2988 42 66.9609V66.9509C42 66.9509 42.006 62.5249 42.014 60.2979C42.0145 60.2044 42.0413 60.113 42.0911 60.034C42.141 59.9549 42.2121 59.8914 42.2962 59.8507C42.3803 59.81 42.4742 59.7937 42.5671 59.8036C42.6601 59.8135 42.7484 59.8493 42.822 59.9069C45.2 61.7919 49.447 65.2289 49.5 65.2739C50.2184 65.8481 51.1103 66.1618 52.03 66.1639C52.9517 66.1633 53.845 65.8455 54.56 65.2639C54.613 65.2279 58.767 61.8979 61.179 59.9779C61.2525 59.9195 61.341 59.883 61.4344 59.8725C61.5277 59.8621 61.6221 59.8781 61.7067 59.9188C61.7913 59.9595 61.8628 60.0232 61.9129 60.1027C61.963 60.1821 61.9897 60.274 61.99 60.3679C62 62.5769 62 66.9409 62 66.9409Z" fill="#4D4354"/>
<path d="M61.4775 56.674C61.0489 55.8667 60.4087 55.1913 59.6255 54.7203C58.8422 54.2492 57.9455 54.0002 57.0315 54H47.0515C46.1374 54 45.2405 54.2489 44.457 54.72C43.6736 55.1911 43.0332 55.8666 42.6045 56.674C42.5104 56.8515 42.4812 57.0562 42.5217 57.2529C42.5622 57.4497 42.67 57.6261 42.8265 57.752L50.2515 63.691C50.7552 64.0985 51.3836 64.3206 52.0315 64.32H52.0515C52.6994 64.3206 53.3278 64.0985 53.8315 63.691L61.2565 57.752C61.4129 57.626 61.5205 57.4495 61.5608 57.2527C61.6012 57.056 61.5717 56.8514 61.4775 56.674" fill="#4D4354"/>
<rect x="117" y="35" width="60" height="56" rx="12" fill="#201429" fill-opacity="0.16"/>
<path opacity="0.4" d="M157 67.9409C157.003 69.2788 156.476 70.5633 155.532 71.5121C154.589 72.4609 153.308 72.9964 151.97 73.0009H142.05C140.712 73.0017 139.429 72.4713 138.482 71.5262C137.535 70.5811 137.002 69.2988 137 67.9609V67.9509C137 67.9509 137.006 63.5249 137.014 61.2979C137.015 61.2044 137.041 61.113 137.091 61.034C137.141 60.9549 137.212 60.8914 137.296 60.8507C137.38 60.81 137.474 60.7937 137.567 60.8036C137.66 60.8135 137.748 60.8493 137.822 60.9069C140.2 62.7919 144.447 66.2289 144.5 66.2739C145.218 66.8481 146.11 67.1618 147.03 67.1639C147.952 67.1633 148.845 66.8455 149.56 66.2639C149.613 66.2279 153.767 62.8979 156.179 60.9779C156.253 60.9195 156.341 60.883 156.434 60.8725C156.528 60.8621 156.622 60.8781 156.707 60.9188C156.791 60.9595 156.863 61.0232 156.913 61.1027C156.963 61.1821 156.99 61.274 156.99 61.3679C157 63.5769 157 67.9409 157 67.9409Z" fill="#4D4354"/>
<path d="M156.478 57.674C156.049 56.8667 155.409 56.1913 154.625 55.7203C153.842 55.2492 152.946 55.0002 152.032 55H142.052C141.137 55 140.24 55.2489 139.457 55.72C138.674 56.1911 138.033 56.8666 137.605 57.674C137.51 57.8515 137.481 58.0562 137.522 58.2529C137.562 58.4497 137.67 58.6261 137.827 58.752L145.252 64.691C145.755 65.0985 146.384 65.3206 147.032 65.32H147.052C147.699 65.3206 148.328 65.0985 148.832 64.691L156.257 58.752C156.413 58.626 156.521 58.4495 156.561 58.2527C156.601 58.056 156.572 57.8514 156.478 57.674" fill="#4D4354"/>
<path fill-rule="evenodd" clip-rule="evenodd" d="M74.5 33C79.7467 33 84 28.7467 84 23.5C84 21.8719 83.5904 20.3394 82.8687 19H117C123.627 19 129 24.3726 129 31V63C129 69.6274 123.627 75 117 75H81C74.3726 75 69 69.6274 69 63V31.2469C70.5521 32.3508 72.4503 33 74.5 33Z" fill="#4D4354"/>
<circle cx="74.5" cy="23.5" r="5.5" fill="#4D4354"/>
<path opacity="0.4" d="M109 50.9409C109.003 52.2788 108.476 53.5633 107.532 54.5121C106.589 55.4609 105.308 55.9964 103.97 56.0009H94.05C92.7121 56.0017 91.4287 55.4713 90.4818 54.5262C89.5348 53.5811 89.0019 52.2988 89 50.9609V50.9509C89 50.9509 89.006 46.5249 89.014 44.2979C89.0145 44.2044 89.0413 44.113 89.0911 44.034C89.141 43.9549 89.2121 43.8914 89.2962 43.8507C89.3803 43.81 89.4742 43.7937 89.5671 43.8036C89.6601 43.8135 89.7484 43.8493 89.822 43.9069C92.2 45.7919 96.447 49.2289 96.5 49.2739C97.2184 49.8481 98.1103 50.1618 99.03 50.1639C99.9517 50.1633 100.845 49.8455 101.56 49.2639C101.613 49.2279 105.767 45.8979 108.179 43.9779C108.253 43.9195 108.341 43.883 108.434 43.8725C108.528 43.8621 108.622 43.8781 108.707 43.9188C108.791 43.9595 108.863 44.0232 108.913 44.1027C108.963 44.1821 108.99 44.274 108.99 44.3679C109 46.5769 109 50.9409 109 50.9409Z" fill="#DFD6E5"/>
<path d="M108.478 40.674C108.049 39.8667 107.409 39.1913 106.625 38.7203C105.842 38.2492 104.946 38.0002 104.032 38H94.0515C93.1374 38 92.2405 38.2489 91.457 38.72C90.6736 39.1911 90.0332 39.8666 89.6045 40.674C89.5104 40.8515 89.4812 41.0562 89.5217 41.2529C89.5622 41.4497 89.67 41.6261 89.8265 41.752L97.2515 47.691C97.7552 48.0985 98.3836 48.3206 99.0315 48.32H99.0515C99.6994 48.3206 100.328 48.0985 100.832 47.691L108.257 41.752C108.413 41.626 108.521 41.4495 108.561 41.2527C108.601 41.056 108.572 40.8514 108.478 40.674" fill="#DFD6E5"/>
<path fill-rule="evenodd" clip-rule="evenodd" d="M188.668 18.3327H184.668V14.3327C184.668 13.964 184.369 13.666 184.001 13.666C183.633 13.666 183.335 13.964 183.335 14.3327V18.3327H179.335C178.967 18.3327 178.668 18.6307 178.668 18.9993C178.668 19.368 178.967 19.666 179.335 19.666H183.335V23.666C183.335 24.0347 183.633 24.3327 184.001 24.3327C184.369 24.3327 184.668 24.0347 184.668 23.666V19.666H188.668C189.036 19.666 189.335 19.368 189.335 18.9993C189.335 18.6307 189.036 18.3327 188.668 18.3327" fill="#4D4354"/>
<path fill-rule="evenodd" clip-rule="evenodd" d="M19.668 96.3327H15.668V92.3327C15.668 91.964 15.3693 91.666 15.0013 91.666C14.6333 91.666 14.3346 91.964 14.3346 92.3327V96.3327H10.3346C9.96664 96.3327 9.66797 96.6307 9.66797 96.9993C9.66797 97.368 9.96664 97.666 10.3346 97.666H14.3346V101.666C14.3346 102.035 14.6333 102.333 15.0013 102.333C15.3693 102.333 15.668 102.035 15.668 101.666V97.666H19.668C20.036 97.666 20.3346 97.368 20.3346 96.9993C20.3346 96.6307 20.036 96.3327 19.668 96.3327" fill="#4D4354"/>
<path fill-rule="evenodd" clip-rule="evenodd" d="M49.332 19.6673H47.332V17.6673C47.332 17.483 47.1827 17.334 46.9987 17.334C46.8147 17.334 46.6654 17.483 46.6654 17.6673V19.6673H44.6654C44.4814 19.6673 44.332 19.8163 44.332 20.0007C44.332 20.185 44.4814 20.334 44.6654 20.334H46.6654V22.334C46.6654 22.5183 46.8147 22.6673 46.9987 22.6673C47.1827 22.6673 47.332 22.5183 47.332 22.334V20.334H49.332C49.516 20.334 49.6654 20.185 49.6654 20.0007C49.6654 19.8163 49.516 19.6673 49.332 19.6673" fill="#4D4354"/>
</svg>
