<svg width="200" height="113" viewBox="0 0 200 113" fill="none" xmlns="http://www.w3.org/2000/svg">
<circle r="2" transform="matrix(1 0 0 -1 98 91)" fill="#4D4354"/>
<circle r="2" transform="matrix(1 0 0 -1 17 13)" fill="#201429" fill-opacity="0.16"/>
<rect x="22" y="35" width="60" height="56" rx="12" fill="#201429" fill-opacity="0.16"/>
<path d="M48 58C47.4477 58 47 58.4477 47 59C47 59.5523 47.4477 60 48 60H56C56.5523 60 57 59.5523 57 59C57 58.4477 56.5523 58 56 58H48Z" fill="#4D4354"/>
<path d="M48 62C47.4477 62 47 62.4477 47 63C47 63.5523 47.4477 64 48 64H56C56.5523 64 57 63.5523 57 63C57 62.4477 56.5523 62 56 62H48Z" fill="#4D4354"/>
<path d="M48 66C47.4477 66 47 66.4477 47 67C47 67.5523 47.4477 68 48 68H52C52.5523 68 53 67.5523 53 67C53 66.4477 52.5523 66 52 66H48Z" fill="#4D4354"/>
<path fill-rule="evenodd" clip-rule="evenodd" d="M46 54H49C49 52.3431 50.3431 51 52 51C53.6569 51 55 52.3431 55 54H58C59.6569 54 61 55.3431 61 57V71C61 72.6569 59.6569 74 58 74H46C44.3431 74 43 72.6569 43 71V57C43 55.3431 44.3431 54 46 54ZM52 53C51.4477 53 51 53.4477 51 54H53C53 53.4477 52.5523 53 52 53ZM46 56C45.4477 56 45 56.4477 45 57V71C45 71.5523 45.4477 72 46 72H58C58.5523 72 59 71.5523 59 71V57C59 56.4477 58.5523 56 58 56H46Z" fill="#4D4354"/>
<rect x="117" y="35" width="60" height="56" rx="12" fill="#201429" fill-opacity="0.16"/>
<path d="M143 59C142.448 59 142 59.4477 142 60C142 60.5523 142.448 61 143 61H151C151.552 61 152 60.5523 152 60C152 59.4477 151.552 59 151 59H143Z" fill="#4D4354"/>
<path d="M143 63C142.448 63 142 63.4477 142 64C142 64.5523 142.448 65 143 65H151C151.552 65 152 64.5523 152 64C152 63.4477 151.552 63 151 63H143Z" fill="#4D4354"/>
<path d="M143 67C142.448 67 142 67.4477 142 68C142 68.5523 142.448 69 143 69H147C147.552 69 148 68.5523 148 68C148 67.4477 147.552 67 147 67H143Z" fill="#4D4354"/>
<path fill-rule="evenodd" clip-rule="evenodd" d="M141 55H144C144 53.3431 145.343 52 147 52C148.657 52 150 53.3431 150 55H153C154.657 55 156 56.3431 156 58V72C156 73.6569 154.657 75 153 75H141C139.343 75 138 73.6569 138 72V58C138 56.3431 139.343 55 141 55ZM147 54C146.448 54 146 54.4477 146 55H148C148 54.4477 147.552 54 147 54ZM141 57C140.448 57 140 57.4477 140 58V72C140 72.5523 140.448 73 141 73H153C153.552 73 154 72.5523 154 72V58C154 57.4477 153.552 57 153 57H141Z" fill="#4D4354"/>
<path fill-rule="evenodd" clip-rule="evenodd" d="M74.5 33C79.7467 33 84 28.7467 84 23.5C84 21.8719 83.5904 20.3394 82.8687 19H117C123.627 19 129 24.3726 129 31V63C129 69.6274 123.627 75 117 75H81C74.3726 75 69 69.6274 69 63V31.2469C70.5521 32.3508 72.4503 33 74.5 33Z" fill="#4D4354"/>
<circle cx="74.5" cy="23.5" r="5.5" fill="#4D4354"/>
<path d="M95 42C94.4477 42 94 42.4477 94 43C94 43.5523 94.4477 44 95 44H103C103.552 44 104 43.5523 104 43C104 42.4477 103.552 42 103 42H95Z" fill="#C2B0CF"/>
<path d="M95 46C94.4477 46 94 46.4477 94 47C94 47.5523 94.4477 48 95 48H103C103.552 48 104 47.5523 104 47C104 46.4477 103.552 46 103 46H95Z" fill="#C2B0CF"/>
<path d="M95 50C94.4477 50 94 50.4477 94 51C94 51.5523 94.4477 52 95 52H99C99.5523 52 100 51.5523 100 51C100 50.4477 99.5523 50 99 50H95Z" fill="#C2B0CF"/>
<path fill-rule="evenodd" clip-rule="evenodd" d="M93 38H96C96 36.3431 97.3431 35 99 35C100.657 35 102 36.3431 102 38H105C106.657 38 108 39.3431 108 41V55C108 56.6569 106.657 58 105 58H93C91.3431 58 90 56.6569 90 55V41C90 39.3431 91.3431 38 93 38ZM99 37C98.4477 37 98 37.4477 98 38H100C100 37.4477 99.5523 37 99 37ZM93 40C92.4477 40 92 40.4477 92 41V55C92 55.5523 92.4477 56 93 56H105C105.552 56 106 55.5523 106 55V41C106 40.4477 105.552 40 105 40H93Z" fill="#C2B0CF"/>
<path fill-rule="evenodd" clip-rule="evenodd" d="M188.667 18.3337H184.667V14.3337C184.667 13.965 184.368 13.667 184 13.667C183.632 13.667 183.333 13.965 183.333 14.3337V18.3337H179.333C178.965 18.3337 178.667 18.6317 178.667 19.0003C178.667 19.369 178.965 19.667 179.333 19.667H183.333V23.667C183.333 24.0357 183.632 24.3337 184 24.3337C184.368 24.3337 184.667 24.0357 184.667 23.667V19.667H188.667C189.035 19.667 189.333 19.369 189.333 19.0003C189.333 18.6317 189.035 18.3337 188.667 18.3337Z" fill="#4D4354"/>
<path fill-rule="evenodd" clip-rule="evenodd" d="M19.6665 96.3337H15.6665V92.3337C15.6665 91.965 15.3678 91.667 14.9998 91.667C14.6318 91.667 14.3332 91.965 14.3332 92.3337V96.3337H10.3332C9.96517 96.3337 9.6665 96.6317 9.6665 97.0003C9.6665 97.369 9.96517 97.667 10.3332 97.667H14.3332V101.667C14.3332 102.036 14.6318 102.334 14.9998 102.334C15.3678 102.334 15.6665 102.036 15.6665 101.667V97.667H19.6665C20.0345 97.667 20.3332 97.369 20.3332 97.0003C20.3332 96.6317 20.0345 96.3337 19.6665 96.3337Z" fill="#4D4354"/>
<path fill-rule="evenodd" clip-rule="evenodd" d="M49.3335 19.6663H47.3335V17.6663C47.3335 17.482 47.1842 17.333 47.0002 17.333C46.8162 17.333 46.6668 17.482 46.6668 17.6663V19.6663H44.6668C44.4828 19.6663 44.3335 19.8153 44.3335 19.9997C44.3335 20.184 44.4828 20.333 44.6668 20.333H46.6668V22.333C46.6668 22.5173 46.8162 22.6663 47.0002 22.6663C47.1842 22.6663 47.3335 22.5173 47.3335 22.333V20.333H49.3335C49.5175 20.333 49.6668 20.184 49.6668 19.9997C49.6668 19.8153 49.5175 19.6663 49.3335 19.6663Z" fill="#4D4354"/>
</svg>
