<svg width="200" height="113" viewBox="0 0 200 113" fill="none" xmlns="http://www.w3.org/2000/svg">
<circle r="2" transform="matrix(1 0 0 -1 98 91)" fill="#4D4354"/>
<circle r="2" transform="matrix(1 0 0 -1 17 13)" fill="#201429" fill-opacity="0.16"/>
<rect x="22" y="35" width="60" height="56" rx="12" fill="#201429" fill-opacity="0.16"/>
<path d="M47.0002 60.4999C47.0002 60.0397 47.3733 59.6666 47.8335 59.6666H56.1668C56.6271 59.6666 57.0002 60.0397 57.0002 60.4999C57.0002 60.9602 56.6271 61.3333 56.1668 61.3333H47.8335C47.3733 61.3333 47.0002 60.9602 47.0002 60.4999Z" fill="#4D4354"/>
<path d="M47.8335 64.6666C47.3733 64.6666 47.0002 65.0397 47.0002 65.4999C47.0002 65.9602 47.3733 66.3333 47.8335 66.3333H56.1668C56.6271 66.3333 57.0002 65.9602 57.0002 65.4999C57.0002 65.0397 56.6271 64.6666 56.1668 64.6666H47.8335Z" fill="#4D4354"/>
<path fill-rule="evenodd" clip-rule="evenodd" d="M42.8335 56.3333C42.8335 54.9525 43.9528 53.8333 45.3335 53.8333H58.6668C60.0475 53.8333 61.1668 54.9525 61.1668 56.3333V69.6666C61.1668 71.0473 60.0475 72.1666 58.6668 72.1666H45.3335C43.9528 72.1666 42.8335 71.0473 42.8335 69.6666V56.3333ZM45.3335 55.4999C44.8733 55.4999 44.5002 55.873 44.5002 56.3333V69.6666C44.5002 70.1268 44.8733 70.4999 45.3335 70.4999H58.6668C59.1271 70.4999 59.5002 70.1268 59.5002 69.6666V56.3333C59.5002 55.873 59.1271 55.4999 58.6668 55.4999H45.3335Z" fill="#4D4354"/>
<rect x="117" y="35" width="60" height="56" rx="12" fill="#201429" fill-opacity="0.16"/>
<path fill-rule="evenodd" clip-rule="evenodd" d="M154.5 59.6666L152 59.6666V70.4999H153.666C154.127 70.4999 154.5 70.1268 154.5 69.6666V59.6666ZM150.333 70.4999V59.6666L143.666 59.6666L143.666 70.4999H150.333ZM142 70.4999L142 59.6666H139.5L139.5 69.6666C139.5 70.1268 139.873 70.4999 140.333 70.4999H142ZM139.5 57.9999L154.5 57.9999V56.3333C154.5 55.873 154.127 55.4999 153.666 55.4999L140.333 55.4999C139.873 55.4999 139.5 55.873 139.5 56.3333V57.9999ZM156.166 69.6666C156.166 71.0473 155.047 72.1666 153.666 72.1666H140.333C138.952 72.1666 137.833 71.0473 137.833 69.6666L137.833 56.3333C137.833 54.9525 138.952 53.8333 140.333 53.8333L153.666 53.8333C155.047 53.8333 156.166 54.9525 156.166 56.3333V69.6666Z" fill="#4D4354"/>
<path fill-rule="evenodd" clip-rule="evenodd" d="M74.5 33C79.7467 33 84 28.7467 84 23.5C84 21.8719 83.5904 20.3394 82.8687 19H117C123.627 19 129 24.3726 129 31V63C129 69.6274 123.627 75 117 75H81C74.3726 75 69 69.6274 69 63V31.2469C70.5521 32.3508 72.4503 33 74.5 33Z" fill="#4D4354"/>
<circle cx="74.5" cy="23.5" r="5.5" fill="#4D4354"/>
<path d="M104.589 44.2558C104.915 43.9304 104.915 43.4028 104.589 43.0773C104.264 42.7519 103.736 42.7519 103.411 43.0773L97.3335 49.1547L94.5894 46.4107C94.264 46.0852 93.7363 46.0852 93.4109 46.4107C93.0855 46.7361 93.0855 47.2637 93.4109 47.5892L96.7442 50.9225C97.0697 51.2479 97.5973 51.2479 97.9228 50.9225L104.589 44.2558Z" fill="#C2B0CF"/>
<path fill-rule="evenodd" clip-rule="evenodd" d="M92.3335 37.8333C90.9528 37.8333 89.8335 38.9525 89.8335 40.3333V53.6666C89.8335 55.0473 90.9528 56.1666 92.3335 56.1666H105.667C107.048 56.1666 108.167 55.0473 108.167 53.6666V40.3333C108.167 38.9525 107.048 37.8333 105.667 37.8333H92.3335ZM91.5002 40.3333C91.5002 39.873 91.8733 39.4999 92.3335 39.4999H105.667C106.127 39.4999 106.5 39.873 106.5 40.3333V53.6666C106.5 54.1268 106.127 54.4999 105.667 54.4999H92.3335C91.8733 54.4999 91.5002 54.1268 91.5002 53.6666V40.3333Z" fill="#C2B0CF"/>
<path fill-rule="evenodd" clip-rule="evenodd" d="M188.667 18.3334H184.667V14.3334C184.667 13.9647 184.368 13.6667 184 13.6667C183.632 13.6667 183.333 13.9647 183.333 14.3334V18.3334H179.333C178.965 18.3334 178.667 18.6314 178.667 19.0001C178.667 19.3687 178.965 19.6667 179.333 19.6667H183.333V23.6667C183.333 24.0354 183.632 24.3334 184 24.3334C184.368 24.3334 184.667 24.0354 184.667 23.6667V19.6667H188.667C189.035 19.6667 189.333 19.3687 189.333 19.0001C189.333 18.6314 189.035 18.3334 188.667 18.3334Z" fill="#4D4354"/>
<path fill-rule="evenodd" clip-rule="evenodd" d="M19.6665 96.3334H15.6665V92.3334C15.6665 91.9647 15.3678 91.6667 14.9998 91.6667C14.6318 91.6667 14.3332 91.9647 14.3332 92.3334V96.3334H10.3332C9.96517 96.3334 9.6665 96.6314 9.6665 97.0001C9.6665 97.3687 9.96517 97.6667 10.3332 97.6667H14.3332V101.667C14.3332 102.035 14.6318 102.333 14.9998 102.333C15.3678 102.333 15.6665 102.035 15.6665 101.667V97.6667H19.6665C20.0345 97.6667 20.3332 97.3687 20.3332 97.0001C20.3332 96.6314 20.0345 96.3334 19.6665 96.3334Z" fill="#4D4354"/>
<path fill-rule="evenodd" clip-rule="evenodd" d="M49.3335 19.6666H47.3335V17.6666C47.3335 17.4823 47.1842 17.3333 47.0002 17.3333C46.8162 17.3333 46.6668 17.4823 46.6668 17.6666V19.6666H44.6668C44.4828 19.6666 44.3335 19.8156 44.3335 19.9999C44.3335 20.1843 44.4828 20.3333 44.6668 20.3333H46.6668V22.3333C46.6668 22.5176 46.8162 22.6666 47.0002 22.6666C47.1842 22.6666 47.3335 22.5176 47.3335 22.3333V20.3333H49.3335C49.5175 20.3333 49.6668 20.1843 49.6668 19.9999C49.6668 19.8156 49.5175 19.6666 49.3335 19.6666Z" fill="#4D4354"/>
</svg>
