<svg width="200" height="113" viewBox="0 0 200 113" fill="none" xmlns="http://www.w3.org/2000/svg">
<rect x="22" y="35" width="60" height="56" rx="12" fill="#201429" fill-opacity="0.16"/>
<path fill-rule="evenodd" clip-rule="evenodd" d="M59.5002 58.833C59.5002 61.5944 57.2616 63.833 54.5002 63.833C51.7387 63.833 49.5002 61.5944 49.5002 58.833C49.5002 56.0716 51.7387 53.833 54.5002 53.833C57.2616 53.833 59.5002 56.0716 59.5002 58.833ZM57.8335 58.833C57.8335 60.674 56.3411 62.1663 54.5002 62.1663C52.6592 62.1663 51.1668 60.674 51.1668 58.833C51.1668 56.9921 52.6592 55.4997 54.5002 55.4997C56.3411 55.4997 57.8335 56.9921 57.8335 58.833Z" fill="#4D4354"/>
<path d="M48.8326 55.5662C49.2837 55.4746 49.5751 55.0348 49.4835 54.5837C49.392 54.1327 48.9521 53.8413 48.5011 53.9328C46.2185 54.3962 44.5002 56.4129 44.5002 58.8328C44.5002 61.2528 46.2185 63.2695 48.5011 63.7328C48.9521 63.8244 49.392 63.533 49.4835 63.0819C49.5751 62.6309 49.2837 62.191 48.8326 62.0995C47.3115 61.7907 46.1668 60.4445 46.1668 58.8328C46.1668 57.2212 47.3115 55.875 48.8326 55.5662Z" fill="#4D4354"/>
<path fill-rule="evenodd" clip-rule="evenodd" d="M50.0818 65.9776C51.1091 65.189 52.5411 64.6663 54.5002 64.6663C56.4594 64.6663 57.8913 65.189 58.9187 65.9776C59.9384 66.7604 60.4931 67.7538 60.7939 68.5902C61.0587 69.3263 60.8732 70.0469 60.4292 70.5576C60.0004 71.0507 59.3511 71.333 58.6668 71.333H50.3335C49.6492 71.333 49 71.0507 48.5712 70.5576C48.1271 70.0469 47.9416 69.3263 48.2064 68.5902C48.5073 67.7538 49.0621 66.7603 50.0818 65.9776ZM51.0966 67.2997C50.3948 67.8384 49.9989 68.5312 49.7747 69.1543C49.728 69.2843 49.7537 69.3775 49.8289 69.464C49.9193 69.568 50.0973 69.6663 50.3335 69.6663H58.6668C58.903 69.6663 59.081 69.568 59.1715 69.464C59.2467 69.3775 59.2724 69.2843 59.2256 69.1543C59.0015 68.5312 58.6056 67.8384 57.9038 67.2997C57.2097 66.7669 56.1493 66.333 54.5002 66.333C52.8511 66.333 51.7907 66.7669 51.0966 67.2997Z" fill="#4D4354"/>
<path d="M44.7093 69.0637C44.8799 68.4069 45.1727 67.7162 45.6558 67.2C46.1151 66.7094 46.7839 66.333 47.8335 66.333C48.2937 66.333 48.6668 65.9599 48.6668 65.4997C48.6668 65.0394 48.2937 64.6663 47.8335 64.6663C46.3163 64.6663 45.209 65.2386 44.4391 66.061C43.6932 66.8579 43.304 67.8445 43.0961 68.6448C42.6935 70.1952 44.0123 71.333 45.3335 71.333H45.9745C46.4347 71.333 46.8078 70.9599 46.8078 70.4997C46.8078 70.0394 46.4347 69.6663 45.9745 69.6663H45.3335C45.098 69.6663 44.9105 69.5696 44.804 69.4518C44.7074 69.3452 44.669 69.2188 44.7093 69.0637Z" fill="#4D4354"/>
<rect x="117" y="35" width="60" height="56" rx="12" fill="#201429" fill-opacity="0.16"/>
<path fill-rule="evenodd" clip-rule="evenodd" d="M154.5 58.833C154.5 61.5944 152.262 63.833 149.5 63.833C146.739 63.833 144.5 61.5944 144.5 58.833C144.5 56.0716 146.739 53.833 149.5 53.833C152.262 53.833 154.5 56.0716 154.5 58.833ZM152.834 58.833C152.834 60.674 151.341 62.1663 149.5 62.1663C147.659 62.1663 146.167 60.674 146.167 58.833C146.167 56.9921 147.659 55.4997 149.5 55.4997C151.341 55.4997 152.834 56.9921 152.834 58.833Z" fill="#4D4354"/>
<path d="M143.833 55.5662C144.284 55.4746 144.575 55.0348 144.484 54.5837C144.392 54.1327 143.952 53.8413 143.501 53.9328C141.218 54.3962 139.5 56.4129 139.5 58.8328C139.5 61.2528 141.218 63.2695 143.501 63.7328C143.952 63.8244 144.392 63.533 144.484 63.0819C144.575 62.6309 144.284 62.191 143.833 62.0995C142.311 61.7907 141.167 60.4445 141.167 58.8328C141.167 57.2212 142.311 55.875 143.833 55.5662Z" fill="#4D4354"/>
<path fill-rule="evenodd" clip-rule="evenodd" d="M145.082 65.9776C146.109 65.189 147.541 64.6663 149.5 64.6663C151.459 64.6663 152.891 65.189 153.919 65.9776C154.938 66.7604 155.493 67.7538 155.794 68.5902C156.059 69.3263 155.873 70.0469 155.429 70.5576C155 71.0507 154.351 71.333 153.667 71.333H145.334C144.649 71.333 144 71.0507 143.571 70.5576C143.127 70.0469 142.942 69.3263 143.206 68.5902C143.507 67.7538 144.062 66.7603 145.082 65.9776ZM146.097 67.2997C145.395 67.8384 144.999 68.5312 144.775 69.1543C144.728 69.2843 144.754 69.3775 144.829 69.464C144.919 69.568 145.097 69.6663 145.334 69.6663H153.667C153.903 69.6663 154.081 69.568 154.171 69.464C154.247 69.3775 154.272 69.2843 154.226 69.1543C154.002 68.5312 153.606 67.8384 152.904 67.2997C152.21 66.7669 151.149 66.333 149.5 66.333C147.851 66.333 146.791 66.7669 146.097 67.2997Z" fill="#4D4354"/>
<path d="M139.709 69.0637C139.88 68.4069 140.173 67.7162 140.656 67.2C141.115 66.7094 141.784 66.333 142.834 66.333C143.294 66.333 143.667 65.9599 143.667 65.4997C143.667 65.0394 143.294 64.6663 142.834 64.6663C141.316 64.6663 140.209 65.2386 139.439 66.061C138.693 66.8579 138.304 67.8445 138.096 68.6448C137.693 70.1952 139.012 71.333 140.333 71.333H140.974C141.435 71.333 141.808 70.9599 141.808 70.4997C141.808 70.0394 141.435 69.6663 140.974 69.6663H140.333C140.098 69.6663 139.911 69.5696 139.804 69.4518C139.707 69.3452 139.669 69.2188 139.709 69.0637Z" fill="#4D4354"/>
<path fill-rule="evenodd" clip-rule="evenodd" d="M74.5 33C79.7467 33 84 28.7467 84 23.5C84 21.8719 83.5904 20.3394 82.8687 19H117C123.627 19 129 24.3726 129 31V63C129 69.6274 123.627 75 117 75H81C74.3726 75 69 69.6274 69 63V31.2469C70.5521 32.3508 72.4503 33 74.5 33Z" fill="#4D4354"/>
<circle cx="74.5" cy="23.5" r="5.5" fill="#4D4354"/>
<path fill-rule="evenodd" clip-rule="evenodd" d="M104 42.833C104 45.5944 101.762 47.833 99.0001 47.833C96.2387 47.833 94.0001 45.5944 94.0001 42.833C94.0001 40.0716 96.2387 37.833 99.0001 37.833C101.762 37.833 104 40.0716 104 42.833ZM102.333 42.833C102.333 44.674 100.841 46.1663 99.0001 46.1663C97.1591 46.1663 95.6668 44.674 95.6668 42.833C95.6668 40.9921 97.1591 39.4997 99.0001 39.4997C100.841 39.4997 102.333 40.9921 102.333 42.833Z" fill="#C2B0CF"/>
<path d="M92.6644 53.2402C92.9378 52.6411 93.4402 51.9307 94.3845 51.3628C95.334 50.7918 96.7836 50.333 99.0001 50.333C99.4604 50.333 99.8335 49.9599 99.8335 49.4997C99.8335 49.0394 99.4604 48.6663 99.0001 48.6663C96.5542 48.6663 94.7907 49.1737 93.5256 49.9345C92.2555 50.6982 91.5421 51.685 91.1482 52.5481C90.8161 53.2756 90.9673 54.017 91.4085 54.5451C91.829 55.0486 92.4829 55.333 93.1668 55.333H99.0001C99.4603 55.333 99.8334 54.9599 99.8334 54.4997C99.8334 54.0394 99.4603 53.6663 99.0001 53.6663H93.1668C92.9302 53.6663 92.7627 53.5666 92.6876 53.4767C92.6526 53.4348 92.6404 53.4 92.6367 53.3752C92.6335 53.3535 92.6321 53.3109 92.6644 53.2402Z" fill="#C2B0CF"/>
<path d="M104 48.6663C104.46 48.6663 104.833 49.0394 104.833 49.4997V51.1663L106.5 51.1663C106.96 51.1663 107.333 51.5394 107.333 51.9997C107.333 52.4599 106.96 52.833 106.5 52.833L104.833 52.8329V54.4997C104.833 54.9599 104.46 55.333 104 55.333C103.54 55.333 103.167 54.9599 103.167 54.4997V52.8329L101.5 52.8329C101.04 52.8329 100.667 52.4597 100.667 51.9995C100.667 51.5393 101.04 51.1662 101.5 51.1662L103.167 51.1662V49.4997C103.167 49.0394 103.54 48.6663 104 48.6663Z" fill="#C2B0CF"/>
<circle r="2" transform="matrix(1 0 0 -1 98 91)" fill="#4D4354"/>
<circle r="2" transform="matrix(1 0 0 -1 17 13)" fill="#201429" fill-opacity="0.16"/>
<path fill-rule="evenodd" clip-rule="evenodd" d="M188.667 18.3337H184.667V14.3337C184.667 13.965 184.368 13.667 184 13.667C183.632 13.667 183.333 13.965 183.333 14.3337V18.3337H179.333C178.965 18.3337 178.667 18.6317 178.667 19.0003C178.667 19.369 178.965 19.667 179.333 19.667H183.333V23.667C183.333 24.0357 183.632 24.3337 184 24.3337C184.368 24.3337 184.667 24.0357 184.667 23.667V19.667H188.667C189.035 19.667 189.333 19.369 189.333 19.0003C189.333 18.6317 189.035 18.3337 188.667 18.3337Z" fill="#4D4354"/>
<path fill-rule="evenodd" clip-rule="evenodd" d="M19.6665 96.3337H15.6665V92.3337C15.6665 91.965 15.3678 91.667 14.9998 91.667C14.6318 91.667 14.3332 91.965 14.3332 92.3337V96.3337H10.3332C9.96517 96.3337 9.6665 96.6317 9.6665 97.0003C9.6665 97.369 9.96517 97.667 10.3332 97.667H14.3332V101.667C14.3332 102.036 14.6318 102.334 14.9998 102.334C15.3678 102.334 15.6665 102.036 15.6665 101.667V97.667H19.6665C20.0345 97.667 20.3332 97.369 20.3332 97.0003C20.3332 96.6317 20.0345 96.3337 19.6665 96.3337Z" fill="#4D4354"/>
<path fill-rule="evenodd" clip-rule="evenodd" d="M49.3335 19.6663H47.3335V17.6663C47.3335 17.482 47.1842 17.333 47.0002 17.333C46.8162 17.333 46.6668 17.482 46.6668 17.6663V19.6663H44.6668C44.4828 19.6663 44.3335 19.8153 44.3335 19.9997C44.3335 20.184 44.4828 20.333 44.6668 20.333H46.6668V22.333C46.6668 22.5173 46.8162 22.6663 47.0002 22.6663C47.1842 22.6663 47.3335 22.5173 47.3335 22.333V20.333H49.3335C49.5175 20.333 49.6668 20.184 49.6668 19.9997C49.6668 19.8153 49.5175 19.6663 49.3335 19.6663Z" fill="#4D4354"/>
</svg>
