<svg width="200" height="113" viewBox="0 0 200 113" fill="none" xmlns="http://www.w3.org/2000/svg">
<circle r="2" transform="matrix(1 0 0 -1 98 91)" fill="#4D4354"/>
<circle r="2" transform="matrix(1 0 0 -1 17 13)" fill="#201429" fill-opacity="0.16"/>
<rect x="22" y="35" width="60" height="56" rx="12" fill="#201429" fill-opacity="0.16"/>
<path fill-rule="evenodd" clip-rule="evenodd" d="M51.5 65.5996V60.4006L54.309 62.9996L51.5 65.5996ZM52.339 58.4526C51.841 57.9906 51.114 57.8706 50.488 58.1456C49.878 58.4116 49.5 58.9806 49.5 59.6296V66.3706C49.5 67.0196 49.878 67.5886 50.488 67.8546C50.711 67.9526 50.948 67.9996 51.181 67.9996C51.604 67.9996 52.019 67.8446 52.338 67.5486L55.98 64.1786C56.311 63.8726 56.5 63.4436 56.5 62.9996C56.5 62.5566 56.311 62.1266 55.98 61.8216L52.339 58.4526ZM52 71C47.589 71 44 67.411 44 63C44 58.589 47.589 55 52 55C56.411 55 60 58.589 60 63C60 67.411 56.411 71 52 71ZM52 53C46.486 53 42 57.486 42 63C42 68.514 46.486 73 52 73C57.514 73 62 68.514 62 63C62 57.486 57.514 53 52 53Z" fill="#4D4354"/>
<rect x="117" y="35" width="60" height="56" rx="12" fill="#201429" fill-opacity="0.16"/>
<path fill-rule="evenodd" clip-rule="evenodd" d="M146.5 65.5996V60.4006L149.309 62.9996L146.5 65.5996ZM147.339 58.4526C146.841 57.9906 146.114 57.8706 145.488 58.1456C144.878 58.4116 144.5 58.9806 144.5 59.6296V66.3706C144.5 67.0196 144.878 67.5886 145.488 67.8546C145.711 67.9526 145.948 67.9996 146.181 67.9996C146.604 67.9996 147.019 67.8446 147.338 67.5486L150.98 64.1786C151.311 63.8726 151.5 63.4436 151.5 62.9996C151.5 62.5566 151.311 62.1266 150.98 61.8216L147.339 58.4526ZM147 71C142.589 71 139 67.411 139 63C139 58.589 142.589 55 147 55C151.411 55 155 58.589 155 63C155 67.411 151.411 71 147 71ZM147 53C141.486 53 137 57.486 137 63C137 68.514 141.486 73 147 73C152.514 73 157 68.514 157 63C157 57.486 152.514 53 147 53Z" fill="#4D4354"/>
<path fill-rule="evenodd" clip-rule="evenodd" d="M74.5 33C79.7467 33 84 28.7467 84 23.5C84 21.8719 83.5904 20.3394 82.8687 19H117C123.627 19 129 24.3726 129 31V63C129 69.6274 123.627 75 117 75H81C74.3726 75 69 69.6274 69 63V31.2469C70.5521 32.3508 72.4503 33 74.5 33Z" fill="#4D4354"/>
<circle cx="74.5" cy="23.5" r="5.5" fill="#4D4354"/>
<path fill-rule="evenodd" clip-rule="evenodd" d="M98.5 49.5996V44.4006L101.309 46.9996L98.5 49.5996ZM99.339 42.4526C98.841 41.9906 98.114 41.8706 97.488 42.1456C96.878 42.4116 96.5 42.9806 96.5 43.6296V50.3706C96.5 51.0196 96.878 51.5886 97.488 51.8546C97.711 51.9526 97.948 51.9996 98.181 51.9996C98.604 51.9996 99.019 51.8446 99.338 51.5486L102.98 48.1786C103.311 47.8726 103.5 47.4436 103.5 46.9996C103.5 46.5566 103.311 46.1266 102.98 45.8216L99.339 42.4526ZM99 55C94.589 55 91 51.411 91 47C91 42.589 94.589 39 99 39C103.411 39 107 42.589 107 47C107 51.411 103.411 55 99 55ZM99 37C93.486 37 89 41.486 89 47C89 52.514 93.486 57 99 57C104.514 57 109 52.514 109 47C109 41.486 104.514 37 99 37Z" fill="#C2B0CF"/>
<path fill-rule="evenodd" clip-rule="evenodd" d="M188.667 18.3337H184.667V14.3337C184.667 13.965 184.368 13.667 184 13.667C183.632 13.667 183.333 13.965 183.333 14.3337V18.3337H179.333C178.965 18.3337 178.667 18.6317 178.667 19.0003C178.667 19.369 178.965 19.667 179.333 19.667H183.333V23.667C183.333 24.0357 183.632 24.3337 184 24.3337C184.368 24.3337 184.667 24.0357 184.667 23.667V19.667H188.667C189.035 19.667 189.333 19.369 189.333 19.0003C189.333 18.6317 189.035 18.3337 188.667 18.3337Z" fill="#4D4354"/>
<path fill-rule="evenodd" clip-rule="evenodd" d="M19.6665 96.3337H15.6665V92.3337C15.6665 91.965 15.3678 91.667 14.9998 91.667C14.6318 91.667 14.3332 91.965 14.3332 92.3337V96.3337H10.3332C9.96517 96.3337 9.6665 96.6317 9.6665 97.0003C9.6665 97.369 9.96517 97.667 10.3332 97.667H14.3332V101.667C14.3332 102.036 14.6318 102.334 14.9998 102.334C15.3678 102.334 15.6665 102.036 15.6665 101.667V97.667H19.6665C20.0345 97.667 20.3332 97.369 20.3332 97.0003C20.3332 96.6317 20.0345 96.3337 19.6665 96.3337Z" fill="#4D4354"/>
<path fill-rule="evenodd" clip-rule="evenodd" d="M49.3335 19.6663H47.3335V17.6663C47.3335 17.482 47.1842 17.333 47.0002 17.333C46.8162 17.333 46.6668 17.482 46.6668 17.6663V19.6663H44.6668C44.4828 19.6663 44.3335 19.8153 44.3335 19.9997C44.3335 20.184 44.4828 20.333 44.6668 20.333H46.6668V22.333C46.6668 22.5173 46.8162 22.6663 47.0002 22.6663C47.1842 22.6663 47.3335 22.5173 47.3335 22.333V20.333H49.3335C49.5175 20.333 49.6668 20.184 49.6668 19.9997C49.6668 19.8153 49.5175 19.6663 49.3335 19.6663Z" fill="#4D4354"/>
</svg>
