<svg width="200" height="113" viewBox="0 0 200 113" fill="none" xmlns="http://www.w3.org/2000/svg">
<circle r="2" transform="matrix(1 0 0 -1 98 91)" fill="#4D4354"/>
<circle r="2" transform="matrix(1 0 0 -1 17 13)" fill="#201429" fill-opacity="0.16"/>
<rect x="22" y="35" width="60" height="56" rx="12" fill="#201429" fill-opacity="0.16"/>
<path fill-rule="evenodd" clip-rule="evenodd" d="M56.4408 68.6188C55.0042 69.7944 53.1679 70.4997 51.1668 70.4997C46.5645 70.4997 42.8335 66.7687 42.8335 62.1663C42.8335 57.564 46.5645 53.833 51.1668 53.833C55.7692 53.833 59.5002 57.564 59.5002 62.1663C59.5002 64.1674 58.7948 66.0037 57.6193 67.4403L60.9227 70.7437C61.2481 71.0692 61.2481 71.5968 60.9227 71.9223C60.5973 72.2477 60.0696 72.2477 59.7442 71.9223L56.4408 68.6188ZM57.8335 62.1663C57.8335 65.8482 54.8487 68.833 51.1668 68.833C47.4849 68.833 44.5002 65.8482 44.5002 62.1663C44.5002 58.4844 47.4849 55.4997 51.1668 55.4997C54.8487 55.4997 57.8335 58.4844 57.8335 62.1663Z" fill="#4D4354"/>
<rect x="117" y="35" width="60" height="56" rx="12" fill="#201429" fill-opacity="0.16"/>
<path fill-rule="evenodd" clip-rule="evenodd" d="M151.441 68.6188C150.004 69.7944 148.168 70.4997 146.167 70.4997C141.564 70.4997 137.833 66.7687 137.833 62.1663C137.833 57.564 141.564 53.833 146.167 53.833C150.769 53.833 154.5 57.564 154.5 62.1663C154.5 64.1674 153.795 66.0037 152.619 67.4403L155.923 70.7437C156.248 71.0692 156.248 71.5968 155.923 71.9223C155.597 72.2477 155.07 72.2477 154.744 71.9223L151.441 68.6188ZM152.833 62.1663C152.833 65.8482 149.849 68.833 146.167 68.833C142.485 68.833 139.5 65.8482 139.5 62.1663C139.5 58.4844 142.485 55.4997 146.167 55.4997C149.849 55.4997 152.833 58.4844 152.833 62.1663Z" fill="#4D4354"/>
<path fill-rule="evenodd" clip-rule="evenodd" d="M74.5 33C79.7467 33 84 28.7467 84 23.5C84 21.8719 83.5904 20.3394 82.8687 19H117C123.627 19 129 24.3726 129 31V63C129 69.6274 123.627 75 117 75H81C74.3726 75 69 69.6274 69 63V31.2469C70.5521 32.3508 72.4503 33 74.5 33Z" fill="#4D4354"/>
<circle cx="74.5" cy="23.5" r="5.5" fill="#4D4354"/>
<path fill-rule="evenodd" clip-rule="evenodd" d="M103.441 52.6188C102.004 53.7944 100.168 54.4997 98.1668 54.4997C93.5645 54.4997 89.8335 50.7687 89.8335 46.1663C89.8335 41.564 93.5645 37.833 98.1668 37.833C102.769 37.833 106.5 41.564 106.5 46.1663C106.5 48.1674 105.795 50.0037 104.619 51.4403L107.923 54.7437C108.248 55.0692 108.248 55.5968 107.923 55.9223C107.597 56.2477 107.07 56.2477 106.744 55.9223L103.441 52.6188ZM104.833 46.1663C104.833 49.8482 101.849 52.833 98.1668 52.833C94.4849 52.833 91.5002 49.8482 91.5002 46.1663C91.5002 42.4844 94.4849 39.4997 98.1668 39.4997C101.849 39.4997 104.833 42.4844 104.833 46.1663Z" fill="#C2B0CF"/>
<path fill-rule="evenodd" clip-rule="evenodd" d="M188.667 18.3337H184.667V14.3337C184.667 13.965 184.368 13.667 184 13.667C183.632 13.667 183.333 13.965 183.333 14.3337V18.3337H179.333C178.965 18.3337 178.667 18.6317 178.667 19.0003C178.667 19.369 178.965 19.667 179.333 19.667H183.333V23.667C183.333 24.0357 183.632 24.3337 184 24.3337C184.368 24.3337 184.667 24.0357 184.667 23.667V19.667H188.667C189.035 19.667 189.333 19.369 189.333 19.0003C189.333 18.6317 189.035 18.3337 188.667 18.3337Z" fill="#4D4354"/>
<path fill-rule="evenodd" clip-rule="evenodd" d="M19.6665 96.3337H15.6665V92.3337C15.6665 91.965 15.3678 91.667 14.9998 91.667C14.6318 91.667 14.3332 91.965 14.3332 92.3337V96.3337H10.3332C9.96517 96.3337 9.6665 96.6317 9.6665 97.0003C9.6665 97.369 9.96517 97.667 10.3332 97.667H14.3332V101.667C14.3332 102.036 14.6318 102.334 14.9998 102.334C15.3678 102.334 15.6665 102.036 15.6665 101.667V97.667H19.6665C20.0345 97.667 20.3332 97.369 20.3332 97.0003C20.3332 96.6317 20.0345 96.3337 19.6665 96.3337Z" fill="#4D4354"/>
<path fill-rule="evenodd" clip-rule="evenodd" d="M49.3335 19.6663H47.3335V17.6663C47.3335 17.482 47.1842 17.333 47.0002 17.333C46.8162 17.333 46.6668 17.482 46.6668 17.6663V19.6663H44.6668C44.4828 19.6663 44.3335 19.8153 44.3335 19.9997C44.3335 20.184 44.4828 20.333 44.6668 20.333H46.6668V22.333C46.6668 22.5173 46.8162 22.6663 47.0002 22.6663C47.1842 22.6663 47.3335 22.5173 47.3335 22.333V20.333H49.3335C49.5175 20.333 49.6668 20.184 49.6668 19.9997C49.6668 19.8153 49.5175 19.6663 49.3335 19.6663Z" fill="#4D4354"/>
</svg>
