<svg width="133" height="95" viewBox="0 0 133 95" fill="none" xmlns="http://www.w3.org/2000/svg">
<circle r="2" transform="matrix(1 0 0 -1 25 2)" fill="#C2B0CF"/>
<path d="M59.6683 37.2499H104.603C104.566 33.4614 101.837 30.7539 98.4741 30.7539H53.5391C56.9017 30.7539 59.6307 33.4614 59.6683 37.2499Z" fill="#B8A4C7"/>
<path d="M92.3314 36.8849C92.3314 33.4988 95.0764 30.7539 98.4623 30.7539H53.5275C50.1413 30.7539 47.3965 33.4988 47.3965 36.8849V87.2496H86.2004C89.5865 87.2496 92.3314 84.5047 92.3314 81.1186V36.8849Z" fill="#DFD6E5"/>
<path d="M90.8694 30.7539C87.4834 30.7539 84.7384 33.4989 84.7384 36.8849V81.1187C84.7384 84.5047 81.9935 87.2497 78.6074 87.2497H86.2012C89.5873 87.2497 92.3321 84.5047 92.3321 81.1187V36.8849C92.3321 33.4989 95.0771 30.7539 98.4631 30.7539H90.8694Z" fill="#C2B0CF"/>
<path d="M79.9349 80.7539H35C35.0377 84.5425 37.7667 87.2499 41.1291 87.2499H86.064C82.7015 87.2499 79.9726 84.5425 79.9349 80.7539Z" fill="#C2B0CF"/>
<path d="M75.8086 69.1345C77.0706 65.2107 78.2056 61.2031 80.8867 58.1423C86.7435 51.4564 98.4835 49.4922 106.999 49.7115C104.335 51.9116 102.012 54.1369 99.3202 57.0499C96.3026 60.3158 89.7182 64.6615 86.5495 65.636C81.6143 67.1537 79.3311 67.4075 75.8086 69.1345Z" fill="#F7F4F2"/>
<path d="M75.8086 69.1362C77.0706 65.2123 98.4835 49.4938 106.999 49.7132C104.335 51.9133 102.012 54.1385 99.3202 57.0516C96.3026 60.3175 89.7182 64.6632 86.5495 65.6377C81.6143 67.1554 79.3311 67.4092 75.8086 69.1362Z" fill="#DFD6E5"/>
<path d="M70.3594 76.5697C70.3594 76.5697 71.3643 73.2307 71.5474 72.9371C72.5505 71.3282 73.608 70.2106 74.9208 68.639C79.4558 63.2094 94.3216 53.6959 94.5993 54.2285C94.8771 54.7609 80.7833 64.4152 76.4331 69.6235C75.2168 71.0797 74.3159 72.5272 73.3408 74.0913C73.154 74.3904 70.3594 76.5697 70.3594 76.5697Z" fill="#F7F4F2"/>
<path d="M86.4568 43.8906H55.543C54.9605 43.8906 54.4883 43.4185 54.4883 42.8359C54.4883 42.2533 54.9605 41.7812 55.543 41.7812H86.4568C87.0393 41.7812 87.5115 42.2533 87.5115 42.8359C87.5115 43.4185 87.0393 43.8906 86.4568 43.8906Z" fill="#C2B0CF"/>
<path d="M66.5739 76.2188H55.543C54.9605 76.2188 54.4883 75.7467 54.4883 75.1641C54.4883 74.5815 54.9605 74.1094 55.543 74.1094H66.5739C67.1563 74.1094 67.6286 74.5815 67.6286 75.1641C67.6286 75.7467 67.1563 76.2188 66.5739 76.2188Z" fill="#C2B0CF"/>
<path d="M70.9999 65.4414H55.543C54.9605 65.4414 54.4883 64.9693 54.4883 64.3867C54.4883 63.8041 54.9605 63.332 55.543 63.332H70.9999C71.5824 63.332 72.0546 63.8041 72.0546 64.3867C72.0546 64.9693 71.5824 65.4414 70.9999 65.4414Z" fill="#C2B0CF"/>
<path d="M78.524 54.668H55.543C54.9605 54.668 54.4883 54.1959 54.4883 53.6133C54.4883 53.0307 54.9605 52.5586 55.543 52.5586H78.524C79.1065 52.5586 79.5787 53.0307 79.5787 53.6133C79.5787 54.1959 79.1065 54.668 78.524 54.668Z" fill="#C2B0CF"/>
<circle r="2" transform="matrix(1 0 0 -1 120 18)" fill="#C2B0CF"/>
<path fill-rule="evenodd" clip-rule="evenodd" d="M129.666 50.3346H125.666V46.3346C125.666 45.966 125.367 45.668 124.999 45.668C124.631 45.668 124.333 45.966 124.333 46.3346V50.3346H120.333C119.965 50.3346 119.666 50.6326 119.666 51.0013C119.666 51.37 119.965 51.668 120.333 51.668H124.333V55.668C124.333 56.0366 124.631 56.3346 124.999 56.3346C125.367 56.3346 125.666 56.0366 125.666 55.668V51.668H129.666C130.034 51.668 130.333 51.37 130.333 51.0013C130.333 50.6326 130.034 50.3346 129.666 50.3346Z" fill="#DFD6E5"/>
<circle r="2" transform="matrix(1 0 0 -1 2 41)" fill="#DFD6E5"/>
<path fill-rule="evenodd" clip-rule="evenodd" d="M16.666 86.3346H12.666V82.3346C12.666 81.966 12.3673 81.668 11.9993 81.668C11.6313 81.668 11.3327 81.966 11.3327 82.3346V86.3346H7.33268C6.96468 86.3346 6.66602 86.6326 6.66602 87.0013C6.66602 87.37 6.96468 87.668 7.33268 87.668H11.3327V91.668C11.3327 92.0366 11.6313 92.3346 11.9993 92.3346C12.3673 92.3346 12.666 92.0366 12.666 91.668V87.668H16.666C17.034 87.668 17.3327 87.37 17.3327 87.0013C17.3327 86.6326 17.034 86.3346 16.666 86.3346Z" fill="#C2B0CF"/>
<path fill-rule="evenodd" clip-rule="evenodd" d="M60.334 3.66536H58.334V1.66536C58.334 1.48103 58.1847 1.33203 58.0007 1.33203C57.8167 1.33203 57.6673 1.48103 57.6673 1.66536V3.66536H55.6673C55.4833 3.66536 55.334 3.81436 55.334 3.9987C55.334 4.18303 55.4833 4.33203 55.6673 4.33203H57.6673V6.33203C57.6673 6.51636 57.8167 6.66536 58.0007 6.66536C58.1847 6.66536 58.334 6.51636 58.334 6.33203V4.33203H60.334C60.518 4.33203 60.6673 4.18303 60.6673 3.9987C60.6673 3.81436 60.518 3.66536 60.334 3.66536Z" fill="#C2B0CF"/>
</svg>
