<svg width="43" height="43" viewBox="0 0 43 43" fill="none" xmlns="http://www.w3.org/2000/svg">
<path d="M21.0844 42.1688C32.729 42.1688 42.1688 32.729 42.1688 21.0844C42.1688 9.4398 32.729 0 21.0844 0C9.4398 0 0 9.4398 0 21.0844C0 32.729 9.4398 42.1688 21.0844 42.1688Z" fill="#EE6C4D"/>
<path d="M19.9609 27.0109V15.1609C19.9609 14.0359 19.4859 13.5859 18.2859 13.5859H15.2609C14.0609 13.5859 13.5859 14.0359 13.5859 15.1609V27.0109C13.5859 28.1359 14.0609 28.5859 15.2609 28.5859H18.2859C19.4859 28.5859 19.9609 28.1359 19.9609 27.0109Z" fill="white"/>
<path d="M28.5859 27.0109V15.1609C28.5859 14.0359 28.1109 13.5859 26.9109 13.5859H23.8859C22.6943 13.5859 22.2109 14.0359 22.2109 15.1609V27.0109C22.2109 28.1359 22.6859 28.5859 23.8859 28.5859H26.9109C28.1109 28.5859 28.5859 28.1359 28.5859 27.0109Z" fill="white"/>
</svg>
