<svg width="16" height="17" viewBox="0 0 16 17" fill="none" xmlns="http://www.w3.org/2000/svg">
<path fill-rule="evenodd" clip-rule="evenodd" d="M11.9997 7.33171C11.9997 6.96437 11.701 6.66504 11.333 6.66504C10.965 6.66504 10.6663 6.96437 10.6663 7.33171C10.6663 7.69904 10.965 7.99837 11.333 7.99837C11.701 7.99837 11.9997 7.69904 11.9997 7.33171ZM13.333 7.33171C13.333 8.43437 12.4357 9.33171 11.333 9.33171C10.2303 9.33171 9.33301 8.43437 9.33301 7.33171C9.33301 6.22904 10.2303 5.33171 11.333 5.33171C12.4357 5.33171 13.333 6.22904 13.333 7.33171ZM7.33301 5.33171C7.33301 4.59637 6.73501 3.99837 5.99967 3.99837C5.26434 3.99837 4.66634 4.59637 4.66634 5.33171C4.66634 6.06704 5.26434 6.66504 5.99967 6.66504C6.73501 6.66504 7.33301 6.06704 7.33301 5.33171ZM8.66634 5.33171C8.66634 6.80237 7.47034 7.99837 5.99967 7.99837C4.52901 7.99837 3.33301 6.80237 3.33301 5.33171C3.33301 3.86104 4.52901 2.66504 5.99967 2.66504C7.47034 2.66504 8.66634 3.86104 8.66634 5.33171ZM9.29301 10.6957C9.87234 10.2477 10.5857 9.99837 11.333 9.99837C13.171 9.99837 14.6663 11.4937 14.6663 13.3317C14.6663 13.6997 14.3683 13.9984 13.9997 13.9984C13.631 13.9984 13.333 13.6997 13.333 13.3317C13.333 12.229 12.4357 11.3317 11.333 11.3317C10.8777 11.3317 10.445 11.4877 10.0957 11.7644C10.4583 12.4284 10.6663 13.1897 10.6663 13.9984C10.6663 14.3664 10.3683 14.665 9.99967 14.665C9.63101 14.665 9.33301 14.3664 9.33301 13.9984C9.33301 12.1604 7.83767 10.665 5.99967 10.665C4.16167 10.665 2.66634 12.1604 2.66634 13.9984C2.66634 14.3664 2.36834 14.665 1.99967 14.665C1.63101 14.665 1.33301 14.3664 1.33301 13.9984C1.33301 11.425 3.42701 9.33171 5.99967 9.33171C7.28434 9.33171 8.44834 9.85371 9.29301 10.6957Z" fill="#4D4354"/>
</svg>
