<svg width="20" height="20" viewBox="0 0 20 20" fill="none" xmlns="http://www.w3.org/2000/svg">
<path fill-rule="evenodd" clip-rule="evenodd" d="M14.5003 16.667C8.34283 16.667 3.33366 11.657 3.33366 5.50033C3.33366 4.30533 4.30533 3.33366 5.50033 3.33366C5.59116 3.33366 5.68116 3.33949 5.77283 3.35116L6.65699 7.20199C6.54767 7.25886 6.43068 7.32005 6.31657 7.37973L6.31631 7.37987L6.20866 7.43616C5.49033 7.81116 4.92366 8.10783 5.22116 8.76199C6.20116 11.5503 8.45033 13.8003 11.2053 14.767C11.9072 15.0483 12.1796 14.5274 12.5562 13.8074L12.5612 13.7978C12.6044 13.7159 12.6489 13.6305 12.693 13.5458L12.6932 13.5456C12.7289 13.477 12.7644 13.4089 12.7987 13.3437L16.6487 14.227C16.6612 14.317 16.667 14.4078 16.667 14.5003C16.667 15.6953 15.6953 16.667 14.5003 16.667ZM18.1262 13.257C18.032 12.9862 17.8053 12.7828 17.5253 12.7187L12.5553 11.5778C12.2812 11.5162 11.9945 11.5937 11.792 11.7887C11.6728 11.902 11.6703 11.9053 11.1287 12.9395C9.35366 12.1312 7.89949 10.682 7.06283 8.87033C8.09533 8.32949 8.09783 8.32699 8.21199 8.20866C8.40699 8.00533 8.48533 7.71866 8.42283 7.44533L7.28199 2.47533C7.21783 2.19533 7.01366 1.96783 6.74283 1.87366C6.54449 1.80533 6.34033 1.75366 6.13866 1.72116C5.93116 1.68533 5.71699 1.66699 5.50033 1.66699C3.38616 1.66699 1.66699 3.38616 1.66699 5.50033C1.66699 12.577 7.42366 18.3337 14.5003 18.3337C16.6137 18.3337 18.3337 16.6145 18.3337 14.5003C18.3337 14.2853 18.3145 14.0728 18.2795 13.8662C18.2462 13.6578 18.1945 13.4537 18.1262 13.257ZM10.8333 6.66699C12.2117 6.66699 13.3333 7.78866 13.3333 9.16699C13.3333 9.62783 13.7058 10.0003 14.1667 10.0003C14.6275 10.0003 15 9.62783 15 9.16699C15 6.86949 13.1308 5.00033 10.8333 5.00033C10.3733 5.00033 9.99999 5.37283 9.99999 5.83366C9.99999 6.29449 10.3733 6.66699 10.8333 6.66699ZM16.6667 9.16699C16.6667 5.95116 14.0492 3.33366 10.8333 3.33366C10.3733 3.33366 9.99999 2.96116 9.99999 2.50033C9.99999 2.03949 10.3733 1.66699 10.8333 1.66699C14.9692 1.66699 18.3333 5.03116 18.3333 9.16699C18.3333 9.62783 17.9608 10.0003 17.5 10.0003C17.0392 10.0003 16.6667 9.62783 16.6667 9.16699Z" fill="#4D4354"/>
</svg>
