<svg width="49" height="49" viewBox="0 0 49 49" fill="none" xmlns="http://www.w3.org/2000/svg">
<path opacity="0.16" d="M24.4551 48.2188C37.7099 48.2188 48.4551 37.4736 48.4551 24.2188C48.4551 10.9639 37.7099 0.21875 24.4551 0.21875C11.2002 0.21875 0.455078 10.9639 0.455078 24.2188C0.455078 37.4736 11.2002 48.2188 24.4551 48.2188Z" fill="#EE6C4D"/>
<path d="M24.5616 40.6467C33.5767 40.6467 40.8849 33.3385 40.8849 24.3233C40.8849 15.3082 33.5767 8 24.5616 8C15.5465 8 8.23828 15.3082 8.23828 24.3233C8.23828 33.3385 15.5465 40.6467 24.5616 40.6467Z" fill="#EE6C4D"/>
<path d="M20.2533 18.4724C20.3555 18.4138 20.4727 18.3828 20.5921 18.3828C20.7115 18.3828 20.8287 18.4138 20.9309 18.4724L29.9534 24.2879C30.0571 24.3495 30.1427 24.4352 30.202 24.5369C30.2613 24.6386 30.2924 24.7529 30.2924 24.8692C30.2924 24.9854 30.2613 25.0998 30.202 25.2014C30.1427 25.3031 30.0571 25.3888 29.9534 25.4504L20.9309 31.2659C20.8287 31.3247 20.7116 31.3558 20.5921 31.3558C20.4727 31.3558 20.3555 31.3247 20.2533 31.2659C20.1489 31.2048 20.0629 31.1192 20.0035 31.0173C19.9441 30.9154 19.9133 30.8007 19.9141 30.6843V19.0555C19.9131 18.9389 19.9438 18.8239 20.0032 18.7217C20.0626 18.6196 20.1488 18.5337 20.2533 18.4724Z" fill="white"/>
</svg>
