<svg width="32" height="33" viewBox="0 0 32 33" fill="none" xmlns="http://www.w3.org/2000/svg">
<path opacity="0.16" d="M16 32.7656C24.8366 32.7656 32 25.6022 32 16.7656C32 7.92907 24.8366 0.765625 16 0.765625C7.16344 0.765625 0 7.92907 0 16.7656C0 25.6022 7.16344 32.7656 16 32.7656Z" fill="white"/>
<path d="M16.0717 27.7176C22.0818 27.7176 26.9539 22.8454 26.9539 16.8353C26.9539 10.8253 22.0818 5.95312 16.0717 5.95312C10.0616 5.95312 5.18945 10.8253 5.18945 16.8353C5.18945 22.8454 10.0616 27.7176 16.0717 27.7176Z" fill="white"/>
<path d="M13.2262 13.0597C13.2943 13.0207 13.3724 13 13.452 13C13.5316 13 13.6097 13.0207 13.6779 13.0597L19.6929 16.9367C19.7621 16.9778 19.8191 17.0349 19.8586 17.1027C19.8982 17.1705 19.9189 17.2468 19.9189 17.3242C19.9189 17.4017 19.8982 17.478 19.8586 17.5457C19.8191 17.6135 19.7621 17.6707 19.6929 17.7117L13.6779 21.5887C13.6098 21.6279 13.5317 21.6486 13.452 21.6486C13.3724 21.6486 13.2943 21.6279 13.2262 21.5887C13.1566 21.548 13.0992 21.4909 13.0596 21.423C13.02 21.3551 12.9995 21.2786 13 21.201V13.4485C12.9994 13.3707 13.0198 13.2941 13.0594 13.226C13.099 13.1579 13.1565 13.1006 13.2262 13.0597Z" fill="#EE6C4D"/>
</svg>
