<svg width="119" height="119" viewBox="0 0 119 119" fill="none" xmlns="http://www.w3.org/2000/svg">
<circle cx="59.5" cy="59.5" r="59.5" fill="white"/>
<path d="M57.0448 20.9028L54.9551 12.0625L56.155 12.0829L57.1264 16.552C57.3713 17.654 57.5876 18.756 57.7304 19.6049H57.7549C57.9141 18.7315 58.2039 17.6907 58.5222 16.5602L59.7711 12.14L60.9588 12.1605L61.9588 16.6459C62.1914 17.6948 62.4077 18.7437 62.522 19.6743H62.5465C62.7465 18.7111 63.0077 17.7356 63.3015 16.6418L64.5341 12.2217L65.6973 12.2421L63.0607 21.0048L61.873 20.9844L60.8364 16.3806C60.5792 15.2542 60.4119 14.3889 60.3099 13.4992H60.2854C60.114 14.3726 59.9058 15.2297 59.5589 16.3602L58.2324 20.9232L57.0448 20.9028Z" fill="#201429"/>
<path d="M67.4017 18.7802L65.9283 21.2984L64.7773 21.0535L69.5444 13.0703L70.8872 13.356L71.981 22.5922L70.7933 22.3392L70.4546 19.4332L67.4017 18.7802ZM70.4097 18.5149L70.0954 15.8579C70.026 15.2539 70.0056 14.7151 69.9852 14.1927L69.9607 14.1886C69.724 14.6702 69.4709 15.1641 69.1934 15.6538L67.818 17.9639L70.4097 18.5149Z" fill="#201429"/>
<path d="M76.2597 15.9545L73.7578 15.0036L74.1007 14.1016L80.1942 16.4157L79.8513 17.3177L77.3372 16.3627L74.5578 23.6888L73.4844 23.2806L76.2597 15.9545Z" fill="#201429"/>
<path d="M82.7861 27.6382C82.3208 27.6097 81.4922 27.3729 80.5658 26.8342C78.419 25.5894 77.5864 23.2997 79.0352 20.8019C80.4148 18.4184 82.9697 17.7368 85.3328 19.104C86.2838 19.655 86.7613 20.206 86.945 20.4917L86.243 21.157C85.9736 20.7611 85.5206 20.3162 84.888 19.9489C83.1003 18.9163 81.2555 19.3693 80.0964 21.3692C79.0148 23.2344 79.3985 25.0547 81.2514 26.1281C81.8514 26.475 82.533 26.7036 83.0391 26.7403L82.7861 27.6382Z" fill="#201429"/>
<path d="M90.1076 22.6063L87.6832 25.3775L90.8871 28.1815L93.3115 25.4102L94.1767 26.1652L88.3812 32.7894L87.5159 32.0343L90.2341 28.9284L87.0302 26.1244L84.312 29.2304L83.459 28.4835L89.2546 21.8594L90.1076 22.6063Z" fill="#201429"/>
<path d="M91.9277 37.2229L97.5233 29.8438L98.2253 30.8519L95.4459 34.4516C94.6868 35.4393 93.9929 36.3209 93.2787 37.1005L93.295 37.1209C94.2745 36.7454 95.3928 36.4107 96.5601 36.076L100.98 34.819L101.674 35.8189L92.6461 38.2514L91.9277 37.2229Z" fill="#201429"/>
<path d="M102.955 38.4612L95.1515 42.5345L94.625 41.5264L102.429 37.4531L102.955 38.4612Z" fill="#201429"/>
<path d="M104.196 41.1172C104.523 41.7376 104.87 42.4845 105.168 43.3375C105.706 44.8762 105.735 46.1006 105.311 47.0638C104.89 48.0392 104.082 48.8106 102.739 49.28C101.384 49.7575 100.127 49.7249 99.0905 49.2188C98.0416 48.7127 97.1723 47.578 96.609 45.9659C96.3397 45.2027 96.1519 44.5496 96.0254 43.9823L104.196 41.1172ZM97.2253 44.766C97.2702 45.0557 97.3967 45.4516 97.5437 45.872C98.3477 48.1658 100.066 48.9576 102.307 48.1739C104.27 47.5005 105.127 45.9536 104.331 43.6844C104.135 43.1293 103.939 42.7293 103.78 42.4681L97.2253 44.766Z" fill="#201429"/>
<path d="M103.281 55.7629L102.759 52.3835L99.6242 52.8692L100.208 56.6363L99.265 56.7832L98.5059 51.8937L107.203 50.5469L107.93 55.2446L106.987 55.3915L106.432 51.8162L103.685 52.2407L104.208 55.6201L103.281 55.7629Z" fill="#201429"/>
<path d="M103.657 65.5162C100.628 65.4223 99.0813 63.5327 99.1507 61.2879C99.2241 58.9656 101.073 57.3902 103.738 57.4718C106.53 57.5575 108.305 59.3492 108.232 61.7001C108.154 64.104 106.269 65.5978 103.657 65.5162ZM103.722 58.688C101.84 58.6309 100.126 59.5941 100.073 61.3858C100.016 63.1857 101.644 64.2551 103.64 64.3204C105.391 64.3734 107.244 63.5163 107.305 61.6266C107.362 59.741 105.656 58.7452 103.722 58.688Z" fill="#201429"/>
<path d="M101.728 69.4115C102.479 69.5911 102.903 70.3462 102.716 71.0808C102.528 71.8155 101.793 72.2603 101.058 72.0726C100.312 71.8808 99.879 71.1502 100.071 70.4033C100.259 69.6687 100.981 69.2197 101.728 69.4115Z" fill="#201429"/>
<path d="M96.2457 75.6641L105.07 77.7986L104.511 78.8598L100.086 77.7048C98.9965 77.4231 97.915 77.1211 97.0905 76.8599L97.0783 76.8844C97.7844 77.4191 98.5802 78.1496 99.4455 78.9455L102.821 82.0555L102.266 83.1044L97.817 81.9657C96.7763 81.6964 95.7437 81.4188 94.8621 81.1005L94.8498 81.125C95.6171 81.7372 96.3681 82.4147 97.2089 83.1698L100.592 86.2716L100.05 87.3001L93.4336 80.9862L93.9887 79.9373L98.5598 81.0964C99.6822 81.378 100.527 81.6188 101.368 81.929L101.38 81.9045C100.678 81.3576 100.009 80.7821 99.1557 79.9618L95.6865 76.713L96.2457 75.6641Z" fill="#201429"/>
<path d="M93.3107 85.8481L91.7761 83.3707L92.5311 82.4688L97.3553 90.4152L96.4737 91.4641L87.8008 88.1133L88.5803 87.1828L91.3067 88.2398L93.3107 85.8481ZM92.1393 88.6276L94.633 89.5949C95.2003 89.8153 95.682 90.0479 96.1595 90.2765L96.1758 90.2561C95.8575 89.8193 95.5432 89.3663 95.2412 88.8929L93.8412 86.595L92.1393 88.6276Z" fill="#201429"/>
<path d="M91.6795 94.994L93.6875 93.2227L94.3283 93.9451L89.4429 98.2592L88.8021 97.5368L90.8183 95.7573L85.6309 89.8841L86.492 89.125L91.6795 94.994Z" fill="#201429"/>
<path d="M78.3125 95.3323C78.5533 94.9323 79.1492 94.3078 80.0553 93.7364C82.1531 92.4141 84.5693 92.7406 86.112 95.1812C87.5813 97.5117 86.9977 100.087 84.6917 101.544C83.7652 102.128 83.051 102.299 82.7163 102.328L82.4551 101.397C82.9326 101.344 83.5326 101.148 84.153 100.761C85.8998 99.6585 86.3528 97.8137 85.1203 95.8547C83.9693 94.0303 82.1817 93.5242 80.3695 94.667C79.7859 95.0384 79.2635 95.5322 78.9941 95.9649L78.3125 95.3323Z" fill="#201429"/>
<path d="M79.3563 104.163L78.0299 100.727L74.0586 102.257L75.381 105.694L74.3076 106.106L71.1445 97.89L72.2179 97.4777L73.6995 101.331L77.6748 99.8L76.1891 95.9472L77.2503 95.5391L80.4134 103.755L79.3563 104.163Z" fill="#201429"/>
<path d="M65.5739 98.9453L69.4798 107.341L68.2594 107.488L66.3779 103.345C65.8596 102.21 65.4065 101.186 65.0514 100.19L65.027 100.194C64.9045 101.235 64.6719 102.382 64.4229 103.57L63.4638 108.067L62.2598 108.214L64.329 99.1004L65.5739 98.9453Z" fill="#201429"/>
<path d="M59.2441 108.108L59.387 99.3047L60.5216 99.321L60.3788 108.125L59.2441 108.108Z" fill="#201429"/>
<path d="M56.4159 107.973C55.718 107.977 54.8895 107.932 53.9997 107.801C52.3835 107.565 51.2897 107.018 50.6326 106.197C49.9632 105.373 49.6571 104.299 49.8653 102.887C50.0734 101.467 50.6856 100.369 51.6162 99.6875C52.5508 98.9936 53.9589 98.7528 55.6527 99.0018C56.4527 99.1201 57.1179 99.2589 57.6771 99.4058L56.4159 107.973ZM56.4241 100.108C56.1465 100.014 55.7343 99.9405 55.2976 99.8752C52.8937 99.5201 51.3917 100.671 51.0448 103.026C50.7305 105.079 51.6978 106.556 54.0773 106.907C54.6568 106.993 55.1058 107.005 55.4119 106.985L56.4241 100.108Z" fill="#201429"/>
<path d="M43.8697 100.353L47.1063 101.463L48.1348 98.459L44.5268 97.2223L44.837 96.3203L49.5184 97.9243L46.6655 106.25L42.1719 104.712L42.4821 103.81L45.9064 104.981L46.8083 102.349L43.5718 101.238L43.8697 100.353Z" fill="#201429"/>
<path d="M35.0575 96.1194C36.5554 93.4869 38.9511 93.0012 40.9061 94.1154C42.9264 95.2664 43.4529 97.6417 42.1346 99.9559C40.751 102.384 38.3389 103.111 36.2941 101.948C34.2004 100.76 33.7637 98.3886 35.0575 96.1194ZM41.0612 99.3763C41.9918 97.7438 41.9428 95.7725 40.3878 94.8868C38.8205 93.993 37.1145 94.9317 36.1268 96.6663C35.2616 98.1887 35.1514 100.229 36.7962 101.164C38.4287 102.099 40.1062 101.054 41.0612 99.3763Z" fill="#201429"/>
<path d="M32.5309 92.6022C32.0207 93.1818 31.1555 93.2062 30.5923 92.6961C30.029 92.1859 29.98 91.3288 30.4902 90.7696C31.0086 90.1982 31.8575 90.1574 32.4289 90.6758C32.9921 91.1859 33.0493 92.0308 32.5309 92.6022Z" fill="#201429"/>
<path d="M27.9603 82.7224L21.5199 89.1261L20.9076 88.0936L24.2095 84.9264C25.0217 84.1428 25.8461 83.3836 26.4951 82.8163L26.4828 82.7918C25.6584 83.1142 24.6176 83.4081 23.4871 83.7305L19.0669 84.9794L18.4629 83.955L21.7607 80.7593C22.532 80.0124 23.3116 79.2777 24.0462 78.6941L24.034 78.6696C23.1075 79.0043 22.1402 79.29 21.0546 79.6124L16.6426 80.8736L16.0508 79.8736L24.8992 77.5391L25.5033 78.5635L22.1239 81.8531C21.2954 82.6612 20.6464 83.2571 19.9444 83.8122L19.9567 83.8326C20.7893 83.5224 21.63 83.253 22.7769 82.9551L27.3603 81.698L27.9603 82.7224Z" fill="#201429"/>
<path d="M20.8176 74.8854L23.7317 74.8772L24.1031 75.9914L14.8057 75.9302L14.373 74.6282L21.7767 69L22.1604 70.151L19.8299 71.9182L20.8176 74.8854ZM19.0626 72.4284L16.9321 74.0446C16.4505 74.4119 15.9934 74.7017 15.5526 74.9874L15.5607 75.0119C16.0995 74.9711 16.6505 74.9384 17.2137 74.9303L19.9033 74.9425L19.0626 72.4284Z" fill="#201429"/>
<path d="M13.887 68.6897L14.3401 71.3304L13.3891 71.4936L12.2871 65.0695L13.2381 64.9062L13.6911 67.5592L21.4131 66.2368L21.609 67.3714L13.887 68.6897Z" fill="#201429"/>
<path d="M20.6092 57.1484C20.8255 57.5647 21.0459 58.3973 21.0663 59.4667C21.1072 61.9482 19.5685 63.8419 16.6829 63.8868C13.928 63.9317 12.0301 62.0951 11.9852 59.3646C11.9689 58.2667 12.1893 57.5729 12.3444 57.2668L13.275 57.528C13.0709 57.9606 12.928 58.5769 12.9362 59.3116C12.9688 61.3768 14.3116 62.7236 16.6217 62.6869C18.7767 62.6502 20.1399 61.389 20.1072 59.2463C20.095 58.5524 19.9399 57.8504 19.7113 57.3974L20.6092 57.1484Z" fill="#201429"/>
<path d="M12.5656 53.4118L16.1858 54.0852L16.9653 49.8977L13.3451 49.2243L13.5533 48.0938L22.2099 49.7018L22.0018 50.8324L17.9449 50.0773L17.1653 54.2648L21.2222 55.0199L21.0141 56.1382L12.3574 54.5301L12.5656 53.4118Z" fill="#201429"/>
<path d="M24.2249 44.3999L15.0254 43.3265L15.5396 42.2123L20.0537 42.7837C21.2903 42.9388 22.4005 43.0898 23.4371 43.3061L23.4494 43.2816C22.629 42.6286 21.7719 41.8327 20.8944 40.9961L17.5681 37.8207L18.0783 36.7188L24.7554 43.2653L24.2249 44.3999Z" fill="#201429"/>
<path d="M19.7035 34.2656L27.1724 38.9307L26.5725 39.8939L19.1035 35.2288L19.7035 34.2656Z" fill="#201429"/>
<path d="M21.3555 31.8612C21.7228 31.2653 22.1922 30.5837 22.7717 29.8981C23.8247 28.6491 24.8614 28.0043 25.9103 27.8818C26.9633 27.7472 28.0367 28.0533 29.1264 28.9716C30.2243 29.8981 30.8366 30.9959 30.9263 32.1469C31.0243 33.306 30.4896 34.6325 29.3836 35.9385C28.8612 36.5589 28.3959 37.0527 27.9714 37.4486L21.3555 31.8612ZM28.0408 36.012C28.2653 35.8242 28.5469 35.5141 28.8326 35.1753C30.3998 33.3183 30.2121 31.4327 28.3959 29.9021C26.8164 28.5553 25.0491 28.6002 23.5023 30.4368C23.1227 30.8857 22.8778 31.2572 22.735 31.5306L28.0408 36.012Z" fill="#201429"/>
<path d="M34.4251 25.2032L31.7845 27.3786L33.8007 29.8274L36.7434 27.4031L37.3474 28.1378L33.5272 31.2845L27.9316 24.489L31.6008 21.4688L32.2049 22.2034L29.4132 24.5012L31.1804 26.648L33.8211 24.4727L34.4251 25.2032Z" fill="#201429"/>
<path d="M42.6364 19.9071C44.0975 22.5641 43.2568 24.8578 41.2854 25.9394C39.2488 27.0577 36.951 26.2659 35.6654 23.9313C34.3185 21.4825 34.9593 19.0418 37.0204 17.9113C39.1264 16.7521 41.3752 17.6174 42.6364 19.9071ZM36.7184 23.3232C37.6244 24.9721 39.3305 25.9557 40.8977 25.0945C42.4772 24.2252 42.5711 22.2824 41.6079 20.5315C40.763 18.9969 39.0815 17.8337 37.4244 18.7479C35.7756 19.654 35.7878 21.6294 36.7184 23.3232Z" fill="#201429"/>
<path d="M46.9676 19.5962C46.7432 18.8575 47.1758 18.1065 47.9064 17.8983C48.6369 17.6902 49.392 18.0942 49.6001 18.8248C49.8124 19.5635 49.4042 20.3104 48.6614 20.5227C47.9349 20.7308 47.1799 20.339 46.9676 19.5962Z" fill="#201429"/>
<path d="M49.5602 45.2883C49.7732 45.161 50.0172 45.0938 50.266 45.0938C50.5148 45.0938 50.7589 45.161 50.9718 45.2883L69.7674 57.9154C69.9835 58.0492 70.1618 58.2353 70.2853 58.4561C70.4089 58.6768 70.4737 58.9251 70.4737 59.1775C70.4737 59.4299 70.4089 59.6782 70.2853 59.8989C70.1618 60.1197 69.9835 60.3058 69.7674 60.4396L50.9718 73.0667C50.759 73.1943 50.5149 73.2618 50.266 73.2618C50.0172 73.2618 49.7731 73.1943 49.5602 73.0667C49.3428 72.934 49.1636 72.7481 49.0398 72.5269C48.916 72.3057 48.8519 72.0566 48.8536 71.8038V46.5544C48.8515 46.3011 48.9154 46.0515 49.0392 45.8297C49.163 45.6079 49.3424 45.4214 49.5602 45.2883Z" fill="#EE6C4D"/>
</svg>
