<svg width="20" height="20" viewBox="0 0 20 20" fill="none" xmlns="http://www.w3.org/2000/svg">
<path opacity="0.4" d="M20 10C20 11.9778 19.4135 13.9112 18.3147 15.5557C17.2159 17.2002 15.6541 18.4819 13.8268 19.2388C11.9996 19.9957 9.98891 20.1937 8.0491 19.8079C6.10929 19.422 4.32746 18.4696 2.92894 17.0711C1.53041 15.6725 0.578004 13.8907 0.192152 11.9509C-0.193701 10.0111 0.00433284 8.00043 0.761209 6.17317C1.51809 4.3459 2.79981 2.78412 4.4443 1.6853C6.08879 0.58649 8.02219 0 10 0C12.6512 0.00317572 15.1929 1.05776 17.0676 2.93244C18.9422 4.80712 19.9968 7.34881 20 10Z" fill="#EE6C4D"/>
<path d="M14.0004 10C14.0019 10.2567 13.9178 10.5065 13.7614 10.71C13.6744 10.8186 13.5816 10.9224 13.4834 11.021L13.4234 11.079C12.2492 12.1659 10.9103 13.06 9.45636 13.728C9.16217 13.8612 8.85084 13.9528 8.53136 14H8.49136C8.26558 13.9992 8.04419 13.9375 7.85058 13.8213C7.65697 13.7051 7.49831 13.5389 7.39136 13.34C7.28704 13.0522 7.20709 12.7562 7.15236 12.455C7.0446 11.6412 6.99381 10.8209 7.00036 10C6.98552 9.14944 7.04205 8.29912 7.16936 7.458C7.21539 7.21811 7.27515 6.98105 7.34836 6.748C7.46137 6.49224 7.65533 6.28071 7.90036 6.146C8.09666 6.04945 8.3126 5.99949 8.53136 6C8.8146 6.04011 9.09173 6.11535 9.35636 6.224C10.8437 6.89483 12.2135 7.80038 13.4134 8.906C13.5524 9.042 13.7014 9.206 13.7414 9.246C13.9104 9.46086 14.0017 9.72663 14.0004 10Z" fill="#EE6C4D"/>
</svg>
