<svg width="133" height="95" viewBox="0 0 133 95" fill="none" xmlns="http://www.w3.org/2000/svg">
<circle r="2" transform="matrix(1 0 0 -1 25 2)" fill="#C2B0CF"/>
<g clip-path="url(#clip0_33746_184654)">
<path fill-rule="evenodd" clip-rule="evenodd" d="M78.9313 32.8053L83.1799 27.6912C83.5357 27.2635 83.2942 26.5905 82.8113 26.3153L78.5755 23.8681C78.0968 23.5929 77.3895 23.7199 77.199 24.2407L74.8905 30.4724C74.6955 30.9932 74.7803 31.5731 75.259 31.8483L77.5549 33.1777C78.0376 33.453 78.5798 33.2328 78.9313 32.8053V32.8053Z" fill="#DFD6E5"/>
<path fill-rule="evenodd" clip-rule="evenodd" d="M102.662 34.1437L101.573 31.0871C101.442 30.7146 101.391 30.3971 101.544 30.0627L102.963 26.9764C103.263 26.3752 103.196 26.2355 102.518 26.2482L99.0488 26.316C98.6549 26.3202 98.604 26.2271 98.3457 25.9774L95.9652 23.6698C95.4823 23.2041 95.2789 23.2592 95.0926 23.9027L94.1861 27.0905C94.0844 27.4377 94.0887 27.5435 93.7455 27.734L90.7042 29.4106C90.1154 29.7365 90.1239 29.8932 90.6872 30.2657L93.4618 32.2259C93.7582 32.4375 93.8727 32.7424 93.9447 33.1319L94.5335 36.3198C94.6351 36.9887 94.7918 37.031 95.3298 36.6246L97.8756 34.6645C98.1382 34.4613 98.6083 34.3343 98.9387 34.3808L102.12 34.8042C102.793 34.8888 102.903 34.7744 102.662 34.1437V34.1437Z" fill="#C6B2D4"/>
<path fill-rule="evenodd" clip-rule="evenodd" d="M64.4579 53.6781C71.1631 45.0248 69.4264 36.4899 68.177 31.4011C66.7792 25.7113 58.8666 27.0617 60.4846 33.0819C62.0477 38.8988 62.611 43.3229 61.0269 51.5063L64.4579 53.6781Z" fill="#DFD6E5"/>
<path fill-rule="evenodd" clip-rule="evenodd" d="M72.6465 61.0167L90.5428 46.1569C91.1232 45.5769 91.1232 44.6285 90.5428 44.0486L85.8833 39.3959C85.303 38.816 84.3542 38.816 83.774 39.3959L68.9062 57.2785L72.6465 61.0167Z" fill="#C6B2D4"/>
<path fill-rule="evenodd" clip-rule="evenodd" d="M96.4734 70.6803C102.408 72.5981 104.157 64.7702 98.5404 63.0852C93.5591 61.5908 85.2145 59.4487 76.3066 65.5238L78.5558 69.1393C86.515 68.0681 90.8483 68.8599 96.4734 70.6803Z" fill="#DFD6E5"/>
<path fill-rule="evenodd" clip-rule="evenodd" d="M64.459 53.6756C71.1643 45.0223 69.4275 36.4875 68.1781 31.3987C67.3902 28.1812 64.5099 27.2117 62.4555 28.0711C63.4805 28.6257 64.3489 29.6544 64.7301 31.2081C65.9119 36.0259 67.5342 43.9385 61.998 52.1177L64.459 53.6756Z" fill="#C2B0CF"/>
<path fill-rule="evenodd" clip-rule="evenodd" d="M72.646 61.0167L90.5424 46.1568C91.1227 45.5769 91.1227 44.6285 90.5424 44.0486L89.7121 43.2188L70.668 59.0354L72.646 61.0167Z" fill="#B2A2BD"/>
<path fill-rule="evenodd" clip-rule="evenodd" d="M96.4737 70.6809C102.247 72.5478 104.06 65.1899 98.9855 63.2383C98.9262 65.3465 97.198 67.294 93.9534 66.6929C88.4807 65.6769 84.2576 65.4185 77.3066 67.1332L78.5562 69.1399C86.5153 68.0688 90.8485 68.8605 96.4737 70.6809V70.6809Z" fill="#C2B0CF"/>
<path fill-rule="evenodd" clip-rule="evenodd" d="M44.6433 52.6222L43.8343 43.9434C43.7665 43.2236 42.9194 42.8215 42.2163 43.012L36.0234 44.6717C35.3203 44.858 34.7823 45.6285 35.0873 46.2888L38.73 54.2056C39.0351 54.866 39.645 55.3275 40.3481 55.1412L43.707 54.2395C44.4103 54.0532 44.7111 53.3461 44.6433 52.6222V52.6222Z" fill="#DFD6E5"/>
<path fill-rule="evenodd" clip-rule="evenodd" d="M50.7181 33.1151L53.7298 30.9857C54.3397 30.5793 54.3482 30.4099 53.7085 30.0585L50.4089 28.2381C50.0361 28.0307 50.0403 27.9164 49.9302 27.5396L48.9433 24.0808C48.7442 23.3781 48.524 23.3188 47.9987 23.8269L45.4149 26.3287C45.1311 26.6039 45.0802 26.7055 44.6524 26.697L40.8825 26.625C40.1498 26.6081 40.0735 26.7604 40.4039 27.4167L41.9457 30.7654C42.1109 31.1253 42.0558 31.4725 41.9118 31.8789L40.73 35.1937C40.4673 35.8753 40.5902 36.0023 41.3188 35.9092L44.771 35.4478C45.131 35.4013 45.6393 35.5367 45.9273 35.7569L48.6848 37.8864C49.2694 38.3267 49.4389 38.2802 49.5532 37.5562L50.1885 34.0974C50.2691 33.674 50.3919 33.3438 50.7181 33.1151V33.1151Z" fill="#C6B2D4"/>
<path fill-rule="evenodd" clip-rule="evenodd" d="M105.52 52.4186L106.986 43.8287C107.109 43.1132 106.393 42.5078 105.664 42.5078H99.2514C98.527 42.5078 97.807 43.1132 97.9298 43.8287L99.3996 52.4186C99.5225 53.1341 99.9926 53.7395 100.721 53.7395H104.199C104.923 53.7395 105.398 53.1341 105.52 52.4186V52.4186Z" fill="#DFD6E5"/>
<path fill-rule="evenodd" clip-rule="evenodd" d="M104.245 83.5752L106.609 80.7344C107.096 80.184 107.058 80.0189 106.346 79.8412L102.682 78.9351C102.267 78.8334 102.242 78.7235 102.039 78.3847L100.188 75.2942C99.8147 74.6676 99.5861 74.6676 99.209 75.2942L97.358 78.3847C97.1547 78.7233 97.1292 78.8334 96.7142 78.9351L93.0502 79.8412C92.3387 80.0189 92.3048 80.1841 92.7919 80.7344L95.1513 83.5752C95.4054 83.88 95.4393 84.2313 95.4054 84.659L95.1259 88.1728C95.0454 88.9009 95.1979 88.9898 95.8799 88.7146L99.0991 87.3726C99.438 87.233 99.9632 87.233 100.298 87.3726L103.521 88.7146C104.199 88.9898 104.351 88.9009 104.275 88.1728L103.991 84.659C103.957 84.2313 103.991 83.8799 104.245 83.5752V83.5752Z" fill="#C6B2D4"/>
<path fill-rule="evenodd" clip-rule="evenodd" d="M88.137 88.363L81.5841 83.7231C81.0377 83.3336 80.3345 83.2489 79.8602 83.7231L77.5983 85.9838C77.1238 86.458 77.2086 87.1607 77.5983 87.7069L82.2407 94.2562C82.6262 94.8024 83.4861 94.7304 83.9604 94.2562L88.137 90.0819C88.6115 89.6077 88.6835 88.7482 88.137 88.363V88.363Z" fill="#DFD6E5"/>
<path fill-rule="evenodd" clip-rule="evenodd" d="M78.5637 64.1419C77.4285 62.5332 76.1197 60.899 74.7091 59.3073C74.0948 58.613 73.4595 57.9272 72.8115 57.254C72.803 57.2413 72.7902 57.2285 72.7776 57.2201C72.0702 56.5343 71.3501 55.8695 70.6173 55.2218C69.0839 53.8713 67.5167 52.6181 65.9664 51.5175C65.9622 51.5175 65.9622 51.5175 65.9622 51.5175C65.0896 50.8952 64.2255 50.3278 63.3784 49.8198C62.7388 49.4345 62.1119 49.0875 61.4976 48.7742C57.1347 46.5642 53.475 46.2848 52.1153 49.5573C52.0856 49.6251 51.8484 50.2686 51.6663 50.6666L50.2853 54.5444L47.9642 61.0641L44.6052 70.5007L41.9662 77.9264L39.0222 86.1903C38.2979 88.2309 38.5182 89.7507 39.4542 90.5254C40.2294 91.461 41.7501 91.6812 43.7917 90.9573L52.06 88.015L59.4897 85.3774L68.9314 82.0203L75.4545 79.7003L79.3345 78.3202C79.7326 78.1381 80.3765 77.9011 80.4443 77.8714C83.6338 76.5505 83.4517 73.0368 81.3889 68.8201C81.0247 68.0707 80.5968 67.3002 80.1224 66.5129C79.6523 65.734 79.1313 64.9422 78.5678 64.1463C78.5637 64.1462 78.5637 64.1419 78.5637 64.1419V64.1419Z" fill="#DFD6E5"/>
<path fill-rule="evenodd" clip-rule="evenodd" d="M74.7098 59.3079C74.0955 58.6137 73.4602 57.9278 72.8122 57.2547C72.8037 57.242 72.7909 57.2292 72.7783 57.2208C72.0709 56.5349 71.3508 55.8702 70.618 55.2225C70.5757 55.1886 70.5376 55.1505 70.4951 55.1166C69.0464 53.8465 67.5639 52.6611 66.0983 51.6112C66.056 51.5816 66.0093 51.5477 65.967 51.5181C65.9628 51.5181 65.9628 51.5181 65.9628 51.5181C65.0902 50.8959 64.226 50.3285 63.3789 49.8163C62.752 49.4438 62.1251 49.0924 61.4982 48.7748C59.7023 47.8646 58.0205 47.2846 56.5762 47.1406C58.1647 48.0762 59.7488 49.1855 61.2441 50.3539C61.6676 50.6841 62.087 51.0186 62.4937 51.3573C63.0359 51.8018 63.5568 52.2505 64.0609 52.695C64.2897 52.894 64.5142 53.0972 64.743 53.3004V53.3046C65.2428 53.7576 65.7385 54.2191 66.2212 54.689L66.2593 54.7228C68.3222 56.8608 70.3553 59.2697 72.0116 61.615C73.0324 63.046 74.0914 64.769 74.8327 66.2888C76.8955 70.5097 77.0776 74.0193 73.8881 75.3444C73.8754 75.3486 73.8373 75.3613 73.7864 75.3825C74.5954 76.9277 75.1758 78.3883 75.4554 79.7007L79.3353 78.3206C79.7335 78.1385 80.3774 77.9015 80.4452 77.8718C83.6347 76.5509 83.4526 73.0371 81.3897 68.8205C81.3771 68.7908 81.3643 68.7655 81.3474 68.7358C80.9958 68.0203 80.5765 67.2625 80.1233 66.5133C80.0852 66.4497 80.0428 66.3863 80.0047 66.3185C80.0047 66.3185 80.0005 66.3143 80.0005 66.3101C79.5388 65.5565 79.0475 64.8199 78.5688 64.1467C78.5646 64.1467 78.5646 64.1425 78.5646 64.1425C77.5183 62.6565 76.3239 61.1536 75.0404 59.6803C74.9301 59.5536 74.82 59.4308 74.7098 59.3079V59.3079Z" fill="#C2B0CF"/>
<path fill-rule="evenodd" clip-rule="evenodd" d="M75.4553 79.7027C74.5489 75.4269 70.4317 69.5549 65.5223 64.4746C60.4393 59.5679 54.5642 55.4529 50.286 54.5469L47.9648 61.0665C51.7432 62.7938 56.1485 66.1172 60.0835 69.9104C63.8788 73.8434 67.2039 78.2463 68.9322 82.0226L75.4553 79.7027Z" fill="#C6B2D4"/>
<path fill-rule="evenodd" clip-rule="evenodd" d="M59.4907 85.3771L68.9324 82.02C68.3436 80.7288 67.5642 79.3655 66.645 77.9727L56.6738 81.5161C57.7074 82.8073 58.6604 84.1028 59.4907 85.3771Z" fill="#C2B0CF"/>
<path fill-rule="evenodd" clip-rule="evenodd" d="M75.4551 79.701C75.1755 78.3885 74.5952 76.928 73.7862 75.3828C73.5702 75.4632 73.0957 75.6454 72.778 75.7934L66.6445 77.9737C67.5637 79.3666 68.3431 80.7298 68.9319 82.021L75.4551 79.701Z" fill="#B2A2BD"/>
<path fill-rule="evenodd" clip-rule="evenodd" d="M59.4905 85.3767C57.7072 82.6461 55.3733 79.7969 52.8275 77.1594C50.1886 74.6151 47.338 72.2824 44.6058 70.5L41.9668 77.9257C43.801 79.327 45.6392 80.9145 47.3844 82.5995C49.0702 84.3437 50.6587 86.1811 52.0607 88.0143L59.4905 85.3767Z" fill="#C6B2D4"/>
<path fill-rule="evenodd" clip-rule="evenodd" d="M52.0606 88.0165C51.099 86.7592 50.0485 85.4975 48.9389 84.2656L38.6119 87.9361C38.5018 89.1045 38.8068 89.9936 39.4548 90.527C40.23 91.4625 41.7507 91.6827 43.7923 90.9588L52.0606 88.0165Z" fill="#C2B0CF"/>
<path fill-rule="evenodd" clip-rule="evenodd" d="M59.489 85.3766C58.6588 84.1023 57.7058 82.8068 56.6722 81.5156L48.9375 84.2632C50.0473 85.4952 51.0978 86.7567 52.0592 88.014L59.489 85.3766Z" fill="#B2A2BD"/>
<path fill-rule="evenodd" clip-rule="evenodd" d="M50.7184 33.1151L53.73 30.9857C54.3399 30.5793 54.3485 30.4099 53.7087 30.0585L50.4091 28.2381C50.0363 28.0307 50.0405 27.9164 49.9304 27.5396L48.9435 24.0808C48.7444 23.3781 48.5242 23.3188 47.999 23.8269L46.8595 24.9318C47.3211 26.4304 47.5754 28.0815 47.5754 29.813C47.5754 32.1034 47.1306 34.2497 46.3555 36.0871L48.6852 37.8864C49.2698 38.3267 49.4392 38.2802 49.5536 37.5562L50.1889 34.0974C50.2693 33.674 50.3921 33.3438 50.7184 33.1151Z" fill="#B2A2BD"/>
<path fill-rule="evenodd" clip-rule="evenodd" d="M44.6429 52.6222L43.8339 43.9434C43.7661 43.2236 42.919 42.8215 42.2158 43.012L40.7926 43.393C40.9492 44.3117 41.0298 45.2727 41.0298 46.259C41.0298 49.3834 40.2038 52.2369 38.8398 54.4129C39.166 54.9591 39.7209 55.3061 40.3478 55.141L43.7067 54.2394C44.4099 54.0532 44.7107 53.3461 44.6429 52.6222V52.6222Z" fill="#C2B0CF"/>
<path fill-rule="evenodd" clip-rule="evenodd" d="M83.181 27.6906C83.5368 27.263 83.2953 26.59 82.8124 26.3148L78.5767 23.8677C78.3225 23.7237 78.0133 23.69 77.7422 23.7661C78.2632 25.3409 78.5512 27.0937 78.5512 28.9437C78.5512 30.4763 78.3521 31.9454 77.9879 33.3C78.3394 33.3042 78.6825 33.1095 78.9324 32.8047L83.181 27.6906Z" fill="#C2B0CF"/>
<path fill-rule="evenodd" clip-rule="evenodd" d="M101.573 31.0861C101.442 30.7136 101.391 30.3961 101.544 30.0617L102.963 26.9754C103.263 26.3742 103.196 26.2346 102.518 26.2472L99.0488 26.315C98.6549 26.3192 98.604 26.2261 98.3457 25.9764L97.0411 24.7148C97.236 25.7309 97.3375 26.7978 97.3375 27.8985C97.3375 31.3785 96.3083 34.524 94.6562 36.7678C94.7706 36.971 94.9613 36.9032 95.3297 36.6238L97.8754 34.6636C98.1381 34.4604 98.6082 34.3335 98.9386 34.38L102.12 34.8034C102.793 34.8881 102.903 34.7737 102.662 34.143L101.573 31.0861Z" fill="#B2A2BD"/>
<path fill-rule="evenodd" clip-rule="evenodd" d="M105.521 52.4186L106.986 43.8287C107.109 43.1132 106.393 42.5078 105.665 42.5078H102.873C102.924 43.0412 102.949 43.5874 102.949 44.142C102.949 47.8548 101.78 51.1824 99.9336 53.4473C100.145 53.6294 100.408 53.7394 100.722 53.7394H104.199C104.923 53.7395 105.398 53.1341 105.521 52.4186V52.4186Z" fill="#C2B0CF"/>
<path fill-rule="evenodd" clip-rule="evenodd" d="M83.9609 94.2571L88.1375 90.0827C88.6119 89.6086 88.6839 88.7492 88.1375 88.3639L81.8473 83.9102C82.2159 85.2692 82.4149 86.7381 82.4149 88.275C82.4149 90.0996 82.1311 91.8311 81.627 93.3891L82.2412 94.2571C82.6265 94.8033 83.4864 94.7313 83.9609 94.2571V94.2571Z" fill="#C2B0CF"/>
<path fill-rule="evenodd" clip-rule="evenodd" d="M104.246 83.5752L106.61 80.7344C107.097 80.184 107.059 80.0189 106.347 79.8412L102.683 78.9351C102.268 78.8334 102.242 78.7235 102.039 78.3847L100.188 75.2942C99.8153 74.6676 99.5867 74.6676 99.2097 75.2942L98.6167 76.2849C99.2012 77.936 99.5273 79.7945 99.5273 81.7631C99.5273 83.8883 99.1461 85.8908 98.4727 87.635L99.0996 87.3725C99.4385 87.2328 99.9637 87.2328 100.298 87.3725L103.522 88.7145C104.199 88.9897 104.352 88.9008 104.276 88.1726L103.992 84.6588C103.958 84.2313 103.992 83.8799 104.246 83.5752V83.5752Z" fill="#B2A2BD"/>
</g>
<circle r="2" transform="matrix(1 0 0 -1 120 18)" fill="#C2B0CF"/>
<path fill-rule="evenodd" clip-rule="evenodd" d="M129.666 50.3346H125.666V46.3346C125.666 45.966 125.367 45.668 124.999 45.668C124.631 45.668 124.333 45.966 124.333 46.3346V50.3346H120.333C119.965 50.3346 119.666 50.6326 119.666 51.0013C119.666 51.37 119.965 51.668 120.333 51.668H124.333V55.668C124.333 56.0366 124.631 56.3346 124.999 56.3346C125.367 56.3346 125.666 56.0366 125.666 55.668V51.668H129.666C130.034 51.668 130.333 51.37 130.333 51.0013C130.333 50.6326 130.034 50.3346 129.666 50.3346" fill="#DFD6E5"/>
<circle r="2" transform="matrix(1 0 0 -1 2 41)" fill="#DFD6E5"/>
<path fill-rule="evenodd" clip-rule="evenodd" d="M16.666 86.3346H12.666V82.3346C12.666 81.966 12.3673 81.668 11.9993 81.668C11.6313 81.668 11.3327 81.966 11.3327 82.3346V86.3346H7.33268C6.96468 86.3346 6.66602 86.6326 6.66602 87.0013C6.66602 87.37 6.96468 87.668 7.33268 87.668H11.3327V91.668C11.3327 92.0366 11.6313 92.3346 11.9993 92.3346C12.3673 92.3346 12.666 92.0366 12.666 91.668V87.668H16.666C17.034 87.668 17.3327 87.37 17.3327 87.0013C17.3327 86.6326 17.034 86.3346 16.666 86.3346" fill="#C2B0CF"/>
<path fill-rule="evenodd" clip-rule="evenodd" d="M60.334 3.66536H58.334V1.66536C58.334 1.48103 58.1847 1.33203 58.0007 1.33203C57.8167 1.33203 57.6673 1.48103 57.6673 1.66536V3.66536H55.6673C55.4833 3.66536 55.334 3.81436 55.334 3.9987C55.334 4.18303 55.4833 4.33203 55.6673 4.33203H57.6673V6.33203C57.6673 6.51636 57.8167 6.66536 58.0007 6.66536C58.1847 6.66536 58.334 6.51636 58.334 6.33203V4.33203H60.334C60.518 4.33203 60.6673 4.18303 60.6673 3.9987C60.6673 3.81436 60.518 3.66536 60.334 3.66536" fill="#C2B0CF"/>
<defs>
<clipPath id="clip0_33746_184654">
<rect width="72" height="72" fill="white" transform="translate(35 23)"/>
</clipPath>
</defs>
</svg>
