<svg width="20" height="20" viewBox="0 0 20 20" fill="none" xmlns="http://www.w3.org/2000/svg">
<path d="M8.08926 3.92259C8.41469 3.59715 8.41469 3.06951 8.08926 2.74408C7.76382 2.41864 7.23618 2.41864 6.91074 2.74408L2.74408 6.91074C2.41864 7.23618 2.41864 7.76382 2.74408 8.08926L6.91074 12.2559C7.23618 12.5814 7.76382 12.5814 8.08926 12.2559C8.41469 11.9305 8.41469 11.4028 8.08926 11.0774L5.34518 8.33333H10C11.9169 8.33333 13.3706 8.90633 14.3353 9.78328C15.2951 10.6559 15.8333 11.8844 15.8333 13.3333V16.6664C15.8333 17.1267 16.2064 17.5 16.6667 17.5C17.1269 17.5 17.5 17.1269 17.5 16.6667V13.3333C17.5 11.449 16.7882 9.76078 15.4564 8.55005C14.1294 7.34367 12.2497 6.66667 10 6.66667H5.34518L8.08926 3.92259Z" fill="#4D4354"/>
</svg>
