<svg width="16" height="16" viewBox="0 0 16 16" fill="none" xmlns="http://www.w3.org/2000/svg">
<path d="M11.5288 4.47173C11.7891 4.73208 12.2112 4.73208 12.4716 4.47173C12.7319 4.21138 12.7319 3.78927 12.4716 3.52892L9.8049 0.862255C9.67988 0.73723 9.51031 0.666992 9.3335 0.666992C9.15668 0.666992 8.98711 0.73723 8.86209 0.862254L6.19543 3.52892C5.93508 3.78927 5.93508 4.21138 6.19543 4.47173C6.45578 4.73208 6.87788 4.73208 7.13823 4.47173L8.66683 2.94313V7.33366C8.66683 7.70185 8.96531 8.00033 9.3335 8.00033C9.70169 8.00033 10.0002 7.70185 10.0002 7.33366V2.94314L11.5288 4.47173Z" fill="#4D4354"/>
<path d="M6.19543 15.1384C6.32045 15.2634 6.49002 15.3337 6.66683 15.3337C6.84364 15.3337 7.01321 15.2634 7.13823 15.1384L9.8049 12.4717C10.0652 12.2114 10.0652 11.7893 9.8049 11.5289C9.54455 11.2686 9.12244 11.2686 8.86209 11.5289L7.3335 13.0575V8.66699C7.3335 8.2988 7.03502 8.00033 6.66683 8.00033C6.29864 8.00033 6.00016 8.2988 6.00016 8.66699V13.0575L4.47157 11.5289C4.21122 11.2686 3.78911 11.2686 3.52876 11.5289C3.26841 11.7893 3.26841 12.2114 3.52876 12.4717L6.19543 15.1384Z" fill="#4D4354"/>
</svg>
