<svg width="20" height="20" viewBox="0 0 20 20" fill="none" xmlns="http://www.w3.org/2000/svg">
<g clip-path="url(#clip0_31869_26215)">
<path d="M10.0013 0.65625C4.8571 0.65625 0.671875 4.84225 0.671875 9.98647C0.671875 15.1354 4.8571 19.3229 10.0013 19.3229C15.1502 19.3229 19.3385 15.1346 19.3385 9.98647C19.3385 4.84225 15.1502 0.65625 10.0013 0.65625ZM5.26698 13.4149C6.3352 13.0877 7.44599 12.9205 8.5632 12.9187C10.4408 12.9187 12.2942 13.3947 13.9236 14.2954C14.0209 14.3482 14.1088 14.5225 14.1492 14.7402C14.1881 14.958 14.1725 15.1812 14.1088 15.2971C14.0787 15.3523 14.038 15.4009 13.989 15.4401C13.94 15.4794 13.8837 15.5086 13.8234 15.526C13.7631 15.5433 13.6999 15.5485 13.6375 15.5413C13.5752 15.5341 13.5148 15.5145 13.4601 15.4838C12.2632 14.8272 10.9467 14.4177 9.58863 14.2796C8.23053 14.1414 6.85852 14.2775 5.55398 14.6796C5.4941 14.6989 5.43095 14.7062 5.36824 14.7009C5.30552 14.6956 5.24447 14.6779 5.18866 14.6488C5.13286 14.6197 5.08339 14.5798 5.04316 14.5314C5.00293 14.483 4.97273 14.4271 4.95432 14.3669C4.8711 14.0947 5.04298 13.488 5.26698 13.4149ZM4.86021 9.97713C6.06696 9.64929 7.31193 9.48321 8.56243 9.48325C10.8133 9.48325 13.0479 10.0277 15.0258 11.059C15.165 11.129 15.2669 11.2488 15.3135 11.395C15.3371 11.4689 15.3457 11.5467 15.3388 11.6239C15.3318 11.7011 15.3095 11.7761 15.2731 11.8446C15.0965 12.1899 14.8896 12.4225 14.7598 12.4225C14.665 12.422 14.5717 12.3991 14.4875 12.3556C12.6591 11.401 10.6258 10.9061 8.5632 10.9136C7.41593 10.9113 6.27363 11.0643 5.16743 11.3686C5.09363 11.3888 5.01659 11.3942 4.94069 11.3846C4.86479 11.375 4.79153 11.3505 4.72508 11.3126C4.65864 11.2747 4.60031 11.2241 4.55343 11.1636C4.50655 11.1031 4.47204 11.034 4.45187 10.9602C4.36476 10.632 4.56465 10.058 4.86021 9.97713ZM4.75521 7.73247C4.66766 7.75494 4.57654 7.75984 4.48708 7.74691C4.39763 7.73397 4.31163 7.70344 4.23404 7.65709C4.15645 7.61074 4.08881 7.54948 4.03502 7.47685C3.98123 7.40421 3.94236 7.32165 3.92065 7.23391C3.82498 6.84658 4.06687 6.39703 4.41843 6.30836C5.77449 5.97436 7.16584 5.80488 8.56243 5.80358C11.2458 5.80358 13.8171 6.40714 16.2033 7.59791C16.3673 7.67944 16.4921 7.82273 16.5505 7.99629C16.6088 8.16984 16.5958 8.35947 16.5144 8.52347C16.4032 8.74747 16.1621 8.98858 15.8961 8.98858C15.7918 8.98819 15.6888 8.9651 15.5943 8.92091C13.4123 7.8263 11.0036 7.25988 8.56243 7.26736C7.29076 7.26736 6.00976 7.42369 4.75521 7.73247Z" fill="#201429"/>
</g>
<defs>
<clipPath id="clip0_31869_26215">
<rect width="18.6667" height="18.6667" fill="white" transform="translate(0.671875 0.65625)"/>
</clipPath>
</defs>
</svg>
