<svg width="72" height="72" viewBox="0 0 72 72" fill="none" xmlns="http://www.w3.org/2000/svg">
<path d="M33.2727 37.8551C32.4816 38.6461 31.0809 38.6461 30.2899 37.8551L27.0497 34.6149L24.0669 37.5976L31.7812 45.3119L47.933 29.1602L44.9482 26.1775L33.2727 37.8551Z" fill="#64C880"/>
<path d="M68.6222 21.5464C68.513 21.4435 66.2058 19.2949 63.3262 17.7417C62.9925 14.485 61.8904 11.5311 61.8368 11.391C61.6226 10.8246 61.1756 10.3776 60.6092 10.1634C60.4691 10.1098 57.5152 9.00775 54.2585 8.67405C52.7053 5.79226 50.5548 3.4852 50.4538 3.37594C50.0377 2.93311 49.4527 2.61995 48.847 2.71262C48.6987 2.7167 45.547 2.82793 42.4099 3.76729C39.8721 1.69929 37.0046 0.250588 36.8686 0.188714C36.3165 -0.0625792 35.682 -0.0625792 35.1301 0.188714C34.9941 0.250448 32.1268 1.69915 29.589 3.76729C26.4517 2.82793 23.3 2.7167 23.1518 2.71262C22.5173 2.62402 21.9612 2.93297 21.5451 3.37594C21.4441 3.48506 19.2936 5.79226 17.7404 8.67405C14.4837 9.00775 11.5298 10.1098 11.3897 10.1634C10.8233 10.3776 10.3762 10.8246 10.1621 11.391C10.1085 11.5311 9.00641 14.485 8.67271 17.7417C5.79093 19.2949 3.48386 21.4454 3.3746 21.5464C2.93375 21.9625 2.69075 22.5475 2.71128 23.1532C2.71536 23.3015 2.82659 26.4532 3.76595 29.5903C1.69781 32.1282 0.24911 34.9956 0.187376 35.1314C-0.0618077 35.6835 -0.0618077 36.318 0.187376 36.87C0.24911 37.0059 1.69781 39.8733 3.76595 42.4111C2.82659 45.5484 2.71536 48.7 2.71128 48.8482C2.69075 49.4539 2.93375 50.0389 3.3746 50.455C3.48372 50.556 5.79093 52.7065 8.67271 54.2597C9.00641 57.5164 10.1085 60.4703 10.1621 60.6104C10.3762 61.1768 10.8233 61.6238 11.3918 61.838C11.5319 61.8916 14.4837 62.9937 17.7404 63.3274C19.2936 66.2072 21.442 68.5142 21.5451 68.6234C21.9591 69.0662 22.5545 69.3443 23.1518 69.2886C23.3002 69.2846 26.4518 69.1733 29.587 68.234C32.127 70.3 34.9943 71.7508 35.1302 71.8125C35.4063 71.9383 35.7029 72 35.9996 72C36.2963 72 36.5929 71.9383 36.8689 71.8125C37.0049 71.7508 39.8722 70.3 42.41 68.234C45.5473 69.1733 48.699 69.2846 48.8472 69.2886C49.4734 69.3401 50.0378 69.0662 50.4539 68.6234C50.5569 68.5142 52.7055 66.207 54.2586 63.3274C57.5153 62.9937 60.4671 61.8916 60.6072 61.838C61.1757 61.6238 61.6228 61.1768 61.837 60.6104C61.8905 60.4703 62.9926 57.5164 63.3263 54.2597C66.2061 52.7065 68.5132 50.5581 68.6223 50.455C69.0651 50.041 69.3083 49.456 69.2876 48.8482C69.2835 48.6999 69.1723 45.5482 68.2329 42.4111C70.3011 39.8733 71.7498 37.0058 71.8115 36.87C72.0607 36.3179 72.0607 35.6834 71.8115 35.1314C71.7498 34.9955 70.3011 32.1282 68.2329 29.5903C69.1723 26.453 69.2835 23.3014 69.2876 23.1532C69.3081 22.5455 69.065 21.9605 68.6222 21.5464V21.5464ZM52.4065 30.6512L33.272 49.7858C32.86 50.1978 32.3203 50.4038 31.7807 50.4038C31.2412 50.4038 30.7013 50.1978 30.2894 49.7858L19.5924 39.0887C18.7685 38.2648 18.7685 36.9299 19.5924 36.106L25.5579 30.1404C26.3818 29.3165 27.7167 29.3165 28.5406 30.1404L31.7809 33.3807L43.4564 21.7031C44.2803 20.8791 45.6152 20.8791 46.4392 21.7031L52.4068 27.6686C53.2305 28.4925 53.23 29.8278 52.4065 30.6512V30.6512Z" fill="#64C880"/>
<circle cx="35.5" cy="35.5002" r="19.5" fill="#64C880"/>
<path fill-rule="evenodd" clip-rule="evenodd" d="M52.1787 24.8217C52.8296 25.4725 52.8296 26.5278 52.1787 27.1787L32.1787 47.1787C31.5278 47.8295 30.4725 47.8295 29.8217 47.1787L19.8217 37.1787C19.1708 36.5278 19.1708 35.4725 19.8217 34.8217C20.4725 34.1708 21.5278 34.1708 22.1787 34.8217L31.0002 43.6431L49.8217 24.8217C50.4725 24.1708 51.5278 24.1708 52.1787 24.8217Z" fill="white"/>
</svg>
