<svg width="48" height="48" viewBox="0 0 48 48" fill="none" xmlns="http://www.w3.org/2000/svg">
<path d="M24 48C28.7468 48 33.3869 46.5924 37.3337 43.9553C41.2805 41.3181 44.3566 37.5698 46.1731 33.1844C47.9896 28.799 48.4649 23.9734 47.5388 19.3178C46.6128 14.6623 44.327 10.3859 40.9706 7.02945C37.6141 3.67299 33.3377 1.38721 28.6822 0.461164C24.0266 -0.464881 19.201 0.0103989 14.8156 1.8269C10.4302 3.64341 6.68188 6.71954 4.04473 10.6663C1.40758 14.6131 0 19.2533 0 24C0 30.3652 2.52856 36.4697 7.02944 40.9706C11.5303 45.4714 17.6348 48 24 48Z" fill="url(#paint0_linear_163_6212)"/>
<path d="M8.93754 25.1743C11.7435 23.6293 14.8755 22.3393 17.8015 21.0423C22.8355 18.9193 27.8895 16.8323 32.9945 14.8903C33.9875 14.5593 35.7725 14.2353 35.9475 15.7073C35.8475 17.7913 35.4575 19.8623 35.1875 21.9333C34.5015 26.4883 33.7075 31.0283 32.9345 35.5683C32.8657 35.923 32.7084 36.2547 32.4772 36.5325C32.2461 36.8104 31.9486 37.0254 31.6123 37.1577C31.276 37.29 30.9118 37.3353 30.5533 37.2895C30.1948 37.2436 29.8537 37.108 29.5615 36.8953C26.6485 34.9273 23.7125 32.9793 20.8365 30.9653C19.8945 30.0083 20.7685 28.6333 21.6095 27.9493C24.0095 25.5843 26.5535 23.5753 28.8275 21.0893C29.4405 19.6083 27.6275 20.8563 27.0275 21.2393C23.7425 23.5033 20.5385 25.9043 17.0755 27.8943C15.3065 28.8683 13.2445 28.0363 11.4755 27.4943C9.89354 26.8363 7.57054 26.1753 8.93754 25.1743Z" fill="white"/>
<defs>
<linearGradient id="paint0_linear_163_6212" x1="32.016" y1="8.016" x2="20.016" y2="36" gradientUnits="userSpaceOnUse">
<stop stop-color="#37AEE2"/>
<stop offset="1" stop-color="#1E96C8"/>
</linearGradient>
</defs>
</svg>
