<svg width="28" height="32" viewBox="0 0 28 32" fill="none" xmlns="http://www.w3.org/2000/svg">
<g clip-path="url(#clip0_499_53233)">
<path d="M7.29112 24.7082C5.42337 24.7082 3.76198 23.3415 3.1587 21.3068L3.11789 21.1535C2.97562 20.6146 2.91602 20.1615 2.91602 19.7081V10.6171L0.0856547 21.4147C-0.278368 23.0029 0.551151 24.6494 1.94294 25.0881L19.9836 30.6097C20.2088 30.6764 20.434 30.7084 20.6557 30.7084C21.8176 30.7084 22.8794 29.827 23.177 28.5281L24.228 24.7082H7.29112Z" fill="#ECEFF1"/>
<path d="M28.0001 4.37422V19.7081C28.0001 21.3615 26.8217 22.7082 25.375 22.7082H7.29114C7.1745 22.7082 7.05786 22.6947 6.95275 22.6813C5.72781 22.5082 4.77118 21.3615 4.67783 19.9481C4.66608 19.868 4.66608 19.7879 4.66608 19.7081V4.37422C4.66608 2.72086 5.84445 1.37415 7.29114 1.37415H25.375C26.8217 1.37415 28.0001 2.72086 28.0001 4.37422V4.37422Z" fill="#ECEFF1"/>
<path d="M12.8328 8.04108C12.8328 9.51377 11.7882 10.7079 10.4996 10.7079C9.21078 10.7079 8.16614 9.51377 8.16614 8.04108C8.16614 6.56839 9.21078 5.37427 10.4996 5.37427C11.7882 5.37427 12.8328 6.56839 12.8328 8.04108Z" fill="#FFC107"/>
<path d="M28.0001 15.9611V19.708C28.0001 21.3614 26.8217 22.7081 25.375 22.7081H7.29115C7.1745 22.7081 7.05786 22.6947 6.95276 22.6813L18.9698 8.94777C19.7632 8.04101 21.0697 8.04101 21.8632 8.94777L28.0001 15.9611Z" fill="#388E3C"/>
<path d="M21.0697 22.7082H7.29111C7.17447 22.7082 7.05783 22.6948 6.95272 22.6813C5.72778 22.5082 4.77115 21.3615 4.6778 19.9481L10.2195 13.6145C11.0129 12.7079 12.3195 12.7079 13.1129 13.6145L21.0697 22.7082Z" fill="#4CAF50"/>
</g>
<defs>
<clipPath id="clip0_499_53233">
<rect width="28" height="32" fill="white"/>
</clipPath>
</defs>
</svg>
