<svg width="20" height="20" viewBox="0 0 20 20" fill="#4D4354" xmlns="http://www.w3.org/2000/svg">
<path fill-rule="evenodd" clip-rule="evenodd" d="M14.9998 15.8337C14.9998 16.2928 14.6265 16.667 14.1665 16.667H5.83317C5.37317 16.667 4.99984 16.2928 4.99984 15.8337V6.66699H14.9998V15.8337ZM8.33317 3.60699C8.33317 3.47783 8.5115 3.33366 8.74984 3.33366H11.2498C11.4882 3.33366 11.6665 3.47783 11.6665 3.60699V5.00033H8.33317V3.60699ZM17.4998 5.00033H16.6665H13.3332V3.60699C13.3332 2.53699 12.399 1.66699 11.2498 1.66699H8.74984C7.60067 1.66699 6.6665 2.53699 6.6665 3.60699V5.00033H3.33317H2.49984C2.0415 5.00033 1.6665 5.37533 1.6665 5.83366C1.6665 6.29199 2.0415 6.66699 2.49984 6.66699H3.33317V15.8337C3.33317 17.212 4.45484 18.3337 5.83317 18.3337H14.1665C15.5448 18.3337 16.6665 17.212 16.6665 15.8337V6.66699H17.4998C17.9582 6.66699 18.3332 6.29199 18.3332 5.83366C18.3332 5.37533 17.9582 5.00033 17.4998 5.00033V5.00033Z"/>
</svg>
