<svg width="20" height="20" viewBox="0 0 20 20" fill="none" xmlns="http://www.w3.org/2000/svg">
<path d="M5.83333 2.50033C5.83333 2.04009 5.46024 1.66699 5 1.66699C4.53976 1.66699 4.16667 2.04009 4.16667 2.50033V9.55588C4.16667 11.2837 4.81871 12.6743 5.92159 13.6213C7.00834 14.5544 8.46488 15.0003 10 15.0003C11.5351 15.0003 12.9917 14.5544 14.0784 13.6213C15.1813 12.6743 15.8333 11.2837 15.8333 9.55588V2.50033C15.8333 2.04009 15.4602 1.66699 15 1.66699C14.5398 1.66699 14.1667 2.04009 14.1667 2.50033V9.55588C14.1667 10.8349 13.6994 11.7499 12.9927 12.3568C12.2698 12.9775 11.2263 13.3337 10 13.3337C8.7737 13.3337 7.73024 12.9775 7.00734 12.3568C6.30058 11.7499 5.83333 10.8349 5.83333 9.55588V2.50033Z" fill="#4D4354"/>
<path d="M3.33333 16.667C2.8731 16.667 2.5 17.0401 2.5 17.5003C2.5 17.9606 2.8731 18.3337 3.33333 18.3337L16.6667 18.3337C17.1269 18.3337 17.5 17.9606 17.5 17.5003C17.5 17.0401 17.1269 16.667 16.6667 16.667L3.33333 16.667Z" fill="#4D4354"/>
</svg>
