<svg width="20" height="20" viewBox="0 0 20 20" fill="none" xmlns="http://www.w3.org/2000/svg">
<path fill-rule="evenodd" clip-rule="evenodd" d="M11.1785 10.0002L14.756 6.42271C15.0819 6.09687 15.0819 5.57021 14.756 5.24437C14.4302 4.91854 13.9035 4.91854 13.5777 5.24437L10.0002 8.82187L6.42271 5.24437C6.09687 4.91854 5.57021 4.91854 5.24437 5.24437C4.91854 5.57021 4.91854 6.09687 5.24437 6.42271L8.82187 10.0002L5.24437 13.5777C4.91854 13.9035 4.91854 14.4302 5.24437 14.756C5.40687 14.9185 5.62021 15.0002 5.83354 15.0002C6.04687 15.0002 6.26021 14.9185 6.42271 14.756L10.0002 11.1785L13.5777 14.756C13.7402 14.9185 13.9535 15.0002 14.1669 15.0002C14.3802 15.0002 14.5935 14.9185 14.756 14.756C15.0819 14.4302 15.0819 13.9035 14.756 13.5777L11.1785 10.0002Z" fill="#4D4354"/>
</svg>
