<svg width="20" height="20" viewBox="0 0 20 20" fill="none" xmlns="http://www.w3.org/2000/svg">
<path d="M5.67627 6.74813C5.38042 6.45228 5.38042 5.97261 5.67627 5.67676L9.46415 1.88888C9.76 1.59303 10.2397 1.59303 10.5355 1.88888L14.3234 5.67676C14.6193 5.97261 14.6193 6.45228 14.3234 6.74813C14.0276 7.04399 13.5479 7.04399 13.252 6.74813L10.7574 4.25352L10.7574 13.0306C10.7574 13.449 10.4182 13.7882 9.99984 13.7882C9.58144 13.7882 9.24226 13.449 9.24226 13.0306L9.24226 4.25352L6.74765 6.74813C6.45179 7.04399 5.97212 7.04399 5.67627 6.74813Z" fill="#4D4354"/>
<path d="M2.42408 12.2731C2.84248 12.2731 3.18166 12.6122 3.18166 13.0306V16.0609C3.18166 16.4793 3.52083 16.8185 3.93923 16.8185H16.0604C16.4788 16.8185 16.818 16.4793 16.818 16.0609V13.0306C16.818 12.6122 17.1572 12.2731 17.5756 12.2731C17.994 12.2731 18.3332 12.6122 18.3332 13.0306V16.0609C18.3332 17.3161 17.3156 18.3337 16.0604 18.3337H3.93923C2.68404 18.3337 1.6665 17.3161 1.6665 16.0609V13.0306C1.6665 12.6122 2.00568 12.2731 2.42408 12.2731Z" fill="#4D4354"/>
</svg>
