<svg width="20" height="20" viewBox="0 0 20 20" fill="none" xmlns="http://www.w3.org/2000/svg">
<path d="M1.66675 4.16699V6.66699C1.66675 6.88801 1.75455 7.09997 1.91083 7.25625C2.06711 7.41253 2.27907 7.50033 2.50008 7.50033C2.7211 7.50033 2.93306 7.41253 3.08934 7.25625C3.24562 7.09997 3.33341 6.88801 3.33341 6.66699V4.16699C3.33341 3.94598 3.42121 3.73402 3.57749 3.57774C3.73377 3.42146 3.94573 3.33366 4.16675 3.33366H6.66675C6.88776 3.33366 7.09972 3.24586 7.256 3.08958C7.41228 2.9333 7.50008 2.72134 7.50008 2.50033C7.50008 2.27931 7.41228 2.06735 7.256 1.91107C7.09972 1.75479 6.88776 1.66699 6.66675 1.66699H4.16675C3.50371 1.66699 2.86782 1.93038 2.39898 2.39923C1.93014 2.86807 1.66675 3.50395 1.66675 4.16699V4.16699Z" fill="#4D4354"/>
<path d="M1.66675 15.8333C1.66675 16.4964 1.93014 17.1323 2.39898 17.6011C2.86782 18.0699 3.50371 18.3333 4.16675 18.3333H6.66675C6.88776 18.3333 7.09972 18.2455 7.256 18.0893C7.41228 17.933 7.50008 17.721 7.50008 17.5C7.50008 17.279 7.41228 17.067 7.256 16.9107C7.09972 16.7545 6.88776 16.6667 6.66675 16.6667H4.16675C3.94573 16.6667 3.73377 16.5789 3.57749 16.4226C3.42121 16.2663 3.33341 16.0543 3.33341 15.8333V13.3333C3.33341 13.1123 3.24562 12.9004 3.08934 12.7441C2.93306 12.5878 2.7211 12.5 2.50008 12.5C2.27907 12.5 2.06711 12.5878 1.91083 12.7441C1.75455 12.9004 1.66675 13.1123 1.66675 13.3333V15.8333Z" fill="#4D4354"/>
<path d="M17.5 12.5C17.279 12.5 17.067 12.5878 16.9107 12.7441C16.7545 12.9004 16.6667 13.1123 16.6667 13.3333V15.8333C16.6667 16.0543 16.5789 16.2663 16.4226 16.4226C16.2663 16.5789 16.0543 16.6667 15.8333 16.6667H13.3333C13.1123 16.6667 12.9004 16.7545 12.7441 16.9107C12.5878 17.067 12.5 17.279 12.5 17.5C12.5 17.721 12.5878 17.933 12.7441 18.0893C12.9004 18.2455 13.1123 18.3333 13.3333 18.3333H15.8333C16.4964 18.3333 17.1323 18.0699 17.6011 17.6011C18.0699 17.1323 18.3333 16.4964 18.3333 15.8333V13.3333C18.3333 13.1123 18.2455 12.9004 18.0893 12.7441C17.933 12.5878 17.721 12.5 17.5 12.5Z" fill="#4D4354"/>
<path d="M15.8333 1.66699H13.3333C13.1123 1.66699 12.9004 1.75479 12.7441 1.91107C12.5878 2.06735 12.5 2.27931 12.5 2.50033C12.5 2.72134 12.5878 2.9333 12.7441 3.08958C12.9004 3.24586 13.1123 3.33366 13.3333 3.33366H15.8333C16.0543 3.33366 16.2663 3.42146 16.4226 3.57774C16.5789 3.73402 16.6667 3.94598 16.6667 4.16699V6.66699C16.6667 6.88801 16.7545 7.09997 16.9107 7.25625C17.067 7.41253 17.279 7.50033 17.5 7.50033C17.721 7.50033 17.933 7.41253 18.0893 7.25625C18.2455 7.09997 18.3333 6.88801 18.3333 6.66699V4.16699C18.3333 3.50395 18.0699 2.86807 17.6011 2.39923C17.1323 1.93038 16.4964 1.66699 15.8333 1.66699Z" fill="#4D4354"/>
<path d="M6.66667 7.50065V6.66732C6.66667 6.4463 6.57887 6.23434 6.42259 6.07806C6.26631 5.92178 6.05435 5.83398 5.83333 5.83398C5.61232 5.83398 5.40036 5.92178 5.24408 6.07806C5.0878 6.23434 5 6.4463 5 6.66732V7.50065C5 7.72166 5.0878 7.93363 5.24408 8.08991C5.40036 8.24619 5.61232 8.33398 5.83333 8.33398C6.05435 8.33398 6.26631 8.24619 6.42259 8.08991C6.57887 7.93363 6.66667 7.72166 6.66667 7.50065Z" fill="#4D4354"/>
<path d="M15.0002 7.50065V6.66732C15.0002 6.4463 14.9124 6.23434 14.7561 6.07806C14.5998 5.92178 14.3878 5.83398 14.1668 5.83398C13.9458 5.83398 13.7339 5.92178 13.5776 6.07806C13.4213 6.23434 13.3335 6.4463 13.3335 6.66732V7.50065C13.3335 7.72166 13.4213 7.93363 13.5776 8.08991C13.7339 8.24619 13.9458 8.33398 14.1668 8.33398C14.3878 8.33398 14.5998 8.24619 14.7561 8.08991C14.9124 7.93363 15.0002 7.72166 15.0002 7.50065Z" fill="#4D4354"/>
<path d="M12.6877 11.9737C12.3781 12.3957 11.9734 12.7388 11.5065 12.9753C11.0396 13.2118 10.5236 13.3351 10.0002 13.3351C9.47679 13.3351 8.96076 13.2118 8.49386 12.9753C8.02695 12.7388 7.62231 12.3957 7.31269 11.9737C7.173 11.8024 6.971 11.6936 6.75112 11.6713C6.53123 11.6489 6.31147 11.7148 6.14019 11.8545C5.9689 11.9942 5.86012 12.1962 5.83777 12.4161C5.81542 12.636 5.88134 12.8557 6.02102 13.027C6.4875 13.6401 7.08935 14.1371 7.77959 14.4793C8.46983 14.8214 9.2298 14.9994 10.0002 14.9994C10.7706 14.9994 11.5305 14.8214 12.2208 14.4793C12.911 14.1371 13.5129 13.6401 13.9794 13.027C14.119 12.8557 14.185 12.636 14.1626 12.4161C14.1403 12.1962 14.0315 11.9942 13.8602 11.8545C13.6889 11.7148 13.4691 11.6489 13.2493 11.6713C13.0294 11.6936 12.8274 11.8024 12.6877 11.9737V11.9737Z" fill="#4D4354"/>
<path d="M8.3335 6.66732V9.17565C8.3357 9.83725 8.60007 10.471 9.06867 10.938C9.53727 11.4051 10.1719 11.6673 10.8335 11.6673C11.0545 11.6662 11.266 11.5774 11.4215 11.4203C11.577 11.2632 11.6638 11.0508 11.6627 10.8298C11.6616 10.6088 11.5727 10.3973 11.4156 10.2418C11.2586 10.0863 11.0462 9.99955 10.8252 10.0007C10.6064 10.0004 10.3967 9.91344 10.242 9.75877C10.0874 9.6041 10.0004 9.39439 10.0002 9.17565V6.66732C10.0002 6.4463 9.91237 6.23434 9.75609 6.07806C9.5998 5.92178 9.38784 5.83398 9.16683 5.83398C8.94582 5.83398 8.73385 5.92178 8.57757 6.07806C8.42129 6.23434 8.3335 6.4463 8.3335 6.66732Z" fill="#4D4354"/>
</svg>
