<svg width="20" height="20" viewBox="0 0 20 20" fill="none" xmlns="http://www.w3.org/2000/svg">
<g clip-path="url(#clip0_33960_59017)">
<path d="M5.83203 7.49967C5.83203 7.03944 6.20513 6.66634 6.66536 6.66634H13.332C13.7923 6.66634 14.1654 7.03944 14.1654 7.49967C14.1654 7.95991 13.7923 8.33301 13.332 8.33301H6.66536C6.20513 8.33301 5.83203 7.95991 5.83203 7.49967Z" fill="#4D4354"/>
<path d="M6.66536 9.99967C6.20513 9.99967 5.83203 10.3728 5.83203 10.833C5.83203 11.2932 6.20513 11.6663 6.66536 11.6663H9.9987C10.4589 11.6663 10.832 11.2932 10.832 10.833C10.832 10.3728 10.4589 9.99967 9.9987 9.99967H6.66536Z" fill="#4D4354"/>
<path fill-rule="evenodd" clip-rule="evenodd" d="M2.39394 3.25123C3.77443 1.6825 6.15637 0.833008 9.9987 0.833008C13.841 0.833008 16.223 1.6825 17.6035 3.25123C18.9685 4.80244 19.1654 6.85622 19.1654 8.74967C19.1654 10.6474 18.9634 12.6295 17.9923 14.1468C17.0229 15.6614 15.3912 16.5669 12.9211 16.6586L11.332 18.7775C10.6654 19.6663 9.33203 19.6663 8.66536 18.7775L7.07625 16.6586C4.60622 16.5669 2.97447 15.6614 2.00514 14.1468C1.03404 12.6295 0.832031 10.6474 0.832031 8.74967C0.832031 6.85622 1.02888 4.80244 2.39394 3.25123ZM3.64513 4.35228C2.71852 5.40524 2.4987 6.89313 2.4987 8.74967C2.4987 10.6019 2.71336 12.1616 3.40892 13.2484C4.05203 14.2532 5.20652 14.9997 7.4987 14.9997C7.76099 14.9997 8.00798 15.1232 8.16536 15.333L9.9987 17.7775L11.832 15.333C11.9894 15.1232 12.2364 14.9997 12.4987 14.9997C14.7909 14.9997 15.9454 14.2532 16.5885 13.2484C17.284 12.1616 17.4987 10.6019 17.4987 8.74967C17.4987 6.89313 17.2789 5.40524 16.3523 4.35228C15.4411 3.31685 13.6564 2.49967 9.9987 2.49967C6.34102 2.49967 4.5563 3.31685 3.64513 4.35228Z" fill="#4D4354"/>
</g>
<defs>
<clipPath id="clip0_33960_59017">
<rect width="20" height="20" fill="white"/>
</clipPath>
</defs>
</svg>
