<svg width="24" height="24" viewBox="0 0 24 24" fill="none" xmlns="http://www.w3.org/2000/svg">
<path fill-rule="evenodd" clip-rule="evenodd" d="M6.64524 15.0887C8.07484 14.6091 9.96914 14.4645 11.92 14.4645C13.8816 14.4645 15.7767 14.6145 17.2048 15.1C17.9228 15.3441 18.5775 15.6908 19.0592 16.1956C19.5582 16.7186 19.84 17.3798 19.84 18.1615C19.84 18.9447 19.5556 19.6057 19.0538 20.1267C18.5697 20.6293 17.9127 20.9728 17.194 21.2139C15.7642 21.6936 13.87 21.8385 11.92 21.8385C9.95893 21.8385 8.06388 21.6887 6.63568 21.2033C5.91763 20.9593 5.26281 20.6126 4.78099 20.1078C4.28187 19.5848 4 18.9234 4 18.1415C4 17.3582 4.28407 16.6971 4.78577 16.176C5.26971 15.6733 5.92661 15.3297 6.64524 15.0887ZM5.86641 17.2163C5.62843 17.4635 5.5 17.7538 5.5 18.1415C5.5 18.5306 5.62838 18.8231 5.86613 19.0722C6.12119 19.3394 6.52987 19.5831 7.11832 19.7831C8.30312 20.1858 9.99307 20.3385 11.92 20.3385C13.838 20.3385 15.5288 20.1904 16.717 19.7918C17.3073 19.5938 17.7175 19.3519 17.9734 19.0861C18.2116 18.8389 18.34 18.5487 18.34 18.1615C18.34 17.7726 18.2117 17.4803 17.974 17.2312C17.719 16.9639 17.3104 16.7202 16.722 16.5202C15.5373 16.1174 13.8474 15.9645 11.92 15.9645C10.0009 15.9645 8.31016 16.1123 7.12227 16.5108C6.53214 16.7087 6.12217 16.9506 5.86641 17.2163Z" fill="#EE6C4D"/>
<path fill-rule="evenodd" clip-rule="evenodd" d="M8.16752 3.54745C9.16016 2.55654 10.5054 2 11.908 2C13.3106 2 14.6559 2.55654 15.6485 3.54745C16.6412 4.53837 17.2001 5.88267 17.2025 7.28525C17.205 8.68784 16.6508 10.0341 15.6616 11.0285C14.6724 12.0228 13.3291 12.5841 11.9265 12.589L11.924 12.589H11.892L11.8895 12.589C10.487 12.5841 9.14363 12.0228 8.15445 11.0285C7.16528 10.0341 6.61108 8.68784 6.61353 7.28525C6.61598 5.88267 7.17488 4.53837 8.16752 3.54745ZM11.908 3.429C10.884 3.429 9.90182 3.83533 9.17709 4.55879C8.45237 5.28225 8.04432 6.26373 8.04253 7.28775C8.04074 8.31177 8.44536 9.29466 9.16755 10.0207C9.88944 10.7463 10.8697 11.1561 11.8932 11.16H11.9228C12.9464 11.1561 13.9266 10.7463 14.6485 10.0207C15.3707 9.29466 15.7753 8.31177 15.7735 7.28775C15.7717 6.26373 15.3637 5.28225 14.639 4.55879C13.9142 3.83533 12.932 3.429 11.908 3.429Z" fill="#EE6C4D"/>
</svg>
