<svg width="20" height="20" viewBox="0 0 20 20" fill="#201429" xmlns="http://www.w3.org/2000/svg">
<g clip-path="url(#clip0_31869_26225)">
<path d="M18.9501 5.71742C18.8444 5.34038 18.6385 4.99902 18.3543 4.72964C18.0621 4.45198 17.704 4.25336 17.3137 4.15253C15.853 3.76753 10.001 3.76753 10.001 3.76753C7.56139 3.73977 5.12235 3.86185 2.69769 4.13308C2.30739 4.24136 1.9499 4.44442 1.65702 4.7242C1.36924 5.00108 1.1608 5.34253 1.05191 5.71664C0.790338 7.12578 0.663249 8.55658 0.672355 9.98975C0.663022 11.4216 0.789799 12.852 1.05191 14.2629C1.15847 14.6354 1.36613 14.9753 1.65469 15.2499C1.94324 15.5244 2.30258 15.7228 2.69769 15.8278C4.1778 16.212 10.001 16.212 10.001 16.212C12.4438 16.2398 14.8859 16.1177 17.3137 15.8464C17.704 15.7456 18.0621 15.547 18.3543 15.2693C18.6421 14.9948 18.8467 14.6533 18.9494 14.2815C19.2178 12.8729 19.3483 11.4415 19.339 10.0076C19.3592 8.56767 19.2289 7.12952 18.9501 5.71664V5.71742ZM8.14058 12.6529V7.32742L13.0095 9.99053L8.14058 12.6529Z"/>
</g>
<defs>
<clipPath id="clip0_31869_26225">
<rect width="18.6667" height="18.6667" fill="white" transform="translate(0.671875 0.65625)"/>
</clipPath>
</defs>
</svg>
