<svg width="17" height="16" viewBox="0 0 17 16" fill="#201429" xmlns="http://www.w3.org/2000/svg">
<path fill-rule="evenodd" clip-rule="evenodd" d="M1.20817 9.04159H13.5675L9.78317 13.5833C9.41442 14.0249 9.47484 14.6822 9.9165 15.0499C10.3592 15.4187 11.0155 15.3583 11.3842 14.9166L16.5925 8.66659C16.6332 8.61763 16.653 8.56034 16.6832 8.50617C16.7082 8.46242 16.7384 8.42492 16.7571 8.377C16.804 8.25721 16.8321 8.13117 16.8321 8.00409C16.8321 8.00304 16.8332 8.00096 16.8332 7.99992C16.8332 7.99888 16.8321 7.99679 16.8321 7.99575C16.8321 7.86867 16.804 7.74263 16.7571 7.62284C16.7384 7.57492 16.7082 7.53742 16.6832 7.49367C16.653 7.4395 16.6332 7.38221 16.5925 7.33325L11.3842 1.08325C11.1769 0.836377 10.8811 0.708252 10.5832 0.708252C10.3478 0.708252 10.1113 0.787419 9.9165 0.949919C9.47484 1.31763 9.41442 1.97492 9.78317 2.41659L13.5675 6.95825H1.20817C0.633171 6.95825 0.166504 7.42492 0.166504 7.99992C0.166504 8.57492 0.633171 9.04159 1.20817 9.04159"/>
</svg>
