<svg width="17" height="16" viewBox="0 0 17 16" fill="#201429" xmlns="http://www.w3.org/2000/svg">
<path fill-rule="evenodd" clip-rule="evenodd" d="M15.7915 6.9584H3.43213L7.2165 2.41673C7.58525 1.97507 7.52484 1.31778 7.08317 0.950068C6.64046 0.581318 5.98421 0.641735 5.6165 1.0834L0.408171 7.3334C0.367546 7.38236 0.346712 7.43965 0.316504 7.49382C0.291504 7.53757 0.261296 7.57507 0.242546 7.62299C0.195671 7.74278 0.167546 7.86882 0.167546 7.9959C0.167546 7.99694 0.166504 7.99903 0.166504 8.00007C0.166504 8.00111 0.167546 8.00319 0.167546 8.00424C0.167546 8.13132 0.195671 8.25736 0.242546 8.37715C0.261296 8.42507 0.291504 8.46257 0.316504 8.50632C0.346712 8.56049 0.367546 8.61778 0.408171 8.66674L5.6165 14.9167C5.82275 15.1636 6.11859 15.2917 6.4165 15.2917C6.65192 15.2917 6.88838 15.2126 7.08317 15.0501C7.52484 14.6824 7.58525 14.0251 7.2165 13.5834L3.43213 9.04174H15.7915C16.3665 9.04174 16.8332 8.57507 16.8332 8.00007C16.8332 7.42507 16.3665 6.9584 15.7915 6.9584"/>
</svg>
