<svg width="48" height="48" viewBox="0 0 48 48" fill="none" xmlns="http://www.w3.org/2000/svg">
<path d="M0 24C0 19.2533 1.40758 14.6131 4.04473 10.6663C6.68188 6.71954 10.4302 3.64341 14.8156 1.8269C19.201 0.0103989 24.0266 -0.464881 28.6822 0.461164C33.3377 1.38721 37.6141 3.67299 40.9706 7.02945C44.327 10.3859 46.6128 14.6623 47.5388 19.3178C48.4649 23.9734 47.9896 28.799 46.1731 33.1844C44.3566 37.5698 41.2805 41.3181 37.3337 43.9553C33.3869 46.5924 28.7468 48 24 48C17.6348 48 11.5303 45.4714 7.02944 40.9706C2.52856 36.4697 0 30.3652 0 24H0Z" fill="#F06A35"/>
<path fill-rule="evenodd" clip-rule="evenodd" d="M30.7077 38.6237C32.7839 38.3685 34.7028 37.3869 36.1247 35.8527C37.2524 34.7133 38.0559 33.2939 38.4527 31.7407C38.6467 31.0407 38.6637 30.7037 38.6987 26.6097C38.7638 24.9762 38.7384 23.3404 38.6227 21.7097C38.5742 21.4607 38.4763 21.2239 38.3348 21.0133C38.1932 20.8028 38.011 20.6227 37.7987 20.4837C37.2551 20.3692 36.7013 20.3092 36.1457 20.3047C34.8167 20.2457 34.6687 20.2197 34.2457 19.9737C33.5807 19.5837 33.3977 19.1627 33.3957 18.0197C33.37 16.8831 33.1172 15.763 32.6522 14.7256C32.1871 13.6881 31.5192 12.7542 30.6877 11.9787C29.4971 10.7285 28.0055 9.80468 26.3557 9.2957C24.9684 9.10559 23.5667 9.04099 22.1677 9.1027C17.5797 9.0487 16.5607 9.1427 14.9987 9.7647C13.5801 10.331 12.3203 11.2334 11.3274 12.3942C10.3345 13.5549 9.63836 14.9395 9.29874 16.4287C9.15674 17.0107 9.12974 17.9437 9.09874 23.3027C9.05674 30.0167 9.09874 31.0027 9.52274 32.3327C9.81416 33.3254 10.2954 34.2522 10.9397 35.0617C12.2785 36.8619 14.23 38.1098 16.4257 38.5697C17.3977 38.7477 29.4717 38.7897 30.7077 38.6237ZM18.0178 20.1931C17.7578 20.1018 17.5242 19.9479 17.3377 19.745C17.1512 19.5421 17.0175 19.2964 16.9483 19.0296C16.8791 18.7628 16.8767 18.4831 16.9411 18.2152C17.0055 17.9472 17.1349 17.6992 17.3178 17.4931C17.8318 16.9751 17.9748 16.9551 21.2078 16.9551C24.1078 16.9551 24.2078 16.9611 24.6338 17.1771C24.9138 17.296 25.1495 17.4995 25.3079 17.7592C25.4663 18.0189 25.5393 18.3217 25.5168 18.6251C25.5281 18.9154 25.458 19.2031 25.3145 19.4558C25.1711 19.7084 24.9599 19.916 24.7048 20.0551C24.4048 20.2461 24.2238 20.2551 21.3798 20.2741C20.2582 20.3065 19.1356 20.2795 18.0168 20.1931H18.0178ZM17.2395 30.2807C17.4105 30.503 17.6297 30.6835 17.8807 30.8086L17.8817 30.8056C18.1157 30.9076 19.3937 30.9906 23.8937 30.9376L29.0167 30.8776L29.9997 30.7176C30.2215 30.5926 30.4111 30.4174 30.5532 30.2061C30.6953 29.9948 30.786 29.7532 30.818 29.5005C30.8501 29.2479 30.8226 28.9913 30.7378 28.7512C30.653 28.511 30.5133 28.2941 30.3297 28.1176C30.2511 28.0436 30.184 27.9802 30.1103 27.9259C29.6611 27.5944 28.9635 27.5996 23.8717 27.5996C18.1097 27.6046 17.9037 27.6186 17.4357 28.0436C17.2424 28.236 17.0938 28.4684 17.0001 28.7244C16.9065 28.9805 16.8701 29.254 16.8937 29.5256C16.9503 29.8003 17.0685 30.0585 17.2395 30.2807Z" fill="white"/>
</svg>
