<svg width="20" height="21" viewBox="0 0 20 21" fill="#4D4354" xmlns="http://www.w3.org/2000/svg">
<g clip-path="url(#clip0_188_8722)">
<path fill-rule="evenodd" clip-rule="evenodd" d="M3.6461 5.17479C2.71949 6.22775 2.49967 7.71564 2.49967 9.57218C2.49967 11.4244 2.71433 12.9841 3.4099 14.0709C4.05301 15.0757 5.2075 15.8222 7.49967 15.8222C7.76197 15.8222 8.00896 15.9457 8.16634 16.1555L9.99967 18.6L11.833 16.1555C11.9904 15.9457 12.2374 15.8222 12.4997 15.8222C14.7918 15.8222 15.9463 15.0757 16.5894 14.0709C17.285 12.9841 17.4997 11.4244 17.4997 9.57218C17.4997 7.71564 17.2799 6.22775 16.3532 5.17479C15.4421 4.13936 13.6573 3.32218 9.99967 3.32218C6.342 3.32218 4.55728 4.13936 3.6461 5.17479ZM2.39491 4.07374C3.7754 2.50501 6.15735 1.65552 9.99967 1.65552C13.842 1.65552 16.2239 2.50501 17.6044 4.07374C18.9695 5.62495 19.1663 7.67873 19.1663 9.57218C19.1663 11.47 18.9643 13.452 17.9932 14.9693C17.0239 16.4839 15.3921 17.3894 12.9221 17.4811L11.333 19.6C10.6663 20.4889 9.33301 20.4889 8.66634 19.6L7.07722 17.4811C4.6072 17.3894 2.97544 16.4839 2.00611 14.9693C1.03502 13.452 0.833008 11.47 0.833008 9.57218C0.833008 7.67873 1.02985 5.62495 2.39491 4.07374Z"/>
</g>
<defs>
<clipPath id="clip0_188_8722">
<rect width="20" height="20" fill="white" transform="translate(0 0.822266)"/>
</clipPath>
</defs>
</svg>
