<svg width="48" height="48" viewBox="0 0 48 48" fill="none" xmlns="http://www.w3.org/2000/svg">
<path d="M0 24C0 19.2533 1.40758 14.6131 4.04473 10.6663C6.68188 6.71954 10.4302 3.64341 14.8156 1.8269C19.201 0.0103989 24.0266 -0.464881 28.6822 0.461164C33.3377 1.38721 37.6141 3.67299 40.9706 7.02945C44.327 10.3859 46.6128 14.6623 47.5388 19.3178C48.4649 23.9734 47.9896 28.799 46.1731 33.1844C44.3566 37.5698 41.2805 41.3181 37.3337 43.9553C33.3869 46.5924 28.7468 48 24 48C17.6348 48 11.5303 45.4714 7.02944 40.9706C2.52856 36.4697 0 30.3652 0 24H0Z" fill="#F7F4F2"/>
<path d="M22.0843 18.3201C21.9863 18.2187 21.8696 18.1382 21.7411 18.0832C21.6125 18.0283 21.4746 18 21.3354 18C21.1961 18 21.0582 18.0283 20.9297 18.0832C20.8011 18.1382 20.6845 18.2187 20.5864 18.3201L15.312 23.7316C15.2132 23.8322 15.1347 23.9519 15.0811 24.0838C15.0276 24.2157 15 24.3571 15 24.5C15 24.6429 15.0276 24.7843 15.0811 24.9162C15.1347 25.0481 15.2132 25.1678 15.312 25.2684L20.5864 30.6799C20.6845 30.7813 20.8011 30.8618 20.9297 30.9168C21.0582 30.9717 21.1961 31 21.3354 31C21.4746 31 21.6125 30.9717 21.7411 30.9168C21.8696 30.8618 21.9863 30.7813 22.0843 30.6799C22.1832 30.5792 22.2617 30.4595 22.3152 30.3277C22.3688 30.1958 22.3964 30.0543 22.3964 29.9114C22.3964 29.7686 22.3688 29.6271 22.3152 29.4952C22.2617 29.3633 22.1832 29.2436 22.0843 29.143L17.5484 24.5L22.0843 19.857C22.1832 19.7564 22.2617 19.6367 22.3152 19.5048C22.3688 19.3729 22.3964 19.2314 22.3964 19.0886C22.3964 18.9457 22.3688 18.8042 22.3152 18.6723C22.2617 18.5405 22.1832 18.4208 22.0843 18.3201ZM33.688 23.7316L28.4136 18.3201C28.3152 18.2192 28.1985 18.1392 28.07 18.0846C27.9415 18.03 27.8037 18.0018 27.6646 18.0018C27.3837 18.0018 27.1143 18.1163 26.9157 18.3201C26.8173 18.421 26.7393 18.5408 26.6861 18.6727C26.6328 18.8045 26.6054 18.9459 26.6054 19.0886C26.6054 19.3768 26.717 19.6532 26.9157 19.857L31.4516 24.5L26.9157 29.143C26.8168 29.2436 26.7383 29.3633 26.6848 29.4952C26.6312 29.6271 26.6036 29.7686 26.6036 29.9114C26.6036 30.0543 26.6312 30.1958 26.6848 30.3277C26.7383 30.4595 26.8168 30.5792 26.9157 30.6799C27.0137 30.7813 27.1304 30.8618 27.2589 30.9168C27.3875 30.9717 27.5254 31 27.6646 31C27.8039 31 27.9418 30.9717 28.0703 30.9168C28.1989 30.8618 28.3155 30.7813 28.4136 30.6799L33.688 25.2684C33.7868 25.1678 33.8653 25.0481 33.9189 24.9162C33.9724 24.7843 34 24.6429 34 24.5C34 24.3571 33.9724 24.2157 33.9189 24.0838C33.8653 23.9519 33.7868 23.8322 33.688 23.7316Z" fill="#201429"/>
</svg>
