<svg width="24" height="25" viewBox="0 0 24 25" fill="#4D4354" xmlns="http://www.w3.org/2000/svg">
<path fill-rule="evenodd" clip-rule="evenodd" d="M8.13425 3.92965C8.81844 3.50565 9.69741 3.32227 10.6866 3.32227C11.0066 3.32227 11.302 3.49371 11.4607 3.7715C12.2086 5.08026 13.0788 5.97982 13.9784 6.90977C14.0721 7.00656 14.166 7.10367 14.2602 7.20162C15.1318 8.1082 16.0146 9.08082 16.635 10.455H20.0483C20.5407 10.455 20.9399 10.8542 20.9399 11.3466V20.2625C20.9399 20.7549 20.5407 21.154 20.0483 21.154H16.107L9.16195 22.2653C6.45337 22.6986 3.99969 20.6063 3.99969 17.8633V15.0846L3.25846 13.2315C2.556 11.4754 3.84762 9.56339 5.7408 9.56339H7.98657C7.71187 9.14665 7.48385 8.73916 7.3044 8.34362C6.92054 7.49757 6.73379 6.64951 6.8515 5.86477C6.97446 5.04499 7.42028 4.37211 8.13425 3.92965ZM16.9277 19.3709H19.1567V12.2382H16.9277V19.3709ZM15.1446 11.5091C14.6591 10.2647 13.9029 9.40287 12.9747 8.43747C12.882 8.34102 12.7874 8.24344 12.6914 8.14433C11.8939 7.32149 10.9942 6.39324 10.1953 5.12682C9.6732 5.17484 9.31032 5.29865 9.07357 5.44537C8.79844 5.61588 8.65915 5.83459 8.61495 6.12929C8.56548 6.45904 8.62949 6.94837 8.92826 7.60687C9.22388 8.25845 9.72555 9.02162 10.466 9.86786C10.6964 10.1311 10.7515 10.5048 10.6069 10.8234C10.4624 11.142 10.1449 11.3466 9.79502 11.3466H5.7408C5.1109 11.3466 4.67951 11.9828 4.9141 12.5693L5.7191 14.5818C5.76123 14.6871 5.78287 14.7995 5.78287 14.9129V17.8633C5.78287 19.5091 7.25508 20.7645 8.88023 20.5045L15.1446 19.5022V11.5091Z"/>
</svg>
