<svg width="20" height="20" viewBox="0 0 20 20" fill="none" xmlns="http://www.w3.org/2000/svg">
<path fill-rule="evenodd" clip-rule="evenodd" d="M1.44922 2.86315C1.44922 2.48401 1.59983 2.1204 1.86793 1.8523C2.13602 1.58421 2.49963 1.4336 2.87877 1.4336H17.1292C17.3171 1.43329 17.5032 1.47004 17.6769 1.54176C17.8505 1.61347 18.0084 1.71874 18.1413 1.85152C18.2742 1.98431 18.3797 2.14201 18.4516 2.3156C18.5235 2.48919 18.5604 2.67526 18.5603 2.86315V17.1136C18.5605 17.3015 18.5237 17.4876 18.4519 17.6613C18.3801 17.835 18.2747 17.9928 18.1419 18.1257C18.009 18.2586 17.8513 18.3641 17.6777 18.436C17.504 18.5078 17.3179 18.5448 17.13 18.5447H2.87877C2.69098 18.5447 2.50502 18.5077 2.33153 18.4358C2.15803 18.3639 2.00041 18.2585 1.86765 18.1257C1.73489 17.9929 1.62961 17.8352 1.55781 17.6617C1.48602 17.4881 1.44912 17.3022 1.44922 17.1144V2.86315ZM8.2221 7.95759H10.5391V9.12115C10.8735 8.45226 11.7291 7.85026 13.0148 7.85026C15.4795 7.85026 16.0637 9.18259 16.0637 11.6271V16.1554H13.5693V12.184C13.5693 10.7918 13.2349 10.0063 12.3855 10.0063C11.2072 10.0063 10.7172 10.8533 10.7172 12.184V16.1554H8.2221V7.95759ZM3.94433 16.0488H6.43944V7.85026H3.94433V16.048V16.0488ZM6.79644 5.17626C6.80114 5.38989 6.76313 5.60232 6.68463 5.80106C6.60612 5.9998 6.48871 6.18086 6.33929 6.33362C6.18986 6.48637 6.01143 6.60774 5.81446 6.6906C5.61749 6.77346 5.40596 6.81614 5.19227 6.81614C4.97859 6.81614 4.76705 6.77346 4.57009 6.6906C4.37312 6.60774 4.19469 6.48637 4.04526 6.33362C3.89583 6.18086 3.77842 5.9998 3.69992 5.80106C3.62142 5.60232 3.5834 5.38989 3.58811 5.17626C3.59734 4.75692 3.77041 4.35788 4.07024 4.06457C4.37007 3.77127 4.77284 3.60703 5.19227 3.60703C5.61171 3.60703 6.01447 3.77127 6.31431 4.06457C6.61414 4.35788 6.7872 4.75692 6.79644 5.17626Z" fill="#201429"/>
</svg>
