<svg width="24" height="24" viewBox="0 0 24 24" fill="none" xmlns="http://www.w3.org/2000/svg">
<path d="M8 7C7.44772 7 7 7.44772 7 8C7 8.55229 7.44772 9 8 9H16C16.5523 9 17 8.55229 17 8C17 7.44772 16.5523 7 16 7H8Z" fill="#4D4354"/>
<path d="M8 11C7.44772 11 7 11.4477 7 12C7 12.5523 7.44772 13 8 13H16C16.5523 13 17 12.5523 17 12C17 11.4477 16.5523 11 16 11H8Z" fill="#4D4354"/>
<path d="M8 15C7.44772 15 7 15.4477 7 16C7 16.5523 7.44772 17 8 17H12C12.5523 17 13 16.5523 13 16C13 15.4477 12.5523 15 12 15H8Z" fill="#4D4354"/>
<path fill-rule="evenodd" clip-rule="evenodd" d="M6 3H9C9 1.34315 10.3431 0 12 0C13.6569 0 15 1.34315 15 3H18C19.6569 3 21 4.34315 21 6V20C21 21.6569 19.6569 23 18 23H6C4.34315 23 3 21.6569 3 20V6C3 4.34315 4.34315 3 6 3ZM12 2C11.4477 2 11 2.44772 11 3H13C13 2.44772 12.5523 2 12 2ZM6 5C5.44772 5 5 5.44772 5 6V20C5 20.5523 5.44772 21 6 21H18C18.5523 21 19 20.5523 19 20V6C19 5.44772 18.5523 5 18 5H6Z" fill="#4D4354"/>
</svg>
