<svg width="24" height="24" viewBox="0 0 24 24" fill="none" xmlns="http://www.w3.org/2000/svg">
<g clip-path="url(#clip0_54_3021)">
<path d="M23.765 2.49438C23.765 2.23553 23.5551 2.02563 23.2962 2.02563H17.0143C16.7509 2.02563 16.5366 1.81136 16.5366 1.54797C16.5366 1.28458 16.7509 1.07031 17.0143 1.07031C17.2732 1.07031 17.483 0.860406 17.483 0.601563C17.483 0.342719 17.2732 0.132812 17.0143 0.132812C16.2339 0.132812 15.5991 0.767641 15.5991 1.54797C15.5991 2.3283 16.2339 2.96313 17.0143 2.96313H23.2962C23.5551 2.96313 23.765 2.75322 23.765 2.49438Z" fill="#EE6C4D"/>
<path d="M13.1924 4.896H19.3961C19.655 4.896 19.8649 4.68609 19.8649 4.42725C19.8649 4.1684 19.655 3.9585 19.3961 3.9585H13.1924C12.9335 3.9585 12.7236 4.1684 12.7236 4.42725C12.7236 4.68609 12.9335 4.896 13.1924 4.896Z" fill="#EE6C4D"/>
<path d="M11.5684 4.16733C11.4594 4.00111 11.2445 3.92156 11.0536 3.97598C10.8652 4.0297 10.7256 4.19672 10.7115 4.39313C10.6817 4.80708 11.1899 5.05369 11.4954 4.7731C11.6637 4.6186 11.6949 4.35727 11.5684 4.16733V4.16733Z" fill="#EE6C4D"/>
<path d="M23.5312 9.38973C23.7901 9.38973 24 9.17983 24 8.92098C24 8.66214 23.7901 8.45224 23.5312 8.45224H23.0447V7.72445C23.0447 7.70983 23.044 7.6953 23.0427 7.68072C22.9663 6.86528 22.4752 6.37394 21.6599 6.29725C21.6453 6.29589 21.6306 6.29519 21.616 6.29519C20.8279 6.29519 20.1868 6.93635 20.1868 7.72441V8.45219H17.2515V7.72441C17.2515 7.70978 17.2508 7.6952 17.2494 7.68067C17.1742 6.87677 16.6699 6.37253 15.866 6.29721C15.8514 6.29585 15.8369 6.29514 15.8222 6.29514C15.0341 6.29514 14.393 6.9363 14.393 7.72436V8.45214H11.4577V7.72436C11.4577 7.70974 11.457 7.6952 11.4557 7.68063C11.3793 6.86519 10.8882 6.37385 10.0729 6.29716C10.0583 6.2958 10.0436 6.2951 10.029 6.2951C9.24089 6.2951 8.59978 6.93625 8.59978 7.72431V10.6112C7.83436 10.6593 6.95527 10.8295 5.99362 11.2126C5.98552 11.2157 5.9775 11.2193 5.96958 11.2229L4.10334 12.09V10.1969H5.03934C6.07242 10.1969 6.91289 9.35641 6.91289 8.32338C6.91289 7.60928 6.51722 6.97521 5.90067 6.65847C5.74252 5.5496 4.78617 4.69385 3.63459 4.69385C2.48302 4.69385 1.52667 5.5496 1.36852 6.65847C0.751969 6.97521 0.356297 7.60924 0.356297 8.32338C0.356297 9.35641 1.19677 10.1969 2.2298 10.1969H3.1658V12.5255L0.271266 13.8704C0.105797 13.9472 0 14.1131 0 14.2955V19.455V23.3984C0 23.6573 0.209859 23.8672 0.46875 23.8672H23.5312C23.7901 23.8672 24 23.6573 24 23.3984V11.6924C24 11.494 23.8751 11.3171 23.6883 11.2507C23.4671 11.1721 23.2524 11.1082 23.0447 11.0566V9.38973H23.5312ZM21.1242 7.72445C21.1242 7.45994 21.3341 7.24356 21.5961 7.23316C21.9343 7.27047 22.0707 7.4081 22.1072 7.74784V10.898C21.7813 10.869 21.4502 10.8649 21.1242 10.8963V7.72445ZM17.2514 9.38973H20.1867V11.0686C19.9813 11.1276 19.8158 11.1906 19.6946 11.2429C19.3064 11.0672 18.4635 10.7342 17.6488 10.7342C17.5118 10.7342 17.3792 10.7418 17.2514 10.7547V9.38973ZM15.3305 7.72445C15.3305 7.45989 15.5404 7.24352 15.8024 7.23316C16.1409 7.27033 16.2774 7.40795 16.3139 7.74784V10.96C16.1496 11.0158 15.9881 11.0809 15.8317 11.1562C15.7065 11.0909 15.5382 11.0123 15.3304 10.936V7.72445H15.3305ZM11.4577 9.38973H14.393V10.6946C14.1565 10.6579 13.8992 10.6354 13.6234 10.6354C12.5663 10.6354 11.8338 10.8812 11.4855 11.0309C11.4765 11.0273 11.4673 11.0236 11.4577 11.0197V9.38973H11.4577ZM9.53719 7.72445C9.53719 7.45994 9.74709 7.24356 10.0091 7.23316C10.3472 7.27047 10.4837 7.4081 10.5202 7.74784V10.7428C10.2362 10.6833 9.90684 10.634 9.53719 10.6106V7.72445ZM2.2297 9.25952C1.71356 9.25952 1.2937 8.83966 1.2937 8.32352C1.2937 7.91041 1.5585 7.55097 1.95267 7.4291C2.14889 7.36844 2.28277 7.18708 2.28295 6.98172C2.28366 6.23721 2.88994 5.63149 3.63445 5.63149C4.37897 5.63149 4.98525 6.23721 4.986 6.98172C4.98619 7.18713 5.12006 7.36844 5.31628 7.4291C5.71045 7.55097 5.97525 7.91041 5.97525 8.32352C5.97525 8.83966 5.55534 9.25952 5.0392 9.25952H4.1032V7.91533C4.1032 7.65649 3.89334 7.44658 3.63445 7.44658C3.37556 7.44658 3.1657 7.65649 3.1657 7.91533V9.25952H2.2297ZM0.9375 14.5946L6.35245 12.0789C7.65445 11.5625 9.10641 11.3684 10.4805 11.6962L0.9375 18.5418V14.5946ZM8.35223 22.9297H0.9375V19.6956L11.742 11.945C12.1212 11.7488 12.5658 11.6581 12.9856 11.6092C13.7176 11.5239 14.4649 11.588 15.1492 11.8727C14.8409 12.3602 8.35223 22.9297 8.35223 22.9297V22.9297ZM17.6653 22.9297H9.4538C9.66919 22.5815 16.1578 12.0415 16.1578 12.0415C16.5704 11.8255 17.0388 11.6986 17.5035 11.6753C18.0811 11.6464 18.6562 11.8193 19.183 12.0426L17.6653 22.9297ZM23.0625 12.0327V22.9297H18.6119L20.1244 12.0789C21.05 11.7057 22.1196 11.7551 23.0625 12.0327V12.0327Z" fill="#EE6C4D"/>
<path d="M3.27663 15.3215C3.19975 15.1372 3.00925 15.0191 2.80956 15.034C2.61386 15.0486 2.44515 15.187 2.39256 15.376C2.27968 15.7818 2.74225 16.1203 3.09555 15.8963C3.28595 15.7756 3.36166 15.5291 3.27663 15.3215Z" fill="#EE6C4D"/>
<path d="M5.91616 13.6931C5.83938 13.5087 5.64832 13.3902 5.44877 13.4051C5.25307 13.4196 5.08441 13.5583 5.03182 13.7473C4.91491 14.1676 5.41221 14.5081 5.76218 14.2488C5.93243 14.1227 5.99782 13.889 5.91616 13.6931Z" fill="#EE6C4D"/>
<path d="M11.925 14.0117C11.8266 13.7755 11.5495 13.6609 11.3133 13.7585C11.0771 13.8561 10.9622 14.1342 11.0597 14.3703C11.1572 14.6065 11.4358 14.7216 11.6718 14.6239C11.9085 14.5258 12.0218 14.2478 11.925 14.0117V14.0117Z" fill="#EE6C4D"/>
<path d="M9.14067 17.2082C9.04359 16.9716 8.76469 16.8574 8.52895 16.9546C8.29303 17.052 8.17748 17.3306 8.27536 17.5664C8.37323 17.8021 8.65134 17.9183 8.88754 17.82C9.12309 17.7219 9.23883 17.444 9.14067 17.2082V17.2082Z" fill="#4D4354"/>
<path d="M5.9162 20.229C5.81795 19.9934 5.53988 19.8778 5.30401 19.9759C5.06804 20.074 4.95277 20.3512 5.05041 20.5877C5.14787 20.8236 5.42677 20.9394 5.6626 20.8412C5.89899 20.7428 6.01313 20.4657 5.9162 20.229Z" fill="#4D4354"/>
<path d="M17.2153 14.4035C17.1183 14.1671 16.8391 14.0527 16.6035 14.1499C16.3676 14.2473 16.2518 14.5262 16.35 14.7621C16.4481 14.9979 16.7254 15.1133 16.9617 15.0157C17.1974 14.9184 17.3133 14.639 17.2153 14.4035V14.4035Z" fill="#4D4354"/>
<path d="M21.9524 14.4035C21.8554 14.1671 21.5756 14.0527 21.3402 14.1499C21.104 14.2475 20.9889 14.5261 21.0866 14.7621C21.1843 14.998 21.4629 15.1134 21.6988 15.0157C21.9343 14.9181 22.0504 14.639 21.9524 14.4035V14.4035Z" fill="#4D4354"/>
<path d="M16.2549 17.5451C16.1564 17.3091 15.8792 17.1941 15.6427 17.2915C15.4068 17.3887 15.292 17.6687 15.3895 17.9038C15.4876 18.1398 15.765 18.2549 16.0013 18.1573C16.2382 18.0595 16.3517 17.7815 16.2549 17.5451V17.5451Z" fill="#4D4354"/>
<path d="M21.8394 17.5455C21.741 17.3094 21.4636 17.1948 21.2272 17.2919C20.9908 17.389 20.8764 17.6686 20.9736 17.9041C21.0712 18.1403 21.3499 18.2554 21.5858 18.1577C21.8225 18.0597 21.9362 17.7818 21.8394 17.5455V17.5455Z" fill="#4D4354"/>
<path d="M15.2945 20.6873C15.1963 20.4514 14.9192 20.3361 14.6828 20.4337C14.4465 20.5312 14.3314 20.8098 14.4292 21.0459C14.5269 21.2818 14.805 21.3969 15.0409 21.2995C15.2765 21.2021 15.3926 20.9228 15.2945 20.6873Z" fill="#4D4354"/>
<path d="M21.6989 20.6873C21.6007 20.4514 21.3231 20.3361 21.0868 20.4337C20.8506 20.5312 20.7355 20.8099 20.8332 21.0459C20.9309 21.2818 21.2094 21.3972 21.4454 21.2995C21.6807 21.202 21.7971 20.9227 21.6989 20.6873Z" fill="#4D4354"/>
</g>
<defs>
<clipPath id="clip0_54_3021">
<rect width="24" height="24" fill="white"/>
</clipPath>
</defs>
</svg>
