<svg width="24" height="24" viewBox="0 0 24 24" fill="none" xmlns="http://www.w3.org/2000/svg">
<g clip-path="url(#clip0_54_2987)">
<path d="M4.98798 14.7088C4.78895 14.5566 4.54309 14.491 4.2955 14.5239L0.841842 14.9842C0.329873 15.0524 -0.0311577 15.5244 0.0370922 16.0365L0.990107 23.1869C1.02311 23.4345 1.15089 23.6546 1.34992 23.8068C1.51534 23.9333 1.71311 24 1.91725 24C1.95878 24 2.00054 23.9973 2.0424 23.9917L5.49606 23.5314C6.00803 23.4631 6.36906 22.9911 6.30081 22.4791L6.22342 21.8983C6.82923 21.65 7.51243 21.3706 8.27439 21.0594C9.00348 21.2121 9.67276 21.3911 10.3213 21.5645C11.54 21.8905 12.6019 22.1745 13.6553 22.1745C13.7193 22.1745 13.7835 22.1735 13.8475 22.1713C15.1081 22.1288 16.1946 21.6536 17.2669 20.6757L23.495 14.9959C24.0336 14.5047 24.1288 13.753 23.7214 13.2086C23.3668 12.7347 22.7346 12.5789 22.1866 12.796C22.1441 12.6527 22.0775 12.5157 21.9855 12.3928C21.5576 11.8208 20.7431 11.7033 20.1699 12.1309L19.9638 12.2846C19.9524 12.2678 19.9409 12.251 19.9287 12.2347C19.5001 11.6619 18.6853 11.5446 18.1124 11.9733L17.0304 12.783C16.8647 12.7488 16.6914 12.7383 16.5151 12.7555L8.55259 13.53C8.13915 13.5702 7.32151 13.9521 5.27481 15.071C5.21186 14.9299 5.11445 14.8055 4.98798 14.7088V14.7088ZM1.91936 23.0632L0.965639 15.9135H0.965686L4.4185 15.4525L5.37217 22.6022L1.91936 23.0632ZM21.2349 12.9546C21.3225 13.0715 21.3293 13.2346 21.252 13.3606C21.2426 13.3759 21.2315 13.3902 21.2198 13.4039L17.878 15.6349C18.1592 15.3652 18.3427 15.0127 18.3894 14.6283L20.7303 12.8825C20.8898 12.7635 21.1162 12.7958 21.2349 12.9546V12.9546ZM18.6741 12.7239C18.8331 12.605 19.0591 12.6375 19.1781 12.7965C19.1902 12.8126 19.2001 12.8298 19.2092 12.8473L18.182 13.6134C18.1123 13.4918 18.0277 13.38 17.9311 13.2798L18.6741 12.7239ZM8.64334 14.4631L16.6058 13.6886C17.0348 13.647 17.4095 13.9376 17.4588 14.3505C17.5128 14.8023 17.1466 15.1197 16.7571 15.1997L9.81765 16.6249C9.59537 16.6706 9.43773 16.8689 9.44335 17.0957C9.44898 17.3225 9.61628 17.5127 9.84053 17.5473L15.2345 18.3789C15.3504 18.3968 15.4688 18.3706 15.5662 18.3055L22.4462 13.7123C22.6291 13.5902 22.8546 13.6151 22.9708 13.7703C23.1037 13.9479 23.0082 14.171 22.8632 14.3032L16.6351 19.983C14.6852 21.7613 13.0455 21.3228 10.5635 20.6589C9.86049 20.4709 9.1336 20.2765 8.32224 20.1122C8.23173 20.094 8.13765 20.1028 8.05206 20.1377C7.33121 20.432 6.67979 20.6984 6.0954 20.9377L5.44356 16.0476C6.3961 15.5236 8.2697 14.5012 8.64334 14.4631V14.4631ZM17.3451 15.9907L15.1972 17.4246L12.5619 17.0183L16.9456 16.118C17.0864 16.0891 17.22 16.0461 17.3451 15.9907ZM14.2856 6.432C15.2249 6.432 15.989 5.66789 15.989 4.72866C15.989 3.78942 15.2249 3.02531 14.2856 3.02531C13.3464 3.02531 12.5823 3.78942 12.5823 4.72866C12.5823 5.66789 13.3464 6.432 14.2856 6.432ZM14.2856 3.96286C14.7079 3.96286 15.0515 4.30641 15.0515 4.7287C15.0515 5.151 14.7079 5.49455 14.2856 5.49455C13.8633 5.49455 13.5198 5.151 13.5198 4.7287C13.5198 4.30641 13.8633 3.96286 14.2856 3.96286V3.96286ZM14.2856 11.7891C17.5359 11.7891 20.1802 9.1448 20.1802 5.89453C20.1802 2.64431 17.5359 0 14.2856 0C11.0354 0 8.3911 2.64431 8.3911 5.89453C8.3911 9.1448 11.0354 11.7891 14.2856 11.7891ZM11.9755 10.2792C12.0544 9.07322 13.0601 8.11608 14.2856 8.11608C15.5112 8.11608 16.5169 9.07322 16.5958 10.2792C15.9055 10.6443 15.1194 10.8516 14.2857 10.8516C13.452 10.8516 12.6657 10.6443 11.9755 10.2792ZM14.2856 0.9375C17.019 0.9375 19.2427 3.1612 19.2427 5.89453C19.2427 7.42331 18.5468 8.79253 17.4554 9.70256C17.1233 8.25886 15.8287 7.17858 14.2856 7.17858C12.7425 7.17858 11.4479 8.25881 11.1158 9.70256C10.0244 8.79253 9.32856 7.42336 9.32856 5.89453C9.3286 3.1612 11.5523 0.9375 14.2856 0.9375Z" fill="#EE6C4D"/>
</g>
<defs>
<clipPath id="clip0_54_2987">
<rect width="24" height="24" fill="white"/>
</clipPath>
</defs>
</svg>
