<svg width="28" height="28" viewBox="0 0 28 28" fill="none" xmlns="http://www.w3.org/2000/svg">
<path fill-rule="evenodd" clip-rule="evenodd" d="M20.2445 23.1427C11.8 23.1427 4.93025 16.2719 4.93025 7.82843C4.93025 6.18957 6.26282 4.857 7.90167 4.857C8.02625 4.857 8.14967 4.865 8.27539 4.881L9.48796 10.1621C9.33787 10.2402 9.17724 10.3242 9.02058 10.4062L9.02047 10.4062L8.8731 10.4833C7.88796 10.9976 7.11082 11.4044 7.51882 12.3016C8.86282 16.1256 11.9474 19.2113 15.7257 20.537C16.6883 20.9227 17.0618 20.2085 17.5783 19.2209L17.5851 19.2079C17.6444 19.0956 17.7054 18.9785 17.7659 18.8624L17.7661 18.862L17.7662 18.8618C17.8152 18.7678 17.8638 18.6744 17.9108 18.585L23.1908 19.7964C23.208 19.9199 23.216 20.0444 23.216 20.1713C23.216 21.8101 21.8834 23.1427 20.2445 23.1427ZM25.2171 18.4661C25.088 18.0947 24.7771 17.8159 24.3931 17.7279L17.5771 16.1633C17.2011 16.0787 16.808 16.185 16.5302 16.4524C16.3668 16.6079 16.3634 16.6124 15.6205 18.0307C13.1862 16.9221 11.192 14.9347 10.0445 12.4501C11.4605 11.7084 11.464 11.705 11.6205 11.5427C11.888 11.2639 11.9954 10.8707 11.9097 10.4959L10.3451 3.67986C10.2571 3.29586 9.9771 2.98386 9.60567 2.85472C9.33367 2.761 9.05367 2.69015 8.7771 2.64557C8.49253 2.59643 8.19882 2.57129 7.90167 2.57129C5.00225 2.57129 2.64453 4.929 2.64453 7.82843C2.64453 17.5336 10.5394 25.4284 20.2445 25.4284C23.1428 25.4284 25.5017 23.0707 25.5017 20.1713C25.5017 19.8764 25.4754 19.585 25.4274 19.3016C25.3817 19.0159 25.3108 18.7359 25.2171 18.4661ZM15.2155 9.42843C17.1058 9.42843 18.6441 10.9667 18.6441 12.857C18.6441 13.489 19.1549 13.9999 19.7869 13.9999C20.4189 13.9999 20.9298 13.489 20.9298 12.857C20.9298 9.70615 18.3664 7.14272 15.2155 7.14272C14.5846 7.14272 14.0726 7.65357 14.0726 8.28557C14.0726 8.91757 14.5846 9.42843 15.2155 9.42843ZM23.2155 12.857C23.2155 8.44672 19.6258 4.857 15.2155 4.857C14.5846 4.857 14.0726 4.34615 14.0726 3.71415C14.0726 3.08215 14.5846 2.57129 15.2155 2.57129C20.8875 2.57129 25.5012 7.185 25.5012 12.857C25.5012 13.489 24.9904 13.9999 24.3584 13.9999C23.7264 13.9999 23.2155 13.489 23.2155 12.857Z" fill="white"/>
</svg>
