<svg width="91" height="63" viewBox="0 0 91 63" fill="none" xmlns="http://www.w3.org/2000/svg">
<path opacity="0.2" d="M50.75 56.3684V19.8947C50.7563 14.6202 52.9708 9.56332 56.9077 5.83362C60.8446 2.10393 66.1824 0.00596237 71.75 0C72.6783 0 73.5685 0.349339 74.2249 0.971169C74.8813 1.593 75.25 2.43639 75.25 3.31579C75.25 4.19519 74.8813 5.03858 74.2249 5.66041C73.5685 6.28224 72.6783 6.63158 71.75 6.63158C68.0382 6.63553 64.4797 8.03416 61.8551 10.5206C59.2305 13.0071 57.7542 16.3783 57.75 19.8947V23.2105H84C85.8559 23.2125 87.6351 23.9119 88.9474 25.1551C90.2597 26.3983 90.9979 28.0839 91 29.8421V56.3684C90.9979 58.1266 90.2597 59.8122 88.9474 61.0554C87.6351 62.2987 85.8559 62.998 84 63H57.75C55.8941 62.998 54.1149 62.2987 52.8026 61.0554C51.4903 59.8122 50.7521 58.1266 50.75 56.3684ZM7 63H33.25C35.1059 62.998 36.8851 62.2987 38.1974 61.0554C39.5097 59.8122 40.2479 58.1266 40.25 56.3684V29.8421C40.2479 28.0839 39.5097 26.3983 38.1974 25.1551C36.8851 23.9119 35.1059 23.2125 33.25 23.2105H7V19.8947C7.00417 16.3783 8.4805 13.0071 11.1051 10.5206C13.7297 8.03416 17.2882 6.63553 21 6.63158C21.9283 6.63158 22.8185 6.28224 23.4749 5.66041C24.1313 5.03858 24.5 4.19519 24.5 3.31579C24.5 2.43639 24.1313 1.593 23.4749 0.971169C22.8185 0.349339 21.9283 0 21 0C15.4324 0.00596237 10.0946 2.10393 6.15771 5.83362C2.22081 9.56332 0.00629425 14.6202 0 19.8947V56.3684C0.00212097 58.1266 0.740303 59.8122 2.0526 61.0554C3.36489 62.2987 5.14413 62.998 7 63Z" fill="#EE6C4D"/>
</svg>
