<svg width="48" height="48" viewBox="0 0 48 48" fill="none" xmlns="http://www.w3.org/2000/svg">
<path d="M24 48C28.7468 48 33.3869 46.5924 37.3337 43.9553C41.2805 41.3181 44.3566 37.5698 46.1731 33.1844C47.9896 28.799 48.4649 23.9734 47.5388 19.3178C46.6128 14.6623 44.327 10.3859 40.9706 7.02945C37.6141 3.67299 33.3377 1.38721 28.6822 0.461164C24.0266 -0.464881 19.201 0.0103989 14.8156 1.8269C10.4302 3.64341 6.68188 6.71954 4.04473 10.6663C1.40758 14.6131 0 19.2533 0 24C0 30.3652 2.52856 36.4697 7.02944 40.9706C11.5303 45.4714 17.6348 48 24 48Z" fill="#FF5700"/>
<path d="M8.93975 28.107C8.94005 27.7451 8.96847 27.3836 9.02475 27.026C8.56825 26.7294 8.1774 26.3424 7.87635 25.8888C7.57529 25.4352 7.37042 24.9247 7.27438 24.3888C7.17834 23.853 7.19318 23.3031 7.31797 22.7732C7.44276 22.2433 7.67486 21.7446 7.99994 21.3079C8.32501 20.8712 8.73616 20.5057 9.20799 20.2342C9.67982 19.9626 10.2023 19.7906 10.7432 19.7289C11.2841 19.6671 11.8319 19.7169 12.3528 19.8752C12.8737 20.0335 13.3566 20.2968 13.7717 20.649C16.827 18.8283 20.3151 17.8612 23.8717 17.849L26.1547 10.663C26.2136 10.4782 26.34 10.3224 26.5087 10.2268C26.6774 10.1311 26.876 10.1026 27.0647 10.147L32.9777 11.532C33.3197 10.7994 33.9186 10.2178 34.661 9.89761C35.4033 9.57737 36.2374 9.54078 37.0049 9.79479C37.7724 10.0488 38.42 10.5757 38.8248 11.2756C39.2295 11.9754 39.3633 12.7995 39.2007 13.5914C39.038 14.3834 38.5904 15.0881 37.9426 15.5718C37.2948 16.0555 36.492 16.2846 35.6865 16.2156C34.881 16.1467 34.1288 15.7844 33.5727 15.1975C33.0166 14.6107 32.6953 13.8401 32.6697 13.032L27.4117 11.802L25.4827 17.872C28.8346 17.9856 32.101 18.9595 34.9677 20.7C35.3822 20.3289 35.8698 20.0487 36.3991 19.8775C36.9285 19.7063 37.4878 19.6479 38.0411 19.706C38.5944 19.7642 39.1293 19.9376 39.6115 20.2151C40.0937 20.4926 40.5124 20.868 40.8407 21.3172C41.1689 21.7663 41.3994 22.2793 41.5173 22.823C41.6353 23.3667 41.638 23.929 41.5253 24.4739C41.4126 25.0187 41.1871 25.5338 40.8632 25.9861C40.5393 26.4385 40.1242 26.8179 39.6447 27.1C39.6934 27.4328 39.7181 27.7687 39.7188 28.105C39.7188 33.766 32.8187 38.371 24.3287 38.371C15.8387 38.371 8.93975 33.768 8.93975 28.107Z" fill="white"/>
<path d="M21.617 26.262C21.617 25.6358 21.37 25.0349 20.9297 24.5897C20.4893 24.1444 19.8911 23.8909 19.265 23.884C18.635 23.8895 18.0323 24.1414 17.5859 24.586C17.1395 25.0305 16.885 25.6321 16.877 26.262C16.8867 26.8881 17.1429 27.4851 17.5899 27.9235C18.0369 28.362 18.6388 28.6065 19.265 28.604C19.8873 28.6048 20.4844 28.3587 20.9254 27.9196C21.3664 27.4805 21.6151 26.8843 21.617 26.262Z" fill="white"/>
<path d="M29.5697 23.8831C28.9397 23.8885 28.3368 24.1402 27.8899 24.5844C27.4431 25.0286 27.1878 25.6301 27.1787 26.2601C27.189 26.8865 27.4457 27.4836 27.8933 27.922C28.3409 28.3604 28.9432 28.6048 29.5697 28.6021C29.878 28.6028 30.1834 28.5429 30.4686 28.4256C30.7537 28.3083 31.0129 28.136 31.2314 27.9185C31.4499 27.701 31.6234 27.4426 31.742 27.1581C31.8607 26.8735 31.9221 26.5684 31.9227 26.2601C31.9225 25.6339 31.6753 25.033 31.2347 24.588C30.7942 24.1429 30.1959 23.8896 29.5697 23.8831V23.8831Z" fill="white"/>
<path d="M28.9061 31.9381C28.0351 32.8041 26.5681 33.2251 24.4181 33.2251H24.3991H24.3811C22.2311 33.2251 20.7641 32.8041 19.8931 31.9381C19.7484 31.7942 19.5527 31.7134 19.3486 31.7134C19.1445 31.7134 18.9488 31.7942 18.8041 31.9381C18.7325 32.009 18.6757 32.0935 18.6369 32.1865C18.5981 32.2795 18.5781 32.3793 18.5781 32.4801C18.5781 32.5809 18.5981 32.6807 18.6369 32.7737C18.6757 32.8667 18.7325 32.9512 18.8041 33.0221C19.9781 34.1901 21.8011 34.7591 24.3781 34.7591H24.3961H24.4151C26.9941 34.7591 28.8151 34.1901 29.9931 33.0231C30.0647 32.9522 30.1215 32.8677 30.1603 32.7747C30.1991 32.6817 30.2191 32.5819 30.2191 32.4811C30.2191 32.3803 30.1991 32.2805 30.1603 32.1875C30.1215 32.0945 30.0647 32.01 29.9931 31.9391C29.848 31.7953 29.6519 31.7146 29.4476 31.7146C29.2433 31.7146 29.0472 31.7953 28.9021 31.9391L28.9061 31.9381Z" fill="white"/>
</svg>
