<svg width="24" height="24" viewBox="0 0 24 24" fill="none" xmlns="http://www.w3.org/2000/svg">
<path fill-rule="evenodd" clip-rule="evenodd" d="M12.2684 2C12.6252 1.99987 12.9785 2.07146 13.3071 2.21052C13.6359 2.34962 13.9333 2.55341 14.1817 2.80975C14.4301 3.0661 14.6245 3.36978 14.7532 3.70273C14.8796 4.02972 14.9402 4.37839 14.9316 4.72873C14.9356 4.91462 14.9876 5.0964 15.0825 5.25645L15.0851 5.26089C15.1616 5.39184 15.2631 5.50639 15.384 5.59792C15.5049 5.68946 15.6427 5.75619 15.7894 5.79428C15.9362 5.83236 16.089 5.84105 16.2392 5.81983C16.3893 5.79862 16.5338 5.74792 16.6642 5.67066L16.6726 5.66573C17.2836 5.31443 18.0091 5.21978 18.6899 5.40244C19.3707 5.5851 19.9513 6.03021 20.3045 6.64023L20.3053 6.64169L20.9273 7.7217C20.9417 7.74673 20.9546 7.77251 20.966 7.79888C21.2828 8.39432 21.3623 9.08887 21.1865 9.74199C21.004 10.4198 20.5613 10.9981 19.9547 11.3512L19.949 11.3545C19.7739 11.4544 19.6288 11.5995 19.5289 11.7746L19.5251 11.7813C19.4484 11.9126 19.3985 12.0577 19.3783 12.2084C19.3581 12.3591 19.368 12.5124 19.4074 12.6592C19.4468 12.8061 19.5149 12.9437 19.6078 13.064C19.7007 13.1844 19.8166 13.2851 19.9487 13.3604C20.2531 13.5338 20.5201 13.766 20.7343 14.0433C20.9484 14.3206 21.1054 14.6377 21.1962 14.9761C21.287 15.3145 21.3098 15.6675 21.2632 16.0148C21.2167 16.3621 21.1017 16.6967 20.925 16.9992L20.9208 17.0065L20.2644 18.102C19.911 18.7093 19.3318 19.1524 18.6529 19.3346C17.9726 19.5171 17.2477 19.4227 16.6369 19.072C16.6365 19.0717 16.636 19.0715 16.6356 19.0712L17.0094 18.421L16.6369 19.072C16.6368 19.0719 16.6371 19.0721 16.6369 19.072C16.4674 18.9753 16.2768 18.9214 16.0818 18.915C16.0843 18.915 16.0868 18.915 16.0892 18.915L16.0944 18.165L16.0744 18.9147C16.0769 18.9148 16.0793 18.9149 16.0818 18.915C15.932 18.9149 15.7836 18.9441 15.6449 19.001C15.504 19.0588 15.3759 19.1441 15.2682 19.2518C15.1604 19.3595 15.0752 19.4876 15.0174 19.6285C14.9596 19.7695 14.9303 19.9205 14.9314 20.0728L14.9314 20.0831C14.9267 20.7862 14.6439 21.4589 14.145 21.9544C13.6461 22.4499 12.9715 22.728 12.2684 22.728H11.0184C10.3121 22.728 9.63477 22.4474 9.13537 21.948C8.63706 21.4497 8.35664 20.7743 8.35539 20.0697C8.35541 20.0707 8.35542 20.0717 8.35543 20.0728L9.10539 20.065H8.35539C8.35539 20.0666 8.35539 20.0681 8.35539 20.0697C8.3529 19.8805 8.30081 19.6953 8.20429 19.5326L8.19756 19.5212C8.1227 19.3897 8.02263 19.2744 7.90295 19.1819C7.78326 19.0893 7.64643 19.0215 7.50036 18.9821C7.35428 18.9428 7.20186 18.9328 7.05191 18.9527C6.90195 18.9727 6.75742 19.0221 6.62668 19.0982L6.61674 19.104C6.31032 19.2761 5.97282 19.3858 5.62377 19.4269C5.27473 19.4679 4.92101 19.4395 4.583 19.3433C4.24499 19.247 3.92938 19.0847 3.65437 18.8659C3.38168 18.6489 3.15425 18.3805 2.98496 18.076L2.98872 18.0825L3.63739 17.706L2.98065 18.0682C2.98208 18.0708 2.98352 18.0734 2.98496 18.076L2.3562 16.9926C2.18147 16.6905 2.06811 16.357 2.02262 16.011C1.97713 15.6651 2.00041 15.3136 2.09112 14.9766C2.18183 14.6397 2.33819 14.324 2.55122 14.0476C2.76395 13.7717 3.029 13.5404 3.3312 13.367C3.3314 13.3669 3.331 13.3671 3.3312 13.367L3.70539 14.017L3.33252 13.3663C3.33208 13.3665 3.33164 13.3668 3.3312 13.367C3.50781 13.265 3.65448 13.1183 3.75649 12.9417C3.85862 12.7648 3.91239 12.5642 3.91239 12.36C3.91239 12.1558 3.85862 11.9552 3.75649 11.7783C3.65436 11.6015 3.50747 11.4547 3.33059 11.3526L3.32962 11.3521C2.7196 10.9989 2.27449 10.4183 2.09183 9.73752C1.90917 9.05673 2.00387 8.33129 2.35518 7.7202L2.36434 7.70471L3.02859 6.61087C3.02716 6.61332 3.02574 6.61577 3.02432 6.61823L3.67339 6.994L3.03234 6.60471L3.02859 6.61087C3.38215 6.00464 3.96082 5.56236 4.63887 5.38044C5.31967 5.19778 6.0451 5.29248 6.65619 5.64379L6.66498 5.64884C6.82774 5.74536 7.01293 5.79752 7.20211 5.8C7.20108 5.8 7.20005 5.8 7.19903 5.8L7.19739 6.55L7.20515 5.80004C7.20413 5.80003 7.20312 5.80002 7.20211 5.8C7.50715 5.79986 7.79997 5.67988 8.01742 5.46583C8.23416 5.25249 8.35864 4.9628 8.36436 4.65889C8.36437 4.66197 8.36439 4.66505 8.36441 4.66813L9.11439 4.663L8.36446 4.65281C8.36443 4.65484 8.3644 4.65687 8.36436 4.65889C8.3632 4.3125 8.42996 3.96921 8.5609 3.64845C8.693 3.32484 8.88782 3.03057 9.13414 2.78257C9.38045 2.53457 9.67339 2.33775 9.99609 2.20344C10.3188 2.06913 10.6649 1.99999 11.0144 2H12.2684C12.2683 2 12.2684 2 12.2684 2ZM12.7226 3.59194C12.579 3.53119 12.4247 3.49992 12.2688 3.5H11.0144C10.8627 3.5 10.7125 3.53 10.5725 3.58829C10.4324 3.64657 10.3053 3.73198 10.1984 3.8396C10.0915 3.94723 10.007 4.07493 9.94964 4.21537C9.89231 4.3558 9.86334 4.50619 9.86437 4.65787L9.86432 4.67319C9.85479 5.37414 9.56927 6.04306 9.06968 6.53482C8.5701 7.02659 7.89676 7.30153 7.19575 7.3L7.18963 7.29998C6.73747 7.29531 6.29451 7.1719 5.90509 6.94221C5.63895 6.79043 5.3236 6.74978 5.02758 6.8292C4.73026 6.90897 4.4767 7.10337 4.32246 7.36977L4.31444 7.3833L3.65169 8.47465C3.50148 8.74009 3.4615 9.05403 3.54059 9.34881C3.62031 9.64595 3.81452 9.89939 4.08068 10.0536C4.48548 10.2873 4.82165 10.6234 5.05542 11.0281C5.28927 11.4331 5.41239 11.8924 5.41239 12.36C5.41239 12.8276 5.28927 13.2869 5.05542 13.6918C4.82156 14.0968 4.48521 14.433 4.08019 14.6666L4.07826 14.6677C3.94688 14.743 3.83166 14.8435 3.73921 14.9634C3.64676 15.0834 3.57891 15.2204 3.53954 15.3666C3.50018 15.5128 3.49007 15.6653 3.50981 15.8155C3.52953 15.9654 3.57865 16.11 3.65433 16.241C3.65441 16.2411 3.65425 16.2409 3.65433 16.241L4.28607 17.3295L4.29413 17.3438C4.36825 17.4782 4.46825 17.5966 4.58836 17.6922C4.70846 17.7877 4.8463 17.8586 4.99391 17.9006C5.14153 17.9427 5.29601 17.9551 5.44845 17.9372C5.59936 17.9194 5.74533 17.8722 5.87808 17.7983C6.17852 17.6245 6.51026 17.5115 6.85438 17.4658C7.20079 17.4198 7.55288 17.4429 7.89032 17.5337C8.22775 17.6246 8.54384 17.7814 8.82032 17.9951C9.09508 18.2075 9.32531 18.4719 9.49788 18.7732C9.72739 19.1625 9.85067 19.6053 9.85535 20.0572L9.85543 20.065C9.85543 20.3734 9.97792 20.6693 10.196 20.8874C10.4141 21.1055 10.7099 21.228 11.0184 21.228H12.2684C12.5755 21.228 12.8701 21.1066 13.088 20.8902C13.3049 20.6747 13.4282 20.3826 13.4314 20.0769C13.4298 19.728 13.4972 19.3821 13.6296 19.0593C13.7628 18.7345 13.9593 18.4394 14.2075 18.1911C14.4558 17.9429 14.7508 17.7464 15.0756 17.6132C15.4004 17.48 15.7485 17.4126 16.0995 17.415L16.1144 17.4153C16.5595 17.4272 16.9947 17.5489 17.3813 17.7697L17.3832 17.7708C17.6501 17.9242 17.9669 17.9656 18.2642 17.8858C18.5615 17.806 18.8151 17.6116 18.9693 17.3452L18.9749 17.3355L19.6316 16.2396C19.7072 16.1092 19.7565 15.9651 19.7765 15.8156C19.7967 15.6649 19.7868 15.5116 19.7474 15.3648C19.708 15.2179 19.6399 15.0803 19.547 14.96C19.454 14.8396 19.3382 14.7389 19.2061 14.6636C18.9016 14.4902 18.6346 14.258 18.4205 13.9807C18.2064 13.7034 18.0494 13.3863 17.9586 13.0479C17.8678 12.7095 17.845 12.3565 17.8916 12.0092C17.9379 11.6632 18.0522 11.3298 18.2278 11.0282C18.4601 10.6223 18.7965 10.2858 19.2024 10.0535C19.4661 9.89916 19.6586 9.64718 19.7381 9.35203C19.8178 9.05603 19.7774 8.74053 19.6257 8.47415C19.6143 8.45417 19.6039 8.43373 19.5944 8.4129L19.0063 7.39177C19.0062 7.39164 19.0064 7.39191 19.0063 7.39177C18.8521 7.12557 18.5984 6.93093 18.3012 6.8512C18.0051 6.77176 17.6897 6.81245 17.4235 6.96431C17.1242 7.14067 16.7931 7.25646 16.4491 7.30508C16.1031 7.35396 15.7509 7.33395 15.4127 7.24619C15.0745 7.15844 14.757 7.00466 14.4784 6.79373C14.2006 6.58331 13.967 6.32015 13.791 6.01933C13.5601 5.62918 13.4361 5.18509 13.4314 4.73176C13.4313 4.7212 13.4314 4.71064 13.4318 4.70008C13.4367 4.54427 13.4103 4.38904 13.3541 4.24363C13.2979 4.09822 13.213 3.96559 13.1045 3.85364C12.996 3.74169 12.8661 3.65269 12.7226 3.59194ZM11.6454 10.475C10.6038 10.475 9.75939 11.3194 9.75939 12.361C9.75939 13.4026 10.6038 14.247 11.6454 14.247C12.687 14.247 13.5314 13.4026 13.5314 12.361C13.5314 11.3194 12.687 10.475 11.6454 10.475ZM8.25939 12.361C8.25939 10.491 9.77535 8.975 11.6454 8.975C13.5154 8.975 15.0314 10.491 15.0314 12.361C15.0314 14.231 13.5154 15.747 11.6454 15.747C9.77535 15.747 8.25939 14.231 8.25939 12.361Z" fill="#4D4354"/>
</svg>
