<svg width="72" height="73" viewBox="0 0 72 73" fill="none" xmlns="http://www.w3.org/2000/svg">
<circle cx="37.4531" cy="36.8613" r="12" fill="#EE6C4D"/>
<path d="M32 0.861328H42.1818L41.4545 29.225H32.7273L32 0.861328Z" fill="#EE6C4D"/>
<path d="M32 72.8613H42.1818L41.4545 44.4977H32.7273L32 72.8613Z" fill="#EE6C4D"/>
<path d="M58.3672 65.7812L65.897 58.9277L46.2673 38.4412L39.8131 44.3157L58.3672 65.7812Z" fill="#EE6C4D"/>
<path d="M15.1992 7.40625L7.99959 14.6059L28.57 34.1477L34.7411 27.9766L15.1992 7.40625Z" fill="#EE6C4D"/>
<path d="M72 41.5879L72 31.4061L43.6364 32.1333L43.6364 40.8606L72 41.5879Z" fill="#EE6C4D"/>
<path d="M65.8008 14.6055L58.6011 7.40584L39.0593 27.9762L45.2304 34.1473L65.8008 14.6055Z" fill="#EE6C4D"/>
<path d="M15.1992 65.9355L7.99959 58.7359L28.57 39.1941L34.7411 45.3652L15.1992 65.9355Z" fill="#EE6C4D"/>
<path d="M0 41.5879L4.45061e-07 31.4061L28.3636 32.1333L28.3636 40.8606L0 41.5879Z" fill="#EE6C4D"/>
</svg>
