<svg width="28" height="28" viewBox="0 0 28 28" fill="none" xmlns="http://www.w3.org/2000/svg">
<path fill-rule="evenodd" clip-rule="evenodd" d="M20.9283 21.9999C19.6677 21.9999 18.6426 20.9747 18.6426 19.7141C18.6426 18.4536 19.6677 17.4284 20.9283 17.4284C22.1889 17.4284 23.214 18.4536 23.214 19.7141C23.214 20.9747 22.1889 21.9999 20.9283 21.9999ZM7.21401 17.4284C8.47458 17.4284 9.49972 18.4536 9.49972 19.7141C9.49972 20.9747 8.47458 21.9999 7.21401 21.9999C5.95343 21.9999 4.92829 20.9747 4.92829 19.7141C4.92829 18.4536 5.95343 17.4284 7.21401 17.4284ZM14.0711 2.57129C7.76944 2.57129 2.64258 7.88557 2.64258 14.4181V19.7141C2.64258 22.2353 4.69286 24.2856 7.21401 24.2856C9.73515 24.2856 11.7854 22.2353 11.7854 19.7141C11.7854 17.193 9.73515 15.1427 7.21401 15.1427C6.37744 15.1427 5.60372 15.385 4.92829 15.7793V14.4181C4.92829 9.14615 9.03001 4.857 14.0711 4.857C19.1123 4.857 23.214 9.14615 23.214 14.4181V15.7793C22.5386 15.385 21.7649 15.1427 20.9283 15.1427C18.4072 15.1427 16.3569 17.193 16.3569 19.7141C16.3569 22.2353 18.4072 24.2856 20.9283 24.2856C23.4494 24.2856 25.4997 22.2353 25.4997 19.7141V14.4181C25.4997 7.88557 20.3729 2.57129 14.0711 2.57129Z" fill="white"/>
</svg>
