<svg width="48" height="48" viewBox="0 0 48 48" fill="none" xmlns="http://www.w3.org/2000/svg">
<path d="M0 24C0 19.2533 1.40758 14.6131 4.04473 10.6663C6.68188 6.71954 10.4302 3.64341 14.8156 1.8269C19.201 0.0103989 24.0266 -0.464881 28.6822 0.461164C33.3377 1.38721 37.6141 3.67299 40.9706 7.02945C44.327 10.3859 46.6128 14.6623 47.5388 19.3178C48.4649 23.9734 47.9896 28.799 46.1731 33.1844C44.3566 37.5698 41.2805 41.3181 37.3337 43.9553C33.3869 46.5924 28.7468 48 24 48C17.6348 48 11.5303 45.4714 7.02944 40.9706C2.52856 36.4697 0 30.3652 0 24H0Z" fill="#55ACEE"/>
<path d="M23.281 19.5083L23.331 20.3383L22.492 20.2383C19.4626 19.8563 16.6487 18.4697 14.5 16.3003L13.393 15.2003L13.108 16.0143C12.8002 16.8653 12.7346 17.785 12.9184 18.6711C13.1021 19.5572 13.5282 20.3749 14.149 21.0333C14.821 21.7453 14.669 21.8473 13.511 21.4233C13.2636 21.3076 12.995 21.2442 12.722 21.2373C12.7723 22.0261 12.9761 22.7976 13.322 23.5083C13.8561 24.4438 14.6569 25.1989 15.622 25.6773L16.445 26.0673L15.471 26.0843C14.531 26.0843 14.497 26.1013 14.598 26.4573C14.8931 27.1174 15.3258 27.7068 15.8671 28.1861C16.4085 28.6654 17.046 29.0234 17.737 29.2363L18.778 29.5923L17.871 30.1343C16.4995 30.9222 14.9523 31.3534 13.371 31.3883C12.9099 31.3698 12.4485 31.4156 12 31.5243C13.0049 32.1704 14.0956 32.6723 15.24 33.0153C17.0658 33.5565 18.982 33.7244 20.8741 33.509C22.7662 33.2935 24.5956 32.6991 26.253 31.7613C28.7308 30.1763 30.6776 27.886 31.843 25.1853C32.4753 23.5568 32.8599 21.8428 32.984 20.1003C32.984 19.3203 33.034 19.2193 33.974 18.2873C34.3994 17.8857 34.7923 17.451 35.149 16.9873C35.317 16.6653 35.3 16.6653 34.444 16.9533C33.017 17.4613 32.816 17.3943 33.521 16.6313C34.0306 16.1166 34.4205 15.4958 34.663 14.8133C34.663 14.7623 34.411 14.8473 34.126 14.9993C33.6508 15.2327 33.1567 15.4254 32.649 15.5753L31.742 15.8633L30.92 15.3003C30.4752 14.998 29.9962 14.7493 29.493 14.5593C28.5244 14.3264 27.5118 14.3498 26.555 14.6273C25.5505 14.9707 24.6862 15.634 24.0949 16.5157C23.5035 17.3973 23.2176 18.4486 23.281 19.5083Z" fill="white"/>
</svg>
