<svg width="43" height="35" viewBox="0 0 43 35" fill="none" xmlns="http://www.w3.org/2000/svg">
<path d="M15.7906 7.37122C18.0036 6.44981 24.1313 20.128 26.9185 27.0823C26.4578 25.9758 24.9368 24.6615 22.3793 20.8575C19.8217 17.0535 13.0242 8.52298 15.7906 7.37122Z" fill="#201429"/>
<path d="M31.231 4.87561C31.1916 4.66601 31.1496 4.45433 31.1049 4.24057C31.0803 4.43034 31.1292 4.63297 31.231 4.87561C32.7341 12.8584 30.558 17.7979 32.4933 18.0491C34.9758 18.3713 34.0847 12.0885 32.9524 8.67781C32.2712 6.62629 31.5273 5.58163 31.231 4.87561Z" fill="#201429"/>
<path d="M6.94577 22.6327C6.75675 22.5339 6.56648 22.4321 6.375 22.3271C6.56371 22.3588 6.74331 22.4647 6.94577 22.6327C14.1447 26.3957 19.5038 25.7526 19.1805 27.6771C18.7657 30.1459 13.0148 27.4635 10.0818 25.3868C8.31758 24.1377 7.53489 23.1218 6.94577 22.6327Z" fill="#201429"/>
</svg>
