<svg width="73" height="63" viewBox="0 0 73 63" fill="none" xmlns="http://www.w3.org/2000/svg">
<path fill-rule="evenodd" clip-rule="evenodd" d="M35.3039 33.7621C37.4208 25.9068 45.4464 21.2198 53.2295 23.2934C56.9671 24.2891 60.1478 26.7427 62.0719 30.1142C63.9959 33.4856 64.5058 37.499 63.4892 41.2712C61.3723 49.1265 53.3467 53.8135 45.5636 51.7399C37.7804 49.6663 33.187 41.6174 35.3039 33.7621ZM60.1953 52.6667L63.4808 57.168L63.5537 57.1874C64.1719 58.2707 63.7975 59.6602 62.7173 60.291C61.6372 60.9218 60.2605 60.555 59.6423 59.4717L57.2333 54.5577C56.9933 54.1387 56.9295 53.6396 57.0559 53.1704C57.1823 52.7012 57.4887 52.3006 57.9072 52.0572C58.712 51.5965 59.73 51.8677 60.1953 52.6667Z" fill="url(#paint0_linear_163_6425)"/>
<g filter="url(#filter0_f_163_6425)">
<path d="M51.4833 29.7703C47.2415 28.6392 42.8688 31.1908 41.7167 35.4695C40.5646 39.7481 43.0693 44.1335 47.3112 45.2646C51.5531 46.3956 55.9258 43.844 57.0779 39.5654C57.6311 37.5107 57.3525 35.3244 56.3033 33.4875C55.2542 31.6505 53.5204 30.3134 51.4833 29.7703Z" fill="#0062FF" fill-opacity="0.5"/>
</g>
<g filter="url(#filter1_b_163_6425)">
<g filter="url(#filter2_b_163_6425)">
<mask id="path-3-outside-1_163_6425" maskUnits="userSpaceOnUse" x="-1.48313" y="-0.728677" width="64.9912" height="64.832" fill="black">
<rect fill="white" x="-1.48313" y="-0.728677" width="64.9912" height="64.832"/>
<path fill-rule="evenodd" clip-rule="evenodd" d="M54.7356 21.7157C51.578 9.99861 39.6069 3.00739 27.9974 6.1004C22.4223 7.58571 17.6779 11.2454 14.808 16.2744C11.938 21.3034 11.1775 27.2898 12.6939 32.9165C15.8515 44.6336 27.8226 51.6249 39.4321 48.5319C51.0416 45.4388 57.8933 33.4329 54.7356 21.7157ZM17.6081 49.9156L12.7072 56.6298L12.5986 56.6588C11.6764 58.2746 12.235 60.3472 13.8461 61.2881C15.4572 62.2291 17.5108 61.6819 18.4329 60.0661L22.0262 52.7362C22.3842 52.1113 22.4795 51.3667 22.2909 50.6668C22.1023 49.967 21.6453 49.3695 21.021 49.0063C19.8206 48.3193 18.3022 48.7238 17.6081 49.9156Z"/>
</mask>
<path fill-rule="evenodd" clip-rule="evenodd" d="M54.7356 21.7157C51.578 9.99861 39.6069 3.00739 27.9974 6.1004C22.4223 7.58571 17.6779 11.2454 14.808 16.2744C11.938 21.3034 11.1775 27.2898 12.6939 32.9165C15.8515 44.6336 27.8226 51.6249 39.4321 48.5319C51.0416 45.4388 57.8933 33.4329 54.7356 21.7157ZM17.6081 49.9156L12.7072 56.6298L12.5986 56.6588C11.6764 58.2746 12.235 60.3472 13.8461 61.2881C15.4572 62.2291 17.5108 61.6819 18.4329 60.0661L22.0262 52.7362C22.3842 52.1113 22.4795 51.3667 22.2909 50.6668C22.1023 49.967 21.6453 49.3695 21.021 49.0063C19.8206 48.3193 18.3022 48.7238 17.6081 49.9156Z" fill="#3EA0FE" fill-opacity="0.35"/>
<path d="M27.9974 6.1004L27.7376 5.13474L27.9974 6.1004ZM54.7356 21.7157L55.7018 21.4579L54.7356 21.7157ZM14.808 16.2744L13.9384 15.7781L14.808 16.2744ZM12.6939 32.9165L11.7277 33.1744L12.6939 32.9165ZM39.4321 48.5319L39.1723 47.5662L39.4321 48.5319ZM12.7072 56.6298L13.5162 57.2197C13.3817 57.404 13.1879 57.5367 12.9671 57.5955L12.7072 56.6298ZM17.6081 49.9156L18.4733 50.4195C18.456 50.4491 18.4373 50.4778 18.4171 50.5055L17.6081 49.9156ZM12.5986 56.6588L11.729 56.1625C11.8612 55.9309 12.0807 55.7619 12.3387 55.6931L12.5986 56.6588ZM18.4329 60.0661L19.3318 60.5071C19.3226 60.5258 19.3129 60.5443 19.3025 60.5624L18.4329 60.0661ZM22.0262 52.7362L21.1273 52.2952C21.1367 52.2759 21.1468 52.257 21.1575 52.2384L22.0262 52.7362ZM21.021 49.0063L21.5172 48.1395L21.5232 48.143L21.021 49.0063ZM27.7376 5.13474C39.8897 1.89717 52.403 9.21678 55.7018 21.4579L53.7695 21.9736C50.753 10.7804 39.3241 4.1176 28.2572 7.06606L27.7376 5.13474ZM13.9384 15.7781C16.9398 10.5188 21.9031 6.68917 27.7376 5.13474L28.2572 7.06606C22.9415 8.48226 18.416 11.9721 15.6775 16.7707L13.9384 15.7781ZM11.7277 33.1744C10.1432 27.2946 10.9372 21.0371 13.9384 15.7781L15.6775 16.7707C12.9388 21.5697 12.2119 27.2849 13.6601 32.6587L11.7277 33.1744ZM39.6919 49.4975C27.5398 52.7351 15.0265 45.4155 11.7277 33.1744L13.6601 32.6587C16.6765 43.8518 28.1054 50.5147 39.1723 47.5662L39.6919 49.4975ZM55.7018 21.4579C59.0007 33.6993 51.8444 46.2599 39.6919 49.4975L39.1723 47.5662C50.2389 44.6178 56.7858 33.1664 53.7695 21.9736L55.7018 21.4579ZM11.8983 56.04L16.7991 49.3258L18.4171 50.5055L13.5162 57.2197L11.8983 56.04ZM12.3387 55.6931L12.4474 55.6642L12.9671 57.5955L12.8584 57.6244L12.3387 55.6931ZM13.3424 62.1506C11.2575 60.933 10.5352 58.2544 11.729 56.1625L13.4681 57.1551C12.8177 58.2949 13.2125 59.7615 14.3498 60.4257L13.3424 62.1506ZM19.3025 60.5624C18.1049 62.661 15.4341 63.3722 13.3424 62.1506L14.3498 60.4257C15.4804 61.086 16.9168 60.7028 17.5634 59.5698L19.3025 60.5624ZM22.925 53.1772L19.3318 60.5071L17.5341 59.6251L21.1273 52.2952L22.925 53.1772ZM23.257 50.409C23.514 51.3624 23.3849 52.3788 22.8949 53.2339L21.1575 52.2384C21.3836 51.8438 21.4449 51.371 21.3247 50.9247L23.257 50.409ZM21.5232 48.143C22.3773 48.6398 23.0001 49.4556 23.257 50.409L21.3247 50.9247C21.2044 50.4784 20.9134 50.0992 20.5188 49.8697L21.5232 48.143ZM16.7429 49.4118C17.7133 47.7455 19.8397 47.1794 21.5172 48.1395L20.5249 49.8732C19.8015 49.4591 18.891 49.7021 18.4733 50.4195L16.7429 49.4118Z" fill="url(#paint1_linear_163_6425)" mask="url(#path-3-outside-1_163_6425)"/>
</g>
</g>
<defs>
<filter id="filter0_f_163_6425" x="26.4355" y="14.5022" width="45.9199" height="46.0305" filterUnits="userSpaceOnUse" color-interpolation-filters="sRGB">
<feFlood flood-opacity="0" result="BackgroundImageFix"/>
<feBlend mode="normal" in="SourceGraphic" in2="BackgroundImageFix" result="shape"/>
<feGaussianBlur stdDeviation="7.5" result="effect1_foregroundBlur_163_6425"/>
</filter>
<filter id="filter1_b_163_6425" x="-13.0703" y="-19.6316" width="93.5762" height="106.38" filterUnits="userSpaceOnUse" color-interpolation-filters="sRGB">
<feFlood flood-opacity="0" result="BackgroundImageFix"/>
<feGaussianBlur in="BackgroundImage" stdDeviation="12"/>
<feComposite in2="SourceAlpha" operator="in" result="effect1_backgroundBlur_163_6425"/>
<feBlend mode="normal" in="SourceGraphic" in2="effect1_backgroundBlur_163_6425" result="shape"/>
</filter>
<filter id="filter2_b_163_6425" x="-13.0703" y="-19.6316" width="93.5762" height="106.38" filterUnits="userSpaceOnUse" color-interpolation-filters="sRGB">
<feFlood flood-opacity="0" result="BackgroundImageFix"/>
<feGaussianBlur in="BackgroundImage" stdDeviation="12"/>
<feComposite in2="SourceAlpha" operator="in" result="effect1_backgroundBlur_163_6425"/>
<feBlend mode="normal" in="SourceGraphic" in2="effect1_backgroundBlur_163_6425" result="shape"/>
</filter>
<linearGradient id="paint0_linear_163_6425" x1="72.148" y1="28.3378" x2="28.2049" y2="48.0094" gradientUnits="userSpaceOnUse">
<stop stop-color="#39AFFD"/>
<stop offset="1" stop-color="#477FFF"/>
</linearGradient>
<linearGradient id="paint1_linear_163_6425" x1="42.7496" y1="8.27652" x2="12.4444" y2="59.4334" gradientUnits="userSpaceOnUse">
<stop stop-color="white" stop-opacity="0.25"/>
<stop offset="1" stop-color="white" stop-opacity="0"/>
</linearGradient>
</defs>
</svg>
