<svg width="32" height="32" viewBox="0 0 32 32" fill="none" xmlns="http://www.w3.org/2000/svg">
<mask id="mask0_420_25725" style="mask-type:alpha" maskUnits="userSpaceOnUse" x="17" y="17" width="12" height="12">
<path fill-rule="evenodd" clip-rule="evenodd" d="M17.418 17.4194H28.5573V28.5601H17.418V17.4194Z" fill="white"/>
</mask>
<g mask="url(#mask0_420_25725)">
<path fill-rule="evenodd" clip-rule="evenodd" d="M22.9883 17.4194C26.0647 17.4194 28.5586 19.9133 28.5586 22.9897C28.5586 26.0661 26.0647 28.5601 22.9883 28.5601C19.9119 28.5601 17.418 26.0661 17.418 22.9897C17.418 19.9133 19.9119 17.4194 22.9883 17.4194" fill="#9C9EB9"/>
</g>
<path fill-rule="evenodd" clip-rule="evenodd" d="M28.5588 22.9899C28.5588 26.0675 26.0643 28.5603 22.9885 28.5603C21.2373 28.5603 19.6741 27.7526 18.6523 26.4871C19.608 27.2599 20.8248 27.7212 22.1495 27.7212C25.2253 27.7212 27.7198 25.2285 27.7198 22.1509C27.7198 20.8262 27.2585 19.6095 26.4856 18.6538C27.7494 19.6756 28.5588 21.2388 28.5588 22.9899" fill="#888AAC"/>
<path fill-rule="evenodd" clip-rule="evenodd" d="M23.582 19.1403C23.582 19.1403 25.9494 18.7887 26.7327 19.8655C26.7327 19.8655 26.4936 17.4194 23.582 19.1403" fill="#4F5174"/>
<path fill-rule="evenodd" clip-rule="evenodd" d="M22.3929 19.1403C22.3929 19.1403 20.0255 18.7887 19.2422 19.8655C19.2422 19.8655 19.4814 17.4194 22.3929 19.1403" fill="#4F5174"/>
<path fill-rule="evenodd" clip-rule="evenodd" d="M25.0192 24.0204C25.0331 26.0292 24.2011 27.4009 22.986 27.3765C21.7675 27.4009 20.9355 26.0292 20.9494 24.0204C20.9355 22.0151 21.7675 20.6434 22.986 20.6678C24.2011 20.6434 25.0331 22.0151 25.0192 24.0204" fill="#4F5174"/>
<path fill-rule="evenodd" clip-rule="evenodd" d="M24.2174 24.5187C23.9632 24.3063 23.6116 24.2715 23.3157 24.4073C23.0403 24.5277 22.7816 24.5521 22.4975 24.5326C21.9544 24.4839 21.4287 24.7485 21.2198 25.2567C21.1816 25.3473 21.1537 25.4413 21.1328 25.5387C21.1339 25.5426 21.1335 25.5481 21.1346 25.552C21.4413 26.6911 22.1146 27.3944 22.9884 27.3769C23.864 27.3944 24.5387 26.6845 24.8433 25.536C24.7455 25.1335 24.5234 24.7794 24.2174 24.5187" fill="#FF9B90"/>
<path fill-rule="evenodd" clip-rule="evenodd" d="M21.4766 21.6372C21.8954 21.4945 22.4172 21.3249 22.9847 21.3249C23.5525 21.3249 24.0744 21.4945 24.4936 21.6375C24.1343 21.0147 23.6117 20.6558 22.9865 20.6683C22.3598 20.6554 21.8362 21.0144 21.4766 21.6372" fill="#FFFFFE"/>
<path fill-rule="evenodd" clip-rule="evenodd" d="M24.5381 26.3301C24.1492 26.462 23.6172 26.6841 22.9874 26.6841C22.358 26.6841 21.826 26.462 21.4375 26.3304C21.7978 27.0003 22.3375 27.3898 22.9892 27.3769C23.6395 27.3895 24.1781 27.0003 24.5381 26.3301" fill="#FFFFFE"/>
<mask id="mask1_420_25725" style="mask-type:alpha" maskUnits="userSpaceOnUse" x="17" y="4" width="12" height="12">
<path fill-rule="evenodd" clip-rule="evenodd" d="M17.418 4H28.5573V15.1406H17.418V4Z" fill="white"/>
</mask>
<g mask="url(#mask1_420_25725)">
<path fill-rule="evenodd" clip-rule="evenodd" d="M22.9883 4C26.0647 4 28.5586 6.49391 28.5586 9.57031C28.5586 12.6467 26.0647 15.1406 22.9883 15.1406C19.9119 15.1406 17.418 12.6467 17.418 9.57031C17.418 6.49391 19.9119 4 22.9883 4" fill="#8FACFF"/>
</g>
<path fill-rule="evenodd" clip-rule="evenodd" d="M28.5572 9.58227C28.5572 12.6533 26.0681 15.1407 22.9988 15.1407C21.2513 15.1407 19.6915 14.3347 18.6719 13.0719C19.6255 13.8432 20.8397 14.3035 22.1615 14.3035C25.2308 14.3035 27.72 11.8161 27.72 8.74503C27.72 7.42316 27.2597 6.20899 26.4884 5.25537C27.7495 6.275 28.5572 7.83484 28.5572 9.58227" fill="#849DE4"/>
<path fill-rule="evenodd" clip-rule="evenodd" d="M24.635 12.3163C24.635 12.4922 24.5063 12.6301 24.3476 12.6301H21.6272C21.4685 12.6301 21.3398 12.4918 21.3398 12.3163C21.3398 12.143 21.4685 12.0024 21.6272 12.0024H24.3476C24.506 12.0024 24.635 12.143 24.635 12.3163" fill="#353A3F"/>
<path fill-rule="evenodd" clip-rule="evenodd" d="M19.8208 9.65945C19.9607 9.57422 20.3747 10.0337 21.0248 10.0589C21.6978 10.0849 22.0889 9.57422 22.2287 9.65945C22.403 9.72134 22.1654 10.8998 21.0248 10.9042C19.8845 10.8998 19.6466 9.72134 19.8208 9.65945" fill="#353A3F"/>
<path fill-rule="evenodd" clip-rule="evenodd" d="M19.6468 9.29933C19.5239 9.2785 19.44 9.1557 19.46 9.025C19.4799 8.89466 19.5936 8.80525 19.7185 8.82679C20.9869 9.04295 21.3723 8.08173 21.376 8.07203C21.4227 7.94959 21.554 7.8907 21.6701 7.94061C21.7855 7.99052 21.841 8.1302 21.7939 8.25264C21.5395 8.91405 20.7402 9.48568 19.6468 9.29933" fill="#6B7FBA"/>
<path fill-rule="evenodd" clip-rule="evenodd" d="M26.1507 9.65945C26.0108 9.57422 25.5968 10.0337 24.9467 10.0589C24.2737 10.0849 23.8826 9.57422 23.7428 9.65945C23.5685 9.72134 23.8061 10.8998 24.9467 10.9042C26.087 10.8998 26.3249 9.72134 26.1507 9.65945" fill="#353A3F"/>
<path fill-rule="evenodd" clip-rule="evenodd" d="M24.1808 8.25262C24.1338 8.13021 24.1893 7.99057 24.3047 7.94067C24.4197 7.89077 24.551 7.94929 24.5984 8.07098C24.6153 8.11406 25.0028 9.04058 26.2563 8.82699C26.3805 8.80545 26.4952 8.89483 26.5149 9.02514C26.5345 9.15581 26.4509 9.27858 26.3281 9.2994C25.2424 9.48463 24.4373 8.91996 24.1808 8.25262" fill="#6B7FBA"/>
<mask id="mask2_420_25725" style="mask-type:alpha" maskUnits="userSpaceOnUse" x="4" y="17" width="12" height="12">
<path fill-rule="evenodd" clip-rule="evenodd" d="M4 17.4194H15.1393V28.5601H4V17.4194Z" fill="white"/>
</mask>
<g mask="url(#mask2_420_25725)">
<path fill-rule="evenodd" clip-rule="evenodd" d="M9.57031 17.4194C12.6467 17.4194 15.1406 19.9133 15.1406 22.9897C15.1406 26.0661 12.6467 28.5601 9.57031 28.5601C6.49391 28.5601 4 26.0661 4 22.9897C4 19.9133 6.49391 17.4194 9.57031 17.4194" fill="#FC8E82"/>
</g>
<path fill-rule="evenodd" clip-rule="evenodd" d="M15.1408 22.9899C15.1408 26.0675 12.6464 28.5603 9.57051 28.5603C7.81935 28.5603 6.25618 27.7526 5.23438 26.4871C6.19003 27.2599 7.4068 27.7212 8.73149 27.7212C11.8073 27.7212 14.3018 25.2285 14.3018 22.1509C14.3018 20.8262 13.8405 19.6095 13.0676 18.6538C14.3314 19.6756 15.1408 21.2388 15.1408 22.9899" fill="#DE685B"/>
<path fill-rule="evenodd" clip-rule="evenodd" d="M8.7754 21.4391C9.04591 22.7182 8.16615 23.9339 7.22546 23.9175C6.28582 23.912 5.65011 23.1269 5.52756 22.3735C5.42277 21.6135 5.84298 20.7762 6.63292 20.2652C7.40685 19.7586 8.50211 20.1583 8.7754 21.4391" fill="#FFFFFE"/>
<path fill-rule="evenodd" clip-rule="evenodd" d="M7.06138 21.1424C7.47115 20.9245 8.00346 21.2441 8.14515 21.939C8.2872 22.6293 7.92756 23.3002 7.46523 23.3681C6.99906 23.4391 6.62864 23.0067 6.53638 22.4667C6.44795 21.9219 6.64569 21.3628 7.06138 21.1424" fill="#353A3F"/>
<path fill-rule="evenodd" clip-rule="evenodd" d="M8.77635 21.4396C8.62456 20.7221 7.76325 20.6104 6.92318 21.01C6.07719 21.4139 5.46689 21.9493 5.52747 22.3741C5.42303 21.6141 5.84324 20.7761 6.63283 20.2643C7.40675 19.7581 8.50306 20.1585 8.77635 21.4396" fill="#009CCD"/>
<path fill-rule="evenodd" clip-rule="evenodd" d="M8.70119 21.2275C8.70258 21.232 8.64619 21.1596 8.55532 21.1053C8.46097 21.0457 8.32276 21.0074 8.16018 21.0001C7.83362 20.9831 7.41027 21.1067 7.0012 21.2689C6.89676 21.3114 6.79336 21.3566 6.69867 21.3998C6.60014 21.4458 6.50336 21.4917 6.41145 21.5405C6.22554 21.6331 6.06086 21.7351 5.92404 21.828C5.78896 21.9231 5.68348 22.0136 5.62116 22.0916C5.55884 22.1685 5.53203 22.2246 5.53203 22.2253C5.53551 22.226 5.52194 22.1647 5.54561 22.0536C5.55988 21.999 5.58043 21.9335 5.61663 21.8628C5.65284 21.7929 5.6974 21.7138 5.75728 21.6372C5.87182 21.4788 6.03092 21.3142 6.21544 21.1603C6.30805 21.0837 6.40657 21.0092 6.51136 20.942C6.61859 20.8699 6.72721 20.8125 6.83549 20.7554C7.27972 20.534 7.78975 20.4602 8.1741 20.6402C8.26915 20.6785 8.35479 20.7394 8.42651 20.8003C8.49892 20.8612 8.55532 20.935 8.59779 20.9977C8.68274 21.1373 8.69632 21.2285 8.70119 21.2275" fill="#51585A"/>
<path fill-rule="evenodd" clip-rule="evenodd" d="M10.0614 21.4396C9.79086 22.7187 10.6706 23.9344 11.6113 23.918C12.5509 23.9125 13.1867 23.1274 13.3092 22.374C13.414 21.614 12.9938 20.7767 12.2038 20.2656C11.4296 19.7591 10.3347 20.1588 10.0614 21.4396" fill="#FFFFFE"/>
<path fill-rule="evenodd" clip-rule="evenodd" d="M11.6698 21.199C11.26 20.9811 10.7277 21.3007 10.586 21.9956C10.4443 22.686 10.8036 23.3568 11.2659 23.4247C11.7321 23.4957 12.1025 23.0633 12.1948 22.5234C12.2828 21.9789 12.0854 21.4194 11.6698 21.199" fill="#353A3F"/>
<path fill-rule="evenodd" clip-rule="evenodd" d="M11.475 22.0807C11.5067 22.2802 11.6523 22.4403 11.7915 22.4344C11.9311 22.4292 12.0136 22.2708 11.9816 22.0804C11.9496 21.8899 11.8162 21.7343 11.6763 21.7291C11.5367 21.7249 11.443 21.8805 11.475 22.0807" fill="#51585A"/>
<path fill-rule="evenodd" clip-rule="evenodd" d="M10.0625 21.4396C10.2143 20.7218 11.0756 20.6104 11.9157 21.01C12.7617 21.4139 13.372 21.9493 13.3114 22.3741C13.4162 21.6141 12.9956 20.7761 12.206 20.2643C11.4324 19.7581 10.3358 20.1585 10.0625 21.4396" fill="#009CCD"/>
<path fill-rule="evenodd" clip-rule="evenodd" d="M10.1367 21.228C10.1357 21.2325 10.1917 21.1601 10.2826 21.1058C10.377 21.0462 10.5152 21.0079 10.6777 21.0006C11.0043 20.9836 11.4277 21.1072 11.8367 21.2694C11.9412 21.3119 12.0446 21.3571 12.1393 21.4003C12.2378 21.4462 12.3346 21.4922 12.4265 21.5409C12.6124 21.6336 12.7771 21.7356 12.9139 21.8285C13.049 21.9236 13.1544 22.0141 13.2171 22.0921C13.2791 22.169 13.3062 22.225 13.3062 22.2257C13.3028 22.2264 13.3163 22.1652 13.2927 22.0541C13.2784 21.9995 13.2578 21.934 13.2216 21.8633C13.1854 21.7933 13.1409 21.7143 13.081 21.6377C12.9665 21.4793 12.8073 21.3147 12.6228 21.1608C12.5302 21.0842 12.4317 21.0097 12.3269 20.9425C12.2197 20.8704 12.1111 20.813 12.0028 20.7559C11.5586 20.5345 11.0485 20.4607 10.6642 20.6406C10.5691 20.6789 10.4835 20.7399 10.4118 20.8008C10.3394 20.8617 10.283 20.9355 10.2405 20.9982C10.1548 21.1378 10.1416 21.229 10.1367 21.228" fill="#51585A"/>
<path fill-rule="evenodd" clip-rule="evenodd" d="M13.5154 20.2465C13.075 19.9286 12.5939 19.6658 12.0964 19.4945C11.9105 19.4391 11.7249 19.3862 11.5477 19.3678C11.3134 19.3277 10.8351 19.3455 10.543 19.2421C10.9357 18.7958 11.664 18.9413 12.2262 19.1561C12.7993 19.3981 13.3229 19.8984 13.5154 20.2465" fill="#353A3F"/>
<path fill-rule="evenodd" clip-rule="evenodd" d="M5.51172 19.8974C5.76308 19.5691 6.35806 19.1607 6.94781 19.0093C7.52713 18.8822 8.26554 18.8248 8.60011 19.3432C8.60011 19.3432 8.53675 19.3553 8.44101 19.3585C7.91217 19.3846 7.84603 19.2464 7.0265 19.3634C6.48165 19.4643 5.92044 19.6861 5.51172 19.8974" fill="#353A3F"/>
<path fill-rule="evenodd" clip-rule="evenodd" d="M11.6068 26.6726C11.2182 26.7676 10.3991 25.9018 9.34035 25.9756C8.28965 25.8976 7.46176 26.7635 7.07393 26.6726C6.57434 26.6277 7.15157 24.464 9.34035 24.4399C11.5434 24.4702 12.1032 26.6308 11.6068 26.6726" fill="#353A3F"/>
<mask id="mask3_420_25725" style="mask-type:alpha" maskUnits="userSpaceOnUse" x="4" y="17" width="12" height="12">
<path fill-rule="evenodd" clip-rule="evenodd" d="M4 17.4194H15.1393V28.5601H4V17.4194Z" fill="white"/>
</mask>
<g mask="url(#mask3_420_25725)">
<path fill-rule="evenodd" clip-rule="evenodd" d="M7.3852 21.9573C7.41689 22.1568 7.56241 22.317 7.70167 22.3114C7.84127 22.3062 7.92378 22.1478 7.89175 21.9573C7.85973 21.7669 7.72639 21.6113 7.58643 21.6061C7.44683 21.6015 7.35317 21.7571 7.3852 21.9573" fill="#51585A"/>
<path fill-rule="evenodd" clip-rule="evenodd" d="M9.57031 17.4194C12.6467 17.4194 15.1406 19.9133 15.1406 22.9897C15.1406 26.0661 12.6467 28.5601 9.57031 28.5601C6.49391 28.5601 4 26.0661 4 22.9897C4 19.9133 6.49391 17.4194 9.57031 17.4194" fill="#FC8E82"/>
</g>
<path fill-rule="evenodd" clip-rule="evenodd" d="M15.1408 22.9899C15.1408 26.0675 12.6464 28.5603 9.57051 28.5603C7.81935 28.5603 6.25618 27.7526 5.23438 26.4871C6.19003 27.2599 7.4068 27.7212 8.73149 27.7212C11.8073 27.7212 14.3018 25.2285 14.3018 22.1509C14.3018 20.8262 13.8405 19.6095 13.0676 18.6538C14.3314 19.6756 15.1408 21.2388 15.1408 22.9899" fill="#DE685B"/>
<path fill-rule="evenodd" clip-rule="evenodd" d="M8.99394 21.9338C8.99394 23.0242 8.30601 23.9109 7.45027 23.9109C6.59941 23.9109 5.90625 23.0245 5.90625 21.9338C5.90625 20.8434 6.59906 19.957 7.45027 19.957C8.30636 19.957 8.99394 20.8438 8.99394 21.9338" fill="#DE685B"/>
<path fill-rule="evenodd" clip-rule="evenodd" d="M8.68369 21.8066C8.68369 22.6728 8.13327 23.3809 7.45056 23.3809C6.77272 23.3809 6.22266 22.6728 6.22266 21.8066C6.22266 20.9355 6.77307 20.2271 7.45056 20.2271C8.13327 20.2274 8.68369 20.9355 8.68369 21.8066" fill="#FFFFFE"/>
<path fill-rule="evenodd" clip-rule="evenodd" d="M7.04698 22.0367C7.14416 21.5852 7.51413 21.2819 7.87333 21.3592C8.23255 21.4365 8.44496 21.8652 8.34778 22.3167C8.25063 22.7682 7.88066 23.0715 7.52144 22.9942C7.16224 22.9169 6.94981 22.4882 7.04698 22.0367" fill="#353A3F"/>
<path fill-rule="evenodd" clip-rule="evenodd" d="M8.1188 21.9897C8.0617 22.0203 7.97293 21.9615 7.91861 21.8598C7.8643 21.7582 7.86605 21.6468 7.92175 21.6213C7.97884 21.5907 8.06901 21.6447 8.12332 21.7463C8.17624 21.8529 8.17589 21.9594 8.1188 21.9897" fill="#51585A"/>
<path fill-rule="evenodd" clip-rule="evenodd" d="M9.82031 21.9338C9.82031 23.0242 10.5082 23.9109 11.364 23.9109C12.2148 23.9109 12.908 23.0245 12.908 21.9338C12.908 20.8434 12.2152 19.957 11.364 19.957C10.5082 19.957 9.82031 20.8438 9.82031 21.9338" fill="#DE685B"/>
<path fill-rule="evenodd" clip-rule="evenodd" d="M10.1328 21.8066C10.1328 22.6728 10.6832 23.3809 11.3659 23.3809C12.0438 23.3809 12.5938 22.6728 12.5938 21.8066C12.5938 20.9355 12.0434 20.2271 11.3659 20.2271C10.6832 20.2274 10.1328 20.9355 10.1328 21.8066" fill="#FFFFFE"/>
<path fill-rule="evenodd" clip-rule="evenodd" d="M10.9433 21.3592C11.3025 21.2819 11.6725 21.5852 11.7697 22.0367C11.8668 22.4882 11.6544 22.9169 11.2952 22.9942C10.936 23.0715 10.566 22.7682 10.4689 22.3167C10.3717 21.8652 10.5841 21.4365 10.9433 21.3592" fill="#353A3F"/>
<path fill-rule="evenodd" clip-rule="evenodd" d="M10.6999 21.9897C10.757 22.0203 10.8458 21.9615 10.9001 21.8598C10.9544 21.7582 10.9527 21.6468 10.897 21.6213C10.8399 21.5907 10.7497 21.6447 10.6954 21.7463C10.6425 21.8529 10.6425 21.9594 10.6999 21.9897" fill="#51585A"/>
<path fill-rule="evenodd" clip-rule="evenodd" d="M10.9414 18.2956C10.9414 18.2956 12.3653 18.6848 13.0212 20.0116C13.0212 20.0112 12.3632 17.3155 10.9414 18.2956" fill="#C0483B"/>
<path fill-rule="evenodd" clip-rule="evenodd" d="M8.32582 18.3448C8.32582 18.3448 6.87545 18.6205 6.11719 19.8909C6.11719 19.8913 6.98581 17.2558 8.32582 18.3448" fill="#C0483B"/>
<path fill-rule="evenodd" clip-rule="evenodd" d="M11.979 25.7533C12.0249 27.8648 10.4165 27.1017 8.52643 26.4834C7.16936 26.0395 6.50092 26.945 6.51589 25.753C6.50023 24.5623 7.16901 25.4682 8.52643 25.0233C10.4165 24.4053 12.0253 23.638 11.979 25.7533" fill="#C0483B"/>
<path fill-rule="evenodd" clip-rule="evenodd" d="M11.8243 24.8184C11.3805 23.9383 10.0464 24.5274 8.52916 25.0231C7.81059 25.2588 7.28698 25.1171 6.95346 25.1071C6.94997 25.2522 6.97086 25.4775 7.16617 25.5753C7.43668 25.7107 9.95272 25.4479 10.7486 25.2091C11.26 25.0555 11.6294 24.9984 11.8243 24.8184" fill="#FFFFFE"/>
<path fill-rule="evenodd" clip-rule="evenodd" d="M11.8614 26.5989C11.577 26.3403 10.8605 26.4983 10.4776 26.3831C10.0302 26.2484 7.56394 25.9093 7.27707 26.0767C7.15278 26.1491 7.10404 26.2738 7.08594 26.3918C7.41981 26.3608 7.89885 26.2772 8.5283 26.483C10.0932 26.9948 11.4614 27.6009 11.8614 26.5989" fill="#FFFFFE"/>
<path fill-rule="evenodd" clip-rule="evenodd" d="M15.1956 9.60525C15.1956 12.6313 12.6895 15.0842 9.59773 15.0842C6.50596 15.0842 4 12.6313 4 9.60525C4 6.5793 6.50596 4.12646 9.59773 4.12646C12.6895 4.12646 15.1956 6.5793 15.1956 9.60525" fill="#FBC7AC"/>
<path fill-rule="evenodd" clip-rule="evenodd" d="M13.2977 8.89899C13.3552 8.93405 13.4318 8.89418 13.4318 8.82746V8.82581C13.4318 8.42614 13.1009 8.10205 12.6925 8.10205C12.2841 8.10205 11.9531 8.42614 11.9531 8.82581V8.82746C11.9531 8.89418 12.0297 8.93405 12.0878 8.89899C12.2636 8.79264 12.4705 8.73124 12.6925 8.73124C12.9144 8.73124 13.1215 8.79264 13.2977 8.89899" fill="#AF665A"/>
<path fill-rule="evenodd" clip-rule="evenodd" d="M7.10628 8.89899C7.16409 8.93405 7.24054 8.89418 7.24093 8.82746V8.82581C7.24093 8.42614 6.90967 8.10205 6.50106 8.10205C6.09272 8.10205 5.76172 8.42614 5.76172 8.82581V8.82746C5.76185 8.89418 5.83829 8.93405 5.89637 8.89899C6.07215 8.79264 6.27911 8.73124 6.50106 8.73124C6.72328 8.73124 6.93037 8.79264 7.10628 8.89899" fill="#AF665A"/>
<path fill-rule="evenodd" clip-rule="evenodd" d="M6.7371 10.4352C6.55835 10.4945 6.45642 10.6851 6.52588 10.8572C6.94302 11.8897 8.16483 12.7596 9.59954 12.7596C11.0337 12.7596 12.2559 11.8897 12.6731 10.8572C12.7421 10.6851 12.6405 10.4945 12.4619 10.4352C10.7327 9.86274 8.46608 9.86274 6.7371 10.4352" fill="#AF665A"/>
</svg>
