<svg width="32" height="32" viewBox="0 0 32 32" fill="none" xmlns="http://www.w3.org/2000/svg">
<path d="M23.1175 4C20.1969 4 17.8294 6.36756 17.8294 9.28814V9.6217L16.0273 14.5763H18.6429V17.4237H23.1175V19.4576H28.4057V9.28814C28.4057 6.36756 26.0381 4 23.1175 4Z" fill="#F58B71"/>
<path d="M21.2379 10.5082C20.6143 10.508 20.0161 10.2608 19.5742 9.82079L20.1518 9.24316C20.752 9.8421 21.7238 9.8421 22.324 9.24316L22.9017 9.82079C22.4598 10.2608 21.8616 10.508 21.2379 10.5082Z" fill="#4D4354"/>
<path d="M14.5763 18.1642V17.8306C14.5763 14.91 12.2087 12.5425 9.28814 12.5425C6.36756 12.5425 4 14.91 4 17.8306V28.0001H9.28814V25.9662H13.7627V23.1188H16.3783L14.5763 18.1642Z" fill="#FEB644"/>
<path d="M11.1676 19.0512C10.544 19.051 9.94582 18.8038 9.50391 18.3638L10.1019 17.7861C10.7021 18.3851 11.6739 18.3851 12.2741 17.7861L12.8517 18.3638C12.4048 18.8088 11.7983 19.0564 11.1676 19.0512Z" fill="#4D4354"/>
<path d="M16.2031 7.25439H17.0167V8.06795H16.2031V7.25439Z" fill="#F58B71"/>
<path d="M8.47347 9.28829V10.3419L7.94872 9.81304L7.37109 10.3907L8.88025 11.8958L10.3894 10.3907L9.81177 9.81304L9.28703 10.3419V9.28829C9.28703 8.61431 9.83338 8.06795 10.5074 8.06795H15.3887V7.25439H10.5074C9.38409 7.25439 8.47347 8.16502 8.47347 9.28829Z" fill="#C2B0CF"/>
<path d="M27.475 21.6096L25.9658 20.1045L24.4567 21.6096L25.0343 22.1872L25.5591 21.6584V23.5255C25.5591 24.1995 25.0127 24.7458 24.3387 24.7458H16.2031V25.5594H24.3387C25.462 25.5594 26.3726 24.6488 26.3726 23.5255V21.6584L26.8974 22.1872L27.475 21.6096Z" fill="#C2B0CF"/>
<path d="M14.5742 24.7461H15.3878V25.5597H14.5742V24.7461Z" fill="#FEB644"/>
</svg>
