<svg width="32" height="32" viewBox="0 0 32 32" fill="none" xmlns="http://www.w3.org/2000/svg">
<path d="M15.6796 7.90199L16.1662 6.75992C16.5245 5.91908 17.4965 5.52763 18.3378 5.88556C19.1786 6.24392 19.5701 7.21592 19.2121 8.05714L18.7255 9.1992C18.3671 10.04 17.3951 10.4315 16.5539 10.0736C15.7127 9.71483 15.3216 8.74283 15.6796 7.90199Z" fill="#F9B5A1"/>
<path d="M10.2422 26.3447L12.3484 26.3695L13.6229 21.793H11.2022L10.2422 26.3447Z" fill="#F9B5A1"/>
<path d="M9 27.462C9 27.7591 9.24085 27.9999 9.53794 27.9999H11.8965L12.3517 26.3696L10.2413 26.3447L9.23995 27.0109C9.08977 27.1119 8.99958 27.2811 9 27.462Z" fill="#F58B71"/>
<path d="M18.5168 26.3447H16.4023L16.8617 27.9999H19.2203C19.5174 27.9999 19.7582 27.759 19.7582 27.4619C19.7586 27.2811 19.6684 27.1119 19.5182 27.0109L18.5168 26.3447Z" fill="#F58B71"/>
<path d="M17.5078 21.793H15.1367L16.4029 26.3447H18.5174L17.5078 21.793Z" fill="#F9B5A1"/>
<path d="M12.0034 7.45933L15.6199 5.44417L14.813 4L10.9978 6.06897C10.5158 6.32927 10.1649 6.77945 10.0295 7.31036C9.90167 7.83339 9.99148 8.38581 10.2778 8.84139L11.2958 10.7614L13.0792 9.41242L12.0034 7.45933Z" fill="#F9B5A1"/>
<path d="M16.8638 18.8967L11.8983 18.4829L11.2031 21.7932H13.6238L13.9673 20.5518H14.7948L15.1383 21.7932H17.5093L16.8638 18.8967Z" fill="#C2B0CF"/>
<path d="M13.9658 11.0347L13.0803 9.4209L11.2969 10.7699L12.3107 12.6899V15.5864L11.8969 18.483L16.8624 18.8968L18.1038 11.8623L13.9658 11.0347Z" fill="#F58B71"/>
<path d="M13.0652 18.5781C12.5769 19.2199 12.0489 19.8307 11.4845 20.4071L11.2031 21.7933H13.6238L13.9673 20.5519H14.7948L15.1383 21.7933H17.5093L16.8638 18.8967L13.0652 18.5781Z" fill="#4D4354"/>
<path d="M16.8611 18.8966L18.1025 11.8621L16.9521 11.6304C15.9524 14.1003 14.6457 16.4345 13.0625 18.5779L16.8611 18.8966Z" fill="#EE6C4D"/>
<path d="M18.1015 11.8623L17.7539 13.8319L18.9663 14.7092L20.067 13.2402L18.1015 11.8623Z" fill="#EE6C4D"/>
<path d="M21.5101 14.2458L20.0701 13.2402L18.9695 14.7092L20.1736 15.5864L17.215 16.9023L16.8633 18.8968L21.1461 17.2416C22.0291 16.9019 22.4694 15.9105 22.1292 15.0274C22.0063 14.7084 21.7907 14.4333 21.5102 14.2375V14.2458H21.5101Z" fill="#F9B5A1"/>
</svg>
