<svg width="32" height="32" viewBox="0 0 32 32" fill="none" xmlns="http://www.w3.org/2000/svg">
<path d="M21.3798 16.4137C21.4896 16.4137 21.5948 16.3701 21.6724 16.2925C21.75 16.2149 21.7936 16.1097 21.7936 15.9999C21.7936 15.8902 21.75 15.7849 21.6724 15.7073C21.5948 15.6297 21.4896 15.5861 21.3798 15.5861H19.7247V8.13786C19.7247 8.02812 19.7683 7.92287 19.8459 7.84527C19.9235 7.76767 20.0287 7.72407 20.1385 7.72407H21.3798C21.4896 7.72407 21.5948 7.68047 21.6724 7.60287C21.75 7.52527 21.7936 7.42002 21.7936 7.31028C21.7936 7.20053 21.75 7.09528 21.6724 7.01768C21.5948 6.94008 21.4896 6.89648 21.3798 6.89648H20.1385C19.8092 6.89648 19.4935 7.02727 19.2607 7.26008C19.0279 7.49288 18.8971 7.80863 18.8971 8.13786V15.5861H17.2419C17.1322 15.5861 17.0269 15.6297 16.9493 15.7073C16.8717 15.7849 16.8281 15.8902 16.8281 15.9999C16.8281 16.1097 16.8717 16.2149 16.9493 16.2925C17.0269 16.3701 17.1322 16.4137 17.2419 16.4137H18.8971V23.862C18.8971 24.1912 19.0279 24.507 19.2607 24.7398C19.4935 24.9726 19.8092 25.1034 20.1385 25.1034H21.3798C21.4896 25.1034 21.5948 25.0598 21.6724 24.9822C21.75 24.9046 21.7936 24.7993 21.7936 24.6896C21.7936 24.5798 21.75 24.4746 21.6724 24.397C21.5948 24.3194 21.4896 24.2758 21.3798 24.2758H20.1385C20.0287 24.2758 19.9235 24.2322 19.8459 24.1546C19.7683 24.077 19.7247 23.9717 19.7247 23.862V16.4137H21.3798Z" fill="#FEB644"/>
<path d="M27.172 12.6895H22.2065C21.7494 12.6895 21.3789 13.06 21.3789 13.517V18.4826C21.3789 18.9396 21.7494 19.3101 22.2065 19.3101H27.172C27.6291 19.3101 27.9996 18.9396 27.9996 18.4826V13.517C27.9996 13.06 27.6291 12.6895 27.172 12.6895Z" fill="#F58B71"/>
<path d="M27.172 4H22.2065C21.7494 4 21.3789 4.37052 21.3789 4.82759V9.7931C21.3789 10.2502 21.7494 10.6207 22.2065 10.6207H27.172C27.6291 10.6207 27.9996 10.2502 27.9996 9.7931V4.82759C27.9996 4.37052 27.6291 4 27.172 4Z" fill="#F58B71"/>
<path d="M27.172 21.3794H22.2065C21.7494 21.3794 21.3789 21.7499 21.3789 22.207V27.1725C21.3789 27.6296 21.7494 28.0001 22.2065 28.0001H27.172C27.6291 28.0001 27.9996 27.6296 27.9996 27.1725V22.207C27.9996 21.7499 27.6291 21.3794 27.172 21.3794Z" fill="#C2B0CF"/>
<path d="M16.9737 16.8851C17.0396 16.8595 17.0971 16.8161 17.14 16.7598C17.1828 16.7035 17.2093 16.6365 17.2165 16.5661C17.2335 16.3791 17.2414 16.1896 17.2414 16C17.2414 15.8105 17.2335 15.621 17.2165 15.434C17.2093 15.3636 17.1828 15.2966 17.14 15.2403C17.0971 15.184 17.0396 15.1406 16.9737 15.1149L15.9069 14.6879C15.7761 14.1609 15.5669 13.6565 15.2862 13.1916L15.7414 12.134C15.7699 12.0692 15.7799 11.9977 15.7704 11.9276C15.7609 11.8574 15.7323 11.7912 15.6876 11.7363C15.5672 11.5923 15.4393 11.4525 15.3048 11.3184C15.1703 11.1843 15.0309 11.056 14.8869 10.9356C14.832 10.891 14.7658 10.8623 14.6956 10.8528C14.6255 10.8433 14.5541 10.8534 14.4892 10.8818L13.4316 11.337C12.9667 11.0563 12.4623 10.8471 11.9353 10.7163L11.5083 9.64956C11.4826 9.58364 11.4392 9.52608 11.3829 9.48322C11.3266 9.44036 11.2596 9.41387 11.1892 9.40666C11.0022 9.3897 10.8127 9.38184 10.6232 9.38184C10.4337 9.38184 10.2441 9.3897 10.0571 9.40666C9.98672 9.41387 9.9197 9.44036 9.86341 9.48322C9.80712 9.52608 9.76374 9.58364 9.73807 9.64956L9.31103 10.7163C8.784 10.8471 8.27961 11.0563 7.81476 11.337L6.7571 10.8818C6.69229 10.8534 6.62087 10.8433 6.55071 10.8528C6.48055 10.8623 6.41437 10.891 6.35945 10.9356C6.21545 11.056 6.07559 11.1839 5.94152 11.3184C5.80745 11.4529 5.67917 11.5923 5.55876 11.7363C5.51408 11.7912 5.48542 11.8574 5.47593 11.9276C5.46644 11.9977 5.47648 12.0692 5.50497 12.134L5.96014 13.1916C5.67946 13.6565 5.47023 14.1609 5.33945 14.6879L4.26772 15.1149C4.2018 15.1406 4.14424 15.184 4.10138 15.2403C4.05853 15.2966 4.03204 15.3636 4.02483 15.434C4.00786 15.621 4 15.8105 4 16C4 16.1896 4.00786 16.3791 4.02483 16.5661C4.03204 16.6365 4.05853 16.7035 4.10138 16.7598C4.14424 16.8161 4.2018 16.8595 4.26772 16.8851L5.33448 17.3122C5.46527 17.8392 5.6745 18.3436 5.95517 18.8085L5.5 19.8661C5.47152 19.9309 5.46147 20.0023 5.47096 20.0725C5.48045 20.1427 5.50911 20.2088 5.55379 20.2638C5.67421 20.4078 5.80207 20.5476 5.93655 20.6817C6.07103 20.8158 6.21048 20.944 6.35448 21.0645C6.4094 21.1091 6.47558 21.1378 6.54574 21.1473C6.6159 21.1568 6.68732 21.1467 6.75214 21.1182L7.80979 20.6631C8.27465 20.9437 8.77904 21.153 9.30607 21.2838L9.7331 22.3505C9.75878 22.4164 9.80215 22.474 9.85844 22.5169C9.91473 22.5597 9.98176 22.5862 10.0521 22.5934C10.2392 22.6104 10.4287 22.6182 10.6182 22.6182C10.8077 22.6182 10.9972 22.6104 11.1843 22.5934C11.2547 22.5862 11.3217 22.5597 11.378 22.5169C11.4343 22.474 11.4776 22.4164 11.5033 22.3505L11.9303 21.2838C12.4574 21.153 12.9618 20.9437 13.4266 20.6631L14.4843 21.1182C14.5491 21.1467 14.6205 21.1568 14.6907 21.1473C14.7608 21.1378 14.827 21.1091 14.8819 21.0645C15.0259 20.944 15.1658 20.8162 15.2999 20.6817C15.4339 20.5472 15.5622 20.4078 15.6826 20.2638C15.7273 20.2088 15.756 20.1427 15.7654 20.0725C15.7749 20.0023 15.7649 19.9309 15.7364 19.8661L15.2812 18.8085C15.5619 18.3436 15.7711 17.8392 15.9019 17.3122L16.9737 16.8851Z" fill="#C2B0CF"/>
<path d="M10.6226 19.7242C12.6794 19.7242 14.3467 18.0568 14.3467 16C14.3467 13.9432 12.6794 12.2759 10.6226 12.2759C8.56579 12.2759 6.89844 13.9432 6.89844 16C6.89844 18.0568 8.56579 19.7242 10.6226 19.7242Z" fill="#4D4354"/>
<path d="M10.6197 18.0691C11.7624 18.0691 12.6887 17.1428 12.6887 16.0001C12.6887 14.8575 11.7624 13.9312 10.6197 13.9312C9.47709 13.9312 8.55078 14.8575 8.55078 16.0001C8.55078 17.1428 9.47709 18.0691 10.6197 18.0691Z" fill="#C2B0CF"/>
<path d="M24.2754 8.96567C24.1656 8.96565 24.0604 8.92203 23.9828 8.84443L23.1552 8.01684C23.0798 7.9388 23.0381 7.83427 23.0391 7.72578C23.04 7.61728 23.0835 7.5135 23.1603 7.43678C23.237 7.36006 23.3408 7.31654 23.4493 7.3156C23.5578 7.31465 23.6623 7.35636 23.7403 7.43174L24.2112 7.90263L25.5863 5.83946C25.6164 5.79425 25.6552 5.75542 25.7003 5.7252C25.7455 5.69497 25.7962 5.67393 25.8495 5.66329C25.9028 5.65264 25.9576 5.6526 26.011 5.66316C26.0643 5.67372 26.115 5.69468 26.1602 5.72484C26.2054 5.755 26.2442 5.79377 26.2745 5.83893C26.3047 5.8841 26.3257 5.93477 26.3364 5.98807C26.347 6.04136 26.347 6.09623 26.3365 6.14954C26.3259 6.20285 26.305 6.25356 26.2748 6.29877L24.6196 8.78153C24.5859 8.83274 24.5413 8.87583 24.4889 8.90768C24.4365 8.93952 24.3777 8.95933 24.3167 8.96567C24.3023 8.96567 24.2886 8.96567 24.2754 8.96567Z" fill="white"/>
<path d="M24.2754 17.6551C24.1656 17.6551 24.0604 17.6115 23.9828 17.5339L23.1552 16.7063C23.0798 16.6283 23.0381 16.5237 23.0391 16.4152C23.04 16.3067 23.0835 16.203 23.1603 16.1262C23.237 16.0495 23.3408 16.006 23.4493 16.0051C23.5578 16.0041 23.6623 16.0458 23.7403 16.1212L24.2112 16.5921L25.5863 14.5289C25.6472 14.4376 25.7418 14.3742 25.8495 14.3527C25.9571 14.3312 26.0689 14.3534 26.1602 14.4143C26.2515 14.4752 26.3149 14.5699 26.3364 14.6775C26.3579 14.7852 26.3357 14.8969 26.2748 14.9882L24.6196 17.471C24.5857 17.5219 24.5409 17.5646 24.4884 17.5961C24.436 17.6276 24.3772 17.647 24.3163 17.6531C24.3023 17.6551 24.2886 17.6551 24.2754 17.6551Z" fill="white"/>
</svg>
