<svg width="32" height="32" viewBox="0 0 32 32" fill="none" xmlns="http://www.w3.org/2000/svg">
<path d="M26.5938 6.10938V24.4844C26.5938 26.425 25.0187 28 23.0781 28H8.21875C7.05152 28 6.10938 27.0578 6.10938 25.8906V6.10938C6.10938 4.94214 7.05152 4 8.21875 4H24.4844C25.6516 4 26.5938 4.94214 26.5938 6.10938Z" fill="#C2B0CF"/>
<path d="M24.4844 4H16.7031V28H23.0781C25.0188 28 26.5938 26.425 26.5938 24.4844V6.10938C26.5938 4.94214 25.6516 4 24.4844 4Z" fill="#C2B0CF"/>
<path d="M8.21875 26.5938C7.83081 26.5938 7.51562 26.2786 7.51562 25.8906V6.10938C7.51562 5.72144 7.83081 5.40625 8.21875 5.40625H24.4844C24.8723 5.40625 25.1875 5.72144 25.1875 6.10938V24.4844C25.1875 25.6475 24.2413 26.5938 23.0781 26.5938H8.21875Z" fill="#F7F4F2"/>
<path d="M24.4844 5.40625H16.7031V26.5938H23.0781C24.2413 26.5938 25.1875 25.6475 25.1875 24.4844V6.10938C25.1875 5.72144 24.8723 5.40625 24.4844 5.40625Z" fill="#DFD6E5"/>
<path d="M23.0781 18.1562C20.3641 18.1562 18.1562 20.3641 18.1562 23.0781C18.1562 25.7922 20.3641 28 23.0781 28C25.7922 28 28 25.7922 28 23.0781C28 20.3641 25.7922 18.1562 23.0781 18.1562Z" fill="#FEB644"/>
<path d="M28 23.0781C28 25.7922 25.7922 28 23.0781 28V18.1562C25.7922 18.1562 28 20.3641 28 23.0781Z" fill="#FFA921"/>
<path d="M25.1875 23.0781C25.1875 23.4718 24.8782 23.7812 24.4844 23.7812H23.0781C22.6843 23.7812 22.375 23.4718 22.375 23.0781V21.6719C22.375 21.2781 22.6843 20.9688 23.0781 20.9688C23.4719 20.9688 23.7812 21.2781 23.7812 21.6719V22.375H24.4844C24.8782 22.375 25.1875 22.6843 25.1875 23.0781Z" fill="#4D4354"/>
<path d="M25.1875 23.0781C25.1875 23.4718 24.8782 23.7812 24.4844 23.7812H23.0781V20.9688C23.4719 20.9688 23.7812 21.2781 23.7812 21.6719V22.375H24.4844C24.8782 22.375 25.1875 22.6843 25.1875 23.0781Z" fill="#4D4354"/>
<path d="M23.0781 11.125H18.8594C18.4707 11.125 18.1562 10.8105 18.1562 10.4219C18.1562 10.0332 18.4707 9.71875 18.8594 9.71875H23.0781C23.4668 9.71875 23.7812 10.0332 23.7812 10.4219C23.7812 10.8105 23.4668 11.125 23.0781 11.125Z" fill="#DFD6E5"/>
<path d="M23.0781 16.75H18.8594C18.4707 16.75 18.1562 16.4355 18.1562 16.0469C18.1562 15.6582 18.4707 15.3438 18.8594 15.3438H23.0781C23.4668 15.3438 23.7812 15.6582 23.7812 16.0469C23.7812 16.4355 23.4668 16.75 23.0781 16.75Z" fill="#DFD6E5"/>
<path d="M13.186 12.5313C13.0061 12.5313 12.8262 12.4626 12.6889 12.3252L11.0849 10.7212C10.8102 10.4466 10.8102 10.0016 11.0849 9.72697C11.3595 9.45232 11.8045 9.45232 12.0792 9.72697L13.186 10.8339L15.5014 8.51848C15.776 8.24384 16.221 8.24384 16.4957 8.51848C16.7703 8.79312 16.7703 9.23811 16.4957 9.51275L13.6832 12.3252C13.5458 12.4626 13.3659 12.5313 13.186 12.5313Z" fill="#F58B71"/>
<path d="M13.186 18.1563C13.0061 18.1563 12.8262 18.0876 12.6889 17.9502L11.0849 16.3462C10.8102 16.0716 10.8102 15.6266 11.0849 15.352C11.3595 15.0773 11.8045 15.0773 12.0792 15.352L13.186 16.4589L15.5014 14.1435C15.776 13.8688 16.221 13.8688 16.4957 14.1435C16.7703 14.4181 16.7703 14.8631 16.4957 15.1377L13.6832 17.9502C13.5458 18.0876 13.3659 18.1563 13.186 18.1563Z" fill="#F58B71"/>
<path d="M13.186 23.7813C13.0061 23.7813 12.8262 23.7126 12.6889 23.5752L11.0849 21.9712C10.8102 21.6966 10.8102 21.2516 11.0849 20.977C11.3595 20.7023 11.8045 20.7023 12.0792 20.977L13.186 22.0839L15.5014 19.7685C15.776 19.4938 16.221 19.4938 16.4957 19.7685C16.7703 20.0431 16.7703 20.4881 16.4957 20.7627L13.6832 23.5752C13.5458 23.7126 13.3659 23.7813 13.186 23.7813Z" fill="#F58B71"/>
<path d="M8.21875 10.4219H5.40625C4.62958 10.4219 4 9.7923 4 9.01562C4 8.23895 4.62958 7.60938 5.40625 7.60938H8.21875C8.99542 7.60938 9.625 8.23895 9.625 9.01562C9.625 9.7923 8.99542 10.4219 8.21875 10.4219Z" fill="#C2B0CF"/>
<path d="M8.21875 17.4531H5.40625C4.62958 17.4531 4 16.8235 4 16.0469C4 15.2702 4.62958 14.6406 5.40625 14.6406H8.21875C8.99542 14.6406 9.625 15.2702 9.625 16.0469C9.625 16.8235 8.99542 17.4531 8.21875 17.4531Z" fill="#C2B0CF"/>
<path d="M8.21875 24.4844H5.40625C4.62958 24.4844 4 23.8548 4 23.0781C4 22.3015 4.62958 21.6719 5.40625 21.6719H8.21875C8.99542 21.6719 9.625 22.3015 9.625 23.0781C9.625 23.8548 8.99542 24.4844 8.21875 24.4844Z" fill="#C2B0CF"/>
</svg>
