<svg width="32" height="32" viewBox="0 0 32 32" fill="none" xmlns="http://www.w3.org/2000/svg">
<path d="M16.8985 27.6756C16.1038 28.1067 15.1515 28.1081 14.3555 27.6794C9.83835 25.2466 4.43249 19.9096 4.42579 15.4702C4.42082 12.1252 7.12837 9.40946 10.4734 9.4045C12.633 9.40126 14.5291 10.5297 15.6039 12.2294C16.6737 10.5264 18.5663 9.39245 20.726 9.38917C24.071 9.38415 26.7867 12.0918 26.7916 15.4368C26.7983 19.8762 21.4084 25.2293 16.8985 27.6756Z" fill="#F58B71"/>
<path d="M10.4734 9.4043C7.12841 9.40931 4.42082 12.125 4.42579 15.47C4.43249 19.9094 9.83835 25.2463 14.3555 27.6792C15.1514 28.1079 16.1038 28.1065 16.8985 27.6754C17.7003 27.2405 18.5299 26.7133 19.3521 26.116C5.28646 24.1717 7.83824 11.3872 10.4734 9.4043Z" fill="#EE6C4D"/>
<path d="M9.86411 22.6403C6.68776 22.49 5.20614 21.4973 4.79828 20.6543C4.37514 19.7797 4.46458 18.6268 5.05051 18.2646C5.66031 18.6001 7.43992 19.1306 10.0244 19.2529C12.1552 19.3538 15.4459 19.1964 19.0225 17.8746C19.901 17.55 20.8762 17.9989 21.2007 18.8773C21.5253 19.7557 21.0764 20.7309 20.1981 21.0555C16.8172 22.3049 13.2311 22.7994 9.86411 22.6403Z" fill="#EDA1AB"/>
<path d="M11.2528 21.9455C10.3744 21.6209 9.92551 20.6457 10.2501 19.7673C10.5747 18.8889 11.5496 18.4399 12.4283 18.7646C15.1983 19.7882 18.1385 20.1064 21.1667 19.7101C23.6606 19.3838 25.4514 18.672 26.1572 18.2837C26.7938 18.5921 27.04 19.6929 26.5989 20.6414C26.02 21.8864 24.4036 22.7067 21.6067 23.0726C17.8979 23.5579 14.4224 23.1168 11.2528 21.9455Z" fill="#F4C8D2"/>
<path d="M15.6159 7.26906C15.1312 7.26906 14.7383 6.87616 14.7383 6.39142V4.87764C14.7383 4.39295 15.1312 4.00005 15.6159 4C16.1006 4 16.4935 4.39291 16.4936 4.87764V6.39142C16.4936 6.87611 16.1007 7.26901 15.6159 7.26906Z" fill="#FEB644"/>
<path d="M15.6159 7.26898C15.916 7.26898 16.1806 7.11819 16.3389 6.88845C15.2389 6.67151 14.9269 5.0547 15.1533 4.13281C14.9045 4.28773 14.7383 4.56289 14.7383 4.87756V6.39134C14.7383 6.87603 15.1312 7.26898 15.6159 7.26898Z" fill="#FFA921"/>
<path d="M6.56861 7.77417C6.22586 8.11692 5.6702 8.11692 5.32745 7.77417L4.25706 6.70378C3.91431 6.36103 3.91431 5.80543 4.25706 5.46263C4.59977 5.11988 5.15547 5.11988 5.49822 5.46263L6.56866 6.53302C6.91136 6.87572 6.91136 7.43138 6.56861 7.77417Z" fill="#8DAEE1"/>
<path d="M6.28998 7.96168C5.19948 7.60969 4.55097 5.92158 4.98991 5.21377C4.72947 5.18035 4.45708 5.26276 4.25706 5.46272C3.91431 5.80552 3.91431 6.36113 4.25706 6.70388L5.3275 7.77427C5.58775 8.03457 5.97062 8.09668 6.28998 7.96168Z" fill="#6A95D6"/>
<path d="M24.6633 7.77417C25.006 8.11692 25.5617 8.11692 25.9045 7.77417L26.9749 6.70378C27.3177 6.36103 27.3177 5.80543 26.9749 5.46263C26.6322 5.11988 26.0765 5.11988 25.7337 5.46263L24.6633 6.53302C24.3206 6.87572 24.3206 7.43138 24.6633 7.77417Z" fill="#BD80E1"/>
<path d="M25.4916 5.70459L24.6633 6.53292C24.3206 6.87567 24.3205 7.43128 24.6633 7.77407C25.006 8.11682 25.5617 8.11682 25.9045 7.77407L26.16 7.51851C25.4396 7.27101 25.265 6.20896 25.4916 5.70459Z" fill="#AF66DA"/>
<path d="M11.773 16.7914C12.5559 16.7914 13.1906 16.286 13.1906 15.6625C13.1906 15.0391 12.5559 14.5337 11.773 14.5337C10.9901 14.5337 10.3555 15.0391 10.3555 15.6625C10.3555 16.286 10.9901 16.7914 11.773 16.7914Z" fill="white"/>
<path d="M19.4566 16.7914C20.2395 16.7914 20.8742 16.286 20.8742 15.6625C20.8742 15.0391 20.2395 14.5337 19.4566 14.5337C18.6737 14.5337 18.0391 15.0391 18.0391 15.6625C18.0391 16.286 18.6737 16.7914 19.4566 16.7914Z" fill="white"/>
<path d="M15.6154 14.463C15.053 14.463 14.5522 14.0851 14.2372 14.5511C13.9177 15.0238 14.6333 15.7569 15.6154 15.7569C16.5975 15.7569 17.3131 15.0238 16.9936 14.5511C16.6786 14.0851 16.1778 14.463 15.6154 14.463Z" fill="#4D4354"/>
<path d="M12.5983 14.8489C12.257 14.8489 11.9323 14.7011 11.7077 14.4434C11.5801 14.297 11.5953 14.0749 11.7416 13.9474C11.8881 13.8198 12.11 13.835 12.2377 13.9814C12.3288 14.0859 12.4602 14.1459 12.5983 14.1459C12.7364 14.1459 12.8679 14.0859 12.9589 13.9814C13.0865 13.835 13.3084 13.8199 13.4549 13.9474C13.6013 14.0749 13.6165 14.297 13.489 14.4434C13.2643 14.7011 12.9397 14.8489 12.5983 14.8489Z" fill="#4D4354"/>
<path d="M18.6296 14.849C18.2882 14.849 17.9636 14.7012 17.7389 14.4434C17.6113 14.297 17.6266 14.075 17.773 13.9474C17.9193 13.8198 18.1413 13.8351 18.269 13.9815C18.36 14.086 18.4915 14.1459 18.6296 14.1459C18.7676 14.1459 18.8991 14.086 18.9902 13.9814C19.1178 13.835 19.3399 13.8198 19.4862 13.9474C19.6326 14.075 19.6478 14.2971 19.5202 14.4434C19.2956 14.7012 18.9709 14.849 18.6296 14.849Z" fill="#4D4354"/>
</svg>
