<svg width="32" height="32" viewBox="0 0 32 32" fill="none" xmlns="http://www.w3.org/2000/svg">
<path d="M18.4217 24.2737C17.9316 24.1104 17.6011 23.6518 17.6011 23.1353V22.716L13.8517 22.7109L13.8364 23.9785L12.6055 24.9773L13.867 26.5135L18.1735 26.4219L18.6289 24.3428L18.4217 24.2737Z" fill="#F9B5A1"/>
<path d="M13.5981 21.2002V23.1353C13.5981 23.6518 13.2676 24.1104 12.7776 24.2737L12.5703 24.3428L13.0302 25.0326C13.6922 24.8122 14.178 24.271 14.3396 23.6157C14.3722 23.4833 14.4482 23.3655 14.5558 23.2816C14.6852 23.1808 14.8498 23.1365 15.0123 23.1591C15.2038 23.1858 15.3992 23.2002 15.5981 23.2002C16.3191 23.2002 16.9976 23.0234 17.5982 22.716V21.2002H13.5981V21.2002Z" fill="#F4A38A"/>
<path d="M12.5352 15.6001V17.9766C12.5352 19.9649 13.6097 22.3557 15.5979 22.3557C15.8757 22.3557 16.4059 22.3091 16.4059 22.3091C18.0051 21.9423 19.1979 20.5105 19.1979 18.8001V15.6001H12.5352Z" fill="#FDD4BB"/>
<path d="M13.6 18.8001V17.9315C13.6 17.7193 13.6843 17.5158 13.8343 17.3658L15.6 15.6001H12V18.5755C12 20.2215 13.0165 21.7471 14.5862 22.2425C15.2283 22.4452 15.8446 22.4371 16.408 22.309C14.8054 21.9449 13.6 20.513 13.6 18.8001Z" fill="#F9B5A1"/>
<path d="M17.1986 13.6001H13.5986C13.1052 13.6001 12.6534 13.7788 12.3047 14.075L12.3067 15.0063L13.9986 16.0001C13.9986 16.0001 15.8311 17.4661 19.1455 17.9424C19.3844 17.9767 19.5986 17.7861 19.5986 17.5447V16.0001C19.5986 14.6746 18.524 13.6001 17.1986 13.6001Z" fill="#4D4354"/>
<path d="M27.7411 13.0369L26.1395 12.4275L26.1544 10.7139C26.1577 10.3346 25.6807 10.1642 25.4429 10.4596L24.3683 11.7944L22.875 11.2948L23.501 13.5477L22.9894 14.6396L24.5394 14.2502L26.007 15.8802L26.0848 14.3076L27.7191 13.7923C28.0808 13.6782 28.0955 13.1718 27.7411 13.0369Z" fill="#FEB644"/>
<path d="M20.5102 7.0529L21.0802 5.91867C21.178 6.02531 21.2215 6.12066 21.2263 6.13233C21.306 6.33605 21.5349 6.43838 21.74 6.36122C21.9466 6.28327 22.0513 6.05264 21.9732 5.84597C21.9647 5.82352 21.8228 5.47182 21.4509 5.1811L21.5521 4.97977C21.6513 4.78233 21.5716 4.54187 21.3744 4.44268C21.1759 4.34307 20.9364 4.42355 20.8373 4.62043L20.7228 4.84805C20.6971 4.84248 20.6761 4.83291 20.6493 4.82823C20.1607 4.74305 19.6634 4.9456 19.3494 5.35674C19.0611 5.73427 18.9939 6.20597 19.1732 6.58758C19.2572 6.76612 19.3816 6.95442 19.555 7.1715L18.7952 8.68321C18.6451 8.57924 18.5516 8.4636 18.4221 8.24029C18.3111 8.04946 18.0674 7.98421 17.8752 8.09517C17.6842 8.20612 17.6189 8.45085 17.7299 8.64182C17.9574 9.03374 18.1584 9.23141 18.4343 9.40143L18.3225 9.62385C18.2232 9.82129 18.3029 10.0618 18.5002 10.1609C18.558 10.1899 18.6194 10.2035 18.6795 10.2035C18.826 10.2035 18.967 10.1228 19.0373 9.98319L19.1664 9.72646C19.2795 9.7514 19.3918 9.76405 19.5018 9.76405C20.042 9.76405 20.528 9.48144 20.8065 9.10115C21.2381 8.51188 21.1811 7.75486 20.6643 7.21697C20.6132 7.16395 20.5616 7.10822 20.5102 7.0529ZM20.1611 8.62846C20.0316 8.8056 19.8094 8.94609 19.5513 8.96076L20.1253 7.8187C20.4254 8.17434 20.2546 8.50092 20.1611 8.62846ZM19.9632 6.35944C19.9413 6.32203 19.9142 6.28294 19.8974 6.24717C19.8462 6.13838 19.8806 5.97938 19.9853 5.84227C20.0611 5.74303 20.1839 5.64793 20.3354 5.61896L19.9632 6.35944Z" fill="#98DB7C"/>
<path d="M9.08125 9.71727C8.92502 9.56104 8.67189 9.56104 8.51561 9.71727C8.35938 9.87351 8.35938 10.1266 8.51561 10.2829L10.5156 12.2829C10.5938 12.3611 10.6961 12.4001 10.7984 12.4001C10.9007 12.4001 11.0031 12.3611 11.0812 12.2829C11.2374 12.1267 11.2374 11.8736 11.0812 11.7173L9.08125 9.71727Z" fill="#DFD6E5"/>
<path d="M15.5992 9.6001C15.3781 9.6001 15.1992 9.77921 15.1992 10.0001V11.2001C15.1992 11.421 15.3781 11.6001 15.5992 11.6001C15.8203 11.6001 15.9992 11.421 15.9992 11.2001V10.0001C15.9992 9.77921 15.8203 9.6001 15.5992 9.6001Z" fill="#C2B0CF"/>
<path d="M19.7164 11.3174L19.3164 11.7174C19.1602 11.8736 19.1602 12.1267 19.3164 12.283C19.3945 12.3611 19.4969 12.4002 19.5992 12.4002C19.7015 12.4002 19.8039 12.3611 19.882 12.283L20.282 11.883C20.4382 11.7268 20.4382 11.4737 20.282 11.3174C20.1257 11.1611 19.8726 11.1611 19.7164 11.3174Z" fill="#DFD6E5"/>
<path d="M9.31563 16.917L8.51561 17.717C8.35938 17.8733 8.35938 18.1264 8.51561 18.2827C8.59375 18.3608 8.69608 18.3998 8.79841 18.3998C8.90074 18.3998 9.00311 18.3608 9.08121 18.2827L9.88122 17.4826C10.0375 17.3264 10.0375 17.0733 9.88122 16.917C9.72503 16.7607 9.47191 16.7607 9.31563 16.917Z" fill="#C2B0CF"/>
<path d="M23.0212 18.4672L21.8212 17.6672C21.6364 17.5439 21.3884 17.5941 21.2665 17.7781C21.1439 17.9619 21.1935 18.2104 21.3775 18.3328L22.5775 19.1328C22.6458 19.1783 22.7228 19.2 22.799 19.2C22.9283 19.2 23.0552 19.1375 23.1322 19.0219C23.2548 18.8381 23.2052 18.5897 23.0212 18.4672Z" fill="#C2B0CF"/>
<path d="M12.3076 14.0747C11.8768 14.4415 11.6016 14.9897 11.6016 15.5998V17.1458C11.6016 17.4849 11.9971 17.6702 12.2576 17.4531L14.0015 15.9998C13.2427 15.5022 12.6836 14.7348 12.3076 14.0747Z" fill="#201429"/>
<path d="M21.3043 25.2355L18.6262 24.3428C17.9858 25.3387 16.8704 26.0002 15.5984 26.0002C14.6341 26.0002 13.7598 25.6201 13.1142 25.0023L10.2776 25.4461C9.62426 25.6639 9.18359 26.2753 9.18359 26.964L9.59844 27.9319C9.72355 27.9761 9.85817 28.0002 9.99842 28.0002H21.1984C21.8611 28.0002 22.3984 27.4629 22.3984 26.8002V26.7534C22.3984 26.0647 21.9577 25.4533 21.3043 25.2355Z" fill="#FEB644"/>
<path d="M13.0328 25.0326C13.0613 25.0231 13.0887 25.0129 13.1166 25.0022C12.9119 24.8058 12.7271 24.5824 12.5729 24.3428L9.89479 25.2355C9.24145 25.4533 8.80078 26.0647 8.80078 26.7534V26.8001C8.80078 27.3219 9.13575 27.7666 9.60079 27.9319V26.7533C9.60079 26.4084 9.82073 26.1035 10.1481 25.9945L13.0328 25.0326Z" fill="#FFA921"/>
<path d="M12.6763 8.37077L13.097 7.97023C13.585 7.17701 14.2758 5.80414 13.8867 4.89177C13.569 4.14665 12.7074 3.80019 11.9623 4.11791C11.557 4.29074 11.2756 4.62632 11.1489 5.01467C10.781 4.83725 10.3439 4.80805 9.93865 4.98088C9.8801 5.00586 9.82399 5.03417 9.77051 5.06553C9.14318 5.43331 9.53482 6.90528 9.53482 6.90528C10.11 8.25443 12.6763 8.37077 12.6763 8.37077Z" fill="#F58B71"/>
<path d="M9.81307 6.07521C9.67723 5.74296 9.67207 5.38394 9.76901 5.06543C9.14749 5.43523 8.87182 6.2216 9.16329 6.90517C9.64029 8.02375 11.7402 8.45026 12.444 8.56337C12.5863 8.58625 12.7288 8.52531 12.8108 8.40681C12.8856 8.29876 12.9854 8.14918 13.0955 7.97017C13.0955 7.97012 10.3544 7.39909 9.81307 6.07521Z" fill="#EE6C4D"/>
<path d="M7.59999 15.6002H4.39998C4.17906 15.6002 4 15.4212 4 15.2003V13.888C4 13.7665 4.05522 13.6516 4.15014 13.5757L5.75012 12.2957C5.89623 12.1788 6.10379 12.1788 6.24985 12.2957L7.84983 13.5757C7.94471 13.6516 7.99997 13.7665 7.99997 13.888V15.2003C7.99997 15.4211 7.82091 15.6002 7.59999 15.6002Z" fill="#FFF4D6"/>
<path d="M6.00155 14.8C5.78044 14.8 5.60156 14.6209 5.60156 14.4001V14.0001C5.60156 13.7792 5.78048 13.6001 6.00155 13.6001C6.22261 13.6001 6.40153 13.7792 6.40153 14.0001V14.4001C6.40153 14.6209 6.22261 14.8 6.00155 14.8Z" fill="#EE6C4D"/>
<path d="M7.84988 12.6802L6.2499 11.4001C6.10379 11.2833 5.89623 11.2833 5.75017 11.4001L4.15014 12.6802C4.05522 12.7561 4 12.871 4 12.9925V13.888L5.75012 12.4879C5.89623 12.371 6.10379 12.371 6.24985 12.4879L7.99997 13.888V12.9925C7.99997 12.871 7.94475 12.7561 7.84988 12.6802Z" fill="#F58B71"/>
<path d="M26.0084 15.8803L24.9323 14.3719C24.7385 14.0999 24.3959 13.9766 24.0717 14.0645L23.5288 14.2116L23.8636 13.7594C24.0628 13.4903 24.0733 13.1258 23.8901 12.8457L22.8765 11.2949L22.7448 11.2509C22.3851 11.1305 22.0755 11.5316 22.283 11.849L23.2204 13.2835L22.2012 14.661C21.9756 14.9659 22.2613 15.3842 22.6273 15.285L24.2813 14.8367L25.2764 16.2317C25.4966 16.5405 25.9828 16.398 26.0015 16.0192L26.0084 15.8803Z" fill="#FFA921"/>
</svg>
