<svg width="32" height="32" viewBox="0 0 32 32" fill="none" xmlns="http://www.w3.org/2000/svg">
<path d="M10.4239 13.3259C10.8765 10.7629 13.3205 9.05174 15.8837 9.50312C17.7608 9.83313 19.1324 11.4702 19.5823 13.2016C19.9309 12.6994 20.3611 12.2589 20.8552 11.8988C20.9678 11.3116 20.9996 10.7116 20.9496 10.1158C20.7213 7.52223 18.4349 5.60392 15.8409 5.83013C13.9424 5.99733 12.4338 7.5101 11.8339 9.19446C10.951 7.63879 9.198 6.41314 7.30374 6.58013C6.05821 6.68811 4.90684 7.2866 4.10285 8.24398C3.29907 9.20136 2.90879 10.4392 3.01803 11.6845C3.54098 17.6631 12.9909 22.4287 12.9909 22.4287C12.9909 22.4287 13.1709 22.2916 13.4795 22.0474C13.4751 22.043 13.4795 22.043 13.4795 22.043C11.6238 19.5402 9.90091 16.2872 10.4239 13.3259Z" fill="#EE6C4D"/>
<path d="M4.30374 11.6844C4.08716 9.20425 5.83995 6.98439 8.30276 6.62006C7.97276 6.56482 7.6371 6.55142 7.30374 6.58009C6.05821 6.68807 4.90684 7.28657 4.10285 8.24394C3.29907 9.20132 2.90879 10.4391 3.01803 11.6844C3.54098 17.6631 12.9909 22.4286 12.9909 22.4286C12.9909 22.4286 13.1709 22.2916 13.4795 22.0474C13.4751 22.043 13.4795 22.043 13.4795 22.043C13.4594 22.0155 13.4396 21.9873 13.4195 21.9599C11.0803 20.6206 4.7298 16.5573 4.30374 11.6844Z" fill="#E36040"/>
<path d="M13.1207 9.19455C13.6966 7.57799 15.1104 6.12257 16.9019 5.86036C16.551 5.81055 16.1955 5.8003 15.842 5.83022C14.3774 6.01187 13.0825 6.86943 12.3438 8.14719C12.6434 8.46401 12.9044 8.81558 13.1207 9.19455Z" fill="#E36040"/>
<path d="M17.1704 9.50319C16.683 9.41781 16.1852 9.40986 15.6953 9.47955C15.7583 9.48813 15.8213 9.49189 15.8847 9.50319C17.7618 9.8332 19.1333 11.4703 19.5832 13.2017C19.8423 12.8271 20.1476 12.4869 20.4918 12.1889C19.876 10.8157 18.6424 9.81813 17.1704 9.50319Z" fill="#E36040"/>
<path d="M24.3259 10.9899C23.0932 10.8047 21.8384 11.1333 20.8545 11.8985C20.3604 12.2587 19.9301 12.6992 19.5815 13.2014C19.1316 11.47 17.7601 9.8329 15.883 9.50289C13.3197 9.05151 10.8757 10.7627 10.4231 13.3257C9.90015 16.287 11.623 19.54 13.4788 22.0428C13.4788 22.0428 13.4744 22.0428 13.4788 22.0472C14.613 23.5725 15.8838 24.9911 17.2758 26.2856C17.2758 26.2856 27.1073 22.36 28.1488 16.4542C28.6003 13.8901 26.8894 11.4446 24.3259 10.9899Z" fill="#F58B71"/>
<path d="M6.56141 21.5716C6.41806 21.5731 6.28371 21.5022 6.20419 21.3829C6.12447 21.2634 6.11065 21.1121 6.16716 20.9802C6.20608 20.8727 6.29083 20.7877 6.3986 20.7488C6.50281 20.7055 6.62 20.7055 6.72421 20.7488C6.77674 20.7697 6.82466 20.8001 6.86568 20.8388C6.90439 20.8798 6.93494 20.9277 6.95566 20.9802C7.02409 21.1397 6.98851 21.3247 6.86568 21.4473C6.82403 21.4852 6.77611 21.5155 6.72421 21.5373C6.67273 21.5593 6.61749 21.571 6.56141 21.5716Z" fill="#FEB644"/>
<path d="M26.7059 6.99974C26.5919 7.00099 26.4822 6.95621 26.4017 6.87565C26.3211 6.79487 26.2763 6.68522 26.2774 6.57117C26.2788 6.45775 26.3232 6.34893 26.4017 6.2669C26.422 6.24869 26.4433 6.23153 26.4655 6.21542C26.4896 6.19931 26.5157 6.18633 26.5431 6.17691C26.5674 6.16457 26.5934 6.15599 26.6203 6.15118C26.6752 6.13841 26.7321 6.13841 26.7869 6.15118C26.8156 6.15515 26.8432 6.16394 26.8687 6.17691C26.8951 6.18549 26.9198 6.19868 26.9418 6.21542C26.9663 6.23028 26.9893 6.24765 27.0102 6.2669C27.0885 6.34914 27.1331 6.45775 27.1345 6.57117C27.1358 6.68522 27.091 6.79487 27.0102 6.87565C26.9296 6.95621 26.82 7.00099 26.7059 6.99974Z" fill="#FEB644"/>
<path d="M24.9872 9.57155C24.8731 9.5728 24.7635 9.52802 24.6829 9.44745C24.6023 9.36668 24.5576 9.25702 24.5586 9.14297C24.5601 9.02955 24.6044 8.92074 24.6829 8.8387C24.7239 8.79999 24.7719 8.76944 24.8244 8.74872C24.901 8.71461 24.9864 8.70561 25.0682 8.72298C25.0968 8.72696 25.1245 8.73575 25.15 8.74872C25.1764 8.7573 25.2011 8.77048 25.223 8.78723C25.2481 8.80439 25.2701 8.82155 25.2915 8.8387C25.3697 8.92095 25.4143 9.02955 25.4158 9.14297C25.417 9.25702 25.3722 9.36668 25.2915 9.44745C25.2109 9.52802 25.1012 9.5728 24.9872 9.57155Z" fill="#FEB644"/>
<path d="M9.99119 27.9999C9.87714 28.001 9.76749 27.9562 9.68692 27.8756C9.64926 27.834 9.6187 27.7861 9.59694 27.7344C9.57288 27.6835 9.56116 27.6276 9.56262 27.5714C9.56325 27.5155 9.57497 27.46 9.59694 27.4085C9.6187 27.3566 9.64905 27.3087 9.68692 27.2671C9.81018 27.1455 9.99454 27.1099 10.154 27.1771C10.2065 27.198 10.2544 27.2284 10.2955 27.2671C10.3333 27.3087 10.3637 27.3566 10.3854 27.4085C10.4313 27.5123 10.4313 27.6306 10.3854 27.7344C10.3637 27.7861 10.3333 27.834 10.2955 27.8756C10.2149 27.9562 10.1052 28.001 9.99119 27.9999Z" fill="#FEB644"/>
<path d="M6.56083 23.7146H6.13226V23.286C6.13226 23.0493 5.94036 22.8574 5.70368 22.8574C5.46701 22.8574 5.27511 23.0493 5.27511 23.286V23.7146H4.84654C4.60986 23.7146 4.41797 23.9065 4.41797 24.1431C4.41797 24.3798 4.60986 24.5717 4.84654 24.5717H5.27511V25.0003C5.27511 25.2369 5.46701 25.4288 5.70368 25.4288C5.94036 25.4288 6.13226 25.2369 6.13226 25.0003V24.5717H6.56083C6.7975 24.5717 6.9894 24.3798 6.9894 24.1431C6.9894 23.9065 6.7975 23.7146 6.56083 23.7146Z" fill="#FEB644"/>
<path d="M24.1311 4.85714H23.7026V4.42857C23.7026 4.19189 23.5107 4 23.274 4C23.0373 4 22.8454 4.19189 22.8454 4.42857V4.85714H22.4169C22.1802 4.85714 21.9883 5.04904 21.9883 5.28571C21.9883 5.52239 22.1802 5.71428 22.4169 5.71428H22.8454V6.14285C22.8454 6.37953 23.0373 6.57142 23.274 6.57142C23.5107 6.57142 23.7026 6.37953 23.7026 6.14285V5.71428H24.1311C24.3678 5.71428 24.5597 5.52239 24.5597 5.28571C24.5597 5.04904 24.3678 4.85714 24.1311 4.85714Z" fill="#FEB644"/>
</svg>
