<svg width="32" height="32" viewBox="0 0 32 32" fill="none" xmlns="http://www.w3.org/2000/svg">
<path d="M20.7775 14.3354L20.3971 13.617C20.5314 13.5479 20.6507 13.4529 20.748 13.3374C20.8454 13.2219 20.9188 13.0883 20.9642 12.9442C20.9654 12.8066 20.9348 12.6705 20.8748 12.5467C20.8147 12.4228 20.7269 12.3146 20.618 12.2303C20.4058 12.0508 20.2384 11.8242 20.1289 11.5687C20.0195 11.3132 19.9711 11.0357 19.9875 10.7582C20.028 10.5146 20.1195 10.2823 20.2559 10.0764C20.3923 9.87054 20.5706 9.69576 20.7791 9.56348L21.2091 10.255L20.9943 9.90965L21.2115 10.2534C20.9993 10.3921 20.8498 10.6083 20.795 10.8558C20.7983 11.0103 20.8357 11.1621 20.9045 11.3005C20.9734 11.4388 21.072 11.5602 21.1932 11.656C21.3965 11.8271 21.5551 12.0451 21.6554 12.2912C21.7556 12.5374 21.7944 12.8042 21.7684 13.0687C21.7037 13.3385 21.5817 13.5913 21.4107 13.8098C21.2398 14.0284 21.0238 14.2076 20.7775 14.3354Z" fill="#201429"/>
<path d="M20.6766 10.322C22.6986 10.322 24.3377 8.68294 24.3377 6.66102C24.3377 4.63909 22.6986 3 20.6766 3C18.6547 3 17.0156 4.63909 17.0156 6.66102C17.0156 8.68294 18.6547 10.322 20.6766 10.322Z" fill="#FEB644"/>
<path d="M22.9423 3.78711C23.4979 4.49042 23.776 5.37325 23.7237 6.26802C23.6714 7.1628 23.2924 8.00722 22.6586 8.64101C22.0248 9.27479 21.1804 9.6538 20.2856 9.70611C19.3908 9.75841 18.508 9.48036 17.8047 8.92474C18.1244 9.33102 18.5266 9.66493 18.9848 9.90445C19.443 10.144 19.9467 10.2837 20.4628 10.3143C20.9789 10.345 21.4957 10.2659 21.979 10.0823C22.4623 9.8987 22.9012 9.61476 23.2668 9.24918C23.6323 8.8836 23.9163 8.44469 24.0999 7.96138C24.2835 7.47807 24.3626 6.96134 24.3319 6.44524C24.3012 5.92914 24.1616 5.4254 23.922 4.96723C23.6825 4.50905 23.3486 4.10684 22.9423 3.78711Z" fill="#FFA921"/>
<path d="M4 22.9321H4.81356V23.7457H4V22.9321Z" fill="#DFD6E5"/>
<path d="M7.25391 23.7456H8.06747V24.5592H7.25391V23.7456Z" fill="#DFD6E5"/>
<path d="M4.40625 26.1865H5.21981V27.0001H4.40625V26.1865Z" fill="#DFD6E5"/>
<path d="M16.6094 26.1865H17.4229V27.0001H16.6094V26.1865Z" fill="#DFD6E5"/>
<path d="M19.0508 22.9321H19.8643V23.7457H19.0508V22.9321Z" fill="#DFD6E5"/>
<path d="M22.7109 24.9663H23.5245V25.7799H22.7109V24.9663Z" fill="#DFD6E5"/>
<path d="M27.1875 26.5933H28.0011V27.4068H27.1875V26.5933Z" fill="#DFD6E5"/>
<path d="M26.3711 23.3389H27.1847V24.1524H26.3711V23.3389Z" fill="#DFD6E5"/>
<path d="M12.7645 15.6232C13.5254 15.6232 14.1422 15.0064 14.1422 14.2454C14.1422 13.4845 13.5254 12.8677 12.7645 12.8677C12.0036 12.8677 11.3867 13.4845 11.3867 14.2454C11.3867 15.0064 12.0036 15.6232 12.7645 15.6232Z" fill="#FDD4BB"/>
<path d="M10.797 17.9854V21.9218L10.4032 28.2204H11.781L12.765 21.9218L13.7494 28.2204H15.1271L14.7334 21.9218V17.5917L19.4573 15.2299L18.2776 14.4424L15.0982 15.502C14.8575 15.5827 14.6053 15.6239 14.3514 15.6241H11.4694C11.0307 15.6241 10.6007 15.7462 10.2275 15.9769C9.85431 16.2075 9.55274 16.5375 9.35655 16.9298L7.25391 21.1347H8.63167L10.797 17.9854Z" fill="#EE6C4D"/>
<path d="M18.8477 5.03369H19.6612V5.84725H18.8477V5.03369Z" fill="#4D4354"/>
<path d="M21.6953 5.03369H22.5089V5.84725H21.6953V5.03369Z" fill="#4D4354"/>
<path d="M20.6784 9.10177C20.1392 9.10112 19.6223 8.88663 19.241 8.50534C18.8597 8.12405 18.6452 7.6071 18.6445 7.06787H19.4581C19.4581 7.39153 19.5867 7.70192 19.8155 7.93078C20.0444 8.15964 20.3548 8.28821 20.6784 8.28821C21.0021 8.28821 21.3125 8.15964 21.5413 7.93078C21.7702 7.70192 21.8988 7.39153 21.8988 7.06787H22.7123C22.7117 7.6071 22.4972 8.12405 22.1159 8.50534C21.7346 8.88663 21.2177 9.10112 20.6784 9.10177Z" fill="#4D4354"/>
</svg>
