<svg width="32" height="32" viewBox="0 0 32 32" fill="none" xmlns="http://www.w3.org/2000/svg">
<path d="M26 30.6249V26.6598C26 22.3156 22.9284 18.6892 18.8385 17.833C17.9917 18.2827 17.0257 18.5379 16 18.5379C14.9743 18.5379 14.0083 18.2827 13.1615 17.833C9.0717 18.6892 6 22.3156 6 26.6598V28.8544L6.5586 30.6248L16 31.1834L26 30.6249Z" fill="#F58B71"/>
<path d="M11.0156 31.7783H20.7341L23.5514 31.2197L25.9994 31.7783V30.625H11.0156L10.457 31.2017L11.0156 31.7783Z" fill="#EE6C4D"/>
<path d="M6 30.6254L8.29747 31.184L10.595 30.6254V28.855H6V30.6254Z" fill="#FDD4BB"/>
<path d="M6 30.625H10.0552L10.6138 31.2016L10.0552 31.7782H6.31034C6.13897 31.7782 6 31.6392 6 31.4679V30.625Z" fill="#FFD3BD"/>
<path d="M19.7604 30.6246L22.6339 31.1832L25.0025 30.6246L20.3493 25.1726C20.3493 25.1726 21.6644 23.3963 20.8444 22.5764C20.0245 21.7564 19.1283 23.0052 19.1283 23.0052C19.1283 23.0052 18.1982 20.9155 16.0025 20.9155C13.6747 20.9155 11.9761 25.3716 16.9467 27.3027L19.7604 30.6246Z" fill="#FDD4BB"/>
<path d="M11.0157 30.625V26.107C11.0157 25.8416 10.8006 25.6265 10.5352 25.6265C10.2698 25.6265 10.0547 25.8416 10.0547 26.107V30.625L10.5352 31.2016L11.0157 30.625Z" fill="#EE6C4D"/>
<path d="M10.0547 30.625H11.0157V31.7783H10.0547V30.625Z" fill="#EE6C4D"/>
<path d="M8.10863 10.3444C8.10863 10.3444 6.36765 7.9989 6.29304 4.60631C6.28889 4.41651 6.45709 4.26879 6.64515 4.29467C7.03406 4.34818 7.68347 4.3938 8.28192 4.23242C10.1107 3.7393 11.9101 0.111106 15.0803 0.00540549C18.2506 -0.100295 18.8653 1.3792 18.8653 1.3792C18.8653 1.3792 20.0316 0.685909 21.7731 0.921267C24.3797 1.2735 26.6693 5.24467 24.3422 10.7L8.10863 10.3444Z" fill="#201429"/>
<path d="M7.23438 11.4153C7.23438 12.5916 8.19052 13.2847 9.03184 13.2847L9.94019 12.4926C9.94019 12.4876 10.7325 11.4204 10.7325 11.4153L9.93982 10.3371C9.67038 10.1889 9.36098 10.1045 9.03178 10.1045C8.19052 10.1044 7.47811 10.655 7.23438 11.4153Z" fill="#FDD4BB"/>
<path d="M9.03199 12.7259C8.19073 12.7259 7.47833 12.1754 7.23459 11.415C7.17631 11.5968 7.14453 11.7905 7.14453 11.9916C7.14453 13.0341 7.98957 13.8791 9.03199 13.8791C9.40346 13.8791 9.74955 13.7714 10.0416 13.5861L10.5364 12.9263L9.94034 12.4923C9.67079 12.6408 9.36144 12.7259 9.03199 12.7259Z" fill="#FFCEBF"/>
<path d="M24.7638 11.4153C24.7638 12.5916 23.8076 13.2847 22.9663 13.2847L22.058 12.4926C22.058 12.4876 21.2656 11.4204 21.2656 11.4153L22.0583 10.3371C22.3278 10.1889 22.6372 10.1045 22.9664 10.1045C23.8076 10.1044 24.52 10.655 24.7638 11.4153Z" fill="#FDD4BB"/>
<path d="M22.9692 12.7259C23.8105 12.7259 24.523 12.1754 24.7667 11.415C24.825 11.5968 24.8567 11.7905 24.8567 11.9916C24.8567 13.0341 24.0117 13.8791 22.9693 13.8791C22.5978 13.8791 22.2517 13.7714 21.9597 13.5861L21.4648 12.9263L22.0609 12.4923C22.3304 12.6408 22.6397 12.7259 22.9692 12.7259Z" fill="#FFCEBF"/>
<path d="M16.002 17.9435C19.3492 17.9435 22.0627 15.5919 22.0627 11.3243V9.58415C22.0627 9.0536 21.8467 8.54316 21.4568 8.18342C20.3252 7.13945 19.0654 5.33336 18.5594 4.57912C18.4432 4.40595 18.1966 4.38981 18.0558 4.54361C15.503 7.33173 12.1962 8.26088 10.7166 8.54992C10.2658 8.638 9.94141 9.03349 9.94141 9.49278V11.3243C9.94128 15.3515 12.6548 17.9435 16.002 17.9435Z" fill="#FDD4BB"/>
<path d="M13.1425 17.8232C13.1367 17.8978 13.1328 17.9728 13.1328 18.0488C13.1328 19.6323 14.4165 20.916 16 20.916C17.5835 20.916 18.8672 19.6323 18.8672 18.0488C18.8672 17.9728 18.8633 17.8977 18.8575 17.8232H13.1425Z" fill="#FFCEBF"/>
<path d="M15.9982 17.3849C12.651 17.3849 9.9375 14.6714 9.9375 11.3242V12.4775C9.9375 15.8247 12.6509 18.5382 15.9982 18.5382C19.3454 18.5382 22.0588 15.8247 22.0588 12.4775V11.3242C22.0589 14.6714 19.3454 17.3849 15.9982 17.3849Z" fill="#FFD3BD"/>
<path d="M19.7578 30.6255L20.7346 31.7788H25.9843L25 30.6255H19.7578Z" fill="#FFD3BD"/>
<path d="M13.3986 10.1699C12.8856 10.6737 12.2771 10.8521 12.2634 10.8561C12.0078 10.9269 11.8574 11.1913 11.9273 11.4474C11.9857 11.6616 12.18 11.8025 12.3919 11.8025C12.4339 11.8025 12.4766 11.797 12.5191 11.7854C12.5536 11.776 13.3721 11.5469 14.0739 10.8575C14.2638 10.671 14.2665 10.3658 14.0801 10.176C13.8936 9.98612 13.5884 9.98327 13.3986 10.1699Z" fill="#201429"/>
<path d="M19.4843 11.7854C19.5267 11.7969 19.5693 11.8025 19.6112 11.8025C19.8222 11.8025 20.0152 11.6624 20.0744 11.4491C20.1454 11.1935 19.9954 10.9283 19.7401 10.8561C19.7339 10.8544 19.121 10.6769 18.6048 10.1698C18.4149 9.9833 18.1098 9.98615 17.9233 10.1759C17.7368 10.3658 17.7395 10.6709 17.9294 10.8574C18.6313 11.5469 19.4498 11.776 19.4843 11.7854Z" fill="#201429"/>
<path d="M16.4583 14.9658C16.4583 15.232 16.6741 15.4477 16.9402 15.4477C17.2064 15.4477 17.4221 15.232 17.4221 14.9658C17.4221 14.0991 16.785 13.394 16.0021 13.394C15.219 13.394 14.582 14.0991 14.582 14.9658C14.582 15.232 14.7978 15.4477 15.0639 15.4477C15.3301 15.4477 15.5458 15.232 15.5458 14.9658C15.5458 14.6363 15.7547 14.3579 16.0021 14.3579C16.2494 14.3578 16.4583 14.6363 16.4583 14.9658Z" fill="#201429"/>
<path d="M7.15184 17.9945C7.49327 17.9945 7.81912 17.8174 8.13467 17.6459C8.37717 17.5141 8.65212 17.3647 8.82982 17.3647C9.20024 17.3647 9.42628 17.5548 9.43572 17.563C9.52267 17.6483 9.64166 17.7011 9.77312 17.7011C10.0393 17.7011 10.255 17.4853 10.255 17.2192C10.255 17.0688 10.1861 16.9346 10.0782 16.8462C10.0077 16.7824 9.55576 16.4009 8.82982 16.4009C8.40708 16.4009 8.0178 16.6125 7.67438 16.7992C7.51282 16.8869 7.24506 17.0354 7.1514 17.0307C6.88588 17.0197 6.66052 17.2252 6.64891 17.4911C6.63724 17.757 6.84337 17.982 7.10926 17.9937C7.12354 17.9942 7.13769 17.9945 7.15184 17.9945Z" fill="#FEB644"/>
<path d="M11.8231 19.9698C11.6692 19.9678 11.1241 19.9932 10.6054 20.4204C10.2799 20.6886 10.1139 21.0987 9.98062 21.4282C9.88081 21.6749 9.99986 21.9558 10.2465 22.0557C10.487 22.1549 10.7743 22.039 10.874 21.7898C10.9616 21.5734 11.0816 21.277 11.2182 21.1644C11.5042 20.9289 11.804 20.9323 11.804 20.9323C12.0775 20.9479 12.3096 20.725 12.3087 20.4515C12.3087 20.1968 12.1109 19.9888 11.8607 19.9713C11.8607 19.9714 11.8268 19.9695 11.8231 19.9698Z" fill="#FEB644"/>
<path d="M24.8532 17.9945C24.5117 17.9945 24.1859 17.8174 23.8703 17.6459C23.6278 17.5141 23.3529 17.3647 23.1752 17.3647C22.8048 17.3647 22.5787 17.5548 22.5693 17.563C22.4823 17.6483 22.3633 17.7011 22.2319 17.7011C21.9657 17.7011 21.75 17.4853 21.75 17.2192C21.75 17.0688 21.8189 16.9346 21.9268 16.8462C21.9973 16.7824 22.4492 16.4009 23.1752 16.4009C23.5979 16.4009 23.9872 16.6125 24.3306 16.7992C24.4922 16.8869 24.7599 17.0354 24.8536 17.0307C25.1191 17.0197 25.3445 17.2252 25.3561 17.4911C25.3678 17.757 25.1616 17.982 24.8957 17.9937C24.8815 17.9942 24.8673 17.9945 24.8532 17.9945Z" fill="#FEB644"/>
<path d="M20.5794 19.9698C20.7333 19.9678 21.2784 19.9932 21.7971 20.4204C22.1226 20.6886 22.2886 21.0987 22.4219 21.4282C22.5217 21.6749 22.4027 21.9558 22.156 22.0557C21.9156 22.1549 21.6282 22.039 21.5285 21.7898C21.4409 21.5734 21.3209 21.277 21.1843 21.1644C20.8983 20.9289 20.5985 20.9323 20.5985 20.9323C20.325 20.9479 20.0929 20.725 20.0938 20.4515C20.0938 20.1968 20.2916 19.9888 20.5418 19.9713C20.5418 19.9714 20.5757 19.9695 20.5794 19.9698Z" fill="#FEB644"/>
</svg>
