<svg width="32" height="32" viewBox="0 0 32 32" fill="none" xmlns="http://www.w3.org/2000/svg">
<path d="M23.999 11.49C23.993 10.667 23.325 10 22.5 10C21.672 10 21 10.671 21 11.5C21 12.329 21.672 13 22.5 13C22.774 13 23.027 12.921 23.248 12.793C24.795 13.857 25.75 15.627 25.75 17.5C25.75 17.914 26.086 18.25 26.5 18.25C26.914 18.25 27.25 17.914 27.25 17.5C27.25 15.095 26.006 12.824 23.999 11.49Z" fill="#FEB644"/>
<path d="M21.204 10.7451C21.074 10.9661 21 11.2241 21 11.5001C21 12.3291 21.672 13.0001 22.5 13.0001C22.774 13.0001 23.027 12.9211 23.248 12.7931C24.795 13.8571 25.75 15.6271 25.75 17.5001C25.75 17.9141 26.086 18.2501 26.5 18.2501C26.515 18.2501 26.53 18.2501 26.544 18.2491C26.752 14.6971 24.161 11.7351 21.204 10.7451Z" fill="#FFA921"/>
<path d="M20.2501 28H11.7501C11.3801 28 11.0651 27.73 11.0091 27.364L10.0091 20.864C9.93807 20.407 10.2931 20 10.7501 20H21.25C21.707 20 22.062 20.407 21.991 20.864L20.991 27.364C20.935 27.73 20.6201 28 20.2501 28Z" fill="#201429"/>
<path d="M16 12C13.794 12 12 10.206 12 8C12 5.794 13.794 4 16 4C18.206 4 20 5.794 20 8C20 10.206 18.206 12 16 12Z" fill="#F58B71"/>
<path d="M23.9417 17C23.5817 14.74 21.6217 13 19.2517 13H12.7517C10.3817 13 8.42172 14.74 8.06172 17C8.03272 17.17 8.02172 17.33 8.01172 17.5H23.9917C23.9817 17.33 23.9717 17.17 23.9417 17Z" fill="#F58B71"/>
<path d="M27.9611 18.01L25.9611 23.51C25.8511 23.8 25.5711 24 25.2511 24H6.75117C6.43118 24 6.15118 23.8 6.04118 23.51L4.04118 18.01C3.87718 17.538 4.22118 17 4.75118 17H27.2511C27.7811 17 28.1251 17.538 27.9611 18.01Z" fill="#4D4354"/>
<path d="M16.0012 24H10.4922L11.0102 27.364C11.0662 27.73 11.3812 28 11.7512 28H16.0012V24Z" fill="#4D4354"/>
<path d="M16 4C13.794 4 12 5.794 12 8C12 10.206 13.794 12 16 12V4Z" fill="#EE6C4D"/>
<path d="M15.9986 13H12.7486C10.3786 13 8.41859 14.74 8.05859 17H15.9986V13Z" fill="#EE6C4D"/>
<path d="M16.0012 17H8.06118H4.75118C4.22118 17 3.87718 17.538 4.04118 18.01L6.04118 23.51C6.15118 23.8 6.43118 24 6.75118 24H10.4922H16.0012V17Z" fill="#201429"/>
</svg>
