<svg width="32" height="32" viewBox="0 0 32 32" fill="none" xmlns="http://www.w3.org/2000/svg">
<path d="M27.8195 18.8126L21.1698 25.1749L15.543 25.6441L12.9648 25.8593L13.2461 22.0783L15.543 21.6452L19.2353 20.9491L19.3717 20.8282L22.3488 18.1868C23.5816 17.0552 25.518 16.7988 27.2542 18.318L27.8195 18.8126Z" fill="#FDD4BB"/>
<path d="M27.8195 18.8126L21.1698 25.1749L15.543 25.6441V21.6452L19.2353 20.9491L19.3717 20.8282L22.3488 18.1868C23.5816 17.0552 25.518 16.7988 27.2542 18.318L27.8195 18.8126Z" fill="#F9B5A1"/>
<path d="M23.2813 22.3185V22.3626C23.2813 23.1393 22.6517 23.7689 21.875 23.7689C21.6725 23.7689 20.787 23.7689 20.6216 23.7674C20.5897 23.7674 20.5583 23.7674 20.5273 23.767C19.1802 23.7604 18.9908 23.7065 17.9178 23.3798C17.398 23.2214 16.6775 23.0015 15.545 22.701C15.1789 22.604 14.7702 22.4985 14.3113 22.3837C14.0722 23.3409 14.0727 23.3353 13.97 23.7478C14.5794 23.9001 15.0988 24.036 15.545 24.157C16.4506 24.4026 17.0567 24.5878 17.5081 24.7251C18.8605 25.1371 19.0466 25.1751 21.1719 25.1751C19.2444 26.5917 18.2239 28.237 15.545 27.9717C14.4059 27.8592 12.9669 27.4007 11.0309 26.4328C9.37672 25.6059 7.55281 25.1751 5.70313 25.1751H5V19.9153C10.7919 16.8037 12.7531 18.2399 15.545 19.5853C16.6128 20.0995 17.802 20.6006 19.3738 20.8284C19.9227 20.9076 20.5184 20.9545 21.1719 20.9564H21.9191C22.6714 20.9564 23.2813 21.5662 23.2813 22.3185Z" fill="#FDD4BB"/>
<path d="M17.5061 24.7254C18.8584 25.1374 19.0445 25.1754 21.1698 25.1754C19.2423 26.5919 18.2219 28.2372 15.543 27.9719V24.1572C16.4486 24.4029 17.0547 24.588 17.5061 24.7254Z" fill="#FDD4BB"/>
<path d="M23.2792 22.3187V22.3628C23.2792 23.1395 22.6497 23.769 21.873 23.769C21.6705 23.769 20.785 23.769 20.6195 23.7676C20.5877 23.7676 20.5563 23.7676 20.5253 23.7672C19.1781 23.7606 18.9888 23.7067 17.9158 23.38C17.3959 23.2215 16.6755 23.0017 15.543 22.7012V19.5854C16.6108 20.0997 17.8 20.6008 19.3717 20.8286C19.9206 20.9078 20.5164 20.9547 21.1698 20.9565H21.917C22.6694 20.9565 23.2792 21.5664 23.2792 22.3187Z" fill="#FDD4BB"/>
<path d="M18.3555 6.8125V7.51563H16.9492V6.8125C16.9492 6.03719 16.3183 5.40625 15.543 5.40625C14.7677 5.40625 14.1367 6.03719 14.1367 6.8125V7.51563H12.7305V6.8125C12.7305 5.26188 13.9923 4 15.543 4C17.0936 4 18.3555 5.26188 18.3555 6.8125Z" fill="#4D4354"/>
<path d="M18.3555 6.8125V7.51563H16.9492V6.8125C16.9492 6.03719 16.3183 5.40625 15.543 5.40625V4C17.0936 4 18.3555 5.26188 18.3555 6.8125Z" fill="#201429"/>
<path d="M9.21484 9.625H21.8711V16.6563H9.21484V9.625Z" fill="#F58B71"/>
<path d="M15.543 9.625H21.8711V16.6563H15.543V9.625Z" fill="#EE6C4D"/>
<path d="M14.8398 11.7344H16.2461V13.8438H14.8398V11.7344Z" fill="#FFA921"/>
<path d="M15.543 11.7344H16.2461V13.8438H15.543V11.7344Z" fill="#FEB644"/>
<path d="M9.21484 6.8125V9.625C9.21484 11.8127 13.3084 12.4375 15.543 12.4375C17.7677 12.4375 21.8711 11.8159 21.8711 9.625V6.8125H9.21484Z" fill="#201429"/>
<path d="M21.8711 6.8125V9.625C21.8711 11.8159 17.7677 12.4375 15.543 12.4375V6.8125H21.8711Z" fill="#4D4354"/>
</svg>
