<svg width="32" height="32" viewBox="0 0 32 32" fill="none" xmlns="http://www.w3.org/2000/svg">
<path d="M17.85 5.2V12.6C17.85 13.25 17.3 13.8 16.65 13.8H10.3L5.59998 16.25V13.8H5.2C4.54998 13.8 4 13.25 4 12.6V5.2C4 4.54998 4.54998 4 5.2 4H16.7C17.35 4 17.85 4.54998 17.85 5.2Z" fill="#F58B71"/>
<path d="M7.2492 10.2001C7.96716 10.2001 8.54919 9.61804 8.54919 8.90008C8.54919 8.18212 7.96716 7.6001 7.2492 7.6001C6.53124 7.6001 5.94922 8.18212 5.94922 8.90008C5.94922 9.61804 6.53124 10.2001 7.2492 10.2001Z" fill="white"/>
<path d="M10.9484 10.2001C11.6664 10.2001 12.2484 9.61804 12.2484 8.90008C12.2484 8.18212 11.6664 7.6001 10.9484 7.6001C10.2305 7.6001 9.64844 8.18212 9.64844 8.90008C9.64844 9.61804 10.2305 10.2001 10.9484 10.2001Z" fill="white"/>
<path d="M14.6515 10.2001C15.3695 10.2001 15.9515 9.61804 15.9515 8.90008C15.9515 8.18212 15.3695 7.6001 14.6515 7.6001C13.9336 7.6001 13.3516 8.18212 13.3516 8.90008C13.3516 9.61804 13.9336 10.2001 14.6515 10.2001Z" fill="white"/>
<path d="M14.1484 8.1502V15.5002C14.1484 16.1502 14.6984 16.7002 15.3484 16.7002H21.7484L26.4484 19.1502V16.7002H26.7985C27.4485 16.7002 27.9985 16.1502 27.9985 15.5002V8.1502C27.9985 7.50018 27.4485 6.9502 26.7985 6.9502H15.2985C14.6485 6.9502 14.1484 7.50023 14.1484 8.1502Z" fill="#FFA921"/>
<path d="M24.7531 13.1498C25.4711 13.1498 26.0531 12.5678 26.0531 11.8498C26.0531 11.1318 25.4711 10.5498 24.7531 10.5498C24.0351 10.5498 23.4531 11.1318 23.4531 11.8498C23.4531 12.5678 24.0351 13.1498 24.7531 13.1498Z" fill="white"/>
<path d="M21.05 13.1498C21.7679 13.1498 22.35 12.5678 22.35 11.8498C22.35 11.1318 21.7679 10.5498 21.05 10.5498C20.332 10.5498 19.75 11.1318 19.75 11.8498C19.75 12.5678 20.332 13.1498 21.05 13.1498Z" fill="white"/>
<path d="M17.3508 13.1498C18.0687 13.1498 18.6508 12.5678 18.6508 11.8498C18.6508 11.1318 18.0687 10.5498 17.3508 10.5498C16.6328 10.5498 16.0508 11.1318 16.0508 11.8498C16.0508 12.5678 16.6328 13.1498 17.3508 13.1498Z" fill="white"/>
<path d="M21.4008 16.9998V24.3998C21.4008 25.0498 20.8508 25.5998 20.2008 25.5998H16.2508L14.4508 27.9998L12.6508 25.5498H8.75078C8.10077 25.5498 7.55078 24.9998 7.55078 24.3498V16.9998C7.55078 16.3498 8.10077 15.7998 8.75078 15.7998H20.2508C20.9008 15.7998 21.4008 16.3498 21.4008 16.9998Z" fill="#BD80E1"/>
<path d="M18.1515 21.9999C18.8695 21.9999 19.4515 21.4178 19.4515 20.6999C19.4515 19.9819 18.8695 19.3999 18.1515 19.3999C17.4336 19.3999 16.8516 19.9819 16.8516 20.6999C16.8516 21.4178 17.4336 21.9999 18.1515 21.9999Z" fill="white"/>
<path d="M14.4992 21.9999C15.2172 21.9999 15.7992 21.4178 15.7992 20.6999C15.7992 19.9819 15.2172 19.3999 14.4992 19.3999C13.7812 19.3999 13.1992 19.9819 13.1992 20.6999C13.1992 21.4178 13.7812 21.9999 14.4992 21.9999Z" fill="white"/>
<path d="M10.8 21.9999C11.5179 21.9999 12.1 21.4178 12.1 20.6999C12.1 19.9819 11.5179 19.3999 10.8 19.3999C10.082 19.3999 9.5 19.9819 9.5 20.6999C9.5 21.4178 10.082 21.9999 10.8 21.9999Z" fill="white"/>
</svg>
