<svg width="32" height="32" viewBox="0 0 32 32" fill="none" xmlns="http://www.w3.org/2000/svg">
<path d="M19.901 6.40039H18.5352C18.341 6.40039 18.1836 6.24303 18.1836 6.04883C18.1836 5.85462 18.341 5.69727 18.5352 5.69727H19.901C20.0952 5.69727 20.2526 5.85462 20.2526 6.04883C20.2526 6.24303 20.0952 6.40039 19.901 6.40039Z" fill="#DFD6E5"/>
<path d="M13.4635 6.40039H12.0977C11.9035 6.40039 11.7461 6.24303 11.7461 6.04883C11.7461 5.85462 11.9035 5.69727 12.0977 5.69727H13.4635C13.6577 5.69727 13.8151 5.85462 13.8151 6.04883C13.8151 6.24303 13.6577 6.40039 13.4635 6.40039Z" fill="#DFD6E5"/>
<path d="M12.0977 17.707V19.3655C12.0977 19.7427 12.4034 20.0484 12.7806 20.0484H19.2196C19.5968 20.0484 19.9025 19.7427 19.9025 19.3655V17.707C19.9025 16.8449 19.2037 16.146 18.3415 16.146H13.6586C12.7965 16.146 12.0977 16.8449 12.0977 17.707Z" fill="#F58B71"/>
<path d="M18.3424 16.146H16.9766C17.8387 16.146 18.5375 16.8449 18.5375 17.707V20.0484H19.2205C19.5976 20.0484 19.9034 19.7427 19.9034 19.3655V17.707C19.9034 16.8449 19.2045 16.146 18.3424 16.146Z" fill="#EE6C4D"/>
<path d="M16.0015 16.1462C17.3486 16.1462 18.4406 15.0542 18.4406 13.7071C18.4406 12.3601 17.3486 11.2681 16.0015 11.2681C14.6545 11.2681 13.5625 12.3601 13.5625 13.7071C13.5625 15.0542 14.6545 16.1462 16.0015 16.1462Z" fill="#FDD4BB"/>
<path d="M17.1472 11.5542C17.3297 11.8961 17.4334 12.2863 17.4334 12.7009C17.4334 14.0479 16.3414 15.1399 14.9944 15.1399C14.5797 15.1399 14.1895 15.0362 13.8477 14.8537C14.2581 15.6226 15.068 16.1461 16.0004 16.1461C17.3475 16.1461 18.4395 15.0541 18.4395 13.707C18.4395 12.7745 17.9161 11.9646 17.1472 11.5542Z" fill="#F9B5A1"/>
<path d="M16.5448 27.8023C16.2299 28.0659 15.7722 28.0659 15.4572 27.8023C14.6108 27.0939 13.0742 25.6358 13.0742 24.3857C13.0742 23.5349 13.7639 22.8452 14.6147 22.8452C15.2244 22.8452 15.7546 23.1995 16.001 23.7079C16.2475 23.1995 16.7777 22.8452 17.3874 22.8452C18.2382 22.8452 18.9279 23.5349 18.9279 24.3857C18.9279 25.6357 17.3913 27.0939 16.5448 27.8023Z" fill="#F58B71"/>
<path d="M17.4368 22.8467C17.5623 23.0697 17.6343 23.3269 17.6343 23.601C17.6343 24.8511 16.0977 26.3093 15.2513 27.0177C15.1171 27.13 14.9569 27.194 14.793 27.2106C15.0318 27.4393 15.2614 27.6406 15.4547 27.8025C15.7697 28.0661 16.2274 28.0661 16.5423 27.8025C17.3888 27.0941 18.9254 25.6359 18.9254 24.3858C18.9253 23.5525 18.2635 22.8741 17.4368 22.8467Z" fill="#EE6C4D"/>
<path d="M12.6836 7.70729V4.39023C12.6836 4.1747 12.8583 4 13.0738 4H13.8543C14.0698 4 14.2445 4.1747 14.2445 4.39023V7.70729C14.2445 7.92283 14.0698 8.09753 13.8543 8.09753H13.0738C12.8583 8.09758 12.6836 7.92283 12.6836 7.70729Z" fill="#DFD6E5"/>
<path d="M19.3188 7.70729V4.39023C19.3188 4.1747 19.144 4 18.9285 4H18.148C17.9325 4 17.7578 4.1747 17.7578 4.39023V7.70729C17.7578 7.92283 17.9325 8.09753 18.148 8.09753H18.9285C19.144 8.09758 19.3188 7.92283 19.3188 7.70729Z" fill="#C2B0CF"/>
<path d="M17.7578 6.78027H14.2456V5.31684H17.7578V6.78027Z" fill="#4D4354"/>
<path d="M24.0033 12.439H27.418C27.7412 12.439 28.0033 12.701 28.0033 13.0243V18.0975H23.418V13.0243C23.4179 12.701 23.68 12.439 24.0033 12.439Z" fill="#FEB644"/>
<path d="M23.418 18.0977H28.0034V18.9757C28.0034 19.299 27.7413 19.5611 27.418 19.5611H24.0033C23.68 19.5611 23.418 19.299 23.418 18.9757V18.0977H23.418Z" fill="#BD80E1"/>
<path d="M27.4169 12.439H26.3438C26.667 12.439 26.9291 12.701 26.9291 13.0243V18.0975H28.0023V13.0243C28.0023 12.701 27.7402 12.439 27.4169 12.439Z" fill="#FFA921"/>
<path d="M26.9291 18.0977V18.9757C26.9291 19.299 26.667 19.5611 26.3438 19.5611H27.4169C27.7402 19.5611 28.0023 19.299 28.0023 18.9757V18.0977H26.9291Z" fill="#AF66DA"/>
<path d="M6.34145 19.5609C7.6346 19.5609 8.6829 17.9666 8.6829 15.9999C8.6829 14.0333 7.6346 12.439 6.34145 12.439C5.0483 12.439 4 14.0333 4 15.9999C4 17.9666 5.0483 19.5609 6.34145 19.5609Z" fill="#FEB644"/>
<path d="M7.06991 12.7915C7.38523 13.5075 7.56983 14.4049 7.37239 15.3015C7.01994 16.902 5.56212 17.9934 4.73047 18.2348C5.27511 19.0432 5.98442 19.5607 6.34245 19.5607C6.97114 19.5607 8.6839 17.9664 8.6839 15.9998C8.68386 14.5874 7.80064 13.3673 7.06991 12.7915Z" fill="#FFA921"/>
<path d="M7.63643 11.3229C7.57465 11.3229 7.51207 11.3066 7.45531 11.2725C7.289 11.1722 7.23546 10.9562 7.33564 10.7899C8.14132 9.4531 9.26351 8.30359 10.581 7.46565C10.7448 7.36136 10.9622 7.40978 11.0663 7.57361C11.1706 7.73743 11.1222 7.95475 10.9584 8.05895C9.73217 8.8389 8.6877 9.90873 7.93784 11.1528C7.87189 11.2623 7.75559 11.3229 7.63643 11.3229Z" fill="#DFD6E5"/>
<path d="M24.3638 11.3225C24.2446 11.3225 24.1284 11.2619 24.0624 11.1523C23.3125 9.90822 22.2681 8.83839 21.0418 8.05844C20.878 7.95424 20.8297 7.73697 20.9339 7.5731C21.038 7.40927 21.2553 7.36089 21.4192 7.46514C22.7367 8.30308 23.8589 9.4526 24.6646 10.7894C24.7648 10.9556 24.7112 11.1717 24.5449 11.272C24.4882 11.3062 24.4256 11.3225 24.3638 11.3225Z" fill="#DFD6E5"/>
<path d="M21.2308 24.5895C21.1146 24.5895 21.0009 24.5319 20.9339 24.4266C20.8296 24.2628 20.878 24.0455 21.0418 23.9413C22.268 23.1613 23.3125 22.0915 24.0624 20.8474C24.1627 20.681 24.3787 20.6276 24.545 20.7277C24.7113 20.828 24.7648 21.044 24.6646 21.2103C23.8589 22.5471 22.7368 23.6966 21.4193 24.5345C21.3607 24.5718 21.2954 24.5895 21.2308 24.5895Z" fill="#DFD6E5"/>
<path d="M10.7694 24.5895C10.7048 24.5895 10.6395 24.5717 10.581 24.5345C9.26353 23.6966 8.1413 22.5471 7.33566 21.2103C7.23544 21.044 7.28902 20.828 7.45533 20.7277C7.62164 20.6276 7.83769 20.681 7.93791 20.8474C8.68772 22.0915 9.73219 23.1613 10.9584 23.9413C11.1223 24.0455 11.1706 24.2627 11.0664 24.4266C10.9994 24.5319 10.8856 24.5895 10.7694 24.5895Z" fill="#DFD6E5"/>
<path d="M18.3437 18.7217C18.1495 18.7217 17.9922 18.879 17.9922 19.0732V20.0489H18.6953V19.0732C18.6953 18.879 18.538 18.7217 18.3437 18.7217Z" fill="#EE6C4D"/>
<path d="M13.6602 18.7217C13.466 18.7217 13.3086 18.879 13.3086 19.0732V20.0489H14.0117V19.0732C14.0117 18.879 13.8543 18.7217 13.6602 18.7217Z" fill="#EE6C4D"/>
<path d="M6.693 16.4296V15.5707C6.88247 15.5653 7.03444 15.4105 7.03444 15.2197C7.03444 15.0289 6.88247 14.874 6.693 14.8686V14.6831C6.693 14.4889 6.53564 14.3315 6.34144 14.3315C6.14723 14.3315 5.98987 14.4889 5.98987 14.6831V14.8686C5.80041 14.874 5.64844 15.0289 5.64844 15.2197C5.64844 15.4105 5.80041 15.5653 5.98987 15.5707V16.4296C5.80041 16.435 5.64844 16.5899 5.64844 16.7807C5.64844 16.9714 5.80041 17.1263 5.98987 17.1317V17.3172C5.98987 17.5114 6.14723 17.6688 6.34144 17.6688C6.53564 17.6688 6.693 17.5114 6.693 17.3172V17.1317C6.88247 17.1263 7.03444 16.9714 7.03444 16.7807C7.03444 16.5899 6.88247 16.435 6.693 16.4296Z" fill="#E6F7FE"/>
</svg>
