<svg width="32" height="32" viewBox="0 0 32 32" fill="none" xmlns="http://www.w3.org/2000/svg">
<path d="M10.4098 15.3589C9.95419 15.1743 9.63281 14.7273 9.63281 14.2052V11.7531C9.63281 11.2378 9.94588 10.7956 10.3921 10.6068C10.5408 10.5438 11.6603 10.6017 11.6603 11.7531V14.2052C11.6604 15.3893 10.5538 15.4172 10.4098 15.3589Z" fill="#FDD4BB"/>
<path d="M10.8763 10.5093C10.7114 10.5093 10.5541 10.5417 10.4102 10.6C10.8657 10.7846 11.1872 11.2313 11.1872 11.7534V14.2055C11.1872 14.7276 10.8657 15.1742 10.4102 15.3588C10.5541 15.4171 10.7114 15.4495 10.8763 15.4495C11.5628 15.4495 12.1194 14.8925 12.1194 14.2055L12.5783 12.9794L12.1194 11.7534C12.1194 11.0663 11.5629 10.5093 10.8763 10.5093Z" fill="#F9B5A1"/>
<path d="M12.898 15.9213C12.4425 15.7369 12.1211 15.2902 12.1211 14.7685V10.6165C12.1211 10.1016 12.4342 9.65978 12.8803 9.47105C13.0291 9.40814 14.1486 9.4659 14.1486 10.6165V14.7685C14.1486 15.9257 13.042 15.9796 12.898 15.9213Z" fill="#FDD4BB"/>
<path d="M13.3606 9.37305C13.1958 9.37305 13.0385 9.40542 12.8945 9.46374C13.3501 9.64819 13.6716 10.0945 13.6716 10.6162V14.7682C13.6716 15.2899 13.3501 15.7363 12.8945 15.9207C13.0385 15.979 13.1957 16.0114 13.3606 16.0114C14.0473 16.0114 14.6038 15.4548 14.6038 14.7683L15.0626 12.6922L14.6038 10.6162C14.6038 9.92965 14.0473 9.37305 13.3606 9.37305Z" fill="#F9B5A1"/>
<path d="M16.633 15.5689C16.633 16.727 15.5264 16.7809 15.3824 16.7226C14.9268 16.538 14.6055 16.091 14.6055 15.5689V9.83269C14.6055 9.31738 14.9185 8.87523 15.3647 8.6864C15.5134 8.62343 16.633 8.68125 16.633 9.83269V15.5689Z" fill="#FDD4BB"/>
<path d="M15.8489 8.58838C15.6841 8.58838 15.5268 8.6208 15.3828 8.67912C15.8384 8.86367 16.1599 9.31037 16.1599 9.83246V15.5686C16.1599 16.0907 15.8384 16.5374 15.3828 16.722C15.5268 16.7803 15.6841 16.8127 15.8489 16.8127C16.5355 16.8127 17.0921 16.2557 17.0921 15.5686L17.5509 12.6923L17.0921 9.83246C17.0921 9.14534 16.5355 8.58838 15.8489 8.58838Z" fill="#F9B5A1"/>
<path d="M17.8707 16.3707C17.4153 16.1879 17.0938 15.7423 17.0938 15.2215V8.92158C17.0938 8.40887 17.4055 7.96896 17.8497 7.78104C17.9978 7.71839 19.1212 7.77589 19.1212 8.92158V15.2215C19.1213 16.375 18.0131 16.4279 17.8707 16.3707Z" fill="#FDD4BB"/>
<path d="M18.3426 7.68359H18.3319C18.169 7.68359 18.0135 7.71541 17.8711 7.77255C18.3265 7.95537 18.6481 8.40069 18.6481 8.9214V15.2214C18.6481 15.7421 18.3265 16.1874 17.8711 16.3702C18.0135 16.4274 18.1689 16.4592 18.3319 16.4592H18.3426C19.0262 16.4592 19.5804 15.905 19.5804 15.2214V8.9214C19.5804 8.2378 19.0262 7.68359 18.3426 7.68359Z" fill="#F9B5A1"/>
<path d="M19.7614 11.438H19.288H17.0918H16.0748C15.7111 11.438 15.4162 11.7444 15.4162 12.1224C15.4179 12.2212 15.4203 12.3264 15.4557 12.5087C15.6004 13.2104 16.1316 13.7758 16.8304 13.9252L17.0918 13.981L19.5781 14.5125V14.7565C19.5781 15.4436 19.0215 16.0006 18.3349 16.0006C17.6484 16.0006 17.0918 15.4436 17.0918 14.7565V14.7628V14.8201V15.1103C17.0918 15.7973 16.5352 16.3543 15.8486 16.3543C15.162 16.3543 14.6055 15.7974 14.6055 15.1103V14.3099C14.6055 14.9965 14.0488 15.5531 13.3623 15.5531C12.6757 15.5531 12.1191 14.9965 12.1191 14.3099V13.9811L12.1008 13.9589C12.0001 14.5448 11.4903 14.9909 10.876 14.9909C10.1894 14.9909 9.63281 14.4339 9.63281 13.7468V17.5945C9.63281 17.5945 9.63281 20.516 11.2957 22.4999C11.6675 22.9435 11.8783 23.5082 11.8783 24.0966V25.7802L15.3825 26.6979L18.6459 25.7802L19.1193 25.3214V24.0833C19.1193 23.6903 19.2578 23.3097 19.5122 23.0103C20.1055 22.3118 21.1913 20.8438 21.4752 19.1706C22.0916 15.5381 22.415 11.438 19.7614 11.438Z" fill="#FDD4BB"/>
<path d="M20.2188 11.438H19.2865C21.9402 11.438 21.6168 15.5381 21.0004 19.1704C20.7165 20.8436 19.6308 21.8456 19.0374 22.544C18.7831 22.8435 18.6445 23.2241 18.6445 23.617V25.7801L19.0971 26.2389L19.5768 25.7801V24.0831C19.5768 23.6902 19.7153 23.3096 19.9697 23.0102C20.563 22.3117 21.6488 20.8436 21.9327 19.1704C22.549 15.5381 22.8724 11.438 20.2188 11.438Z" fill="#F9B5A1"/>
<path d="M11.4258 26.0388V28.8432C11.4258 28.9862 11.5417 29.1021 11.6847 29.1021H19.0986L19.572 28.6433V26.2386L19.0986 25.7798H11.6847C11.5417 25.7798 11.4258 25.8957 11.4258 26.0388Z" fill="#F58B71"/>
<path d="M19.1016 25.7798V29.1021H19.7748C19.9178 29.1021 20.0337 28.9862 20.0337 28.8432V26.0388C20.0337 25.8958 19.9178 25.7798 19.7748 25.7798H19.1016V25.7798Z" fill="#EE6C4D"/>
<path d="M19.2969 14.4521L19.0064 15.5679C18.2969 15.8076 16.1272 16.7307 15.0627 19.3143C14.9849 19.5032 15.0548 19.7283 15.2363 19.822C15.2942 19.852 15.3554 19.8659 15.4154 19.8659C15.5685 19.8659 15.7135 19.7749 15.7751 19.6245C16.8751 16.936 19.3981 16.2586 19.4226 16.2523C19.5601 16.2177 19.6677 16.1108 19.7035 15.9736L19.9892 14.8765C20.0263 14.7337 19.9369 14.5888 19.7926 14.558L19.2969 14.4521Z" fill="#F9B5A1"/>
<path d="M15.9986 6.05353C16.2135 6.05353 16.3877 5.87928 16.3877 5.66434V3.38919C16.3877 3.17425 16.2135 3 15.9986 3C15.7836 3 15.6094 3.17425 15.6094 3.38919V5.66434C15.6094 5.87928 15.7836 6.05353 15.9986 6.05353Z" fill="#FEB644"/>
<path d="M6.66429 14.6108H4.38919C4.1742 14.6108 4 14.7851 4 15C4 15.215 4.1742 15.3892 4.38919 15.3892H6.66434C6.87933 15.3892 7.05353 15.215 7.05353 15C7.05348 14.7851 6.87928 14.6108 6.66429 14.6108Z" fill="#FEB644"/>
<path d="M27.6097 14.6108H25.3345C25.1195 14.6108 24.9453 14.7851 24.9453 15C24.9453 15.215 25.1195 15.3892 25.3345 15.3892H27.6097C27.8246 15.3892 27.9988 15.215 27.9988 15C27.9988 14.7851 27.8246 14.6108 27.6097 14.6108Z" fill="#FEB644"/>
<path d="M24.484 6.51486C24.332 6.36289 24.0856 6.36289 23.9336 6.51486L22.3248 8.12365C21.9795 8.49902 22.4945 9.01795 22.8752 8.67404L24.484 7.06524C24.636 6.91322 24.636 6.66683 24.484 6.51486Z" fill="#FEB644"/>
<path d="M25.8433 11.1448C25.7649 10.9446 25.5389 10.846 25.339 10.9244L24.5527 11.2324C24.0847 11.4456 24.3507 12.1233 24.8366 11.9571L25.6229 11.6491C25.823 11.5707 25.9217 11.3449 25.8433 11.1448Z" fill="#FEB644"/>
<path d="M19.2668 6.6702C19.4171 6.74295 19.7029 6.65521 19.7712 6.44981L20.0882 5.64065C20.1666 5.44055 20.0679 5.2147 19.8678 5.1363C19.6675 5.05789 19.4419 5.15659 19.3635 5.35668L19.0465 6.16585C18.968 6.36595 19.0667 6.59179 19.2668 6.6702Z" fill="#FEB644"/>
<path d="M12.2307 6.44974C12.4414 6.9313 13.1187 6.63368 12.9554 6.16583L12.6384 5.35667C12.5599 5.15652 12.3343 5.05792 12.134 5.13628C11.9339 5.21469 11.8352 5.44053 11.9136 5.64063L12.2307 6.44974Z" fill="#FEB644"/>
<path d="M9.67555 8.67404C9.82753 8.52206 9.82753 8.27562 9.67555 8.12365L8.06676 6.51486C7.91474 6.36289 7.66835 6.36289 7.51632 6.51486C7.36435 6.66683 7.36435 6.91327 7.51632 7.06524L9.12512 8.67404C9.2596 8.80439 9.50451 8.83926 9.67555 8.67404Z" fill="#FEB644"/>
<path d="M7.4503 11.2324L6.66403 10.9244C6.46393 10.846 6.23809 10.9447 6.15973 11.1448C6.08132 11.3449 6.18002 11.5707 6.38017 11.6491L7.16644 11.9571C7.21309 11.9754 7.26106 11.9841 7.30827 11.9841C7.46376 11.9841 7.61059 11.8903 7.67074 11.7368C7.7491 11.5366 7.65045 11.3108 7.4503 11.2324Z" fill="#FEB644"/>
</svg>
