<svg width="32" height="32" viewBox="0 0 32 32" fill="none" xmlns="http://www.w3.org/2000/svg">
<path d="M20.2148 27.9998H10.5781V15.1509H21.821L24.6317 22.7799H22.2225V25.9922C22.2225 26.5246 22.011 27.0353 21.6345 27.4118C21.2579 27.7883 20.7473 27.9998 20.2148 27.9998Z" fill="#F9B5A1"/>
<path d="M21.5148 12.607C21.3225 12.3402 21.0531 12.1386 20.7429 12.0293C20.9708 11.689 21.0601 11.2746 20.9925 10.8706C20.9249 10.4667 20.7055 10.1039 20.3793 9.85636C20.053 9.60883 19.6445 9.4953 19.2373 9.53899C18.8301 9.58269 18.455 9.78031 18.1887 10.0914C18.1298 9.60437 17.8946 9.15574 17.5274 8.83031C17.1603 8.50489 16.6867 8.3252 16.1961 8.3252C15.7055 8.3252 15.2319 8.50489 14.8647 8.83031C14.4976 9.15574 14.2624 9.60437 14.2035 10.0914C13.9368 9.78149 13.5619 9.58494 13.1553 9.54184C12.7487 9.49875 12.341 9.61235 12.0153 9.85948C11.6895 10.1066 11.4703 10.4687 11.4023 10.8719C11.3343 11.2751 11.4226 11.689 11.6493 12.0293C11.2913 12.1547 10.9893 12.4028 10.7967 12.7296C10.6041 13.0563 10.5333 13.4407 10.597 13.8147C10.6607 14.1886 10.8546 14.5279 11.1445 14.7725C11.4344 15.0172 11.8015 15.1513 12.1808 15.1512H20.2114C20.5069 15.1512 20.7967 15.0696 21.0489 14.9154C21.3011 14.7612 21.5058 14.5405 21.6406 14.2774C21.7753 14.0144 21.8349 13.7192 21.8127 13.4245C21.7905 13.1298 21.6875 12.8469 21.5148 12.607Z" fill="#F58B71"/>
<path d="M21.516 12.6068C21.3237 12.34 21.0543 12.1384 20.7441 12.0291C20.8624 11.8523 20.9445 11.6538 20.9855 11.4451C21.0265 11.2364 21.0257 11.0216 20.983 10.8132C20.9403 10.6048 20.8567 10.4069 20.7369 10.2311C20.6171 10.0553 20.4636 9.90506 20.2853 9.78906C18.2134 12.6414 15.3826 14.2957 12.5664 15.151H20.2125C20.5081 15.1509 20.7979 15.0693 21.0501 14.9152C21.3022 14.761 21.507 14.5403 21.6417 14.2772C21.7765 14.0142 21.8361 13.719 21.8139 13.4243C21.7917 13.1296 21.6886 12.8467 21.516 12.6068Z" fill="#EE6C4D"/>
<path d="M14.3801 11.1261C14.3277 11.1491 14.2709 11.1602 14.2137 11.1586C14.1565 11.1571 14.1004 11.1429 14.0494 11.1171C13.9983 11.0913 13.9536 11.0545 13.9185 11.0094C13.8833 10.9643 13.8585 10.912 13.8459 10.8562C13.808 10.6844 13.7889 10.5089 13.7891 10.3328C13.7891 10.3252 13.7891 10.3178 13.7891 10.3099C13.7899 10.2529 13.8033 10.1968 13.8284 10.1456C13.8534 10.0944 13.8894 10.0493 13.9339 10.0136C13.9783 9.97791 14.0301 9.95246 14.0855 9.93907C14.1409 9.92568 14.1986 9.92467 14.2544 9.93613L14.2813 9.9416C14.37 9.96023 14.4495 10.0091 14.5062 10.0799C14.5629 10.1507 14.5932 10.2389 14.592 10.3296V10.3328C14.5919 10.4498 14.6045 10.5664 14.6296 10.6806C14.6482 10.7678 14.636 10.8587 14.5951 10.9379C14.5542 11.0171 14.4871 11.0797 14.4053 11.115L14.3801 11.1261Z" fill="#F9B5A1"/>
<path d="M12.4411 13.5448H12.4119C12.3499 13.5451 12.2887 13.5304 12.2336 13.5021C12.1784 13.4737 12.1309 13.4326 12.0949 13.382C12.059 13.3315 12.0358 13.273 12.0272 13.2116C12.0186 13.1502 12.0249 13.0876 12.0455 13.0291C12.1142 12.8406 12.22 12.6678 12.3564 12.5208C12.4929 12.3737 12.6573 12.2554 12.8401 12.1728C13.0229 12.0901 13.2204 12.0448 13.421 12.0396C13.6215 12.0343 13.8211 12.0692 14.008 12.1421C14.0657 12.1652 14.117 12.2018 14.1575 12.2489C14.198 12.296 14.2267 12.3522 14.2409 12.4127C14.2552 12.4732 14.2547 12.5362 14.2395 12.5965C14.2243 12.6567 14.1948 12.7124 14.1535 12.7589L14.1423 12.7716C14.0902 12.8325 14.0208 12.8761 13.9434 12.8968C13.866 12.9174 13.7841 12.9141 13.7086 12.8873C13.5343 12.8215 13.3409 12.8276 13.1711 12.9042C13.0013 12.9809 12.8688 13.1218 12.8028 13.2961C12.7749 13.3694 12.7253 13.4324 12.6607 13.4768C12.5961 13.5212 12.5195 13.545 12.4411 13.5448Z" fill="#F9B5A1"/>
<path d="M19.3355 12.3451C19.2559 12.351 19.1765 12.3328 19.1076 12.2926C19.0387 12.2525 18.9835 12.1925 18.9494 12.1204C18.8728 11.9505 18.7318 11.8181 18.5574 11.7522C18.3831 11.6863 18.1898 11.6924 18.0199 11.769C17.9484 11.8011 17.8687 11.8106 17.7916 11.7963C17.7146 11.782 17.6436 11.7445 17.5883 11.689L17.5676 11.6683C17.5236 11.6246 17.4907 11.571 17.4717 11.512C17.4527 11.453 17.4482 11.3902 17.4585 11.3291C17.4689 11.2679 17.4937 11.2101 17.5311 11.1606C17.5684 11.1111 17.6171 11.0713 17.673 11.0445C17.8549 10.9598 18.0519 10.9124 18.2523 10.9049C18.4528 10.8974 18.6527 10.93 18.8404 11.0008C19.0281 11.0717 19.1998 11.1793 19.3453 11.3173C19.4909 11.4554 19.6073 11.6212 19.6879 11.8049C19.7124 11.862 19.7227 11.9242 19.7181 11.9861C19.7134 12.0481 19.6939 12.108 19.6613 12.1609C19.6286 12.2137 19.5837 12.258 19.5303 12.2898C19.477 12.3217 19.4168 12.3402 19.3547 12.3439L19.3355 12.3451Z" fill="#F9B5A1"/>
<path d="M16.1591 15.1114C16.1154 15.1555 16.0618 15.1884 16.0028 15.2074C15.9437 15.2263 15.881 15.2309 15.8198 15.2205C15.7587 15.2102 15.7009 15.1853 15.6514 15.148C15.6018 15.1106 15.562 15.062 15.5352 15.006C15.4506 14.8241 15.4031 14.6272 15.3956 14.4267C15.3881 14.2263 15.4207 14.0263 15.4915 13.8386C15.5624 13.6509 15.67 13.4793 15.8081 13.3338C15.9461 13.1882 16.1119 13.0718 16.2956 12.9912C16.3527 12.9667 16.4149 12.9564 16.4769 12.961C16.5389 12.9657 16.5988 12.9852 16.6517 13.0178C16.7045 13.0505 16.7487 13.0954 16.7806 13.1488C16.8124 13.2022 16.831 13.2624 16.8346 13.3245L16.8358 13.3438C16.8418 13.4233 16.8235 13.5028 16.7834 13.5717C16.7433 13.6406 16.6832 13.6957 16.6112 13.7298C16.4414 13.8065 16.309 13.9475 16.2431 14.1218C16.1772 14.2961 16.1833 14.4894 16.2598 14.6593C16.2919 14.7309 16.3014 14.8105 16.2871 14.8876C16.2728 14.9647 16.2354 15.0356 16.1798 15.0909L16.1591 15.1114Z" fill="#F9B5A1"/>
<path d="M15.7969 5.91602H16.5999V7.1206H15.7969V5.91602Z" fill="#FEB644"/>
<path d="M15.7969 4.30957H16.5999V5.11263H15.7969V4.30957Z" fill="#FEB644"/>
<path d="M4.15234 12.7417H5.35693V13.5448H4.15234V12.7417Z" fill="#FEB644"/>
<path d="M6.16016 12.7417H9.37239V13.5448H6.16016V12.7417Z" fill="#FEB644"/>
<path d="M4 8.69629L4.29793 7.95105L5.10056 8.27193L4.80262 9.01716L4 8.69629Z" fill="#FEB644"/>
<path d="M5.60547 9.34082L5.9034 8.59558L10.318 10.3605L10.02 11.1057L5.60547 9.34082Z" fill="#FEB644"/>
<path d="M11.418 4.49072L12.1359 4.13176L12.5373 4.93445L11.8193 5.29342L11.418 4.49072Z" fill="#FEB644"/>
<path d="M12.2188 6.09668L12.9367 5.73771L14.1407 8.14576L13.4228 8.50472L12.2188 6.09668Z" fill="#FEB644"/>
<path d="M7.26562 5.81445L7.79645 5.21136L11.4481 8.42542L10.9173 9.02851L7.26562 5.81445Z" fill="#FEB644"/>
<path d="M5.89453 4.61084L6.42535 4.00774L7.22872 4.71483L6.69789 5.31793L5.89453 4.61084Z" fill="#FEB644"/>
<path d="M27.0391 12.7417H28.2437V13.5448H27.0391V12.7417Z" fill="#FEB644"/>
<path d="M23.0234 12.7417H26.2357V13.5448H23.0234V12.7417Z" fill="#FEB644"/>
<path d="M27.2773 8.27979L28.08 7.95891L28.3779 8.70415L27.5753 9.02502L27.2773 8.27979Z" fill="#FEB644"/>
<path d="M22.0586 10.3647L26.4732 8.59987L26.7711 9.34511L22.3565 11.11L22.0586 10.3647Z" fill="#FEB644"/>
<path d="M19.8477 4.93994L20.249 4.13725L20.9669 4.49621L20.5656 5.29891L19.8477 4.93994Z" fill="#FEB644"/>
<path d="M18.2422 8.15088L19.4462 5.74284L20.1641 6.1018L18.9601 8.50985L18.2422 8.15088Z" fill="#FEB644"/>
<path d="M20.957 8.41943L24.6087 5.20537L25.1395 5.80847L21.4879 9.02253L20.957 8.41943Z" fill="#FEB644"/>
<path d="M25.1758 4.70703L25.9791 3.99994L26.51 4.60304L25.7066 5.31013L25.1758 4.70703Z" fill="#FEB644"/>
<path d="M18.0061 21.5757C17.527 21.5751 17.0678 21.3846 16.729 21.0459C16.3903 20.7071 16.1998 20.2479 16.1992 19.7688V19.1665H17.0023V19.7688C17.0023 20.035 17.108 20.2904 17.2963 20.4786C17.4845 20.6669 17.7399 20.7726 18.0061 20.7726C18.2723 20.7726 18.5277 20.6669 18.7159 20.4786C18.9042 20.2904 19.0099 20.035 19.0099 19.7688V19.1665H19.813V19.7688C19.8125 20.2479 19.6219 20.7071 19.2832 21.0459C18.9444 21.3846 18.4852 21.5751 18.0061 21.5757Z" fill="#4D4354"/>
<path d="M22.2198 24.7879H22.0614C21.5499 24.7884 21.0462 24.6623 20.5952 24.421C20.1441 24.1796 19.7599 23.8304 19.4766 23.4045L20.1447 22.959C20.3548 23.2748 20.6397 23.5338 20.9741 23.7128C21.3086 23.8918 21.6821 23.9852 22.0614 23.9848H22.2198V24.7879Z" fill="#F09C83"/>
<path d="M14.5934 15.1509C14.5936 15.5563 14.548 15.9603 14.4574 16.3555C14.3273 16.9226 14.1065 17.4649 13.8034 17.9616C13.1104 19.0977 12.022 19.9377 10.7473 20.3201L10.5781 20.3708V15.1509H14.5934Z" fill="#F09C83"/>
<path d="M14.4574 16.3555C14.395 16.6294 14.311 16.8979 14.2059 17.1585H10.5781V16.3555H14.4574Z" fill="#FDD4BB"/>
<path d="M13.7878 17.9619C13.6137 18.2477 13.4132 18.5165 13.189 18.765H10.5625V17.9619H13.7878Z" fill="#FDD4BB"/>
</svg>
