<svg width="32" height="32" viewBox="0 0 32 32" fill="none" xmlns="http://www.w3.org/2000/svg">
<path d="M23.8026 6.71191L24.7604 8.75256L26.9022 9.07956L25.3524 10.6681L25.7182 12.911L23.8026 11.8521L21.8871 12.911L22.2529 10.6681L20.7031 9.07956L22.8449 8.75256L23.8026 6.71191Z" fill="#FEB644"/>
<path d="M19.1523 11.3612L14.503 12.911L13.541 12.8974C14.2531 12.8052 14.8281 12.2248 14.8858 11.4805C14.9517 10.627 14.3136 9.88196 13.4604 9.81571C12.6069 9.74984 11.8618 10.388 11.7956 11.2411C11.7317 12.0671 12.3295 12.7858 13.1416 12.8916L11.8522 12.8738C11.7092 12.8625 11.5658 12.8916 11.4384 12.9571L6.36678 14.8563L6.6624 16.0105L10.6817 15.1151L10.116 17.403L7.9456 20.3436L5.98438 20.5804L6.25055 22.1553L8.98433 21.9782L11.5713 18.6811L9.93394 24.7721L11.8657 24.9216L14.5445 14.8482L19.864 12.2237L19.1523 11.3612Z" fill="#F58B71"/>
<path d="M23.4141 4H24.1889V5.54976H23.4141V4Z" fill="#F58B71"/>
<path d="M26.3047 6.76074L27.4005 5.6649L27.9485 6.21282L26.8526 7.30867L26.3047 6.76074Z" fill="#F58B71"/>
<path d="M19.4922 6.2124L20.0401 5.66448L21.136 6.76033L20.588 7.30825L19.4922 6.2124Z" fill="#F58B71"/>
<path d="M4.0864 26.1014L4 25.3312C4.36109 25.2909 4.69701 25.1735 4.99766 24.9825C5.67336 24.5532 5.92093 23.9085 5.99571 23.6509L6.73959 23.8682C6.64002 24.2096 6.31147 25.0654 5.413 25.6361C5.01238 25.8911 4.56605 26.0476 4.0864 26.1014Z" fill="#C2B0CF"/>
<path d="M4.47815 27.9999L4.38672 27.2304C5.03646 27.1533 5.62653 26.9232 6.14066 26.5462C7.11934 25.829 7.44711 24.8364 7.54281 24.4424L8.29561 24.6256C8.17976 25.1018 7.78341 26.3033 6.59823 27.1711C5.98414 27.6217 5.25071 27.908 4.47815 27.9999Z" fill="#C2B0CF"/>
<path d="M19.1523 18.3354H19.9272V19.1103H19.1523V18.3354Z" fill="#C2B0CF"/>
<path d="M19.1523 19.8853H19.9272V20.6601H19.1523V19.8853Z" fill="#C2B0CF"/>
<path d="M19.9297 19.1104H20.7046V19.8852H19.9297V19.1104Z" fill="#DFD6E5"/>
<path d="M18.3789 19.1104H19.1538V19.8852H18.3789V19.1104Z" fill="#DFD6E5"/>
</svg>
