<svg width="32" height="32" viewBox="0 0 32 32" fill="none" xmlns="http://www.w3.org/2000/svg">
<path d="M26.7238 5.55942C25.6839 4.5196 24.3212 3.99966 22.9585 4C21.9011 4 20.8437 4.31311 19.9371 4.93899L19.9609 6.68892L18.1492 6.60335L16.4484 8.30416L16.5339 10.1158L14.7223 10.0303L13.0214 11.7311L13.107 13.5428L11.3571 13.519C9.92419 15.5936 10.131 18.4591 11.9776 20.3057C12.7823 21.1104 13.837 21.5125 14.8917 21.5125C15.9464 21.5125 17.0011 21.1104 17.8058 20.3057L26.7238 11.3877C28.3332 9.77821 28.3332 7.16882 26.7238 5.55942Z" fill="#FFA921"/>
<path d="M11.0039 14.1063C11.1075 13.9049 11.2247 13.7087 11.3557 13.519L13.1056 13.5428L12.7726 15.4362L11.4657 14.8382L11.0039 14.1063Z" fill="#FEB644"/>
<path d="M15.4523 14.1595L13.0237 11.731L11.9798 12.7748C11.747 13.0076 11.5402 13.257 11.3594 13.5188L13.7262 15.8856C13.9648 16.1242 14.2768 16.2432 14.5892 16.2432C14.9017 16.2432 15.2138 16.1242 15.4523 15.8856C15.9291 15.4089 15.9291 14.6363 15.4523 14.1595Z" fill="#FEB644"/>
<path d="M14.0972 15.8811C13.417 15.201 12.6843 14.6317 11.9341 14.1807L5.24219 20.8725C5.69317 21.6227 6.26245 22.3554 6.94266 23.0357C9.95406 26.047 13.9971 26.887 15.9728 24.9112C17.9485 22.9355 17.1086 18.8925 14.0972 15.8811Z" fill="#DFD6E5"/>
<path d="M18.3608 19.0801C18.3543 19.0451 18.2021 18.21 18.3486 17.2013C18.4971 16.1796 18.8951 15.3248 19.5146 14.6822C19.8812 14.3019 20.5108 14.3771 20.7852 14.8286C20.9742 15.1395 20.9361 15.5417 20.6833 15.8035C19.618 16.907 19.9481 18.7619 19.952 18.7828L18.3608 19.0801Z" fill="#C2B0CF"/>
<path d="M13.0432 20.0447C12.7435 19.7449 12.3719 19.5608 11.9839 19.4923C11.1426 19.3438 10.4058 20.0807 10.5543 20.9219C10.6229 21.3099 10.8069 21.6814 11.1067 21.9812C11.7307 22.6052 12.6656 22.7279 13.4125 22.3504C13.79 21.6036 13.6672 20.6687 13.0432 20.0447Z" fill="#BD80E1"/>
<path d="M6.83594 19.2788L5.24219 20.8726C5.69317 21.6228 6.26245 22.3555 6.94266 23.0357C9.28447 25.3775 12.2499 26.4058 14.3821 25.8183C11.2578 25.1176 8.12827 22.244 6.83594 19.2788Z" fill="#C2B0CF"/>
<path d="M19.6381 16.4819C19.3298 16.5742 19.0002 16.5742 18.6918 16.4819C18.6334 16.4645 18.5752 16.4487 18.5171 16.4328C18.4442 16.6772 18.3876 16.9335 18.3486 17.2018C18.2021 18.2105 18.3543 19.0455 18.3608 19.0806L19.952 18.7833C19.9487 18.7653 19.7066 17.4005 20.3079 16.3159C20.0865 16.3597 19.8632 16.4146 19.6381 16.4819Z" fill="#4D4354"/>
<path d="M19.2184 27.5861C19.2341 27.5947 19.2498 27.6031 19.2654 27.6114C20.4626 28.2446 21.9231 28.0885 22.9936 27.259C28.3225 23.1302 25.4187 15.0386 19.1673 17.6781C12.9159 15.0386 10.0121 23.1302 15.341 27.259C16.4115 28.0885 17.872 28.2446 19.0691 27.6114C19.0848 27.6031 19.1005 27.5947 19.1162 27.5861C19.1481 27.5688 19.1866 27.5688 19.2184 27.5861Z" fill="#F58B71"/>
<path d="M15.5458 22.6393C15.3457 22.6393 15.1836 22.4771 15.1836 22.2771V21.5814C15.1836 21.3814 15.3457 21.2192 15.5458 21.2192C15.7458 21.2192 15.9079 21.3814 15.9079 21.5814V22.2771C15.9079 22.4771 15.7458 22.6393 15.5458 22.6393Z" fill="#4D4354"/>
<path d="M22.784 22.6393C22.584 22.6393 22.4219 22.4771 22.4219 22.2771V21.5814C22.4219 21.3814 22.584 21.2192 22.784 21.2192C22.9841 21.2192 23.1462 21.3814 23.1462 21.5814V22.2771C23.1462 22.4771 22.9841 22.6393 22.784 22.6393Z" fill="#4D4354"/>
<path d="M19.1683 23.0533C18.6978 23.0533 18.2503 22.8495 17.9407 22.4942C17.8093 22.3434 17.825 22.1147 17.9758 21.9832C18.1266 21.8518 18.3553 21.8675 18.4868 22.0183C18.6589 22.2157 18.9072 22.3289 19.1683 22.3289C19.4293 22.3289 19.6777 22.2157 19.8498 22.0183C19.9811 21.8675 20.2099 21.8518 20.3607 21.9832C20.5115 22.1146 20.5273 22.3434 20.3959 22.4942C20.0863 22.8495 19.6388 23.0533 19.1683 23.0533Z" fill="#4D4354"/>
<path d="M6.34934 13.1979C6.03078 13.3144 5.8311 13.6318 5.85428 13.9703C5.88615 14.436 5.49944 14.8227 5.03374 14.7908C4.69532 14.7677 4.37787 14.9673 4.26134 15.2859C3.69331 16.8389 4.06476 18.9135 5.24404 20.8724C6.94326 20.8291 8.6293 20.1594 9.92607 18.8626C11.2228 17.5658 11.8926 15.8798 11.9359 14.1806C9.97697 13.0013 7.90234 12.6298 6.34934 13.1979Z" fill="#BD80E1"/>
<path d="M9.33969 17.6629C9.76605 17.2365 9.67767 16.4569 9.14229 15.9215C8.60691 15.3861 7.82726 15.2977 7.4009 15.7241C6.97454 16.1505 7.06292 16.9301 7.5983 17.4655C8.13368 18.0009 8.91333 18.0893 9.33969 17.6629Z" fill="white"/>
<path d="M8.10612 15.0146C7.96463 14.8732 7.96463 14.6439 8.10607 14.5025L8.50239 14.1061C8.64388 13.9647 8.87321 13.9646 9.01455 14.1061C9.15604 14.2475 9.15604 14.4768 9.0146 14.6183L8.61828 15.0146C8.47689 15.156 8.24752 15.1561 8.10612 15.0146Z" fill="#4D4354"/>
<path d="M18.8774 10.7328L16.4488 8.3042L14.7227 10.0303L17.1512 12.4589C17.628 12.9356 18.4006 12.9356 18.8774 12.4589C19.1156 12.2207 19.235 11.9083 19.235 11.5959C19.235 11.2834 19.1159 10.9713 18.8774 10.7328Z" fill="#FEB644"/>
<path d="M22.3031 7.30579L19.9363 4.93896C19.6744 5.11981 19.4251 5.32663 19.192 5.55978L18.1484 6.60332L20.577 9.03191C21.0538 9.50862 21.8264 9.50862 22.3031 9.03191C22.5417 8.79336 22.6608 8.48126 22.6608 8.16887C22.6607 7.85639 22.5416 7.54429 22.3031 7.30579Z" fill="#FEB644"/>
<path d="M6.21978 16.5999C6.21978 15.2866 6.5907 14.0529 7.24092 12.9814C6.92921 13.0235 6.63058 13.0951 6.34934 13.198C6.03078 13.3145 5.8311 13.632 5.85428 13.9704C5.88615 14.4361 5.49944 14.8228 5.03374 14.7909C4.69532 14.7678 4.37787 14.9674 4.26134 15.286C3.69331 16.839 4.06476 18.9136 5.24404 20.8725C5.99132 20.8534 6.736 20.7131 7.4462 20.4517C6.68047 19.18 6.21978 17.8378 6.21978 16.5999Z" fill="#AF66DA"/>
<path d="M14.7017 22.0449C14.7017 20.0796 15.6524 18.3248 17.1417 17.1703C12.3548 16.8559 10.6279 23.6071 15.341 27.2587C16.2882 27.9926 17.5406 28.1989 18.6458 27.7982C16.322 26.8176 14.7017 24.6107 14.7017 22.0449Z" fill="#EE6C4D"/>
</svg>
