<svg width="32" height="32" viewBox="0 0 32 32" fill="none" xmlns="http://www.w3.org/2000/svg">
<path d="M12.0704 8.49477C10.7031 8.49477 9.59766 7.38932 9.59766 6.02204C9.59766 4.65477 10.7031 3.54932 12.0704 3.54932C13.4377 3.54932 14.5431 4.65477 14.5431 6.02204C14.5431 7.38932 13.4377 8.49477 12.0704 8.49477Z" fill="#F9B5A1"/>
<path d="M16.9296 11.8982C16.5805 10.3273 15.5041 9.25098 13.9041 9.25098H10.2678C8.66778 9.25098 7.30051 10.4728 7.18415 12.1019L6.74778 17.2801C6.71869 17.7746 7.06778 18.211 7.59142 18.2692H7.73687C8.20233 18.211 8.55142 17.8328 8.58051 17.3964L8.95869 12.5964C8.98778 12.451 9.01687 12.1601 9.27869 12.1601C9.36597 12.1601 9.51142 12.1892 9.51142 12.5382V27.3746C9.54051 27.9855 10.0641 28.451 10.6751 28.4219C11.2278 28.3928 11.6932 27.9273 11.7223 27.3746V18.9382C11.9551 18.9092 12.1878 18.9092 12.4496 18.9382V27.3455C12.4787 27.9564 13.0023 28.4219 13.6132 28.3928C14.166 28.3637 14.6314 27.8982 14.6605 27.3455V12.5092C14.6605 12.1601 14.806 12.131 14.8932 12.131C15.1551 12.131 15.2132 12.5092 15.2423 12.6255L15.9696 16.2619C16.0569 16.6982 16.4641 17.0182 16.9296 17.0182C17.4241 16.9892 17.8314 16.5528 17.8023 16.0582C17.8023 16.0001 17.8023 15.9419 17.7732 15.9128L16.9296 11.8982Z" fill="#F58B71"/>
<path d="M21.3801 18.4438C22.5147 18.4438 23.4165 17.542 23.4165 16.4075C23.4165 15.2729 22.5147 14.3711 21.3801 14.3711C20.2456 14.3711 19.3438 15.2729 19.3438 16.4075C19.3438 17.542 20.2456 18.4438 21.3801 18.4438Z" fill="#F9B5A1"/>
<path d="M24.5813 20.102C24.3486 19.6657 23.9704 19.3457 23.534 19.1711C23.2431 19.0548 22.9522 18.9966 22.6322 19.0257C22.1376 19.0257 21.0904 19.0257 20.6249 18.9675C20.5958 18.9675 19.0831 18.9675 18.3849 17.6293C18.2104 17.2802 17.8613 17.1057 17.4831 17.1639C17.0467 17.2511 16.7849 17.6875 16.8722 18.1239C16.8722 18.182 16.9013 18.2402 16.9304 18.2984C17.3667 19.3166 18.2395 20.0729 19.3158 20.3639V27.5784C19.3158 28.0148 19.6067 28.3929 20.014 28.4802C20.4795 28.5966 20.9449 28.2766 21.0613 27.8111C21.0904 27.7529 21.0904 27.6657 21.0904 27.6075V23.6802H21.614V27.5784C21.614 28.0729 22.0213 28.4511 22.4867 28.4511C22.9522 28.4511 23.3595 28.0439 23.3595 27.5784V21.062C23.3886 20.9457 23.5049 20.9748 23.5631 21.1493C23.7086 21.5275 23.8249 21.8766 23.854 22.982C23.8831 23.3311 24.174 23.622 24.5231 23.622H24.5522C24.9304 23.5929 25.2213 23.2729 25.1922 22.8948C25.1922 21.8766 25.1922 21.1784 24.5813 20.102Z" fill="#FEB644"/>
</svg>
