<svg width="32" height="32" viewBox="0 0 32 32" fill="none" xmlns="http://www.w3.org/2000/svg">
<path d="M15.8109 8.75849C14.9961 7.02969 12.2109 7.23529 12.2109 9.37969C12.2109 11.4329 15.0453 13.4861 15.8109 14.0001C16.5765 13.4857 19.4109 11.4325 19.4109 9.37969C19.4109 7.23529 16.6257 7.02969 15.8109 8.75849Z" fill="#F58B71"/>
<path d="M15.8008 21.6001C16.9054 21.6001 17.8008 20.7047 17.8008 19.6001C17.8008 18.4955 16.9054 17.6001 15.8008 17.6001C14.6962 17.6001 13.8008 18.4955 13.8008 19.6001C13.8008 20.7047 14.6962 21.6001 15.8008 21.6001Z" fill="#FEB644"/>
<path d="M21.0116 16.3999L20.872 16.7999C20.4356 18.5451 19.6748 19.5515 18.6292 21.0151L18.5704 21.0971C18.3452 21.4127 17.9816 21.5999 17.594 21.5999H15.8H14.0176C13.63 21.5999 13.2664 21.4127 13.0412 21.0975L12.9824 21.0155C11.9368 19.5515 11.176 18.5451 10.7396 16.7999L10.6 16.3999H9C9.1932 18.1375 9.8152 19.7995 10.81 21.2367L13 24.3999V27.9999H18.6116V24.3999L20.8016 21.2367C21.7964 19.7995 22.4184 18.1375 22.6116 16.3999H21.0116Z" fill="#FEB644"/>
<path d="M21.0117 9.6001H22.6117V10.4001H21.0117V9.6001Z" fill="#EE6C4D"/>
<path d="M9.01172 9.6001H10.6117V10.4001H9.01172V9.6001Z" fill="#EE6C4D"/>
<path d="M15.4102 4H16.2102V5.6H15.4102V4Z" fill="#EE6C4D"/>
<path d="M10.7188 5.88428L11.2844 5.31859L12.4158 6.44996L11.8501 7.01565L10.7188 5.88428Z" fill="#EE6C4D"/>
<path d="M19.2031 6.44971L20.3345 5.31834L20.9002 5.88402L19.7688 7.01539L19.2031 6.44971Z" fill="#EE6C4D"/>
</svg>
