<svg width="32" height="32" viewBox="0 0 32 32" fill="none" xmlns="http://www.w3.org/2000/svg">
<path d="M10.811 8.76288L9.40966 7.35859C9.08458 7.03286 8.65216 6.85352 8.19199 6.85352C7.73182 6.85352 7.29939 7.03291 6.97436 7.35859L5.95854 8.37663C5.28986 9.04661 5.28986 10.1368 5.95854 10.8069L7.36286 12.2141C7.50021 12.3517 7.68035 12.4205 7.86058 12.4205C8.04025 12.4205 8.22002 12.352 8.35727 12.2151C8.63214 11.9408 10.5356 10.0312 10.8101 9.75723C11.0849 9.48297 11.0853 9.0378 10.811 8.76288Z" fill="#FEB644"/>
<path d="M15.7813 4.14062C15.3929 4.14062 15.0781 4.45544 15.0781 4.84375V7.09375C15.0781 7.48206 15.3929 7.79688 15.7813 7.79688C16.1696 7.79688 16.4844 7.48206 16.4844 7.09375V4.84375C16.4844 4.45544 16.1696 4.14062 15.7813 4.14062Z" fill="#FEB644"/>
<path d="M17.5156 4H14.0469C13.6586 4 13.3438 4.31481 13.3438 4.70313C13.3438 5.09144 13.6586 5.40625 14.0469 5.40625H17.5156C17.9039 5.40625 18.2188 5.09144 18.2188 4.70313C18.2188 4.31481 17.9039 4 17.5156 4Z" fill="#EE6C4D"/>
<path d="M15.7813 4H14.0469C13.6586 4 13.3438 4.31481 13.3438 4.70313C13.3438 5.09144 13.6586 5.40625 14.0469 5.40625H15.7813V4Z" fill="#F58B71"/>
<path d="M23.4052 9.5599C21.3688 7.51934 18.6613 6.39551 15.7812 6.39551C12.9012 6.39551 10.1936 7.51934 8.15722 9.5599C6.12125 11.6001 5 14.3126 5 17.1977C5 20.0827 6.12125 22.7952 8.15722 24.8354C10.1936 26.876 12.9012 27.9998 15.7812 27.9998C18.6613 27.9998 21.3688 26.876 23.4052 24.8354C25.4412 22.7952 26.5624 20.0827 26.5624 17.1977C26.5624 14.3126 25.4412 11.6001 23.4052 9.5599Z" fill="#EE6C4D"/>
<path d="M15.7812 6.39551C12.9012 6.39551 10.1936 7.51934 8.15722 9.5599C6.12125 11.6001 5 14.3126 5 17.1977C5 20.0827 6.12125 22.7952 8.15722 24.8354C10.1936 26.876 12.9012 27.9998 15.7812 27.9998V6.39551Z" fill="#F58B71"/>
<path d="M15.7821 9.08789C11.3187 9.08789 7.6875 12.726 7.6875 17.198C7.6875 21.6699 11.3187 25.3081 15.7821 25.3081C20.2454 25.3081 23.8766 21.6699 23.8766 17.198C23.8766 12.726 20.2454 9.08789 15.7821 9.08789Z" fill="#C2B0CF"/>
<path d="M15.7821 9.08789C11.3187 9.08789 7.6875 12.726 7.6875 17.198C7.6875 21.6699 11.3187 25.3081 15.7821 25.3081V9.08789Z" fill="#DFD6E5"/>
<path d="M15.7813 10.8442C16.1696 10.8442 16.4844 10.5294 16.4844 10.1411V9.11883C16.2526 9.09877 16.0182 9.08789 15.7813 9.08789C15.5443 9.08789 15.3099 9.09877 15.0781 9.11883V10.1411C15.0781 10.5294 15.3929 10.8442 15.7813 10.8442Z" fill="#4D4354"/>
<path d="M15.7813 23.5518C15.3929 23.5518 15.0781 23.8666 15.0781 24.2549V25.2771C15.3099 25.2972 15.5443 25.3081 15.7813 25.3081C16.0182 25.3081 16.2526 25.2972 16.4844 25.2771V24.2549C16.4844 23.8666 16.1696 23.5518 15.7813 23.5518Z" fill="#4D4354"/>
<path d="M23.8468 16.4946H22.8398C22.4515 16.4946 22.1367 16.8094 22.1367 17.1978C22.1367 17.5861 22.4515 17.9009 22.8398 17.9009H23.8468C23.8667 17.6691 23.8775 17.4347 23.8775 17.1978C23.8775 16.9608 23.8667 16.7264 23.8468 16.4946Z" fill="#4D4354"/>
<path d="M9.4283 17.1978C9.4283 16.8094 9.11348 16.4946 8.72517 16.4946H7.71825C7.69828 16.7264 7.6875 16.9608 7.6875 17.1978C7.6875 17.4347 7.69828 17.6691 7.71825 17.9009H8.72517C9.11348 17.9009 9.4283 17.5861 9.4283 17.1978Z" fill="#4D4354"/>
<path d="M17.5154 16.792H16.5234V13.9482C16.5234 13.5599 16.2086 13.2451 15.8203 13.2451C15.432 13.2451 15.1172 13.5599 15.1172 13.9482V17.4951C15.1172 17.8834 15.432 18.1983 15.8203 18.1983H17.5154C17.9037 18.1983 18.2185 17.8834 18.2185 17.4951C18.2185 17.1068 17.9037 16.792 17.5154 16.792Z" fill="#4D4354"/>
</svg>
