<svg width="32" height="32" viewBox="0 0 32 32" fill="none" xmlns="http://www.w3.org/2000/svg">
<path d="M16.5625 22.5156H22.6565V27.6485H16.5625V22.5156Z" fill="#201429"/>
<path d="M18.8955 13.524V14.6056C18.8955 15.698 17.3795 15.7221 16.7969 15.6425C14.5088 15.3296 12.7387 13.3652 12.7294 10.9925C12.7281 10.6658 12.4814 10.3835 12.1555 10.3652C11.8034 10.3455 11.5117 10.6255 11.5117 10.9736C11.5117 13.8052 13.5042 16.1795 16.1595 16.766C16.3694 16.8124 16.5198 16.997 16.5195 17.2121V17.2159L16.5339 22.9863H22.6567L22.6423 17.2159V17.2121C22.6421 16.997 22.7925 16.8124 23.0023 16.766C25.6576 16.1795 27.6502 13.8052 27.6502 10.9736C27.6502 10.6255 27.3585 10.3455 27.0064 10.3652C26.6805 10.3835 26.4338 10.6658 26.4325 10.9925C26.4232 13.3467 24.6804 15.299 22.4181 15.6349C21.8371 15.7212 20.1537 15.6574 20.1537 14.57V13.524H18.8955Z" fill="#FFD3BD"/>
<path d="M19.5832 14.0326H19.5793C18.4762 14.0326 17.582 13.1384 17.582 12.0354V11.0114C17.582 9.90836 18.4762 9.01416 19.5793 9.01416H19.5832C20.6863 9.01416 21.5805 9.90836 21.5805 11.0114V12.0354C21.5805 13.1384 20.6863 14.0326 19.5832 14.0326Z" fill="#FFD3BD"/>
<path d="M22.4191 15.6346C22.0864 15.684 21.3929 15.6837 20.8604 15.4709V15.8154C20.8604 16.5222 20.2879 17.0952 19.5818 17.0952C18.8757 17.0952 18.3033 16.5222 18.3033 15.8154V15.4752C17.8126 15.6999 17.1422 15.6892 16.7979 15.6421C16.3623 15.5825 15.9456 15.4628 15.5561 15.2921L15.0859 16.417C15.4286 16.5659 15.788 16.6834 16.1604 16.7656C16.3703 16.812 16.5206 16.9966 16.5204 17.2117V17.2155L16.5348 22.9859H22.6576L22.6432 17.2155V17.2117C22.643 16.9966 22.7934 16.812 23.0032 16.7656C23.3794 16.6825 23.7423 16.5634 24.0881 16.4124L23.618 15.2876C23.2415 15.4538 22.8393 15.5722 22.4191 15.6346Z" fill="#EE6C4D"/>
<path d="M11.7353 21.2677V22.3493C11.7353 23.4416 10.2193 23.4658 9.63679 23.3862C7.34867 23.0732 5.57852 21.1088 5.56924 18.7361C5.56797 18.4094 5.32122 18.1271 4.9953 18.1089C4.64322 18.0892 4.35156 18.3691 4.35156 18.7173C4.35156 21.5488 6.34409 23.9231 8.99938 24.5097C9.20924 24.556 9.35962 24.7406 9.35938 24.9557V24.9595V27.6483H15.4822V24.9595V24.9557C15.482 24.7406 15.6323 24.556 15.8422 24.5097C18.4975 23.9232 20.49 21.5488 20.49 18.7173C20.49 18.3691 20.1983 18.0892 19.8463 18.1089C19.5204 18.1271 19.2736 18.4095 19.2723 18.7361C19.2631 21.0903 17.5203 23.0426 15.258 23.3786C14.677 23.4648 12.9936 23.401 12.9936 22.3136V21.2677H11.7353Z" fill="#FFD3BD"/>
<path d="M12.4231 21.7767H12.4191C11.3161 21.7767 10.4219 20.8825 10.4219 19.7795V18.7555C10.4219 17.6525 11.3161 16.7583 12.4191 16.7583H12.4231C13.5261 16.7583 14.4203 17.6525 14.4203 18.7555V19.7795C14.4203 20.8825 13.5262 21.7767 12.4231 21.7767Z" fill="#FFD3BD"/>
<path d="M19.2067 19.5054C18.869 21.5047 17.2699 23.0803 15.2594 23.3789C14.9267 23.4283 14.2332 23.428 13.7007 23.2152V23.5597C13.7007 24.2665 13.1282 24.8394 12.4221 24.8394C11.716 24.8394 11.1436 24.2665 11.1436 23.5597V23.2195C10.6529 23.4442 9.98248 23.4335 9.63818 23.3864C7.60272 23.108 5.97835 21.5224 5.63762 19.5054L4.42969 19.671C4.81856 22.0698 6.6497 23.9907 9.00072 24.51C9.21059 24.5563 9.36096 24.7409 9.36073 24.956V24.9598V27.6486H15.4835V24.9598V24.956C15.4833 24.7409 15.6337 24.5563 15.8435 24.51C18.1945 23.9907 20.0257 22.0697 20.4146 19.6709L19.2067 19.5054Z" fill="#FFC850"/>
<path d="M10.4216 15.5034C10.874 15.5034 10.8748 14.8003 10.4216 14.8003C9.96921 14.8003 9.96846 15.5034 10.4216 15.5034Z" fill="#C2B0CF"/>
<path d="M8.13258 19.6074C8.58503 19.6074 8.58578 18.9043 8.13258 18.9043C7.68014 18.9043 7.67939 19.6074 8.13258 19.6074Z" fill="#C2B0CF"/>
<path d="M4.33958 10.7564C4.79202 10.7564 4.79277 10.0532 4.33958 10.0532C3.88718 10.0532 3.88643 10.7564 4.33958 10.7564Z" fill="#C2B0CF"/>
<path d="M7.35911 7.42628C7.81155 7.42628 7.8123 6.72314 7.35911 6.72314C6.90671 6.72314 6.90596 7.42628 7.35911 7.42628Z" fill="#C2B0CF"/>
<path d="M13.8161 8.82276C14.2686 8.82276 14.2693 8.11963 13.8161 8.11963C13.3637 8.11963 13.363 8.82276 13.8161 8.82276Z" fill="#C2B0CF"/>
<path d="M15.281 12.1094C15.7335 12.1094 15.7342 11.4062 15.281 11.4062C14.8286 11.4062 14.8278 12.1094 15.281 12.1094Z" fill="#C2B0CF"/>
<path d="M15.5505 4.70606C16.003 4.70606 16.0037 4.00293 15.5505 4.00293C15.0981 4.00293 15.0974 4.70606 15.5505 4.70606Z" fill="#C2B0CF"/>
<path d="M26.7146 7.77784C27.1671 7.77784 27.1678 7.07471 26.7146 7.07471C26.2622 7.07471 26.2614 7.77784 26.7146 7.77784Z" fill="#C2B0CF"/>
<path d="M23.7029 6.01954C24.1553 6.01954 24.1561 5.31641 23.7029 5.31641C23.2505 5.31641 23.2497 6.01954 23.7029 6.01954Z" fill="#C2B0CF"/>
<path d="M21.1716 7.77784C21.6241 7.77784 21.6248 7.07471 21.1716 7.07471C20.7192 7.07471 20.7185 7.77784 21.1716 7.77784Z" fill="#C2B0CF"/>
<path d="M26.5388 18.5361C26.9913 18.5361 26.992 17.833 26.5388 17.833C26.0864 17.833 26.0856 18.5361 26.5388 18.5361Z" fill="#C2B0CF"/>
<path d="M24.9685 25.6099C25.421 25.6099 25.4217 24.9067 24.9685 24.9067C24.5161 24.9067 24.5153 25.6099 24.9685 25.6099Z" fill="#C2B0CF"/>
<path d="M26.5388 23.5112C26.9913 23.5112 26.992 22.8081 26.5388 22.8081C26.0864 22.8081 26.0856 23.5112 26.5388 23.5112Z" fill="#C2B0CF"/>
<path d="M7.35911 28C7.81155 28 7.8123 27.2969 7.35911 27.2969C6.90671 27.2969 6.90596 28 7.35911 28Z" fill="#C2B0CF"/>
<path d="M6.5256 16.1506C6.43565 16.1506 6.34565 16.1163 6.27702 16.0476L4.93891 14.7095C4.80161 14.5722 4.80161 14.3496 4.93891 14.2123C5.07621 14.0751 5.29882 14.0751 5.43607 14.2123L6.77418 15.5504C6.91148 15.6878 6.91148 15.9103 6.77418 16.0476C6.70556 16.1163 6.61555 16.1506 6.5256 16.1506Z" fill="#DFD6E5"/>
<path d="M4.35195 5.57073C4.22454 5.57073 4.10163 5.50126 4.03919 5.38028C3.95018 5.20768 4.01791 4.99566 4.19051 4.90665L5.87231 4.03912C6.0449 3.95025 6.25692 4.01789 6.34594 4.19044C6.43495 4.36303 6.36722 4.57505 6.19462 4.66407L4.51282 5.53155C4.46126 5.55812 4.40618 5.57073 4.35195 5.57073Z" fill="#DFD6E5"/>
<path d="M7.97303 12.345C7.94645 12.345 7.91941 12.3419 7.89241 12.3356C7.7034 12.2912 7.58612 12.102 7.63047 11.913L8.06289 10.0706C8.10724 9.88161 8.29629 9.76438 8.48552 9.80867C8.67452 9.85302 8.79181 10.0423 8.74746 10.2313L8.31504 12.0736C8.27693 12.2356 8.1325 12.345 7.97303 12.345Z" fill="#DFD6E5"/>
<path d="M25.878 21.1173C25.7988 21.1173 25.7193 21.0907 25.6536 21.0362L24.1974 19.8277C24.0479 19.7037 24.0274 19.4821 24.1513 19.3326C24.2753 19.1832 24.497 19.1626 24.6464 19.2866L26.1026 20.4951C26.2521 20.6192 26.2727 20.8408 26.1487 20.9902C26.0792 21.074 25.9789 21.1173 25.878 21.1173Z" fill="#DFD6E5"/>
<path d="M4.35141 26.8494C4.27229 26.8494 4.19274 26.8229 4.12707 26.7683C3.97763 26.6443 3.95705 26.4227 4.08104 26.2733L5.28953 24.8171C5.41352 24.6675 5.63519 24.647 5.78458 24.771C5.93398 24.8951 5.9546 25.1166 5.83062 25.2661L4.62212 26.7223C4.5526 26.8061 4.45234 26.8494 4.35141 26.8494Z" fill="#DFD6E5"/>
<path d="M26.4413 27.9997C26.3621 27.9997 26.2826 27.9732 26.2169 27.9187C26.0675 27.7947 26.0469 27.5731 26.1709 27.4237L27.3794 25.9674C27.5034 25.8179 27.725 25.7974 27.8744 25.9214C28.0239 26.0454 28.0444 26.267 27.9205 26.4165L26.712 27.8727C26.6424 27.9565 26.5422 27.9997 26.4413 27.9997Z" fill="#DFD6E5"/>
<path d="M11.7752 6.42576C11.7246 6.42576 11.6732 6.41479 11.6244 6.39159L9.91551 5.57881C9.74014 5.49542 9.66561 5.28566 9.749 5.11029C9.8324 4.93503 10.0421 4.86045 10.2175 4.94379L11.9264 5.75657C12.1018 5.83996 12.1763 6.04973 12.0929 6.22509C12.0327 6.3517 11.9066 6.42576 11.7752 6.42576Z" fill="#DFD6E5"/>
<path d="M16.9024 8.08638C16.8109 8.08638 16.7195 8.05089 16.6506 7.98016C16.515 7.84108 16.5179 7.61851 16.657 7.48304L18.0123 6.16233C18.1513 6.02676 18.3739 6.02962 18.5094 6.16875C18.645 6.30783 18.6421 6.53039 18.503 6.66586L17.1477 7.98658C17.0794 8.05319 16.9908 8.08638 16.9024 8.08638Z" fill="#DFD6E5"/>
<path d="M24.7739 11.4334C24.6824 11.4334 24.591 11.3979 24.5221 11.3272L23.2014 9.97192C23.0658 9.83284 23.0687 9.61028 23.2078 9.47481C23.3468 9.33929 23.5694 9.3421 23.7049 9.48123L25.0256 10.8365C25.1611 10.9756 25.1583 11.1981 25.0192 11.3336C24.9508 11.4002 24.8623 11.4334 24.7739 11.4334Z" fill="#DFD6E5"/>
<path d="M27.6492 5.00898C27.6303 5.00898 27.6112 5.00748 27.592 5.00429L25.7245 4.69857C25.5329 4.66721 25.403 4.48646 25.4344 4.29483C25.4657 4.10325 25.6464 3.97317 25.8381 4.00472L27.7056 4.31044C27.8972 4.3418 28.0272 4.52255 27.9957 4.71418C27.9675 4.88649 27.8184 5.00898 27.6492 5.00898Z" fill="#DFD6E5"/>
<path d="M12.4231 16.7583H12.4191C11.3161 16.7583 10.4219 17.6525 10.4219 18.7555H14.4203C14.4203 17.6525 13.5262 16.7583 12.4231 16.7583Z" fill="#201429"/>
<path d="M19.5832 9.01416H19.5793C18.4762 9.01416 17.582 9.90836 17.582 11.0114H21.5805C21.5805 9.90836 20.6863 9.01416 19.5832 9.01416Z" fill="#201429"/>
</svg>
