<svg width="32" height="32" viewBox="0 0 32 32" fill="none" xmlns="http://www.w3.org/2000/svg">
<path d="M16 30.4C10.4772 30.4 6 25.9228 6 20.4V12C6 6.47716 10.4772 2 16 2C21.5229 2 26 6.47716 26 12V20.4C26.0001 25.9228 21.5229 30.4 16 30.4Z" fill="#F58B72"/>
<path d="M6.07899 10.7388C6.02696 11.152 6 11.573 6 12.0004V20.4004C6 25.9232 10.4772 30.4004 16 30.4004C19.3595 30.4004 22.3319 28.7437 24.1452 26.2028L6.07899 10.7388Z" fill="#EE6C4D"/>
<path d="M16 4.14287C15.4083 4.14287 14.9286 3.66318 14.9286 3.07143C14.9286 2.47969 15.4083 2 16 2C10.4772 2 6 6.47716 6 12V20.4C6 25.9228 10.4772 30.4 16 30.4C18.5325 30.4 20.8446 29.4582 22.6065 27.9062L22.6075 27.9009L10.4415 17.5584L16 4.14287Z" fill="#FEB644"/>
<path d="M16.0014 19.8613C20.3428 19.8613 23.8623 16.3419 23.8623 12.0005C23.8623 7.65905 20.3428 4.13965 16.0014 4.13965C11.66 4.13965 8.14062 7.65905 8.14062 12.0005C8.14062 16.3419 11.66 19.8613 16.0014 19.8613Z" fill="#FFDFCF"/>
<path d="M12.725 17.558C9.66009 14.4931 9.66009 9.50608 12.725 6.44115C13.9666 5.19954 15.5237 4.46103 17.1406 4.2254C14.7662 3.87933 12.2626 4.61784 10.4393 6.44115C7.37439 9.50608 7.37439 14.4931 10.4393 17.558C12.2626 19.3814 14.7662 20.1199 17.1406 19.7738C15.5237 19.5382 13.9666 18.7997 12.725 17.558Z" fill="#FFCEBF"/>
<path d="M11.4509 15.5139C12.3773 15.5139 13.1283 14.9158 13.1283 14.1781C13.1283 13.4403 12.3773 12.8423 11.4509 12.8423C10.5244 12.8423 9.77344 13.4403 9.77344 14.1781C9.77344 14.9158 10.5244 15.5139 11.4509 15.5139Z" fill="#FDA0C1"/>
<path d="M20.5446 15.5139C21.471 15.5139 22.222 14.9158 22.222 14.1781C22.222 13.4403 21.471 12.8423 20.5446 12.8423C19.6182 12.8423 18.8672 13.4403 18.8672 14.1781C18.8672 14.9158 19.6182 15.5139 20.5446 15.5139Z" fill="#FDA0C1"/>
<path d="M12.4316 13.3077C12.2019 13.3077 12.0156 13.1215 12.0156 12.8917V12.2061C12.0156 11.9762 12.2019 11.79 12.4316 11.79C12.6614 11.79 12.8477 11.9762 12.8477 12.2061V12.8917C12.8477 13.1215 12.6614 13.3077 12.4316 13.3077Z" fill="#201429"/>
<path d="M19.5684 13.3077C19.3386 13.3077 19.1523 13.1215 19.1523 12.8917V12.2061C19.1523 11.9762 19.3386 11.79 19.5684 11.79C19.7982 11.79 19.9844 11.9762 19.9844 12.2061V12.8917C19.9844 13.1215 19.7982 13.3077 19.5684 13.3077Z" fill="#201429"/>
<path d="M15.9975 13.7162C15.5167 13.7162 15.0595 13.508 14.743 13.145C14.592 12.9718 14.6101 12.709 14.7833 12.5581C14.9565 12.407 15.2193 12.425 15.3703 12.5983C15.5286 12.78 15.7573 12.8842 15.9975 12.8842C16.2377 12.8842 16.4663 12.78 16.6247 12.5983C16.7756 12.4252 17.0384 12.407 17.2116 12.5581C17.3848 12.709 17.4028 12.9718 17.2519 13.145C16.9354 13.508 16.4782 13.7162 15.9975 13.7162Z" fill="#201429"/>
<path d="M19.0142 8.06961C18.5331 9.24716 17.1837 9.81377 16.0061 9.33269C15.1065 8.9651 14.6736 7.93421 15.0412 7.03462C15.3179 6.3574 16.0941 6.03175 16.7711 6.3082C17.2704 6.51227 17.5106 7.08443 17.3066 7.58365C17.236 7.7566 17.1022 7.89167 16.9299 7.96395C16.7181 8.05292 16.6185 8.2967 16.7074 8.50854C16.7964 8.72043 17.0402 8.82016 17.252 8.73108C17.6291 8.57277 17.9221 8.27701 18.0768 7.89838C18.4543 6.97438 18.0097 5.91548 17.0858 5.53791C15.9839 5.08789 14.7211 5.618 14.2709 6.71984C13.7298 8.0441 14.367 9.56167 15.6913 10.1028C16.0787 10.2611 16.4797 10.336 16.8745 10.336C18.1123 10.336 19.288 9.599 19.7843 8.38423C20.1703 7.43977 20.1652 6.4015 19.7703 5.46075C19.6994 5.29196 19.6171 5.13021 19.5249 4.97568C18.9497 4.6858 18.3342 4.46464 17.6894 4.32275C19.0001 5.04352 19.5933 6.65239 19.0142 8.06961Z" fill="#C4715A"/>
</svg>
