<svg width="32" height="32" viewBox="0 0 32 32" fill="none" xmlns="http://www.w3.org/2000/svg">
<path d="M23.6373 13.4197C23.5412 13.2933 23.4832 13.1422 23.471 12.9839C23.3504 11.4289 22.8755 9.91823 22.0779 8.56971L21.9524 8.35749C21.8941 8.25889 21.7636 8.23192 21.671 8.2993L20.6357 9.05222C20.5765 9.09528 20.4926 9.06937 20.4679 9.0005C19.7368 6.96083 18.1198 5.36296 16.0715 4.65625L15.903 4.5981C15.8006 4.56277 15.6939 4.63885 15.6939 4.74716C15.6939 6.79945 14.9428 8.78078 13.5823 10.3173L13.3964 10.5273C13.2725 10.6672 13.0453 10.632 12.9696 10.4611L12.2727 8.88745C12.2352 8.80292 12.1262 8.77938 12.0573 8.841L12.0124 8.88102C10.8926 9.8814 10.1096 11.194 9.75601 12.6394C9.73716 12.7164 9.69989 12.7874 9.64687 12.8464C8.17796 14.4807 7.29256 16.6499 7.32098 19.0269C7.38062 24.0152 11.4161 28.0001 16.4047 28.0001C21.4217 28 25.4888 23.9329 25.4888 18.9158C25.4888 16.8501 24.7988 14.9457 23.6373 13.4197Z" fill="#FEB644"/>
<path d="M16.3017 15.6221C14.7508 14.4633 12.5842 14.6192 11.2153 15.9883C9.58937 17.6142 9.71803 20.2872 11.4926 21.7494L16.0443 25.5C16.2542 25.6729 16.5572 25.6729 16.7671 25.5L21.3188 21.7494C23.0934 20.2872 23.222 17.6142 21.5961 15.9883C20.2272 14.6193 18.0606 14.4634 16.5097 15.6221C16.448 15.6682 16.3634 15.6682 16.3017 15.6221Z" fill="#F58B71"/>
<path d="M13.5237 21.3026C11.7491 19.8404 11.6205 17.1673 13.2464 15.5414C13.5276 15.2603 13.8436 15.0307 14.1799 14.8527C13.1078 14.7955 12.0225 15.181 11.2153 15.9882C9.58937 17.6141 9.71803 20.2872 11.4926 21.7493L16.0443 25.4999C16.2542 25.6729 16.5572 25.6729 16.767 25.4999L17.6923 24.7375L13.5237 21.3026Z" fill="#EE6C4D"/>
<path d="M25.0268 6.18174C25.0268 6.72848 24.5836 7.17169 24.0368 7.17169C23.4901 7.17169 23.0469 6.72848 23.0469 6.18174C23.0469 5.77754 23.588 4.81157 23.8701 4.33535C23.9452 4.20853 24.1285 4.20853 24.2036 4.33535C24.4857 4.81157 25.0268 5.77754 25.0268 6.18174Z" fill="#C4715A"/>
<path d="M13.5648 5.43105C13.5648 5.83404 13.2381 6.16072 12.8351 6.16072C12.4321 6.16072 12.1055 5.83404 12.1055 5.43105C12.1055 5.13313 12.5043 4.4211 12.7122 4.07011C12.7676 3.97663 12.9027 3.97663 12.9581 4.07011C13.166 4.4211 13.5648 5.13313 13.5648 5.43105Z" fill="#C4715A"/>
<path d="M9.32604 9.13545C9.32604 9.77778 8.80536 10.2985 8.16302 10.2985C7.52068 10.2985 7 9.77778 7 9.13545C7 8.66058 7.63567 7.52569 7.96713 6.96625C8.05538 6.81724 8.2707 6.81724 8.35896 6.96625C8.69037 7.52569 9.32604 8.66058 9.32604 9.13545Z" fill="#C4715A"/>
<path d="M9.32546 17.7178C9.32546 14.8047 10.7203 12.1877 12.9363 10.3858L12.2727 8.88729C12.2352 8.80275 12.1262 8.77922 12.0572 8.84084L12.0124 8.88086C10.8926 9.88124 10.1096 11.1938 9.756 12.6393C9.73715 12.7163 9.69989 12.7873 9.64687 12.8462C8.17796 14.4805 7.29256 16.6497 7.32098 19.0267C7.38062 24.015 11.4161 27.9999 16.4047 27.9999C17.418 27.9999 18.393 27.8338 19.3031 27.5276C13.7197 27.1279 9.32546 22.8888 9.32546 17.7178Z" fill="#FFA921"/>
</svg>
