<svg width="23" height="24" viewBox="0 0 23 24" fill="none" xmlns="http://www.w3.org/2000/svg">
<path d="M0.833957 13.0011C1.16092 12.3594 1.82676 11.9214 2.59419 11.9214C2.86874 11.9214 3.12932 11.9774 3.36626 12.0783L4.01133 12.8925L3.30125 13.7888L2.38215 14.8161C2.04489 14.7754 1.69508 14.6374 1.4173 14.3898C1.10883 14.1148 0.858208 13.6775 0.833957 13.0011Z" fill="#EBBAA1" stroke="#DFD6E5"/>
<path d="M0.333902 12.8926C0.197572 13.1995 0.121094 13.5388 0.121094 13.8963C0.121094 15.2632 1.22911 16.3712 2.59596 16.3712C2.98703 16.3712 3.35677 16.2801 3.68563 16.1186L4.65099 15.1294L3.68563 14.1111C3.35677 14.2726 2.98703 14.3637 2.59596 14.3637C1.58662 14.3637 0.718974 13.759 0.333902 12.8926V12.8926Z" fill="#E8A990"/>
<path d="M21.8288 12.8925C21.8288 14.6319 20.5761 15.3289 19.5668 15.3289L18.4771 14.111L17.5117 12.8925L18.4771 11.674C18.8059 11.5125 19.1757 11.4214 19.5668 11.4214C20.5761 11.4214 21.4437 12.0259 21.8288 12.8925V12.8925Z" fill="#EBBAA1"/>
<path d="M21.8288 12.8926C21.9651 13.1995 22.0416 13.5388 22.0416 13.8963C22.0416 15.2632 20.9336 16.3712 19.5668 16.3712C19.1757 16.3712 18.8059 16.2801 18.4771 16.1186L17.5117 15.1294L18.4771 14.1111C18.8059 14.2726 19.1757 14.3637 19.5668 14.3637C20.5761 14.3637 21.4437 13.759 21.8288 12.8926Z" fill="#E8A990"/>
<path d="M11.0789 22.4775C15.1631 22.4775 18.4741 19.649 18.4741 14.117V10.4201L11.0791 9.37793L3.68359 10.4201V14.117C3.6837 19.6491 6.99467 22.4775 11.0789 22.4775Z" fill="#FDD4BB"/>
<path d="M19.5714 8.41277C18.6737 2.37959 15.1922 0.47998 11.0806 0.47998C6.96904 0.47998 3.48752 2.37959 2.58984 8.41277L11.0808 9.37813L19.5714 8.41277Z" fill="#EE6C4D"/>
<path d="M2.58878 8.4126C2.52141 8.86557 2.46864 9.34192 2.43121 9.84251C2.40782 10.1546 2.65732 10.4202 2.97031 10.4202H8.10152L11.0803 9.37806L14.0591 10.4202H19.1903C19.5033 10.4202 19.7527 10.1548 19.7294 9.84262C19.692 9.34202 19.6392 8.86578 19.5718 8.4127H2.58878V8.4126Z" fill="#F7B369"/>
<path d="M11.0827 21.5124C6.99847 21.5124 3.6875 18.2014 3.6875 14.1172V16.1247C3.6875 20.2089 6.99847 23.5199 11.0827 23.5199C15.1669 23.5199 18.4779 20.2089 18.4779 16.1247V14.1172C18.478 18.2015 15.167 21.5124 11.0827 21.5124V21.5124Z" fill="#F7C4A8"/>
<path d="M14.0591 7.11936V6.76003C14.0591 5.11495 12.7255 3.78125 11.0803 3.78125C9.43515 3.78125 8.10156 5.11495 8.10156 6.76003V7.11936L11.0806 8.08472L14.0591 7.11936Z" fill="#5A5B77"/>
<path d="M14.059 8.41272L11.0806 9.37808L8.10156 8.41272V7.11914H14.059V8.41272Z" fill="#201429"/>
<path d="M8.10156 8.4126H14.0591V10.4201H8.10156V8.4126Z" fill="#201429"/>
<path d="M14.3342 15.4751C14.7971 15.4751 15.1724 15.0999 15.1724 14.6369V13.4368C15.1724 12.9739 14.7972 12.5986 14.3342 12.5986C13.8714 12.5986 13.4961 12.9738 13.4961 13.4368V14.6369C13.4961 15.0999 13.8713 15.4751 14.3342 15.4751Z" fill="#201429"/>
<path d="M7.76783 15.4751C8.23067 15.4751 8.60598 15.0999 8.60598 14.6369V13.4368C8.60598 12.9739 8.23078 12.5986 7.76783 12.5986C7.30489 12.5986 6.92969 12.9738 6.92969 13.4368V14.6369C6.92969 15.0999 7.30489 15.4751 7.76783 15.4751Z" fill="#201429"/>
<path d="M8.35631 18.5804C8.59143 19.1515 9.42325 20.1182 11.049 20.1182C12.6748 20.1182 13.5066 19.1515 13.7417 18.5804C13.918 18.1524 13.7138 17.6625 13.2859 17.4863C12.8578 17.3099 12.368 17.5141 12.1918 17.9422C12.1898 17.9471 11.9457 18.4419 11.049 18.4419C10.1523 18.4419 9.90829 17.9471 9.90625 17.9422C9.73002 17.5141 9.24026 17.3099 8.81217 17.4863C8.3842 17.6625 8.18008 18.1524 8.35631 18.5804V18.5804Z" fill="#201429"/>
</svg>
