<svg width="32" height="32" viewBox="0 0 32 32" fill="none" xmlns="http://www.w3.org/2000/svg">
<path d="M24.4225 8.68091C25.4538 9.78669 26.3478 11.7646 25.4769 15.288H6.64537C5.99161 13.4475 6.22808 11.8963 6.63808 10.7858C6.85577 10.1962 7.12312 9.72981 7.3347 9.4126C7.4403 9.25427 7.53142 9.13399 7.59453 9.05505C7.62606 9.0156 7.65053 8.98657 7.66623 8.96835L7.68297 8.94923L7.68577 8.9461L7.68594 8.94592L7.68598 8.94587C7.68618 8.94566 7.68621 8.94562 7.68608 8.94576L7.90074 8.71306L7.78062 8.41875C7.25776 7.13766 7.92273 5.86474 8.39721 5.19544C9.08751 5.6744 10.5565 6.34209 12.9124 5.82744L12.9125 5.82743C13.239 5.75609 13.57 5.67878 13.9036 5.60087C15.2129 5.29504 16.5618 4.97997 17.8395 4.97998C19.3945 4.97999 20.7502 5.4493 21.6865 6.99141L21.7982 7.17529L22.0069 7.22034L22.0074 7.22045L22.0075 7.22047L22.0079 7.22054L22.0084 7.22067L22.0147 7.22215C22.0221 7.22392 22.0348 7.22703 22.0522 7.23161C22.0871 7.24079 22.141 7.25587 22.2107 7.27806C22.3502 7.32251 22.5516 7.39512 22.7889 7.50536C23.265 7.7265 23.8753 8.09433 24.4225 8.68091Z" fill="#E5907B" stroke="#DFD6E5"/>
<path d="M7.59503 19.5081L8.68473 18.4446L9.49558 17.0593L8.68473 15.674C8.35588 15.5125 7.98613 15.4214 7.59503 15.4214C6.522 15.4214 5.6088 16.1044 5.26562 17.0592C5.26562 18.5867 6.522 19.5081 7.59503 19.5081V19.5081Z" fill="#EBBAA1"/>
<path d="M5.26651 17.0591C5.17254 17.3205 5.12109 17.6023 5.12109 17.8961C5.12109 19.2629 6.22908 20.371 7.596 20.371C7.98711 20.371 8.35686 20.2799 8.6857 20.1183L9.49656 19.2779L8.6857 18.4444C8.35686 18.6059 7.98711 18.697 7.596 18.697C6.52288 18.6969 5.60968 18.0139 5.26651 17.0591V17.0591Z" fill="#E8A990"/>
<path d="M24.5646 19.5081L23.4749 18.4446L22.6641 17.0593L23.4749 15.674C23.8038 15.5125 24.1735 15.4214 24.5646 15.4214C25.6376 15.4214 26.5509 16.1044 26.894 17.0592C26.894 18.5867 25.6376 19.5081 24.5646 19.5081V19.5081Z" fill="#EBBAA1"/>
<path d="M26.8941 17.0591C26.9881 17.3205 27.0395 17.6023 27.0395 17.8961C27.0395 19.2629 25.9315 20.371 24.5646 20.371C24.1735 20.371 23.8038 20.2799 23.4749 20.1183L22.6641 19.2779L23.4749 18.4444C23.8038 18.6059 24.1735 18.697 24.5646 18.697C25.6377 18.6969 26.5509 18.0139 26.8941 17.0591V17.0591Z" fill="#E8A990"/>
<path d="M16.0789 26.6569C20.1631 26.6569 23.4741 23.5145 23.4741 18.4509V15.674C23.4741 15.674 22.3188 14.2789 21.4075 12.1727C21.3203 11.9711 21.102 11.8604 20.8886 11.912C19.974 12.1331 17.5789 12.6752 16.0789 12.6752C14.579 12.6752 12.1837 12.1331 11.2691 11.912C11.0557 11.8604 10.8374 11.9711 10.7502 12.1727C9.83888 14.2789 8.68368 15.674 8.68359 15.674V18.4509C8.68359 23.5146 11.9946 26.6569 16.0789 26.6569V26.6569Z" fill="#FDD4BB"/>
<path d="M16.0789 25.8459C11.9946 25.8459 8.68359 22.5349 8.68359 18.4507V20.1247C8.68359 24.209 11.9946 27.5199 16.0789 27.5199C20.1631 27.5199 23.474 24.209 23.474 20.1247V18.4507C23.474 22.535 20.1631 25.8459 16.0789 25.8459Z" fill="#F7C4A8"/>
<path d="M16.0799 21.8402C15.2784 23.3039 13.7049 23.3871 12.9933 23.3423C12.7762 23.3286 12.6014 23.1608 12.5747 22.945C12.1855 19.7969 14.4977 19.0356 16.0798 19.0356C17.6619 19.0356 19.9741 19.7968 19.585 22.945C19.5583 23.1608 19.3834 23.3286 19.1663 23.3423C18.4549 23.3871 16.8813 23.3039 16.0799 21.8402Z" fill="#E5907B"/>
<path d="M19.3434 18.1531C19.7295 18.1531 20.0423 17.8402 20.0423 17.4542V16.254C20.0423 15.8681 19.7295 15.5552 19.3434 15.5552C18.9573 15.5552 18.6445 15.8681 18.6445 16.254V17.4542C18.6445 17.8402 18.9573 18.1531 19.3434 18.1531Z" fill="#565D76"/>
<path d="M12.777 18.1531C13.163 18.1531 13.4759 17.8402 13.4759 17.4542V16.254C13.4759 15.8681 13.163 15.5552 12.777 15.5552C12.3909 15.5552 12.0781 15.8681 12.0781 16.254V17.4542C12.0781 17.8402 12.391 18.1531 12.777 18.1531Z" fill="#201429"/>
</svg>
