<svg width="32" height="32" viewBox="0 0 32 32" fill="none" xmlns="http://www.w3.org/2000/svg">
<path d="M16.0824 4.97998C20.8184 4.97998 25.902 8.80145 25.6308 15.451H6.53396C6.26277 8.80145 11.3463 4.97998 16.0824 4.97998Z" fill="#C1A19D" stroke="#DFD6E5"/>
<path d="M7.59584 19.5069L8.68573 18.444L9.49593 16.8104L8.69393 15.6753C8.36292 15.5112 7.99032 15.4185 7.59584 15.4185C6.52224 15.4185 5.60861 16.102 5.26562 17.0576C5.26562 18.7222 6.52224 19.5069 7.59584 19.5069V19.5069Z" fill="#EBBAA1"/>
<path d="M5.2663 17.0576C5.1725 17.3189 5.12109 17.6004 5.12109 17.8939C5.12109 19.2611 6.22944 20.3693 7.59652 20.3693C7.98766 20.3693 8.35747 20.2782 8.68641 20.1166L9.49661 19.2846L8.68641 18.444C8.35747 18.6056 7.98766 18.6967 7.59652 18.6967C6.52292 18.6967 5.60928 18.0132 5.2663 17.0576V17.0576Z" fill="#E8A990"/>
<path d="M24.5681 19.5069L23.4782 18.444L22.668 16.8104L23.47 15.6753C23.801 15.5112 24.1736 15.4185 24.5681 15.4185C25.6417 15.4185 26.5554 16.102 26.8984 17.0576C26.8983 18.7222 25.6417 19.5069 24.5681 19.5069V19.5069Z" fill="#EBBAA1"/>
<path d="M26.8983 17.0576C26.9921 17.3189 27.0435 17.6004 27.0435 17.8939C27.0435 19.2611 25.9352 20.3693 24.5681 20.3693C24.1768 20.3693 23.8071 20.2782 23.4782 20.1166L22.668 19.2846L23.4782 18.444C23.8071 18.6056 24.1769 18.6967 24.5681 18.6967C25.6417 18.6967 26.5553 18.0132 26.8983 17.0576V17.0576Z" fill="#E8A990"/>
<path d="M8.6875 18.4504C8.6875 23.7186 11.9992 26.6574 16.0843 26.6574H16.0844C20.7028 26.6574 23.4812 23.3496 23.4812 18.4504V16.0003C23.4812 11.9151 20.1696 8.60352 16.0844 8.60352C11.9992 8.60352 8.68759 11.9152 8.68759 16.0003V18.4504H8.6875Z" fill="#FDD4BB"/>
<path d="M16.0845 21.8389C15.2828 23.3032 13.7084 23.3862 12.997 23.3412C12.78 23.3276 12.6054 23.1599 12.5786 22.9442C12.1892 19.7951 14.5021 19.0337 16.0845 19.0337C17.667 19.0337 19.9799 19.7951 19.5904 22.9442C19.5638 23.1599 19.3891 23.3276 19.1721 23.3412C18.4607 23.3862 16.8864 23.3032 16.0845 21.8389Z" fill="#C1A19D"/>
<path d="M16.0843 25.8475C11.9991 25.8475 8.6875 22.5358 8.6875 18.4507V20.1234C8.6875 24.2086 11.9992 27.5202 16.0843 27.5202C20.1695 27.5202 23.4811 24.2086 23.4811 20.1234V18.4507C23.4811 22.5359 20.1694 25.8475 16.0843 25.8475V25.8475Z" fill="#F7C4A8"/>
<path d="M19.3858 18.1502C19.7715 18.1502 20.0841 17.8375 20.0841 17.4519V16.2515C20.0841 15.8659 19.7715 15.5532 19.3858 15.5532C19.0001 15.5532 18.6875 15.8659 18.6875 16.2515V17.4519C18.6875 17.8375 19.0001 18.1502 19.3858 18.1502Z" fill="#565D76"/>
<path d="M12.8233 18.1502C13.209 18.1502 13.5216 17.8375 13.5216 17.4519V16.2515C13.5216 15.8659 13.209 15.5532 12.8233 15.5532C12.4376 15.5532 12.125 15.8659 12.125 16.2515V17.4519C12.1249 17.8375 12.4376 18.1502 12.8233 18.1502Z" fill="#201429"/>
<path d="M15.085 13.6211C14.6993 13.6211 14.3867 13.9337 14.3867 14.3194C14.3867 14.705 14.6993 15.0177 15.085 15.0177H17.1272C17.5129 15.0177 17.8255 14.705 17.8255 14.3194C17.8255 13.9337 17.5129 13.6211 17.1272 13.6211H15.085Z" fill="#EBBAA1"/>
<path d="M14.6124 12.5289H17.5987C17.9845 12.5289 18.297 12.2163 18.297 11.8306C18.297 11.445 17.9845 11.1323 17.5987 11.1323H14.6124C14.2266 11.1323 13.9141 11.445 13.9141 11.8306C13.9141 12.2163 14.2266 12.5289 14.6124 12.5289Z" fill="#EBBAA1"/>
</svg>
