<svg width="32" height="32" viewBox="0 0 32 32" fill="none" xmlns="http://www.w3.org/2000/svg">
<mask id="mask0_375_21602" style="mask-type:alpha" maskUnits="userSpaceOnUse" x="4" y="4" width="24" height="24">
<path fill-rule="evenodd" clip-rule="evenodd" d="M4.00391 4H28.0011V28H4.00391V4Z" fill="white"/>
</mask>
<g mask="url(#mask0_375_21602)">
<path fill-rule="evenodd" clip-rule="evenodd" d="M16 4C22.6274 4 28 9.37258 28 16C28 22.6274 22.6274 28 16 28C9.37258 28 4 22.6274 4 16C4 9.37258 9.37258 4 16 4Z" fill="#FC8E82"/>
</g>
<path fill-rule="evenodd" clip-rule="evenodd" d="M28.0014 15.9999C28.0014 22.6299 22.6277 27.9999 16.0014 27.9999C12.2289 27.9999 8.86141 26.2599 6.66016 23.5337C8.71891 25.1987 11.3402 26.1924 14.1939 26.1924C20.8202 26.1924 26.1939 20.8224 26.1939 14.1924C26.1939 11.3387 25.2002 8.71744 23.5352 6.65869C26.2577 8.85994 28.0014 12.2274 28.0014 15.9999Z" fill="#DE685B"/>
<path fill-rule="evenodd" clip-rule="evenodd" d="M14.2887 12.6595C14.8714 15.415 12.9762 18.034 10.9497 17.9988C8.92545 17.9868 7.55595 16.2955 7.29195 14.6725C7.0662 13.0353 7.97145 11.2315 9.6732 10.1305C11.3404 9.03929 13.6999 9.90029 14.2887 12.6595Z" fill="#FFFFFE"/>
<path fill-rule="evenodd" clip-rule="evenodd" d="M10.5976 12.0203C11.4803 11.5508 12.6271 12.2393 12.9323 13.7363C13.2383 15.2236 12.4636 16.6688 11.4676 16.8151C10.4633 16.9681 9.66533 16.0366 9.46658 14.8733C9.27608 13.6996 9.70208 12.4951 10.5976 12.0203Z" fill="#353A3F"/>
<path fill-rule="evenodd" clip-rule="evenodd" d="M14.2907 12.6603C13.9637 11.1146 12.1082 10.8738 10.2985 11.7348C8.47599 12.6048 7.16124 13.7583 7.29174 14.6733C7.06674 13.0361 7.97199 11.2308 9.67299 10.1283C11.3402 9.0378 13.702 9.9003 14.2907 12.6603Z" fill="#009CCD"/>
<path fill-rule="evenodd" clip-rule="evenodd" d="M14.1297 12.2037C14.1327 12.2135 14.0112 12.0575 13.8155 11.9405C13.6122 11.8122 13.3145 11.7297 12.9642 11.714C12.2607 11.6772 11.3487 11.9435 10.4675 12.293C10.2425 12.3845 10.0197 12.482 9.81572 12.575C9.60347 12.674 9.39497 12.773 9.19697 12.878C8.79647 13.0775 8.44172 13.2972 8.14697 13.4975C7.85597 13.7022 7.62872 13.8972 7.49447 14.0652C7.36022 14.231 7.30247 14.3517 7.30247 14.3532C7.30997 14.3547 7.28072 14.2227 7.33172 13.9835C7.36247 13.8657 7.40672 13.7247 7.48472 13.5725C7.56272 13.4217 7.65872 13.2515 7.78772 13.0865C8.03447 12.7452 8.37722 12.3905 8.77472 12.059C8.97422 11.894 9.18647 11.7335 9.41222 11.5887C9.64322 11.4335 9.87722 11.3097 10.1105 11.1867C11.0675 10.7097 12.1662 10.5507 12.9942 10.9385C13.199 11.021 13.3835 11.1522 13.538 11.2835C13.694 11.4147 13.8155 11.5737 13.907 11.7087C14.09 12.0095 14.1192 12.206 14.1297 12.2037Z" fill="#51585A"/>
<path fill-rule="evenodd" clip-rule="evenodd" d="M17.064 12.66C16.4812 15.4155 18.3765 18.0345 20.403 17.9993C22.4272 17.9873 23.7967 16.296 24.0607 14.673C24.2865 13.0358 23.3812 11.232 21.6795 10.131C20.0115 9.03978 17.6527 9.90078 17.064 12.66Z" fill="#FFFFFE"/>
<path fill-rule="evenodd" clip-rule="evenodd" d="M20.5272 12.1419C19.6444 11.6724 18.4977 12.3609 18.1924 13.8579C17.8872 15.3452 18.6612 16.7904 19.6572 16.9367C20.6614 17.0897 21.4594 16.1582 21.6582 14.9949C21.8479 13.8219 21.4227 12.6167 20.5272 12.1419Z" fill="#353A3F"/>
<path fill-rule="evenodd" clip-rule="evenodd" d="M20.1073 14.0419C20.1756 14.4716 20.4891 14.8166 20.7891 14.8039C21.0898 14.7926 21.2676 14.4514 21.1986 14.0411C21.1296 13.6309 20.8423 13.2956 20.5408 13.2844C20.2401 13.2754 20.0383 13.6106 20.1073 14.0419Z" fill="#51585A"/>
<path fill-rule="evenodd" clip-rule="evenodd" d="M17.0625 12.6608C17.3895 11.1143 19.245 10.8743 21.0547 11.7353C22.8772 12.6053 24.192 13.7588 24.0615 14.6738C24.2872 13.0365 23.3812 11.2313 21.6802 10.1288C20.0137 9.03829 17.6513 9.90079 17.0625 12.6608Z" fill="#009CCD"/>
<path fill-rule="evenodd" clip-rule="evenodd" d="M17.2227 12.2042C17.2204 12.214 17.3412 12.058 17.5369 11.941C17.7402 11.8127 18.0379 11.7302 18.3882 11.7145C19.0917 11.6777 20.0037 11.944 20.8849 12.2935C21.1099 12.385 21.3327 12.4825 21.5367 12.5755C21.7489 12.6745 21.9574 12.7735 22.1554 12.8785C22.5559 13.078 22.9107 13.2977 23.2054 13.498C23.4964 13.7027 23.7237 13.8977 23.8587 14.0657C23.9922 14.2315 24.0507 14.3522 24.0507 14.3537C24.0432 14.3552 24.0724 14.2232 24.0214 13.984C23.9907 13.8662 23.9464 13.7252 23.8684 13.573C23.7904 13.4222 23.6944 13.252 23.5654 13.087C23.3187 12.7457 22.9759 12.391 22.5784 12.0595C22.3789 11.8945 22.1667 11.734 21.9409 11.5892C21.7099 11.434 21.4759 11.3102 21.2427 11.1872C20.2857 10.7102 19.1869 10.5512 18.3589 10.939C18.1542 11.0215 17.9697 11.1527 17.8152 11.284C17.6592 11.4152 17.5377 11.5742 17.4462 11.7092C17.2617 12.01 17.2332 12.2065 17.2227 12.2042Z" fill="#51585A"/>
<path fill-rule="evenodd" clip-rule="evenodd" d="M24.5012 10.0909C23.5524 9.40611 22.5159 8.83986 21.4442 8.47086C21.0437 8.35161 20.6439 8.23761 20.2622 8.19786C19.7574 8.11161 18.7269 8.14986 18.0977 7.92711C18.9437 6.96561 20.5127 7.27911 21.7239 7.74186C22.9584 8.26311 24.0864 9.34086 24.5012 10.0909Z" fill="#353A3F"/>
<path fill-rule="evenodd" clip-rule="evenodd" d="M7.26172 9.33782C7.80322 8.63057 9.08497 7.75082 10.3555 7.42457C11.6035 7.15082 13.1942 7.02707 13.915 8.14382C13.915 8.14382 13.7785 8.17007 13.5722 8.17682C12.433 8.23307 12.2905 7.93532 10.525 8.18732C9.35122 8.40482 8.14222 8.88257 7.26172 9.33782Z" fill="#353A3F"/>
<path fill-rule="evenodd" clip-rule="evenodd" d="M20.3879 23.9333C19.5509 24.138 17.7862 22.2728 15.5054 22.4318C13.2419 22.2638 11.4584 24.129 10.6229 23.9333C9.5467 23.8365 10.7902 19.1753 15.5054 19.1235C20.2514 19.1888 21.4574 23.8433 20.3879 23.9333Z" fill="#353A3F"/>
<mask id="mask1_375_21602" style="mask-type:alpha" maskUnits="userSpaceOnUse" x="4" y="4" width="24" height="24">
<path fill-rule="evenodd" clip-rule="evenodd" d="M4.00391 4H28.0011V28H4.00391V4Z" fill="white"/>
</mask>
<g mask="url(#mask1_375_21602)">
<path fill-rule="evenodd" clip-rule="evenodd" d="M11.2987 13.7765C11.367 14.2062 11.6805 14.5512 11.9805 14.5392C12.2812 14.528 12.459 14.1867 12.39 13.7765C12.321 13.3662 12.0337 13.031 11.7322 13.0197C11.4315 13.01 11.2297 13.3452 11.2987 13.7765Z" fill="#51585A"/>
<path fill-rule="evenodd" clip-rule="evenodd" d="M16 4C22.6274 4 28 9.37258 28 16C28 22.6274 22.6274 28 16 28C9.37258 28 4 22.6274 4 16C4 9.37258 9.37258 4 16 4Z" fill="#FC8E82"/>
</g>
<path fill-rule="evenodd" clip-rule="evenodd" d="M28.0014 15.9999C28.0014 22.6299 22.6277 27.9999 16.0014 27.9999C12.2289 27.9999 8.86141 26.2599 6.66016 23.5337C8.71891 25.1987 11.3402 26.1924 14.1939 26.1924C20.8202 26.1924 26.1939 20.8224 26.1939 14.1924C26.1939 11.3387 25.2002 8.71744 23.5352 6.65869C26.2577 8.85994 28.0014 12.2274 28.0014 15.9999Z" fill="#DE685B"/>
<path fill-rule="evenodd" clip-rule="evenodd" d="M14.765 13.7253C14.765 16.0743 13.283 17.9845 11.4395 17.9845C9.60653 17.9845 8.11328 16.075 8.11328 13.7253C8.11328 11.3763 9.60578 9.4668 11.4395 9.4668C13.2838 9.4668 14.765 11.377 14.765 13.7253Z" fill="#DE685B"/>
<path fill-rule="evenodd" clip-rule="evenodd" d="M14.0986 13.4506C14.0986 15.3166 12.9129 16.8421 11.4421 16.8421C9.98188 16.8421 8.79688 15.3166 8.79688 13.4506C8.79688 11.5741 9.98263 10.0479 11.4421 10.0479C12.9129 10.0486 14.0986 11.5741 14.0986 13.4506Z" fill="#FFFFFE"/>
<path fill-rule="evenodd" clip-rule="evenodd" d="M10.5703 13.9465C10.7796 12.9738 11.5766 12.3203 12.3504 12.4869C13.1243 12.6534 13.5819 13.5769 13.3725 14.5495C13.1632 15.5222 12.3662 16.1757 11.5924 16.0091C10.8186 15.8426 10.3609 14.9191 10.5703 13.9465Z" fill="#353A3F"/>
<path fill-rule="evenodd" clip-rule="evenodd" d="M12.8762 13.8451C12.7532 13.9111 12.5619 13.7844 12.4449 13.5654C12.3279 13.3464 12.3317 13.1064 12.4517 13.0516C12.5747 12.9856 12.7689 13.1019 12.8859 13.3209C12.9999 13.5504 12.9992 13.7799 12.8762 13.8451Z" fill="#51585A"/>
<path fill-rule="evenodd" clip-rule="evenodd" d="M16.543 13.7253C16.543 16.0743 18.025 17.9845 19.8685 17.9845C21.7015 17.9845 23.1947 16.075 23.1947 13.7253C23.1947 11.3763 21.7022 9.4668 19.8685 9.4668C18.025 9.4668 16.543 11.377 16.543 13.7253Z" fill="#DE685B"/>
<path fill-rule="evenodd" clip-rule="evenodd" d="M17.2148 13.4506C17.2148 15.3166 18.4006 16.8421 19.8713 16.8421C21.3316 16.8421 22.5166 15.3166 22.5166 13.4506C22.5166 11.5741 21.3308 10.0479 19.8713 10.0479C18.4006 10.0486 17.2148 11.5741 17.2148 13.4506Z" fill="#FFFFFE"/>
<path fill-rule="evenodd" clip-rule="evenodd" d="M18.9596 12.4869C19.7334 12.3203 20.5304 12.9738 20.7397 13.9465C20.9491 14.9191 20.4915 15.8426 19.7176 16.0091C18.9438 16.1757 18.1468 15.5222 17.9374 14.5495C17.7281 13.5769 18.1857 12.6534 18.9596 12.4869Z" fill="#353A3F"/>
<path fill-rule="evenodd" clip-rule="evenodd" d="M18.4378 13.8451C18.5608 13.9111 18.7521 13.7844 18.8691 13.5654C18.9861 13.3464 18.9823 13.1064 18.8623 13.0516C18.7393 12.9856 18.5451 13.1019 18.4281 13.3209C18.3141 13.5504 18.3141 13.7799 18.4378 13.8451Z" fill="#51585A"/>
<path fill-rule="evenodd" clip-rule="evenodd" d="M18.957 5.88792C18.957 5.88792 22.0245 6.72642 23.4375 9.58467C23.4375 9.58392 22.02 3.77667 18.957 5.88792Z" fill="#C0483B"/>
<path fill-rule="evenodd" clip-rule="evenodd" d="M13.3244 5.99346C13.3244 5.99346 10.1999 6.58746 8.56641 9.32421C8.56641 9.32496 10.4377 3.64746 13.3244 5.99346Z" fill="#C0483B"/>
<path fill-rule="evenodd" clip-rule="evenodd" d="M21.1954 21.9536C21.2944 26.5023 17.8294 24.8583 13.7576 23.5263C10.8341 22.5701 9.39411 24.5208 9.42636 21.9528C9.39261 19.3878 10.8334 21.3393 13.7576 20.3808C17.8294 19.0496 21.2951 17.3966 21.1954 21.9536Z" fill="#C0483B"/>
<path fill-rule="evenodd" clip-rule="evenodd" d="M20.8572 19.9396C19.901 18.0436 17.027 19.3126 13.7585 20.3806C12.2105 20.8884 11.0825 20.5831 10.364 20.5614C10.3565 20.8741 10.4015 21.3594 10.8222 21.5701C11.405 21.8619 16.8252 21.2956 18.5397 20.7811C19.6415 20.4504 20.4372 20.3274 20.8572 19.9396Z" fill="#FFFFFE"/>
<path fill-rule="evenodd" clip-rule="evenodd" d="M20.9362 23.7752C20.3234 23.2179 18.7799 23.5584 17.9549 23.3102C16.9912 23.0199 11.6782 22.2894 11.0602 22.6502C10.7924 22.8062 10.6874 23.0747 10.6484 23.3289C11.3677 23.2622 12.3997 23.0822 13.7557 23.5254C17.1269 24.6279 20.0744 25.9337 20.9362 23.7752Z" fill="#FFFFFE"/>
</svg>
