<svg width="34" height="34" viewBox="0 0 34 34" fill="none" xmlns="http://www.w3.org/2000/svg">
<path d="M32.0984 23.6676L32.0972 23.6703C31.9006 24.1093 31.6888 24.5402 31.4548 24.9622C31.337 25.18 31.2128 25.3928 31.0863 25.6L32.0984 23.6676ZM32.0984 23.6676C32.9975 21.6288 33.5 19.3706 33.5 17C33.5 7.88645 26.1136 0.5 17 0.5C7.88645 0.5 0.5 7.88645 0.5 17C0.5 19.4585 1.03774 21.7984 2.01139 23.9017C2.45063 24.858 2.98144 25.7637 3.58584 26.6085M32.0984 23.6676L17.3192 32.9931M30.3627 26.6831L30.3627 26.6831C30.3387 26.7151 30.3237 26.7362 30.3065 26.7605C30.2936 26.7787 30.2795 26.7986 30.2594 26.8261C30.2442 26.849 30.2292 26.8679 30.2167 26.8824C29.4132 27.9536 28.4813 28.9225 27.449 29.7721L27.4475 29.7734C27.0632 30.0872 26.6632 30.3882 26.2476 30.6688L26.2474 30.6689C25.9452 30.8728 25.6333 31.0713 25.3124 31.2568C25.0943 31.3834 24.8727 31.5065 24.6477 31.626L24.6448 31.6276C23.0203 32.477 21.2396 33.0647 19.3493 33.3337M30.3627 26.6831L17.3192 32.9931M30.3627 26.6831L30.3676 26.6764M30.3627 26.6831L30.3676 26.6764M19.3493 33.3337L19.2789 32.8387L19.3503 33.3336C19.35 33.3336 19.3496 33.3337 19.3493 33.3337ZM19.3493 33.3337C18.69 33.4289 18.0209 33.4819 17.3387 33.4929M17.3387 33.4929C17.3429 33.4926 17.3471 33.4924 17.3514 33.4921L17.3192 32.9931M17.3387 33.4929C17.3348 33.493 17.3308 33.493 17.3269 33.4931L17.3192 32.9931M17.3387 33.4929C17.2206 33.5 17.1053 33.5 17.0065 33.5H17C15.6697 33.5 14.371 33.3408 13.1321 33.0435L13.1318 33.0434C11.3235 32.6081 9.62833 31.8757 8.10648 30.899M8.10648 30.899C8.10608 30.8988 8.10569 30.8985 8.1053 30.8983L8.37538 30.4775L8.10747 30.8996C8.10713 30.8994 8.10681 30.8992 8.10648 30.899ZM8.10648 30.899C7.55373 30.5482 7.02575 30.162 6.52264 29.7405C5.8111 29.1597 5.14967 28.5158 4.54519 27.8194L4.54315 27.817C4.27139 27.5 4.00316 27.172 3.75073 26.8309C3.69524 26.758 3.64093 26.6856 3.58584 26.6085M3.58584 26.6085L3.99271 26.3179M3.58584 26.6085C3.58592 26.6086 3.586 26.6087 3.58607 26.6088L3.99271 26.3179M3.99271 26.3179C4.04419 26.39 4.09567 26.4586 4.15058 26.5307M3.99271 26.3179L4.15058 26.5307M4.15058 26.5307C4.39425 26.8601 4.65509 27.1793 4.92278 27.4916C5.50966 28.1677 6.15144 28.7924 6.84127 29.3552L4.15058 26.5307ZM30.3676 26.6764C30.618 26.3308 30.8588 25.9732 31.0862 25.6002L30.3676 26.6764Z" fill="#C2B0CF" stroke="#DFD6E5"/>
<path d="M25.0604 30.821C23.3169 31.8403 21.3641 32.537 19.2774 32.8356C18.6356 32.9282 17.9836 32.9797 17.3178 32.99C17.2114 32.9969 17.105 32.9969 16.9986 32.9969C15.7081 32.9969 14.4486 32.8424 13.2474 32.5541C11.4936 32.132 9.84971 31.4216 8.37395 30.4743C7.83856 30.1346 7.32719 29.7605 6.83984 29.3521C6.8673 25.1685 7.18304 21.3452 8.19548 20.4323C8.70342 19.9724 9.31089 19.6121 9.95267 19.3341C11.4387 18.6923 13.0998 18.4761 14.1912 18.404C14.9153 18.3559 15.3855 18.3731 15.3855 18.3731C15.3855 18.3731 16.3568 18.4108 17.661 18.555C18.0213 18.5996 18.3851 18.6442 18.7661 18.6991C20.9866 19.0183 23.588 19.6395 24.2607 20.8133C24.8407 21.8223 25.026 26.3422 25.0604 30.821Z" fill="#FFC5A4"/>
<path d="M20.0709 9.99537L13.4574 15.0027C13.4574 15.0027 9.8538 11.3853 11.3193 9.31926C12.2288 8.03226 14.0683 7.4145 15.3278 7.12965C15.472 7.09876 15.6058 7.0713 15.7328 7.04728C16.2751 6.94088 16.6389 6.91 16.6389 6.91L16.6423 6.93059C16.8722 6.84479 19.1648 5.18713 20.4209 5.73625C22.1472 6.48786 20.0709 9.99537 20.0709 9.99537Z" fill="#201429"/>
<path d="M14.1454 15.7852L13.9258 19.3373C13.9258 19.3373 14.5024 20.3978 16.5719 20.6929C18.1128 20.9126 18.6791 20.5968 18.6791 20.5968L18.5727 18.7847L18.4663 17.0172L14.7632 15.9602L14.1454 15.7852Z" fill="#F7F4F2"/>
<path d="M14.7656 15.96C14.7691 16.0561 14.7999 16.1727 14.848 16.31C15.5344 18.1324 17.6828 18.6507 18.5752 18.7845L18.4688 17.017L14.7656 15.96Z" fill="#201429"/>
<path d="M19.7594 8.96588C19.7594 8.96588 21.3518 13.5339 20.4629 15.9672C19.5775 18.397 17.3432 17.8308 16.0254 17.2473C14.7075 16.6639 14.1446 15.7853 14.1446 15.7853C14.1446 15.7853 12.8473 16.1182 12.0923 14.8758C11.3372 13.6334 11.9619 12.3258 12.7066 12.0718C13.4514 11.8179 14.2716 12.4048 14.2716 12.4048L13.6985 11.0697C13.695 11.0663 17.0309 4.75482 19.7594 8.96588Z" fill="#F7F4F2"/>
<path d="M14.0318 14.3439C13.9941 14.3439 13.9563 14.3301 13.922 14.3061L12.3913 13.0569C12.3192 12.9985 12.3055 12.8887 12.3673 12.8166C12.4256 12.7445 12.5355 12.7308 12.6075 12.7926L14.1382 14.0418C14.2103 14.1002 14.224 14.21 14.1622 14.2821C14.1313 14.3233 14.0799 14.3439 14.0318 14.3439Z" fill="#201429"/>
<path d="M12.5735 14.2337C12.4946 14.2337 12.4225 14.1754 12.4053 14.093C12.3882 14.0004 12.4465 13.9111 12.5426 13.8905L13.6134 13.6846C13.7061 13.6675 13.7953 13.7258 13.8159 13.8219C13.833 13.9146 13.7747 14.0038 13.6786 14.0244L12.6078 14.2303C12.5941 14.2337 12.5838 14.2337 12.5735 14.2337Z" fill="#201429"/>
<path d="M16.6802 10.8772C16.6391 10.8772 16.6013 10.8635 16.567 10.836C16.4949 10.7743 16.4881 10.6644 16.5498 10.5924C17.0818 9.98146 17.7373 10.1428 18.0084 10.3109C18.0874 10.3624 18.1148 10.4654 18.0633 10.5477C18.0119 10.6267 17.9089 10.6507 17.8265 10.6027C17.7716 10.5683 17.2706 10.2903 16.8072 10.8189C16.7729 10.8601 16.7283 10.8772 16.6802 10.8772Z" fill="#201429"/>
<path d="M20.1344 10.7334C20.0932 10.7334 20.0486 10.7197 20.0177 10.6888C19.6745 10.3662 19.2764 10.5652 19.273 10.5652C19.1872 10.6099 19.0842 10.5755 19.043 10.4897C18.9984 10.4039 19.0327 10.301 19.1185 10.2598C19.1425 10.2461 19.7363 9.95434 20.2545 10.4383C20.3232 10.5035 20.3266 10.6099 20.2614 10.6819C20.2236 10.7162 20.179 10.7334 20.1344 10.7334Z" fill="#201429"/>
<path d="M19.3256 14.0765C19.305 14.0765 19.2844 14.073 19.2672 14.0662C19.178 14.0318 19.1334 13.9357 19.1643 13.8465C19.6207 12.6041 19.0098 11.8765 19.003 11.8697C18.9412 11.7976 18.948 11.6912 19.0201 11.626C19.0922 11.5642 19.1986 11.5711 19.2638 11.6432C19.2947 11.6775 20.012 12.5321 19.4869 13.9632C19.4594 14.0353 19.3942 14.0765 19.3256 14.0765Z" fill="#201429"/>
<path d="M20.0112 12.4394C19.9322 12.4394 19.8602 12.3845 19.843 12.3021L19.6714 11.475C19.668 11.4647 19.668 11.451 19.668 11.4407C19.668 11.3618 19.7229 11.2897 19.8053 11.2725C19.8979 11.2519 19.9871 11.3137 20.0077 11.4064L20.1793 12.2335C20.1828 12.2438 20.1828 12.2575 20.1828 12.2678C20.1828 12.3467 20.1279 12.4188 20.0455 12.436C20.0352 12.4394 20.0249 12.4394 20.0112 12.4394Z" fill="#201429"/>
<path d="M17.414 12.5009C17.3351 12.5009 17.263 12.446 17.2459 12.3636L17.0743 11.5365C17.0537 11.4439 17.1155 11.3512 17.2081 11.334C17.3008 11.3135 17.3935 11.3752 17.4106 11.4679L17.5822 12.295C17.6028 12.3877 17.541 12.4803 17.4484 12.4975C17.4381 12.4975 17.4243 12.5009 17.414 12.5009Z" fill="#201429"/>
<path d="M20.073 9.99573C20.073 9.99573 19.7298 9.25785 18.8443 9.19607C17.9589 9.1343 17.4029 9.72803 17.4029 9.72803C17.4029 9.72803 17.7015 11.245 16.4453 11.9623C15.1927 12.6796 14.2729 12.4016 14.2729 12.4016L13.4183 12.0378L12.8555 10.7199L15.553 8.14931L18.9335 6.62207L20.5088 8.23854L20.073 9.99573Z" fill="#201429"/>
<path d="M18.3434 15.4383C18.2062 15.4383 17.3859 15.4039 17.0667 14.5974C17.0324 14.5082 17.0736 14.4087 17.1628 14.3743C17.2486 14.34 17.3516 14.3812 17.3859 14.4704C17.6364 15.1054 18.3194 15.0951 18.3503 15.0951C18.4395 15.0916 18.5253 15.1671 18.5253 15.2598C18.5288 15.3559 18.4533 15.4348 18.3606 15.4348C18.3606 15.4383 18.3537 15.4383 18.3434 15.4383Z" fill="#201429"/>
<path d="M17.7105 20.9707C15.3836 20.9707 13.6126 19.3611 13.5268 19.2787C13.4582 19.2135 13.4548 19.1071 13.5165 19.035C13.5818 18.9664 13.6882 18.9595 13.7602 19.0247C13.7842 19.0453 16.1008 21.1492 18.7984 20.4936C18.8911 20.4696 18.9837 20.528 19.0043 20.6206C19.0283 20.7133 18.97 20.806 18.8773 20.8265C18.4792 20.9261 18.088 20.9707 17.7105 20.9707Z" fill="#F7F4F2"/>
<path d="M29.9635 26.3828C29.9189 26.4445 29.8777 26.5029 29.8331 26.5612C29.0506 27.608 28.1411 28.5552 27.1321 29.3858C26.7615 29.6878 26.3771 29.9795 25.979 30.2472L23 28.9774L24.0674 20.5449L29.9635 26.3828Z" fill="#FFC5A4"/>
</svg>
