<svg width="32" height="32" viewBox="0 0 32 32" fill="none" xmlns="http://www.w3.org/2000/svg">
<mask id="mask0_375_21661" style="mask-type:alpha" maskUnits="userSpaceOnUse" x="4" y="4" width="24" height="24">
<path fill-rule="evenodd" clip-rule="evenodd" d="M4.00391 4H28.0011V28H4.00391V4Z" fill="white"/>
</mask>
<g mask="url(#mask0_375_21661)">
<path fill-rule="evenodd" clip-rule="evenodd" d="M16 4C22.6274 4 28 9.37258 28 16C28 22.6274 22.6274 28 16 28C9.37258 28 4 22.6274 4 16C4 9.37258 9.37258 4 16 4Z" fill="#9C9EB9"/>
</g>
<path fill-rule="evenodd" clip-rule="evenodd" d="M28.0014 15.9999C28.0014 22.6299 22.6277 27.9999 16.0014 27.9999C12.2289 27.9999 8.86141 26.2599 6.66016 23.5337C8.71891 25.1987 11.3402 26.1924 14.1939 26.1924C20.8202 26.1924 26.1939 20.8224 26.1939 14.1924C26.1939 11.3387 25.2002 8.71744 23.5352 6.65869C26.2577 8.85994 28.0014 12.2274 28.0014 15.9999Z" fill="#888AAC"/>
<path fill-rule="evenodd" clip-rule="evenodd" d="M12.1242 12.1411C13.1398 12.1411 13.9632 13.1196 13.9632 14.3266C13.9632 15.5336 13.1398 16.5121 12.1242 16.5121C11.1085 16.5121 10.2852 15.5336 10.2852 14.3266C10.2852 13.1196 11.1085 12.1411 12.1242 12.1411Z" fill="#353A3F"/>
<path fill-rule="evenodd" clip-rule="evenodd" d="M12.956 13.8566C12.8128 13.9691 12.5773 13.9136 12.4265 13.7306C12.2758 13.5476 12.2683 13.3024 12.4115 13.1899C12.554 13.0721 12.7903 13.1276 12.9403 13.3106C13.0918 13.4989 13.0933 13.7396 12.956 13.8566Z" fill="#51585A"/>
<path fill-rule="evenodd" clip-rule="evenodd" d="M19.8781 12.1411C20.8937 12.1411 21.7171 13.1196 21.7171 14.3266C21.7171 15.5336 20.8937 16.5121 19.8781 16.5121C18.8624 16.5121 18.0391 15.5336 18.0391 14.3266C18.0391 13.1196 18.8624 12.1411 19.8781 12.1411Z" fill="#353A3F"/>
<path fill-rule="evenodd" clip-rule="evenodd" d="M20.706 13.8566C20.5628 13.9691 20.3273 13.9136 20.1765 13.7306C20.0258 13.5476 20.0183 13.3024 20.1615 13.1899C20.304 13.0721 20.5395 13.1276 20.6903 13.3106C20.8418 13.4989 20.8433 13.7396 20.706 13.8566Z" fill="#51585A"/>
<path fill-rule="evenodd" clip-rule="evenodd" d="M9.66909 21.7892H8.89491C8.68111 21.7892 8.50781 21.6159 8.50781 21.4021V20.6279H10.0562V21.4021C10.0562 21.6159 9.88289 21.7892 9.66909 21.7892Z" fill="white"/>
<path fill-rule="evenodd" clip-rule="evenodd" d="M11.9933 21.7892H11.2191C11.0053 21.7892 10.832 21.6159 10.832 21.4021V20.6279H12.3804V21.4021C12.3805 21.6159 12.2071 21.7892 11.9933 21.7892Z" fill="white"/>
<path fill-rule="evenodd" clip-rule="evenodd" d="M14.3136 21.7892H13.5394C13.3256 21.7892 13.1523 21.6159 13.1523 21.4021V20.6279H14.7007V21.4021C14.7007 21.6159 14.5274 21.7892 14.3136 21.7892Z" fill="white"/>
<path fill-rule="evenodd" clip-rule="evenodd" d="M16.6378 21.7892H15.8637C15.6499 21.7892 15.4766 21.6159 15.4766 21.4021V20.6279H17.0249V21.4021C17.0249 21.6159 16.8516 21.7892 16.6378 21.7892Z" fill="white"/>
<path fill-rule="evenodd" clip-rule="evenodd" d="M18.9621 21.7892H18.1879C17.9741 21.7892 17.8008 21.6159 17.8008 21.4021V20.6279H19.3492V21.4021C19.3492 21.6159 19.1758 21.7892 18.9621 21.7892Z" fill="white"/>
<path fill-rule="evenodd" clip-rule="evenodd" d="M21.2824 21.7892H20.5082C20.2944 21.7892 20.1211 21.6159 20.1211 21.4021V20.6279H21.6695V21.4021C21.6695 21.6159 21.4962 21.7892 21.2824 21.7892Z" fill="white"/>
<path fill-rule="evenodd" clip-rule="evenodd" d="M19.348 19.4668H20.1222C20.336 19.4668 20.5093 19.6401 20.5093 19.8539V20.6281H18.9609V19.8539C18.9609 19.6401 19.1342 19.4668 19.348 19.4668Z" fill="white"/>
<path fill-rule="evenodd" clip-rule="evenodd" d="M17.0238 19.4668H17.798C18.0118 19.4668 18.1851 19.6401 18.1851 19.8539V20.6281H16.6367V19.8539C16.6367 19.6401 16.8101 19.4668 17.0238 19.4668Z" fill="white"/>
<path fill-rule="evenodd" clip-rule="evenodd" d="M14.7035 19.4668H15.4777C15.6915 19.4668 15.8648 19.6401 15.8648 19.8539V20.6281H14.3164V19.8539C14.3164 19.6401 14.4897 19.4668 14.7035 19.4668Z" fill="white"/>
<path fill-rule="evenodd" clip-rule="evenodd" d="M12.3793 19.4668H13.1535C13.3673 19.4668 13.5406 19.6401 13.5406 19.8539V20.6281H11.9922V19.8539C11.9921 19.6401 12.1655 19.4668 12.3793 19.4668Z" fill="white"/>
<path fill-rule="evenodd" clip-rule="evenodd" d="M10.0551 19.4668H10.8293C11.043 19.4668 11.2163 19.6401 11.2163 19.8539V20.6281H9.66797V19.8539C9.66797 19.6401 9.84127 19.4668 10.0551 19.4668Z" fill="white"/>
<path fill-rule="evenodd" clip-rule="evenodd" d="M22.5575 20.5814C22.3382 20.3622 22.0464 20.2412 21.7364 20.2412H8.12147C7.90748 20.2412 7.73438 20.4144 7.73438 20.6283C7.73438 20.8422 7.90753 21.0154 8.12147 21.0154H21.7364C21.8381 21.0154 21.9379 21.0566 22.0101 21.1288L22.9446 22.0632L23.4919 21.5159L22.5575 20.5814Z" fill="#A9A5A7"/>
<path fill-rule="evenodd" clip-rule="evenodd" d="M25.3426 24.46L24.7231 23.8404L25.2705 23.293L25.8901 23.9125L25.3426 24.46ZM26.4375 23.3651L24.5215 21.449C24.068 20.9955 23.3327 20.9955 22.8792 21.449C22.4257 21.9025 22.4257 22.6378 22.8792 23.0913L24.7952 25.0074C25.0976 25.3097 25.5878 25.3097 25.8901 25.0074L26.4375 24.4599C26.7399 24.1576 26.7399 23.6674 26.4375 23.3651Z" fill="white"/>
<path fill-rule="evenodd" clip-rule="evenodd" d="M25.8181 22.7456L25.2706 23.2931L25.8902 23.9126L25.3427 24.4601L24.7232 23.8405L24.1758 24.3879L24.7953 25.0075C25.0977 25.3098 25.5879 25.3098 25.8902 25.0075L26.4376 24.46C26.74 24.1577 26.74 23.6675 26.4376 23.3652L25.8181 22.7456Z" fill="#A9A5A7"/>
</svg>
