<svg width="32" height="32" viewBox="0 0 32 32" fill="none" xmlns="http://www.w3.org/2000/svg">
<mask id="mask0_375_22375" style="mask-type:alpha" maskUnits="userSpaceOnUse" x="4" y="4" width="24" height="24">
<path fill-rule="evenodd" clip-rule="evenodd" d="M4.00391 4H28.0011V28H4.00391V4Z" fill="white"/>
</mask>
<g mask="url(#mask0_375_22375)">
<path fill-rule="evenodd" clip-rule="evenodd" d="M16 4C22.6274 4 28 9.37258 28 16C28 22.6274 22.6274 28 16 28C9.37258 28 4 22.6274 4 16C4 9.37258 9.37258 4 16 4Z" fill="#8FACFF"/>
</g>
<path fill-rule="evenodd" clip-rule="evenodd" d="M28.0028 16.0254C28.0028 22.6413 22.6405 27.9999 16.0284 27.9999C12.2639 27.9999 8.90359 26.2636 6.70703 23.5431C8.76139 25.2046 11.3771 26.1962 14.2247 26.1962C20.8369 26.1962 26.1992 20.8377 26.1992 14.2218C26.1992 11.3741 25.2075 8.75846 23.5461 6.7041C26.2628 8.90066 28.0028 12.261 28.0028 16.0254Z" fill="#849DE4"/>
<path fill-rule="evenodd" clip-rule="evenodd" d="M19.5517 21.9153C19.5517 22.2943 19.2746 22.5914 18.9327 22.5914H13.0721C12.7303 22.5914 12.4531 22.2935 12.4531 21.9153C12.4531 21.542 12.7303 21.2393 13.0721 21.2393H18.9327C19.2738 21.2393 19.5517 21.542 19.5517 21.9153Z" fill="#353A3F"/>
<path fill-rule="evenodd" clip-rule="evenodd" d="M9.18087 16.1916C9.48224 16.008 10.374 16.9979 11.7745 17.0522C13.2243 17.1081 14.0668 16.008 14.3681 16.1916C14.7435 16.3249 14.2317 18.8636 11.7745 18.8732C9.31806 18.8636 8.8055 16.3249 9.18087 16.1916Z" fill="#353A3F"/>
<path fill-rule="evenodd" clip-rule="evenodd" d="M8.80328 15.416C8.53865 15.3711 8.35785 15.1066 8.40086 14.825C8.44387 14.5442 8.68882 14.3516 8.95783 14.398C11.6902 14.8637 12.5205 12.7929 12.5286 12.7721C12.6292 12.5083 12.912 12.3814 13.1621 12.4889C13.4107 12.5965 13.5302 12.8974 13.4289 13.1611C12.8807 14.586 11.1587 15.8175 8.80328 15.416Z" fill="#6B7FBA"/>
<path fill-rule="evenodd" clip-rule="evenodd" d="M22.8213 16.1916C22.52 16.008 21.6282 16.9979 20.2277 17.0522C18.7779 17.1081 17.9354 16.008 17.6341 16.1916C17.2587 16.3249 17.7705 18.8636 20.2277 18.8732C22.6841 18.8636 23.1967 16.3249 22.8213 16.1916Z" fill="#353A3F"/>
<path fill-rule="evenodd" clip-rule="evenodd" d="M18.5712 13.1611C18.4699 12.8974 18.5894 12.5966 18.838 12.4891C19.0859 12.3816 19.3688 12.5076 19.4709 12.7698C19.5073 12.8626 20.3421 14.8586 23.0424 14.3984C23.31 14.352 23.5571 14.5446 23.5994 14.8253C23.6417 15.1068 23.4616 15.3713 23.197 15.4161C20.8582 15.8152 19.1238 14.5987 18.5712 13.1611Z" fill="#6B7FBA"/>
</svg>
