<svg width="32" height="32" viewBox="0 0 32 32" fill="none" xmlns="http://www.w3.org/2000/svg">
<mask id="mask0_375_21531" style="mask-type:alpha" maskUnits="userSpaceOnUse" x="4" y="4" width="24" height="24">
<path fill-rule="evenodd" clip-rule="evenodd" d="M4.00391 4H28.0011V28H4.00391V4Z" fill="white"/>
</mask>
<g mask="url(#mask0_375_21531)">
<path fill-rule="evenodd" clip-rule="evenodd" d="M16 4C22.6274 4 28 9.37258 28 16C28 22.6274 22.6274 28 16 28C9.37258 28 4 22.6274 4 16C4 9.37258 9.37258 4 16 4Z" fill="#9C9EB9"/>
</g>
<path fill-rule="evenodd" clip-rule="evenodd" d="M28.0014 15.9999C28.0014 22.6299 22.6277 27.9999 16.0014 27.9999C12.2289 27.9999 8.86141 26.2599 6.66016 23.5337C8.71891 25.1987 11.3402 26.1924 14.1939 26.1924C20.8202 26.1924 26.1939 20.8224 26.1939 14.1924C26.1939 11.3387 25.2002 8.71744 23.5352 6.65869C26.2577 8.85994 28.0014 12.2274 28.0014 15.9999Z" fill="#888AAC"/>
<path fill-rule="evenodd" clip-rule="evenodd" d="M17.2773 7.70731C17.2773 7.70731 22.3773 6.94981 24.0648 9.26956C24.0648 9.26956 23.5496 4.00006 17.2773 7.70731Z" fill="#4F5174"/>
<path fill-rule="evenodd" clip-rule="evenodd" d="M14.725 7.70731C14.725 7.70731 9.625 6.94981 7.9375 9.26956C7.9375 9.26956 8.45275 4.00006 14.725 7.70731Z" fill="#4F5174"/>
<path fill-rule="evenodd" clip-rule="evenodd" d="M20.3812 18.2207C20.4112 22.5482 18.6187 25.5032 16.0012 25.4507C13.3762 25.5032 11.5837 22.5482 11.6137 18.2207C11.5837 13.9007 13.3762 10.9457 16.0012 10.9982C18.6187 10.9457 20.4112 13.9007 20.3812 18.2207Z" fill="#4F5174"/>
<path fill-rule="evenodd" clip-rule="evenodd" d="M18.6489 19.2931C18.1014 18.8356 17.3439 18.7606 16.7064 19.0531C16.1132 19.3126 15.5559 19.3651 14.9439 19.3231C13.7739 19.2181 12.6414 19.7881 12.1914 20.8831C12.1089 21.0781 12.0489 21.2806 12.0039 21.4906C12.0062 21.4988 12.0054 21.5108 12.0077 21.5191C12.6684 23.9731 14.1189 25.4881 16.0014 25.4506C17.8877 25.4881 19.3412 23.9588 19.9974 21.4846C19.7867 20.6176 19.3082 19.8548 18.6489 19.2931Z" fill="#FF9B90"/>
<path fill-rule="evenodd" clip-rule="evenodd" d="M12.75 13.086C13.6522 12.7785 14.7765 12.4133 15.999 12.4133C17.2222 12.4133 18.3465 12.7785 19.2495 13.0868C18.4755 11.745 17.3497 10.9718 16.0027 10.9988C14.6527 10.971 13.5247 11.7443 12.75 13.086Z" fill="#FFFFFE"/>
<path fill-rule="evenodd" clip-rule="evenodd" d="M19.3397 23.1963C18.5019 23.4805 17.3559 23.959 15.9992 23.959C14.6432 23.959 13.4972 23.4805 12.6602 23.197C13.4364 24.64 14.5989 25.4793 16.0029 25.4515C17.4039 25.4785 18.5642 24.64 19.3397 23.1963Z" fill="#FFFFFE"/>
</svg>
