<svg width="40" height="40" viewBox="0 0 40 40" fill="none" xmlns="http://www.w3.org/2000/svg">
<path fill-rule="evenodd" clip-rule="evenodd" d="M22.4864 20.8187C26.8546 20.8187 30.3958 17.2776 30.3958 12.9094C30.3958 8.54114 26.8546 5 22.4864 5C18.1182 5 14.5771 8.54114 14.5771 12.9094C14.5771 17.2776 18.1182 20.8187 22.4864 20.8187ZM22.4864 18.1823C25.3986 18.1823 27.7593 15.8215 27.7593 12.9094C27.7593 9.99721 25.3986 7.63645 22.4864 7.63645C19.5743 7.63645 17.2135 9.99721 17.2135 12.9094C17.2135 15.8215 19.5743 18.1823 22.4864 18.1823ZM21.1593 23.4476C21.2436 24.1707 20.7257 24.8252 20.0025 24.9095C15.0202 25.49 13.188 27.7862 12.464 29.3723C12.413 29.4842 12.4152 29.5515 12.4203 29.5858C12.4262 29.6249 12.4454 29.68 12.5007 29.7463C12.6196 29.8885 12.8845 30.0462 13.2589 30.0462L19.85 30.0462C20.578 30.0462 21.1682 30.6364 21.1682 31.3644C21.1682 32.0925 20.578 32.6826 19.85 32.6826L13.2589 32.6827C12.1772 32.6827 11.1428 32.233 10.4775 31.4366C9.77946 30.6011 9.54034 29.4284 10.0656 28.2776C11.1801 25.8357 13.8168 22.9759 19.6974 22.2908C20.4205 22.2065 21.0751 22.7244 21.1593 23.4476ZM11.6909 8.07117C12.4044 7.92634 12.8654 7.23053 12.7206 6.51705C12.5757 5.80356 11.8799 5.34258 11.1664 5.48741C7.55568 6.22035 4.83755 9.41056 4.83755 13.2386C4.83755 17.0666 7.55568 20.2568 11.1664 20.9897C11.8799 21.1346 12.5757 20.6736 12.7206 19.9601C12.8654 19.2466 12.4044 18.5508 11.6909 18.406C9.28467 17.9175 7.47401 15.788 7.47401 13.2386C7.47401 10.6891 9.28467 8.55961 11.6909 8.07117ZM5.16833 29.4225C5.43818 28.3835 5.90133 27.2909 6.66567 26.4744C7.39212 25.6984 8.45017 25.1029 10.1105 25.1029C10.8385 25.1029 11.4287 24.5127 11.4287 23.7847C11.4287 23.0566 10.8385 22.4664 10.1105 22.4664C7.7104 22.4664 5.95875 23.3717 4.74093 24.6727C3.561 25.9332 2.94531 27.4939 2.61653 28.7598C1.97956 31.2124 4.06573 33.0123 6.15574 33.0123H7.16975C7.89778 33.0123 8.48797 32.4221 8.48797 31.694C8.48797 30.966 7.89778 30.3758 7.16975 30.3758H6.15574C5.7833 30.3758 5.48671 30.2227 5.31809 30.0364C5.16537 29.8677 5.10462 29.6678 5.16833 29.4225ZM37.5 28.2544C37.5 32.6226 33.9589 36.1637 29.5906 36.1637C25.2224 36.1637 21.6813 32.6226 21.6813 28.2544C21.6813 23.8862 25.2224 20.345 29.5906 20.345C33.9589 20.345 37.5 23.8862 37.5 28.2544ZM34.8635 28.2544C34.8635 31.1665 32.5028 33.5273 29.5906 33.5273C26.6785 33.5273 24.3177 31.1665 24.3177 28.2544C24.3177 25.3422 26.6785 22.9815 29.5906 22.9815C32.5028 22.9815 34.8635 25.3422 34.8635 28.2544ZM31.9507 26.9908C32.2319 27.2949 32.2134 27.7694 31.9093 28.0506L29.2468 30.5131C28.9511 30.7866 28.4921 30.7777 28.2072 30.4928L26.9697 29.2553C26.6768 28.9624 26.6768 28.4876 26.9697 28.1947C27.2626 27.9018 27.7375 27.9018 28.0304 28.1947L28.7578 28.9221L30.8908 26.9494C31.1949 26.6682 31.6694 26.6867 31.9507 26.9908Z" fill="white"/>
</svg>
