<svg width="40" height="40" viewBox="0 0 40 40" fill="none" xmlns="http://www.w3.org/2000/svg">
<path fill-rule="evenodd" clip-rule="evenodd" d="M29.7685 12.7315C29.7685 17.0015 26.307 20.463 22.037 20.463C17.767 20.463 14.3054 17.0015 14.3054 12.7315C14.3054 8.46152 17.767 5 22.037 5C26.307 5 29.7685 8.46152 29.7685 12.7315ZM27.1913 12.7315C27.1913 15.5782 24.8836 17.8859 22.037 17.8859C19.1903 17.8859 16.8826 15.5782 16.8826 12.7315C16.8826 9.88485 19.1903 7.57717 22.037 7.57717C24.8836 7.57717 27.1913 9.88485 27.1913 12.7315ZM19.6089 24.4618C20.3158 24.3795 20.8221 23.7397 20.7397 23.0328C20.6574 22.3259 20.0176 21.8196 19.3107 21.902C13.5623 22.5717 10.9849 25.3672 9.89544 27.7542C9.38199 28.8791 9.61573 30.0255 10.298 30.8422C10.9484 31.6206 11.9595 32.0602 13.0169 32.0602L19.4598 32.0602C20.1715 32.0602 20.7484 31.4833 20.7484 30.7716C20.7484 30.06 20.1715 29.483 19.4598 29.483L13.0169 29.4831C12.651 29.4831 12.392 29.3289 12.2758 29.1898C12.2217 29.1251 12.2029 29.0713 12.1972 29.033C12.1922 28.9994 12.19 28.9337 12.24 28.8243C12.9476 27.2738 14.7386 25.0293 19.6089 24.4618ZM32.502 24.1722C33.0052 24.6755 33.0052 25.4913 32.502 25.9946L31.5908 26.9058L32.502 27.817C33.0052 28.3202 33.0052 29.1361 32.502 29.6393C31.9988 30.1425 31.1829 30.1425 30.6797 29.6393L29.7685 28.7281L28.8573 29.6392C28.3541 30.1425 27.5382 30.1425 27.035 29.6392C26.5318 29.136 26.5318 28.3201 27.035 27.8169L27.9461 26.9058L27.035 25.9946C26.5318 25.4914 26.5318 24.6755 27.035 24.1723C27.5382 23.6691 28.3541 23.6691 28.8573 24.1723L29.7685 25.0834L30.6797 24.1722C31.1829 23.669 31.9988 23.669 32.502 24.1722ZM29.7685 34.6375C34.0385 34.6375 37.5 31.176 37.5 26.906C37.5 22.636 34.0385 19.1745 29.7685 19.1745C25.4985 19.1745 22.037 22.636 22.037 26.906C22.037 31.176 25.4985 34.6375 29.7685 34.6375ZM29.7685 32.0603C32.6152 32.0603 34.9228 29.7527 34.9228 26.906C34.9228 24.0593 32.6152 21.7516 29.7685 21.7516C26.9218 21.7516 24.6141 24.0593 24.6141 26.906C24.6141 29.7527 26.9218 32.0603 29.7685 32.0603ZM12.4908 6.48298C12.6323 7.18042 12.1817 7.86058 11.4843 8.00215C9.13212 8.47961 7.36217 10.5612 7.36217 13.0534C7.36217 15.5455 9.13212 17.6271 11.4843 18.1046C12.1817 18.2462 12.6323 18.9263 12.4908 19.6238C12.3492 20.3212 11.669 20.7718 10.9716 20.6303C7.44201 19.9138 4.78499 16.7953 4.78499 13.0534C4.78499 9.31143 7.44201 6.19295 10.9716 5.47648C11.669 5.33491 12.3492 5.78553 12.4908 6.48298ZM6.57201 25.9916C5.82485 26.7898 5.37212 27.8578 5.10833 28.8735C5.04606 29.1132 5.10544 29.3086 5.25473 29.4735C5.41956 29.6556 5.70948 29.8053 6.07355 29.8053H7.06475C7.77642 29.8053 8.35334 30.3822 8.35334 31.0939C8.35334 31.8055 7.77642 32.3825 7.06475 32.3825H6.07355C4.03052 32.3825 1.99126 30.6231 2.61391 28.2256C2.9353 26.9881 3.53715 25.4625 4.69055 24.2304C5.88099 22.9587 7.59325 22.0738 9.93934 22.0738C10.651 22.0738 11.2279 22.6507 11.2279 23.3623C11.2279 24.074 10.651 24.6509 9.93934 24.6509C8.31639 24.6509 7.28213 25.233 6.57201 25.9916Z" fill="white"/>
</svg>
