<svg width="40" height="40" viewBox="0 0 40 40" fill="none" xmlns="http://www.w3.org/2000/svg">
<path fill-rule="evenodd" clip-rule="evenodd" d="M30.1547 12.7328C30.1547 17.0036 26.6926 20.4657 22.4218 20.4657C18.1511 20.4657 14.689 17.0036 14.689 12.7328C14.689 8.46211 18.1511 5 22.4218 5C26.6926 5 30.1547 8.46211 30.1547 12.7328ZM27.5771 12.7328C27.5771 15.58 25.269 17.8881 22.4218 17.8881C19.5747 17.8881 17.2666 15.58 17.2666 12.7328C17.2666 9.88568 19.5747 7.57761 22.4218 7.57761C25.269 7.57761 27.5771 9.88568 27.5771 12.7328ZM19.9934 24.4651C20.7004 24.3828 21.2067 23.7429 21.1244 23.0358C21.042 22.3288 20.4021 21.8225 19.6951 21.9049C13.9457 22.5747 11.3679 25.3707 10.2782 27.758C9.7647 28.8832 9.99848 30.0297 10.6809 30.8466C11.3314 31.6252 12.3427 32.0648 13.4003 32.0648L19.8442 32.0648C20.556 32.0648 21.133 31.4878 21.133 30.776C21.133 30.0642 20.556 29.4872 19.8442 29.4872L13.4003 29.4872C13.0342 29.4872 12.7752 29.333 12.659 29.194C12.6049 29.1292 12.5861 29.0753 12.5804 29.0371C12.5754 29.0035 12.5732 28.9377 12.6231 28.8283C13.3309 27.2776 15.1222 25.0327 19.9934 24.4651ZM30.1544 23.0433C30.8662 23.0433 31.4432 23.6203 31.4432 24.3321V25.6209H32.732C33.4438 25.6209 34.0208 26.1979 34.0208 26.9097C34.0208 27.6215 33.4438 28.1985 32.732 28.1985H31.4432V29.4873C31.4432 30.1991 30.8662 30.7761 30.1544 30.7761C29.4426 30.7761 28.8656 30.1991 28.8656 29.4873V28.1985H27.5768C26.865 28.1985 26.288 27.6215 26.288 26.9097C26.288 26.1979 26.865 25.6209 27.5768 25.6209H28.8656V24.3321C28.8656 23.6203 29.4426 23.0433 30.1544 23.0433ZM30.1547 34.6425C34.4254 34.6425 37.8875 31.1804 37.8875 26.9097C37.8875 22.639 34.4254 19.1769 30.1547 19.1769C25.8839 19.1769 22.4218 22.639 22.4218 26.9097C22.4218 31.1804 25.8839 34.6425 30.1547 34.6425ZM30.1547 32.0649C33.0018 32.0649 35.3099 29.7569 35.3099 26.9097C35.3099 24.0626 33.0018 21.7545 30.1547 21.7545C27.3075 21.7545 24.9994 24.0626 24.9994 26.9097C24.9994 29.7569 27.3075 32.0649 30.1547 32.0649ZM12.4908 6.48296C12.6323 7.1804 12.1817 7.86056 11.4843 8.00213C9.13212 8.47959 7.36217 10.5612 7.36217 13.0534C7.36217 15.5455 9.13212 17.6271 11.4843 18.1046C12.1817 18.2461 12.6323 18.9263 12.4908 19.6237C12.3492 20.3212 11.669 20.7718 10.9716 20.6302C7.44201 19.9138 4.78499 16.7953 4.78499 13.0534C4.78499 9.31141 7.44201 6.19293 10.9716 5.47647C11.669 5.33489 12.3492 5.78551 12.4908 6.48296ZM6.57201 25.9916C5.82485 26.7898 5.37212 27.8577 5.10833 28.8734C5.04606 29.1132 5.10544 29.3086 5.25473 29.4735C5.41956 29.6556 5.70948 29.8053 6.07355 29.8053H7.06475C7.77642 29.8053 8.35334 30.3822 8.35334 31.0939C8.35334 31.8055 7.77642 32.3824 7.06475 32.3824H6.07355C4.03052 32.3824 1.99126 30.6231 2.61391 28.2256C2.9353 26.9881 3.53715 25.4625 4.69055 24.2304C5.88099 22.9587 7.59325 22.0737 9.93934 22.0737C10.651 22.0737 11.2279 22.6507 11.2279 23.3623C11.2279 24.074 10.651 24.6509 9.93934 24.6509C8.31639 24.6509 7.28213 25.233 6.57201 25.9916Z" fill="white"/>
</svg>
