<svg width="40" height="40" viewBox="0 0 40 40" fill="none" xmlns="http://www.w3.org/2000/svg">
<path fill-rule="evenodd" clip-rule="evenodd" d="M20.1752 21.6496C24.4277 21.6496 27.875 18.2023 27.875 13.9498C27.875 9.69731 24.4277 6.25 20.1752 6.25C15.9227 6.25 12.4754 9.69731 12.4754 13.9498C12.4754 18.2023 15.9227 21.6496 20.1752 21.6496ZM20.1752 19.083C23.0102 19.083 25.3084 16.7848 25.3084 13.9498C25.3084 11.1148 23.0102 8.8166 20.1752 8.8166C17.3402 8.8166 15.042 11.1148 15.042 13.9498C15.042 16.7848 17.3402 19.083 20.1752 19.083ZM12.4498 7.40609C12.5907 8.10067 12.142 8.77804 11.4474 8.91903C9.1049 9.39453 7.34221 11.4676 7.34221 13.9495C7.34221 16.4314 9.1049 18.5045 11.4474 18.98C12.142 19.121 12.5907 19.7984 12.4498 20.4929C12.3088 21.1875 11.6314 21.6363 10.9368 21.4953C7.42172 20.7818 4.77561 17.6761 4.77561 13.9495C4.77561 10.2229 7.42172 7.11726 10.9368 6.40373C11.6314 6.26274 12.3088 6.71151 12.4498 7.40609ZM13.371 24.9522C14.9532 23.7378 17.1582 22.9329 20.1753 22.9329C23.1923 22.9329 25.3974 23.7378 26.9795 24.9522C28.5498 26.1576 29.404 27.6875 29.8673 28.9755C30.2751 30.1091 29.9894 31.2187 29.3056 32.0051C28.6453 32.7646 27.6454 33.1993 26.5917 33.1993H13.7587C12.705 33.1993 11.7052 32.7646 11.0448 32.0051C10.361 31.2187 10.0753 30.109 10.4831 28.9754C10.9464 27.6875 11.8007 26.1576 13.371 24.9522ZM14.9338 26.9881C13.8531 27.8177 13.2434 28.8846 12.8982 29.8442C12.8262 30.0444 12.8658 30.1878 12.9816 30.321C13.1209 30.4812 13.395 30.6327 13.7587 30.6327H26.5917C26.9554 30.6327 27.2296 30.4812 27.3688 30.321C27.4846 30.1878 27.5242 30.0444 27.4522 29.8442C27.1071 28.8846 26.4974 27.8177 25.4167 26.9882C24.3478 26.1677 22.7148 25.4995 20.1753 25.4995C17.6357 25.4995 16.0027 26.1677 14.9338 26.9881ZM6.5553 26.8347C5.81121 27.6295 5.36033 28.6931 5.09763 29.7047C5.03561 29.9435 5.09475 30.1381 5.24342 30.3023C5.40758 30.4836 5.69631 30.6327 6.05888 30.6327H7.04602C7.75476 30.6327 8.32931 31.2072 8.32931 31.916C8.32931 32.6247 7.75476 33.1993 7.04602 33.1993H6.05888C4.02424 33.1993 1.99335 31.4471 2.61344 29.0595C2.93351 27.8271 3.53289 26.3077 4.68155 25.0807C5.86711 23.8142 7.57235 22.9329 9.90881 22.9329C10.6176 22.9329 11.1921 23.5074 11.1921 24.2162C11.1921 24.9249 10.6176 25.4995 9.90881 25.4995C8.29252 25.4995 7.2625 26.0792 6.5553 26.8347ZM27.5502 7.40609C27.4093 8.10067 27.858 8.77804 28.5526 8.91903C30.8951 9.39453 32.6578 11.4676 32.6578 13.9495C32.6578 16.4314 30.8951 18.5045 28.5526 18.98C27.858 19.121 27.4093 19.7984 27.5502 20.4929C27.6912 21.1875 28.3686 21.6363 29.0632 21.4953C32.5783 20.7818 35.2244 17.6761 35.2244 13.9495C35.2244 10.2229 32.5783 7.11726 29.0632 6.40373C28.3686 6.26274 27.6912 6.71151 27.5502 7.40609ZM33.4447 26.8347C34.1888 27.6295 34.6397 28.6932 34.9024 29.7047C34.9644 29.9435 34.9053 30.1381 34.7566 30.3023C34.5924 30.4836 34.3037 30.6327 33.9411 30.6327H32.954C32.2452 30.6327 31.6707 31.2072 31.6707 31.916C31.6707 32.6247 32.2452 33.1993 32.954 33.1993H33.9411C35.9758 33.1993 38.0066 31.4471 37.3866 29.0595C37.0665 27.8271 36.4671 26.3077 35.3184 25.0807C34.1329 23.8142 32.4277 22.9329 30.0912 22.9329C29.3824 22.9329 28.8079 23.5074 28.8079 24.2162C28.8079 24.9249 29.3824 25.4995 30.0912 25.4995C31.7075 25.4995 32.7375 26.0792 33.4447 26.8347Z" fill="white"/>
</svg>
