<svg width="32" height="32" viewBox="0 0 32 32" fill="none" xmlns="http://www.w3.org/2000/svg">
<path d="M16.0019 23.3402C19.9336 23.3402 23.121 20.1529 23.121 16.2211C23.121 12.2894 19.9336 9.10205 16.0019 9.10205C12.0701 9.10205 8.88281 12.2894 8.88281 16.2211C8.88281 20.1529 12.0701 23.3402 16.0019 23.3402Z" fill="#FFA921"/>
<path d="M15.2852 4H16.7173V7.83716H15.2852V4Z" fill="#FEB644"/>
<path d="M5.05859 10.731L5.77468 9.4907L9.09766 11.4093L8.38158 12.6495L5.05859 10.731Z" fill="#FEB644"/>
<path d="M5.05859 21.7109L8.38158 19.7924L9.09766 21.0326L5.77468 22.9512L5.05859 21.7109Z" fill="#FEB644"/>
<path d="M15.2852 24.605H16.7173V28.4421H15.2852V24.605Z" fill="#FEB644"/>
<path d="M22.9062 21.0337L23.6223 19.7934L26.9453 21.712L26.2292 22.9523L22.9062 21.0337Z" fill="#FEB644"/>
<path d="M22.9023 11.4087L26.2253 9.49011L26.9414 10.7304L23.6184 12.649L22.9023 11.4087Z" fill="#FEB644"/>
<path d="M9.37891 6.18701L10.6192 5.47093L11.8456 7.59508L10.6053 8.31116L9.37891 6.18701Z" fill="#FEB644"/>
<path d="M4 15.5049H6.45283V16.9371H4V15.5049Z" fill="#FEB644"/>
<path d="M9.37891 26.2554L10.6053 24.1312L11.8456 24.8473L10.6192 26.9715L9.37891 26.2554Z" fill="#FEB644"/>
<path d="M20.1523 24.8472L21.3926 24.1311L22.619 26.2552L21.3788 26.9713L20.1523 24.8472Z" fill="#FEB644"/>
<path d="M25.5469 15.5049H27.9997V16.9371H25.5469V15.5049Z" fill="#FEB644"/>
<path d="M20.1523 7.59521L21.3788 5.47107L22.619 6.18715L21.3926 8.3113L20.1523 7.59521Z" fill="#FEB644"/>
<path d="M22.9062 21.0337L23.6223 19.7934L26.9453 21.712L26.2292 22.9523L22.9062 21.0337Z" fill="#FFA921"/>
<path d="M22.9023 11.4087L26.2253 9.49011L26.9414 10.7304L23.6184 12.649L22.9023 11.4087Z" fill="#FFA921"/>
<path d="M20.1523 24.8472L21.3926 24.1311L22.619 26.2552L21.3788 26.9713L20.1523 24.8472Z" fill="#FFA921"/>
<path d="M25.5469 15.5049H27.9997V16.9371H25.5469V15.5049Z" fill="#FFA921"/>
<path d="M20.1523 7.59521L21.3788 5.47107L22.619 6.18715L21.3926 8.3113L20.1523 7.59521Z" fill="#FFA921"/>
<path d="M23.1191 16.2211C23.1191 12.2956 19.9255 9.10205 16 9.10205V23.3402C19.9255 23.3402 23.1191 20.1466 23.1191 16.2211Z" fill="#FEB644"/>
<path d="M16 4H16.7161V7.83716H16V4Z" fill="#FFA921"/>
<path d="M16 24.605H16.7161V28.4421H16V24.605Z" fill="#FFA921"/>
</svg>
