<svg width="56" height="56" viewBox="0 0 56 56" fill="none" xmlns="http://www.w3.org/2000/svg">
<g clip-path="url(#clip0_33746_197955)">
<path d="M9.21543 1.72137L15.2868 7.79266C16.0577 8.56354 16.0577 9.81326 15.2868 10.5841L10.7736 15.0974C10.0027 15.8683 8.75299 15.8683 7.98212 15.0974L1.91071 9.02609C1.49487 8.61024 0.787539 8.80252 0.633648 9.37007C-0.518946 13.621 0.571085 18.3527 3.90877 21.6904C7.54112 25.3226 12.8241 26.2928 17.3421 24.6079L43.6177 53.3409C46.3157 56.2912 50.9296 56.3942 53.7566 53.5673C56.597 50.7269 56.4775 46.0865 53.4947 43.3961L24.6961 17.4208C26.5218 12.8454 25.5841 7.42363 21.8799 3.71932C18.5422 0.381633 13.8104 -0.708399 9.55941 0.444195C8.99187 0.598086 8.79959 1.30552 9.21543 1.72137ZM50.748 48.5575C50.748 49.7184 49.8069 50.6595 48.646 50.6595C47.4851 50.6595 46.544 49.7184 46.544 48.5575C46.544 47.3966 47.4851 46.4555 48.646 46.4555C49.8069 46.4555 50.748 47.3966 50.748 48.5575Z" fill="#4D4354"/>
<path d="M22.3043 14.7727L24.8349 17.0553C26.47 12.559 25.4868 7.32528 21.8806 3.71897C21.6099 3.44827 21.329 3.19419 21.041 2.95312C23.4197 6.47402 23.8405 10.9228 22.3043 14.7727Z" fill="#201429"/>
<path d="M41.207 50.7057L43.6191 53.3433C46.317 56.2936 50.931 56.3966 53.758 53.5697C56.5984 50.7294 56.4788 46.0888 53.4961 43.3985L52.5172 42.5156C54.0193 45.1793 53.6532 48.6344 51.3655 50.9221C48.5384 53.7489 43.905 53.6561 41.207 50.7057Z" fill="#201429"/>
<path d="M17.3426 24.6107L14.95 21.963C10.7692 23.5223 5.93431 22.8061 2.35742 19.8125C2.80542 20.4755 3.32211 21.1062 3.90912 21.6932C7.54147 25.3255 12.8246 26.2957 17.3426 24.6107Z" fill="#201429"/>
<path d="M33.4532 25.3203L31.2194 27.5541L29.7232 26.0578C28.796 25.1307 27.2927 25.1307 26.3656 26.0578L24.3211 28.1023C24.836 29.4283 24.8339 30.9087 24.3145 32.2333L29.2575 37.6387C30.3384 37.1349 31.5451 36.9902 32.6984 37.2048C33.3845 37.3325 34.0894 37.1152 34.5828 36.6217L35.7561 35.4484C36.6832 34.5213 36.6832 33.0181 35.7561 32.091C34.9297 31.2646 34.9297 29.9248 35.7561 29.0985L36.6502 28.2042L33.4532 25.3203Z" fill="#201429"/>
<path d="M55.5124 6.96789L51.6704 3.12588C51.3008 2.7563 50.679 2.85025 50.4351 3.31247L48.3668 7.23105L29.4668 26.1308L32.5073 29.1713L51.4073 10.2716L55.3259 8.20318C55.7881 7.95927 55.882 7.33747 55.5124 6.96789Z" fill="#DFD6E5"/>
<path d="M55.5123 6.96213L54.5423 5.99219C54.6102 6.31605 54.4677 6.66955 54.1455 6.83952L50.2269 8.90791L31.327 27.8077L29.5556 26.0362L29.4668 26.1251L32.5073 29.1656L51.4072 10.2658L55.3258 8.19741C55.788 7.9535 55.8818 7.3317 55.5123 6.96213Z" fill="#C2B0CF"/>
<path d="M26.086 37.1481C27.7263 35.5078 30.1208 35.0837 32.1527 35.8726L34.1972 33.8282C35.1243 32.901 35.1243 31.3978 34.1972 30.4706L28.1642 24.4376C27.237 23.5104 25.7337 23.5104 24.8067 24.4376L22.7622 26.482C23.5512 28.514 23.1269 30.9084 21.4867 32.5487C19.8465 34.189 17.452 34.6132 15.42 33.8242L4.5816 44.6626C1.98843 47.2558 1.98843 51.4601 4.5816 54.0532C7.17477 56.6464 11.379 56.6464 13.9722 54.0532L24.8106 43.2148C24.0215 41.183 24.4457 38.7884 26.086 37.1481Z" fill="#FFC850"/>
<path d="M34.1978 30.4735L32.7713 29.0469C32.9711 29.832 32.7665 30.6988 32.1521 31.3131L30.1077 33.3576C28.0758 32.5686 25.6813 32.9929 24.041 34.6331C22.4007 36.2734 21.9764 38.6678 22.7654 40.6998L11.927 51.5382C9.56112 53.9041 5.85484 54.1103 3.25391 52.1591C3.57295 52.846 4.0157 53.4895 4.58227 54.0561C7.17544 56.6493 11.3797 56.6493 13.9729 54.0561L24.8113 43.2177C24.0224 41.1857 24.4466 38.7913 26.0868 37.151C27.7271 35.5107 30.1215 35.0866 32.1535 35.8755L34.198 33.831C35.125 32.9039 35.125 31.4006 34.1978 30.4735Z" fill="#FEB644"/>
<path d="M8.42033 48.0776C8.19381 48.0776 7.9673 47.9912 7.79438 47.8184C7.44875 47.4726 7.44875 46.9122 7.79438 46.5665L16.1798 38.181C16.5256 37.8355 17.086 37.8355 17.4317 38.181C17.7774 38.5267 17.7774 39.0872 17.4317 39.4329L9.04628 47.8184C8.87336 47.9912 8.64673 48.0776 8.42033 48.0776Z" fill="#EE6C4D"/>
<path d="M11.518 51.1792C11.2915 51.1792 11.065 51.0927 10.892 50.9199C10.5464 50.5742 10.5464 50.0138 10.892 49.668L19.2775 41.2826C19.6232 40.9371 20.1837 40.9371 20.5294 41.2826C20.875 41.6283 20.875 42.1887 20.5294 42.5345L12.1439 50.9199C11.971 51.0927 11.7444 51.1792 11.518 51.1792Z" fill="#EE6C4D"/>
</g>
<defs>
<clipPath id="clip0_33746_197955">
<rect width="56" height="56" fill="white"/>
</clipPath>
</defs>
</svg>
