<svg width="66" height="60" viewBox="0 0 66 60" fill="none" xmlns="http://www.w3.org/2000/svg">
<circle cx="20" cy="20" r="20" fill="#EE6C4D" fill-opacity="0.16"/>
<path d="M48.4636 33.9664C48.3927 34.0082 48.3213 34.0487 48.2495 34.0878C43.4567 36.7015 39.2657 29.6414 43.8751 26.7187C43.944 26.675 44.0139 26.6322 44.0848 26.5905C48.0513 24.2546 53.4563 26.049 53.4563 26.049C53.4563 26.049 52.4302 31.6306 48.4636 33.9664V33.9664Z" fill="#09A66D"/>
<path d="M47.4201 25.493C49.0119 25.678 50.1296 26.0489 50.1296 26.0489C50.1296 26.0489 49.1035 31.6305 45.1369 33.9663C45.066 34.0081 44.9946 34.0485 44.9228 34.0877C44.7832 34.1638 44.6442 34.2309 44.5059 34.291C45.5816 34.7916 46.8928 34.8294 48.2528 34.0877C48.3247 34.0486 48.396 34.0081 48.4669 33.9663C52.4335 31.6305 53.4596 26.0489 53.4596 26.0489C53.4596 26.0489 50.5415 25.0802 47.4201 25.493V25.493Z" fill="#028F5D"/>
<path d="M25.8617 25.0585C25.926 25.1335 25.991 25.2075 26.0568 25.2804C31.7582 31.5986 41.5321 23.2961 36.1647 16.6942C36.1029 16.6181 36.0398 16.5426 35.9757 16.4677C31.3567 11.0757 22.5551 11 22.5551 11C22.5551 11 21.2427 19.6665 25.8617 25.0585V25.0585Z" fill="#09A66D"/>
<path d="M36.1653 16.6941C36.1035 16.618 36.0405 16.5425 35.9763 16.4676C31.3572 11.0757 22.5557 11 22.5557 11C22.5557 11 22.5369 11.1251 22.5117 11.3526C25.4938 11.8795 29.8411 13.1931 32.6462 16.4676C32.7104 16.5425 32.7734 16.618 32.8353 16.6941C36.384 21.0591 33.3137 26.1672 29.1779 27.3017C34.6104 28.862 40.6328 22.1892 36.1653 16.6941V16.6941Z" fill="#028F5D"/>
<path d="M43.477 22.5973C43.4596 22.6551 43.4412 22.7126 43.422 22.7695C42.1336 26.5684 35.9522 24.7896 36.9701 20.9128C36.9853 20.8548 37.0016 20.7968 37.0189 20.739C37.9918 17.5008 42.0096 15.8047 42.0096 15.8047C42.0096 15.8047 44.4499 19.359 43.477 22.5973V22.5973Z" fill="#09A66D"/>
<path d="M42.0054 15.8047C42.0054 15.8047 40.7722 16.3255 39.5069 17.3404C40.1056 18.6762 40.7154 20.6913 40.1428 22.5973C40.1254 22.6551 40.107 22.7126 40.0878 22.7695C39.811 23.5858 39.3079 24.1438 38.6992 24.4796C40.3726 25.2854 42.6854 24.9288 43.4178 22.7695C43.4371 22.7126 43.4554 22.6552 43.4728 22.5973C44.4458 19.359 42.0054 15.8047 42.0054 15.8047V15.8047Z" fill="#028F5D"/>
<path d="M49.0419 28.5901C48.9025 28.2746 48.5336 28.1319 48.2184 28.2714C47.076 28.7762 46.0481 29.3037 45.1204 29.8632C45.0892 29.8785 45.0595 29.897 45.0311 29.9174C43.2622 30.9958 41.862 32.1937 40.7353 33.5796C39.8091 34.7189 39.0866 35.9681 38.5617 37.3408C38.4719 36.0783 38.3501 34.9106 38.1939 33.8226C38.196 33.8048 38.1977 33.7869 38.1982 33.7687C38.3963 26.8869 40.8373 21.5562 40.862 21.5032C41.0073 21.1907 40.8719 20.8194 40.5593 20.6738C40.2466 20.5282 39.8753 20.6638 39.7297 20.9764C39.646 21.1561 38.0607 24.6099 37.3163 29.6252C37.1211 28.9461 36.9049 28.2984 36.666 27.6765C35.7543 25.3034 34.5218 23.3328 32.9438 21.4014L33.2742 18.6354C33.315 18.293 33.0706 17.9822 32.7282 17.9413C32.3867 17.9008 32.075 18.1448 32.0341 18.4873L31.8397 20.1154C31.1756 19.3751 30.4607 18.6289 29.6921 17.856C29.449 17.6115 29.0537 17.6104 28.8092 17.8535C28.5646 18.0967 28.5635 18.492 28.8067 18.7365C31.9124 21.8596 34.1154 24.5194 35.5003 28.1244C36.9075 31.7877 37.508 36.4116 37.508 43.5853V45.8027C37.508 46.1475 37.7875 46.427 38.1324 46.427C38.4773 46.427 38.7568 46.1475 38.7568 45.8027V43.5853C38.7568 39.8221 39.7209 36.8068 41.7041 34.3673C42.6889 33.156 43.9109 32.095 45.4448 31.1303L46.772 31.729C46.8553 31.7667 46.9426 31.7845 47.0284 31.7845C47.2663 31.7845 47.4937 31.6477 47.5979 31.4168C47.7397 31.1024 47.5999 30.7327 47.2855 30.5908L46.7735 30.3599C47.3802 30.035 48.0289 29.7204 48.7229 29.4136C49.0386 29.2742 49.1813 28.9055 49.0419 28.5901V28.5901Z" fill="#018053"/>
<path d="M48.0761 47.5884H46.4261V46.6447C46.4261 44.9554 45.0567 43.5859 43.3674 43.5859H32.7694C31.0802 43.5859 29.7107 44.9553 29.7107 46.6447V47.5884H28.0607C26.3714 47.5884 25.002 48.9578 25.002 50.6471V52.3727H51.1348V50.6471C51.1349 48.9578 49.7654 47.5884 48.0761 47.5884Z" fill="#C2B0CF"/>
<path d="M48.072 47.5884H46.4219V46.6447C46.4219 44.9554 45.0526 43.5859 43.3632 43.5859H40.0332C41.7224 43.5859 43.0919 44.9553 43.0919 46.6447V47.5884H44.7419C46.4312 47.5884 47.8007 48.9578 47.8007 50.6471V52.3727H51.1307V50.6471C51.1307 48.9578 49.7612 47.5884 48.072 47.5884Z" fill="#DFD6E5"/>
<path d="M33.5348 47.1316C34.3383 47.1316 34.3397 45.8828 33.5348 45.8828C32.7313 45.8828 32.7299 47.1316 33.5348 47.1316Z" fill="#4D4354"/>
<path d="M38.1305 49.2175C38.934 49.2175 38.9354 47.9688 38.1305 47.9688C37.327 47.9688 37.3256 49.2175 38.1305 49.2175Z" fill="#4D4354"/>
<path d="M28.1129 50.8191C28.9165 50.8191 28.9178 49.5703 28.1129 49.5703C27.3094 49.5703 27.308 50.8191 28.1129 50.8191Z" fill="#4D4354"/>
<path d="M48.4664 50.8191C49.27 50.8191 49.2713 49.5703 48.4664 49.5703C47.6629 49.5703 47.6616 50.8191 48.4664 50.8191Z" fill="#4D4354"/>
<path d="M55.0074 52.9988H21.1244C20.7795 52.9988 20.5 52.7192 20.5 52.3744C20.5 52.0296 20.7795 51.75 21.1244 51.75H55.0074C55.3523 51.75 55.6318 52.0296 55.6318 52.3744C55.6318 52.7192 55.3523 52.9988 55.0074 52.9988Z" fill="#09A66D"/>
</svg>
