<svg width="32" height="32" viewBox="0 0 32 32" fill="none" xmlns="http://www.w3.org/2000/svg">
<g clip-path="url(#clip0_33746_197770)">
<path d="M30.3404 7.98419C29.4254 7.98419 28.6807 8.72857 28.6807 9.64361C28.6807 10.0706 28.8431 10.4603 29.1087 10.7547L25.546 17.4446C25.398 17.4011 25.2418 17.3774 25.0799 17.3774C24.6942 17.3774 24.339 17.5103 24.0567 17.7319L23.3468 17.2673C23.661 16.2498 23.8224 15.1814 23.8224 14.0845C23.8224 10.7728 22.3295 7.69465 19.7262 5.63997C19.5226 5.47908 19.2272 5.51399 19.0665 5.71761C18.9059 5.92122 18.9406 6.21638 19.1442 6.37727C21.5204 8.25275 22.8829 11.0621 22.8829 14.0845C22.8829 16.1372 22.2652 18.0811 21.0917 19.7393L19.743 18.3906C20.5736 17.1069 21.0106 15.6267 21.0106 14.0845C21.0106 12.1831 20.3282 10.3436 19.089 8.9046C17.9513 7.58332 16.4123 6.67366 14.7213 6.31477V4.40878C15.7414 4.58163 16.7211 4.91341 17.6405 5.39852C17.87 5.51936 18.1542 5.43172 18.275 5.20223C18.3961 4.97274 18.3082 4.6888 18.0788 4.56771C16.8996 3.94564 15.63 3.55331 14.3053 3.40146C14.1725 3.38632 14.039 3.42856 13.9391 3.51767C13.8393 3.60678 13.7821 3.73422 13.7821 3.86801V6.70515C13.7821 6.9361 13.9499 7.13264 14.1779 7.16901C15.8046 7.42805 17.296 8.26202 18.3773 9.51739C19.4696 10.7862 20.0714 12.408 20.0714 14.0845C20.0714 14.4199 20.0468 14.7517 20.0004 15.0786L15.0766 11.858C15.2848 11.5015 15.4049 11.0874 15.4049 10.6456C15.4049 9.31622 14.3234 8.23468 12.9938 8.23468C11.6645 8.23468 10.5829 9.31622 10.5829 10.6456C10.5829 11.3462 10.8837 11.9778 11.3625 12.4187L6.98336 17.5562C6.40743 16.5498 6.08908 15.4099 6.06637 14.2217C6.06124 13.9624 5.84835 13.7559 5.58761 13.761C5.32834 13.7661 5.12204 13.9803 5.12717 14.2398C5.15524 15.7024 5.57785 17.1004 6.34054 18.3106L5.08298 19.7859C3.93137 18.1777 3.25291 16.209 3.25291 14.0845C3.25291 9.34576 6.66183 5.28865 11.2663 4.43465V6.34724C8.34297 7.02399 6.03878 9.30059 5.34006 12.2437C5.28024 12.4959 5.43625 12.7491 5.68869 12.8091C5.94088 12.8689 6.19406 12.7129 6.25411 12.4605C6.89693 9.75274 9.08149 7.68464 11.8193 7.19221C12.0429 7.15192 12.2057 6.95735 12.2057 6.73005V3.88559C12.2057 3.75033 12.1476 3.62191 12.0461 3.5328C11.9448 3.44369 11.8095 3.40219 11.6757 3.41977C6.33859 4.10995 2.31371 8.69488 2.31371 14.0845C2.31371 16.4961 3.11155 18.7246 4.457 20.5203L3.71311 21.3931C3.33738 21.1509 2.89036 21.0095 2.41087 21.0095C1.08154 21.0095 0 22.091 0 23.4204C0 24.7497 1.08154 25.8315 2.41087 25.8315C3.74046 25.8315 4.82199 24.7497 4.82199 23.4204C4.82199 22.9101 4.66208 22.4367 4.39035 22.0466L5.06271 21.2578C7.03316 23.4546 9.89179 24.8388 13.068 24.8388C15.4713 24.8388 17.7445 24.0632 19.642 22.5954C19.7487 22.5129 19.8148 22.3884 19.8234 22.2539C19.8319 22.1191 19.7821 21.9873 19.6866 21.8918L17.6764 19.8813C17.5153 19.7205 17.2619 19.698 17.0751 19.8286C15.8964 20.6526 14.5109 21.0879 13.068 21.0879C11.2214 21.0879 9.4787 20.3755 8.16157 19.0815C7.93208 18.8562 7.72041 18.6174 7.52657 18.3674L12.1755 12.9131C12.4313 13.0059 12.707 13.0564 12.9941 13.0564C13.5392 13.0564 14.0426 12.8743 14.4469 12.5682L19.7882 16.062C19.5675 16.813 19.2213 17.5249 18.7548 18.1729C18.6203 18.3596 18.6408 18.6165 18.8036 18.7793L20.8109 20.7866C20.8993 20.875 21.0189 20.9243 21.1429 20.9243C21.1522 20.9243 21.1613 20.9241 21.1705 20.9233C21.3043 20.9155 21.4283 20.8508 21.5116 20.7456C22.1395 19.9504 22.6444 19.0879 23.0201 18.1763L23.5113 18.4976C23.4527 18.6667 23.4208 18.8481 23.4208 19.0369C23.4208 19.9519 24.1651 20.6965 25.0802 20.6965C25.9952 20.6965 26.7396 19.9519 26.7396 19.0369C26.7396 18.6245 26.588 18.2468 26.338 17.9563L29.9112 11.2466C30.0482 11.2832 30.192 11.3033 30.3404 11.3033C31.2554 11.3033 32.0001 10.5586 32.0001 9.64361C32.0001 8.72857 31.2554 7.98419 30.3404 7.98419ZM2.41087 24.8921C1.5996 24.8921 0.939448 24.2319 0.939448 23.4204C0.939448 22.6089 1.5996 21.9487 2.41087 21.9487C3.22239 21.9487 3.88255 22.6089 3.88255 23.4204C3.88255 24.2319 3.22239 24.8921 2.41087 24.8921ZM7.50313 19.7517C8.99726 21.219 10.9736 22.0273 13.068 22.0273C14.5717 22.0273 16.0207 21.6101 17.2833 20.8169L18.6351 22.1687C16.9953 23.3027 15.0817 23.8996 13.068 23.8996C10.1235 23.8996 7.47823 22.5962 5.6777 20.5361L6.90548 19.0957C7.09151 19.3235 7.29048 19.5427 7.50313 19.7517ZM11.5224 10.6456C11.5224 9.83404 12.1825 9.17388 12.9941 9.17388C13.8056 9.17388 14.4657 9.83404 14.4657 10.6456C14.4657 11.4571 13.8056 12.1172 12.9941 12.1172C12.1825 12.1172 11.5224 11.4571 11.5224 10.6456ZM25.0802 19.7571C24.683 19.7571 24.36 19.4341 24.36 19.0369C24.36 18.9189 24.389 18.8079 24.4393 18.7095C24.475 18.6802 24.5072 18.6458 24.5338 18.6052C24.5511 18.5786 24.5653 18.551 24.5765 18.523C24.7066 18.3955 24.8841 18.3167 25.0799 18.3167C25.4771 18.3167 25.8001 18.6399 25.8001 19.0369C25.8001 19.4341 25.4771 19.7571 25.0802 19.7571ZM30.3404 10.3638C29.9432 10.3638 29.6202 10.0406 29.6202 9.64361C29.6202 9.24664 29.9432 8.9234 30.3404 8.9234C30.7374 8.9234 31.0604 9.24664 31.0604 9.64361C31.0604 10.0406 30.7374 10.3638 30.3404 10.3638Z" fill="#EE6C4D"/>
<path d="M25.3311 2.8479H27.5525V3.03711C27.5525 3.53687 27.9592 3.9436 28.459 3.9436H29.7769C30.2769 3.9436 30.6836 3.53687 30.6836 3.03711V1.71924C30.6836 1.21924 30.2769 0.8125 29.7769 0.8125H28.459C27.9592 0.8125 27.5525 1.21924 27.5525 1.71924V1.90845H25.3311C25.0715 1.90845 24.8613 2.11865 24.8613 2.37817C24.8613 2.63745 25.0715 2.8479 25.3311 2.8479ZM28.4917 1.75195H29.7441V3.00439H28.4917V1.75195Z" fill="#EE6C4D"/>
<path d="M22.9519 2.8457H23.7078C23.967 2.8457 24.1775 2.63525 24.1775 2.37598C24.1775 2.11646 23.967 1.90625 23.7078 1.90625H22.9519C22.6926 1.90625 22.4824 2.11646 22.4824 2.37598C22.4824 2.63525 22.6926 2.8457 22.9519 2.8457Z" fill="#EE6C4D"/>
<path d="M28.0498 4.75781C27.5913 4.75781 27.2124 5.1001 27.1523 5.54224H25.6863C25.427 5.54224 25.2168 5.75269 25.2168 6.01196C25.2168 6.27124 25.427 6.48169 25.6863 6.48169H27.1523C27.2124 6.92383 27.5913 7.26611 28.0498 7.26611H28.7449C29.2446 7.26611 29.6514 6.85938 29.6514 6.35938V5.66455C29.6514 5.16455 29.2446 4.75781 28.7449 4.75781H28.0498ZM28.7122 6.3269H28.0825V5.69727H28.7122V6.3269Z" fill="#EE6C4D"/>
<path d="M23.5137 6.00879C23.5137 6.26807 23.7239 6.47852 23.9834 6.47852H24.5244C24.7837 6.47852 24.9941 6.26807 24.9941 6.00879C24.9941 5.74951 24.7837 5.53906 24.5244 5.53906H23.9834C23.7239 5.53906 23.5137 5.74951 23.5137 6.00879Z" fill="#EE6C4D"/>
<path d="M5.18579 29.5266H3.71973C3.65967 29.0845 3.28076 28.7422 2.82227 28.7422H2.1272C1.62744 28.7422 1.2207 29.1489 1.2207 29.6489V30.3438C1.2207 30.8438 1.62744 31.2505 2.1272 31.2505H2.82227C3.28076 31.2505 3.65967 30.9082 3.71973 30.4661H5.18579C5.44507 30.4661 5.65527 30.2559 5.65527 29.9963C5.65527 29.7371 5.44507 29.5266 5.18579 29.5266ZM2.78955 30.3113H2.15991V29.6814H2.78955V30.3113Z" fill="#EE6C4D"/>
<path d="M9.92603 29.5234H6.66089C6.40161 29.5234 6.19141 29.7336 6.19141 29.9932C6.19141 30.2524 6.40161 30.4629 6.66089 30.4629H9.92603C10.1855 30.4629 10.3958 30.2524 10.3958 29.9932C10.3958 29.7336 10.1855 29.5234 9.92603 29.5234Z" fill="#EE6C4D"/>
<path d="M6.97559 27.6458H8.44165C8.70093 27.6458 8.91113 27.4355 8.91113 27.176C8.91113 26.9167 8.70093 26.7065 8.44165 26.7065H6.97559C6.91553 26.2642 6.53662 25.9219 6.07812 25.9219H5.38306C4.8833 25.9219 4.47656 26.3286 4.47656 26.8286V27.5237C4.47656 28.0237 4.8833 28.4302 5.38306 28.4302H6.07812C6.53662 28.4302 6.91553 28.0879 6.97559 27.6458ZM6.04541 27.491H5.41577V26.8613H6.04541V27.491Z" fill="#EE6C4D"/>
<path d="M11.0525 26.7031H10.0417C9.78247 26.7031 9.57227 26.9133 9.57227 27.1726C9.57227 27.4321 9.78247 27.6423 10.0417 27.6423H11.0525C11.312 27.6423 11.5222 27.4321 11.5222 27.1726C11.5222 26.9133 11.312 26.7031 11.0525 26.7031Z" fill="#EE6C4D"/>
</g>
<defs>
<clipPath id="clip0_33746_197770">
<rect width="32" height="32" fill="white"/>
</clipPath>
</defs>
</svg>
