<svg width="52" height="47" viewBox="0 0 52 47" fill="none" xmlns="http://www.w3.org/2000/svg">
<circle opacity="0.2" cx="20" cy="20.6797" r="20" fill="#DFD6E5"/>
<path d="M48.5 16.1797H23.5C22.3954 16.1797 21.5 17.0751 21.5 18.1797V36.1797C21.5 37.2843 22.3954 38.1797 23.5 38.1797H48.5C49.6046 38.1797 50.5 37.2843 50.5 36.1797V18.1797C50.5 17.0751 49.6046 16.1797 48.5 16.1797Z" fill="#DFD6E5"/>
<path opacity="0.2" d="M48.5 16.1797H47.5C47.5 20.0253 45.9723 23.7135 43.253 26.4327C40.5338 29.152 36.8456 30.6797 33 30.6797H21.5V36.1797C21.5016 36.7096 21.7128 37.2174 22.0875 37.5922C22.4622 37.9669 22.97 38.1781 23.5 38.1797H48.5C49.0304 38.1797 49.5391 37.969 49.9142 37.5939C50.2893 37.2188 50.5 36.7101 50.5 36.1797V18.1797C50.4984 17.6497 50.2872 17.1419 49.9125 16.7672C49.5378 16.3925 49.03 16.1812 48.5 16.1797Z" fill="#C2B0CF"/>
<path d="M21.5 36.1797C21.5016 36.7096 21.7128 37.2174 22.0875 37.5922C22.4622 37.9669 22.97 38.1781 23.5 38.1797H48.5C49.0304 38.1797 49.5391 37.969 49.9142 37.5939C50.2893 37.2188 50.5 36.7101 50.5 36.1797V32.1797H21.5V36.1797Z" fill="#4D4354"/>
<path opacity="0.2" d="M48.5 32.1797C48.5 33.2406 48.0786 34.258 47.3284 35.0081C46.5783 35.7583 45.5609 36.1797 44.5 36.1797H21.5C21.5016 36.7096 21.7128 37.2174 22.0875 37.5922C22.4622 37.9669 22.97 38.1781 23.5 38.1797H48.5C49.0304 38.1797 49.5391 37.969 49.9142 37.5939C50.2893 37.2188 50.5 36.7101 50.5 36.1797V32.1797H48.5Z" fill="#201429"/>
<path d="M40.5 42.1797H31.5L32.5 38.1797H39.5L40.5 42.1797Z" fill="#DFD6E5"/>
<path opacity="0.1" d="M39.5 38.1797H38.25C38.339 38.5356 38.3457 38.9072 38.2696 39.2661C38.1934 39.6251 38.0365 39.9619 37.8107 40.2511C37.5849 40.5403 37.2962 40.7743 36.9664 40.9352C36.6366 41.0961 36.2746 41.1797 35.9076 41.1797H31.75L31.5 42.1797H40.5L39.5 38.1797Z" fill="#C2B0CF"/>
<path d="M31 42.1797H41C41.663 42.1797 42.2989 42.4431 42.7678 42.9119C43.2366 43.3808 43.5 44.0166 43.5 44.6797V45.1797H28.5V44.6797C28.5 44.0166 28.7634 43.3808 29.2322 42.9119C29.7011 42.4431 30.337 42.1797 31 42.1797Z" fill="#4D4354"/>
<path opacity="0.2" d="M41 42.1797H40.9887C41.0135 42.2133 41.0356 42.249 41.0546 42.2862C41.1509 42.4898 41.1938 42.7146 41.1792 42.9394C41.1646 43.1641 41.0931 43.3815 40.9712 43.5709C40.8494 43.7604 40.6813 43.9157 40.4828 44.0222C40.2844 44.1287 40.0621 44.1829 39.8368 44.1797H28.5504C28.5169 44.3442 28.5 44.5118 28.5 44.6797V45.1797H43.5V44.6797C43.5 44.0166 43.2366 43.3808 42.7678 42.9119C42.2989 42.4431 41.663 42.1797 41 42.1797Z" fill="#201429"/>
<path d="M36 36.1797C36.5523 36.1797 37 35.732 37 35.1797C37 34.6274 36.5523 34.1797 36 34.1797C35.4477 34.1797 35 34.6274 35 35.1797C35 35.732 35.4477 36.1797 36 36.1797Z" fill="#DFD6E5"/>
<path d="M28 18.6797V29.1624H41.1349L43.4482 26.8441V18.6797H28Z" fill="#C2B0CF"/>
<path d="M46.2429 30.3603L44.5728 28.6903C44.5441 28.6616 44.5441 28.6152 44.5728 28.5865L45.652 27.5068L40.1348 25.8516L41.79 31.3688L42.8415 30.3173C42.9071 30.2516 43.0136 30.2516 43.0799 30.3173L44.6826 31.9206L46.2429 30.3603Z" fill="#F58B71"/>
<path d="M43.4482 18.6797H28V21.4383H43.4482V18.6797Z" fill="#F58B71"/>
<path d="M34.6111 24.75H30.1973V26.9569H34.6111V24.75Z" fill="#4D4354"/>
</svg>
