<svg width="32" height="32" viewBox="0 0 32 32" fill="none" xmlns="http://www.w3.org/2000/svg">
<g clip-path="url(#clip0_33746_197788)">
<path d="M18.7149 24.1501C16.9659 24.7337 15.0366 24.7336 13.2826 24.1498C12.7912 23.9862 12.2605 24.252 12.0971 24.7433C11.9336 25.2345 12.1992 25.7654 12.6906 25.9289C13.7587 26.2844 14.88 26.4621 16.001 26.4621C17.122 26.4621 18.2427 26.2842 19.3084 25.9286C19.7995 25.7648 20.0648 25.2338 19.9009 24.7426C19.7371 24.2515 19.2061 23.9863 18.7149 24.1501Z" fill="#EE6C4D"/>
<path d="M26.9204 6.12494C26.5214 3.26306 24.064 1.00419 21.0203 1.00419H19.9494V0.9375C19.9494 0.41975 19.5297 0 19.0119 0H12.9869C12.4692 0 12.0494 0.41975 12.0494 0.9375V1.00412H10.9786C7.96044 1.00412 5.49963 3.2315 5.08113 6.12425C3.32375 6.52419 2.00781 8.09825 2.00781 9.97494V18.0083C2.00781 20.5774 4.1005 21.6245 5.05106 21.8504C5.48031 27.6341 10.3368 32 15.9994 32C21.7742 32 26.5218 27.5184 26.9474 21.8507C29.4114 21.2657 29.9911 19.0302 29.9911 18.0084V9.975C29.9911 8.09925 28.6764 6.52581 26.9204 6.12494ZM19.9494 2.87913H21.0203C23.6729 2.87913 24.7687 5.04794 24.9965 6.025H19.9494V2.87913ZM13.9244 1.875H18.0744V6.025H13.9244V1.875ZM10.9786 2.87913H12.0494V6.025H7.00625C7.61431 3.47775 9.92194 2.87913 10.9786 2.87913ZM15.9994 30.125C11.3723 30.125 7.41694 26.6196 6.94294 21.9583H11.5661C12.7165 21.9583 13.8421 21.4921 14.6543 20.6793C14.6591 20.6745 14.6639 20.6696 14.6686 20.6647C15.0213 20.3197 15.5052 20.1222 15.9994 20.1222C16.4938 20.1222 16.9777 20.3197 17.3303 20.6647C17.335 20.6696 17.3398 20.6745 17.3446 20.6793C18.1568 21.4921 19.2824 21.9583 20.4329 21.9583H25.0556C24.5848 26.5396 20.703 30.125 15.9994 30.125ZM28.1161 18.0084C28.1161 19.1686 27.1704 20.0833 26.0411 20.0833H20.4329C19.7834 20.0833 19.1481 19.8232 18.6862 19.3691C18.6811 19.3638 18.676 19.3585 18.6708 19.3533C17.9679 18.6504 16.9943 18.2472 15.9995 18.2472C15.0048 18.2472 14.0311 18.6504 13.3283 19.3533C13.3231 19.3584 13.3179 19.3637 13.3128 19.369C12.8509 19.8232 12.2155 20.0833 11.5661 20.0833H5.95775C4.832 20.0833 3.88275 19.1726 3.88275 18.0084V9.975C3.88275 8.83088 4.81363 7.90006 5.95775 7.90006H26.0411C27.1853 7.90006 28.1161 8.83094 28.1161 9.975V18.0084H28.1161Z" fill="#EE6C4D"/>
</g>
<defs>
<clipPath id="clip0_33746_197788">
<rect width="32" height="32" fill="white"/>
</clipPath>
</defs>
</svg>
