<svg width="32" height="32" viewBox="0 0 32 32" fill="none" xmlns="http://www.w3.org/2000/svg">
<g clip-path="url(#clip0_33746_197782)">
<path d="M31.0858 7.75143C31.0858 6.30391 29.9083 5.12642 28.4608 5.12642C27.7176 5.12642 27.046 5.43746 26.5679 5.9355L16.324 0.0211794C16.1307 -0.0903932 15.8926 -0.0903932 15.6993 0.0211794L5.45509 5.9355C4.97706 5.43746 4.30567 5.12642 3.56251 5.12642C2.11499 5.12642 0.9375 6.30391 0.9375 7.75143C0.9375 8.98336 1.79077 10.0193 2.93751 10.3005V22.125C2.93751 22.3482 3.05665 22.5544 3.25001 22.6663L13.4908 28.5789C13.4229 28.8118 13.3858 29.0579 13.3858 29.3125C13.3858 30.7598 14.5633 31.9375 16.0108 31.9375C17.4581 31.9375 18.6355 30.7598 18.6355 29.3125C18.6355 29.0581 18.5987 28.8125 18.5308 28.5796L28.7733 22.6663C28.9666 22.5547 29.0858 22.3482 29.0858 22.125V10.3005C30.2325 10.0193 31.0858 8.98336 31.0858 7.75143ZM2.1875 7.75143C2.1875 6.99312 2.8042 6.37642 3.56251 6.37642C4.32057 6.37642 4.93727 6.99312 4.93727 7.75143C4.93727 8.50949 4.32057 9.12643 3.56251 9.12643C2.8042 9.12643 2.1875 8.50949 2.1875 7.75143ZM16.0108 30.6875C15.2525 30.6875 14.6358 30.0708 14.6358 29.3125C14.6358 28.5545 15.2525 27.9375 16.0108 27.9375C16.7688 27.9375 17.3858 28.5545 17.3858 29.3125C17.3858 30.0708 16.7688 30.6875 16.0108 30.6875ZM17.9048 27.4978C17.4266 26.999 16.7547 26.6875 16.0108 26.6875C15.2674 26.6875 14.5955 26.9988 14.1175 27.4971L4.18751 21.7642V10.3005C5.334 10.0193 6.18727 8.98336 6.18727 7.75143C6.18727 7.49654 6.15016 7.25021 6.08205 7.01681L16.0115 1.28412L25.9412 7.01681C25.8731 7.25021 25.836 7.4963 25.836 7.75143C25.836 8.98336 26.6893 10.0193 27.8358 10.3005V21.7642L17.9048 27.4978ZM28.4608 9.12643C27.7027 9.12643 27.0858 8.50949 27.0858 7.75143C27.0858 6.99312 27.7027 6.37642 28.4608 6.37642C29.2191 6.37642 29.8358 6.99312 29.8358 7.75143C29.8358 8.50949 29.2191 9.12643 28.4608 9.12643Z" fill="#EE6C4D"/>
<path d="M24.574 9.63569L16.324 4.87274C16.1306 4.76117 15.8926 4.76117 15.6992 4.87274L7.44922 9.63569C7.25586 9.74751 7.13672 9.95381 7.13672 10.177V19.7031C7.13672 19.9263 7.25586 20.1328 7.44922 20.2444L15.6992 25.0076C15.7959 25.0632 15.9036 25.0913 16.0115 25.0913C16.1197 25.0913 16.2273 25.0632 16.324 25.0076L24.574 20.2444C24.7674 20.1328 24.8865 19.9263 24.8865 19.7031V10.177C24.8865 9.95381 24.7674 9.74751 24.574 9.63569ZM16.0115 6.13568L23.0115 10.177L16.0115 14.2185L9.01172 10.177L16.0115 6.13568ZM16.6365 23.3838V20.5652C16.6365 20.22 16.3567 19.9402 16.0115 19.9402C15.6665 19.9402 15.3867 20.22 15.3867 20.5652V23.3838L8.38672 19.3423V11.2595L15.6992 15.4814C15.7959 15.5371 15.9036 15.5652 16.0115 15.5652C16.1197 15.5652 16.2273 15.5371 16.324 15.4814L23.6365 11.2595V19.3423L16.6365 23.3838Z" fill="#EE6C4D"/>
<path d="M16.0105 17.125C15.8455 17.125 15.6848 17.1917 15.5679 17.3081C15.4517 17.4243 15.3848 17.5855 15.3848 17.75C15.3848 17.9143 15.4517 18.0754 15.5679 18.1917C15.6848 18.3081 15.8455 18.375 16.0105 18.375C16.1748 18.375 16.3362 18.3081 16.4524 18.1917C16.5686 18.0754 16.6355 17.9143 16.6355 17.75C16.6355 17.5855 16.5686 17.4243 16.4524 17.3081C16.3362 17.1917 16.1748 17.125 16.0105 17.125Z" fill="#EE6C4D"/>
</g>
<defs>
<clipPath id="clip0_33746_197782">
<rect width="32" height="32" fill="white"/>
</clipPath>
</defs>
</svg>
