<svg width="56" height="56" viewBox="0 0 56 56" fill="none" xmlns="http://www.w3.org/2000/svg">
<g clip-path="url(#clip0_33746_197974)">
<path d="M27.8444 52.3476C27.3886 52.3476 27.013 51.9849 26.9998 51.5264C26.9865 51.0599 27.3539 50.6711 27.8205 50.6579C28.2879 50.6365 28.6805 50.9984 28.7011 51.4649C28.722 51.931 28.3597 52.3258 27.8931 52.3463L27.8688 52.3472C27.8607 52.3476 27.8525 52.3476 27.8444 52.3476ZM24.4461 52.2203C24.4128 52.2203 24.3799 52.2186 24.3461 52.2147L24.344 52.2143C23.8796 52.1677 23.5433 51.7542 23.5899 51.2893C23.6365 50.8249 24.0535 50.487 24.5175 50.5331L24.5435 50.5357C25.0071 50.5903 25.3386 51.0103 25.2839 51.4739C25.2335 51.9041 24.8687 52.2203 24.4461 52.2203ZM31.235 51.9597C30.8394 51.9597 30.4861 51.6807 30.407 51.2778C30.3165 50.8198 30.6147 50.3754 31.0727 50.2853L31.0885 50.2823C31.5469 50.1947 31.9896 50.4955 32.0772 50.9539C32.1647 51.4119 31.8644 51.855 31.4059 51.9426L31.3995 51.9439C31.344 51.9545 31.2893 51.9597 31.235 51.9597ZM21.0931 51.5764C21.0196 51.5764 20.9448 51.5666 20.8701 51.5465L20.8654 51.5452C20.4146 51.4252 20.1455 50.9625 20.2651 50.5117C20.3847 50.0606 20.847 49.7918 21.2977 49.911L21.3153 49.9157C21.7656 50.0388 22.0309 50.5032 21.9078 50.9535C21.8053 51.3295 21.4648 51.5764 21.0931 51.5764ZM34.5283 51.0569C34.1826 51.0569 33.8588 50.8441 33.7336 50.5006C33.5742 50.0618 33.8007 49.5769 34.239 49.4176L34.2531 49.4129C34.6919 49.2552 35.176 49.4829 35.334 49.9221C35.4921 50.3613 35.2635 50.8454 34.8243 51.0035L34.8171 51.0061C34.7214 51.0407 34.624 51.0569 34.5283 51.0569ZM17.8742 50.4237C17.7589 50.4237 17.6418 50.3998 17.5294 50.349L17.5179 50.3438C17.0928 50.1511 16.9044 49.6504 17.0971 49.2253C17.2897 48.8002 17.79 48.6118 18.2156 48.8045C18.6411 48.9967 18.8347 49.4992 18.6428 49.9247C18.5014 50.2379 18.1955 50.4237 17.8742 50.4237ZM37.6412 49.6602C37.3387 49.6602 37.0469 49.4979 36.8948 49.2129C36.6747 48.801 36.8307 48.2888 37.2426 48.0692C37.6514 47.8444 38.1654 47.9935 38.3906 48.4024C38.6153 48.8113 38.4666 49.3253 38.0573 49.55L38.0381 49.5607C37.9112 49.6282 37.7753 49.6602 37.6412 49.6602ZM45.3166 42.1057L45.3222 42.1095L45.2329 42.0459L45.3166 42.1057ZM6.30567 38.422C5.97199 38.422 5.65583 38.2229 5.5221 37.8947L5.51997 37.8888C5.3418 37.4572 5.54731 36.9629 5.9784 36.7852C6.40992 36.607 6.90424 36.8125 7.08198 37.2436L7.08796 37.2586C7.26398 37.6909 7.05549 38.184 6.62312 38.3596C6.51929 38.4019 6.4112 38.422 6.30567 38.422ZM48.2544 36.8001C48.166 36.8001 48.0758 36.786 47.9869 36.7565C47.5473 36.61 47.308 36.1366 47.4495 35.6961C47.5875 35.2522 48.0583 35.0014 48.503 35.1364C48.9495 35.2723 49.2016 35.7427 49.0666 36.1887L49.0559 36.2221C48.938 36.5763 48.6082 36.8001 48.2544 36.8001ZM5.27216 35.1685C4.88978 35.1685 4.54328 34.9074 4.45057 34.5195L4.44801 34.5084C4.33991 34.0542 4.61976 33.5983 5.07392 33.4898C5.52808 33.3813 5.98396 33.6616 6.09205 34.1157L6.09461 34.1268C6.20313 34.5806 5.92286 35.0365 5.46912 35.145C5.4029 35.1608 5.33711 35.1685 5.27216 35.1685ZM49.0316 33.4762C48.9828 33.4762 48.9337 33.4719 48.8837 33.4629C48.4274 33.3826 48.1215 32.9494 48.1967 32.4935C48.2676 32.0342 48.6962 31.7172 49.1559 31.7847C49.6173 31.853 49.9365 32.2807 49.8685 32.7426L49.863 32.7776C49.7908 33.1873 49.434 33.4762 49.0316 33.4762ZM4.7505 31.7932C4.31684 31.7932 3.94813 31.4625 3.90968 31.0229L3.90711 30.9879C3.87977 30.5217 4.23524 30.1223 4.70136 30.0945C5.16322 30.0663 5.56184 30.4179 5.59388 30.8794C5.63105 31.3425 5.28754 31.7505 4.82398 31.7902C4.7992 31.7924 4.77485 31.7932 4.7505 31.7932ZM49.2905 30.0723C48.8235 30.0723 48.4454 29.6942 48.4454 29.2272V29.2161C48.4454 29.2101 48.4454 29.2041 48.4454 29.1986C48.4454 29.1913 48.4454 29.1836 48.4454 29.1763V29.1652C48.4454 28.6983 48.8235 28.3197 49.2905 28.3197C49.757 28.3197 50.1356 28.6983 50.1356 29.1652V29.1763C50.1356 29.1823 50.1356 29.1883 50.1351 29.1939C50.1356 29.2011 50.1356 29.2084 50.1356 29.2161V29.2272C50.1356 29.6942 49.7574 30.0723 49.2905 30.0723ZM4.74836 28.3812C4.72401 28.3812 4.69923 28.38 4.67445 28.3778C4.21003 28.3377 3.8661 27.9292 3.9054 27.4652C3.93787 27.0038 4.33265 26.6522 4.79792 26.6812C5.26405 26.7086 5.61951 27.1085 5.59217 27.5742L5.58918 27.6092C5.55116 28.0493 5.18201 28.3812 4.74836 28.3812ZM49.0251 26.6184C48.6227 26.6184 48.2664 26.33 48.1941 25.9199L48.1882 25.8848C48.1207 25.423 48.4398 24.9936 48.9017 24.9257C49.361 24.8577 49.7912 25.176 49.86 25.6366C49.9347 26.0921 49.6293 26.5244 49.173 26.6052C49.1234 26.6142 49.0738 26.6184 49.0251 26.6184ZM49.167 25.7409L49.0243 25.7618L49.167 25.7409ZM5.26106 25.0069C5.19611 25.0069 5.12989 24.9992 5.06409 24.9834C4.61079 24.8753 4.33051 24.4202 4.43775 23.9669C4.53773 23.5162 4.98249 23.2282 5.4358 23.3231C5.89252 23.4188 6.18562 23.8665 6.08991 24.3233L6.08222 24.3579C5.98994 24.7458 5.64344 25.0069 5.26106 25.0069ZM48.2497 23.2996C47.8942 23.2996 47.5623 23.0723 47.4439 22.7172L47.4345 22.6878C47.2969 22.2417 47.5473 21.7688 47.9938 21.6316C48.4402 21.494 48.9123 21.7444 49.0499 22.1909L49.0504 22.1922C49.1978 22.6352 48.9572 23.109 48.5142 23.2564C48.427 23.2859 48.3377 23.2996 48.2497 23.2996ZM6.28559 21.7482C6.17963 21.7482 6.07197 21.7282 5.96772 21.6859C5.53535 21.5103 5.32728 21.0172 5.50288 20.5849L5.50715 20.5746C5.68275 20.1422 6.17536 19.9337 6.60816 20.1093C7.04053 20.2849 7.2486 20.778 7.07301 21.2103L7.06873 21.221C6.93543 21.5492 6.61927 21.7482 6.28559 21.7482ZM46.968 20.1341C46.6603 20.1341 46.363 19.9654 46.2126 19.674L46.1998 19.6492C45.9938 19.2301 46.1664 18.7238 46.5856 18.5178C47.0043 18.3119 47.5106 18.4845 47.7169 18.9032L47.7173 18.9049C47.9318 19.3194 47.7673 19.8261 47.3525 20.0401C47.2294 20.1038 47.0978 20.1341 46.968 20.1341ZM7.7989 18.6866C7.64893 18.6866 7.49683 18.6469 7.35969 18.5627C6.96192 18.3205 6.83588 17.8022 7.07642 17.4044C7.30927 17.0067 7.81983 16.8682 8.2223 17.0964C8.62818 17.3267 8.77088 17.8424 8.54102 18.2483C8.53461 18.2594 8.52778 18.2705 8.52094 18.2816C8.36201 18.5426 8.08387 18.6866 7.7989 18.6866ZM45.2133 17.2024C44.9428 17.2024 44.6766 17.0725 44.5134 16.8319C44.2421 16.4521 44.3323 15.9279 44.7125 15.6566C45.0919 15.3853 45.6226 15.4771 45.8939 15.857L45.9118 15.8826C46.1737 16.2688 46.0733 16.7943 45.6871 17.0567C45.5418 17.1554 45.3769 17.2024 45.2133 17.2024ZM9.76252 15.8928C9.57197 15.8928 9.38099 15.8288 9.22291 15.698C8.86402 15.3998 8.81446 14.867 9.11268 14.5077L9.11994 14.4992C9.41816 14.1399 9.95051 14.0907 10.3098 14.3885C10.6691 14.6867 10.7187 15.2195 10.4205 15.5788L10.4132 15.5874C10.2462 15.789 10.0052 15.8928 9.76252 15.8928ZM43.036 14.5731C42.8138 14.5731 42.5921 14.4863 42.4263 14.3133C42.0995 13.9801 42.1042 13.4439 42.4379 13.117C42.7707 12.7906 43.3052 12.7953 43.6316 13.1286L43.6457 13.1427C43.9691 13.4793 43.958 14.0147 43.6213 14.3377C43.4573 14.4953 43.2466 14.5731 43.036 14.5731ZM12.1278 13.4302C11.8936 13.4302 11.6612 13.3341 11.4941 13.1452C11.1848 12.7957 11.2177 12.2617 11.5672 11.9524L11.5706 11.9494C11.918 11.6388 12.4525 11.667 12.7639 12.0143C13.075 12.3612 13.0476 12.894 12.7011 13.2059L12.6874 13.2183C12.5264 13.3606 12.3264 13.4302 12.1278 13.4302ZM40.4841 12.3044C40.3106 12.3044 40.1363 12.2514 39.9855 12.1412L39.9568 12.1194C39.5886 11.8327 39.5219 11.3021 39.8086 10.9334C40.0948 10.5655 40.6242 10.4989 40.9925 10.7838C41.3616 11.0611 41.4402 11.5849 41.1668 11.9583C41.001 12.1848 40.7443 12.3044 40.4841 12.3044ZM40.5601 11.344L40.4755 11.4525L40.5601 11.344ZM14.8382 11.3555C14.5592 11.3555 14.2862 11.2175 14.1251 10.965C13.8743 10.5719 13.9893 10.0507 14.381 9.79903C14.7664 9.54439 15.2864 9.64651 15.5461 10.0297C15.8085 10.416 15.7076 10.9415 15.3214 11.2034L15.2919 11.223C15.1514 11.3128 14.9941 11.3555 14.8382 11.3555ZM37.6151 10.4493C37.4818 10.4493 37.3464 10.4177 37.2203 10.3506L37.2003 10.3395C36.7914 10.1148 36.6423 9.60079 36.867 9.19192C37.0917 8.78304 37.6057 8.63393 38.0146 8.85866L38.0172 8.85995C38.4252 9.08254 38.5794 9.59481 38.3589 10.0041C38.206 10.2878 37.9155 10.4493 37.6151 10.4493ZM17.8328 9.71828C17.5106 9.71828 17.2026 9.53329 17.0616 9.22097C16.8693 8.79586 17.0582 8.29555 17.4833 8.10329L17.5029 8.09475C17.9302 7.90719 18.4283 8.10244 18.6159 8.53011C18.8026 8.95778 18.6078 9.45595 18.1801 9.64309C18.0673 9.69393 17.949 9.71828 17.8328 9.71828Z" fill="#DFD6E5"/>
<path d="M33.5258 45.6264L20.8019 32.9026C20.0043 32.1053 20.0034 30.8151 20.7998 30.0191C21.1143 29.7046 21.5073 29.5141 21.9158 29.4496C22.5391 29.3492 23.2009 29.5393 23.6833 30.0217L20.4067 26.7451C20.0085 26.3469 19.8086 25.8248 19.8086 25.304C19.8086 25.1955 19.8171 25.0865 19.8347 24.978C19.9 24.5687 20.0897 24.1765 20.4046 23.8616C20.7161 23.5502 21.1023 23.3613 21.5056 23.2942C22.0546 23.2028 22.6331 23.3365 23.0941 23.6958L21.8474 22.4491C21.4488 22.0505 21.2488 21.5271 21.2488 21.0059C21.248 20.8952 21.2578 20.7837 21.2762 20.6748C21.3416 20.2681 21.5308 19.878 21.844 19.5648C22.1589 19.2499 22.5515 19.0594 22.9621 18.9949C23.585 18.8945 24.2473 19.085 24.7292 19.5669L26.157 20.9948C25.676 20.5137 25.4846 19.8506 25.585 19.2277C25.6495 18.8188 25.8392 18.4266 26.1549 18.1113C26.95 17.3162 28.2416 17.3171 29.0384 18.1139L37.3073 26.3828L37.3304 26.3499C37.7495 25.9308 38.2434 25.633 38.7702 25.4552C40.0703 25.0169 41.567 25.3164 42.6043 26.3542L46.4598 30.2096C47.2011 30.9505 47.6168 31.9545 47.6185 33.0013L47.6206 35.4135C47.6215 36.5406 48.0701 37.6219 48.8686 38.4205L49.7282 39.2801L39.8943 49.114L38.7954 48.0151C38.0648 47.2845 37.0928 46.8445 36.0627 46.777C35.1057 46.7142 34.2047 46.3053 33.5258 45.6264Z" fill="#FECBAA"/>
<path d="M39.2541 49.7506L50.4163 38.5884C50.7842 38.2205 51.3802 38.2205 51.748 38.5884L55.7231 42.5635C56.091 42.9313 56.091 43.5278 55.7231 43.8952L44.5613 55.0574C44.1935 55.4253 43.597 55.4253 43.2296 55.0574L39.2541 51.0823C38.8867 50.7145 38.8867 50.1181 39.2541 49.7506Z" fill="#FFC850"/>
<path d="M50.7144 43.5971C51.0447 43.9274 51.5792 43.9278 51.9086 43.5984C52.238 43.269 52.2376 42.7341 51.9077 42.4043C51.5775 42.074 51.043 42.0736 50.7136 42.403C50.3842 42.7328 50.3846 43.2673 50.7144 43.5971Z" fill="#EE6C4D"/>
<path d="M40.1538 29.2274L37.3066 26.3807L37.3297 26.3478C37.7488 25.9287 38.2427 25.6309 38.7695 25.4531L41.3488 28.0324C41.6786 28.3622 41.6786 28.8976 41.3488 29.2274C41.0181 29.5581 40.4836 29.5573 40.1538 29.2274Z" fill="#FBB38F"/>
<path d="M22.4739 45.6268L35.1978 32.903C35.9954 32.1053 35.9963 30.8155 35.2003 30.0195C34.8854 29.7046 34.4928 29.5141 34.0839 29.4496C33.4606 29.3492 32.7988 29.5397 32.3164 30.0217L35.593 26.7455C35.9911 26.3473 36.1911 25.8252 36.1911 25.304C36.1911 25.1959 36.1826 25.0865 36.165 24.9784C36.0997 24.5687 35.91 24.1769 35.5951 23.862C35.2836 23.5506 34.8974 23.3617 34.4941 23.2947C33.9451 23.2032 33.3666 23.337 32.9056 23.6963L34.1523 22.4491C34.5509 22.051 34.7509 21.5276 34.7509 21.0063C34.7517 20.8952 34.7419 20.7837 34.7235 20.6748C34.6586 20.2685 34.4689 19.878 34.1557 19.5648C33.8408 19.2504 33.4482 19.0598 33.0376 18.9953C32.4147 18.8949 31.7524 19.085 31.2705 19.5674L29.8427 20.9952C30.3237 20.5137 30.5151 19.8511 30.4147 19.2277C30.3502 18.8193 30.1605 18.427 29.8448 18.1113C29.0497 17.3162 27.7581 17.3171 26.9613 18.1139L18.6924 26.3828L18.6693 26.3503C18.2502 25.9312 17.7563 25.6334 17.2295 25.4557C15.929 25.0173 14.4327 25.3168 13.3954 26.3542L9.53992 30.2101C8.79865 30.9509 8.38293 31.9549 8.38123 33.0017L8.37866 35.4135C8.37823 36.541 7.92963 37.6224 7.1311 38.4209L6.27148 39.2805L16.1054 49.1144L17.2043 48.0156C17.9349 47.285 18.9069 46.8449 19.937 46.7774C20.894 46.7146 21.795 46.3057 22.4739 45.6268Z" fill="#FECBAA"/>
<path d="M16.7449 49.7502L5.58272 38.5884C5.21486 38.2205 4.61885 38.2205 4.25099 38.5884L0.275894 42.5635C-0.0919647 42.9313 -0.0919647 43.5274 0.275894 43.8952L11.4377 55.0574C11.8056 55.4253 12.402 55.4253 12.7698 55.0574L16.7449 51.0823C17.1128 50.7145 17.1128 50.1181 16.7449 49.7502Z" fill="#EE6C4D"/>
<path d="M12.935 51.2459C13.2653 50.9157 13.2657 50.3812 12.9363 50.0518C12.6069 49.722 12.072 49.7224 11.7422 50.0527C11.4119 50.3825 11.4115 50.9174 11.7409 51.2468C12.0707 51.5762 12.6052 51.5758 12.935 51.2459Z" fill="#201429"/>
<path d="M15.8452 29.2274L18.6919 26.3803L18.6688 26.3478C18.2497 25.9287 17.7558 25.6309 17.229 25.4531L14.6497 28.032C14.3199 28.3618 14.3199 28.8976 14.6497 29.2274C14.9804 29.5581 15.5149 29.5573 15.8452 29.2274Z" fill="#FBB38F"/>
<path d="M36.1371 15.1333V33.1276C36.1371 34.2556 35.2258 35.1681 34.1 35.1681C33.6548 35.1681 33.2425 35.025 32.9075 34.7815C32.3961 34.4119 32.0624 33.8091 32.0624 33.1276V37.7611C32.0624 38.3242 31.8347 38.8348 31.4664 39.2031C31.39 39.28 31.3062 39.3509 31.2173 39.415C30.8815 39.6585 30.4705 39.8016 30.0253 39.8016C29.5848 39.8016 29.1777 39.6619 28.8453 39.4244C28.3924 39.1009 28.0779 38.5972 28.0062 38.0166V39.7803C28.0062 40.3438 27.7772 40.8552 27.4089 41.2235C27.3311 41.3025 27.2452 41.3748 27.1555 41.4388C26.8218 41.6802 26.4117 41.8221 25.9686 41.8221C25.5239 41.8221 25.1111 41.679 24.7753 41.4346C24.2639 41.065 23.9302 40.4622 23.9302 39.7803V37.7611C23.9302 38.4417 23.597 39.0454 23.0851 39.415C22.7506 39.6585 22.3392 39.8016 21.8931 39.8016C20.7682 39.8016 19.8556 38.8878 19.8556 37.7611V26.067L19.8163 26.0738C19.2237 26.0738 18.6636 25.9349 18.1654 25.6884C16.9362 25.0787 16.0898 23.809 16.0898 22.3418V16.8889C16.0898 15.8412 16.5056 14.8372 17.2447 14.0955L18.9485 12.3887C19.7454 11.5906 20.1927 10.5092 20.1927 9.38V8.16406H34.0996V9.71796C34.0996 10.751 34.476 11.7495 35.1566 12.5258C35.7889 13.247 36.1371 14.1733 36.1371 15.1333Z" fill="#FEDFC5"/>
<path d="M35.2003 30.0195C34.8854 29.7046 34.4928 29.5145 34.0839 29.4496C33.4606 29.3492 32.7988 29.5397 32.3164 30.0221L35.5929 26.7455C35.9911 26.3473 36.1915 25.8252 36.1915 25.3044C36.1915 25.1959 36.1825 25.0865 36.165 24.9784C36.0997 24.5687 35.9104 24.1769 35.5955 23.862C35.284 23.5506 34.8974 23.3617 34.4945 23.2947C33.9455 23.2032 33.367 23.337 32.9056 23.6963L34.1527 22.4491C34.5509 22.051 34.7508 21.5276 34.7508 21.0063C34.7517 20.8957 34.7423 20.7842 34.7239 20.6748C34.6586 20.2685 34.4689 19.878 34.1557 19.5648C33.8412 19.2504 33.4482 19.0598 33.038 18.9953C32.4151 18.8949 31.7524 19.0854 31.2705 19.5674L29.8426 20.9952C30.3237 20.5137 30.5151 19.8511 30.4147 19.2277C30.3502 18.8193 30.1605 18.427 29.8452 18.1113C29.0497 17.3162 27.7581 17.3171 26.9613 18.1139L18.6924 26.3828L18.6693 26.3503C18.2502 25.9312 17.7563 25.6334 17.2295 25.4557C16.6057 25.2455 15.9371 25.2066 15.2949 25.336C15.8119 26.1175 16.5348 26.7656 17.4158 27.2027C17.6602 27.3236 17.9105 27.4253 18.166 27.5073V37.7608C18.166 39.818 19.8383 41.4915 21.8933 41.4915C22.1407 41.4915 22.3842 41.4676 22.6213 41.4206C22.8867 41.9628 23.2823 42.44 23.7809 42.8002C24.0902 43.0257 24.4277 43.1984 24.7828 43.318L35.1977 32.903C35.9954 32.1053 35.9963 30.8155 35.2003 30.0195Z" fill="#FBB38F"/>
<path d="M37.8262 33.1282V25.9316C37.6514 26.0542 37.4848 26.194 37.3284 26.3499L37.3054 26.3828L29.0365 18.1139C28.2396 17.3171 26.9481 17.3162 26.153 18.1113C25.8372 18.4266 25.6475 18.8188 25.583 19.2277C25.4826 19.8506 25.674 20.5137 26.1551 20.9948L24.7272 19.5669C24.2453 19.085 23.5831 18.8945 22.9602 18.9949C22.5496 19.0594 22.1569 19.2499 21.8421 19.5648C21.5289 19.878 21.3392 20.2681 21.2738 20.6748C21.2559 20.7837 21.246 20.8952 21.2469 21.0059C21.2469 21.5271 21.4469 22.0505 21.8455 22.4491L23.0922 23.6958C22.6308 23.3365 22.0527 23.2028 21.5037 23.2942C21.1004 23.3613 20.7141 23.5502 20.4027 23.8616C20.0878 24.1765 19.8981 24.5687 19.8327 24.978C19.8152 25.0865 19.8062 25.1955 19.8067 25.304C19.8062 25.8252 20.0066 26.3469 20.4048 26.7451L23.6814 30.0217C23.1994 29.5397 22.5372 29.3492 21.9143 29.4496C21.5054 29.5141 21.1123 29.7046 20.7979 30.0191C20.0019 30.8155 20.0028 32.1053 20.8 32.903L29.324 41.4266C29.553 41.4701 29.7871 41.4924 30.0242 41.4924C30.8142 41.4924 31.5696 41.2475 32.2053 40.7866C32.3673 40.6695 32.5206 40.5392 32.6608 40.399C33.3645 39.6954 33.752 38.7588 33.752 37.7616V36.8431C33.8665 36.8538 33.9827 36.8589 34.0989 36.8589C36.1539 36.8589 37.8262 35.1854 37.8262 33.1282Z" fill="#FBB38F"/>
<path d="M36.1371 15.1333V33.1276C36.1371 34.2556 35.2258 35.1681 34.1 35.1681C34.0696 35.1681 34.0367 35.1681 34.0043 35.166C33.5971 35.1468 33.2199 35.0084 32.9101 34.7828C32.9088 34.7828 32.9088 34.7815 32.9075 34.7815C32.3961 34.4119 32.0624 33.8091 32.0624 33.1276V37.7611C32.0624 38.3242 31.8347 38.8348 31.4664 39.2031C31.39 39.28 31.3062 39.3509 31.2173 39.415C30.8815 39.6585 30.4705 39.8016 30.0253 39.8016C29.5848 39.8016 29.1777 39.6619 28.8453 39.4244C28.3924 39.1009 28.0779 38.5972 28.0062 38.0166V39.7803C28.0062 40.3438 27.7772 40.8552 27.4089 41.2235C27.3311 41.3025 27.2452 41.3748 27.1555 41.4388C26.8218 41.6802 26.4117 41.8221 25.9686 41.8221C25.5239 41.8221 25.1111 41.679 24.7753 41.4346C24.2639 41.065 23.9302 40.4622 23.9302 39.7803V37.7611C23.9302 38.4417 23.597 39.0454 23.0851 39.415C22.7506 39.6585 22.3392 39.8016 21.8931 39.8016C20.7682 39.8016 19.8556 38.8878 19.8556 37.7611V26.067L19.8163 26.0738C19.2237 26.0738 18.6636 25.9349 18.1654 25.6884C16.9362 25.0787 16.0898 23.809 16.0898 22.3418V16.8889C16.0898 15.8412 16.5056 14.8372 17.2447 14.0955L18.9485 12.3887C19.4412 11.8952 19.8005 11.2932 20.0021 10.6374C20.1286 10.2319 20.1927 9.80469 20.1927 9.38V8.16406H34.0996V9.71796C34.0996 10.0662 34.1371 10.4336 34.2337 10.769C34.3961 11.415 34.7118 12.0178 35.1566 12.5258C35.7833 13.2415 36.1371 14.1801 36.1371 15.1333Z" fill="#FEDFC5"/>
<path d="M36.1369 15.1333V33.1276C36.1369 34.2556 35.2256 35.1681 34.0998 35.1681C34.0695 35.1681 34.0366 35.1681 34.0041 35.166C33.5969 35.1468 33.2197 35.0084 32.9099 34.7828L32.9445 17.4434C32.9445 17.3387 32.921 17.173 32.877 16.9623C32.0994 13.1748 28.9028 10.6374 25.0366 10.6374H20.002C20.1284 10.2315 20.1925 9.80469 20.1925 9.38V8.16406H34.0994V9.71796C34.0994 10.0662 34.137 10.4336 34.2335 10.769C34.3959 11.415 34.7116 12.0178 35.1564 12.5258C35.7831 13.2415 36.1369 14.1801 36.1369 15.1333Z" fill="#FFC8AC"/>
<path d="M35.0049 8.16168H19.219C18.699 8.16168 18.2773 7.73999 18.2773 7.22003V1.5979C18.2773 1.07794 18.699 0.65625 19.219 0.65625H35.0049C35.5248 0.65625 35.9465 1.07794 35.9465 1.5979V7.22003C35.9465 7.73999 35.5248 8.16168 35.0049 8.16168Z" fill="#4D4354"/>
<path d="M22.7384 4.40759C22.7384 3.94061 22.3607 3.5625 21.8946 3.5625C21.4285 3.5625 21.0508 3.94061 21.0508 4.40759C21.0508 4.87415 21.4285 5.25269 21.8946 5.25269C22.3607 5.25269 22.7384 4.87415 22.7384 4.40759Z" fill="#EE6C4D"/>
<path d="M32.9074 23.7123V34.7831C32.3956 34.4135 32.0619 33.8107 32.0619 33.1288V37.7623C32.0619 38.3258 31.8346 38.8363 31.4659 39.2046C31.3894 39.2815 31.3061 39.3525 31.2168 39.4165V23.7123C31.2168 23.2457 31.5958 22.8672 32.0619 22.8672C32.5284 22.8672 32.9074 23.2457 32.9074 23.7123Z" fill="#FBB38F"/>
<path d="M28.8464 23.7123V39.4255C28.3931 39.1021 28.0791 38.5984 28.0069 38.0182V39.7818C28.0069 40.345 27.7783 40.8568 27.4096 41.2251C27.3318 41.3041 27.2464 41.3759 27.1562 41.4404V23.7123C27.1562 23.2457 27.5348 22.8672 28.0013 22.8672C28.4679 22.8672 28.8464 23.2457 28.8464 23.7123Z" fill="#FBB38F"/>
<path d="M24.7761 23.7123V41.4357C24.2647 41.0661 23.931 40.4633 23.931 39.7818V37.7623C23.931 38.4429 23.5978 39.047 23.0859 39.4165V23.7123C23.0859 23.2457 23.4649 22.8672 23.931 22.8672C24.3989 22.8672 24.7761 23.2457 24.7761 23.7123Z" fill="#FBB38F"/>
<path d="M19.8562 22.0404V26.0668L19.8165 26.0732C19.2239 26.0732 18.6638 25.9348 18.166 25.6882V22.0404C18.166 21.5739 18.5446 21.1953 19.0111 21.1953C19.4785 21.1953 19.8562 21.5739 19.8562 22.0404Z" fill="#FBB38F"/>
</g>
<defs>
<clipPath id="clip0_33746_197974">
<rect width="56" height="56" fill="white"/>
</clipPath>
</defs>
</svg>
