<svg width="56" height="56" viewBox="0 0 56 56" fill="none" xmlns="http://www.w3.org/2000/svg">
<g clip-path="url(#clip0_33746_197897)">
<path d="M42.875 36.0938V56H4.92188C4.00302 56 3.28125 55.278 3.28125 54.3594V36.0938H42.875Z" fill="#DFD6E5"/>
<path d="M42.875 36.0938H18.1562V56H42.875V36.0938Z" fill="#C2B0CF"/>
<path d="M51.0781 0H34.6719C31.9483 0 29.75 2.19833 29.75 4.92188V11.4844C29.75 13.6171 31.128 15.4546 33.0312 16.1108V21.3281C33.0312 21.9844 33.425 22.575 34.0484 22.8374C34.2453 22.9359 34.475 22.9688 34.6719 22.9688C35.0984 22.9688 35.525 22.8047 35.8202 22.4765L41.9235 16.4062H51.0781C53.8017 16.4062 56 14.2077 56 11.4844V4.92188C56 2.19833 53.8017 0 51.0781 0Z" fill="#FEB644"/>
<path d="M56 4.92188V11.4844C56 14.2077 53.8017 16.4062 51.0781 16.4062H44.5156V0H51.0781C53.8017 0 56 2.19833 56 4.92188Z" fill="#FFA921"/>
<path d="M18.1562 19.6875C11.8234 19.6875 6.5625 24.8391 6.5625 31.1719V34.4531C6.5625 35.372 7.28427 36.0938 8.20312 36.0938H28.1094C29.0282 36.0938 29.75 35.372 29.75 34.4531V31.1719C29.75 24.8391 24.4891 19.6875 18.1562 19.6875Z" fill="#F58B71"/>
<path d="M29.75 31.1719V34.4531C29.75 35.372 29.0282 36.0938 28.1094 36.0938H18.1562V19.6875C24.4891 19.6875 29.75 24.8391 29.75 31.1719Z" fill="#EE6C4D"/>
<path d="M18.1562 6.5625C13.6281 6.5625 9.84375 10.2375 9.84375 14.7656C9.84375 19.2937 13.6281 22.9688 18.1562 22.9688C22.6844 22.9688 26.4688 19.2937 26.4688 14.7656C26.4688 10.2375 22.6844 6.5625 18.1562 6.5625Z" fill="#FCB19E"/>
<path d="M26.4688 14.7656C26.4688 19.2937 22.6844 22.9688 18.1562 22.9688V6.5625C22.6844 6.5625 26.4688 10.2375 26.4688 14.7656Z" fill="#F58B71"/>
<path d="M49.4375 8.20312C49.4375 9.12177 48.7157 9.84375 47.7969 9.84375H37.9531C37.0343 9.84375 36.3125 9.12177 36.3125 8.20312C36.3125 7.28427 37.0343 6.5625 37.9531 6.5625H47.7969C48.7157 6.5625 49.4375 7.28427 49.4375 8.20312Z" fill="#4D4354"/>
<path d="M49.4375 8.20312C49.4375 9.12177 48.7157 9.84375 47.7969 9.84375H44.5156V6.5625H47.7969C48.7157 6.5625 49.4375 7.28427 49.4375 8.20312Z" fill="#201429"/>
<path d="M42.875 32.8125V39.375H3.28125C1.47656 39.375 0 37.8984 0 36.0938C0 34.2891 1.47656 32.8125 3.28125 32.8125H42.875Z" fill="#4D4354"/>
<path d="M42.875 32.8125H18.1562V39.375H42.875V32.8125Z" fill="#201429"/>
<path d="M44.5156 39.375C38.1828 39.375 33.0312 44.6359 33.0312 50.9688V54.3594C33.0312 55.2782 33.753 56 34.6719 56H54.3594C55.2782 56 56 55.2782 56 54.3594V50.9688C56 44.6359 50.8484 39.375 44.5156 39.375Z" fill="#FEB644"/>
<path d="M56 50.9688V54.3594C56 55.2782 55.2782 56 54.3594 56H44.5156V39.375C50.8484 39.375 56 44.6359 56 50.9688Z" fill="#FFA921"/>
<path d="M44.5156 26.25C39.9875 26.25 36.3125 29.925 36.3125 34.4531C36.3125 38.9812 39.9875 42.6562 44.5156 42.6562C49.0437 42.6562 52.7188 38.9812 52.7188 34.4531C52.7188 29.925 49.0437 26.25 44.5156 26.25Z" fill="#FCB19E"/>
<path d="M52.7188 34.4531C52.7188 38.9812 49.0438 42.6562 44.5156 42.6562V26.25C49.0438 26.25 52.7188 29.925 52.7188 34.4531Z" fill="#F58B71"/>
</g>
<defs>
<clipPath id="clip0_33746_197897">
<rect width="56" height="56" fill="white"/>
</clipPath>
</defs>
</svg>
