<svg width="66" height="60" viewBox="0 0 66 60" fill="none" xmlns="http://www.w3.org/2000/svg">
<circle cx="20" cy="20" r="20" fill="#EE6C4D" fill-opacity="0.16"/>
<path d="M40.7992 11H37.9992C34.1394 11 30.9992 14.1402 30.9992 18V20.2809C29.1872 22.4241 28.1992 25.1105 28.1992 27.9493V37.6C28.1992 38.3732 28.8261 39 29.5992 39C30.3724 39 30.9992 38.3732 30.9992 37.6V27.9493C30.9992 25.8291 31.7196 23.8195 33.0444 22.2H35.1992C39.059 22.2 42.1992 19.0598 42.1992 15.2V12.4C42.1992 11.6268 41.5725 11 40.7992 11Z" fill="#028F5D"/>
<path d="M43.6051 52.9953C42.8318 52.9953 42.2051 52.3686 42.2051 51.5953C42.2051 50.8221 42.8318 50.1953 43.6051 50.1953C50.5527 50.1953 56.2051 44.5429 56.2051 37.5953C56.2051 30.6477 50.5527 24.9953 43.6051 24.9953C42.8318 24.9953 42.2051 24.3686 42.2051 23.5953C42.2051 22.8221 42.8318 22.1953 43.6051 22.1953C52.0967 22.1953 59.0051 29.1037 59.0051 37.5953C59.0051 46.0869 52.0967 52.9953 43.6051 52.9953Z" fill="#028F5D"/>
<path d="M43.6 50.2C36.6523 50.2 31 44.5476 31 37.6V34.9493C31 32.1106 30.012 29.4241 28.2 27.2809V25C28.2 21.1402 25.0598 18 21.2 18H18.4C17.6268 18 17 18.6268 17 19.4V22.2C17 26.0598 20.1402 29.2 24 29.2H26.1549C27.4796 30.8195 28.2 32.8291 28.2 34.9493V37.6C28.2 46.0916 35.1084 53 43.6 53C44.3732 53 45 52.3732 45 51.6C45 50.8268 44.3732 50.2 43.6 50.2Z" fill="#09A66D"/>
<path d="M51.1895 30.921C51.0606 30.7209 50.8389 30.6 50.6009 30.6H46.0257L47.0981 18.7632C47.1157 18.5673 47.0503 18.3731 46.9176 18.2279C46.785 18.0828 46.5975 18 46.4009 18H43.6009C43.3267 18 43.0779 18.16 42.9641 18.4093L35.9343 33.8093C35.8354 34.0261 35.8534 34.2781 35.9822 34.4785C36.111 34.6788 36.3328 34.8 36.571 34.8H41.1836L40.1037 46.6364C40.0859 46.8322 40.1513 47.0266 40.2839 47.1719C40.4166 47.3171 40.6042 47.4 40.8009 47.4H43.6009C43.8753 47.4 44.1245 47.2395 44.2381 46.9897L51.2381 31.5897C51.3366 31.373 51.3183 31.1211 51.1895 30.921Z" fill="#FFA921"/>
<path d="M48.3895 30.9211C48.2606 30.7209 48.0389 30.6 47.8009 30.6H43.2257L44.2981 18.7632C44.3289 18.4234 44.1102 18.111 43.7803 18.0235C43.451 17.9361 43.1058 18.099 42.9641 18.4093L35.9343 33.8093C35.8354 34.0261 35.8534 34.2782 35.9822 34.4785C36.111 34.6788 36.3328 34.8 36.571 34.8H41.1836L40.1037 46.6364C40.0728 46.9765 40.2915 47.2892 40.6217 47.3767C40.6814 47.3925 40.7416 47.4001 40.801 47.4001C41.0699 47.4001 41.3224 47.2444 41.4381 46.9897L48.4381 31.5897C48.5366 31.373 48.5183 31.1212 48.3895 30.9211Z" fill="#FEB644"/>
</svg>
