<svg width="33" height="32" viewBox="0 0 33 32" fill="none" xmlns="http://www.w3.org/2000/svg">
<g clip-path="url(#clip0_33746_197853)">
<path d="M29.0625 20.731C27.4921 20.731 26.1653 21.7899 25.756 23.231H22.4375V19.5713H25.8258C29.506 19.5713 32.5 16.5773 32.5 12.8971C32.5 9.94644 30.543 7.35431 27.7647 6.51006C26.9249 3.14731 23.8894 0.7355 20.3739 0.7355C19.0111 0.7355 17.7056 1.08694 16.5534 1.75837C15.3333 0.6425 13.7333 0.015625 12.0522 0.015625C8.44644 0.015625 5.49931 2.89006 5.38169 6.46769C2.52788 7.26537 0.5 9.87831 0.5 12.8971C0.5 16.5773 3.494 19.5713 7.17419 19.5713H10.5625V23.231H7.244C6.83481 21.7899 5.50794 20.731 3.9375 20.731C2.04206 20.731 0.5 22.2731 0.5 24.1685C0.5 26.0639 2.04206 27.606 3.9375 27.606C5.50794 27.606 6.83475 26.5471 7.244 25.106H11.5C12.0177 25.106 12.4375 24.6862 12.4375 24.1685V19.5713H15.5625V25.237C14.1214 25.6462 13.0625 26.9731 13.0625 28.5435C13.0625 30.4389 14.6046 31.981 16.5 31.981C18.3954 31.981 19.9375 30.4389 19.9375 28.5435C19.9375 26.9731 18.8786 25.6462 17.4375 25.237V19.5713H20.5625V24.1685C20.5625 24.6862 20.9823 25.106 21.5 25.106H25.756C26.1652 26.5471 27.4921 27.606 29.0625 27.606C30.9579 27.606 32.5 26.0639 32.5 24.1685C32.5 22.2731 30.9579 20.731 29.0625 20.731ZM3.9375 25.731C3.07594 25.731 2.375 25.0301 2.375 24.1685C2.375 23.3069 3.07594 22.606 3.9375 22.606C4.79906 22.606 5.5 23.3069 5.5 24.1685C5.5 25.0301 4.79906 25.731 3.9375 25.731ZM18.0625 28.5435C18.0625 29.4051 17.3616 30.106 16.5 30.106C15.6384 30.106 14.9375 29.4051 14.9375 28.5435C14.9375 27.6819 15.6384 26.981 16.5 26.981C17.3616 26.981 18.0625 27.6819 18.0625 28.5435ZM7.17419 17.6963C4.52794 17.6963 2.375 15.5434 2.375 12.8971C2.375 10.5319 4.13794 8.4905 6.47563 8.14862C6.96894 8.0765 7.31944 7.63087 7.27344 7.1345C7.25987 6.98806 7.253 6.83844 7.253 6.68975C7.253 4.04356 9.40594 1.89069 12.0522 1.89069C13.4641 1.89069 14.7955 2.50444 15.705 3.57456C16.0243 3.95025 16.58 4.01437 16.9766 3.72137C17.9598 2.99462 19.1346 2.6105 20.3738 2.6105C23.2256 2.6105 25.5971 4.70294 26.0404 7.42487C26.1031 7.80975 26.3976 8.11563 26.7798 8.193C29.0078 8.64406 30.6249 10.6224 30.6249 12.8971C30.6249 15.5434 28.472 17.6963 25.8258 17.6963H7.17419ZM29.0625 25.731C28.2009 25.731 27.5 25.0301 27.5 24.1685C27.5 23.3069 28.2009 22.606 29.0625 22.606C29.9241 22.606 30.625 23.3069 30.625 24.1685C30.625 25.0301 29.9241 25.731 29.0625 25.731Z" fill="#EE6C4D"/>
</g>
<defs>
<clipPath id="clip0_33746_197853">
<rect width="32" height="32" fill="white" transform="translate(0.5)"/>
</clipPath>
</defs>
</svg>
