<svg width="32" height="32" viewBox="0 0 32 32" fill="none" xmlns="http://www.w3.org/2000/svg">
<path d="M13.5 5.5H14.5V6.5H13.5V5.5Z" fill="#EE6C4D"/>
<path d="M26.5 17.5H27.5V18.5H26.5V17.5Z" fill="#EE6C4D"/>
<path d="M17.5 25.5H18.5V26.5H17.5V25.5Z" fill="#EE6C4D"/>
<path d="M13.5 27H14.5V28H13.5V27Z" fill="#EE6C4D"/>
<path d="M5.5 15.5H6.5V16.5H5.5V15.5Z" fill="#EE6C4D"/>
<path d="M17.5 5.5H18.5V6.5H17.5V5.5Z" fill="#EE6C4D"/>
<path d="M25.5 13.5H26.5V14.5H25.5V13.5Z" fill="#EE6C4D"/>
<path d="M23 8.5H24V9.5H23V8.5Z" fill="#EE6C4D"/>
<path d="M8 8.5H9V9.5H8V8.5Z" fill="#EE6C4D"/>
<path d="M23 22.5H24V23.5H23V22.5Z" fill="#EE6C4D"/>
<path d="M8 22.5H9V23.5H8V22.5Z" fill="#EE6C4D"/>
<path d="M15.9409 15.5014C15.5912 15.5127 15.2565 15.6461 14.995 15.8784C14.7334 16.1108 14.5615 16.4275 14.5091 16.7734C14.4567 17.1193 14.5271 17.4727 14.7081 17.7721C14.8891 18.0715 15.1692 18.298 15.4999 18.4124V19.5014H16.4999V18.4089C16.8387 18.2902 17.1235 18.0538 17.3025 17.7427C17.4814 17.4315 17.5426 17.0664 17.4748 16.714C17.4071 16.3615 17.2149 16.0451 16.9333 15.8225C16.6517 15.5999 16.2995 15.486 15.9409 15.5014ZM16.4999 16.9819C16.5025 17.0475 16.4922 17.113 16.4695 17.1747C16.4467 17.2363 16.4121 17.2928 16.3675 17.3411C16.323 17.3893 16.2693 17.4283 16.2097 17.4558C16.15 17.4833 16.0855 17.4988 16.0199 17.5014C15.9542 17.504 15.8886 17.4935 15.8269 17.4707C15.7652 17.4479 15.7086 17.4131 15.6604 17.3684C15.5877 17.3013 15.5366 17.2141 15.5134 17.118C15.4903 17.0218 15.4962 16.9209 15.5304 16.8281C15.5646 16.7353 15.6256 16.6547 15.7056 16.5966C15.7856 16.5384 15.8811 16.5053 15.9799 16.5014H15.9999C16.1291 16.5013 16.2533 16.5512 16.3466 16.6407C16.4398 16.7302 16.4947 16.8523 16.4999 16.9814V16.9819Z" fill="#EE6C4D"/>
<path d="M18.5 14.092V13.5C18.5 12.837 18.2366 12.2011 17.7678 11.7322C17.2989 11.2634 16.663 11 16 11C15.337 11 14.7011 11.2634 14.2322 11.7322C13.7634 12.2011 13.5 12.837 13.5 13.5V14.092C13.2085 14.195 12.956 14.3856 12.777 14.6377C12.598 14.8897 12.5013 15.1909 12.5 15.5V19.5C12.5 19.8978 12.658 20.2794 12.9393 20.5607C13.2206 20.842 13.6022 21 14 21H18C18.3978 21 18.7794 20.842 19.0607 20.5607C19.342 20.2794 19.5 19.8978 19.5 19.5V15.5C19.4987 15.1909 19.402 14.8897 19.223 14.6377C19.044 14.3856 18.7915 14.195 18.5 14.092ZM14.5 13.5C14.5 13.1022 14.658 12.7206 14.9393 12.4393C15.2206 12.158 15.6022 12 16 12C16.3978 12 16.7794 12.158 17.0607 12.4393C17.342 12.7206 17.5 13.1022 17.5 13.5V14H14.5V13.5ZM18.5 19.5C18.5 19.6326 18.4473 19.7598 18.3536 19.8536C18.2598 19.9473 18.1326 20 18 20H14C13.8674 20 13.7402 19.9473 13.6464 19.8536C13.5527 19.7598 13.5 19.6326 13.5 19.5V15.5C13.5 15.3674 13.5527 15.2402 13.6464 15.1464C13.7402 15.0527 13.8674 15 14 15H18C18.1326 15 18.2598 15.0527 18.3536 15.1464C18.4473 15.2402 18.5 15.3674 18.5 15.5V19.5Z" fill="#EE6C4D"/>
<path d="M29.5 20.5C29.2773 20.5009 29.0576 20.5521 28.8575 20.65L27.7075 19.5H23V18.5H25.5V17.5H23V16.5H25.618L28.4615 15.078C28.7107 15.3167 29.0347 15.462 29.3787 15.4892C29.7228 15.5165 30.0656 15.4241 30.3493 15.2276C30.633 15.0311 30.8401 14.7427 30.9356 14.411C31.031 14.0794 31.009 13.725 30.8732 13.4078C30.7374 13.0905 30.4961 12.8299 30.1903 12.6701C29.8844 12.5103 29.5328 12.4611 29.1948 12.5307C28.8568 12.6004 28.5533 12.7847 28.3355 13.0524C28.1178 13.3202 27.9993 13.6549 28 14C28.0023 14.0608 28.0085 14.1214 28.0185 14.1815L25.382 15.5H23V14.5H24.5V13.5H23V12.5H25.207L26.857 10.85C27.0573 10.9479 27.2771 10.9992 27.5 11C27.7967 11 28.0867 10.912 28.3334 10.7472C28.58 10.5824 28.7723 10.3481 28.8858 10.074C28.9993 9.79994 29.0291 9.49834 28.9712 9.20736C28.9133 8.91639 28.7704 8.64912 28.5607 8.43934C28.3509 8.22956 28.0836 8.0867 27.7926 8.02882C27.5017 7.97094 27.2001 8.00065 26.926 8.11418C26.6519 8.22771 26.4176 8.41997 26.2528 8.66665C26.088 8.91332 26 9.20333 26 9.5C26.0009 9.72274 26.0521 9.9424 26.15 10.1425L24.793 11.5H23C22.9992 10.8372 22.7356 10.2018 22.2669 9.73311C21.7982 9.26444 21.1628 9.00079 20.5 9V7.707L23.3575 4.85C23.5576 4.94786 23.7773 4.99914 24 5C24.2967 5 24.5867 4.91203 24.8334 4.7472C25.08 4.58238 25.2723 4.34811 25.3858 4.07403C25.4993 3.79994 25.5291 3.49834 25.4712 3.20737C25.4133 2.91639 25.2704 2.64912 25.0607 2.43934C24.8509 2.22956 24.5836 2.0867 24.2926 2.02882C24.0017 1.97095 23.7001 2.00065 23.426 2.11418C23.1519 2.22771 22.9176 2.41997 22.7528 2.66665C22.588 2.91332 22.5 3.20333 22.5 3.5C22.5009 3.72274 22.5521 3.9424 22.65 4.1425L19.5 7.2925V9H18.5V7.5H17.5V9H16.5V5.408C16.8336 5.29005 17.1148 5.05797 17.2938 4.75276C17.4729 4.44755 17.5382 4.08888 17.4784 3.74013C17.4186 3.39139 17.2374 3.07502 16.9668 2.84695C16.6963 2.61888 16.3538 2.49379 16 2.49379C15.6462 2.49379 15.3037 2.61888 15.0332 2.84695C14.7626 3.07502 14.5814 3.39139 14.5216 3.74013C14.4618 4.08888 14.5271 4.44755 14.7062 4.75276C14.8852 5.05797 15.1664 5.29005 15.5 5.408V9H14.5V7.5H13.5V9H12.5V5.293L10.35 3.143C10.4479 2.94275 10.4992 2.72291 10.5 2.5C10.5 2.20333 10.412 1.91332 10.2472 1.66665C10.0824 1.41997 9.84811 1.22771 9.57403 1.11418C9.29994 1.00065 8.99834 0.970945 8.70736 1.02882C8.41639 1.0867 8.14912 1.22956 7.93934 1.43934C7.72956 1.64912 7.5867 1.91639 7.52882 2.20737C7.47094 2.49834 7.50065 2.79994 7.61418 3.07403C7.72771 3.34811 7.91997 3.58238 8.16665 3.7472C8.41332 3.91203 8.70333 4 9 4C9.22274 3.99914 9.4424 3.94786 9.6425 3.85L11.5 5.707V9C10.8372 9.00079 10.2018 9.26444 9.73311 9.73311C9.26444 10.2018 9.00079 10.8372 9 11.5H7.207L5.85 10.1425C5.94786 9.9424 5.99914 9.72274 6 9.5C6 9.20333 5.91203 8.91332 5.7472 8.66665C5.58238 8.41997 5.34811 8.22771 5.07403 8.11418C4.79994 8.00065 4.49834 7.97094 4.20737 8.02882C3.91639 8.0867 3.64912 8.22956 3.43934 8.43934C3.22956 8.64912 3.0867 8.91639 3.02882 9.20736C2.97095 9.49834 3.00065 9.79994 3.11418 10.074C3.22771 10.3481 3.41997 10.5824 3.66665 10.7472C3.91332 10.912 4.20333 11 4.5 11C4.72274 10.9991 4.9424 10.9479 5.1425 10.85L6.7925 12.5H9V13.5H5.819L3.2 15.682C2.98536 15.5642 2.74481 15.5017 2.5 15.5C2.20333 15.5 1.91332 15.588 1.66665 15.7528C1.41997 15.9176 1.22771 16.1519 1.11418 16.426C1.00065 16.7001 0.970945 17.0017 1.02882 17.2926C1.0867 17.5836 1.22956 17.8509 1.43934 18.0607C1.64912 18.2704 1.91639 18.4133 2.20737 18.4712C2.49834 18.5291 2.79994 18.4993 3.07403 18.3858C3.34811 18.2723 3.58238 18.08 3.74721 17.8334C3.91203 17.5867 4 17.2967 4 17C4.00034 16.7993 3.96003 16.6007 3.8815 16.416L6.181 14.5H9V15.5H7.5V16.5H9V17.5H4.5V18.5H9V19.5H6.2325L4.2175 22.522C4.14564 22.5093 4.07294 22.502 4 22.5C3.65215 22.4968 3.31381 22.6135 3.04189 22.8304C2.76996 23.0474 2.58104 23.3514 2.5069 23.6912C2.43275 24.0311 2.47791 24.3861 2.63477 24.6966C2.79163 25.0071 3.05062 25.2541 3.3682 25.3961C3.68577 25.5381 4.04255 25.5664 4.37852 25.4762C4.7145 25.386 5.00918 25.1829 5.213 24.901C5.41682 24.6191 5.51735 24.2756 5.49768 23.9283C5.47801 23.581 5.33935 23.2511 5.105 22.994L6.7675 20.5H9C9.00079 21.1628 9.26444 21.7982 9.73311 22.2669C10.2018 22.7356 10.8372 22.9992 11.5 23V26.293L9.6425 28.15C9.4424 28.0521 9.22274 28.0009 9 28C8.70333 28 8.41332 28.088 8.16665 28.2528C7.91997 28.4176 7.72771 28.6519 7.61418 28.926C7.50065 29.2001 7.47094 29.5017 7.52882 29.7926C7.5867 30.0836 7.72956 30.3509 7.93934 30.5607C8.14912 30.7704 8.41639 30.9133 8.70736 30.9712C8.99834 31.0291 9.29994 30.9993 9.57403 30.8858C9.84811 30.7723 10.0824 30.58 10.2472 30.3334C10.412 30.0867 10.5 29.7967 10.5 29.5C10.4991 29.2773 10.4479 29.0576 10.35 28.8575L12.5 26.7075V23H13.5V26H14.5V23H15.5V27.277L18.537 29.177C18.4554 29.5273 18.5005 29.8952 18.6643 30.2154C18.828 30.5357 19.1 30.7875 19.4318 30.9264C19.7636 31.0652 20.1338 31.0821 20.4769 30.974C20.8199 30.8658 21.1136 30.6397 21.3058 30.3356C21.498 30.0316 21.5763 29.6693 21.5268 29.3131C21.4774 28.9568 21.3033 28.6296 21.0356 28.3894C20.7678 28.1492 20.4237 28.0116 20.0641 28.001C19.7046 27.9904 19.3529 28.1075 19.0715 28.3315L16.5 26.723V23H17.5V24.5H18.5V23H19.5V27H23.092C23.2099 27.3336 23.442 27.6148 23.7472 27.7938C24.0524 27.9729 24.4111 28.0382 24.7599 27.9784C25.1086 27.9186 25.425 27.7374 25.6531 27.4668C25.8811 27.1963 26.0062 26.8538 26.0062 26.5C26.0062 26.1462 25.8811 25.8037 25.6531 25.5332C25.425 25.2626 25.1086 25.0814 24.7599 25.0216C24.4111 24.9618 24.0524 25.0271 23.7472 25.2062C23.442 25.3852 23.2099 25.6664 23.092 26H20.5V23C21.1628 22.9992 21.7982 22.7356 22.2669 22.2669C22.7356 21.7982 22.9992 21.1628 23 20.5H27.293L28.15 21.3575C28.0521 21.5576 28.0009 21.7773 28 22C28 22.2967 28.088 22.5867 28.2528 22.8334C28.4176 23.08 28.6519 23.2723 28.926 23.3858C29.2001 23.4993 29.5017 23.5291 29.7926 23.4712C30.0836 23.4133 30.3509 23.2704 30.5607 23.0607C30.7704 22.8509 30.9133 22.5836 30.9712 22.2926C31.0291 22.0017 30.9993 21.7001 30.8858 21.426C30.7723 21.1519 30.58 20.9176 30.3334 20.7528C30.0867 20.588 29.7967 20.5 29.5 20.5ZM29.5 13.5C29.5989 13.5 29.6956 13.5293 29.7778 13.5843C29.86 13.6392 29.9241 13.7173 29.9619 13.8087C29.9998 13.9 30.0097 14.0006 29.9904 14.0975C29.9711 14.1945 29.9235 14.2836 29.8536 14.3536C29.7836 14.4235 29.6945 14.4711 29.5975 14.4904C29.5006 14.5097 29.4 14.4998 29.3087 14.4619C29.2173 14.4241 29.1392 14.36 29.0843 14.2778C29.0293 14.1956 29 14.0989 29 14C29 13.8674 29.0527 13.7402 29.1464 13.6464C29.2402 13.5527 29.3674 13.5 29.5 13.5ZM27.5 9C27.5989 9 27.6956 9.02932 27.7778 9.08426C27.86 9.13921 27.9241 9.2173 27.9619 9.30866C27.9998 9.40002 28.0097 9.50056 27.9904 9.59755C27.9711 9.69454 27.9235 9.78363 27.8536 9.85355C27.7836 9.92348 27.6945 9.9711 27.5975 9.99039C27.5006 10.0097 27.4 9.99978 27.3087 9.96194C27.2173 9.9241 27.1392 9.86001 27.0843 9.77779C27.0293 9.69556 27 9.59889 27 9.5C27 9.36739 27.0527 9.24022 27.1464 9.14645C27.2402 9.05268 27.3674 9 27.5 9ZM24 3C24.0989 3 24.1956 3.02933 24.2778 3.08427C24.36 3.13921 24.4241 3.2173 24.4619 3.30866C24.4998 3.40002 24.5097 3.50056 24.4904 3.59755C24.4711 3.69454 24.4235 3.78363 24.3536 3.85355C24.2836 3.92348 24.1945 3.9711 24.0975 3.99039C24.0006 4.00969 23.9 3.99978 23.8087 3.96194C23.7173 3.9241 23.6392 3.86001 23.5843 3.77779C23.5293 3.69556 23.5 3.59889 23.5 3.5C23.5 3.36739 23.5527 3.24022 23.6464 3.14645C23.7402 3.05268 23.8674 3 24 3ZM16 3.5C16.0989 3.5 16.1956 3.52933 16.2778 3.58427C16.36 3.63921 16.4241 3.7173 16.4619 3.80866C16.4998 3.90002 16.5097 4.00056 16.4904 4.09755C16.4711 4.19454 16.4235 4.28363 16.3536 4.35355C16.2836 4.42348 16.1945 4.4711 16.0975 4.49039C16.0006 4.50969 15.9 4.49978 15.8087 4.46194C15.7173 4.4241 15.6392 4.36001 15.5843 4.27779C15.5293 4.19556 15.5 4.09889 15.5 4C15.5 3.86739 15.5527 3.74022 15.6464 3.64645C15.7402 3.55268 15.8674 3.5 16 3.5ZM8.5 2.5C8.5 2.40111 8.52932 2.30444 8.58427 2.22222C8.63921 2.13999 8.7173 2.0759 8.80866 2.03806C8.90002 2.00022 9.00056 1.99032 9.09755 2.00961C9.19454 2.0289 9.28363 2.07652 9.35355 2.14645C9.42348 2.21637 9.4711 2.30546 9.49039 2.40246C9.50969 2.49945 9.49978 2.59998 9.46194 2.69134C9.4241 2.78271 9.36001 2.86079 9.27779 2.91574C9.19556 2.97068 9.09889 3 9 3C8.86739 3 8.74021 2.94732 8.64645 2.85355C8.55268 2.75979 8.5 2.63261 8.5 2.5ZM4 9.5C4 9.40111 4.02933 9.30444 4.08427 9.22221C4.13921 9.13999 4.2173 9.0759 4.30866 9.03806C4.40002 9.00022 4.50056 8.99031 4.59755 9.00961C4.69454 9.0289 4.78363 9.07652 4.85355 9.14645C4.92348 9.21637 4.9711 9.30546 4.99039 9.40245C5.00969 9.49944 4.99978 9.59998 4.96194 9.69134C4.9241 9.78271 4.86001 9.8608 4.77779 9.91574C4.69556 9.97068 4.59889 10 4.5 10C4.36739 10 4.24022 9.94732 4.14645 9.85355C4.05268 9.75979 4 9.63261 4 9.5ZM2.5 17.5C2.40111 17.5 2.30444 17.4707 2.22222 17.4157C2.13999 17.3608 2.0759 17.2827 2.03806 17.1913C2.00022 17.1 1.99032 16.9994 2.00961 16.9025C2.0289 16.8055 2.07652 16.7164 2.14645 16.6464C2.21637 16.5765 2.30547 16.5289 2.40246 16.5096C2.49945 16.4903 2.59998 16.5002 2.69134 16.5381C2.78271 16.5759 2.86079 16.64 2.91574 16.7222C2.97068 16.8044 3 16.9011 3 17C3 17.1326 2.94732 17.2598 2.85355 17.3536C2.75979 17.4473 2.63261 17.5 2.5 17.5ZM4 24.5C3.90111 24.5 3.80444 24.4707 3.72222 24.4157C3.63999 24.3608 3.5759 24.2827 3.53806 24.1913C3.50022 24.1 3.49032 23.9994 3.50961 23.9025C3.5289 23.8055 3.57652 23.7164 3.64645 23.6464C3.71637 23.5765 3.80546 23.5289 3.90246 23.5096C3.99945 23.4903 4.09998 23.5002 4.19134 23.5381C4.28271 23.5759 4.36079 23.64 4.41574 23.7222C4.47068 23.8044 4.5 23.9011 4.5 24C4.5 24.1326 4.44732 24.2598 4.35355 24.3536C4.25979 24.4473 4.13261 24.5 4 24.5ZM9 30C8.90111 30 8.80444 29.9707 8.72222 29.9157C8.63999 29.8608 8.5759 29.7827 8.53806 29.6913C8.50022 29.6 8.49031 29.4994 8.50961 29.4025C8.5289 29.3055 8.57652 29.2164 8.64645 29.1464C8.71637 29.0765 8.80546 29.0289 8.90245 29.0096C8.99945 28.9903 9.09998 29.0002 9.19134 29.0381C9.28271 29.0759 9.3608 29.14 9.41574 29.2222C9.47068 29.3044 9.5 29.4011 9.5 29.5C9.5 29.6326 9.44732 29.7598 9.35355 29.8536C9.25979 29.9473 9.13261 30 9 30ZM20 29C20.0989 29 20.1956 29.0293 20.2778 29.0843C20.36 29.1392 20.4241 29.2173 20.4619 29.3087C20.4998 29.4 20.5097 29.5006 20.4904 29.5975C20.4711 29.6945 20.4235 29.7836 20.3536 29.8536C20.2836 29.9235 20.1945 29.9711 20.0975 29.9904C20.0006 30.0097 19.9 29.9998 19.8087 29.9619C19.7173 29.9241 19.6392 29.86 19.5843 29.7778C19.5293 29.6956 19.5 29.5989 19.5 29.5C19.5 29.3674 19.5527 29.2402 19.6464 29.1464C19.7402 29.0527 19.8674 29 20 29ZM24.5 26C24.5989 26 24.6956 26.0293 24.7778 26.0843C24.86 26.1392 24.9241 26.2173 24.9619 26.3087C24.9998 26.4 25.0097 26.5006 24.9904 26.5975C24.9711 26.6945 24.9235 26.7836 24.8536 26.8536C24.7836 26.9235 24.6945 26.9711 24.5975 26.9904C24.5006 27.0097 24.4 26.9998 24.3087 26.9619C24.2173 26.9241 24.1392 26.86 24.0843 26.7778C24.0293 26.6956 24 26.5989 24 26.5C24 26.3674 24.0527 26.2402 24.1464 26.1464C24.2402 26.0527 24.3674 26 24.5 26ZM22 20.5C22 20.8978 21.842 21.2794 21.5607 21.5607C21.2794 21.842 20.8978 22 20.5 22H11.5C11.1022 22 10.7206 21.842 10.4393 21.5607C10.158 21.2794 10 20.8978 10 20.5V11.5C10 11.1022 10.158 10.7206 10.4393 10.4393C10.7206 10.158 11.1022 10 11.5 10H20.5C20.8978 10 21.2794 10.158 21.5607 10.4393C21.842 10.7206 22 11.1022 22 11.5V20.5ZM29.5 22.5C29.4011 22.5 29.3044 22.4707 29.2222 22.4157C29.14 22.3608 29.0759 22.2827 29.0381 22.1913C29.0002 22.1 28.9903 21.9994 29.0096 21.9025C29.0289 21.8055 29.0765 21.7164 29.1464 21.6464C29.2164 21.5765 29.3055 21.5289 29.4025 21.5096C29.4994 21.4903 29.6 21.5002 29.6913 21.5381C29.7827 21.5759 29.8608 21.64 29.9157 21.7222C29.9707 21.8044 30 21.9011 30 22C30 22.1326 29.9473 22.2598 29.8536 22.3536C29.7598 22.4473 29.6326 22.5 29.5 22.5Z" fill="#EE6C4D"/>
</svg>
