<svg width="52" height="47" viewBox="0 0 52 47" fill="none" xmlns="http://www.w3.org/2000/svg">
<circle opacity="0.2" cx="20" cy="20.6797" r="20" fill="#DFD6E5"/>
<g clip-path="url(#clip0_34026_20624)">
<path d="M43.3763 31.8359V35.7022C43.3763 35.7022 38.0075 35.6447 38.0075 41.2382H33.9937C33.9937 35.6448 28.625 35.7022 28.625 35.7022V31.8359H43.3763Z" fill="#DFD6E5"/>
<path d="M39.7457 34.0021C39.7457 36.0707 38.0684 37.7479 35.9998 37.7479C33.9312 37.7479 32.2539 36.0707 32.2539 34.0021C32.2539 33.1952 32.5088 32.4477 32.9428 31.8359H39.0567C39.4907 32.4477 39.7457 33.1952 39.7457 34.0021V34.0021Z" fill="#C2B0CF"/>
<path d="M38.9811 45.1746H33.0195L33.3407 41.5011C33.3685 41.1822 33.6355 40.9375 33.9556 40.9375H38.045C38.3651 40.9375 38.632 41.1822 38.6599 41.5011L38.9811 45.1746Z" fill="#201429"/>
<path d="M38.9817 45.1754H33.0195L33.2707 42.3047C34.1308 42.5844 35.0486 42.736 36.0006 42.736C36.9526 42.736 37.8704 42.5844 38.7305 42.3047L38.9817 45.1754Z" fill="#4D4354"/>
<path d="M25.2129 36.8678V30.9062L28.8864 31.2274C29.2053 31.2553 29.45 31.5222 29.45 31.8423V35.9317C29.45 36.2518 29.2053 36.5188 28.8864 36.5466L25.2129 36.8678Z" fill="#201429"/>
<path d="M27.1563 33.8873C27.1563 34.8552 27.3123 35.7869 27.6009 36.6591L25.2129 36.8678V30.9062L27.6016 31.1149C27.3123 31.9871 27.1563 32.9194 27.1563 33.8873V33.8873Z" fill="#4D4354"/>
<path d="M46.7878 36.8678V30.9062L43.1143 31.2274C42.7955 31.2553 42.5508 31.5222 42.5508 31.8423V35.9317C42.5508 36.2518 42.7955 36.5188 43.1143 36.5466L46.7878 36.8678Z" fill="#201429"/>
<path d="M46.789 30.9062V36.8678L44.401 36.6591C44.6896 35.7869 44.8456 34.8552 44.8456 33.8873C44.8456 32.9194 44.6896 31.9871 44.4004 31.1149L46.789 30.9062Z" fill="#4D4354"/>
<path d="M36.0003 21.0938C28.9358 21.0938 23.209 26.8206 23.209 33.8851C23.209 40.9496 28.9358 46.6764 36.0003 46.6764C43.0648 46.6764 48.7916 40.9496 48.7916 33.8851C48.7916 26.8206 43.0648 21.0938 36.0003 21.0938ZM36.0003 43.9979C30.4149 43.9979 25.8875 39.4705 25.8875 33.8851C25.8875 28.2996 30.4149 23.7722 36.0003 23.7722C41.5857 23.7722 46.1131 28.2996 46.1131 33.8851C46.1131 39.4705 41.5857 43.9979 36.0003 43.9979Z" fill="#F58B71"/>
<path d="M48.7916 33.8851C48.7916 40.9496 43.0648 46.6764 36.0003 46.6764C34.6873 46.6764 33.4205 46.4788 32.2285 46.1116C32.8983 46.2239 33.5866 46.2819 34.2885 46.2819C41.1351 46.2819 46.6854 40.7317 46.6854 33.8851C46.6854 27.0384 41.1351 21.4882 34.2885 21.4882C33.5866 21.4882 32.8983 21.5462 32.2285 21.6586C33.4205 21.2912 34.6873 21.0938 36.0003 21.0938C43.0648 21.0938 48.7916 26.8206 48.7916 33.8851V33.8851Z" fill="#EE6C4D"/>
<path d="M35.9996 36.3039C38.0683 36.3039 39.7453 34.6269 39.7453 32.5582C39.7453 30.4895 38.0683 28.8125 35.9996 28.8125C33.9309 28.8125 32.2539 30.4895 32.2539 32.5582C32.2539 34.6269 33.9309 36.3039 35.9996 36.3039Z" fill="#FEB644"/>
<path d="M39.7446 32.5584C39.7446 34.627 38.068 36.3043 35.9987 36.3043C35.6827 36.3043 35.3752 36.2647 35.082 36.1912C36.7068 35.782 37.91 34.3103 37.91 32.5584C37.91 30.8064 36.7068 29.3347 35.082 28.9255C35.3753 28.8521 35.6827 28.8125 35.9987 28.8125C38.068 28.8126 39.7446 30.4898 39.7446 32.5584V32.5584Z" fill="#FFA921"/>
<path d="M37.5158 18.6172C36.6358 17.9217 35.3657 17.9307 34.4958 18.6387C34.292 18.8045 34.2612 19.1042 34.4271 19.3079C34.5211 19.4235 34.6582 19.4833 34.7964 19.4833C34.9019 19.4833 35.0081 19.4484 35.0964 19.3766C35.6234 18.9478 36.3928 18.9422 36.9259 19.3636C37.132 19.5264 37.4311 19.4915 37.5941 19.2853C37.757 19.0793 37.7219 18.7801 37.5158 18.6172Z" fill="#FEB644"/>
<path d="M38.5072 17.2633C37.054 16.0712 34.9518 16.0799 33.5089 17.2837C33.3071 17.452 33.28 17.7519 33.4484 17.9537C33.5424 18.0664 33.6777 18.1246 33.8139 18.1246C33.9213 18.1246 34.0294 18.0884 34.1184 18.0142C35.2112 17.1025 36.8032 17.096 37.9039 17.9989C38.1069 18.1654 38.4067 18.1359 38.5734 17.9327C38.74 17.7297 38.7104 17.4299 38.5072 17.2633Z" fill="#FEB644"/>
<path d="M39.4681 15.9287C37.4584 14.2633 34.5412 14.2634 32.5316 15.9287C32.3292 16.0963 32.3012 16.3962 32.4688 16.5985C32.5629 16.7121 32.6986 16.7707 32.8354 16.7707C32.9423 16.7707 33.0499 16.7348 33.1387 16.6613C34.7965 15.2874 37.2032 15.2874 38.8611 16.6613C39.0634 16.8289 39.3633 16.8008 39.5309 16.5985C39.6985 16.3962 39.6704 16.0963 39.4681 15.9287Z" fill="#FEB644"/>
<path d="M36.9831 30.9942C36.8077 30.7986 36.507 30.7821 36.3113 30.9572L35.0883 32.0526C34.9573 32.17 34.9017 32.35 34.9438 32.5207C34.9859 32.6915 35.1187 32.8251 35.2892 32.8682L35.6117 32.9497L35.0548 33.4485C34.8591 33.6238 34.8426 33.9246 35.0178 34.1202C35.1117 34.2251 35.2417 34.2786 35.3723 34.2786C35.4853 34.2786 35.5987 34.2385 35.6896 34.1572L36.9126 33.0619C37.0436 32.9445 37.0991 32.7645 37.0571 32.5937C37.015 32.423 36.8822 32.2893 36.7117 32.2463L36.3891 32.1648L36.9461 31.666C37.1418 31.4907 37.1583 31.19 36.9831 30.9942V30.9942Z" fill="#EE6C4D"/>
<path d="M35.9991 37.4766C35.7364 37.4766 35.5234 37.6896 35.5234 37.9522V37.9591C35.5234 38.2218 35.7364 38.4347 35.9991 38.4347C36.2619 38.4347 36.4748 38.2218 36.4748 37.9591V37.9522C36.4748 37.6896 36.2619 37.4766 35.9991 37.4766Z" fill="#201429"/>
<path d="M35.9991 38.7812C35.7364 38.7812 35.5234 38.9942 35.5234 39.2569V39.2638C35.5234 39.5266 35.7364 39.7395 35.9991 39.7395C36.2619 39.7395 36.4748 39.5265 36.4748 39.2638V39.2569C36.4748 38.9942 36.2619 38.7812 35.9991 38.7812Z" fill="#201429"/>
</g>
<defs>
<clipPath id="clip0_34026_20624">
<rect width="32" height="32" fill="white" transform="translate(20 14.6797)"/>
</clipPath>
</defs>
</svg>
