<svg width="66" height="60" viewBox="0 0 66 60" fill="none" xmlns="http://www.w3.org/2000/svg">
<circle cx="20" cy="20" r="20" fill="#EE6C4D" fill-opacity="0.16"/>
<path d="M28.219 30.877C27.4218 30.5541 26.8594 29.7718 26.8594 28.8582V24.567C26.8594 23.6652 27.4072 22.8914 28.1881 22.5609C28.4483 22.4508 30.4075 22.5519 30.4075 24.567V28.8582C30.4076 30.9303 28.4711 30.9791 28.219 30.877Z" fill="#FDD4BB"/>
<path d="M29.0364 22.3906C28.7479 22.3906 28.4726 22.4474 28.2207 22.5494C29.0179 22.8725 29.5805 23.6541 29.5805 24.5678V28.859C29.5805 29.7726 29.0179 30.5542 28.2207 30.8773C28.4726 30.9794 28.7479 31.0361 29.0364 31.0361C30.2379 31.0361 31.2119 30.0613 31.2119 28.859L32.0149 26.7134L31.2119 24.5679C31.2119 23.3654 30.238 22.3906 29.0364 22.3906V22.3906Z" fill="#F9B5A1"/>
<path d="M32.5725 31.8645C31.7753 31.5417 31.2129 30.7601 31.2129 29.8471V22.5811C31.2129 21.68 31.7608 20.9068 32.5416 20.5765C32.8018 20.4664 34.761 20.5675 34.761 22.5811V29.8471C34.761 31.8723 32.8245 31.9665 32.5725 31.8645V31.8645Z" fill="#FDD4BB"/>
<path d="M33.3841 20.3984C33.0955 20.3984 32.8203 20.4551 32.5684 20.5572C33.3656 20.8799 33.9282 21.661 33.9282 22.574V29.84C33.9282 30.7529 33.3656 31.5341 32.5684 31.8569C32.8203 31.9589 33.0954 32.0156 33.3841 32.0156C34.5856 32.0156 35.5596 31.0415 35.5596 29.8401L36.3625 26.207L35.5596 22.574C35.5596 21.3725 34.5856 20.3984 33.3841 20.3984V20.3984Z" fill="#F9B5A1"/>
<path d="M39.1106 31.246C39.1106 33.2726 37.1741 33.3669 36.9222 33.2648C36.1249 32.9419 35.5625 32.1596 35.5625 31.246V21.2076C35.5625 20.3058 36.1104 19.532 36.8912 19.2016C37.1514 19.0914 39.1106 19.1925 39.1106 21.2076V31.246Z" fill="#FDD4BB"/>
<path d="M37.7376 19.0312C37.4491 19.0312 37.1738 19.088 36.9219 19.1901C37.7191 19.513 38.2817 20.2947 38.2817 21.2084V31.2467C38.2817 32.1604 37.7191 32.942 36.9219 33.265C37.1738 33.3671 37.4491 33.4238 37.7376 33.4238C38.939 33.4238 39.9131 32.4491 39.9131 31.2467L40.7161 26.213L39.9131 21.2084C39.9131 20.0059 38.9391 19.0312 37.7376 19.0312V19.0312Z" fill="#F9B5A1"/>
<path d="M41.2737 32.6474C40.4768 32.3275 39.9141 31.5476 39.9141 30.6364V19.6114C39.9141 18.7142 40.4596 17.9443 41.237 17.6155C41.4962 17.5058 43.4622 17.6065 43.4622 19.6114V30.6364C43.4623 32.6549 41.523 32.7475 41.2737 32.6474Z" fill="#FDD4BB"/>
<path d="M42.1005 17.4453H42.0817C41.7967 17.4453 41.5247 17.501 41.2754 17.601C42.0723 17.9209 42.6352 18.7002 42.6352 19.6115V30.6364C42.6352 31.5477 42.0723 32.327 41.2754 32.6469C41.5247 32.747 41.7966 32.8026 42.0817 32.8026H42.1005C43.2968 32.8026 44.2666 31.8328 44.2666 30.6364V19.6115C44.2666 18.4152 43.2968 17.4453 42.1005 17.4453V17.4453Z" fill="#F9B5A1"/>
<path d="M44.5843 24.0156H43.7559H39.9126H38.1328C37.4963 24.0156 36.9804 24.5518 36.9804 25.2133C36.9832 25.3862 36.9875 25.5703 37.0494 25.8893C37.3026 27.1174 38.2322 28.1068 39.4551 28.3682L39.9126 28.466L44.2636 29.3961V29.823C44.2636 31.0254 43.2896 32.0002 42.0881 32.0002C40.8866 32.0002 39.9126 31.0254 39.9126 29.823V29.834V29.9343V30.4421C39.9126 31.6445 38.9385 32.6193 37.737 32.6193C36.5355 32.6193 35.5615 31.6446 35.5615 30.4421V29.0415C35.5615 30.2431 34.5874 31.217 33.386 31.217C32.1845 31.217 31.2104 30.243 31.2104 29.0415V28.4661L31.1783 28.4272C31.0022 29.4526 30.11 30.2332 29.0349 30.2332C27.8334 30.2332 26.8594 29.2585 26.8594 28.056V34.7896C26.8594 34.7896 26.8594 39.9022 29.7694 43.374C30.4202 44.1502 30.789 45.1386 30.789 46.1681V49.1146L36.9213 50.7204L42.6322 49.1146L43.4607 48.3116V46.1449C43.4607 45.4572 43.7032 44.7912 44.1483 44.2672C45.1866 43.0448 47.0867 40.4758 47.5835 37.5476C48.6623 31.1908 49.2282 24.0156 44.5843 24.0156V24.0156Z" fill="#FDD4BB"/>
<path d="M45.3819 24.0156H43.7505C48.3943 24.0156 47.8284 31.1908 46.7498 37.5474C46.253 40.4754 44.3529 42.2289 43.3145 43.4512C42.8694 43.9752 42.627 44.6413 42.627 45.329V49.1143L43.419 49.9172L44.2584 49.1143V46.1447C44.2584 45.457 44.5008 44.7909 44.9459 44.2669C45.9843 43.0446 47.8844 40.4755 48.3812 37.5474C49.4598 31.1908 50.0257 24.0156 45.3819 24.0156V24.0156Z" fill="#F9B5A1"/>
<path d="M29.9961 49.5704V54.4781C29.9961 54.7283 30.199 54.9312 30.4492 54.9312H43.4235L44.252 54.1283V49.9201L43.4235 49.1172H30.4492C30.199 49.1172 29.9961 49.3201 29.9961 49.5704V49.5704Z" fill="#F58B71"/>
<path d="M43.4277 49.1172V54.9312H44.6059C44.8562 54.9312 45.059 54.7283 45.059 54.4781V49.5704C45.059 49.3202 44.8562 49.1173 44.6059 49.1173H43.4277V49.1172Z" fill="#EE6C4D"/>
<path d="M43.7735 29.2891L43.265 31.2416C42.0235 31.661 38.2265 33.2765 36.3636 37.7978C36.2274 38.1284 36.3497 38.5223 36.6674 38.6864C36.7688 38.7387 36.8759 38.7632 36.9809 38.7632C37.2488 38.7632 37.5026 38.6038 37.6103 38.3406C39.5353 33.6358 43.9506 32.4504 43.9934 32.4394C44.234 32.3787 44.4224 32.1917 44.485 31.9516L44.9849 30.0316C45.05 29.7818 44.8935 29.5282 44.641 29.4743L43.7735 29.2891Z" fill="#F9B5A1"/>
<path d="M37.9994 14.5937C38.3757 14.5937 38.6805 14.2887 38.6805 13.9126V9.93107C38.6805 9.55494 38.3757 9.25 37.9994 9.25C37.6232 9.25 37.3184 9.55494 37.3184 9.93107V13.9126C37.3184 14.2887 37.6232 14.5937 37.9994 14.5937Z" fill="#FEB644"/>
<path d="M21.6625 29.5703H17.6811C17.3049 29.5703 17 29.8753 17 30.2514C17 30.6275 17.3049 30.9325 17.6811 30.9325H21.6626C22.0388 30.9325 22.3437 30.6275 22.3437 30.2514C22.3436 29.8753 22.0387 29.5703 21.6625 29.5703V29.5703Z" fill="#FEB644"/>
<path d="M58.3189 29.5703H54.3373C53.9611 29.5703 53.6562 29.8753 53.6562 30.2514C53.6562 30.6275 53.9611 30.9325 54.3373 30.9325H58.3189C58.6951 30.9325 58.9999 30.6275 58.9999 30.2514C58.9999 29.8753 58.6951 29.5703 58.3189 29.5703V29.5703Z" fill="#FEB644"/>
<path d="M52.8509 15.4026C52.5849 15.1366 52.1537 15.1366 51.8876 15.4026L49.0722 18.218C48.468 18.8749 49.3692 19.783 50.0355 19.1812L52.8509 16.3658C53.1168 16.0997 53.1168 15.6685 52.8509 15.4026V15.4026Z" fill="#FEB644"/>
<path d="M55.2229 23.5031C55.0857 23.1528 54.6901 22.9803 54.3403 23.1174L52.9644 23.6564C52.1453 24.0295 52.6107 25.2155 53.4611 24.9247L54.8371 24.3857C55.1874 24.2485 55.3601 23.8533 55.2229 23.5031Z" fill="#FEB644"/>
<path d="M43.714 15.6689C43.9771 15.7963 44.4771 15.6427 44.5967 15.2833L45.1515 13.8672C45.2887 13.5171 45.116 13.1218 44.7658 12.9846C44.4153 12.8474 44.0204 13.0201 43.8832 13.3703L43.3284 14.7863C43.1911 15.1365 43.3639 15.5317 43.714 15.6689V15.6689Z" fill="#FEB644"/>
<path d="M31.4047 15.2831C31.7735 16.1259 32.9587 15.605 32.673 14.7863L32.1181 13.3703C31.9808 13.02 31.586 12.8475 31.2355 12.9846C30.8854 13.1218 30.7126 13.517 30.8498 13.8672L31.4047 15.2831Z" fill="#FEB644"/>
<path d="M26.9293 19.1812C27.1952 18.9152 27.1952 18.4839 26.9293 18.218L24.1139 15.4026C23.8479 15.1366 23.4167 15.1366 23.1506 15.4026C22.8847 15.6685 22.8847 16.0998 23.1506 16.3658L25.966 19.1812C26.2014 19.4093 26.63 19.4703 26.9293 19.1812Z" fill="#FEB644"/>
<path d="M23.038 23.6565L21.6621 23.1174C21.3119 22.9802 20.9167 23.1529 20.7795 23.5031C20.6423 23.8534 20.815 24.2485 21.1653 24.3857L22.5413 24.9248C22.6229 24.9567 22.7069 24.9719 22.7895 24.9719C23.0616 24.9719 23.3185 24.8077 23.4238 24.5391C23.5609 24.1888 23.3883 23.7937 23.038 23.6565Z" fill="#FEB644"/>
</svg>
