<svg width="33" height="32" viewBox="0 0 33 32" fill="none" xmlns="http://www.w3.org/2000/svg">
<g clip-path="url(#clip0_33746_197845)">
<path d="M2.375 16C2.375 8.21144 8.71144 1.875 16.5 1.875C19.4292 1.875 22.2227 2.76319 24.5748 4.41169H22.7576C22.2399 4.41169 21.8201 4.83144 21.8201 5.34919C21.8201 5.86694 22.2399 6.28669 22.7576 6.28669H27.1509C27.6686 6.28669 28.0884 5.86694 28.0884 5.34919V0.955938C28.0884 0.438187 27.6686 0.0184375 27.1509 0.0184375C26.6331 0.0184375 26.2134 0.438187 26.2134 0.955938V3.28962C23.4367 1.15619 20.0569 0 16.5 0C12.2262 0 8.20831 1.66431 5.18625 4.68625C2.16431 7.70831 0.5 11.7262 0.5 16C0.5 18.8076 1.24194 21.5739 2.64563 23.9999C2.81938 24.3002 3.13425 24.468 3.45794 24.468C3.61731 24.468 3.77881 24.4273 3.92663 24.3418C4.37475 24.0825 4.52781 23.509 4.26856 23.0608C3.02981 20.9199 2.375 18.4783 2.375 16Z" fill="#EE6C4D"/>
<path d="M30.3548 7.99935C30.0954 7.55116 29.5218 7.39816 29.0738 7.65748C28.6257 7.91679 28.4726 8.49029 28.7319 8.93848C29.9706 11.0793 30.6254 13.5209 30.6254 15.9992C30.6254 23.7878 24.289 30.1242 16.5004 30.1242C13.5715 30.1242 10.7785 29.2358 8.42667 27.5875H10.2428C10.7605 27.5875 11.1803 27.1678 11.1803 26.65C11.1803 26.1323 10.7605 25.7125 10.2428 25.7125H5.84961C5.33186 25.7125 4.91211 26.1323 4.91211 26.65V31.0433C4.91211 31.561 5.33186 31.9808 5.84961 31.9808C6.36736 31.9808 6.78711 31.561 6.78711 31.0433V28.7073C9.56373 30.8414 12.9431 31.9992 16.5004 31.9992C20.7742 31.9992 24.7921 30.3349 27.8142 27.313C30.8361 24.2909 32.5004 20.273 32.5004 15.9992C32.5004 13.1915 31.7585 10.4252 30.3548 7.99935Z" fill="#EE6C4D"/>
<path d="M24.8375 14.1164C24.9018 13.8763 24.8681 13.6204 24.7438 13.4051L22.8688 10.1574C22.7445 9.94212 22.5396 9.785 22.2995 9.72062C22.0593 9.65631 21.8035 9.68994 21.5881 9.81431L20.5209 10.4305C20.1413 10.1551 19.7373 9.921 19.3116 9.72994V8.5C19.3116 7.98225 18.8919 7.5625 18.3741 7.5625H14.6241C14.1064 7.5625 13.6866 7.98225 13.6866 8.5V9.72987C13.261 9.921 12.857 10.1551 12.4774 10.4304L11.4101 9.81425C11.1948 9.68987 10.9387 9.65619 10.6988 9.72056C10.4586 9.78488 10.2538 9.942 10.1295 10.1574L8.25451 13.405C8.1302 13.6203 8.09651 13.8762 8.16083 14.1164C8.2252 14.3566 8.38233 14.5613 8.59764 14.6856L9.6597 15.2987C9.63601 15.5316 9.62414 15.7658 9.62414 16C9.62414 16.2342 9.63601 16.4684 9.6597 16.7011L8.59764 17.3143C8.38233 17.4386 8.2252 17.6434 8.16083 17.8835C8.09651 18.1237 8.1302 18.3796 8.25451 18.5949L10.1295 21.8425C10.2538 22.0578 10.4586 22.2149 10.6988 22.2793C10.939 22.3438 11.1949 22.31 11.4101 22.1856L12.4774 21.5694C12.857 21.8449 13.261 22.0789 13.6866 22.27V23.5C13.6866 24.0177 14.1064 24.4375 14.6241 24.4375H18.3741C18.8919 24.4375 19.3116 24.0177 19.3116 23.5V22.2701C19.7373 22.0791 20.1413 21.8449 20.5209 21.5696L21.5881 22.1857C21.8034 22.3101 22.0595 22.3438 22.2995 22.2794C22.5397 22.2151 22.7445 22.058 22.8688 21.8426L24.7438 18.595C24.8681 18.3797 24.9018 18.1237 24.8375 17.8836C24.7731 17.6434 24.616 17.4387 24.4006 17.3144L23.3386 16.7013C23.3623 16.4684 23.3741 16.2342 23.3741 16C23.3741 15.7658 23.3623 15.5316 23.3386 15.2989L24.4006 14.6858C24.616 14.5614 24.7731 14.3566 24.8375 14.1164ZM21.398 14.994C21.4651 15.3229 21.4991 15.6614 21.4991 16C21.4991 16.3386 21.4651 16.6771 21.398 17.006C21.3172 17.4013 21.4984 17.8038 21.8477 18.0055L22.6512 18.4694L21.7137 20.0931L20.9035 19.6254C20.554 19.4236 20.1144 19.4681 19.8124 19.7361C19.3011 20.1899 18.7176 20.528 18.0779 20.741C17.6949 20.8685 17.4366 21.2268 17.4366 21.6305V22.5625H15.5616V21.6305C15.5616 21.2269 15.3032 20.8685 14.9202 20.741C14.2806 20.528 13.697 20.1899 13.1858 19.7361C12.8838 19.4681 12.4442 19.4236 12.0946 19.6254L11.2845 20.0931L10.347 18.4694L11.1505 18.0055C11.4998 17.8038 11.681 17.4013 11.6002 17.006C11.5332 16.6771 11.4991 16.3386 11.4991 16C11.4991 15.6614 11.5332 15.3229 11.6003 14.994C11.6811 14.5988 11.4999 14.1962 11.1506 13.9945L10.3471 13.5306L11.2846 11.9069L12.0948 12.3746C12.4443 12.5765 12.8839 12.5319 13.1859 12.2639C13.6971 11.8101 14.2807 11.472 14.9204 11.259C15.3033 11.1314 15.5617 10.7731 15.5617 10.3695V9.4375H17.4367V10.3695C17.4367 10.7731 17.6951 11.1314 18.078 11.259C18.7177 11.472 19.3013 11.8101 19.8125 12.2639C20.1145 12.5319 20.5541 12.5764 20.9036 12.3746L21.7138 11.9069L22.6513 13.5306L21.8478 13.9945C21.4984 14.1962 21.3172 14.5988 21.398 14.994Z" fill="#EE6C4D"/>
<path d="M16.5 12.5625C14.6046 12.5625 13.0625 14.1046 13.0625 16C13.0625 17.8954 14.6046 19.4375 16.5 19.4375C18.3954 19.4375 19.9375 17.8954 19.9375 16C19.9375 14.1046 18.3954 12.5625 16.5 12.5625ZM16.5 17.5625C15.6384 17.5625 14.9375 16.8616 14.9375 16C14.9375 15.1384 15.6384 14.4375 16.5 14.4375C17.3616 14.4375 18.0625 15.1384 18.0625 16C18.0625 16.8616 17.3616 17.5625 16.5 17.5625Z" fill="#EE6C4D"/>
</g>
<defs>
<clipPath id="clip0_33746_197845">
<rect width="32" height="32" fill="white" transform="translate(0.5)"/>
</clipPath>
</defs>
</svg>
