<svg width="66" height="60" viewBox="0 0 66 60" fill="none" xmlns="http://www.w3.org/2000/svg">
<circle cx="20" cy="20" r="20" fill="#EE6C4D" fill-opacity="0.16"/>
<path d="M58.1759 24.0632V50.3595H18.7949V24.0632C18.7949 22.7127 19.8904 21.6172 21.2419 21.6172H55.729C57.0804 21.6172 58.1759 22.7127 58.1759 24.0632Z" fill="#DFD6E5"/>
<path d="M18.7949 46.4531H58.1759V50.3587H18.7949V46.4531Z" fill="#C2B0CF"/>
<path d="M55.1523 24.6406V44.9802H21.8241V24.6406H55.1523Z" fill="#C2B0CF"/>
<path d="M59.9727 48.0078H17V49.4451C17 51.4097 18.5926 53.0023 20.5572 53.0023H56.4154C58.3801 53.0023 59.9727 51.4097 59.9727 49.4451V48.0078Z" fill="#DFD6E5"/>
<path d="M40.8193 50.5051H36.1584C34.8197 50.5051 33.7344 49.4198 33.7344 48.081V48.0078H43.2433V48.081C43.2433 49.4198 42.158 50.5051 40.8193 50.5051Z" fill="#C2B0CF"/>
<path d="M24.4454 53.002H20.558C18.5927 53.002 17 51.4093 17 49.4448V48.0078H20.8874V49.4448C20.8874 51.4093 22.4801 53.002 24.4454 53.002Z" fill="#C2B0CF"/>
<path d="M48.047 24.0781V27.7312C48.047 29.9127 46.7439 31.8936 44.7285 32.7306C40.739 34.389 36.2377 34.389 32.2482 32.7306C30.2327 31.8936 28.9297 29.9127 28.9297 27.7312V24.0781H48.047Z" fill="#4D4354"/>
<path d="M40.9941 33.7802C38.0612 34.2367 35.0307 33.8875 32.2482 32.7306C30.2327 31.8936 28.9297 29.9127 28.9297 27.7312V24.0781H33.9403V27.7312C33.9403 29.9127 35.2433 31.8936 37.2588 32.7306C38.4667 33.2329 39.7213 33.5831 40.9941 33.7802Z" fill="#201429"/>
<path d="M48.0468 24.0781V25.5428L40.2227 29.6879C39.1376 30.262 37.8389 30.262 36.7538 29.6879L28.9297 25.5428V24.0781H48.0468Z" fill="#201429"/>
<path d="M52.7623 18.0739L40.2226 11.431C39.1378 10.8563 37.8389 10.8563 36.7541 11.431L24.2143 18.0739C22.8062 18.8198 22.8062 20.8372 24.2143 21.5831L36.7541 28.2261C37.8388 28.8008 39.1377 28.8008 40.2226 28.2261L52.7623 21.5831C54.1705 20.8372 54.1705 18.8199 52.7623 18.0739Z" fill="#4D4354"/>
<path d="M44.0638 35.3312C43.7774 35.3312 43.5451 35.0989 43.5451 34.8125V26.3877L38.0955 20.1734C37.9066 19.9579 37.9281 19.6302 38.1435 19.4412C38.3588 19.2523 38.6867 19.2739 38.8756 19.4892L44.454 25.8504C44.5369 25.9451 44.5827 26.0666 44.5827 26.1924V34.8124C44.5826 35.099 44.3504 35.3312 44.0638 35.3312Z" fill="#FFA921"/>
<path d="M43.3254 34.9257L42.2862 36.7255C41.6451 37.8359 42.4464 39.2238 43.7286 39.2238H44.3967C45.6787 39.2238 46.48 37.8359 45.839 36.7255L44.7999 34.9257C44.4722 34.3581 43.653 34.3581 43.3254 34.9257Z" fill="#FEB644"/>
<path d="M38.0311 42.6016H25.0489C24.6907 42.6016 24.4004 42.3113 24.4004 41.9532C24.4004 41.595 24.6907 41.3047 25.0489 41.3047H38.031C38.3892 41.3047 38.6795 41.595 38.6795 41.9532C38.6795 42.3113 38.3892 42.6016 38.0311 42.6016Z" fill="#DFD6E5"/>
<path d="M33.729 39.875H25.0489C24.6907 39.875 24.4004 39.5847 24.4004 39.2266C24.4004 38.8684 24.6907 38.5781 25.0489 38.5781H33.729C34.0871 38.5781 34.3774 38.8684 34.3774 39.2266C34.3774 39.5847 34.0871 39.875 33.729 39.875Z" fill="#DFD6E5"/>
</svg>
