<svg width="56" height="56" viewBox="0 0 56 56" fill="none" xmlns="http://www.w3.org/2000/svg">
<g clip-path="url(#clip0_33746_197690)">
<path d="M54.9053 14.0422L28.5459 4.74195C28.1927 4.61727 27.8074 4.61727 27.4542 4.74195L1.09485 14.0422C0.43947 14.2734 0.000876311 14.8925 1.31108e-06 15.5875C-0.000873689 16.2824 0.436298 16.9025 1.09113 17.1352L27.4505 26.5062C27.6282 26.5694 27.8142 26.601 28 26.601C28.1859 26.601 28.3718 26.5694 28.5495 26.5062L54.9089 17.1352C55.5637 16.9025 56.0008 16.2824 56 15.5875C55.9991 14.8925 55.5605 14.2734 54.9053 14.0422Z" fill="#FFC365"/>
<path d="M52.0586 35.9356V21.625L48.7773 22.7915V35.9356C47.789 36.5045 47.123 37.5703 47.123 38.7926C47.123 40.0148 47.789 41.0807 48.7773 41.6496V49.7123C48.7773 50.6183 49.5119 51.3529 50.418 51.3529C51.324 51.3529 52.0586 50.6183 52.0586 49.7123V41.6497C53.0469 41.081 53.7129 40.0149 53.7129 38.7927C53.7129 37.5705 53.047 36.5045 52.0586 35.9356Z" fill="#FFC365"/>
<path d="M28.0003 29.8805C27.4371 29.8805 26.8825 29.7848 26.3517 29.5962L11.5332 24.3281V31.5478C11.5332 33.314 13.3758 34.8078 17.0099 35.9873C20.1775 37.0154 24.0807 37.5816 28.0003 37.5816C31.9198 37.5816 35.8229 37.0154 38.9906 35.9873C42.6247 34.8078 44.4673 33.314 44.4673 31.5478V24.3281L29.649 29.5962C29.1181 29.7848 28.5634 29.8805 28.0003 29.8805Z" fill="#FFC365" fill-opacity="0.5"/>
</g>
<defs>
<clipPath id="clip0_33746_197690">
<rect width="56" height="56" fill="white"/>
</clipPath>
</defs>
</svg>
