<svg width="66" height="60" viewBox="0 0 66 60" fill="none" xmlns="http://www.w3.org/2000/svg">
<circle cx="20" cy="20" r="20" fill="#EE6C4D" fill-opacity="0.16"/>
<path d="M26.0393 30.7218L22.7553 21.2614C22.6164 20.7073 22.2733 20.2262 21.7948 19.9143C21.3162 19.6025 20.7375 19.4829 20.1746 19.5796C19.8859 19.6411 19.6127 19.7606 19.3716 19.9309C19.1305 20.1012 18.9264 20.3187 18.7719 20.5702C18.6173 20.8217 18.5155 21.1019 18.4725 21.3939C18.4295 21.686 18.4462 21.9837 18.5217 22.2691L21.8999 32.7008L26.0393 30.7218Z" fill="#F9B5A1"/>
<path d="M49.6582 30.7218L52.9421 21.2614C53.0811 20.7073 53.4241 20.2262 53.9027 19.9143C54.3812 19.6025 54.9599 19.4829 55.5229 19.5796C55.8116 19.6411 56.0848 19.7606 56.3259 19.9309C56.567 20.1012 56.771 20.3187 56.9256 20.5702C57.0801 20.8217 57.182 21.1019 57.225 21.3939C57.268 21.686 57.2513 21.9837 57.1758 22.2691L53.7976 32.7008L49.6582 30.7218Z" fill="#F9B5A1"/>
<path d="M32.8079 34.6438L26.3995 30.8872C25.956 30.6311 25.4363 30.54 24.9322 30.6301C24.4281 30.7202 23.9721 30.9856 23.6447 31.3794L21.3061 24.1598C21.1672 23.6058 20.8241 23.1246 20.3456 22.8128C19.867 22.5009 19.2883 22.3813 18.7254 22.478C18.4367 22.5395 18.1635 22.6591 17.9224 22.8294C17.6812 22.9996 17.4772 23.2171 17.3227 23.4686C17.1681 23.7201 17.0663 24.0003 17.0233 24.2924C16.9803 24.5844 16.997 24.8821 17.0725 25.1675L20.226 36.9332C20.3706 37.4834 20.676 37.9781 21.1031 38.354L26.0037 42.7109C26.3094 42.9831 26.5541 43.317 26.7215 43.6906C26.8889 44.0642 26.9754 44.469 26.9751 44.8784V47.1982H35.6743V39.6473C35.6744 38.6358 35.4098 37.6418 34.907 36.7641C34.4042 35.8863 33.6805 35.1554 32.8079 34.6438Z" fill="#FDD4BB"/>
<path d="M56.9724 22.478C56.4094 22.3813 55.8307 22.5009 55.3521 22.8128C54.8736 23.1246 54.5305 23.6058 54.3916 24.1598L52.0501 31.3794C51.7228 30.9856 51.2667 30.7202 50.7626 30.6301C50.2585 30.54 49.7388 30.6311 49.2953 30.8872L42.8869 34.6438C42.0148 35.1558 41.2917 35.8869 40.7894 36.7646C40.2871 37.6423 40.0231 38.636 40.0234 39.6473V47.1982H48.7226V44.8784C48.7224 44.469 48.8088 44.0642 48.9762 43.6906C49.1436 43.317 49.3883 42.9831 49.694 42.7109L54.5946 38.354C55.0217 37.9781 55.3271 37.4834 55.4718 36.9332L58.6252 25.1675C58.7007 24.8821 58.7175 24.5844 58.6745 24.2924C58.6315 24.0003 58.5296 23.7201 58.375 23.4686C58.2205 23.2171 58.0165 22.9996 57.7754 22.8294C57.5342 22.6591 57.2611 22.5395 56.9724 22.478Z" fill="#FDD4BB"/>
<path d="M39.2988 47.2031V53.0026H49.4479V47.2031H48.723H40.0238H39.2988Z" fill="#FFA921"/>
<path d="M36.3991 47.2031H35.6741H26.9749H26.25V53.0026H36.3991V47.2031Z" fill="#FFA921"/>
<path d="M47.5929 22.2338L47.0781 22.7485L37.8498 31.9769L28.6214 22.7485L28.1067 22.2338C27.4797 21.6327 26.9791 20.9125 26.6342 20.1154C26.2893 19.3182 26.107 18.4602 26.098 17.5917C26.089 16.7232 26.2536 15.8617 26.582 15.0576C26.9104 14.2535 27.396 13.5231 28.0104 12.9091C28.6248 12.2952 29.3556 11.8102 30.16 11.4824C30.9643 11.1546 31.826 10.9908 32.6945 11.0004C33.563 11.01 34.4209 11.193 35.2177 11.5386C36.0146 11.8841 36.7344 12.3853 37.335 13.0127L37.8498 13.5274L38.3645 13.0127C38.9651 12.3853 39.6849 11.8841 40.4818 11.5386C41.2787 11.193 42.1365 11.01 43.005 11.0004C43.8735 10.9908 44.7352 11.1546 45.5395 11.4824C46.3439 11.8102 47.0747 12.2952 47.6891 12.9091C48.3035 13.5231 48.7891 14.2535 49.1175 15.0576C49.4459 15.8617 49.6105 16.7232 49.6015 17.5917C49.5925 18.4602 49.4103 19.3182 49.0653 20.1154C48.7204 20.9125 48.2198 21.6327 47.5929 22.2338Z" fill="#F58B71"/>
<path d="M47.593 13.0155C46.9033 12.3185 46.0638 11.7878 45.1383 11.4638C44.2128 11.1399 43.2256 11.0311 42.2517 11.1459C43.4727 11.2812 44.6305 11.7587 45.5919 12.5233C46.5534 13.2879 47.2792 14.3086 47.6859 15.4677C48.0926 16.6268 48.1635 17.8773 47.8906 19.075C47.6177 20.2727 47.0119 21.3689 46.1432 22.2374L45.6285 22.7521L37.125 31.2548L37.8499 31.9797L47.0783 22.7513L47.593 22.2366C48.8148 21.0133 49.5011 19.355 49.5011 17.6261C49.5011 15.8971 48.8148 14.2388 47.593 13.0155Z" fill="#EE6C4D"/>
<path d="M39.2995 24.7304V21.8307H42.1992V18.931H39.2995V16.0312H36.3997V18.931H33.5V21.8307H36.3997V24.7304H39.2995Z" fill="#F1F2F2"/>
<path d="M51.4735 33.2055L46.628 35.8877C46.4895 35.9679 46.3868 36.0979 46.3409 36.2512C46.295 36.4045 46.3092 36.5696 46.3808 36.7127C46.4191 36.7893 46.4726 36.8572 46.5381 36.9123C46.6035 36.9673 46.6796 37.0084 46.7616 37.033C46.8436 37.0576 46.9297 37.0652 47.0147 37.0552C47.0997 37.0452 47.1817 37.018 47.2558 36.9751L51.4735 34.6553C51.9138 34.4001 52.2507 33.9984 52.4254 33.5204C52.6001 33.0423 52.6016 32.5181 52.4296 32.0391C52.2619 32.5304 51.9224 32.9446 51.4735 33.2055Z" fill="#F9B5A1"/>
<path d="M24.2247 33.2055L29.0701 35.8877C29.2086 35.9679 29.3113 36.0979 29.3573 36.2512C29.4032 36.4045 29.3889 36.5696 29.3174 36.7127C29.2791 36.7893 29.2256 36.8572 29.1601 36.9122C29.0946 36.9673 29.0185 37.0084 28.9366 37.033C28.8546 37.0576 28.7685 37.0652 28.6835 37.0552C28.5985 37.0452 28.5164 37.018 28.4424 36.9751L24.2247 34.6553C23.7844 34.4001 23.4475 33.9984 23.2728 33.5204C23.0981 33.0423 23.0965 32.5181 23.2685 32.0391C23.4362 32.5304 23.7758 32.9446 24.2247 33.2055Z" fill="#F9B5A1"/>
</svg>
