<svg width="32" height="32" viewBox="0 0 32 32" fill="none" xmlns="http://www.w3.org/2000/svg">
<g clip-path="url(#clip0_33746_197800)">
<path d="M4.75 7.5C3.3715 7.5 2.25 8.6215 2.25 10C2.25 11.3785 3.3715 12.5 4.75 12.5C6.1285 12.5 7.25 11.3785 7.25 10C7.25 9.94206 7.24731 9.88469 7.24337 9.82769L10.2979 8.80962C10.9324 10.2166 12.0831 11.3578 13.5 11.9788V17.625H12.25C10.8715 17.625 9.75 18.7465 9.75 20.125V22C9.75 26.5461 12.7643 30.3055 16.7835 31.5524C17.1138 31.6551 17.4636 31.4695 17.5656 31.1407C17.6679 30.8111 17.4836 30.4609 17.1539 30.3586C13.4731 29.2166 11 25.8576 11 22V20.125C11 19.4357 11.5608 18.875 12.25 18.875H13.5V22C13.5 22.3451 13.7799 22.625 14.125 22.625C14.4701 22.625 14.75 22.3451 14.75 22C14.75 21.758 14.75 6.45525 14.75 6.25C14.75 5.56075 15.3108 5 16 5C16.6892 5 17.25 5.56075 17.25 6.25V18.25C17.25 18.5951 17.5299 18.875 17.875 18.875C18.2201 18.875 18.5 18.5951 18.5 18.25V14.375C18.5 13.6858 19.0607 13.125 19.75 13.125C20.4393 13.125 21 13.6858 21 14.375V18.25C21 18.5951 21.2799 18.875 21.625 18.875C21.9701 18.875 22.25 18.5951 22.25 18.25V15.625C22.25 14.9358 22.8107 14.375 23.5 14.375C24.1893 14.375 24.75 14.9358 24.75 15.625V18.25C24.75 18.5951 25.0299 18.875 25.375 18.875C25.7201 18.875 26 18.5951 26 18.25V16.875C26 16.1857 26.5607 15.625 27.25 15.625C27.9393 15.625 28.5 16.1857 28.5 16.875V22C28.5 25.971 25.8703 29.2651 22.3461 30.3586C22.0164 30.4609 21.8321 30.811 21.9344 31.1408C22.0364 31.4697 22.3862 31.655 22.7166 31.5524C26.7386 30.3043 29.75 26.5471 29.75 22V16.875C29.75 15.4965 28.6285 14.375 27.25 14.375C26.7356 14.375 26.257 14.5313 25.8591 14.7988C25.5171 13.8252 24.589 13.125 23.5 13.125C22.9856 13.125 22.507 13.2813 22.1091 13.5488C21.7671 12.5752 20.839 11.875 19.75 11.875C19.2948 11.875 18.868 11.9979 18.5 12.2114V11.9788C19.9171 11.3578 21.0678 10.2165 21.7021 8.80969L24.7566 9.82769C24.7527 9.88469 24.75 9.94206 24.75 10C24.75 11.3785 25.8715 12.5 27.25 12.5C28.6285 12.5 29.75 11.3785 29.75 10C29.75 8.6215 28.6285 7.5 27.25 7.5C26.3719 7.5 25.5987 7.95544 25.1526 8.64206L22.0972 7.62375C22.1979 7.17525 22.25 6.71556 22.25 6.25C22.25 5.78438 22.1979 5.32463 22.0972 4.87631L25.1526 3.858C25.5987 4.54456 26.3719 5 27.25 5C28.6285 5 29.75 3.8785 29.75 2.5C29.75 1.1215 28.6285 0 27.25 0C25.8715 0 24.75 1.1215 24.75 2.5C24.75 2.55794 24.7527 2.61531 24.7566 2.67231L21.7023 3.69025C20.7035 1.45994 18.4851 0 16 0C13.5148 0 11.2963 1.46006 10.2977 3.69025L7.24344 2.67231C7.24731 2.61531 7.25 2.55794 7.25 2.5C7.25 1.1215 6.1285 0 4.75 0C3.3715 0 2.25 1.1215 2.25 2.5C2.25 3.8785 3.3715 5 4.75 5C5.62806 5 6.40125 4.54456 6.84737 3.85794L9.90281 4.87625C9.80206 5.32475 9.75 5.78444 9.75 6.25C9.75 6.71562 9.80213 7.17537 9.90281 7.62369L6.84737 8.642C6.40125 7.95544 5.62806 7.5 4.75 7.5ZM27.25 8.75C27.9393 8.75 28.5 9.31075 28.5 10C28.5 10.6892 27.9393 11.25 27.25 11.25C26.5607 11.25 26 10.6892 26 10C26 9.31075 26.5607 8.75 27.25 8.75ZM27.25 1.25C27.9393 1.25 28.5 1.81075 28.5 2.5C28.5 3.18925 27.9393 3.75 27.25 3.75C26.5607 3.75 26 3.18925 26 2.5C26 1.81075 26.5607 1.25 27.25 1.25ZM4.75 3.75C4.06075 3.75 3.5 3.18925 3.5 2.5C3.5 1.81075 4.06075 1.25 4.75 1.25C5.43925 1.25 6 1.81075 6 2.5C6 3.18925 5.43925 3.75 4.75 3.75ZM16 1.25C18.7742 1.25 21 3.49475 21 6.25C21 8.08187 20.0142 9.70019 18.5 10.5796V6.25C18.5 4.8715 17.3785 3.75 16 3.75C14.6215 3.75 13.5 4.8715 13.5 6.25V10.5796C11.9845 9.69938 11 8.07862 11 6.25C11 3.51606 13.2029 1.25 16 1.25ZM4.75 11.25C4.06075 11.25 3.5 10.6892 3.5 10C3.5 9.31075 4.06075 8.75 4.75 8.75C5.43925 8.75 6 9.31075 6 10C6 10.6892 5.43925 11.25 4.75 11.25Z" fill="#EE6C4D"/>
<path d="M19.125 31.375C19.125 31.7202 19.4048 32 19.75 32C20.0952 32 20.375 31.7202 20.375 31.375C20.375 31.0298 20.0952 30.75 19.75 30.75C19.4048 30.75 19.125 31.0298 19.125 31.375Z" fill="#EE6C4D"/>
</g>
<defs>
<clipPath id="clip0_33746_197800">
<rect width="32" height="32" fill="white"/>
</clipPath>
</defs>
</svg>
