<svg width="33" height="32" viewBox="0 0 33 32" fill="none" xmlns="http://www.w3.org/2000/svg">
<g clip-path="url(#clip0_33746_197824)">
<path d="M25.875 16C25.875 10.8306 21.6694 6.625 16.5 6.625C11.3306 6.625 7.125 10.8306 7.125 16C7.125 21.1694 11.3306 25.375 16.5 25.375C21.6694 25.375 25.875 21.1694 25.875 16ZM14.705 21.5855C14.1464 20.3288 13.8024 18.704 13.7122 16.9375H19.2877C19.1974 18.7039 18.8535 20.3288 18.2949 21.5855C17.7701 22.7664 17.0822 23.5 16.5 23.5C15.9177 23.5 15.2299 22.7664 14.705 21.5855ZM16.5 8.5C17.0822 8.5 17.7701 9.23356 18.2949 10.4146C18.8536 11.6712 19.1974 13.2961 19.2878 15.0625H13.7122C13.8025 13.2961 14.1465 11.6712 14.7051 10.4146C15.2299 9.23356 15.9177 8.5 16.5 8.5ZM19.8341 22.7167C19.8938 22.5972 19.9519 22.4741 20.0084 22.347C20.6681 20.8624 21.0702 18.9688 21.1652 16.9375H23.9416C23.6238 19.4738 22.0346 21.6201 19.8341 22.7167ZM23.9416 15.0625H21.1652C21.0702 13.0313 20.6682 11.1376 20.0084 9.653C19.9519 9.52594 19.8938 9.40281 19.8341 9.28325C22.0346 10.3799 23.6238 12.5262 23.9416 15.0625ZM13.1658 9.28325C13.1062 9.40281 13.0481 9.52594 12.9916 9.653C12.3318 11.1376 11.9297 13.0313 11.8348 15.0625H9.05844C9.37619 12.5262 10.9654 10.38 13.1658 9.28325ZM9.0585 16.9375H11.8348C11.9298 18.9688 12.3319 20.8624 12.9916 22.347C13.0481 22.4741 13.1063 22.5972 13.1659 22.7167C10.9654 21.62 9.37619 19.4738 9.0585 16.9375Z" fill="#EE6C4D"/>
<path d="M3.625 6.25C4.14581 6.25 4.63688 6.12119 5.06913 5.89494L7.22325 8.04906C7.40631 8.23213 7.64619 8.32362 7.88613 8.32362C8.12606 8.32362 8.366 8.23206 8.549 8.04906C10.6765 5.92163 13.5002 4.75 16.5 4.75C17.0177 4.75 17.4375 4.33025 17.4375 3.8125C17.4375 3.29475 17.0177 2.875 16.5 2.875C13.3131 2.875 10.2967 4.00794 7.90925 6.08344L6.39494 4.56913C6.62125 4.13681 6.75 3.64581 6.75 3.125C6.75 1.40188 5.34812 0 3.625 0C1.90188 0 0.5 1.40188 0.5 3.125C0.5 4.84812 1.90188 6.25 3.625 6.25ZM3.625 1.875C4.31425 1.875 4.875 2.43575 4.875 3.125C4.875 3.81425 4.31425 4.375 3.625 4.375C2.93575 4.375 2.375 3.81425 2.375 3.125C2.375 2.43575 2.93575 1.875 3.625 1.875Z" fill="#EE6C4D"/>
<path d="M29.375 25.7533C28.8542 25.7533 28.3631 25.882 27.9309 26.1084L25.7768 23.9542C25.4107 23.5882 24.8171 23.5882 24.4509 23.9542C22.3235 26.0817 19.4997 27.2533 16.5 27.2533C15.9822 27.2533 15.5625 27.673 15.5625 28.1908C15.5625 28.7085 15.9822 29.1283 16.5 29.1283C19.6869 29.1283 22.7033 27.9954 25.0907 25.9199L26.6051 27.4342C26.3787 27.8664 26.25 28.3575 26.25 28.8783C26.25 30.6014 27.6519 32.0033 29.375 32.0033C31.0981 32.0033 32.5 30.6014 32.5 28.8783C32.5 27.1552 31.0981 25.7533 29.375 25.7533ZM29.375 30.1283C28.6858 30.1283 28.125 29.5675 28.125 28.8783C28.125 28.189 28.6858 27.6283 29.375 27.6283C30.0642 27.6283 30.625 28.189 30.625 28.8783C30.625 29.5675 30.0642 30.1283 29.375 30.1283Z" fill="#EE6C4D"/>
<path d="M5.25 16C5.25 15.4822 4.83025 15.0625 4.3125 15.0625C3.79475 15.0625 3.375 15.4822 3.375 16C3.375 19.1869 4.50794 22.2033 6.58344 24.5907L5.06913 26.1051C4.63688 25.8787 4.14581 25.75 3.625 25.75C1.90188 25.75 0.5 27.1519 0.5 28.875C0.5 30.5981 1.90188 32 3.625 32C5.34812 32 6.75 30.5981 6.75 28.875C6.75 28.3542 6.62125 27.8631 6.39494 27.4309L8.54906 25.2768C8.91519 24.9107 8.91519 24.3171 8.54906 23.9509C6.42163 21.8235 5.25 18.9997 5.25 16ZM3.625 30.125C2.93575 30.125 2.375 29.5642 2.375 28.875C2.375 28.1858 2.93575 27.625 3.625 27.625C4.31425 27.625 4.875 28.1858 4.875 28.875C4.875 29.5642 4.31425 30.125 3.625 30.125Z" fill="#EE6C4D"/>
<path d="M27.7494 16C27.7494 16.5177 28.1692 16.9375 28.6869 16.9375C29.2047 16.9375 29.6244 16.5177 29.6244 16C29.6244 12.8131 28.4915 9.79669 26.416 7.40925L27.9303 5.89494C28.3626 6.12119 28.8536 6.25 29.3744 6.25C31.0976 6.25 32.4994 4.84812 32.4994 3.125C32.4994 1.40188 31.0976 0 29.3744 0C27.6513 0 26.2494 1.40188 26.2494 3.125C26.2494 3.64581 26.3782 4.13681 26.6045 4.56913L24.4504 6.72325C24.0843 7.08931 24.0843 7.68294 24.4504 8.04906C26.5778 10.1765 27.7494 13.0002 27.7494 16ZM29.3744 1.875C30.0637 1.875 30.6244 2.43575 30.6244 3.125C30.6244 3.81425 30.0637 4.375 29.3744 4.375C28.6852 4.375 28.1244 3.81425 28.1244 3.125C28.1244 2.43575 28.6852 1.875 29.3744 1.875Z" fill="#EE6C4D"/>
</g>
<defs>
<clipPath id="clip0_33746_197824">
<rect width="32" height="32" fill="white" transform="translate(0.5)"/>
</clipPath>
</defs>
</svg>
