<svg width="52" height="47" viewBox="0 0 52 47" fill="none" xmlns="http://www.w3.org/2000/svg">
<circle opacity="0.2" cx="20" cy="20.6797" r="20" fill="#DFD6E5"/>
<path d="M24.5711 23.5718C26.2542 23.5718 27.6187 22.2073 27.6187 20.5242C27.6187 18.841 26.2542 17.4766 24.5711 17.4766C22.8879 17.4766 21.5234 18.841 21.5234 20.5242C21.5234 22.2073 22.8879 23.5718 24.5711 23.5718Z" fill="#FEB644"/>
<path d="M33.1893 24.5873C33.1893 21.5015 31.2127 19 28.127 19C26.6181 19 25.2489 19.5981 24.2436 20.5702C24.2436 20.5702 23.6875 22.5014 23.6875 24.0784C23.6875 26.6181 25.0412 28.6508 28.127 28.6508C31.2128 28.6508 33.1893 27.127 33.1893 24.5873Z" fill="#FEB644"/>
<path d="M26.0946 22.5554C25.4123 22.1306 24.6812 21.5221 24.2431 20.5703C23.1918 21.5862 22.5391 23.0097 22.5391 24.5872C22.5391 27.1132 25.0144 28.6329 28.0773 28.6492L26.0946 22.5554Z" fill="#FFA921"/>
<path d="M29.6508 31.6953H26.0947C23.8506 31.6953 22.0312 33.5146 22.0312 35.7588V42.362H32.1905V34.235C32.1905 32.8324 31.0534 31.6953 29.6508 31.6953Z" fill="#F58B71"/>
<path d="M26.0949 31.6953H25.5869C23.3428 31.6953 21.5234 33.5146 21.5234 35.7588V42.362H22.5393V35.7588C22.5393 34.0756 23.9038 32.7112 25.5869 32.7112H26.0949V31.6953Z" fill="#EE6C4D"/>
<path d="M27.6196 33.7243C26.4975 33.7243 25.5879 32.8147 25.5879 31.6926V31.0156L29.6514 31.4521V31.6926C29.6514 32.8147 28.7417 33.7243 27.6196 33.7243Z" fill="#F7D291"/>
<path d="M25.5879 31.019C26.3321 31.4472 27.1921 31.6959 28.1106 31.6959C28.6478 31.6959 29.1651 31.6107 29.6514 31.4554V29.1562H25.5879V31.019Z" fill="#ECBD83"/>
<path d="M34.2225 41.4287H25.5627C25.0017 41.4287 24.5469 40.9739 24.5469 40.4128V35.7581L25.0796 34.7422H34.2225C34.7836 34.7422 35.2384 35.197 35.2384 35.7581V40.8374L34.2225 41.4287Z" fill="#DFD6E5"/>
<path d="M25.0803 34.7422C24.5193 34.7422 24.0645 35.197 24.0645 35.7581V40.8374C24.0645 41.3985 24.5193 41.8533 25.0803 41.8533H34.2232C34.7843 41.8533 35.2391 41.3985 35.2391 40.8374H26.6041C25.7626 40.8374 25.0803 40.1552 25.0803 39.3136V34.7422Z" fill="#C2B0CF"/>
<path d="M26.0786 22.5547C27.6934 23.6997 30.0005 24.0709 31.2627 24.1908C31.7816 24.2401 32.1739 24.6798 32.1739 25.201V26.6181C32.1739 28.6835 30.633 30.3891 28.6381 30.6478C28.4654 30.6702 28.2105 30.6426 28.0317 30.6426C25.7875 30.6426 24.4536 28.8623 24.4536 26.6181V26.6172C24.4536 25.5449 24.4146 24.5099 25.0798 23.6763C25.1409 23.5997 25.2019 23.5227 25.2681 23.4496L26.0786 22.5547Z" fill="#FFE1A0"/>
<path d="M25.0803 26.6137V23.6719C24.4265 24.3938 24.0645 25.3329 24.0645 26.3068V26.6137C24.0645 28.8579 25.8838 30.6772 28.128 30.6772C28.3003 30.6772 28.4719 30.6642 28.6386 30.6434C26.6347 30.3929 25.0803 28.6855 25.0803 26.6137V26.6137Z" fill="#F7D291"/>
<path d="M29.6506 39.313C30.2117 39.313 30.6665 38.8582 30.6665 38.2971C30.6665 37.7361 30.2117 37.2812 29.6506 37.2812C29.0896 37.2812 28.6348 37.7361 28.6348 38.2971C28.6348 38.8582 29.0896 39.313 29.6506 39.313Z" fill="white"/>
<path d="M28.6177 28.8553C28.1817 28.8553 27.7581 28.7685 27.3935 28.6041C27.1376 28.489 27.0235 28.1884 27.1386 27.9324C27.2542 27.677 27.5543 27.5624 27.8102 27.678C28.2805 27.8893 28.9546 27.8896 29.4253 27.6777C29.6802 27.5624 29.9814 27.6767 30.0969 27.9327C30.212 28.1886 30.0979 28.4892 29.842 28.6043C29.4764 28.7685 29.0532 28.8553 28.6177 28.8553Z" fill="#EE6C4D"/>
<path d="M27.1115 26.3596C27.392 26.3596 27.6194 26.1322 27.6194 25.8517C27.6194 25.5712 27.392 25.3438 27.1115 25.3438C26.8309 25.3438 26.6035 25.5712 26.6035 25.8517C26.6035 26.1322 26.8309 26.3596 27.1115 26.3596Z" fill="#201429"/>
<path d="M30.1583 26.3596C30.4389 26.3596 30.6663 26.1322 30.6663 25.8517C30.6663 25.5712 30.4389 25.3438 30.1583 25.3438C29.8778 25.3438 29.6504 25.5712 29.6504 25.8517C29.6504 26.1322 29.8778 26.3596 30.1583 26.3596Z" fill="#201429"/>
<path d="M38.2857 41.8516H20.5079C20.2272 41.8516 20 42.079 20 42.3595C20 42.64 20.2272 42.8674 20.5079 42.8674H38.2857V41.8516Z" fill="#201429"/>
<path d="M49.3527 31.6389L47.429 30.6771L44.9058 30.2812L41.3329 30.6771L38.3925 32.1473C38.109 32.289 37.8684 32.4918 37.6836 32.7351L38.2853 41.9896H50.4758V33.4561C50.4758 32.6866 50.041 31.9831 49.3527 31.6389V31.6389Z" fill="#F58B71"/>
<path d="M40.8252 36.4684C40.8252 35.6969 40.4745 34.9672 39.872 34.4852L37.6839 32.7344C37.4203 33.0816 37.2695 33.5113 37.2695 33.9637V42.8668C37.2695 43.4278 37.7243 43.8826 38.2854 43.8826H40.8251V36.4684H40.8252Z" fill="#EE6C4D"/>
<path d="M49.9683 36.7734H43.873C42.7509 36.7734 41.2604 37.4438 41.0312 38.8657L41.8412 43.8846H50.9841C51.5452 43.8846 52 43.4298 52 42.8687V38.8052C52 37.6831 51.0904 36.7734 49.9683 36.7734Z" fill="#4D4354"/>
<path d="M43.8738 36.7734H42.8579C41.7358 36.7734 40.8262 37.6831 40.8262 38.8052V43.8846H41.842V38.8052C41.842 37.6831 42.7517 36.7734 43.8738 36.7734Z" fill="#201429"/>
<path d="M41.8412 28.6196V30.1142C41.8412 30.3066 41.7326 30.4824 41.5604 30.5685L41.3333 30.6821H47.4294L46.9749 30.4548C46.6308 30.2828 46.4134 29.931 46.4134 29.5462L46.4127 21.0312H39.1875V25.0947C39.1875 26.9875 40.0896 28.1678 41.8412 28.6196V28.6196Z" fill="#FDD4BB"/>
<path d="M39.8088 25.0947V21.0312H38.793V25.0947C38.793 27.143 40.3084 28.8373 42.2792 29.1176C42.5837 29.1609 42.8565 28.918 42.8565 28.6104C42.8565 28.3596 42.6725 28.1473 42.4241 28.1119C40.9457 27.9019 39.8088 26.6311 39.8088 25.0947Z" fill="#F9B5A1"/>
<path d="M44.3812 17.9844H40.8256C39.423 17.9844 38.5312 18.9206 38.5312 20.3232C38.5312 20.8843 38.9861 21.3391 39.5471 21.3391C40.3887 21.3391 40.8256 22.2222 40.8256 23.0638V24.5876C40.8256 25.9902 41.9627 27.1272 43.3653 27.1272H45.905C47.0271 27.1272 47.9368 26.2176 47.9368 25.0955V21.5399C47.9368 19.5762 46.3449 17.9844 44.3812 17.9844V17.9844Z" fill="#4D4354"/>
<path d="M40.317 17.9844C38.9144 17.9844 37.7773 19.1214 37.7773 20.5241C37.7773 21.0851 38.2322 21.5399 38.7932 21.5399H39.3012C40.1427 21.5399 40.825 22.2222 40.825 23.0638V17.9844H40.317Z" fill="#201429"/>
</svg>
