<svg width="66" height="60" viewBox="0 0 66 60" fill="none" xmlns="http://www.w3.org/2000/svg">
<circle cx="20" cy="20" r="20" fill="#EE6C4D" fill-opacity="0.16"/>
<path d="M29.3374 30.6286C22.3511 29.9725 17 24.1795 17 17.1523V14.6914C17 12.6559 18.6559 11 20.6914 11C22.7269 11 24.3828 12.6559 24.3828 14.6914C24.3828 15.3703 24.9344 15.9219 25.6133 15.9219H28.1562C28.8364 15.9219 29.3867 16.4722 29.3867 17.1523C29.3867 17.8325 28.8364 18.3828 28.1562 18.3828H25.6133C23.5778 18.3828 21.9219 16.7269 21.9219 14.6914C21.9219 14.0125 21.3703 13.4609 20.6914 13.4609C20.0125 13.4609 19.4609 14.0125 19.4609 14.6914V17.1523C19.4609 22.9022 23.8532 27.6413 29.5682 28.1773C30.2447 28.2409 30.741 28.8418 30.6785 29.5183C30.6148 30.1927 30.0176 30.6905 29.3374 30.6286Z" fill="#FFA921"/>
<path d="M45.4037 29.5183C45.3412 28.8418 45.8375 28.241 46.514 28.1773C52.229 27.6413 56.5392 22.9022 56.5392 17.1523V14.6914C56.5392 14.0125 55.9877 13.4609 55.3088 13.4609C54.6299 13.4609 54.0783 14.0125 54.0783 14.6914C54.0783 16.7269 52.4224 18.3828 50.3869 18.3828H47.926C47.2458 18.3828 46.6955 17.8325 46.6955 17.1523C46.6955 16.4722 47.2458 15.9219 47.926 15.9219H50.3869C51.0658 15.9219 51.6174 15.3703 51.6174 14.6914C51.6174 12.6559 53.2733 11 55.3088 11C57.3443 11 59.0002 12.6559 59.0002 14.6914V17.1523C59.0002 24.1795 53.7311 29.9725 46.7448 30.6286C46.0647 30.6905 45.4674 30.1928 45.4037 29.5183Z" fill="#FF9F40"/>
<path d="M47.9258 11H38H28.1562C27.4761 11 26.9258 11.5503 26.9258 12.2305V24.5352C26.9258 29.2396 29.9166 33.3899 34.3086 34.9401V44.3867H38H41.6914V34.9401C46.0834 33.39 49.1562 29.2396 49.1562 24.5352V12.2305C49.1562 11.5503 48.6059 11 47.9258 11Z" fill="#FEB644"/>
<path d="M41.6914 34.9401C46.0834 33.39 49.1562 29.2396 49.1562 24.5352V12.2305C49.1562 11.5503 48.6059 11 47.9258 11H38V44.3867H41.6914V34.9401Z" fill="#FFA921"/>
<path d="M44.2851 20.4875C44.1398 20.0416 43.7552 19.7172 43.2914 19.6499L40.3979 19.2293L39.1038 16.6074C38.8971 16.1868 38.4489 15.9766 38.0007 15.9766C37.5525 15.9766 37.1043 16.1868 36.8976 16.6074L35.6035 19.2293L32.71 19.6499C32.2462 19.7172 31.8616 20.0416 31.7163 20.4875C31.5721 20.9321 31.6922 21.4211 32.0275 21.748L34.1219 23.7895L33.628 26.6711C33.5487 27.1325 33.7386 27.5988 34.1171 27.8739C34.4956 28.1502 35.0027 28.1863 35.4125 27.9676L38.0006 26.6086L40.589 27.9676C40.9974 28.1841 41.5029 28.1525 41.8843 27.8738C42.2628 27.5987 42.4527 27.1324 42.3734 26.671L41.8795 23.7895L43.9739 21.7479C44.3091 21.4211 44.4293 20.9321 44.2851 20.4875Z" fill="#F58B71"/>
<path d="M41.8836 27.8739C42.2621 27.5988 42.452 27.1325 42.3727 26.6711L41.8788 23.7895L43.9732 21.748C44.3084 21.4211 44.4286 20.9321 44.2844 20.4875C44.1391 20.0416 43.7545 19.7172 43.2907 19.6499L40.3972 19.2293L39.1031 16.6074C38.8964 16.1868 38.4482 15.9766 38 15.9766V26.6086L40.5883 27.9676C40.9966 28.1842 41.5022 28.1525 41.8836 27.8739Z" fill="#EE6C4D"/>
<path d="M47.8438 48.0781H46.6133V44.3867C46.6133 43.7066 46.0629 43.1562 45.3828 43.1562H38H30.6172C29.9371 43.1562 29.3867 43.7066 29.3867 44.3867V48.0781H28.1562C27.4761 48.0781 26.9258 48.6285 26.9258 49.3086V51.7695C26.9258 52.4497 27.4761 53 28.1562 53H38H47.8438C48.5239 53 49.0742 52.4497 49.0742 51.7695V49.3086C49.0742 48.6285 48.5239 48.0781 47.8438 48.0781Z" fill="#4D4354"/>
<path d="M49.0742 51.7695V49.3086C49.0742 48.6285 48.5239 48.0781 47.8438 48.0781H46.6133V44.3867C46.6133 43.7066 46.0629 43.1562 45.3828 43.1562H38V53H47.8438C48.5239 53 49.0742 52.4497 49.0742 51.7695Z" fill="#201429"/>
<path d="M40.4609 46.8438H38H35.5391C34.8589 46.8438 34.3086 47.3941 34.3086 48.0742C34.3086 48.7543 34.8589 49.3047 35.5391 49.3047H38H40.4609C41.1411 49.3047 41.6914 48.7543 41.6914 48.0742C41.6914 47.3941 41.1411 46.8438 40.4609 46.8438Z" fill="#201429"/>
<path d="M41.6914 48.0742C41.6914 47.3941 41.1411 46.8438 40.4609 46.8438H38V49.3047H40.4609C41.1411 49.3047 41.6914 48.7543 41.6914 48.0742Z" fill="#4D4354"/>
</svg>
