<svg width="56" height="56" viewBox="0 0 56 56" fill="none" xmlns="http://www.w3.org/2000/svg">
<path d="M14.0688 39.679L13.9694 39.673C13.1898 39.6257 12.438 39.4826 11.724 39.2578L6.73385 47.8981C6.27666 48.6897 6.5548 49.702 7.35214 50.1493L12.2642 52.9041C13.0477 53.3436 14.0392 53.0714 14.4884 52.2936L21.7739 39.679H14.0688Z" fill="#B47E8E"/>
<path d="M41.7803 3.13473L26.957 12.2098V38.3439L41.799 47.1611C42.893 47.811 44.2786 47.0229 44.2786 45.7507V4.53386C44.2786 3.25187 42.8738 2.46525 41.7803 3.13473Z" fill="#B47E8E"/>
<path d="M5.30797 30.6345V19.6138C5.30797 18.9823 5.37633 18.367 5.50287 17.7734H3.11675C1.39541 17.7734 0 19.1684 0 20.8892V29.3591C0 31.0799 1.39541 32.4749 3.11675 32.4749H5.502C5.37589 31.8796 5.30797 31.2644 5.30797 30.6345Z" fill="#B47E8E"/>
<path d="M23.6742 36.3953H14.1686C11.0875 36.2084 8.58984 33.7115 8.58984 30.6314V19.6108C8.58984 16.5307 11.0875 14.0339 14.1686 14.2208H23.6742V36.3953Z" fill="#B47E8E"/>
<path d="M51.485 38.5361C51.065 38.5361 50.645 38.3759 50.3246 38.0555L47.0139 34.7459C46.373 34.1053 46.373 33.0665 47.0139 32.4258C47.6547 31.7852 48.694 31.7852 49.3348 32.4258L52.6455 35.7353C53.2865 36.376 53.2865 37.4148 52.6455 38.0555C52.325 38.3759 51.905 38.5361 51.485 38.5361Z" fill="#B47E8E"/>
<path d="M48.1744 18.8487C47.7543 18.8487 47.3344 18.6886 47.0139 18.3681C46.373 17.7275 46.373 16.6886 47.0139 16.0479L50.3246 12.7384C50.9655 12.0976 52.0046 12.0976 52.6455 12.7384C53.2863 13.379 53.2863 14.4178 52.6455 15.0585L49.3348 18.3681C49.0145 18.6885 48.5944 18.8487 48.1744 18.8487Z" fill="#B47E8E"/>
<path d="M54.3583 27.0391H49.6763C48.7699 27.0391 48.0352 26.3045 48.0352 25.3984C48.0352 24.4924 48.7699 23.7578 49.6763 23.7578H54.3583C55.2647 23.7578 55.9995 24.4924 55.9995 25.3984C55.9995 26.3045 55.2647 27.0391 54.3583 27.0391Z" fill="#B47E8E"/>
</svg>
