<svg width="66" height="60" viewBox="0 0 66 60" fill="none" xmlns="http://www.w3.org/2000/svg">
<circle cx="20" cy="20" r="20" fill="#EE6C4D" fill-opacity="0.16"/>
<path d="M58.4627 15.7597C58.1387 13.6572 56.3439 11.8624 54.2414 11.5384C52.9749 11.3465 51.2432 11.1611 48.88 11.0594C46.5167 10.9593 44.7924 10.9978 43.5349 11.0856C41.4472 11.2316 39.7968 12.9501 39.6147 15.1272C39.508 16.4356 39.4326 18.2312 39.44 20.688C39.4473 23.1456 39.5326 24.9413 39.6508 26.2505C39.8452 28.4292 41.5727 30.1559 43.7506 30.3503C45.059 30.4676 46.8555 30.5546 49.3131 30.5611C51.7699 30.5677 53.5663 30.4931 54.8739 30.3864C57.0501 30.2043 58.7687 28.5531 58.9155 26.4662C59.0033 25.2087 59.0426 23.4844 58.9417 21.1211C58.84 18.7579 58.6546 17.027 58.4627 15.7597Z" fill="#FFA921"/>
<path d="M36.3507 37.7486C36.1563 35.5699 34.4295 33.8431 32.2508 33.6487C30.9416 33.5314 29.146 33.4445 26.6884 33.4379C24.2308 33.4313 22.4351 33.506 21.1276 33.6126C18.9513 33.7947 17.232 35.446 17.086 37.5328C16.9982 38.7904 16.9588 40.5146 17.0597 42.8779C17.1614 45.2412 17.3476 46.972 17.5388 48.2394C17.8636 50.3418 19.6576 52.1366 21.76 52.4606C23.0274 52.6526 24.7582 52.838 27.1215 52.9397C29.4848 53.0398 31.209 53.0012 32.4666 52.9134C34.5534 52.7674 36.2047 51.0489 36.3868 48.8718C36.4934 47.5634 36.5689 45.7678 36.5615 43.311C36.5549 40.8534 36.468 39.0578 36.3507 37.7486Z" fill="#FFA921"/>
<path d="M58.9154 37.5329C58.7694 35.4461 57.0508 33.7948 54.8738 33.6127C53.5654 33.5061 51.7698 33.4306 49.313 33.438C46.8554 33.4446 45.0597 33.5307 43.7505 33.6488C41.5718 33.844 39.8451 35.5708 39.6507 37.7487C39.5334 39.0579 39.4464 40.8535 39.4399 43.3111C39.4333 45.7679 39.5088 47.5644 39.6146 48.8719C39.7967 51.049 41.4479 52.7675 43.5348 52.9135C44.7923 53.0013 46.5166 53.0407 48.8799 52.9398C51.2431 52.8381 52.9748 52.6519 54.2413 52.4607C56.3437 52.1367 58.1386 50.3419 58.4626 48.2395C58.6537 46.9729 58.8399 45.2413 58.9416 42.878C59.0417 40.5147 59.0032 38.7904 58.9154 37.5329Z" fill="#FFA921"/>
<path d="M21.1245 30.3862C22.4328 30.4928 24.2285 30.5683 26.6853 30.5609C29.1429 30.5543 30.9385 30.4674 32.2477 30.3501C34.4256 30.1549 36.1523 28.4281 36.3476 26.2502C36.4649 24.941 36.5518 23.1454 36.5584 20.6878C36.565 18.2302 36.4895 16.4345 36.3837 15.127C36.2016 12.9499 34.5503 11.2314 32.4635 11.0854C31.2068 10.9984 29.4817 10.959 27.1184 11.0591C24.7559 11.1608 23.0235 11.347 21.7569 11.5382C19.6545 11.863 17.8605 13.6578 17.5365 15.7602C17.3453 17.0268 17.1583 18.7584 17.0574 21.1209C17.023 21.9256 17.0057 22.654 17 23.3177V24.2101C17.0082 25.0928 17.0402 25.8376 17.0837 26.4651C17.2297 28.552 18.9482 30.2032 21.1253 30.3854L21.1245 30.3862Z" fill="#FEB644"/>
<path d="M43.531 11.0856C41.4433 11.2316 39.7929 12.9501 39.6108 15.1272C39.5041 16.4356 39.4287 18.2312 39.436 20.688C39.4434 23.1456 39.5287 24.9413 39.6469 26.2505C39.8413 28.4292 41.5688 30.1559 43.7467 30.3503C44.7393 30.4397 46.0124 30.5103 47.6407 30.5431C48.9589 27.6671 49.6939 24.4696 49.6939 21.099C49.6939 17.4749 48.8432 14.0502 47.3322 11.011C45.7384 10.9798 44.4956 11.0183 43.5302 11.0856H43.531Z" fill="#FEB644"/>
<path d="M32.2485 33.6487C30.9393 33.5314 29.1437 33.4445 26.6861 33.4379C24.2285 33.4313 22.4328 33.506 21.1253 33.6126C18.949 33.7947 17.2297 35.446 17.0837 37.5328C17.0402 38.1612 17.0082 38.9068 17 39.7903V40.6787C17.0025 40.9354 17.0057 41.202 17.0123 41.4785C20.0269 42.9591 23.4164 43.7909 27.0011 43.7909C30.5858 43.7909 33.6406 43.0379 36.5412 41.6926C36.5092 40.0397 36.4378 38.7502 36.3476 37.7477C36.1532 35.569 34.4264 33.8431 32.2477 33.6479L32.2485 33.6487Z" fill="#FEB644"/>
<path d="M46.0036 33.5078C45.1251 33.5447 44.3786 33.5939 43.7462 33.6505C41.5675 33.8458 39.8407 35.5725 39.6463 37.7504C39.5889 38.3902 39.5389 39.1482 39.502 40.0415C42.0892 38.3304 44.3048 36.1041 46.0036 33.5078Z" fill="#FEB644"/>
</svg>
