<svg width="33" height="32" viewBox="0 0 33 32" fill="none" xmlns="http://www.w3.org/2000/svg">
<path d="M14.5293 8.37238C14.6126 8.45569 14.7219 8.49739 14.831 8.49739C14.9401 8.49739 15.0493 8.45569 15.1326 8.37238L15.4343 8.07073L15.7359 8.37238C15.8193 8.45569 15.9285 8.49739 16.0376 8.49739C16.1467 8.49739 16.2559 8.45569 16.3393 8.37238C16.5059 8.20577 16.5059 7.93569 16.3393 7.76907L16.0376 7.46742L16.3393 7.16577C16.5059 6.99915 16.5059 6.72907 16.3393 6.56246C16.1726 6.39585 15.9026 6.39585 15.7359 6.56246L15.4343 6.86411L15.1326 6.56246C14.966 6.39585 14.696 6.39585 14.5293 6.56246C14.3627 6.72907 14.3627 6.99915 14.5293 7.16577L14.831 7.46742L14.5293 7.76907C14.3626 7.93579 14.3626 8.20577 14.5293 8.37238Z" fill="#EE6C4D"/>
<path d="M20.1278 9.60333C20.3635 9.60333 20.5545 9.41231 20.5545 9.17667C20.5545 8.94103 20.3635 8.75 20.1278 8.75C19.8922 8.75 19.7012 8.94103 19.7012 9.17667C19.7012 9.41231 19.8922 9.60333 20.1278 9.60333Z" fill="#EE6C4D"/>
<path d="M18.8485 4.90802C19.0842 4.90802 19.2752 4.717 19.2752 4.48135C19.2752 4.24571 19.0842 4.05469 18.8485 4.05469C18.6129 4.05469 18.4219 4.24571 18.4219 4.48135C18.4219 4.717 18.6129 4.90802 18.8485 4.90802Z" fill="#EE6C4D"/>
<path d="M26.1009 10.8835H13.904L13.0738 9.16141C13.0626 9.13805 13.0493 9.11597 13.034 9.09517C12.669 8.59512 12.0771 8.29688 11.4509 8.29688H6.69696C5.63296 8.29688 4.76758 9.14733 4.76758 10.1927V24.6839C4.76758 25.6914 5.53771 26.5168 6.52843 26.6442C6.71211 27.4065 7.38454 27.9502 8.18091 27.9502H25.2476C26.0821 27.9502 26.7865 27.3558 26.9282 26.5354C27.6895 26.2502 28.2342 25.5309 28.2342 24.684V13.0169C28.2342 11.8407 27.2771 10.8835 26.1009 10.8835ZM27.3809 24.684C27.3809 25.3085 26.8568 25.8169 26.2124 25.8169H11.2486C11.013 25.8169 10.822 26.0077 10.822 26.2435C10.822 26.4794 11.013 26.6702 11.2486 26.6702H25.9877C25.8397 26.9284 25.562 27.0969 25.2477 27.0969H8.18091C7.86646 27.0969 7.58891 26.9284 7.44086 26.6702H9.04512C9.28075 26.6702 9.47179 26.4794 9.47179 26.2435C9.47179 26.0077 9.28075 25.8169 9.04512 25.8169H6.78944C6.14507 25.8169 5.62091 25.3085 5.62091 24.684V10.1927C5.62091 9.61762 6.10358 9.15021 6.69696 9.15021H11.4509C11.7936 9.15021 12.1171 9.30648 12.3234 9.57026L12.9566 10.8835H10.7409C10.5053 10.8835 10.3142 11.0744 10.3142 11.3102C10.3142 11.546 10.5053 11.7369 10.7409 11.7369H26.1009C26.8067 11.7369 27.3809 12.3111 27.3809 13.0169V24.684Z" fill="#EE6C4D"/>
<path d="M24.394 14.7188H17.5673C17.3317 14.7188 17.1406 14.9096 17.1406 15.1454V22.3987C17.1406 22.6346 17.3317 22.8254 17.5673 22.8254H24.394C24.6296 22.8254 24.8206 22.6346 24.8206 22.3987V15.1454C24.8206 14.9096 24.6296 14.7188 24.394 14.7188ZM23.9673 21.9721H17.994V15.5721H23.9673V21.9721Z" fill="#EE6C4D"/>
<path d="M19.0589 21.0649C19.1253 21.1036 19.1999 21.1232 19.2743 21.1232C19.3464 21.1232 19.4185 21.1049 19.4835 21.0682L22.8968 19.1482C23.0312 19.0728 23.1143 18.9307 23.1143 18.7766C23.1143 18.6224 23.0312 18.4803 22.8968 18.4049L19.4835 16.4849C19.3514 16.4099 19.1897 16.4115 19.059 16.4882C18.9282 16.5649 18.8477 16.7049 18.8477 16.8566V20.6966C18.8477 20.8482 18.9281 20.9882 19.0589 21.0649ZM19.701 17.5862L21.8175 18.7766L19.701 19.967V17.5862Z" fill="#EE6C4D"/>
<path d="M15.435 14.7188H8.60831C8.37268 14.7188 8.18164 14.9096 8.18164 15.1454V22.3987C8.18164 22.6346 8.37268 22.8254 8.60831 22.8254H15.435C15.6706 22.8254 15.8616 22.6346 15.8616 22.3987V15.1454C15.8616 14.9096 15.6706 14.7188 15.435 14.7188ZM15.0083 15.5721V17.065L13.0319 19.3354L11.0338 18.5858C10.8821 18.5288 10.7109 18.5633 10.5921 18.6742L9.03497 20.1339V15.5721H15.0083ZM15.0083 18.3645V20.6921H9.68724L10.9823 19.4779L13.0096 20.2383C13.1755 20.3008 13.3639 20.2529 13.4813 20.1187L15.0083 18.3645ZM9.03497 21.9721V21.5454H15.0083V21.9721H9.03497Z" fill="#EE6C4D"/>
<path d="M10.5276 18.1333C11.1158 18.1333 11.5943 17.655 11.5943 17.0667C11.5943 16.4783 11.1158 16 10.5276 16C9.93944 16 9.46094 16.4783 9.46094 17.0667C9.46094 17.655 9.93944 18.1333 10.5276 18.1333ZM10.5276 16.8533C10.6454 16.8533 10.7409 16.9491 10.7409 17.0667C10.7409 17.1842 10.6454 17.28 10.5276 17.28C10.4098 17.28 10.3143 17.1842 10.3143 17.0667C10.3143 16.9491 10.4098 16.8533 10.5276 16.8533Z" fill="#EE6C4D"/>
</svg>
