<svg width="52" height="47" viewBox="0 0 52 47" fill="none" xmlns="http://www.w3.org/2000/svg">
<circle opacity="0.2" cx="20" cy="20.6797" r="20" fill="#DFD6E5"/>
<path d="M37.0033 44.6635C36.3192 44.6635 35.9112 43.9858 36.1222 43.4055L40.1388 32.3596C40.3158 31.873 40.8538 31.622 41.3404 31.7988C41.827 31.9758 42.078 32.5139 41.901 33.0005L37.8844 44.0461C37.7457 44.427 37.3863 44.6635 37.0033 44.6635V44.6635Z" fill="#4D4354"/>
<path d="M47.0455 44.6635C46.6636 44.6635 46.3048 44.4284 46.1654 44.049L42.1085 33.0031C41.93 32.517 42.1795 31.9785 42.6654 31.8C43.1512 31.6213 43.69 31.8708 43.8685 32.3566L47.9254 43.4025C48.1539 44.0246 47.6851 44.6635 47.0455 44.6635V44.6635Z" fill="#4D4354"/>
<path d="M49.0552 16.6797H34.9963C33.3696 16.6797 32.0508 17.9985 32.0508 19.6252V30.6716C32.0508 32.2983 33.3696 33.6172 34.9963 33.6172H49.0552C50.6819 33.6172 52.0007 32.2983 52.0007 30.6716V19.6252C52.0007 17.9985 50.6819 16.6797 49.0552 16.6797V16.6797Z" fill="#DFD6E5"/>
<path d="M49.0549 16.6797H41.9023V33.6172H49.0549C50.6816 33.6172 52.0005 32.2983 52.0005 30.6716V19.6252C52.0005 17.9985 50.6816 16.6797 49.0549 16.6797V16.6797Z" fill="#C2B0CF"/>
<path d="M30.0415 22.6382C30.0415 24.8933 28.2134 26.7214 25.9583 26.7214C23.7031 26.7214 21.875 24.8933 21.875 22.6382C21.875 20.3828 23.7031 18.5547 25.9583 18.5547C28.2134 18.5547 30.0415 20.3828 30.0415 22.6382Z" fill="#F9B5A1"/>
<path d="M35.0789 32.5159C34.6158 32.2842 34.4283 31.7212 34.6597 31.2581L37.1702 26.2371C37.4019 25.774 37.9651 25.5865 38.428 25.8179C38.8911 26.0496 39.0786 26.6126 38.8472 27.0757L36.3367 32.0965C36.1048 32.5603 35.5413 32.7471 35.0789 32.5159V32.5159Z" fill="#FFB826"/>
<path d="M30.041 22.6384C30.041 24.8936 28.2129 26.7217 25.957 26.7217V18.5547C28.2129 18.5547 30.041 20.3828 30.041 22.6384Z" fill="#FDD4BB"/>
<path d="M47.0457 22.0703H37.0039C36.4861 22.0703 36.0664 21.6504 36.0664 21.1328C36.0664 20.615 36.4861 20.1953 37.0039 20.1953H47.0457C47.5632 20.1953 47.9832 20.615 47.9832 21.1328C47.9832 21.6504 47.5635 22.0703 47.0457 22.0703Z" fill="#201429"/>
<path d="M47.0464 26.0859H42.8398C42.322 26.0859 41.9023 25.6663 41.9023 25.1484C41.9023 24.6306 42.322 24.2109 42.8398 24.2109H47.0464C47.5642 24.2109 47.9839 24.6306 47.9839 25.1484C47.9839 25.6663 47.5642 26.0859 47.0464 26.0859Z" fill="#4D4354"/>
<path d="M47.0464 30.1016H42.8398C42.322 30.1016 41.9023 29.6816 41.9023 29.1641C41.9023 28.6462 42.322 28.2266 42.8398 28.2266H47.0464C47.5642 28.2266 47.9839 28.6462 47.9839 29.1641C47.9839 29.6816 47.5642 30.1016 47.0464 30.1016Z" fill="#4D4354"/>
<path d="M47.0464 20.1953H41.9023V22.0703H47.0464C47.5642 22.0703 47.9839 21.6504 47.9839 21.1328C47.9839 20.615 47.5642 20.1953 47.0464 20.1953Z" fill="#4D4354"/>
<path d="M28.9707 44.6604H22.9458C22.428 44.6604 22.0083 44.2407 22.0083 43.7229V38.4824C20.842 38.0901 20 36.9863 20 35.6895V32.677C20 31.083 20.6204 29.5864 21.7466 28.4631C22.8516 27.3552 24.3872 26.7188 25.9585 26.7188H26.7869C28.4314 26.7188 29.3953 27.321 30.7461 27.9927C32.2336 28.7324 34.0896 29.6553 35.2732 30.2449C36.3652 30.7876 36.8882 32.0603 36.4951 33.2124C36.4939 33.2161 36.4927 33.2197 36.4915 33.2234C36.2549 33.9231 35.7246 34.4868 35.0364 34.77C34.3459 35.051 33.5723 35.0212 32.9097 34.6899C31.9648 34.2173 30.7971 33.6335 29.9084 33.1895V43.7229C29.9082 44.2407 29.4885 44.6604 28.9707 44.6604V44.6604Z" fill="#FFA921"/>
<path d="M35.2722 30.2449C34.0886 29.6553 32.2327 28.7324 30.7449 27.9927C29.3943 27.321 28.4304 26.7188 26.7859 26.7188H25.9573C25.9573 26.7188 25.9573 26.7188 25.957 26.7188V44.6604H28.9697C29.4875 44.6604 29.9072 44.2407 29.9072 43.7229V33.1895C30.7961 33.6335 31.9639 34.2173 32.9087 34.6899C33.571 35.0212 34.345 35.0508 35.0352 34.77C35.7234 34.4868 36.2539 33.9231 36.4905 33.2231C36.4917 33.2195 36.4929 33.2158 36.4941 33.2122C36.8872 32.0603 36.3643 30.7876 35.2722 30.2449V30.2449Z" fill="#FEB644"/>
</svg>
