<svg width="56" height="56" viewBox="0 0 56 56" fill="none" xmlns="http://www.w3.org/2000/svg">
<g clip-path="url(#clip0_33746_197672)">
<path d="M37.236 26.9009L25.6077 18.4481C25.181 18.1387 24.6145 18.0921 24.1468 18.3325C23.6753 18.5711 23.3809 19.0556 23.3809 19.5792V36.4793C23.3809 37.0085 23.6753 37.4912 24.1468 37.7297C24.3462 37.8303 24.5642 37.8806 24.7841 37.8806C25.0711 37.8806 25.3618 37.7893 25.6077 37.6086L37.236 29.1632C37.6031 28.893 37.8174 28.4756 37.8174 28.0321C37.8192 27.5811 37.5994 27.1655 37.236 26.9009Z" fill="#FFA58D"/>
<path d="M28.0009 0C12.5339 0 0 12.5339 0 28.0009C0 43.4624 12.5339 55.9925 28.0009 55.9925C43.4642 55.9925 56 43.4605 56 28.0009C56.0019 12.5339 43.4642 0 28.0009 0ZM28.0009 51.3208C15.1204 51.3208 4.67738 40.8833 4.67738 28.0009C4.67738 15.1242 15.1204 4.67365 28.0009 4.67365C40.8796 4.67365 51.3208 15.1223 51.3208 28.0009C51.3226 40.8833 40.8796 51.3208 28.0009 51.3208Z" fill="#FFA58D" fill-opacity="0.5"/>
</g>
<defs>
<clipPath id="clip0_33746_197672">
<rect width="56" height="56" fill="white"/>
</clipPath>
</defs>
</svg>
