<svg width="52" height="47" viewBox="0 0 52 47" fill="none" xmlns="http://www.w3.org/2000/svg">
<circle opacity="0.2" cx="20" cy="20.6797" r="20" fill="#DFD6E5"/>
<path d="M48.5 16.1797H23.5C22.3954 16.1797 21.5 17.0751 21.5 18.1797V36.1797C21.5 37.2843 22.3954 38.1797 23.5 38.1797H48.5C49.6046 38.1797 50.5 37.2843 50.5 36.1797V18.1797C50.5 17.0751 49.6046 16.1797 48.5 16.1797Z" fill="#DFD6E5"/>
<path opacity="0.2" d="M48.5 16.1797H47.5C47.5 20.0253 45.9723 23.7135 43.253 26.4327C40.5338 29.152 36.8456 30.6797 33 30.6797H21.5V36.1797C21.5016 36.7096 21.7128 37.2174 22.0875 37.5922C22.4622 37.9669 22.97 38.1781 23.5 38.1797H48.5C49.0304 38.1797 49.5391 37.969 49.9142 37.5939C50.2893 37.2188 50.5 36.7101 50.5 36.1797V18.1797C50.4984 17.6497 50.2872 17.1419 49.9125 16.7672C49.5378 16.3925 49.03 16.1812 48.5 16.1797Z" fill="#C2B0CF"/>
<path d="M21.5 36.1797C21.5016 36.7096 21.7128 37.2174 22.0875 37.5922C22.4622 37.9669 22.97 38.1781 23.5 38.1797H48.5C49.0304 38.1797 49.5391 37.969 49.9142 37.5939C50.2893 37.2188 50.5 36.7101 50.5 36.1797V32.1797H21.5V36.1797Z" fill="#4D4354"/>
<path opacity="0.2" d="M48.5 32.1797C48.5 33.2406 48.0786 34.258 47.3284 35.0081C46.5783 35.7583 45.5609 36.1797 44.5 36.1797H21.5C21.5016 36.7096 21.7128 37.2174 22.0875 37.5922C22.4622 37.9669 22.97 38.1781 23.5 38.1797H48.5C49.0304 38.1797 49.5391 37.969 49.9142 37.5939C50.2893 37.2188 50.5 36.7101 50.5 36.1797V32.1797H48.5Z" fill="#201429"/>
<path d="M40.5 42.1797H31.5L32.5 38.1797H39.5L40.5 42.1797Z" fill="#DFD6E5"/>
<path opacity="0.1" d="M39.5 38.1797H38.25C38.339 38.5356 38.3457 38.9072 38.2696 39.2661C38.1934 39.6251 38.0365 39.9619 37.8107 40.2511C37.5849 40.5403 37.2962 40.7743 36.9664 40.9352C36.6366 41.0961 36.2746 41.1797 35.9076 41.1797H31.75L31.5 42.1797H40.5L39.5 38.1797Z" fill="#C2B0CF"/>
<path d="M31 42.1797H41C41.663 42.1797 42.2989 42.4431 42.7678 42.9119C43.2366 43.3808 43.5 44.0166 43.5 44.6797V45.1797H28.5V44.6797C28.5 44.0166 28.7634 43.3808 29.2322 42.9119C29.7011 42.4431 30.337 42.1797 31 42.1797V42.1797Z" fill="#4D4354"/>
<path opacity="0.2" d="M41 42.1797H40.9887C41.0135 42.2133 41.0356 42.249 41.0546 42.2862C41.1509 42.4898 41.1938 42.7146 41.1792 42.9394C41.1646 43.1641 41.0931 43.3815 40.9712 43.5709C40.8494 43.7604 40.6813 43.9157 40.4828 44.0222C40.2844 44.1287 40.0621 44.1829 39.8368 44.1797H28.5504C28.5169 44.3442 28.5 44.5118 28.5 44.6797V45.1797H43.5V44.6797C43.5 44.0166 43.2366 43.3808 42.7678 42.9119C42.2989 42.4431 41.663 42.1797 41 42.1797Z" fill="#201429"/>
<path d="M36 36.1797C36.5523 36.1797 37 35.732 37 35.1797C37 34.6274 36.5523 34.1797 36 34.1797C35.4477 34.1797 35 34.6274 35 35.1797C35 35.732 35.4477 36.1797 36 36.1797Z" fill="#DFD6E5"/>
<path d="M48 39.6797H42C41.7239 39.6797 41.5 39.9035 41.5 40.1797V44.6797C41.5 44.9558 41.7239 45.1797 42 45.1797H48C48.2761 45.1797 48.5 44.9558 48.5 44.6797V40.1797C48.5 39.9035 48.2761 39.6797 48 39.6797Z" fill="#F58B71"/>
<path opacity="0.1" d="M48 39.6797H42C41.8674 39.6797 41.7402 39.7324 41.6464 39.8261C41.5527 39.9199 41.5 40.0471 41.5 40.1797V42.6797H45C45.663 42.6797 46.2989 42.9431 46.7678 43.4119C47.2366 43.8808 47.5 44.5166 47.5 45.1797H48C48.1326 45.1797 48.2598 45.127 48.3536 45.0332C48.4473 44.9395 48.5 44.8123 48.5 44.6797V40.1797C48.5 40.0471 48.4473 39.9199 48.3536 39.8261C48.2598 39.7324 48.1326 39.6797 48 39.6797Z" fill="black"/>
<path d="M49 39.6797H41C40.7239 39.6797 40.5 39.9035 40.5 40.1797V41.1797C40.5 41.4558 40.7239 41.6797 41 41.6797H49C49.2761 41.6797 49.5 41.4558 49.5 41.1797V40.1797C49.5 39.9035 49.2761 39.6797 49 39.6797Z" fill="#F07E63"/>
<path opacity="0.1" d="M49 39.6797H48.5C48.5 39.9449 48.3946 40.1993 48.2071 40.3868C48.0196 40.5743 47.7652 40.6797 47.5 40.6797H40.5V41.1797C40.5 41.3123 40.5527 41.4395 40.6464 41.5332C40.7402 41.627 40.8674 41.6797 41 41.6797H49C49.1326 41.6797 49.2598 41.627 49.3536 41.5332C49.4473 41.4395 49.5 41.3123 49.5 41.1797V40.1797C49.5 40.0471 49.4473 39.9199 49.3536 39.8261C49.2598 39.7324 49.1326 39.6797 49 39.6797Z" fill="black"/>
<path d="M46.5 19.1797H42.5C41.9477 19.1797 41.5 19.6274 41.5 20.1797V22.1797C41.5 22.732 41.9477 23.1797 42.5 23.1797H46.5C47.0523 23.1797 47.5 22.732 47.5 22.1797V20.1797C47.5 19.6274 47.0523 19.1797 46.5 19.1797Z" fill="#FFA921"/>
<path d="M46.5 25.1797H42.5C41.9477 25.1797 41.5 25.6274 41.5 26.1797V28.1797C41.5 28.732 41.9477 29.1797 42.5 29.1797H46.5C47.0523 29.1797 47.5 28.732 47.5 28.1797V26.1797C47.5 25.6274 47.0523 25.1797 46.5 25.1797Z" fill="#F58B71"/>
<path d="M38 19.1797H34C33.4477 19.1797 33 19.6274 33 20.1797V22.1797C33 22.732 33.4477 23.1797 34 23.1797H38C38.5523 23.1797 39 22.732 39 22.1797V20.1797C39 19.6274 38.5523 19.1797 38 19.1797Z" fill="#F58B71"/>
<path d="M38 25.1797H34C33.4477 25.1797 33 25.6274 33 26.1797V28.1797C33 28.732 33.4477 29.1797 34 29.1797H38C38.5523 29.1797 39 28.732 39 28.1797V26.1797C39 25.6274 38.5523 25.1797 38 25.1797Z" fill="#FEB644"/>
<path d="M29.5 19.1797H25.5C24.9477 19.1797 24.5 19.6274 24.5 20.1797V22.1797C24.5 22.732 24.9477 23.1797 25.5 23.1797H29.5C30.0523 23.1797 30.5 22.732 30.5 22.1797V20.1797C30.5 19.6274 30.0523 19.1797 29.5 19.1797Z" fill="#C2B0CF"/>
<path d="M29.5 25.1797H25.5C24.9477 25.1797 24.5 25.6274 24.5 26.1797V28.1797C24.5 28.732 24.9477 29.1797 25.5 29.1797H29.5C30.0523 29.1797 30.5 28.732 30.5 28.1797V26.1797C30.5 25.6274 30.0523 25.1797 29.5 25.1797Z" fill="#FEB644"/>
<path d="M40.0692 30.9834C39.5811 30.4954 38.7898 30.4954 38.3017 30.9834C37.8136 31.4715 37.8136 32.2629 38.3017 32.7509L41.228 35.6772C41.7161 36.1653 42.5074 36.1653 42.9955 35.6772C43.4836 35.1891 43.4836 34.3978 42.9955 33.9097L40.0692 30.9834Z" fill="#FDD4BB"/>
<path opacity="0.1" d="M42.9993 33.9128L41.2921 32.2055C41.2242 32.4063 41.1061 32.5864 40.949 32.7287C40.7919 32.8709 40.6009 32.9706 40.3944 33.0182C40.1879 33.0658 39.9726 33.0598 39.769 33.0007C39.5655 32.9416 39.3804 32.8314 39.2315 32.6805L38.0119 31.4609C37.9342 31.6821 37.9204 31.9208 37.9722 32.1495C38.024 32.3782 38.1392 32.5876 38.3047 32.7537L41.2315 35.6805C41.4663 35.9133 41.7837 36.0435 42.1143 36.0428C42.4448 36.0421 42.7617 35.9104 42.9954 35.6767C43.2292 35.4429 43.3608 35.1261 43.3615 34.7955C43.3623 34.465 43.232 34.1476 42.9993 33.9128V33.9128Z" fill="#F9B5A1"/>
<path d="M46.5 28.6803H43.5V24.7338C43.5055 24.4903 43.4251 24.2527 43.273 24.0626C43.1208 23.8724 42.9067 23.7419 42.6679 23.6938C42.5244 23.6694 42.3773 23.6767 42.2369 23.7151C42.0965 23.7534 41.9662 23.822 41.855 23.9159C41.7438 24.0098 41.6544 24.1269 41.5931 24.2589C41.5318 24.3909 41.5 24.5347 41.5 24.6803V39.6803H48.5V30.6803C48.5 30.1498 48.2893 29.6411 47.9142 29.2661C47.5391 28.891 47.0304 28.6803 46.5 28.6803Z" fill="#FDD4BB"/>
<g opacity="0.1">
<path opacity="0.1" d="M46.9461 28.7344C46.9808 28.8806 46.9989 29.0302 47 29.1804V32.6804C47 34.1391 46.4205 35.5381 45.3891 36.5695C44.3576 37.601 42.9587 38.1804 41.5 38.1804V39.6804H48.5V30.6804C48.4996 30.228 48.3456 29.7892 48.0633 29.4357C47.781 29.0822 47.3871 28.8349 46.9461 28.7344V28.7344Z" fill="black"/>
</g>
</svg>
