<svg width="56" height="56" viewBox="0 0 56 56" fill="none" xmlns="http://www.w3.org/2000/svg">
<g clip-path="url(#clip0_33746_197920)">
<path d="M47.0715 20.1344C47.0715 9.54079 38.4838 0.953125 27.8902 0.953125C17.2966 0.953125 8.70898 9.54079 8.70898 20.1344C8.70898 28.4072 13.9462 35.4563 21.2859 38.148V44.4917C21.2859 46.6852 23.0641 48.4634 25.2571 48.4634H30.5234C32.7164 48.4634 34.4946 46.6852 34.4946 44.4917V38.148C41.8343 35.4563 47.0715 28.4072 47.0715 20.1344V20.1344Z" fill="#FFC850"/>
<path d="M27.8901 0.953125C27.1442 0.953125 26.4089 0.997131 25.6855 1.08002C35.2401 2.17377 42.6618 10.2868 42.6618 20.1344C42.6618 28.4072 37.4246 35.4563 30.0849 38.148V44.4917C30.0849 46.6852 28.3067 48.4634 26.1136 48.4634H30.5228C32.7163 48.4634 34.4945 46.6852 34.4945 44.4917V38.148C41.8342 35.4563 47.0714 28.4072 47.0714 20.1344C47.0714 9.54079 38.4837 0.953125 27.8901 0.953125V0.953125Z" fill="#FEB644"/>
<path d="M9.30698 0.577266C8.98783 0.250422 8.46445 0.244441 8.13803 0.563594C7.81119 0.88232 7.80478 1.40613 8.12393 1.73254L11.359 5.04541C11.521 5.21119 11.7355 5.2945 11.9504 5.2945C12.1589 5.2945 12.3673 5.21631 12.528 5.05909C12.8548 4.74036 12.8608 4.21656 12.5421 3.89014L9.30698 0.577266Z" fill="#FEB644"/>
<path d="M3.96361 7.48297L7.94555 9.84565C8.078 9.92426 8.22326 9.96186 8.36682 9.96186C8.64923 9.96186 8.92395 9.81702 9.07861 9.55683C9.31189 9.16376 9.18243 8.65662 8.78937 8.42377L4.80742 6.06109C4.41478 5.82824 3.90721 5.9577 3.67436 6.34991C3.44151 6.74298 3.57096 7.25012 3.96361 7.48297Z" fill="#FEB644"/>
<path d="M1.4336 14.1153L5.89149 15.3671C5.96583 15.388 6.04103 15.3979 6.11537 15.3979C6.47639 15.3979 6.80836 15.1595 6.9109 14.7946C7.03438 14.355 6.7776 13.8982 6.33839 13.7748L1.8805 12.5233C1.44086 12.3994 0.984132 12.6562 0.861085 13.0959C0.737611 13.5355 0.993959 13.9918 1.4336 14.1153V14.1153Z" fill="#FEB644"/>
<path d="M5.34748 21.232C5.79951 21.232 6.16865 20.8684 6.1742 20.4151C6.17933 19.9584 5.81361 19.5841 5.35731 19.5786L0.727236 19.5234C0.723818 19.5234 0.720401 19.5234 0.71741 19.5234C0.265383 19.5234 -0.103758 19.887 -0.109313 20.3403C-0.114867 20.7971 0.251284 21.1713 0.707583 21.1769L5.33766 21.232H5.34748Z" fill="#FEB644"/>
<path d="M6.91741 26.0365C6.80419 25.5939 6.3543 25.3268 5.91167 25.4401L1.42515 26.5851C0.982948 26.6979 0.715491 27.1482 0.828711 27.5904C0.923988 27.9642 1.26023 28.2129 1.62895 28.2129C1.69688 28.2129 1.76566 28.2048 1.83402 28.1873L6.32054 27.0418C6.76317 26.929 7.0302 26.4787 6.91741 26.0365Z" fill="#FEB644"/>
<path d="M9.08889 31.2733C8.86544 30.8755 8.36128 30.7341 7.96309 30.9575L3.92604 33.225C3.52784 33.4484 3.38642 33.9526 3.60987 34.3503C3.76155 34.6208 4.04225 34.7725 4.33149 34.7725C4.46864 34.7725 4.6075 34.7383 4.73567 34.6665L8.77272 32.3991C9.17092 32.1756 9.31234 31.6715 9.08889 31.2733V31.2733Z" fill="#FEB644"/>
<path d="M11.3726 35.7585L8.05969 38.9937C7.73284 39.3128 7.72686 39.8362 8.04602 40.1626C8.20794 40.3288 8.42242 40.4121 8.63733 40.4121C8.84582 40.4121 9.05432 40.3335 9.21496 40.1767L12.5278 36.9416C12.8547 36.6229 12.8607 36.0991 12.5419 35.7726C12.2228 35.4458 11.699 35.4398 11.3726 35.7585Z" fill="#FEB644"/>
<path d="M44.4225 35.7726C44.1033 35.4458 43.5795 35.4398 43.2531 35.7585C42.9263 36.0777 42.9203 36.6011 43.239 36.9279L46.4741 40.2408C46.636 40.4066 46.8509 40.4899 47.0659 40.4899C47.2739 40.4899 47.4824 40.4117 47.6431 40.2545C47.9699 39.9358 47.9763 39.4119 47.6572 39.0855L44.4225 35.7726Z" fill="#FEB644"/>
<path d="M51.8169 33.33L47.8345 30.9673C47.4419 30.7345 46.9347 30.8639 46.7019 31.2562C46.4686 31.6492 46.5985 32.1564 46.9911 32.3892L50.9731 34.7519C51.1055 34.8305 51.2508 34.8677 51.3939 34.8677C51.6763 34.8677 51.9515 34.7233 52.1061 34.4627C52.339 34.07 52.2095 33.5629 51.8169 33.33V33.33Z" fill="#FEB644"/>
<path d="M54.3481 26.6969L49.8907 25.4451C49.451 25.3216 48.9943 25.5779 48.8708 26.0176C48.7473 26.4572 49.0041 26.9135 49.4433 27.037L53.9012 28.2888C53.976 28.3098 54.0512 28.3196 54.1251 28.3196C54.4865 28.3196 54.8185 28.0812 54.9206 27.7163C55.0441 27.2767 54.7877 26.8204 54.3481 26.6969V26.6969Z" fill="#FEB644"/>
<path d="M55.0741 19.6332L50.444 19.5781C50.4406 19.5781 50.4372 19.5781 50.4342 19.5781C49.9822 19.5781 49.613 19.9417 49.6075 20.395C49.6019 20.8517 49.9677 21.226 50.4244 21.2316L55.0545 21.2867H55.0643C55.5163 21.2867 55.8855 20.9231 55.891 20.4698C55.8966 20.0131 55.5304 19.6388 55.0741 19.6332Z" fill="#FEB644"/>
<path d="M48.8657 14.7779C48.9614 15.1517 49.2976 15.4004 49.6663 15.4004C49.7338 15.4004 49.8026 15.3923 49.8714 15.3748L54.3579 14.2293C54.8001 14.1165 55.0672 13.6662 54.9544 13.224C54.8416 12.7814 54.3917 12.5143 53.9486 12.6276L49.4625 13.7726C49.0199 13.8854 48.7529 14.3357 48.8657 14.7779V14.7779Z" fill="#FEB644"/>
<path d="M46.6939 9.53822C46.8455 9.80824 47.1262 9.95992 47.4155 9.95992C47.5526 9.95992 47.6915 9.92574 47.8197 9.85396L51.8567 7.58699C52.2549 7.36311 52.3963 6.85939 52.1729 6.46119C51.949 6.063 51.4453 5.92158 51.0471 6.14503L47.01 8.41243C46.6118 8.63588 46.4704 9.1396 46.6939 9.53822Z" fill="#FEB644"/>
<path d="M43.8307 5.29454C44.0392 5.29454 44.2477 5.21636 44.4084 5.05913L47.7212 1.82445C48.0477 1.50529 48.0541 0.981914 47.7349 0.655071C47.4158 0.328654 46.8924 0.322673 46.566 0.641399L43.2531 3.87608C42.9263 4.19524 42.9203 4.71862 43.239 5.04546C43.4014 5.21166 43.6158 5.29454 43.8307 5.29454Z" fill="#FEB644"/>
<path d="M30.5242 55.7359H25.2584C23.0649 55.7359 21.2871 53.9577 21.2871 51.7642V45.3076C21.2871 43.1141 23.0649 41.3359 25.2584 41.3359H30.5242C32.7177 41.3359 34.4959 43.1141 34.4959 45.3076V51.7642C34.4959 53.9577 32.7177 55.7359 30.5242 55.7359Z" fill="#DFD6E5"/>
<path d="M30.5239 41.3359H25.6738C27.8669 41.3359 29.6451 43.1141 29.6451 45.3076V51.7642C29.6451 53.9577 27.8669 55.7359 25.6738 55.7359H30.5239C32.7174 55.7359 34.4956 53.9577 34.4956 51.7642V45.3076C34.4956 43.1141 32.7174 41.3359 30.5239 41.3359V41.3359Z" fill="#C2B0CF"/>
<path d="M36.3567 44.3004L20.5118 45.2395C19.4509 45.3023 18.5533 44.464 18.543 43.401C18.5341 42.4107 19.3031 41.5869 20.2918 41.5284L36.1367 40.5893C37.1975 40.5261 38.0952 41.3643 38.1054 42.4273C38.1144 43.4177 37.3453 44.2418 36.3567 44.3004V44.3004Z" fill="#EE6C4D"/>
<path d="M36.3567 51.7847L20.5118 52.7238C19.4509 52.7866 18.5533 51.9484 18.543 50.8854C18.5341 49.895 19.3031 49.0713 20.2918 49.0128L36.1367 48.0737C37.1975 48.0104 38.0952 48.8487 38.1054 49.9117C38.1144 50.9025 37.3453 51.7262 36.3567 51.7847V51.7847Z" fill="#201429"/>
<path d="M36.3567 51.7847L20.5118 52.7238C19.4509 52.7866 18.5533 51.9484 18.543 50.8854C18.5341 49.895 19.3031 49.0713 20.2918 49.0128L36.1367 48.0737C37.1975 48.0104 38.0952 48.8487 38.1054 49.9117C38.1144 50.9025 37.3453 51.7262 36.3567 51.7847V51.7847Z" fill="#EE6C4D"/>
</g>
<defs>
<clipPath id="clip0_33746_197920">
<rect width="56" height="56" fill="white"/>
</clipPath>
</defs>
</svg>
