<svg width="66" height="60" viewBox="0 0 66 60" fill="none" xmlns="http://www.w3.org/2000/svg">
<circle cx="20" cy="20" r="20" fill="#EE6C4D" fill-opacity="0.16"/>
<path d="M48.0899 53H28.4024C27.7699 53 27.2405 52.5205 27.1779 51.8912L24.717 27.1177C24.6826 26.772 24.7961 26.4278 25.0294 26.1702C25.2626 25.9125 25.594 25.7656 25.9415 25.7656H50.5508C50.8983 25.7656 51.2296 25.9125 51.4629 26.1701C51.6961 26.4277 51.8097 26.7719 51.7753 27.1177L49.3144 51.8911C49.2518 52.5205 48.7224 53 48.0899 53Z" fill="#F58B71"/>
<path d="M50.5508 25.7656H38.2461V53H48.0898C48.7223 53 49.2517 52.5205 49.3143 51.8912L51.7753 27.1177C51.8096 26.772 51.6961 26.4278 51.4628 26.1702C51.2296 25.9125 50.8983 25.7656 50.5508 25.7656Z" fill="#EE6C4D"/>
<path d="M50.5508 23.3047H25.9414C25.5625 23.3047 25.2048 23.1301 24.9716 22.8314C24.7384 22.5328 24.6558 22.1434 24.7477 21.7758L27.2087 11.932C27.3456 11.3843 27.8378 11 28.4024 11H48.0899C48.6545 11 49.1467 11.3843 49.2836 11.932L51.7445 21.7758C51.8365 22.1434 51.7539 22.5329 51.5207 22.8314C51.2875 23.13 50.9297 23.3047 50.5508 23.3047Z" fill="#F58B71"/>
<path d="M49.2836 11.932C49.1467 11.3843 48.6545 11 48.0898 11H38.2461V23.3047H50.5508C50.9297 23.3047 51.2874 23.1301 51.5206 22.8314C51.7538 22.5328 51.8365 22.1434 51.7445 21.7758L49.2836 11.932Z" fill="#EE6C4D"/>
<path d="M43.168 23.3047H33.3242C32.6447 23.3047 32.0938 22.7538 32.0938 22.0742V17.1523C32.0938 16.4728 32.6447 15.9219 33.3242 15.9219H43.168C43.8475 15.9219 44.3984 16.4728 44.3984 17.1523V22.0742C44.3984 22.7538 43.8475 23.3047 43.168 23.3047Z" fill="#4D4354"/>
<path d="M35.8476 44.1406H31.8515C31.4119 44.1406 31.0057 43.9061 30.7859 43.5254C30.5662 43.1447 30.5661 42.6756 30.7859 42.2949L32.784 38.8342C33.1238 38.2457 33.8763 38.044 34.4648 38.3838C35.0534 38.7236 35.255 39.4762 34.9152 40.0647L33.9829 41.6797H35.8476C36.5271 41.6797 37.0781 42.2306 37.0781 42.9102C37.0781 43.5897 36.5272 44.1406 35.8476 44.1406Z" fill="#DFD6E5"/>
<path d="M44.6406 44.1405H40.6445C39.965 44.1405 39.4141 43.5896 39.4141 42.9101C39.4141 42.2305 39.965 41.6796 40.6445 41.6796H42.5093L41.5769 40.0646C41.237 39.4761 41.4387 38.7236 42.0273 38.3838C42.6156 38.044 43.3683 38.2456 43.7081 38.8342L45.7061 42.2949C45.9259 42.6756 45.9259 43.1447 45.7061 43.5254C45.4863 43.9061 45.0803 44.1405 44.6406 44.1405Z" fill="#DFD6E5"/>
<path d="M40.2396 36.5312C39.8144 36.5312 39.4008 36.3105 39.1729 35.9158L38.2404 34.3008L37.308 35.9158C36.9681 36.5043 36.2156 36.7059 35.6272 36.3662C35.0386 36.0264 34.837 35.2738 35.1768 34.6853L37.1749 31.2246C37.3947 30.8439 37.8008 30.6094 38.2404 30.6094C38.6801 30.6094 39.0863 30.8439 39.306 31.2246L41.3041 34.6853C41.6439 35.2738 41.4423 36.0264 40.8537 36.3662C40.66 36.4781 40.4484 36.5312 40.2396 36.5312Z" fill="#DFD6E5"/>
<path d="M43.168 15.9219H38.2461V23.3047H43.168C43.8475 23.3047 44.3984 22.7538 44.3984 22.0742V17.1523C44.3984 16.4728 43.8475 15.9219 43.168 15.9219Z" fill="#4D4354"/>
<path d="M39.1785 35.9158C39.4064 36.3106 39.82 36.5313 40.2453 36.5312C40.454 36.5312 40.6656 36.4781 40.8594 36.3662C41.4479 36.0264 41.6496 35.2738 41.3097 34.6853L39.3117 31.2246C39.0918 30.8439 38.6857 30.6094 38.2461 30.6094V34.3008L39.1785 35.9158Z" fill="#DFD6E5"/>
<path d="M53.0117 28.2266H23.4805C22.8009 28.2266 22.25 27.6756 22.25 26.9961V22.0742C22.25 21.3947 22.8009 20.8438 23.4805 20.8438H53.0117C53.6913 20.8438 54.2422 21.3947 54.2422 22.0742V26.9961C54.2422 27.6756 53.6913 28.2266 53.0117 28.2266Z" fill="#FEB644"/>
<path d="M53.0117 20.8438H38.2461V28.2266H53.0117C53.6913 28.2266 54.2422 27.6756 54.2422 26.9961V22.0742C54.2422 21.3947 53.6913 20.8438 53.0117 20.8438Z" fill="#FFA921"/>
</svg>
