<svg width="66" height="60" viewBox="0 0 66 60" fill="none" xmlns="http://www.w3.org/2000/svg">
<circle cx="20" cy="20" r="20" fill="#EE6C4D" fill-opacity="0.16"/>
<path d="M56.0539 20.0336L48.0694 23.1044L40.2745 25.8024C40.0447 25.8484 39.8071 25.837 39.5828 25.7692C39.3585 25.7013 39.1544 25.5792 38.9887 25.4135L38.1033 24.5281L35.9677 25.24L35.2559 22.3925L37.3915 21.6807L37.8782 19.5086C37.948 19.2988 38.0657 19.1082 38.222 18.9519C38.3783 18.7956 38.5689 18.6778 38.7787 18.6081L40.8956 17.9024L46.6457 15.9857L53.8373 13.5885C54.1956 13.4693 54.5865 13.4971 54.9242 13.666C55.2619 13.8349 55.5188 14.1309 55.6383 14.4891L56.8939 18.2548C57.0094 18.6024 56.9866 18.9812 56.8302 19.3125C56.6738 19.6437 56.3957 19.902 56.0539 20.0336Z" fill="#F58B71"/>
<path d="M46.1687 19.2776L43.1575 20.4068C42.9697 20.4773 42.7691 20.5073 42.5689 20.4948C42.3687 20.4823 42.1733 20.4277 41.9957 20.3344C41.8181 20.2411 41.6622 20.1114 41.5382 19.9536C41.4143 19.7959 41.3251 19.6138 41.2764 19.4191L40.8965 17.9011L46.6466 15.9844L47.0506 17.5994C47.1353 17.9386 47.0923 18.2972 46.9297 18.6067C46.767 18.9162 46.4962 19.155 46.1687 19.2776V19.2776Z" fill="#EE6C4D"/>
<path d="M47.8663 39.9429L45.8161 40.5711L40.0206 42.3472C39.7657 41.2403 39.2923 40.1955 38.6282 39.274C37.9642 38.3524 37.1228 37.5728 36.1534 36.9807L33.75 35.5116L43.1208 33.3697C43.1448 33.3644 43.168 33.3591 43.1911 33.3528C43.5436 33.2583 43.8464 33.032 44.0368 32.7207C44.2272 32.4094 44.2908 32.0368 44.2144 31.6799L42.6083 24.184C42.5421 23.8754 42.5803 23.5535 42.7171 23.269C42.8539 22.9846 43.0814 22.7536 43.3637 22.6126L43.7561 22.4159C43.9386 22.3247 44.1384 22.2738 44.3423 22.2665C44.5461 22.2593 44.7491 22.2959 44.9375 22.374C45.1259 22.452 45.2954 22.5697 45.4344 22.7189C45.5734 22.8682 45.6787 23.0455 45.7431 23.239C45.7685 23.315 45.8086 23.3852 45.861 23.4457C45.9135 23.5062 45.9774 23.5557 46.0491 23.5915C46.1207 23.6273 46.1987 23.6486 46.2786 23.6542C46.3585 23.6598 46.4387 23.6497 46.5146 23.6243L48.0718 23.1055L50.7573 34.9198C50.9952 35.9672 50.8298 37.0658 50.294 37.9967C49.7582 38.9276 48.8914 39.6225 47.8663 39.9429V39.9429Z" fill="#FDD4BB"/>
<path d="M36.1511 36.9729L27.4255 31.6406L27.3243 31.7418C24.6543 34.4118 23.1543 38.0331 23.1543 41.8091V52.9966H40.239V44.262C40.239 42.7986 39.8631 41.3598 39.1473 40.0834C38.4315 38.8071 37.3998 37.736 36.1511 36.9729V36.9729Z" fill="#FFA921"/>
<path d="M27.4258 47.3047H34.5444V52.9996H27.4258V47.3047Z" fill="#FDD4BB"/>
<path d="M26.7148 40.8984H35.2572V47.3052H26.7148V40.8984Z" fill="#FEB644"/>
<path d="M24.291 13.0067C22.4692 13.4207 20.8832 14.5344 19.8751 16.1074C18.8671 17.6804 18.5178 19.5866 18.9027 21.4148L19.0451 22.0913C19.4292 23.9155 20.2841 25.6073 21.5248 26.9986C22.7656 28.3899 24.3489 29.4321 26.1174 30.0216L27.2476 30.3983L25.29 24.5254L25.6401 24.4087C26.1204 24.2486 26.528 23.9229 26.79 23.4897C27.0521 23.0566 27.1514 22.5444 27.0703 22.0447C26.9893 21.545 26.733 21.0905 26.3474 20.7624C25.9619 20.4344 25.4722 20.2542 24.9659 20.2542H24.5781L24.5441 20.084C24.3625 19.1761 24.5418 18.2332 25.044 17.4553C25.5462 16.6775 26.3318 16.1259 27.2339 15.9178L29.8097 15.3233C30.7508 15.1062 31.5905 14.5764 32.1918 13.8206C32.7931 13.0647 33.1205 12.1274 33.1205 11.1615V11L24.291 13.0067Z" fill="#4D4354"/>
<path d="M37.3893 21.6788L35.2537 22.3907L36.253 25.8895C36.3071 26.0785 36.3213 26.2767 36.295 26.4715C36.2686 26.6663 36.2022 26.8536 36.0999 27.0215C35.9975 27.1893 35.8615 27.3342 35.7004 27.4469C35.5393 27.5596 35.3566 27.6377 35.1639 27.6763L33.8042 27.9486C33.6212 27.985 33.4599 28.0919 33.355 28.2462C33.2502 28.4005 33.2102 28.5899 33.2436 28.7734L34.5588 36.006L27.4499 31.6609L25.2876 24.5263L25.6373 24.4097C26.1176 24.2497 26.5253 23.924 26.7874 23.4909C27.0495 23.0578 27.1489 22.5456 27.0679 22.0458C26.9869 21.5461 26.7307 21.0916 26.3452 20.7635C25.9596 20.4354 25.47 20.2552 24.9637 20.2551H24.5758L24.542 20.0851C24.3601 19.1772 24.5394 18.2341 25.0416 17.4562C25.5439 16.6783 26.3296 16.1269 27.2319 15.9189L29.8071 15.3245C30.3559 15.1979 30.8743 14.9639 31.3323 14.636C31.7903 14.3081 32.1789 13.8928 32.4757 13.4141L33.83 18.8314L37.3893 20.9669V21.6788Z" fill="#FDD4BB"/>
<path d="M55.1873 28.0818V27.801C55.1873 27.52 55.1041 27.2452 54.9482 27.0113L53.7636 25.2344L52.579 27.0113C52.423 27.2452 52.3398 27.52 52.3398 27.801V28.0818C52.3398 28.4594 52.4898 28.8216 52.7568 29.0886C53.0238 29.3556 53.386 29.5056 53.7636 29.5056C54.1412 29.5056 54.5033 29.3556 54.7703 29.0886C55.0373 28.8216 55.1873 28.4594 55.1873 28.0818Z" fill="#DFD6E5"/>
<path d="M56.372 39.1129L55.1874 37.3359L54.0028 39.1129C53.8469 39.3467 53.7637 39.6215 53.7637 39.9026V40.1834C53.7637 40.561 53.9137 40.9231 54.1807 41.1901C54.4477 41.4571 54.8098 41.6071 55.1874 41.6071C55.565 41.6071 55.9271 41.4571 56.1941 41.1901C56.4611 40.9231 56.6111 40.561 56.6111 40.1834V39.9026C56.6111 39.6215 56.5279 39.3467 56.372 39.1129Z" fill="#DFD6E5"/>
<path d="M48.7812 46.5938L47.5965 48.3707C47.4406 48.6045 47.3574 48.8793 47.3574 49.1604V49.4412C47.3574 49.8188 47.5074 50.1809 47.7744 50.4479C48.0414 50.7149 48.4036 50.8649 48.7812 50.8649C49.1587 50.8649 49.5209 50.7149 49.7879 50.4479C50.0549 50.1809 50.2049 49.8188 50.2049 49.4412V49.1604C50.2049 48.8793 50.1217 48.6045 49.9658 48.3707L48.7812 46.5938Z" fill="#DFD6E5"/>
<path d="M29.9453 18.9062L31.3684 18.1947L32.0048 19.4675L30.5817 20.1791L29.9453 18.9062Z" fill="#575757"/>
<path d="M45.8161 40.5699L40.0206 42.346C39.7657 41.2391 39.2923 40.1942 38.6282 39.2727C37.9642 38.3512 37.1228 37.5715 36.1534 36.9794L33.75 35.5103L43.1208 33.3685C43.1448 33.3631 43.168 33.3578 43.1911 33.3516L45.8161 40.5699Z" fill="#FEB644"/>
</svg>
