<svg width="503" height="578" viewBox="0 0 503 578" fill="none" xmlns="http://www.w3.org/2000/svg">
<path d="M327.905 315.179C338.426 378.192 295.87 437.803 232.854 448.325C169.838 458.847 110.224 416.294 99.7033 353.282C89.1821 290.269 131.737 230.657 194.754 220.136C257.77 209.614 317.383 252.166 327.905 315.179Z" stroke="#224338" stroke-width="5"/>
<path d="M332.422 402.2C340.148 448.473 308.898 492.249 262.622 499.975C216.347 507.702 172.57 476.454 164.844 430.181C157.117 383.908 188.368 340.132 234.643 332.406C280.919 324.679 324.696 355.927 332.422 402.2Z" stroke="#FEB644" stroke-width="2"/>
<ellipse cx="473.216" cy="272.336" rx="236.36" ry="236.348" transform="rotate(-9.47918 473.216 272.336)" fill="#FEB644"/>
<path d="M169.368 262.206C175.772 300.562 149.869 336.847 111.512 343.251C73.1542 349.656 36.8678 323.755 30.4636 285.399C24.0594 247.044 49.9626 210.759 88.3201 204.354C126.678 197.95 162.964 223.851 169.368 262.206Z" stroke="#224338" stroke-width="2"/>
</svg>
