<svg width="53" height="52" viewBox="0 0 53 52" fill="none" xmlns="http://www.w3.org/2000/svg">
<g clip-path="url(#clip0_30175_40277)">
<path d="M26.25 52.0001C40.6094 52.0001 52.25 40.3595 52.25 26.0001C52.25 11.6407 40.6094 6.10352e-05 26.25 6.10352e-05C11.8906 6.10352e-05 0.25 11.6407 0.25 26.0001C0.25 40.3595 11.8906 52.0001 26.25 52.0001Z" fill="#FFC850"/>
<path d="M52.25 26.0001C52.25 25.7477 52.2464 25.4961 52.2392 25.2455L41.9337 14.9011L6.34375 32.5224L25.8179 51.9965C25.9616 51.9989 26.1057 52.0001 26.25 52.0001C40.6094 52.0001 52.25 40.3595 52.25 26.0001Z" fill="#FEB644"/>
<path d="M6.38477 22.2631C6.38477 16.3926 11.1437 11.6337 17.0141 11.6337C20.5653 11.6337 23.7098 13.3752 25.6401 16.0509C27.5704 13.3753 30.7149 11.6337 34.2661 11.6337C40.1365 11.6337 44.8954 16.3926 44.8954 22.2631C44.8953 34.7788 25.64 45.8047 25.64 45.8047C25.64 45.8047 6.38477 34.7788 6.38477 22.2631Z" fill="#F3532D"/>
<path d="M25.6406 16.0509C27.5709 13.3753 30.7154 11.6337 34.2666 11.6337C40.137 11.6337 44.896 16.3926 44.896 22.2631C44.896 34.7788 25.6406 45.8047 25.6406 45.8047V16.0509Z" fill="#EE6C4D"/>
<path d="M28.3212 40.5264L21.3437 28.7096L18.6723 32.5224H6.34375V29.4755H17.0868L21.5625 23.0875L27.8192 33.6839L34.6415 16.9423L38.0985 29.4755H45.2766V32.5224H35.7782L34.0847 26.3827L28.3212 40.5264Z" fill="white"/>
<path d="M38.0985 29.4755L34.6415 16.9424L27.8192 33.6838L25.6406 29.9942V35.9867L28.3212 40.5263L34.0847 26.3826L35.7782 32.5224H45.2766V29.4755H38.0985Z" fill="#E9EDF5"/>
</g>
<defs>
<clipPath id="clip0_30175_40277">
<rect width="52" height="52" fill="white" transform="translate(0.25)"/>
</clipPath>
</defs>
</svg>
