<svg width="1320" height="501" viewBox="0 0 1320 501" fill="none" xmlns="http://www.w3.org/2000/svg">
<mask id="mask0_0_2005" style="mask-type:alpha" maskUnits="userSpaceOnUse" x="0" y="2" width="1320" height="497">
<path d="M0 58.9532C0 26.8958 26.6618 1.34895 58.6842 2.8491C179.719 8.51925 462.268 20.6757 660 20.6757C857.732 20.6757 1140.28 8.51924 1261.32 2.8491C1293.34 1.34895 1320 26.8958 1320 58.9532V442.047C1320 474.104 1293.34 499.651 1261.32 498.151C1140.28 492.481 857.732 480.324 660 480.324C462.268 480.324 179.719 492.481 58.6841 498.151C26.6617 499.651 0 474.104 0 442.047L0 58.9532Z" fill="white"/>
</mask>
<g mask="url(#mask0_0_2005)">
<rect x="-41" y="-18" width="1402" height="535" fill="#201429"/>
<path opacity="0.1" d="M935.701 66.7632C947.152 52.6226 966.406 47.4636 983.393 53.9843L1168.32 124.971C1185.31 131.492 1196.16 148.209 1195.21 166.38L1184.84 364.193C1183.89 382.363 1171.35 397.854 1153.77 402.563L962.438 453.831C944.862 458.541 926.253 451.397 916.343 436.137L808.459 270.01C798.549 254.75 799.592 234.844 811.043 220.704L935.701 66.7632Z" fill="#EE6C4D"/>
<g opacity="0.1">
<path d="M-59.6431 266.903C-3.33313 301.161 114.98 359.399 137.751 318.29C166.216 266.903 10.226 45.3193 5.27562 17.5977" stroke="#EE6C4D" stroke-width="3" stroke-linecap="round"/>
<path d="M-97.3608 231.306C-41.0508 265.564 77.2621 323.802 100.034 282.693C128.498 231.306 8.11519 99.956 3.16486 72.2344" stroke="#EE6C4D" stroke-width="3" stroke-linecap="round"/>
<path d="M-145.376 200.389C-89.0656 234.647 29.2473 292.885 52.0188 251.776C80.4832 200.389 -23.4737 67.8662 -28.424 40.1445" stroke="#EE6C4D" stroke-width="3" stroke-linecap="round"/>
</g>
<g opacity="0.1">
<path d="M688.727 116.238C688.019 115.808 687.794 114.885 688.225 114.177C688.655 113.469 689.578 113.245 690.286 113.675L688.727 116.238ZM1344.59 285.491L1345.9 286.218L1344.59 285.491ZM903.473 -712.139C903.327 -712.954 903.87 -713.733 904.686 -713.879C905.501 -714.025 906.28 -713.482 906.426 -712.666L903.473 -712.139ZM690.286 113.675C783.672 170.489 928.45 247.172 1059.28 292.601C1124.71 315.319 1186.53 330.181 1236.65 330.888C1286.8 331.596 1324.79 318.144 1343.28 284.764L1345.9 286.218C1326.61 321.051 1287.17 334.601 1236.61 333.888C1186.01 333.174 1123.83 318.192 1058.29 295.435C927.193 249.911 782.214 173.114 688.727 116.238L690.286 113.675ZM1343.28 284.764C1354.85 263.874 1357.14 234.129 1352.01 197.633C1346.88 161.179 1334.39 118.221 1316.65 71.0916C1281.19 -23.1624 1224.87 -133.868 1165.04 -242.181C1105.22 -350.489 1041.94 -456.335 992.563 -540.895C967.879 -583.166 946.665 -620.127 931.107 -649.401C923.328 -664.038 916.953 -676.771 912.262 -687.298C907.584 -697.794 904.534 -706.197 903.473 -712.139L906.426 -712.666C907.419 -707.107 910.338 -698.985 915.002 -688.519C919.653 -678.083 925.992 -665.417 933.756 -650.809C949.283 -621.593 970.47 -584.678 995.153 -542.407C1044.51 -457.883 1107.82 -351.981 1167.67 -243.632C1227.51 -135.288 1283.92 -24.4288 1319.46 70.035C1337.23 117.264 1349.81 160.454 1354.98 197.215C1360.14 233.935 1357.95 264.474 1345.9 286.218L1343.28 284.764Z" fill="#EE6C4D"/>
<path d="M563.547 -1.89801C562.839 -2.32855 562.614 -3.25134 563.045 -3.95911C563.475 -4.66687 564.398 -4.89154 565.106 -4.46094L563.547 -1.89801ZM1219.41 167.355L1220.72 168.081L1219.41 167.355ZM896.46 -530.82C896.314 -531.636 896.857 -532.415 897.673 -532.561C898.488 -532.706 899.267 -532.163 899.413 -531.348L896.46 -530.82ZM565.106 -4.46094C658.492 52.353 803.27 129.036 934.099 174.464C999.527 197.183 1061.35 212.044 1111.47 212.752C1161.62 213.459 1199.61 200.008 1218.1 166.628L1220.72 168.081C1201.43 202.915 1161.99 216.465 1111.43 215.751C1060.83 215.037 998.652 200.055 933.115 177.298C802.013 131.775 657.034 54.9775 563.547 -1.89801L565.106 -4.46094ZM1218.1 166.628C1241.37 124.608 1234.34 65.9532 1209.93 -0.264465C1185.56 -66.3957 1144.04 -139.638 1098.99 -210.511C1053.95 -281.383 1005.45 -349.777 967.14 -406.281C947.993 -434.518 931.385 -459.794 919.046 -480.897C906.742 -501.941 898.566 -519.025 896.46 -530.82L899.413 -531.348C901.414 -520.143 909.316 -503.481 921.636 -482.411C933.921 -461.4 950.481 -436.195 969.623 -407.964C1007.89 -351.532 1056.45 -283.041 1101.52 -212.12C1146.6 -141.2 1188.27 -67.7407 1212.75 -1.30182C1237.2 65.0504 1244.68 124.834 1220.72 168.081L1218.1 166.628Z" fill="#EE6C4D"/>
<path d="M404.225 -104.494C403.517 -104.924 403.292 -105.847 403.723 -106.555C404.153 -107.263 405.076 -107.487 405.784 -107.057L404.225 -104.494ZM1060.09 64.759L1058.78 64.0322L1060.09 64.759ZM791.649 -637.309C791.504 -638.124 792.047 -638.903 792.862 -639.049C793.678 -639.195 794.457 -638.651 794.603 -637.836L791.649 -637.309ZM405.784 -107.057C499.17 -50.2427 643.948 26.4404 774.777 71.8687C840.205 94.5876 902.031 109.449 952.15 110.156C1002.3 110.864 1040.29 97.4121 1058.78 64.0322L1061.4 65.4858C1042.1 100.32 1002.67 113.869 952.108 113.156C901.513 112.442 839.33 97.4595 773.793 74.7027C642.69 29.1794 497.712 -47.6182 404.225 -104.494L405.784 -107.057ZM1058.78 64.0322C1082.09 21.9507 1078.39 -36.9997 1059.1 -103.57C1039.82 -170.067 1005.1 -243.794 966.869 -315.149C928.639 -386.5 886.952 -455.386 853.758 -512.246C837.168 -540.664 822.695 -566.088 811.853 -587.292C801.036 -608.447 793.747 -625.563 791.649 -637.309L794.603 -637.836C796.612 -626.582 803.699 -609.829 814.524 -588.658C825.324 -567.535 839.761 -542.173 856.349 -513.759C889.511 -456.953 931.249 -387.981 969.514 -316.566C1007.78 -245.155 1042.62 -171.207 1061.98 -104.405C1081.32 -37.6745 1085.32 22.3001 1061.4 65.4858L1058.78 64.0322Z" fill="#EE6C4D"/>
</g>
</g>
</svg>
