<svg width="146" height="70" viewBox="0 0 146 70" fill="none" xmlns="http://www.w3.org/2000/svg">
<path d="M72.9751 22.209C71.4786 21.8982 69.5239 22.0066 69.5239 22.0066C69.5239 22.0066 58.5261 25.6705 58.3758 25.7211C58.3543 25.75 58.3471 25.9018 58.3471 25.9451C58.4116 28.2143 59.3567 29.8258 59.8436 30.4184C59.9224 30.5196 59.9295 30.5196 59.9582 30.5124C60.1085 30.4618 70.9416 26.834 70.9416 26.834C70.9416 26.834 73.9775 24.9334 73.8056 24.8756C74.9369 23.8639 75.4453 22.5197 72.9751 22.209ZM44.1775 25.6777C44.0557 25.5983 43.7479 25.5188 43.6763 25.5043C41.7431 25.2947 41.0056 26.1619 40.7979 26.9496C40.5187 27.7373 40.5975 28.5612 40.6691 29.1176C40.6834 29.2911 40.7049 29.3128 40.7765 29.3706C41.5426 30.0932 42.144 30.946 42.4877 31.8421C42.8242 32.7454 42.8887 33.7066 42.8099 34.7183C42.5235 36.5611 41.5712 38.5484 40.1464 40.3262C39.8457 40.7959 39.4375 41.2223 39.058 41.6559L37.9053 42.9494C37.1177 43.7516 36.2871 44.4598 35.4279 45.0307C34.9768 45.3342 34.5043 45.5872 34.0246 45.804C31.8909 44.6549 30.1868 43.9033 30.1868 43.9033C29.4135 43.6215 28.6116 43.3541 27.7166 43.1301C27.2655 43.0217 26.8001 42.9205 26.213 42.8699C25.676 42.8266 24.9528 42.7688 23.9289 43.1518C23.6998 43.2457 23.4778 43.3613 23.2702 43.4914C23.0339 43.6649 22.8048 43.8744 22.6043 44.0912L22.4611 44.2575C22.411 44.3153 22.2893 44.5104 22.2248 44.6477C22.1461 44.7995 22.0816 44.9584 22.0244 45.1246C21.9671 45.2981 21.9313 45.4571 21.9313 45.5221C21.874 45.869 21.8812 46.3098 21.917 46.4833C22.0602 47.4227 22.3322 47.8925 22.6186 48.3694C23.1914 49.2944 23.9146 49.9665 24.7165 50.4868C26.3275 51.5202 28.139 51.8165 29.7429 51.7659C31.1462 51.7154 32.5782 51.5491 34.046 51.1444C34.3682 51.0505 34.6976 50.9421 35.0126 50.8265C38.0055 51.9032 40.8839 52.7488 40.6476 52.5898C42.0653 52.9367 43.4328 53.1318 44.5426 53.0884C45.6524 53.0667 46.483 52.7126 46.6763 52.4236C46.8696 52.12 46.5403 51.9827 45.7741 51.7443C45.0009 51.4986 43.7049 50.9855 41.7216 50.0171C40.8839 49.5763 39.9817 49.0848 39.0652 48.579C39.9244 47.9286 40.7335 47.2421 41.4567 46.5122C41.9292 46.0135 42.366 45.5004 42.8242 44.9873C43.2753 44.4743 43.7407 43.9828 44.1345 43.3903C45.8314 41.2295 47.2921 38.5629 47.779 35.3831C47.958 33.6126 47.8148 31.7481 47.1632 30.0282C46.4902 28.3155 45.4305 26.8557 44.1775 25.6777ZM24.6449 45.9485L24.6234 45.9268C24.423 45.775 24.5232 45.8545 24.6879 45.9702L24.6449 45.9485ZM136.441 10.9065C136.048 10.827 135.64 10.8704 135.239 10.827C134.68 10.762 134.165 10.5235 133.628 10.3717C133.091 10.2127 132.496 10.1332 131.988 10.3717C130.456 11.0944 130.671 13.0167 132.009 13.8405C132.819 14.3391 135.188 14.4331 135.969 14.0067C136.234 13.8622 136.427 13.6237 136.606 13.3852C136.799 13.1323 136.986 12.8794 137.143 12.5975C137.315 12.294 137.451 11.9399 137.358 11.6075C137.243 11.2172 136.842 10.9788 136.441 10.9065ZM145.628 10.5957C145.449 10.5235 145.248 10.5379 145.055 10.5668C145.17 10.509 145.27 10.3789 145.327 10.2561C145.413 10.0537 145.034 9.73577 144.697 9.72855C144.69 9.46839 143.38 8.86858 142.8 9.07092C142.642 9.12873 142.492 9.19377 142.327 9.19377C142.141 9.201 141.962 9.12873 141.783 9.07092C141.017 8.82522 140.107 8.85412 139.506 9.39612C138.16 10.6102 139.921 12.4458 141.239 12.5253C142.191 12.5831 143.874 11.9038 143.702 11.8243C144.332 11.9038 144.983 11.8098 145.571 11.5641C145.735 11.4918 145.907 11.3979 145.979 11.2317C146.072 10.9715 145.871 10.6897 145.628 10.5957ZM127.935 12.1206C126.117 11.6002 123.596 11.434 123.596 11.434L121.155 11.7737C120.926 11.4557 120.639 11.1739 120.195 10.9426C119.401 10.5452 119.043 10.6102 118.549 10.603C118.434 10.6102 118.312 10.6174 118.205 10.6319L118.019 10.6752L117.646 10.7836L117.288 10.9065L117.052 11.0221L116.587 11.2606C116.386 11.369 116.007 11.6653 115.763 11.9038C115.541 12.1567 115.377 12.3807 115.234 12.5975L110.386 13.2768L108.131 13.9055C108.102 13.9345 108.066 14.0934 108.059 14.1368C107.816 16.4566 108.804 18.0825 109.334 18.6751C109.412 18.7763 109.427 18.7763 109.47 18.7691L111.403 18.2271L113.694 17.9019C113.472 19.4773 113.336 21.0238 113.265 22.5631L113.229 23.741C112.928 24.1963 112.599 24.6516 112.233 25.1141C111.21 26.3932 110.028 27.6578 108.804 28.9008C108.202 29.5079 107.544 30.1727 106.957 30.7147L106.069 31.5097L105.145 32.2251C103.906 33.1067 102.546 33.815 101.365 33.9812C100.763 34.0968 100.269 34.0245 99.8681 33.9306C99.4886 33.8005 99.2452 33.5909 98.9874 33.2802C98.7368 32.9694 98.5722 32.4347 98.4433 31.8565C98.3645 31.2278 98.3001 30.5557 98.4075 30.0137C99.0877 29.8114 99.7894 29.5801 100.527 29.2477C101.035 29.002 101.558 28.7346 102.066 28.3661C102.324 28.1998 102.56 27.983 102.804 27.7807C102.847 27.7518 102.976 27.6217 103.054 27.535C103.147 27.4338 103.219 27.3688 103.348 27.2026C103.541 26.928 103.835 26.5883 103.992 25.7572C104.028 25.5332 104.035 25.3092 104.028 25.0852C103.999 24.8106 103.935 24.5287 103.835 24.2686C103.735 23.9939 103.613 23.806 103.455 23.6037C103.312 23.4158 103.104 23.199 102.997 23.1195C102.732 22.9027 102.396 22.7221 102.224 22.657C102.002 22.5631 101.787 22.5053 101.651 22.4763C100.999 22.3463 100.584 22.3752 100.197 22.4185C99.4242 22.5053 98.8084 22.7076 98.207 22.9605C97.0256 23.4736 95.9945 24.2758 95.1783 25.2803C95.0637 25.4248 94.9707 25.5766 94.8633 25.7211C94.5697 25.7862 94.2761 25.8584 93.9754 25.9235C93.0947 26.1258 92.1997 26.3354 91.2976 26.5739L90.0302 26.9063L88.8059 27.1881C86.2283 27.7373 83.5289 28.142 80.8439 28.4889C80.7365 28.525 80.5289 28.6913 80.4859 28.7418C78.1733 31.1989 79.8988 32.8466 81.1232 33.4175C81.3022 33.5187 81.3451 33.5114 81.4669 33.497C84.2593 33.1356 87.0302 32.7237 89.8584 32.1167L91.2116 31.8059L92.5148 31.4663C92.794 31.394 93.0947 31.329 93.3811 31.2567C93.3955 31.5747 93.4241 31.8927 93.4599 32.2034C93.4885 32.7526 93.689 33.3597 93.8107 33.9378C94.0399 34.5232 94.2189 35.123 94.5912 35.6939C95.2213 36.8574 96.374 37.8763 97.627 38.44C98.9015 39.047 100.233 39.1338 101.429 39.047C103.82 38.8086 105.761 37.8402 107.443 36.7345C109.112 35.6288 110.608 34.2052 111.818 32.9767C112.42 32.3696 113.014 31.7626 113.608 31.1339C113.809 32.4636 114.102 34.1546 114.518 35.824C115.305 39.365 116.895 42.682 116.866 42.3496C117.582 43.701 118.441 44.8573 119.293 45.5944C120.138 46.3387 120.904 46.635 121.234 46.6061C121.57 46.5628 121.52 46.2014 121.105 45.4788C120.732 44.7127 120.052 43.5131 119.479 41.4246C118.828 38.9675 118.491 35.8384 118.377 33.3524C118.262 30.8593 118.298 29.0165 118.298 29.0165C118.248 28.2288 118.219 27.441 118.198 26.6533L118.183 25.4682V25.208C118.413 24.8033 118.627 24.3914 118.821 23.9578C119.25 23.0256 119.58 22.0933 119.866 21.2045L120.675 18.6896C120.868 18.097 121.062 17.4755 121.255 16.8323L124.076 16.4349C124.076 16.4349 128.458 14.9606 128.258 14.8811C129.983 14.0429 130.993 12.7782 127.935 12.1206Z" fill="white"/>
<path d="M84.5814 29.5801C83.6148 30.5413 83.0277 30.9821 83.0277 30.9821C83.5289 30.6208 84.4096 29.9414 85.4836 28.7491C86.0206 28.1637 86.5934 27.4121 87.1447 26.5016C87.696 25.591 88.2187 24.4709 88.5266 23.1339C88.8416 21.8115 88.9204 20.2722 88.6483 18.7329C88.3762 17.1936 87.7748 15.6833 86.9729 14.3102C86.5791 13.602 86.1137 12.9733 85.634 12.3157C85.3834 12.0121 85.1256 11.7014 84.8678 11.3834C84.7533 11.2389 84.5242 10.986 84.295 10.7764C84.0946 10.5885 83.9442 10.4584 83.7795 10.3211C83.1423 9.78633 82.5408 9.32383 81.8964 8.84687C81.5671 8.60839 81.2305 8.36991 80.894 8.13143C80.5217 7.88573 80.2281 7.6617 79.5694 7.31482C75.2806 5.21187 70.3401 3.45579 64.9343 2.38625C62.2278 1.89484 59.4354 1.54073 56.5714 1.41065C53.7146 1.30225 50.8076 1.38175 47.9006 1.67081C36.2584 2.87766 24.8311 7.61834 16.1961 14.2885C11.8571 17.6056 8.20549 21.4285 5.49184 25.4609C5.16248 25.974 4.84028 26.4871 4.52523 26.9857C4.23167 27.5205 3.93811 28.0481 3.64455 28.5684C3.38679 29.1032 3.13619 29.6307 2.89275 30.151C2.67079 30.6786 2.46315 31.2061 2.25551 31.7192C1.48223 33.8005 1.0025 35.8095 0.716103 37.6523C0.128981 41.3451 0.322302 44.3731 0.572903 46.4182C0.694623 47.4444 0.844983 48.2393 0.952384 48.7669C1.05262 49.3016 1.12422 49.5762 1.12422 49.5762C2.12663 53.9989 4.15291 57.9013 6.63744 60.8787C7.86896 62.3746 9.22221 63.6393 10.5969 64.6582C11.2628 65.193 11.9788 65.6122 12.6375 66.0385C13.3249 66.4215 13.9836 66.7901 14.628 67.0864C17.2343 68.2716 19.4539 68.763 20.9646 68.9653C21.7164 69.1026 22.3107 69.1026 22.7045 69.146C23.0983 69.1749 23.306 69.1894 23.306 69.1894C25.4253 69.305 27.1079 69.2544 28.812 69.1894C30.4946 69.1315 32.0842 69.0159 33.5734 68.8714C36.5592 68.5823 39.1654 68.1054 41.3922 67.5561C45.86 66.4288 48.8314 65.1207 50.8577 64.1596C52.884 63.1768 53.9938 62.5264 54.6239 62.1578C55.2468 61.782 55.39 61.6809 55.39 61.6809C55.39 61.6809 55.3184 60.6619 55.0678 60.4017C54.8101 60.1416 53.8506 59.9826 53.5929 59.7152C53.3351 59.4551 52.5833 58.5156 52.5833 58.5156C52.4186 58.1687 52.1465 57.7568 52.1465 57.7568L51.3303 58.1759C46.755 60.7703 41.9077 62.3313 36.9386 63.278C34.4613 63.7549 31.941 64.044 29.4278 64.2102C28.1676 64.2897 26.9075 64.3475 25.6545 64.3764C25.0459 64.3836 24.4802 64.3692 23.8859 64.3692C23.306 64.3258 22.726 64.2825 22.1532 64.2174C17.5708 63.6321 13.3535 61.3557 10.4108 57.9158C7.41788 54.5193 5.66368 50.1833 4.98348 45.8545C4.29611 41.533 4.69707 37.1392 6.04316 33.2151C7.3606 29.2694 9.74489 25.9162 12.2795 22.9894C17.4706 17.172 23.5852 13.154 29.4135 10.3934C32.3348 9.01308 35.2131 7.93631 37.9697 7.1197C40.7335 6.31754 43.3827 5.76832 45.86 5.39253C50.8291 4.69155 55.1179 4.72046 58.5476 5.03843C61.9844 5.37808 64.5692 5.92731 66.2947 6.36813C67.1611 6.56325 67.8055 6.78005 68.2351 6.9029C68.6647 7.03298 68.8867 7.09802 68.8867 7.09802C72.7889 8.15311 75.7603 9.425 78.0658 10.4873C78.6959 10.8197 79.3475 11.3039 79.8916 11.6942C80.4501 12.0989 80.9513 12.4819 81.3881 12.836C81.6029 13.0094 81.8105 13.1829 81.9823 13.3418C82.147 13.4791 82.2759 13.6598 82.4263 13.8405C82.684 14.1657 82.9346 14.4403 83.1208 14.7149C82.9275 14.4114 82.6983 14.0862 82.4334 13.7465C82.0181 13.125 81.2663 12.5397 80.5432 11.911C79.8057 11.3039 79.0109 10.6391 78.2233 10.1621C76.8056 9.44668 75.4667 8.73124 74.4428 8.3121C73.4261 7.87127 72.7746 7.58221 72.7746 7.58221L75.1374 8.60116C75.925 8.94082 76.6768 9.35274 77.4429 9.72129L78.2591 10.0899C79.3904 10.7258 80.4644 11.5569 81.5098 12.3662C81.7675 12.5758 82.0253 12.7854 82.2687 13.0022C82.5122 13.2118 82.7055 13.4791 82.9203 13.7321C83.3642 14.2307 83.7365 14.7727 84.116 15.3147C83.8726 14.9317 83.622 14.5415 83.3571 14.1657C83.0778 13.8043 82.7986 13.4286 82.5122 13.0745C81.8749 12.4168 81.1446 11.8315 80.4358 11.2461C80.7651 11.4701 81.1947 11.7809 81.6959 12.1711C81.9465 12.3662 82.2043 12.583 82.4764 12.8215C82.7556 13.0672 82.9704 13.378 83.2282 13.6743C84.2234 14.8811 85.19 16.4348 85.6912 18.0536C86.1853 19.6796 86.1423 21.3128 85.8631 22.4257C85.7843 22.7003 85.7127 22.9533 85.6483 23.1773C85.5624 23.3941 85.4908 23.582 85.4335 23.7338C85.3762 23.8855 85.3189 24.0011 85.2831 24.0806C85.2473 24.1601 85.2258 24.1963 85.2258 24.1963C85.5051 23.7338 85.8702 22.975 86.085 21.9054C86.2998 20.8431 86.3285 19.4556 85.8917 17.9452C85.455 16.4421 84.5886 14.8594 83.4 13.3563C83.2497 13.1684 83.0993 12.9733 82.9418 12.7782C82.7628 12.5758 82.5623 12.4024 82.3833 12.2362C82.011 11.9037 81.6172 11.5858 81.2234 11.2678C80.8224 10.9498 80.4143 10.6319 79.9847 10.3139C79.5479 9.99591 79.147 9.68516 78.5885 9.38164C73.9345 7.00408 68.321 4.98784 62.4713 4.04115C59.55 3.57142 56.5929 3.30403 53.7074 3.28958C50.8219 3.28958 48.0224 3.49193 45.4018 3.83881C40.1678 4.5976 35.6928 5.90563 32.5854 7.06912C31.8121 7.37264 31.1176 7.64725 30.509 7.88573C29.9003 8.13143 29.3991 8.36991 28.9767 8.55058C28.5614 8.73124 28.2321 8.87578 28.0173 8.97695C27.8025 9.07812 27.6879 9.13594 27.6879 9.13594C28.3466 8.69511 29.9791 7.80623 32.3706 6.80896L32.5281 6.74392L33.373 6.44762C33.7954 6.29587 34.2536 6.13688 34.7334 5.97067C37.0317 5.18296 41.8075 3.75931 47.9651 3.10169C50.7575 2.84153 53.5427 2.76204 56.2277 2.85598C59.0774 3.00052 61.9056 3.33294 64.6336 3.84603C69.5454 4.82886 74.6147 6.56325 78.9035 8.72402C79.2114 8.87578 79.4334 9.02031 79.6482 9.16484C79.6911 9.19375 79.7269 9.21543 79.7699 9.24434L80.042 9.43223C80.1852 9.5334 80.3355 9.63457 80.4787 9.73575C80.9083 10.0393 81.3308 10.35 81.7747 10.6969C82.2687 11.0799 82.6267 11.369 82.9704 11.6653C83.1423 11.8098 83.3929 12.0338 83.5933 12.2578C83.7509 12.4457 83.9084 12.6336 84.0587 12.8215C85.233 14.2452 86.0922 15.6905 86.622 17.1142C87.0874 18.3571 87.3094 19.6218 87.2808 20.8648C87.2521 21.9054 87.0445 22.7582 86.8154 23.517L86.8297 23.5242C87.0588 22.7582 87.2736 21.9126 87.2951 20.8648C87.3237 19.6218 87.1018 18.3571 86.6364 17.1069C86.1065 15.676 85.2473 14.2307 84.0731 12.8071C83.9227 12.6264 83.7652 12.4385 83.6077 12.2434C83.4072 12.0121 83.1566 11.7953 82.9847 11.6436C82.6411 11.3473 82.2831 11.0582 81.789 10.6752C81.3451 10.3356 80.9155 10.0176 80.4931 9.71407C80.3499 9.61289 80.2067 9.51172 80.0563 9.41055L79.7842 9.22266C79.7413 9.19375 79.7055 9.17207 79.6625 9.14316C79.4477 9.00586 79.2257 8.8541 78.9107 8.70234C74.6218 6.53434 69.5454 4.80718 64.6336 3.82435C61.9056 3.30403 59.0774 2.97161 56.2277 2.82708C53.5427 2.73313 50.7575 2.81262 47.9579 3.07278C41.8003 3.73041 37.0246 5.15406 34.719 5.94176C34.2393 6.1152 33.7882 6.27419 33.3586 6.41872L32.7071 6.64997C33.1295 6.47653 33.5663 6.30309 34.0317 6.12965C37.3539 4.87222 41.8003 3.58587 46.8982 2.9427C48.1656 2.74758 49.483 2.67532 50.8219 2.55969C52.1609 2.5091 53.5284 2.42961 54.9175 2.47297C56.3065 2.45852 57.7027 2.58137 59.1132 2.66809C60.5166 2.8343 61.9343 2.95716 63.3305 3.21731C68.9654 4.09897 74.3927 6.0068 79.0969 8.28319C79.6195 8.55781 79.9203 8.7746 80.2639 8.99863C80.579 9.22266 80.894 9.44668 81.2091 9.67071C81.8177 10.126 82.4048 10.5668 82.9919 11.051L83.4358 11.434C83.5862 11.5641 83.801 11.7737 83.9442 11.9399C84.1876 12.2362 84.4239 12.5252 84.6673 12.8071C84.9108 13.0817 85.1113 13.3997 85.3261 13.6959C85.5409 13.9922 85.7414 14.2885 85.9204 14.6065C86.6722 15.835 87.245 17.1503 87.5242 18.48C87.8178 19.8025 87.8178 21.1105 87.6316 22.2523C87.4383 23.3941 87.0946 24.3769 86.6936 25.1646C86.307 25.9596 85.8989 26.5811 85.548 27.0652C85.1972 27.5494 84.8965 27.8963 84.696 28.1276C84.4955 28.366 84.3809 28.4744 84.3809 28.4744C84.7461 28.1565 85.4406 27.4772 86.2354 26.292C86.9944 25.114 87.9037 23.3291 88.0182 20.966C88.0684 19.7952 87.9037 18.5378 87.5242 17.2948C87.1447 16.0446 86.5146 14.8667 85.7843 13.7249C85.591 13.4502 85.3977 13.1684 85.2044 12.8866C85.0039 12.612 84.7819 12.3518 84.5671 12.0844L84.2306 11.6725C84.0945 11.5135 83.8869 11.3112 83.7365 11.1739C83.4501 10.9137 83.1852 10.6897 82.9203 10.4729C82.3905 10.032 81.8535 9.62012 81.295 9.20098C81.0157 8.9914 80.7293 8.78183 80.4215 8.57226C80.1136 8.36269 79.82 8.14589 79.3045 7.8785C76.7126 6.61384 73.9488 5.42144 71.006 4.47475C68.0633 3.54251 64.9773 2.81985 61.8698 2.35012C55.6406 1.46124 49.3398 1.62023 43.9053 2.55246C38.4566 3.41243 33.8813 4.97339 30.7094 6.23083C29.9075 6.53434 29.2058 6.84509 28.5901 7.1197C27.9743 7.39431 27.4445 7.61111 27.022 7.82791C26.1771 8.23983 25.7189 8.47108 25.7189 8.47108C26.3561 8.0953 28.5113 6.9029 31.8837 5.59488C35.2417 4.26518 39.8385 2.89212 45.1584 2.0755C47.8219 1.69972 50.6644 1.46847 53.6 1.43233C56.5356 1.42511 59.55 1.64913 62.55 2.08996C65.5573 2.52356 68.5215 3.27513 71.3784 4.16401C74.2495 5.06011 76.9274 6.23083 79.4978 7.4449C80.178 7.79901 80.4787 8.03749 80.8725 8.29765C81.2449 8.5578 81.5885 8.81074 81.9322 9.06367C82.6267 9.58399 83.2568 10.0682 83.9657 10.6897C84.1303 10.827 84.4239 11.1016 84.6029 11.3184L85.0325 11.8387C85.3118 12.1711 85.5838 12.4963 85.8344 12.8649C86.35 13.5586 86.8082 14.303 87.2092 15.069C88.0111 16.6011 88.5266 18.3065 88.6268 19.9687C88.7342 21.638 88.4264 23.2062 87.9395 24.4853C86.9442 27.0941 85.5194 28.6045 84.5814 29.5801Z" fill="#EE6C4D"/>
<path d="M84.3378 16.7885C84.302 16.6656 84.2089 16.4488 84.0228 16.1309C83.9297 15.9719 83.8223 15.7768 83.6934 15.5455C83.543 15.3287 83.3712 15.0758 83.1707 14.7939C83.1564 14.7723 83.1349 14.7506 83.1206 14.7217C83.6576 15.56 83.9297 16.2031 83.9726 16.391C83.9941 16.3766 84.5097 17.2799 84.3378 16.7885Z" fill="#EE6C4D"/>
<path d="M89.3715 20.3371C89.3286 18.6895 88.899 16.9551 88.14 15.3291C87.8465 14.6642 87.4885 14.0716 87.1376 13.5007C87.0947 13.4357 87.0517 13.3634 87.0159 13.2912C86.9085 13.1466 86.8083 12.9949 86.708 12.8503C86.4001 12.4095 86.0851 11.9542 85.7486 11.5712L85.4264 11.181C85.3906 11.1376 85.3548 11.0943 85.319 11.0509C85.2474 10.9642 85.1686 10.8702 85.0612 10.7546C84.8894 10.5667 84.6674 10.3644 84.5242 10.2343L84.1304 9.89463C83.6149 9.46103 83.1566 9.10693 82.7342 8.78896C82.276 8.44208 81.8392 8.12411 81.4168 7.82781C81.2807 7.73387 81.1518 7.64715 81.0158 7.56043L80.7294 7.36531C80.5074 7.22077 80.1996 7.03288 79.8058 6.83054L79.1685 6.54147C78.431 6.20182 77.7508 5.8983 77.1494 5.62369C76.6267 5.39966 76.147 5.21177 75.7317 5.05278C75.5241 4.97329 75.3307 4.90102 75.1517 4.82876C74.6076 4.61918 74.1851 4.45297 73.8987 4.34457L73.462 4.20004C73.0252 4.04828 72.4023 3.83871 71.6004 3.56409L71.1708 3.41956C70.9989 3.36897 70.8199 3.31839 70.6409 3.2678C69.7101 3.00041 68.6576 2.68967 67.4332 2.40783C65.0776 1.8297 61.2327 1.09981 56.2922 0.904688C55.6478 0.868555 55.0106 0.861328 54.3662 0.861328C50.2563 0.861328 46.0105 1.2877 41.965 2.11154C39.5736 2.60295 37.0389 3.28225 34.4255 4.14222C31.9911 4.98052 29.6068 5.94889 27.33 7.0112C26.0268 7.61101 22.053 9.43936 17.4921 12.7347C13.6257 15.5025 8.19838 20.142 4.31765 26.5376C2.68516 29.2476 1.48228 32.2683 0.802079 35.318C0.780599 35.4264 0.751958 35.5275 0.730478 35.6287C0.701838 35.7732 0.666038 35.9106 0.637398 36.0551C0.623078 36.1057 0.623078 36.1635 0.608758 36.2141C0.587278 36.3297 0.558638 36.4453 0.537158 36.5537C0.479878 36.8428 0.422598 37.0885 0.401117 37.3125C0.343837 37.7317 0.300877 38.0063 0.279397 38.158C0.279397 38.1725 0.272237 38.1942 0.272237 38.2086C0.265077 38.2592 0.257917 38.2809 0.257917 38.2809C0.243597 38.3821 0.243597 38.4832 0.229277 38.5844C-0.0141638 40.6151 -0.078604 42.6964 0.0717565 44.7126C0.286557 47.5744 0.794919 49.6845 1.08132 50.689C1.19588 51.166 1.32476 51.5635 1.43216 51.8814C1.4966 52.0332 1.53956 52.1705 1.57536 52.2934C1.69708 52.6619 1.76152 52.857 1.76152 52.857C2.7854 55.7621 4.23173 58.4216 6.06469 60.7485C7.07426 62.0276 8.29146 63.2779 9.6805 64.4486C11.0552 65.5759 12.5946 66.566 14.2629 67.4043C15.831 68.1703 17.5995 68.7918 19.5184 69.2471C21.3728 69.6373 23.2201 69.8469 24.9958 69.8541C25.0817 69.8541 25.1676 69.8541 25.2536 69.8541C28.54 69.8541 31.7405 69.6662 34.7835 69.2976C37.9697 68.9074 40.9483 68.3004 43.6262 67.491C46.0463 66.7683 48.3661 65.8867 50.5141 64.8894C52.0034 64.2029 53.4354 63.473 54.8889 62.6564C55.8913 62.0855 56.4426 61.7675 56.4426 61.7675L56.4354 61.753C56.4354 61.753 55.9271 62.0349 54.982 62.5624C54.1371 63.0249 52.7194 63.7693 50.7719 64.6726C48.4234 65.7277 46.1608 66.566 43.8553 67.2453C41.0199 68.0908 37.8695 68.7051 34.49 69.0809C32.8503 69.2687 31.0961 69.3988 29.12 69.4711C27.2512 69.5361 25.4755 69.5939 23.2487 69.4639C18.6019 69.1098 14.0911 67.4115 10.554 64.687C8.66378 63.2562 6.9597 61.4929 5.49189 59.455C4.05989 57.4676 2.8928 55.278 2.01928 52.9438C0.336677 48.4632 -0.271925 43.4985 0.250757 38.5627C0.265077 38.4399 0.272237 38.317 0.286557 38.2014C0.286557 38.1869 0.293717 38.1653 0.293717 38.1508C0.379637 37.5004 0.494198 36.85 0.623078 36.2141C0.630238 36.1924 0.630238 36.1707 0.637398 36.149L0.644558 36.1346C0.680358 35.9611 0.716158 35.7732 0.759118 35.5854C0.780598 35.4986 0.794919 35.4119 0.816399 35.3252C0.866519 35.0867 0.930959 34.8482 1.00256 34.5881C1.15292 33.9955 1.32476 33.3595 1.56104 32.673C1.76152 32.0154 2.01928 31.3361 2.37728 30.4617C2.48468 30.1726 2.61356 29.898 2.75676 29.6017C2.80688 29.4933 2.86416 29.3849 2.91429 29.2693C2.95725 29.1753 3.00021 29.0886 3.04317 28.9947C3.19353 28.6767 3.35105 28.3443 3.53005 28.0263C3.60165 27.9034 3.66609 27.7806 3.73769 27.6577C3.90237 27.3614 4.06705 27.0507 4.24605 26.7472L4.51813 26.3136C4.68997 26.0462 4.86181 25.7716 5.04081 25.4897C7.31054 22.0137 10.4466 18.5449 14.1197 15.4519C16.1102 13.797 18.1651 12.2867 20.2272 10.9642C22.4039 9.58389 24.7094 8.29755 27.0865 7.13406C29.435 6.02115 31.9124 5.01665 34.4399 4.14945C37.0533 3.29671 39.5951 2.61018 41.9794 2.11876C46.0176 1.29493 50.2635 0.868555 54.3734 0.868555C55.0178 0.868555 55.655 0.875781 56.2851 0.897461C61.2183 1.09258 65.0633 1.82247 67.4189 2.4006C68.6433 2.68244 69.6958 2.99319 70.6266 3.26057C70.8128 3.31116 70.9846 3.36897 71.1564 3.41233L71.5861 3.55687C72.388 3.83148 73.0109 4.04828 73.4477 4.19281L73.8844 4.33734C74.1708 4.44574 74.5861 4.61196 75.1374 4.82153C75.3164 4.8938 75.5097 4.96606 75.7174 5.04556C76.1398 5.21177 76.6195 5.39243 77.1351 5.61646C77.7437 5.89107 78.4167 6.20182 79.1542 6.53424L79.7914 6.82331C80.1852 7.01843 80.486 7.21355 80.7079 7.35808L80.9943 7.5532C81.1232 7.63992 81.2592 7.73387 81.3953 7.82059C81.8177 8.11688 82.2545 8.43485 82.7127 8.78173C83.1352 9.0997 83.5934 9.45381 84.1089 9.88741L84.5027 10.2271C84.6459 10.3571 84.8679 10.5595 85.0397 10.7474C85.1471 10.8702 85.2259 10.957 85.2975 11.0437C85.3333 11.087 85.3691 11.1304 85.4049 11.1737L85.7271 11.564C86.0636 11.947 86.3787 12.4023 86.6865 12.8431C86.7868 12.9876 86.8942 13.1394 86.9944 13.2839C87.0374 13.349 87.0803 13.4212 87.1161 13.4863C87.4598 14.0572 87.8178 14.6498 88.1114 15.3146C88.8703 16.9406 89.2999 18.6678 89.3429 20.3155C89.4073 22.0715 89.0207 23.936 88.2403 25.562C87.5815 26.9856 86.6507 28.3298 85.4836 29.5583C84.517 30.5773 83.443 31.4951 82.2044 32.355C81.653 32.7381 81.0874 33.0994 80.5218 33.4318C80.2282 33.6053 79.949 33.757 79.6769 33.9015C79.3618 34.0678 79.1256 34.1906 78.7604 34.3568L78.7676 34.3713C79.1327 34.2051 79.369 34.0822 79.684 33.916C79.9633 33.7715 80.2354 33.6197 80.5361 33.4463C81.1017 33.1211 81.6674 32.7597 82.2187 32.3695C83.4574 31.5023 84.5314 30.5917 85.498 29.5656C86.6722 28.337 87.603 26.9856 88.2617 25.562C89.0493 23.9577 89.436 22.0932 89.3715 20.3371ZM2.01212 52.9582C2.88564 55.2924 4.05273 57.4893 5.48473 59.4694C6.95254 61.5073 8.65662 63.2706 10.5469 64.7015C14.0911 67.4332 18.6019 69.1314 23.2487 69.4855C24.2153 69.5434 25.096 69.565 25.9409 69.565C27.0364 69.565 28.0674 69.5289 29.1271 69.4928C31.0961 69.4133 32.8575 69.2904 34.4971 69.1025C37.8767 68.734 41.0271 68.1125 43.8624 67.267C46.1608 66.5949 48.4234 65.7494 50.779 64.6943C52.7266 63.7909 54.1442 63.0466 54.9891 62.5841C55.1753 62.4829 55.3328 62.389 55.4832 62.3095C55.3042 62.4107 55.1037 62.5263 54.8746 62.6564C53.4211 63.4657 51.9891 64.1956 50.4998 64.8894C48.3518 65.8939 46.0319 66.7683 43.6118 67.491C40.934 68.3004 37.9554 68.9074 34.7692 69.2976C31.7262 69.6662 28.5257 69.8541 25.2392 69.8541C25.1533 69.8541 25.0674 69.8541 24.9815 69.8541C23.2058 69.8469 21.3657 69.6373 19.5112 69.2471C17.5995 68.7918 15.831 68.1703 14.2629 67.4043C12.5946 66.566 11.0552 65.5759 9.6805 64.4486C8.29146 63.2706 7.07426 62.0276 6.06469 60.7485C4.23173 58.4216 2.7854 55.7694 1.76152 52.8643C1.76152 52.8643 1.69708 52.6691 1.57536 52.3006C1.55388 52.1705 1.51092 52.026 1.45364 51.867C1.34624 51.549 1.21736 51.1443 1.1028 50.6746C0.823559 49.6773 0.315197 47.5671 0.0932365 44.7054C-0.0356439 43.0432 -0.00700376 41.3378 0.143357 39.654C-0.186004 44.2212 0.444077 48.7957 2.01212 52.9582ZM0.415437 37.3053C0.436918 37.1102 0.487038 36.8789 0.537158 36.626C0.479878 36.944 0.422597 37.2619 0.372477 37.5871C0.386797 37.5004 0.401117 37.4137 0.415437 37.3053ZM0.952439 34.6893C0.930959 34.7543 0.923799 34.8193 0.902319 34.8771C0.923799 34.8193 0.938119 34.7543 0.952439 34.6893ZM1.53956 32.673C1.41784 33.0127 1.3176 33.3451 1.22452 33.6631C1.40352 33.0416 1.61116 32.4273 1.82596 31.813C1.72572 32.1093 1.62548 32.3984 1.53956 32.673ZM20.2129 10.957C18.1508 12.2794 16.0959 13.797 14.1054 15.4519C10.4323 18.5377 7.28906 22.0137 5.02649 25.4897C4.84749 25.7716 4.67565 26.0462 4.50381 26.3136L4.23173 26.7472C4.05273 27.0507 3.88805 27.3542 3.72337 27.6577C3.65177 27.7734 3.58017 27.8962 3.51573 28.0191C3.32957 28.3443 3.17205 28.6695 3.02169 28.9874C2.97873 29.0814 2.93576 29.1681 2.8928 29.262C2.84268 29.3704 2.79256 29.4861 2.73528 29.5945C2.59208 29.8908 2.4632 30.1726 2.3558 30.4617C2.18396 30.8953 2.02644 31.2783 1.89756 31.6324C2.54912 29.8691 3.35821 28.1491 4.32481 26.5376C8.20554 20.1492 13.6257 15.5097 17.4921 12.7419C21.4731 9.86573 25.0029 8.10965 26.707 7.30749C24.4588 8.4204 22.275 9.6417 20.2129 10.957Z" fill="#EE6C4D"/>
<path d="M79.5908 12.7204L79.6051 12.7276L79.6122 12.7204L79.5979 12.7132C79.4977 12.6337 79.3616 12.5253 79.0752 12.3085C78.9249 12.2001 78.7387 12.0628 78.4881 11.8821C78.3449 11.7809 77.9225 11.4846 77.6575 11.3473C75.9033 10.4729 71.2493 8.14593 64.9342 6.80177C61.5761 6.07911 58.1393 5.68164 54.7025 5.6166C54.3445 5.60937 53.9865 5.60938 53.6214 5.60938C50.3349 5.60938 46.8981 5.92012 43.626 6.50548C40.2178 7.09806 36.7309 8.05921 33.2654 9.36723C30.3441 10.4657 27.4658 11.8098 24.9383 13.2479C22.8977 14.4187 20.986 15.64 19.5468 16.7023C19.0528 17.0419 18.6733 17.3382 18.3654 17.5839C18.2795 17.649 18.2007 17.714 18.122 17.7718L17.6279 18.1548L17.6351 18.1693L18.1291 17.7863C18.2007 17.7285 18.2795 17.6706 18.3726 17.5984C18.6805 17.3599 19.0599 17.0564 19.554 16.724C20.9931 15.6689 22.9049 14.4403 24.9455 13.2696C27.4658 11.8315 30.3441 10.4946 33.2726 9.38891C36.738 8.08089 40.225 7.11974 43.6331 6.52716C47.2633 5.86231 51.0939 5.55156 54.7025 5.63105C58.1322 5.69609 61.5761 6.09356 64.927 6.81622C71.2422 8.15315 75.8962 10.4801 77.6432 11.3618C77.9082 11.4991 78.3306 11.7954 78.4738 11.8966C78.7244 12.0772 78.9106 12.2145 79.0609 12.3229C79.3545 12.5325 79.4905 12.6409 79.5908 12.7204Z" fill="#EE6C4D"/>
<mask id="mask0_290_1730" style="mask-type:alpha" maskUnits="userSpaceOnUse" x="22" y="23" width="68" height="52">
<path d="M76.9988 66.096L25.0171 74.6596L22.4609 58.8693L58.8553 24.1815L89.6076 23.3721L76.9988 66.096Z" fill="url(#paint0_linear_290_1730)"/>
</mask>
<g mask="url(#mask0_290_1730)">
<path d="M68.9724 33.0059C68.9868 32.9336 69.0082 32.8614 69.0297 32.7891C69.0727 32.6373 69.0798 32.4711 69.0942 32.3121L69.13 31.9436C69.1371 31.799 69.1586 31.6545 69.1514 31.51C69.1514 30.3537 68.8507 29.2553 68.3996 28.3013C68.1705 27.8172 67.8984 27.3691 67.5691 26.9427C67.2469 26.5091 66.8817 26.1117 66.3662 25.6853C66.2158 25.5697 66.0655 25.454 65.7576 25.2878C65.6717 25.2445 65.6144 25.2156 65.4998 25.165C65.3638 25.1144 65.2277 25.0638 65.0845 25.0277C65.0416 25.0132 64.8697 24.9771 64.748 24.9699C64.6191 24.9554 64.4831 24.9482 64.3542 24.9482C64.2683 24.941 63.9819 24.9771 63.7743 25.0349C63.5523 25.0927 63.3447 25.1794 63.1442 25.2878C62.9222 25.4179 62.7074 25.5841 62.5284 25.7792C62.4353 25.8732 62.3566 25.9816 62.285 26.0828C62.2349 26.155 62.1919 26.2345 62.1489 26.314C62.063 26.473 61.9914 26.6392 61.9341 26.8127C61.8697 27.015 61.8768 27.0511 61.8482 27.1595C61.8339 27.2535 61.8196 27.3547 61.8124 27.4486L61.8053 27.5931V27.6799C61.8053 27.7883 61.8124 27.9039 61.8267 28.0123C61.8482 28.2002 61.8769 28.3158 61.9055 28.4603L61.9914 28.7638C62.106 29.1035 62.2205 29.3564 62.3279 29.5877L62.6 30.1297C62.9007 30.7006 63.1513 31.3004 63.3948 31.9002C63.5022 32.1893 63.6096 32.4783 63.7027 32.7746C63.538 33.0203 63.3303 33.2733 63.0368 33.519C63.0368 33.519 62.9294 33.6346 62.7432 33.837C62.4926 34.0176 62.2205 34.3211 61.7551 34.6247C61.526 34.7764 61.2897 34.9499 61.0105 35.1233C60.7098 35.2967 60.3876 35.4774 60.0582 35.6725C59.3995 36.07 58.6692 36.4024 57.9532 36.771C56.4997 37.4503 55.0104 37.9706 53.9077 38.2886C52.8051 38.5921 52.1106 38.7222 52.2466 38.7366C49.7048 39.3509 47.5282 39.3292 46.9983 39.6255C46.6976 39.7628 46.7835 40.1314 47.5998 40.5722C48.4089 41.0058 49.9411 41.4972 52.354 41.5261C55.218 41.6634 58.6477 40.8974 61.2181 39.9724C61.8554 39.7267 62.4497 39.4882 62.9867 39.2786C63.5308 39.0474 64.0392 38.7727 64.4545 38.5776C64.5475 38.527 64.612 38.4837 64.6979 38.4331C64.7051 38.7872 64.7051 39.1413 64.6907 39.4882C64.6335 40.7745 64.4903 42.0681 64.1609 43.3255C64.032 43.9615 63.7957 44.5757 63.6167 45.1972L63.2587 46.115L63.0797 46.5703L62.8578 46.9967C61.8267 49.3381 60.1871 51.4338 58.261 53.2549C56.3207 55.0688 54.1297 56.6876 51.7096 57.9812C46.9052 60.6117 41.972 62.3822 36.4874 63.3506C35.8359 63.4806 35.0196 63.6179 34.3609 63.6974L32.1341 63.9721C30.8167 64.066 29.936 64.2394 28.6114 64.2539C28.504 64.2756 27.8166 64.3551 27.7737 64.3984C26.5493 65.533 26.2772 66.5375 26.492 67.3541C26.7068 68.1635 27.4085 68.7778 27.9956 69.1102C28.1675 69.2258 28.7976 69.1825 28.9264 69.1752C30.3656 69.1536 31.2176 69.0379 32.6496 68.9295L34.7762 68.626C35.4922 68.5393 36.1867 68.5827 36.8955 68.4453C42.7453 67.4119 48.4948 65.4174 53.8433 62.5556C56.5068 61.1103 59.0415 59.3398 61.347 57.2513C63.6669 55.1772 65.6502 52.5973 67.0893 49.7067C68.55 46.8449 69.3949 43.7158 69.6312 40.4855C69.8173 37.985 69.581 35.4413 68.9724 33.0059Z" fill="white"/>
</g>
<defs>
<linearGradient id="paint0_linear_290_1730" x1="52.1367" y1="51.2048" x2="31.2526" y2="59.081" gradientUnits="userSpaceOnUse">
<stop stop-color="white"/>
<stop offset="0.0272" stop-color="#F7F7F7"/>
<stop offset="0.5158" stop-color="#747474"/>
<stop offset="0.849" stop-color="#212121"/>
<stop offset="1"/>
</linearGradient>
</defs>
</svg>
