<svg width="77" height="78" viewBox="0 0 77 78" fill="none" xmlns="http://www.w3.org/2000/svg">
<g opacity="0.2">
<path fill-rule="evenodd" clip-rule="evenodd" d="M69 4.09375C69 6.30289 70.7909 8.09375 73 8.09375C75.2091 8.09375 77 6.30289 77 4.09375C77 1.88461 75.2091 0.0937499 73 0.0937498C70.7909 0.0937497 69 1.88461 69 4.09375Z" fill="#4D4354"/>
<path fill-rule="evenodd" clip-rule="evenodd" d="M69 27.0937C69 29.3029 70.7909 31.0937 73 31.0937C75.2091 31.0937 77 29.3029 77 27.0938C77 24.8846 75.2091 23.0937 73 23.0937C70.7909 23.0937 69 24.8846 69 27.0937Z" fill="#4D4354"/>
<path fill-rule="evenodd" clip-rule="evenodd" d="M69 50.0937C69 52.3029 70.7909 54.0937 73 54.0937C75.2091 54.0937 77 52.3029 77 50.0938C77 47.8846 75.2091 46.0937 73 46.0937C70.7909 46.0937 69 47.8846 69 50.0937Z" fill="#4D4354"/>
<path fill-rule="evenodd" clip-rule="evenodd" d="M69 73.0937C69 75.3029 70.7909 77.0937 73 77.0937C75.2091 77.0937 77 75.3029 77 73.0938C77 70.8846 75.2091 69.0937 73 69.0937C70.7909 69.0937 69 70.8846 69 73.0937Z" fill="#4D4354"/>
<path fill-rule="evenodd" clip-rule="evenodd" d="M46 4.09375C46 6.30289 47.7909 8.09375 50 8.09375C52.2091 8.09375 54 6.30289 54 4.09375C54 1.88461 52.2091 0.0937499 50 0.0937498C47.7909 0.0937497 46 1.88461 46 4.09375Z" fill="#4D4354"/>
<path fill-rule="evenodd" clip-rule="evenodd" d="M46 27.0937C46 29.3029 47.7909 31.0937 50 31.0937C52.2091 31.0937 54 29.3029 54 27.0938C54 24.8846 52.2091 23.0937 50 23.0937C47.7909 23.0937 46 24.8846 46 27.0937Z" fill="#4D4354"/>
<path fill-rule="evenodd" clip-rule="evenodd" d="M46 50.0937C46 52.3029 47.7909 54.0937 50 54.0937C52.2091 54.0937 54 52.3029 54 50.0938C54 47.8846 52.2091 46.0937 50 46.0937C47.7909 46.0937 46 47.8846 46 50.0937Z" fill="#4D4354"/>
<path fill-rule="evenodd" clip-rule="evenodd" d="M46 73.0937C46 75.3029 47.7909 77.0937 50 77.0937C52.2091 77.0937 54 75.3029 54 73.0938C54 70.8846 52.2091 69.0937 50 69.0937C47.7909 69.0937 46 70.8846 46 73.0937Z" fill="#4D4354"/>
<path fill-rule="evenodd" clip-rule="evenodd" d="M23 4.09375C23 6.30289 24.7909 8.09375 27 8.09375C29.2091 8.09375 31 6.30289 31 4.09375C31 1.88461 29.2091 0.0937499 27 0.0937498C24.7909 0.0937497 23 1.88461 23 4.09375Z" fill="#4D4354"/>
<path fill-rule="evenodd" clip-rule="evenodd" d="M23 27.0937C23 29.3029 24.7909 31.0937 27 31.0937C29.2091 31.0937 31 29.3029 31 27.0938C31 24.8846 29.2091 23.0937 27 23.0937C24.7909 23.0937 23 24.8846 23 27.0937Z" fill="#4D4354"/>
<path fill-rule="evenodd" clip-rule="evenodd" d="M23 50.0937C23 52.3029 24.7909 54.0937 27 54.0937C29.2091 54.0937 31 52.3029 31 50.0938C31 47.8846 29.2091 46.0937 27 46.0937C24.7909 46.0937 23 47.8846 23 50.0937Z" fill="#4D4354"/>
<path fill-rule="evenodd" clip-rule="evenodd" d="M23 73.0937C23 75.3029 24.7909 77.0937 27 77.0937C29.2091 77.0937 31 75.3029 31 73.0938C31 70.8846 29.2091 69.0937 27 69.0937C24.7909 69.0937 23 70.8846 23 73.0937Z" fill="#4D4354"/>
<path fill-rule="evenodd" clip-rule="evenodd" d="M-1.74846e-07 4.09375C-2.7141e-07 6.30289 1.79086 8.09375 4 8.09375C6.20914 8.09375 8 6.30289 8 4.09375C8 1.88461 6.20914 0.0937499 4 0.0937498C1.79086 0.0937497 -7.8281e-08 1.88461 -1.74846e-07 4.09375Z" fill="#4D4354"/>
<path fill-rule="evenodd" clip-rule="evenodd" d="M-1.74846e-07 27.0937C-2.7141e-07 29.3029 1.79086 31.0937 4 31.0937C6.20914 31.0937 8 29.3029 8 27.0938C8 24.8846 6.20914 23.0937 4 23.0937C1.79086 23.0937 -7.8281e-08 24.8846 -1.74846e-07 27.0937Z" fill="#4D4354"/>
<path fill-rule="evenodd" clip-rule="evenodd" d="M-1.74846e-07 50.0937C-2.7141e-07 52.3029 1.79086 54.0937 4 54.0937C6.20914 54.0937 8 52.3029 8 50.0938C8 47.8846 6.20914 46.0937 4 46.0937C1.79086 46.0937 -7.8281e-08 47.8846 -1.74846e-07 50.0937Z" fill="#4D4354"/>
<path fill-rule="evenodd" clip-rule="evenodd" d="M-1.74846e-07 73.0937C-2.7141e-07 75.3029 1.79086 77.0937 4 77.0937C6.20914 77.0937 8 75.3029 8 73.0938C8 70.8846 6.20914 69.0937 4 69.0937C1.79086 69.0937 -7.8281e-08 70.8846 -1.74846e-07 73.0937Z" fill="#4D4354"/>
</g>
</svg>
