<svg width="14" height="12" viewBox="0 0 14 12" fill="#4D4354" xmlns="http://www.w3.org/2000/svg">
<path fill-rule="evenodd" clip-rule="evenodd" d="M7.00003 12C6.8227 12 6.65336 11.93 6.52803 11.804L1.35003 6.61729C-0.00730214 5.25729 -0.00730214 3.04463 1.35003 1.68463C2.00536 1.02863 2.8807 0.666626 3.81336 0.666626C4.74603 0.666626 5.62136 1.02863 6.2767 1.68463L7.00003 2.40929L7.7227 1.68529C8.3787 1.02863 9.25403 0.666626 10.1867 0.666626C11.1194 0.666626 11.9947 1.02863 12.65 1.68463C14.0074 3.04463 14.0074 5.25729 12.6507 6.61729L7.47203 11.8046C7.3467 11.93 7.17736 12 7.00003 12Z"/>
</svg>
