<svg width="77" height="77" viewBox="0 0 77 77" fill="none" xmlns="http://www.w3.org/2000/svg">
<g filter="url(#filter0_b_163_6431)">
<path d="M62.8345 38.6672C62.8345 52.2909 51.7909 63.3345 38.1672 63.3345C24.5435 63.3345 13.5 52.2909 13.5 38.6672C13.5 25.046 24.5435 14 38.1672 14C51.7909 14 62.8345 25.046 62.8345 38.6672Z" fill="url(#paint0_linear_163_6431)"/>
</g>
<g filter="url(#filter1_f_163_6431)">
<path d="M38.2318 22.6119C29.4724 22.6119 22.3633 29.7226 22.3633 38.4804C22.3633 47.2414 29.4724 54.3489 38.2318 54.3489C47.0071 54.3489 54.1003 47.2414 54.1003 38.4804C54.1003 29.7226 47.0071 22.6119 38.2318 22.6119Z" fill="#FF8C22"/>
</g>
<g filter="url(#filter2_b_163_6431)">
<path d="M72.5005 48.3328C72.5005 61.9565 61.457 73 47.8333 73C34.2095 73 23.166 61.9565 23.166 48.3328C23.166 34.7115 34.2095 23.6655 47.8333 23.6655C61.457 23.6655 72.5005 34.7115 72.5005 48.3328Z" fill="#FFE895" fill-opacity="0.4"/>
<path d="M47.8333 73.5C61.7331 73.5 73.0005 62.2326 73.0005 48.3328C73.0005 34.4354 61.7331 23.1655 47.8333 23.1655C33.9334 23.1655 22.666 34.4354 22.666 48.3328C22.666 62.2326 33.9334 73.5 47.8333 73.5Z" stroke="url(#paint1_linear_163_6431)" stroke-linecap="round" stroke-linejoin="round"/>
</g>
<g filter="url(#filter3_bd_163_6431)">
<mask id="path-5-inside-1_163_6431" fill="white">
<path d="M57.3541 39.6005L53.358 52.2302C53.21 52.7482 52.7906 53.1675 52.2726 53.318L39.6923 57.2623C38.8537 57.5361 38.0396 56.7196 38.311 55.8809L42.2577 43.2266C42.4057 42.7086 42.8251 42.3139 43.3431 42.1413L55.9727 38.1945C56.8361 37.9232 57.6254 38.7372 57.3541 39.6005Z"/>
</mask>
<path d="M57.3541 39.6005L53.358 52.2302C53.21 52.7482 52.7906 53.1675 52.2726 53.318L39.6923 57.2623C38.8537 57.5361 38.0396 56.7196 38.311 55.8809L42.2577 43.2266C42.4057 42.7086 42.8251 42.3139 43.3431 42.1413L55.9727 38.1945C56.8361 37.9232 57.6254 38.7372 57.3541 39.6005Z" fill="url(#paint2_linear_163_6431)"/>
<path d="M53.358 52.2302L52.9765 52.1095L52.9734 52.1203L53.358 52.2302ZM52.2726 53.318L52.161 52.9338L52.153 52.9363L52.2726 53.318ZM39.6923 57.2623L39.5727 56.8806L39.5682 56.882L39.6923 57.2623ZM38.311 55.8809L38.6916 56.0041L38.6928 56L38.311 55.8809ZM42.2577 43.2266L42.6397 43.3458L42.6423 43.3365L42.2577 43.2266ZM43.3431 42.1413L43.2238 41.7594L43.2166 41.7618L43.3431 42.1413ZM55.9727 38.1945L56.092 38.5763L56.0926 38.5761L55.9727 38.1945ZM56.9727 39.4799L52.9766 52.1095L53.7394 52.3508L57.7354 39.7212L56.9727 39.4799ZM52.9734 52.1203C52.8634 52.5052 52.5478 52.8215 52.1611 52.9339L52.3842 53.7021C53.0335 53.5135 53.5566 52.9912 53.7426 52.3401L52.9734 52.1203ZM52.153 52.9363L39.5727 56.8806L39.812 57.644L52.3923 53.6997L52.153 52.9363ZM39.5682 56.882C39.0423 57.0537 38.5201 56.5339 38.6916 56.0041L37.9304 55.7578C37.5591 56.9053 38.665 58.0185 39.8165 57.6425L39.5682 56.882ZM38.6928 56L42.6396 43.3457L41.8759 43.1075L37.9291 55.7618L38.6928 56ZM42.6423 43.3365C42.7492 42.9623 43.0592 42.6575 43.4696 42.5207L43.2166 41.7618C42.591 41.9703 42.0622 42.4549 41.8731 43.1167L42.6423 43.3365ZM43.4624 42.5231L56.092 38.5763L55.8534 37.8127L43.2238 41.7595L43.4624 42.5231ZM56.0926 38.5761C56.6353 38.4056 57.1508 38.9133 56.9725 39.4806L57.7357 39.7205C58.1001 38.5611 57.0369 37.4408 55.8528 37.8129L56.0926 38.5761Z" fill="url(#paint3_linear_163_6431)" mask="url(#path-5-inside-1_163_6431)"/>
</g>
<defs>
<filter id="filter0_b_163_6431" x="0.5" y="1" width="75.334" height="75.3345" filterUnits="userSpaceOnUse" color-interpolation-filters="sRGB">
<feFlood flood-opacity="0" result="BackgroundImageFix"/>
<feGaussianBlur in="BackgroundImage" stdDeviation="6.5"/>
<feComposite in2="SourceAlpha" operator="in" result="effect1_backgroundBlur_163_6431"/>
<feBlend mode="normal" in="SourceGraphic" in2="effect1_backgroundBlur_163_6431" result="shape"/>
</filter>
<filter id="filter1_f_163_6431" x="0.363281" y="0.611908" width="75.7363" height="75.737" filterUnits="userSpaceOnUse" color-interpolation-filters="sRGB">
<feFlood flood-opacity="0" result="BackgroundImageFix"/>
<feBlend mode="normal" in="SourceGraphic" in2="BackgroundImageFix" result="shape"/>
<feGaussianBlur stdDeviation="11" result="effect1_foregroundBlur_163_6431"/>
</filter>
<filter id="filter2_b_163_6431" x="7.16602" y="7.66553" width="81.334" height="81.3345" filterUnits="userSpaceOnUse" color-interpolation-filters="sRGB">
<feFlood flood-opacity="0" result="BackgroundImageFix"/>
<feGaussianBlur in="BackgroundImage" stdDeviation="7.5"/>
<feComposite in2="SourceAlpha" operator="in" result="effect1_backgroundBlur_163_6431"/>
<feBlend mode="normal" in="SourceGraphic" in2="effect1_backgroundBlur_163_6431" result="shape"/>
</filter>
<filter id="filter3_bd_163_6431" x="23.2578" y="23.1414" width="49.1504" height="49.1748" filterUnits="userSpaceOnUse" color-interpolation-filters="sRGB">
<feFlood flood-opacity="0" result="BackgroundImageFix"/>
<feGaussianBlur in="BackgroundImage" stdDeviation="7.5"/>
<feComposite in2="SourceAlpha" operator="in" result="effect1_backgroundBlur_163_6431"/>
<feColorMatrix in="SourceAlpha" type="matrix" values="0 0 0 0 0 0 0 0 0 0 0 0 0 0 0 0 0 0 127 0" result="hardAlpha"/>
<feOffset dx="5" dy="5"/>
<feGaussianBlur stdDeviation="5"/>
<feColorMatrix type="matrix" values="0 0 0 0 1 0 0 0 0 0.785333 0 0 0 0 0.368627 0 0 0 0.3 0"/>
<feBlend mode="normal" in2="effect1_backgroundBlur_163_6431" result="effect2_dropShadow_163_6431"/>
<feBlend mode="normal" in="SourceGraphic" in2="effect2_dropShadow_163_6431" result="shape"/>
</filter>
<linearGradient id="paint0_linear_163_6431" x1="41.7992" y1="41.9709" x2="-1.55047" y2="63.0485" gradientUnits="userSpaceOnUse">
<stop stop-color="#FFB18F"/>
<stop offset="1" stop-color="#F28B2C"/>
</linearGradient>
<linearGradient id="paint1_linear_163_6431" x1="31.0193" y1="29.4131" x2="62.4894" y2="68.3896" gradientUnits="userSpaceOnUse">
<stop stop-color="white" stop-opacity="0.25"/>
<stop offset="1" stop-color="white" stop-opacity="0"/>
</linearGradient>
<linearGradient id="paint2_linear_163_6431" x1="48.0584" y1="41.4863" x2="44.6524" y2="56.1909" gradientUnits="userSpaceOnUse">
<stop stop-color="white"/>
<stop offset="1" stop-color="white" stop-opacity="0.2"/>
</linearGradient>
<linearGradient id="paint3_linear_163_6431" x1="41.3063" y1="40.3753" x2="53.541" y2="55.5092" gradientUnits="userSpaceOnUse">
<stop stop-color="white" stop-opacity="0.25"/>
<stop offset="1" stop-color="white" stop-opacity="0"/>
</linearGradient>
</defs>
</svg>
