<svg width="13" height="12" viewBox="0 0 13 12" fill="#4D4354" xmlns="http://www.w3.org/2000/svg">
<path fill-rule="evenodd" clip-rule="evenodd" d="M11.0007 8.00037C10.456 8.00037 9.96265 8.22037 9.60132 8.57437L4.31132 6.2237C4.31998 6.1497 4.33398 6.07637 4.33398 6.00037C4.33398 5.92437 4.31998 5.85103 4.31132 5.77703L9.60132 3.42637C9.96265 3.78037 10.456 4.00037 11.0007 4.00037C12.1033 4.00037 13.0007 3.10303 13.0007 2.00037C13.0007 0.8977 12.1033 0.000366211 11.0007 0.000366211C9.89798 0.000366211 9.00065 0.8977 9.00065 2.00037C9.00065 2.07637 9.01465 2.1497 9.02332 2.2237L3.73332 4.57437C3.37198 4.22037 2.87865 4.00037 2.33398 4.00037C1.23132 4.00037 0.333984 4.8977 0.333984 6.00037C0.333984 7.10303 1.23132 8.00037 2.33398 8.00037C2.87865 8.00037 3.37198 7.78037 3.73332 7.42637L9.02332 9.77703C9.01465 9.85103 9.00065 9.92437 9.00065 10.0004C9.00065 11.103 9.89798 12.0004 11.0007 12.0004C12.1033 12.0004 13.0007 11.103 13.0007 10.0004C13.0007 8.8977 12.1033 8.00037 11.0007 8.00037Z"/>
</svg>
