<svg width="32" height="32" viewBox="0 0 32 32" fill="none" xmlns="http://www.w3.org/2000/svg">
<path fill-rule="evenodd" clip-rule="evenodd" d="M28.1184 16.0758C28.1184 22.5948 22.7196 27.8789 16.0591 27.8789C9.39854 27.8789 4 22.5948 4 16.0758C4 9.55704 9.39854 4.27295 16.0591 4.27295C22.7196 4.27295 28.1184 9.55704 28.1184 16.0758Z" fill="#FBC7AC"/>
<path fill-rule="evenodd" clip-rule="evenodd" d="M24.0294 14.5542C24.1534 14.6298 24.3183 14.5439 24.3183 14.4001V14.3966C24.3183 13.5356 23.6055 12.8374 22.7256 12.8374C21.8459 12.8374 21.1328 13.5356 21.1328 14.3966V14.4001C21.1328 14.5439 21.2978 14.6298 21.4229 14.5542C21.8016 14.3251 22.2474 14.1929 22.7256 14.1929C23.2037 14.1929 23.6498 14.3251 24.0294 14.5542Z" fill="#AF665A"/>
<path fill-rule="evenodd" clip-rule="evenodd" d="M10.6934 14.5542C10.818 14.6298 10.9827 14.5439 10.9835 14.4001V14.3966C10.9835 13.5356 10.2699 12.8374 9.38963 12.8374C8.50994 12.8374 7.79688 13.5356 7.79688 14.3966V14.4001C7.79715 14.5439 7.96183 14.6298 8.08695 14.5542C8.46563 14.3251 8.91147 14.1929 9.38963 14.1929C9.86835 14.1929 10.3145 14.3251 10.6934 14.5542Z" fill="#AF665A"/>
<path fill-rule="evenodd" clip-rule="evenodd" d="M9.893 17.8639C9.5079 17.9916 9.28833 18.4023 9.43796 18.7729C10.3366 20.9973 12.9687 22.8712 16.0595 22.8712C19.1491 22.8712 21.7821 20.9973 22.6807 18.7729C22.8295 18.4023 22.6105 17.9916 22.2257 17.8639C18.5007 16.6306 13.6177 16.6306 9.893 17.8639Z" fill="#AF665A"/>
</svg>
