<svg width="32" height="32" viewBox="0 0 32 32" fill="none" xmlns="http://www.w3.org/2000/svg">
<path d="M26.7831 12.8167L26.6888 8.9551C26.6452 8.09354 27.2865 7.34987 28.1449 7.26611L29.4681 15.6165C29.4843 16.6647 29.1623 17.6899 28.5502 18.5407L25.311 22.461C25.0128 22.8218 24.8657 23.2837 24.9005 23.7503L24.9874 24.908L20.4773 22.7598L20.4946 22.7232C20.1371 20.9644 20.7923 19.1535 22.1926 18.0308L22.4494 17.8244C22.8523 17.5016 23.1765 17.092 23.3986 16.6261L24.6367 14.0266C25.0251 13.2108 25.884 12.7267 26.7831 12.8167Z" fill="#FDD4BB"/>
<path d="M21.5746 5.72217V13.011L16.2344 14.7332V7.44439L21.5746 5.72217Z" fill="#FEB644"/>
<path d="M16.2345 7.44445L10.8945 5.72222L16.2345 4L21.5748 5.72222L16.2345 7.44445Z" fill="#FFBC53"/>
<path d="M16.2345 7.44439V14.7332L10.8945 13.011V5.72217L16.2345 7.44439Z" fill="#FFA921"/>
<path d="M5.68541 12.8167C6.58469 12.7267 7.44356 13.2108 7.83179 14.0266L9.07013 16.6261C9.29197 17.092 9.61643 17.5016 10.019 17.8244L10.2759 18.0308C11.6761 19.1535 12.3316 20.9644 11.9741 22.7232L11.9914 22.7598L7.48128 24.908L7.56795 23.7503C7.60276 23.2837 7.45568 22.8218 7.15749 22.461L3.9185 18.5407C3.3064 17.6899 2.98441 16.6647 3.00058 15.6165L4.3238 7.26611C5.15055 7.34695 5.78129 8.04145 5.78196 8.87225C5.78196 8.89987 5.78084 8.92749 5.77971 8.9551L5.68541 12.8167Z" fill="#FDD4BB"/>
<path d="M20.4914 23.1832C20.273 23.183 20.0848 23.0292 20.0412 22.8149C19.6443 20.887 20.3632 18.8996 21.9018 17.6721L22.1591 17.4657C22.5071 17.1857 22.7878 16.8312 22.9805 16.4281L24.2184 13.8288C24.8372 12.5332 26.3879 11.9831 27.6846 12.599C27.9138 12.7084 28.0113 12.9828 27.9019 13.212L25.8672 17.485C25.7571 17.7127 25.4836 17.8088 25.2553 17.7001C25.0269 17.5912 24.9293 17.3184 25.0368 17.0894L26.8466 13.2895C26.1061 13.1656 25.3729 13.5468 25.0492 14.2243L23.811 16.8235C23.5587 17.3519 23.1909 17.8165 22.7346 18.1834L22.4773 18.3895C21.2082 19.4022 20.6152 21.0415 20.9425 22.6317C20.9699 22.7671 20.9351 22.9077 20.8478 23.0146C20.7604 23.1217 20.6295 23.1836 20.4914 23.1836V23.1832Z" fill="#F9B5A1"/>
<path d="M11.975 23.183C11.8369 23.1832 11.706 23.121 11.6187 23.0141C11.5311 22.9072 11.4965 22.7667 11.5239 22.6313C11.8513 21.0411 11.2583 19.4017 9.98918 18.389L9.73186 18.1827C9.27559 17.816 8.9078 17.3514 8.65541 16.8231L7.4173 14.2238C7.09374 13.5461 6.36039 13.1649 5.61985 13.2891L7.42965 17.0889C7.5372 17.318 7.43953 17.5908 7.21117 17.6997C6.98259 17.8084 6.70932 17.7123 6.5993 17.4846L4.56429 13.212C4.45517 12.9828 4.55239 12.7082 4.78187 12.599C6.07859 11.9831 7.62926 12.5332 8.24787 13.8288L9.48599 16.4281C9.67864 16.8312 9.95932 17.1857 10.3076 17.4657L10.5649 17.6719C12.1032 18.8996 12.8224 20.887 12.4254 22.8149C12.3819 23.0292 12.1935 23.183 11.975 23.183Z" fill="#F9B5A1"/>
<path d="M24.9838 24.9083L25.4913 25.1503L24.1341 28.0002L17.8789 25.0217L19.2367 22.1709L20.4737 22.7601L24.9838 24.9083Z" fill="#F58B71"/>
<path d="M7.48034 24.9083L11.9905 22.7601L13.2274 22.1709L14.585 25.0217L8.32978 28.0002L6.97266 25.1503L7.48034 24.9083Z" fill="#F58B71"/>
</svg>
