<svg width="503" height="578" viewBox="0 0 503 578" fill="none" xmlns="http://www.w3.org/2000/svg">
<path d="M327.907 315.179C338.428 378.192 295.872 437.803 232.856 448.325C169.84 458.847 110.226 416.294 99.7052 353.282C89.1841 290.269 131.739 230.657 194.756 220.136C257.772 209.614 317.385 252.166 327.907 315.179Z" stroke="#224338" stroke-width="5"/>
<path d="M332.422 402.2C340.148 448.473 308.898 492.249 262.622 499.975C216.347 507.702 172.57 476.454 164.844 430.181C157.117 383.908 188.368 340.132 234.643 332.406C280.919 324.679 324.696 355.927 332.422 402.2Z" stroke="#EE6C4D" stroke-width="2"/>
<ellipse cx="473.217" cy="272.336" rx="236.36" ry="236.348" transform="rotate(-9.47918 473.217 272.336)" fill="#FFB125"/>
<path d="M169.37 262.206C175.774 300.562 149.871 336.847 111.514 343.251C73.1561 349.656 36.8697 323.755 30.4656 285.399C24.0614 247.044 49.9646 210.759 88.322 204.354C126.68 197.95 162.966 223.851 169.37 262.206Z" stroke="#224338" stroke-width="2"/>
</svg>
