<svg width="452" height="265" viewBox="0 0 452 265" fill="none" xmlns="http://www.w3.org/2000/svg">
<path d="M226.881 237.38C292.432 237.38 345.571 184.241 345.571 118.69C345.571 53.1393 292.432 0 226.881 0C161.331 0 108.191 53.1393 108.191 118.69C108.191 184.241 161.331 237.38 226.881 237.38Z" fill="#F7F4F2"/>
<path d="M287.782 202.83L274.912 192.64C273.052 191.16 270.412 191.16 268.552 192.64L250.562 206.89C248.702 208.37 246.062 208.37 244.202 206.89L226.202 192.64C224.342 191.16 221.702 191.16 219.842 192.64L201.842 206.89C199.982 208.37 197.342 208.37 195.482 206.89L177.472 192.64C175.612 191.16 172.972 191.16 171.112 192.64L158.232 202.84C154.872 205.5 149.922 203.11 149.922 198.82V186.59V96.1403C149.922 56.1803 182.322 23.7803 222.282 23.7803H223.742C263.702 23.7803 296.102 56.1803 296.102 96.1403V186.59V198.82C296.092 203.1 291.142 205.49 287.782 202.83Z" fill="#44A6FA"/>
<path d="M265.501 45.0496C265.171 45.0496 264.841 44.9396 264.571 44.7196C262.061 42.7196 259.391 40.8996 256.631 39.2996C255.911 38.8796 255.671 37.9696 256.091 37.2496C256.511 36.5296 257.431 36.2896 258.141 36.7096C261.021 38.3896 263.821 40.2896 266.441 42.3796C267.091 42.8996 267.191 43.8396 266.681 44.4896C266.381 44.8596 265.941 45.0496 265.501 45.0496Z" fill="white"/>
<path d="M253.571 37.4503C253.351 37.4503 253.121 37.4003 252.901 37.2903C252.231 36.9503 251.551 36.6303 250.861 36.3203C250.111 35.9803 249.771 35.0903 250.121 34.3303C250.461 33.5803 251.361 33.2403 252.111 33.5903C252.831 33.9203 253.541 34.2603 254.251 34.6103C254.991 34.9803 255.291 35.8803 254.921 36.6203C254.651 37.1503 254.121 37.4503 253.571 37.4503Z" fill="white"/>
<path d="M245.74 34.16C245.58 34.16 245.41 34.13 245.25 34.08C238.34 31.68 231.1 30.46 223.73 30.46C222.9 30.46 222.23 29.79 222.23 28.96C222.23 28.13 222.9 27.46 223.73 27.46C231.44 27.46 239.01 28.73 246.23 31.25C247.01 31.52 247.43 32.38 247.15 33.16C246.94 33.77 246.36 34.16 245.74 34.16Z" fill="white"/>
<path d="M162.841 194.93V182.7V92.2496C162.841 53.5597 193.211 21.9597 231.401 19.9897C230.141 19.9197 228.881 19.8896 227.601 19.8896H226.141C186.181 19.8896 153.781 52.2896 153.781 92.2496V182.7V194.93C153.781 199.21 158.731 201.61 162.091 198.95L163.651 197.72C163.151 196.94 162.841 195.99 162.841 194.93Z" fill="#2A90E8"/>
<path d="M202.351 117.3H202.191C197.771 117.3 194.191 113.72 194.191 109.3V80.4902C194.191 76.0702 197.771 72.4902 202.191 72.4902H202.351C206.771 72.4902 210.351 76.0702 210.351 80.4902V109.3C210.351 113.72 206.771 117.3 202.351 117.3Z" fill="white"/>
<path d="M202.351 118.8H202.191C196.951 118.8 192.691 114.54 192.691 109.3V80.4902C192.691 75.2502 196.951 70.9902 202.191 70.9902H202.351C207.591 70.9902 211.851 75.2502 211.851 80.4902V109.3C211.851 114.54 207.591 118.8 202.351 118.8ZM202.191 73.9902C198.611 73.9902 195.691 76.9102 195.691 80.4902V109.3C195.691 112.88 198.611 115.8 202.191 115.8H202.351C205.931 115.8 208.851 112.88 208.851 109.3V80.4902C208.851 76.9102 205.931 73.9902 202.351 73.9902H202.191Z" fill="#201429"/>
<path d="M198.602 101.26V88.5404C198.602 86.5304 200.232 84.9004 202.242 84.9004H202.312C204.322 84.9004 205.952 86.5304 205.952 88.5404V101.26C205.952 103.27 204.322 104.9 202.312 104.9H202.242C200.232 104.89 198.602 103.27 198.602 101.26Z" fill="#201429"/>
<path d="M251.572 117.3H251.412C246.992 117.3 243.412 113.72 243.412 109.3V80.4902C243.412 76.0702 246.992 72.4902 251.412 72.4902H251.572C255.992 72.4902 259.572 76.0702 259.572 80.4902V109.3C259.572 113.72 255.992 117.3 251.572 117.3Z" fill="white"/>
<path d="M251.572 118.8H251.412C246.172 118.8 241.912 114.54 241.912 109.3V80.4902C241.912 75.2502 246.172 70.9902 251.412 70.9902H251.572C256.812 70.9902 261.072 75.2502 261.072 80.4902V109.3C261.072 114.54 256.812 118.8 251.572 118.8ZM251.412 73.9902C247.832 73.9902 244.912 76.9102 244.912 80.4902V109.3C244.912 112.88 247.832 115.8 251.412 115.8H251.572C255.152 115.8 258.072 112.88 258.072 109.3V80.4902C258.072 76.9102 255.152 73.9902 251.572 73.9902H251.412Z" fill="#201429"/>
<path d="M247.822 101.26V88.5404C247.822 86.5304 249.452 84.9004 251.462 84.9004H251.532C253.542 84.9004 255.172 86.5304 255.172 88.5404V101.26C255.172 103.27 253.542 104.9 251.532 104.9H251.462C249.442 104.89 247.822 103.27 247.822 101.26Z" fill="#201429"/>
<path d="M251.872 88.3803C251.872 90.2103 250.392 91.6903 248.562 91.6903C246.732 91.6903 245.252 90.2103 245.252 88.3803C245.252 86.5503 246.732 85.0703 248.562 85.0703C250.402 85.0703 251.872 86.5503 251.872 88.3803Z" fill="white"/>
<path d="M202.272 88.3803C202.272 90.2103 200.792 91.6903 198.962 91.6903C197.132 91.6903 195.652 90.2103 195.652 88.3803C195.652 86.5503 197.132 85.0703 198.962 85.0703C200.792 85.0703 202.272 86.5503 202.272 88.3803Z" fill="white"/>
<path d="M255.162 140.78H198.602C197.772 140.78 197.102 140.11 197.102 139.28C197.102 138.45 197.772 137.78 198.602 137.78H255.162C255.992 137.78 256.662 138.45 256.662 139.28C256.662 140.11 255.992 140.78 255.162 140.78Z" fill="#201429"/>
<path d="M153.791 127.76C152.961 127.76 152.291 127.09 152.291 126.26V124.43C152.291 123.6 152.961 122.93 153.791 122.93C154.621 122.93 155.291 123.6 155.291 124.43V126.26C155.291 127.09 154.621 127.76 153.791 127.76Z" fill="#201429"/>
<path d="M202.531 205.62C201.081 205.62 199.631 205.14 198.421 204.18L180.411 189.93C179.091 188.88 177.241 188.88 175.911 189.93L163.031 200.12C161.021 201.71 158.341 202 156.031 200.89C153.721 199.77 152.291 197.49 152.291 194.93V133.16C152.291 132.33 152.961 131.66 153.791 131.66C154.621 131.66 155.291 132.33 155.291 133.16V194.93C155.291 196.35 156.051 197.57 157.341 198.19C158.621 198.81 160.051 198.65 161.171 197.77L174.051 187.57C176.471 185.65 179.851 185.65 182.271 187.57L200.281 201.82C201.601 202.87 203.451 202.87 204.781 201.82L222.781 187.57C225.201 185.65 228.581 185.65 231.001 187.57L249.001 201.82C250.331 202.87 252.181 202.87 253.501 201.82L271.491 187.57C273.911 185.65 277.291 185.65 279.711 187.57L292.581 197.76C293.701 198.64 295.131 198.8 296.411 198.18C297.691 197.56 298.461 196.34 298.461 194.92V92.2604C298.461 53.1904 266.671 21.4004 227.601 21.4004H226.141C187.071 21.4004 155.281 53.1904 155.281 92.2604V116.03C155.281 116.86 154.611 117.53 153.781 117.53C152.951 117.53 152.281 116.86 152.281 116.03V92.2604C152.281 51.5304 185.411 18.4004 226.141 18.4004H227.601C268.331 18.4004 301.461 51.5304 301.461 92.2604V194.93C301.461 197.49 300.031 199.78 297.721 200.89C295.411 202.01 292.731 201.71 290.721 200.12L277.851 189.93C276.521 188.88 274.671 188.88 273.351 189.93L255.361 204.18C252.941 206.1 249.561 206.1 247.131 204.18L229.131 189.93C227.801 188.88 225.951 188.88 224.631 189.93L206.631 204.18C205.431 205.14 203.981 205.62 202.531 205.62Z" fill="#201429"/>
<path d="M202.531 205.62C201.081 205.62 199.631 205.14 198.421 204.18L180.411 189.93C179.091 188.88 177.241 188.88 175.911 189.93L163.031 200.12C161.021 201.71 158.341 202 156.031 200.89C153.721 199.77 152.291 197.49 152.291 194.93V133.16C152.291 132.33 152.961 131.66 153.791 131.66C154.621 131.66 155.291 132.33 155.291 133.16V194.93C155.291 196.35 156.051 197.57 157.341 198.19C158.621 198.81 160.051 198.65 161.171 197.77L174.051 187.57C176.471 185.65 179.851 185.65 182.271 187.57L200.281 201.82C201.601 202.87 203.451 202.87 204.781 201.82L222.781 187.57C225.201 185.65 228.581 185.65 231.001 187.57L249.001 201.82C250.331 202.87 252.181 202.87 253.501 201.82L271.491 187.57C273.911 185.65 277.291 185.65 279.711 187.57L292.581 197.76C293.701 198.64 295.131 198.8 296.411 198.18C297.691 197.56 298.461 196.34 298.461 194.92V92.2604C298.461 53.1904 266.671 21.4004 227.601 21.4004H226.141C187.071 21.4004 155.281 53.1904 155.281 92.2604V116.03C155.281 116.86 154.611 117.53 153.781 117.53C152.951 117.53 152.281 116.86 152.281 116.03V92.2604C152.281 51.5304 185.411 18.4004 226.141 18.4004H227.601C268.331 18.4004 301.461 51.5304 301.461 92.2604V194.93C301.461 197.49 300.031 199.78 297.721 200.89C295.411 202.01 292.731 201.71 290.721 200.12L277.851 189.93C276.521 188.88 274.671 188.88 273.351 189.93L255.361 204.18C252.941 206.1 249.561 206.1 247.131 204.18L229.131 189.93C227.801 188.88 225.951 188.88 224.631 189.93L206.631 204.18C205.431 205.14 203.981 205.62 202.531 205.62Z" fill="#201429"/>
<path d="M165.371 16.1396C165.371 19.1796 162.911 21.6396 159.871 21.6396C156.831 21.6396 154.371 19.1796 154.371 16.1396C154.371 13.0996 156.831 10.6396 159.871 10.6396C162.911 10.6496 165.371 13.1096 165.371 16.1396Z" fill="#EE6C4D"/>
<path d="M159.871 23.1396C156.011 23.1396 152.871 19.9996 152.871 16.1396C152.871 14.4796 153.461 12.8696 154.541 11.6096C155.081 10.9796 156.021 10.8997 156.651 11.4397C157.281 11.9797 157.361 12.9197 156.821 13.5497C156.211 14.2697 155.871 15.1896 155.871 16.1396C155.871 18.3396 157.661 20.1396 159.871 20.1396C162.081 20.1396 163.871 18.3496 163.871 16.1396C163.871 13.9396 162.081 12.1396 159.871 12.1396C159.041 12.1396 158.371 11.4696 158.371 10.6396C158.371 9.80965 159.041 9.13965 159.871 9.13965C163.731 9.13965 166.871 12.2796 166.871 16.1396C166.871 19.9996 163.731 23.1396 159.871 23.1396Z" fill="#201429"/>
<path d="M353.451 170.13C353.451 173.17 350.991 175.63 347.951 175.63C344.911 175.63 342.451 173.17 342.451 170.13C342.451 167.09 344.911 164.63 347.951 164.63C350.991 164.63 353.451 167.09 353.451 170.13Z" fill="#EE6C4D"/>
<path d="M347.961 177.13C344.101 177.13 340.961 173.99 340.961 170.13C340.961 168.47 341.551 166.86 342.631 165.6C343.171 164.97 344.111 164.89 344.741 165.43C345.371 165.97 345.451 166.91 344.911 167.54C344.301 168.26 343.961 169.18 343.961 170.13C343.961 172.33 345.751 174.13 347.961 174.13C350.171 174.13 351.961 172.34 351.961 170.13C351.961 167.92 350.171 166.13 347.961 166.13C347.131 166.13 346.461 165.46 346.461 164.63C346.461 163.8 347.131 163.13 347.961 163.13C351.821 163.13 354.961 166.27 354.961 170.13C354.961 173.99 351.821 177.13 347.961 177.13Z" fill="#201429"/>
<path d="M149.912 45.46C149.912 48.5 147.452 50.96 144.412 50.96C141.372 50.96 138.912 48.5 138.912 45.46C138.912 42.42 141.372 39.96 144.412 39.96C147.452 39.96 149.912 42.42 149.912 45.46Z" fill="white"/>
<path d="M144.412 52.4502C140.552 52.4502 137.412 49.3102 137.412 45.4502C137.412 41.5902 140.552 38.4502 144.412 38.4502C148.272 38.4502 151.412 41.5902 151.412 45.4502C151.412 49.3202 148.272 52.4502 144.412 52.4502ZM144.412 41.4602C142.212 41.4602 140.412 43.2502 140.412 45.4602C140.412 47.6702 142.202 49.4602 144.412 49.4602C146.612 49.4602 148.412 47.6702 148.412 45.4602C148.412 43.2502 146.622 41.4602 144.412 41.4602Z" fill="#201429"/>
<path d="M135.252 21.7301C137.273 21.7301 138.912 20.0915 138.912 18.0701C138.912 16.0488 137.273 14.4102 135.252 14.4102C133.23 14.4102 131.592 16.0488 131.592 18.0701C131.592 20.0915 133.23 21.7301 135.252 21.7301Z" fill="#44A6FA"/>
<path d="M135.252 23.2301C132.402 23.2301 130.092 20.9101 130.092 18.0701C130.092 17.7501 130.122 17.4301 130.182 17.1201C130.332 16.3101 131.122 15.7702 131.932 15.9202C132.742 16.0702 133.282 16.8602 133.132 17.6702C133.112 17.8002 133.092 17.9301 133.092 18.0701C133.092 19.2601 134.062 20.2301 135.252 20.2301C136.442 20.2301 137.412 19.2601 137.412 18.0701C137.412 16.8801 136.442 15.9102 135.252 15.9102C134.912 15.9102 134.582 15.9902 134.282 16.1402C133.542 16.5102 132.642 16.2201 132.262 15.4801C131.892 14.7401 132.182 13.8401 132.922 13.4601C133.642 13.1001 134.442 12.9102 135.252 12.9102C138.102 12.9102 140.412 15.2301 140.412 18.0701C140.422 20.9201 138.102 23.2301 135.252 23.2301Z" fill="#201429"/>
<path d="M324.301 164.63C326.322 164.63 327.961 162.991 327.961 160.97C327.961 158.948 326.322 157.31 324.301 157.31C322.279 157.31 320.641 158.948 320.641 160.97C320.641 162.991 322.279 164.63 324.301 164.63Z" fill="#44A6FA"/>
<path d="M324.312 166.13C321.462 166.13 319.152 163.81 319.152 160.97C319.152 160.65 319.182 160.33 319.242 160.02C319.392 159.21 320.172 158.67 320.992 158.82C321.802 158.97 322.342 159.76 322.192 160.57C322.172 160.7 322.152 160.83 322.152 160.97C322.152 162.16 323.122 163.13 324.312 163.13C325.502 163.13 326.472 162.16 326.472 160.97C326.472 159.78 325.502 158.81 324.312 158.81C323.972 158.81 323.642 158.89 323.342 159.04C322.602 159.41 321.702 159.12 321.322 158.38C320.952 157.64 321.242 156.74 321.982 156.36C322.712 155.99 323.492 155.81 324.312 155.81C327.162 155.81 329.472 158.13 329.472 160.97C329.472 163.82 327.152 166.13 324.312 166.13Z" fill="#201429"/>
<path d="M125.873 68.2003C125.043 68.2003 124.373 67.5303 124.373 66.7003V62.3604C124.373 61.5304 125.043 60.8604 125.873 60.8604C126.703 60.8604 127.373 61.5304 127.373 62.3604V66.7003C127.373 67.5303 126.703 68.2003 125.873 68.2003Z" fill="#201429"/>
<path d="M122.662 71.4102H118.322C117.492 71.4102 116.822 70.7402 116.822 69.9102C116.822 69.0802 117.492 68.4102 118.322 68.4102H122.662C123.492 68.4102 124.162 69.0802 124.162 69.9102C124.162 70.7402 123.492 71.4102 122.662 71.4102Z" fill="#201429"/>
<path d="M125.873 78.9503C125.043 78.9503 124.373 78.2803 124.373 77.4503V73.1104C124.373 72.2804 125.043 71.6104 125.873 71.6104C126.703 71.6104 127.373 72.2804 127.373 73.1104V77.4503C127.373 78.2803 126.703 78.9503 125.873 78.9503Z" fill="#201429"/>
<path d="M133.422 71.4102H129.082C128.252 71.4102 127.582 70.7402 127.582 69.9102C127.582 69.0802 128.252 68.4102 129.082 68.4102H133.422C134.252 68.4102 134.922 69.0802 134.922 69.9102C134.922 70.7402 134.242 71.4102 133.422 71.4102Z" fill="#201429"/>
<path d="M329.75 181.46C328.92 181.46 328.25 180.79 328.25 179.96V175.63C328.25 174.8 328.92 174.13 329.75 174.13C330.58 174.13 331.25 174.8 331.25 175.63V179.96C331.25 180.79 330.57 181.46 329.75 181.46Z" fill="#201429"/>
<path d="M326.541 184.67H322.211C321.381 184.67 320.711 184 320.711 183.17C320.711 182.34 321.381 181.67 322.211 181.67H326.541C327.371 181.67 328.041 182.34 328.041 183.17C328.041 184 327.361 184.67 326.541 184.67Z" fill="#201429"/>
<path d="M329.75 192.21C328.92 192.21 328.25 191.54 328.25 190.71V186.38C328.25 185.55 328.92 184.88 329.75 184.88C330.58 184.88 331.25 185.55 331.25 186.38V190.71C331.25 191.54 330.57 192.21 329.75 192.21Z" fill="#201429"/>
<path d="M337.291 184.67H332.961C332.131 184.67 331.461 184 331.461 183.17C331.461 182.34 332.131 181.67 332.961 181.67H337.291C338.121 181.67 338.791 182.34 338.791 183.17C338.791 184 338.121 184.67 337.291 184.67Z" fill="#201429"/>
<path d="M155.752 264.83C155.202 264.83 154.752 264.37 154.752 263.82C154.752 258.76 176.712 256.79 226.812 253.51C243.942 252.39 261.662 251.23 274.882 249.82C294.752 247.7 296.832 245.74 297.002 245.19C296.832 244.68 294.752 242.72 274.882 240.59C261.662 239.18 243.942 238.02 226.802 236.9C176.702 233.62 154.742 231.66 154.742 226.6C154.742 221.54 176.702 219.58 226.802 216.3C243.932 215.18 261.652 214.02 274.872 212.61C294.742 210.49 296.832 208.53 296.992 207.98C296.992 207.43 297.442 206.99 297.992 206.99C298.542 206.99 298.992 207.45 298.992 208C298.992 213.06 277.032 215.02 226.932 218.3C209.802 219.42 192.082 220.58 178.862 221.99C158.992 224.11 156.902 226.07 156.742 226.62C156.912 227.13 158.992 229.09 178.862 231.22C192.082 232.63 209.802 233.79 226.942 234.91C277.042 238.19 299.002 240.15 299.002 245.21C299.002 250.27 277.042 252.24 226.942 255.51C209.812 256.63 192.092 257.79 178.862 259.2C158.992 261.32 156.912 263.28 156.742 263.83C156.752 264.39 156.302 264.83 155.752 264.83Z" fill="#DFD6E5"/>
<path d="M70.42 150.059H14.55C6.6 150.059 0 144.239 0 136.289C0 130.079 2.52 125.229 6.98 119.999L65.95 51.5294C71.58 44.9394 75.84 41.4395 84.57 41.4395C92.52 41.4395 98.92 47.6494 98.92 55.5994V125.819H106.1C112.89 125.819 118.32 131.249 118.32 138.039C118.32 144.829 112.89 150.069 106.1 150.069H98.92V166.359C98.92 174.309 92.52 180.519 84.57 180.519C76.62 180.519 70.41 174.309 70.41 166.359V150.059H70.42ZM70.42 125.819V83.5294L34.34 125.819H70.42Z" fill="#EE6C4D"/>
<path d="M88.4609 182.02C79.6809 182.02 72.8009 175.14 72.8009 166.36V151.57H18.4309C9.43085 151.57 2.38086 144.86 2.38086 136.3C2.38086 130.24 4.58086 125.07 9.72086 119.03L43.6609 79.6197C44.2009 78.9897 45.1509 78.9197 45.7809 79.4597C46.4109 79.9997 46.4809 80.9497 45.9409 81.5797L12.0109 120.98C7.31086 126.5 5.39085 130.94 5.39085 136.29C5.39085 143.17 11.1209 148.56 18.4409 148.56H74.3009C75.1309 148.56 75.8009 149.23 75.8009 150.06V166.35C75.8009 173.45 81.3609 179.01 88.4609 179.01C95.6709 179.01 101.311 173.45 101.311 166.35V150.06C101.311 149.23 101.981 148.56 102.811 148.56H109.991C116.001 148.56 120.711 143.94 120.711 138.03C120.711 132.12 115.901 127.31 109.991 127.31H102.811C101.981 127.31 101.311 126.64 101.311 125.81V77.5397C101.311 76.7097 101.981 76.0397 102.811 76.0397C103.641 76.0397 104.311 76.7097 104.311 77.5397V124.31H109.991C117.561 124.31 123.711 130.47 123.711 138.03C123.711 145.61 117.681 151.56 109.991 151.56H104.311V166.35C104.311 175.14 97.3509 182.02 88.4609 182.02ZM74.3009 127.32H38.2209C37.6309 127.32 37.1009 126.98 36.8609 126.45C36.6109 125.92 36.7009 125.29 37.0809 124.85L73.1609 82.5597C73.5709 82.0797 74.2309 81.9097 74.8209 82.1297C75.4109 82.3497 75.8009 82.9097 75.8009 83.5397V125.83C75.8009 126.65 75.1309 127.32 74.3009 127.32ZM41.4709 124.32H72.8009V87.5997L41.4709 124.32ZM46.9809 79.5597C46.6309 79.5597 46.2809 79.4397 46.0009 79.1997C45.3709 78.6597 45.3009 77.7097 45.8409 77.0797L46.3409 76.4997C46.8809 75.8697 47.8309 75.7997 48.4609 76.3397C49.0909 76.8797 49.1609 77.8297 48.6209 78.4597L48.1209 79.0397C47.8209 79.3797 47.4009 79.5597 46.9809 79.5597ZM52.7209 72.8997C52.3709 72.8997 52.0209 72.7797 51.7409 72.5397C51.1109 71.9997 51.0409 71.0497 51.5809 70.4197L68.7009 50.5397C74.7009 43.5097 79.4109 39.9297 88.4609 39.9297C97.3509 39.9297 104.311 46.8097 104.311 55.5897V69.3497C104.311 70.1797 103.641 70.8497 102.811 70.8497C101.981 70.8497 101.311 70.1797 101.311 69.3497V55.5897C101.311 48.4897 95.6609 42.9297 88.4609 42.9297C80.4809 42.9297 76.6209 45.8797 70.9809 52.4897L53.8609 72.3697C53.5609 72.7297 53.1409 72.8997 52.7209 72.8997Z" fill="#201429"/>
<path d="M396.791 150.059H340.931C332.981 150.059 326.381 144.239 326.381 136.289C326.381 130.079 328.901 125.229 333.361 119.999L392.331 51.5294C397.951 44.9394 402.221 41.4395 410.951 41.4395C418.901 41.4395 425.301 47.6494 425.301 55.5994V125.819H432.481C439.271 125.819 444.701 131.249 444.701 138.039C444.701 144.829 439.271 150.069 432.481 150.069H425.301V166.359C425.301 174.309 418.901 180.519 410.951 180.519C403.001 180.519 396.791 174.309 396.791 166.359V150.059V150.059ZM396.791 125.819V83.5294L360.711 125.819H396.791Z" fill="#EE6C4D"/>
<path d="M416.121 182.019C407.341 182.019 400.461 175.139 400.461 166.359V151.569H346.101C337.101 151.569 330.051 144.859 330.051 136.299C330.051 130.239 332.251 125.079 337.391 119.029L367.701 83.8295C368.241 83.1995 369.191 83.1294 369.821 83.6694C370.451 84.2094 370.521 85.1594 369.981 85.7894L339.671 120.979C334.971 126.499 333.051 130.939 333.051 136.289C333.051 143.169 338.781 148.559 346.101 148.559H401.961C402.791 148.559 403.461 149.229 403.461 150.059V166.349C403.461 173.449 409.021 179.009 416.121 179.009C423.331 179.009 428.971 173.449 428.971 166.349V150.059C428.971 149.229 429.641 148.559 430.471 148.559H437.651C443.661 148.559 448.371 143.939 448.371 138.029C448.371 132.119 443.561 127.309 437.651 127.309H430.471C429.641 127.309 428.971 126.639 428.971 125.809V77.8694C428.971 77.0394 429.641 76.3694 430.471 76.3694C431.301 76.3694 431.971 77.0394 431.971 77.8694V124.309H437.651C445.221 124.309 451.371 130.469 451.371 138.029C451.371 145.609 445.341 151.559 437.651 151.559H431.971V166.349C431.981 175.139 425.011 182.019 416.121 182.019ZM401.961 127.319H365.881C365.291 127.319 364.761 126.979 364.521 126.449C364.271 125.919 364.361 125.289 364.741 124.849L400.821 82.5594C401.231 82.0794 401.891 81.9095 402.481 82.1295C403.071 82.3495 403.461 82.9094 403.461 83.5394V125.829C403.461 126.649 402.791 127.319 401.961 127.319ZM369.141 124.319H400.471V87.5994L369.141 124.319ZM372.361 82.2195C372.011 82.2195 371.671 82.0995 371.381 81.8595C370.751 81.3195 370.681 80.3695 371.221 79.7395L396.361 50.5495C402.361 43.5195 407.071 39.9395 416.121 39.9395C425.011 39.9395 431.971 46.8194 431.971 55.5994V64.6194C431.971 65.4494 431.301 66.1194 430.471 66.1194C429.641 66.1194 428.971 65.4494 428.971 64.6194V55.5994C428.971 48.4994 423.321 42.9395 416.121 42.9395C408.141 42.9395 404.281 45.8895 398.641 52.4995L373.501 81.6994C373.201 82.0394 372.781 82.2195 372.361 82.2195ZM430.481 75.1694C429.651 75.1694 428.981 74.4994 428.981 73.6694V72.2195C428.981 71.3895 429.651 70.7195 430.481 70.7195C431.311 70.7195 431.981 71.3895 431.981 72.2195V73.6694C431.981 74.4994 431.311 75.1694 430.481 75.1694Z" fill="#201429"/>
</svg>
