<svg width="323" height="95" viewBox="0 0 323 95" fill="none" xmlns="http://www.w3.org/2000/svg">
<g clip-path="url(#clip0_34310_185248)">
<path d="M210.424 14.6901C210.354 15.0201 210.274 15.3501 210.145 15.6601C209.735 16.6901 208.826 18.1101 206.797 18.9601C205.748 19.4001 204.659 19.6601 203.53 19.7401C201.302 20.6901 198.914 20.7101 198.874 20.7101L198.404 20.7001C197.595 20.6501 196.796 20.4701 196.036 20.1701C195.607 20.7101 194.867 21.5501 193.708 22.1701C192.489 22.8301 190.901 23.1601 188.972 23.1601C187.903 23.1601 186.105 23.0601 184.446 22.4701C183.926 22.8301 183.337 23.1801 182.657 23.5101V23.5001C181.199 24.2501 179.09 24.9501 176.133 25.9401L175.693 26.0901L174.454 26.2601L173.455 29.3401C173.066 30.5301 172.526 32.1101 171.767 33.7501C171.637 34.0401 171.497 34.3301 171.357 34.6101L171.367 35.3001C171.397 36.2701 171.427 37.3101 171.497 38.3401L171.517 38.5601L171.507 38.7801C171.507 38.8001 171.457 41.2501 171.607 44.5001C171.787 48.3801 172.296 52.1001 172.996 54.7001C173.545 56.7001 174.175 57.9201 174.674 58.9101L174.844 59.2501C175.394 60.2201 176.712 62.7201 175.384 65.3801C174.574 67.0101 172.986 68.1201 171.147 68.3401L170.837 68.3801H170.458C167.88 68.3801 165.572 66.7001 164.423 65.7001C162.504 64.0501 161.036 61.8301 160.086 60.1401C159.337 59.0601 158.817 57.7301 158.298 56.4101C157.828 55.2201 157.219 53.5701 156.679 51.6801C155.81 52.3901 154.881 53.0901 153.902 53.7301C151.593 55.2401 147.966 57.3001 143.121 57.7801C142.511 57.8301 142.021 57.8501 141.532 57.8501C139.174 57.8501 136.986 57.3901 135.057 56.4701C132.38 55.2701 130.001 53.1501 128.583 50.6501C127.963 49.6801 127.604 48.7501 127.334 48.0301C122.748 49.0001 118.401 49.6001 115.104 50.0301L114.784 50.0701L114.325 50.0801C113.056 50.0801 112.096 49.6401 111.637 49.3901C109.958 48.5701 108.589 47.3601 107.66 45.9201L102.724 48.2201C102.974 50.4901 103.044 52.7701 102.894 55.0501C102.504 60.3601 101.106 65.3701 98.7476 69.9501C96.4895 74.4601 93.2722 78.6301 89.4954 81.9901C86.4479 84.7301 83.1806 86.8801 80.6228 88.4701L80.4529 88.5801C80.4529 88.5801 80.2131 88.7401 79.2139 89.3401L78.1348 89.9801L77.7951 90.1701C77.2156 90.5001 76.5761 90.8601 75.8168 91.2601C73.3888 92.5601 70.801 93.7201 68.1432 94.7201C67.9434 94.7901 67.7435 94.8501 67.5437 94.9301H323.04V14.6901H210.424Z" fill="#EE6C4D"/>
<path d="M102.454 29.13C100.346 28.7 97.5884 28.85 97.5884 28.85C97.5884 28.85 82.0814 33.97 81.8616 34.04C81.8316 34.08 81.8216 34.3 81.8216 34.35C81.9115 37.52 83.2504 39.78 83.9298 40.6C84.0397 40.74 84.0497 40.74 84.0897 40.73C84.3095 40.66 99.5768 35.58 99.5768 35.58C99.5768 35.58 103.853 32.92 103.613 32.84C105.212 31.44 105.931 29.56 102.454 29.13ZM61.8383 33.98C61.6684 33.87 61.2288 33.75 61.1389 33.74C58.4112 33.44 57.372 34.66 57.0823 35.76C56.6926 36.86 56.8025 38.01 56.9024 38.79C56.9224 39.03 56.9524 39.06 57.0523 39.15C58.1314 40.16 58.9807 41.35 59.4703 42.61C59.9399 43.87 60.0298 45.22 59.9299 46.63C59.5302 49.21 58.1814 51.99 56.173 54.48C55.7534 55.13 55.1739 55.73 54.6343 56.33L53.0057 58.14C51.8966 59.26 50.7276 60.25 49.5086 61.05C48.8691 61.47 48.2097 61.83 47.5303 62.13C44.5128 60.52 42.1148 59.47 42.1148 59.47C41.0257 59.08 39.8966 58.7 38.6277 58.39C37.9882 58.24 37.3288 58.1 36.5095 58.03C35.7501 57.97 34.731 57.89 33.2922 58.42C32.9724 58.56 32.6627 58.72 32.3629 58.89C32.0332 59.13 31.7035 59.42 31.4237 59.73L31.2139 59.97C31.1439 60.05 30.9741 60.32 30.8742 60.51C30.7643 60.72 30.6644 60.95 30.5944 61.17C30.5145 61.41 30.4645 61.64 30.4545 61.72C30.3746 62.2 30.3846 62.83 30.4345 63.06C30.6344 64.37 31.0241 65.03 31.4237 65.7C32.233 67 33.2522 67.94 34.3812 68.66C36.6593 70.1 39.2072 70.52 41.4653 70.44C43.4437 70.37 45.462 70.14 47.5303 69.57C47.9899 69.44 48.4395 69.29 48.8991 69.13C53.1256 70.64 57.1822 71.82 56.8425 71.59C58.8408 72.08 60.7692 72.35 62.3379 72.29C63.8966 72.26 65.0756 71.77 65.3454 71.36C65.6151 70.93 65.1555 70.75 64.0664 70.41C62.9773 70.07 61.1489 69.35 58.3512 67.99C57.1722 67.38 55.8933 66.68 54.6043 65.98C55.8133 65.07 56.9524 64.11 57.9715 63.09C58.641 62.39 59.2604 61.67 59.8999 60.96C60.5394 60.25 61.1888 59.56 61.7484 58.73C64.1364 55.71 66.2046 51.98 66.8841 47.54C67.1339 45.07 66.934 42.46 66.0148 40.06C65.0956 37.67 63.6068 35.62 61.8383 33.98ZM34.2913 62.32L34.2613 62.29C33.9816 62.08 34.1215 62.19 34.3513 62.35L34.2913 62.32ZM191.95 13.32C191.39 13.21 190.81 13.27 190.251 13.21C189.472 13.12 188.732 12.79 187.983 12.57C187.223 12.35 186.384 12.24 185.675 12.57C183.507 13.58 183.816 16.27 185.705 17.42C186.844 18.12 190.191 18.25 191.29 17.65C191.66 17.45 191.93 17.1101 192.189 16.7801C192.459 16.4301 192.729 16.0701 192.949 15.6801C193.189 15.2601 193.388 14.7601 193.248 14.3001C193.079 13.7501 192.509 13.43 191.95 13.32ZM204.899 12.8901C204.639 12.7901 204.369 12.8101 204.089 12.8501C204.249 12.7601 204.399 12.59 204.469 12.41C204.589 12.13 204.049 11.68 203.58 11.67C203.57 11.3 201.731 10.47 200.912 10.75C200.692 10.83 200.472 10.9201 200.243 10.9301C199.973 10.9401 199.723 10.8401 199.473 10.7601C198.394 10.4101 197.105 10.46 196.266 11.21C194.368 12.91 196.855 15.48 198.714 15.59C200.053 15.67 202.431 14.72 202.181 14.61C203.07 14.72 203.989 14.59 204.809 14.24C205.039 14.14 205.288 14.0101 205.378 13.7701C205.528 13.4201 205.248 13.0201 204.899 12.8901ZM179.95 15.0201C177.382 14.3001 173.835 14.0601 173.835 14.0601L170.398 14.54C170.078 14.1 169.668 13.7 169.039 13.3801C167.92 12.8201 167.41 12.91 166.721 12.91C166.561 12.92 166.381 12.93 166.241 12.96L165.971 13.0201L165.442 13.17L164.932 13.3401L164.602 13.5L163.943 13.83C163.653 13.99 163.124 14.39 162.784 14.73C162.474 15.08 162.234 15.4 162.035 15.7L155.19 16.65L152.013 17.5301C151.973 17.5701 151.923 17.7901 151.913 17.8501C151.573 21.1 152.962 23.37 153.711 24.2C153.831 24.34 153.851 24.34 153.901 24.33L156.629 23.57L159.856 23.12C159.547 25.32 159.347 27.49 159.257 29.64L159.207 31.29C158.777 31.93 158.328 32.56 157.808 33.21C156.359 35 154.701 36.77 152.972 38.5C152.133 39.35 151.194 40.28 150.364 41.04L149.115 42.16L147.816 43.16C146.078 44.39 144.15 45.39 142.481 45.61C141.632 45.77 140.942 45.67 140.373 45.54C139.843 45.35 139.493 45.06 139.134 44.63C138.774 44.2 138.544 43.45 138.364 42.64C138.254 41.76 138.164 40.82 138.314 40.06C139.274 39.78 140.263 39.45 141.312 38.99C142.031 38.65 142.771 38.27 143.48 37.75C143.84 37.52 144.179 37.21 144.519 36.93C144.579 36.89 144.759 36.7 144.869 36.59C144.999 36.45 145.099 36.36 145.279 36.12C145.548 35.74 145.958 35.26 146.188 34.1C146.238 33.79 146.248 33.47 146.238 33.16C146.198 32.78 146.108 32.38 145.968 32.01C145.828 31.62 145.648 31.37 145.438 31.08C145.239 30.81 144.949 30.52 144.789 30.4C144.419 30.1 143.94 29.84 143.7 29.76C143.38 29.63 143.09 29.55 142.891 29.51C141.971 29.33 141.382 29.37 140.832 29.43C139.743 29.55 138.874 29.83 138.025 30.19C136.366 30.91 134.907 32.02 133.758 33.43C133.598 33.63 133.458 33.84 133.319 34.05C132.899 34.14 132.489 34.24 132.06 34.34C130.821 34.62 129.552 34.92 128.283 35.25L126.494 35.71L124.766 36.11C121.129 36.88 117.322 37.45 113.535 37.93C113.385 37.98 113.095 38.22 113.035 38.28C109.768 41.72 112.206 44.02 113.935 44.82C114.185 44.96 114.244 44.95 114.414 44.93C118.351 44.42 122.258 43.85 126.244 43L128.153 42.56L129.991 42.08C130.391 41.98 130.811 41.88 131.21 41.79C131.23 42.24 131.27 42.68 131.32 43.11C131.36 43.88 131.64 44.73 131.82 45.53C132.14 46.35 132.389 47.19 132.929 47.98C133.808 49.61 135.447 51.03 137.205 51.82C139.004 52.67 140.882 52.79 142.561 52.67C145.928 52.33 148.666 50.98 151.044 49.43C153.392 47.89 155.51 45.89 157.219 44.17C158.068 43.33 158.907 42.47 159.736 41.59C160.016 43.45 160.436 45.82 161.015 48.15C162.134 53.1 164.363 57.74 164.323 57.27C165.332 59.16 166.541 60.78 167.74 61.81C168.929 62.85 170.018 63.27 170.477 63.23C170.957 63.17 170.877 62.67 170.298 61.65C169.768 60.58 168.819 58.9 168.01 55.98C167.09 52.54 166.621 48.17 166.461 44.69C166.301 41.21 166.351 38.62 166.351 38.62C166.281 37.52 166.241 36.42 166.211 35.32L166.191 33.67V33.3C166.511 32.73 166.811 32.15 167.09 31.55C167.69 30.25 168.159 28.94 168.559 27.7L169.708 24.18C169.978 23.35 170.258 22.48 170.527 21.58L174.504 21.02C174.504 21.02 180.689 18.96 180.399 18.85C182.837 17.71 184.256 15.9301 179.95 15.0201Z" fill="white"/>
<path d="M118.811 39.43C117.442 40.78 116.623 41.39 116.623 41.39C117.332 40.88 118.571 39.9401 120.08 38.2701C120.839 37.4501 121.638 36.4001 122.418 35.1301C123.197 33.8501 123.926 32.2901 124.366 30.4201C124.816 28.5701 124.926 26.4101 124.536 24.2601C124.156 22.1001 123.307 20.0001 122.178 18.0701C121.628 17.0801 120.959 16.2001 120.289 15.2801C119.93 14.8501 119.57 14.4201 119.21 13.9801C119.051 13.7701 118.721 13.4201 118.411 13.1401C118.121 12.8801 117.911 12.7001 117.682 12.5101C116.782 11.7701 115.933 11.1201 115.024 10.4501C114.554 10.1201 114.085 9.79005 113.615 9.45005C113.086 9.11005 112.676 8.79005 111.747 8.31005C105.702 5.37005 98.7275 2.91005 91.1139 1.42005C87.2971 0.740051 83.3504 0.240051 79.3237 0.0600508C75.2971 -0.0899492 71.2005 0.0200508 67.094 0.420051C50.6677 2.08005 34.5512 8.72005 22.3713 18.0501C16.2565 22.6901 11.1108 28.04 7.27396 33.67C6.81435 34.39 6.35473 35.1 5.90511 35.8C5.48546 36.55 5.0758 37.29 4.66614 38.01C4.30644 38.76 3.95674 39.5001 3.60703 40.2201C3.2873 40.9601 3.00753 41.7 2.70778 42.42C1.61869 45.33 0.949251 48.13 0.539593 50.71C-0.279722 55.88 -0.00994727 60.1101 0.329769 62.9701C0.499627 64.4101 0.709451 65.5101 0.869318 66.2601C1.0092 67.0101 1.10912 67.4001 1.10912 67.4001C2.52793 73.5901 5.37555 79.0401 8.88262 83.2101C10.6212 85.3001 12.5296 87.0701 14.4679 88.4901C15.4072 89.2401 16.4163 89.8201 17.3455 90.4201C18.3147 90.9601 19.244 91.4701 20.1532 91.8901C23.8301 93.5501 26.9575 94.2301 29.0957 94.5201C30.1548 94.7101 30.9941 94.7101 31.5437 94.7801C32.1032 94.8201 32.393 94.84 32.393 94.84C35.3805 95 37.7585 94.93 40.1565 94.84C42.5245 94.76 44.7726 94.5901 46.8709 94.4001C51.0773 93.9901 54.7543 93.3301 57.9016 92.5601C64.1964 90.9901 68.3929 89.1501 71.2505 87.8101C74.1081 86.4401 75.6568 85.4501 76.5461 84.9401C77.4253 84.4101 77.6351 84.2801 77.6351 84.2801C77.6351 84.2801 77.5452 82.9201 77.1855 82.5601C76.8258 82.2001 75.467 81.9701 75.0973 81.6001C74.7276 81.2301 73.6785 79.9201 73.6785 79.9201C73.4486 79.4301 73.059 78.8501 73.059 78.8501L71.9099 79.4301C65.4553 83.0601 58.621 85.2401 51.6169 86.5601C48.1198 87.2301 44.5728 87.6301 41.0258 87.8701C39.2472 87.9801 37.4787 88.0601 35.7002 88.1101C34.8409 88.1201 34.0416 88.1001 33.2123 88.1001C32.393 88.0401 31.5836 87.9701 30.7643 87.8901C24.2997 87.0701 18.3547 83.8901 14.2082 79.0801C9.9817 74.3301 7.51376 68.2601 6.55457 62.2201C5.59537 56.1501 6.16489 50.0001 8.05331 44.5201C9.90177 39.01 13.2789 34.3201 16.846 30.2201C24.1598 22.0901 32.7926 16.4701 41.0058 12.6101C45.1323 10.6801 49.1789 9.18005 53.0757 8.04005C56.9724 6.92005 60.7093 6.15005 64.1964 5.63005C71.2005 4.65005 77.2555 4.69005 82.0914 5.14005C86.9374 5.61005 90.5843 6.38005 93.0123 7.00005C94.2413 7.27005 95.1405 7.57005 95.75 7.75005C96.3595 7.93005 96.6692 8.03005 96.6692 8.03005C102.165 9.50005 106.361 11.2901 109.608 12.7701C110.498 13.2401 111.417 13.9101 112.186 14.4601C112.976 15.0301 113.675 15.5601 114.295 16.0601C114.604 16.3101 114.894 16.5501 115.134 16.7701C115.364 16.9701 115.553 17.2101 115.763 17.4601C116.133 17.9101 116.483 18.3001 116.742 18.6801C116.473 18.2601 116.143 17.8001 115.773 17.3201C115.194 16.4601 114.125 15.6301 113.105 14.7501C112.066 13.9001 110.947 12.9801 109.838 12.3001C107.84 11.3001 105.951 10.3001 104.503 9.72005C103.074 9.10005 102.155 8.70005 102.155 8.70005L105.482 10.1201C106.591 10.5901 107.65 11.1701 108.739 11.6801L109.888 12.1901C111.477 13.0801 112.996 14.2501 114.464 15.3801C114.834 15.6701 115.194 15.9601 115.533 16.2701C115.873 16.5601 116.153 16.9401 116.453 17.2901C117.072 17.9801 117.602 18.7501 118.141 19.5001C117.792 18.9601 117.442 18.4201 117.072 17.8901C116.673 17.3801 116.293 16.8601 115.883 16.3601C114.984 15.4401 113.955 14.6201 112.956 13.8001C113.415 14.1101 114.035 14.5501 114.724 15.0901C115.074 15.3601 115.444 15.6601 115.823 16.0001C116.213 16.3501 116.513 16.7801 116.882 17.2001C118.281 18.8901 119.65 21.0601 120.359 23.3301C121.059 25.6001 120.999 27.8801 120.609 29.4501C120.499 29.8401 120.399 30.1901 120.309 30.5001C120.19 30.8001 120.09 31.0601 120.01 31.2801C119.93 31.5001 119.85 31.6601 119.8 31.7601C119.75 31.8701 119.72 31.9301 119.72 31.9301C120.12 31.2901 120.629 30.2201 120.929 28.7301C121.229 27.2501 121.269 25.3001 120.649 23.1901C120.03 21.0901 118.811 18.8801 117.132 16.7801C116.922 16.5101 116.702 16.2501 116.483 15.9801C116.233 15.6901 115.953 15.4501 115.693 15.2201C115.164 14.7601 114.614 14.3101 114.055 13.8601C113.495 13.4101 112.916 12.9701 112.316 12.5301C111.697 12.0901 111.127 11.6501 110.348 11.2301C103.783 7.91005 95.8699 5.09005 87.6168 3.76005C83.5002 3.10005 79.3237 2.73005 75.2571 2.70005C71.1905 2.70005 67.2338 2.98005 63.5369 3.47005C56.1531 4.53005 49.8484 6.36005 45.472 7.99005C44.3829 8.41005 43.4038 8.79005 42.5445 9.13005C41.6952 9.47005 40.9758 9.81005 40.3863 10.0601C39.7968 10.3201 39.3372 10.5201 39.0374 10.6501C38.7377 10.7901 38.5778 10.8701 38.5778 10.8701C39.507 10.2501 41.8051 9.01005 45.1823 7.61005L45.4021 7.52005L46.5911 7.10005C47.1906 6.89005 47.8301 6.67005 48.5095 6.43005C51.7568 5.33005 58.4912 3.34005 67.1739 2.42005C71.1106 2.06005 75.0373 1.94005 78.8341 2.08005C82.8508 2.28005 86.8375 2.75005 90.6842 3.47005C97.6085 4.84005 104.762 7.27005 110.807 10.3001C111.237 10.5101 111.557 10.7201 111.857 10.9201C111.916 10.9601 111.976 11.0001 112.026 11.0301L112.416 11.3001C112.626 11.4401 112.826 11.5801 113.026 11.7201C113.625 12.1401 114.225 12.5801 114.854 13.0601C115.553 13.5901 116.063 14.0001 116.543 14.4101C116.782 14.6101 117.132 14.9201 117.422 15.2401C117.642 15.5101 117.862 15.7701 118.081 16.0301C119.74 18.0201 120.949 20.0401 121.698 22.0301C122.358 23.7701 122.668 25.5301 122.628 27.2801C122.588 28.7401 122.288 29.9301 121.968 30.9901L121.988 31.0001C122.308 29.9301 122.608 28.7501 122.648 27.2801C122.687 25.5401 122.378 23.7701 121.718 22.0301C120.969 20.0301 119.76 18.0101 118.101 16.0201C117.882 15.7601 117.662 15.5001 117.442 15.2301C117.152 14.9101 116.802 14.6001 116.563 14.3901C116.083 13.9801 115.573 13.5701 114.874 13.0401C114.245 12.5601 113.645 12.1201 113.046 11.7001C112.846 11.5601 112.636 11.4201 112.436 11.2801L112.046 11.0101C111.986 10.9701 111.926 10.9401 111.877 10.9001C111.567 10.7001 111.257 10.5001 110.817 10.2801C104.762 7.25005 97.6184 4.83005 90.6842 3.45005C86.8375 2.73005 82.8508 2.26005 78.8242 2.06005C75.0373 1.93005 71.1106 2.04005 67.1639 2.40005C58.4812 3.32005 51.7368 5.31005 48.4995 6.41005C47.8201 6.65005 47.1806 6.87005 46.5811 7.08005L45.6619 7.41005C46.2514 7.17005 46.8709 6.93005 47.5303 6.69005C52.2164 4.93005 58.4912 3.13005 65.6751 2.23005C67.4637 1.96005 69.3221 1.86005 71.2105 1.70005C73.0989 1.63005 75.0273 1.52005 76.9857 1.58005C78.9441 1.56005 80.9124 1.73005 82.9007 1.85005C84.8791 2.08005 86.8774 2.25005 88.8558 2.62005C96.7991 3.85005 104.463 6.52005 111.087 9.70005C111.827 10.0801 112.246 10.3901 112.726 10.7001C113.175 11.0201 113.615 11.3301 114.055 11.6401C114.914 12.2701 115.743 12.9001 116.563 13.5701L117.192 14.1101C117.402 14.2901 117.712 14.5801 117.911 14.8201C118.251 15.2301 118.591 15.6301 118.931 16.0401C119.27 16.4201 119.55 16.8701 119.86 17.2801C120.16 17.6901 120.449 18.1101 120.699 18.5501C121.758 20.2701 122.568 22.1101 122.967 23.9701C123.377 25.8201 123.387 27.6501 123.117 29.2501C122.847 30.8401 122.358 32.22 121.798 33.32C121.249 34.43 120.669 35.3 120.18 35.98C119.68 36.66 119.26 37.1401 118.981 37.4701C118.701 37.8001 118.541 37.96 118.541 37.96C119.051 37.51 120.04 36.56 121.159 34.91C122.228 33.26 123.517 30.7701 123.677 27.4601C123.747 25.8301 123.517 24.0601 122.977 22.3301C122.438 20.5901 121.558 18.9301 120.519 17.3401C120.25 16.9501 119.98 16.5601 119.7 16.1701C119.41 15.7901 119.1 15.4301 118.801 15.0501L118.321 14.4701C118.131 14.2401 117.842 13.9601 117.632 13.7701C117.222 13.4001 116.852 13.0901 116.473 12.7901C115.723 12.1801 114.964 11.6001 114.175 11.0101C113.775 10.7201 113.375 10.4301 112.946 10.1301C112.506 9.84005 112.096 9.54005 111.367 9.16005C107.71 7.39005 103.813 5.72005 99.6567 4.40005C95.5002 3.10005 91.1638 2.08005 86.7675 1.43005C77.9849 0.180051 69.0923 0.410051 61.4387 1.71005C53.7551 2.92005 47.3105 5.09005 42.8342 6.85005C41.7052 7.28005 40.716 7.71005 39.8467 8.10005C38.9875 8.49005 38.2281 8.79005 37.6386 9.09005C36.4496 9.67005 35.8001 9.99005 35.8001 9.99005C36.6994 9.47005 39.7368 7.80005 44.4929 5.97005C49.2289 4.12005 55.7035 2.19005 63.2172 1.05005C66.9741 0.520051 70.9807 0.200051 75.1173 0.150051C79.2538 0.140051 83.5102 0.460051 87.7467 1.07005C91.9832 1.68005 96.1697 2.73005 100.196 3.97005C104.243 5.22005 108.02 6.86005 111.647 8.56005C112.606 9.06005 113.036 9.39005 113.585 9.76005C114.105 10.1201 114.594 10.4701 115.084 10.8301C116.063 11.5601 116.952 12.2301 117.951 13.1001C118.181 13.3001 118.591 13.6801 118.851 13.9801L119.46 14.7001C119.85 15.1701 120.24 15.6201 120.589 16.1301C121.319 17.1001 121.958 18.1401 122.528 19.2101C123.657 21.3501 124.386 23.7301 124.526 26.0701C124.676 28.4001 124.246 30.6001 123.557 32.3801C122.148 35.9601 120.13 38.07 118.811 39.43Z" fill="#EE6C4D"/>
<path d="M118.471 21.55C118.421 21.37 118.291 21.08 118.021 20.63C117.891 20.4 117.742 20.13 117.562 19.81C117.352 19.51 117.102 19.16 116.822 18.75C116.802 18.72 116.772 18.68 116.752 18.65C117.512 19.82 117.901 20.72 117.961 20.98C117.991 20.97 118.721 22.24 118.471 21.55Z" fill="#EE6C4D"/>
<path d="M1.70868 43.76C1.53882 44.24 1.39893 44.7 1.26904 45.14C1.51883 44.27 1.80859 43.41 2.11833 42.55C1.96846 42.97 1.82858 43.37 1.70868 43.76ZM28.0367 13.39C25.1291 15.24 22.2315 17.36 19.4239 19.67C14.2382 23.99 9.8119 28.84 6.61457 33.71C6.36478 34.1 6.12498 34.4801 5.87519 34.8601L5.49551 35.4701C5.24572 35.8901 5.00592 36.3201 4.77611 36.7401C4.6762 36.9101 4.58627 37.09 4.48635 37.26C4.22657 37.71 4.00675 38.17 3.79693 38.62C3.73698 38.75 3.67703 38.88 3.61708 39C3.54714 39.16 3.46721 39.31 3.39726 39.46C3.19743 39.87 3.01758 40.27 2.85771 40.67C2.60792 41.27 2.3981 41.8101 2.20826 42.3101C3.12749 39.8401 4.26654 37.44 5.63539 35.19C11.1008 26.25 18.7544 19.77 24.2099 15.9C29.8252 11.88 34.801 9.42005 37.199 8.30005C34.0317 9.84005 30.9442 11.55 28.0367 13.39Z" fill="#EE6C4D"/>
<path d="M111.777 15.86L111.797 15.87L111.807 15.86L111.787 15.85C111.647 15.74 111.457 15.58 111.047 15.28C110.837 15.13 110.568 14.94 110.218 14.69C110.018 14.55 109.419 14.14 109.049 13.94C106.581 12.72 100.016 9.46003 91.1139 7.59003C86.3879 6.58003 81.5319 6.02003 76.686 5.93003C76.1864 5.92003 75.6768 5.91003 75.1672 5.91003C70.5311 5.91003 65.6952 6.34003 61.069 7.16003C56.263 7.99003 51.3472 9.34003 46.4612 11.16C42.3347 12.7 38.2781 14.58 34.721 16.59C31.8435 18.22 29.1457 19.94 27.1174 21.42C26.428 21.89 25.8884 22.31 25.4488 22.65C25.3289 22.75 25.209 22.83 25.1091 22.91L24.4097 23.45L24.4197 23.47L25.1191 22.93C25.219 22.85 25.3389 22.76 25.4588 22.67C25.8884 22.33 26.428 21.92 27.1274 21.44C29.1557 19.96 31.8534 18.25 34.731 16.61C38.2881 14.6 42.3447 12.73 46.4712 11.19C51.3571 9.36003 56.273 8.02003 61.079 7.19003C66.2147 6.27003 71.6102 5.85003 76.696 5.95003C81.5319 6.04003 86.3879 6.60003 91.1239 7.61003C100.026 9.48003 106.591 12.74 109.059 13.96C109.429 14.15 110.028 14.57 110.228 14.7C110.578 14.95 110.847 15.14 111.057 15.29C111.447 15.59 111.637 15.75 111.777 15.86Z" fill="#EE6C4D"/>
<mask id="mask0_34310_185248" style="mask-type:alpha" maskUnits="userSpaceOnUse" x="31" y="30" width="95" height="73">
<path d="M108.12 90.5L34.8109 102.47L31.2139 80.39L82.541 31.88L125.895 30.75L108.12 90.5Z" fill="url(#paint0_linear_34310_185248)"/>
</mask>
<g mask="url(#mask0_34310_185248)">
<path d="M96.799 44.22C96.819 44.12 96.849 44.02 96.8789 43.92C96.9389 43.7 96.9489 43.48 96.9789 43.25L97.0288 42.73C97.0388 42.53 97.0688 42.33 97.0588 42.13C97.0588 40.51 96.6391 38.98 95.9897 37.64C95.67 36.96 95.2803 36.34 94.8207 35.74C94.371 35.14 93.8515 34.58 93.1221 33.98C92.9123 33.82 92.7024 33.65 92.2628 33.42C92.1429 33.36 92.063 33.32 91.9031 33.25C91.7133 33.17 91.5134 33.11 91.3236 33.06C91.2636 33.04 91.0238 32.99 90.854 32.98C90.6641 32.96 90.4843 32.95 90.2944 32.95C90.1745 32.94 89.7649 32.99 89.4751 33.07C89.1554 33.15 88.8656 33.27 88.5859 33.43C88.2761 33.61 87.9764 33.84 87.7166 34.11C87.5867 34.24 87.4768 34.39 87.3769 34.53C87.3069 34.63 87.247 34.74 87.187 34.85C87.0671 35.07 86.9672 35.31 86.8873 35.54C86.7974 35.83 86.8074 35.87 86.7674 36.03C86.7474 36.17 86.7274 36.3 86.7174 36.44L86.7074 36.64V36.76C86.7074 36.92 86.7174 37.07 86.7374 37.23C86.7674 37.49 86.8074 37.65 86.8473 37.85L86.9672 38.28C87.1271 38.76 87.287 39.11 87.4368 39.43L87.8265 40.19C88.2462 40.99 88.6059 41.83 88.9456 42.67C89.1054 43.07 89.2453 43.48 89.3852 43.89C89.1454 44.24 88.8556 44.59 88.446 44.93C88.446 44.93 88.2961 45.09 88.0363 45.38C87.6866 45.63 87.297 46.06 86.6375 46.48C86.3078 46.69 85.9781 46.93 85.5884 47.18C85.1587 47.42 84.7091 47.68 84.2395 47.94C83.3103 48.5 82.2811 48.96 81.272 49.48C79.2237 50.43 77.1255 51.16 75.5668 51.61C74.018 52.04 73.0289 52.21 73.2287 52.24C69.6417 53.1 66.5743 53.07 65.8349 53.49C65.4152 53.68 65.5252 54.19 66.6842 54.81C67.8232 55.41 69.9814 56.1 73.3886 56.15C77.4252 56.34 82.2612 55.27 85.8881 53.98C86.7874 53.63 87.6267 53.31 88.376 53.01C89.1454 52.69 89.8648 52.31 90.4443 52.03C90.5742 51.96 90.6741 51.9 90.784 51.83C90.794 52.32 90.794 52.82 90.774 53.31C90.6941 55.11 90.4943 56.91 90.0247 58.67C89.8448 59.56 89.5151 60.42 89.2553 61.29L88.7557 62.57L88.5059 63.21L88.1962 63.81C86.7374 67.09 84.4293 70.02 81.7116 72.56C78.9739 75.1 75.8865 77.37 72.4693 79.17C65.695 82.85 58.7408 85.32 50.9973 86.68C50.0781 86.86 48.929 87.06 47.9998 87.16L44.8624 87.55C43.004 87.68 41.765 87.92 39.8966 87.94C39.7467 87.97 38.7775 88.08 38.7176 88.14C36.989 89.72 36.5993 91.13 36.9091 92.27C37.2088 93.4 38.208 94.26 39.0273 94.73C39.2671 94.89 40.1564 94.83 40.3362 94.82C42.3645 94.79 43.5635 94.63 45.5918 94.48L48.5893 94.06C49.5985 93.94 50.5776 94 51.5768 93.8C59.8199 92.36 68.0131 89.99 75.4768 85.57C79.1438 83.39 82.8107 81.08 86.058 78.15C89.3253 75.25 92.1229 71.65 94.1612 67.6C96.2195 63.59 97.4185 59.22 97.7482 54.7C97.998 51.19 97.6683 47.63 96.799 44.22Z" fill="white"/>
</g>
<path d="M193.116 78.2404C193.116 79.1376 192.792 79.8445 192.144 80.3611C191.501 80.8776 190.604 81.1359 189.453 81.1359C188.393 81.1359 187.455 80.9365 186.639 80.5378V78.5803C187.31 78.8794 187.876 79.0901 188.338 79.2124C188.805 79.3347 189.231 79.3959 189.616 79.3959C190.078 79.3959 190.432 79.3076 190.676 79.1308C190.925 78.9541 191.05 78.6913 191.05 78.3424C191.05 78.1476 190.996 77.9754 190.887 77.8258C190.778 77.6718 190.617 77.5245 190.404 77.384C190.196 77.2436 189.768 77.0193 189.12 76.7111C188.513 76.4257 188.057 76.1515 187.754 75.8887C187.45 75.6259 187.208 75.3201 187.026 74.9711C186.845 74.6222 186.754 74.2144 186.754 73.7477C186.754 72.8686 187.051 72.1776 187.645 71.6747C188.243 71.1717 189.068 70.9202 190.119 70.9202C190.635 70.9202 191.127 70.9814 191.594 71.1037C192.065 71.2261 192.557 71.3983 193.069 71.6203L192.389 73.2583C191.859 73.0408 191.419 72.889 191.07 72.8029C190.726 72.7169 190.386 72.6738 190.051 72.6738C189.652 72.6738 189.346 72.7667 189.133 72.9525C188.92 73.1383 188.814 73.3807 188.814 73.6797C188.814 73.8655 188.857 74.0286 188.943 74.1691C189.029 74.3051 189.165 74.4387 189.351 74.5701C189.541 74.697 189.988 74.9281 190.69 75.2634C191.619 75.7075 192.255 76.1538 192.6 76.6024C192.944 77.0465 193.116 77.5925 193.116 78.2404Z" fill="white"/>
<path d="M200.166 81L199.445 78.6347H195.822L195.102 81H192.832L196.339 71.0222H198.915L202.436 81H200.166ZM198.942 76.8675C198.276 74.7242 197.9 73.5121 197.814 73.2311C197.732 72.9502 197.673 72.7282 197.637 72.5651C197.488 73.1451 197.059 74.5792 196.352 76.8675H198.942Z" fill="white"/>
<path d="M204.965 75.4741H205.645C206.311 75.4741 206.802 75.3631 207.12 75.1411C207.437 74.919 207.595 74.5701 207.595 74.0944C207.595 73.6231 207.432 73.2878 207.106 73.0884C206.784 72.889 206.284 72.7894 205.604 72.7894H204.965V75.4741ZM204.965 77.1869V81H202.858V71.0629H205.753C207.104 71.0629 208.103 71.3099 208.751 71.8038C209.399 72.2932 209.723 73.0386 209.723 74.04C209.723 74.6245 209.562 75.1456 209.24 75.6033C208.918 76.0564 208.463 76.4121 207.874 76.6704C209.369 78.9043 210.344 80.3475 210.797 81H208.459L206.086 77.1869H204.965Z" fill="white"/>
<path d="M215.046 81H212.938V72.8165H210.24V71.0629H217.744V72.8165H215.046V81Z" fill="white"/>
<path d="M226.581 81H224.48V76.7111H220.545V81H218.438V71.0629H220.545V74.9576H224.48V71.0629H226.581V81Z" fill="white"/>
<path d="M228.26 81V71.0629H230.367V81H228.26Z" fill="white"/>
<path d="M243.834 76.0179C243.834 77.6627 243.426 78.9269 242.61 79.8105C241.794 80.6941 240.625 81.1359 239.103 81.1359C237.58 81.1359 236.411 80.6941 235.596 79.8105C234.78 78.9269 234.372 77.6582 234.372 76.0043C234.372 74.3504 234.78 73.0884 235.596 72.2184C236.416 71.3439 237.589 70.9066 239.117 70.9066C240.644 70.9066 241.81 71.3461 242.617 72.2252C243.428 73.1043 243.834 74.3685 243.834 76.0179ZM236.581 76.0179C236.581 77.128 236.792 77.964 237.213 78.5259C237.635 79.0878 238.265 79.3687 239.103 79.3687C240.784 79.3687 241.625 78.2518 241.625 76.0179C241.625 73.7794 240.789 72.6602 239.117 72.6602C238.278 72.6602 237.646 72.9434 237.22 73.5098C236.794 74.0717 236.581 74.9077 236.581 76.0179Z" fill="white"/>
<path d="M247.131 81H245.058V71.0629H250.754V72.7894H247.131V75.3518H250.502V77.0714H247.131V81Z" fill="white"/>
<path d="M257.736 75.1547L259.809 71.0629H262.079L258.782 77.1326V81H256.689V77.2005L253.392 71.0629H255.676L257.736 75.1547Z" fill="white"/>
<path d="M271.514 76.0179C271.514 77.6627 271.106 78.9269 270.29 79.8105C269.475 80.6941 268.306 81.1359 266.783 81.1359C265.261 81.1359 264.091 80.6941 263.276 79.8105C262.46 78.9269 262.052 77.6582 262.052 76.0043C262.052 74.3504 262.46 73.0884 263.276 72.2184C264.096 71.3439 265.27 70.9066 266.797 70.9066C268.324 70.9066 269.49 71.3461 270.297 72.2252C271.108 73.1043 271.514 74.3685 271.514 76.0179ZM264.261 76.0179C264.261 77.128 264.472 77.964 264.894 78.5259C265.315 79.0878 265.945 79.3687 266.783 79.3687C268.464 79.3687 269.305 78.2518 269.305 76.0179C269.305 73.7794 268.469 72.6602 266.797 72.6602C265.958 72.6602 265.326 72.9434 264.9 73.5098C264.474 74.0717 264.261 74.9077 264.261 76.0179Z" fill="white"/>
<path d="M280.826 71.0629V77.4928C280.826 78.2269 280.661 78.8703 280.33 79.4231C280.004 79.9759 279.53 80.3996 278.909 80.6941C278.289 80.9886 277.555 81.1359 276.707 81.1359C275.429 81.1359 274.437 80.8097 273.73 80.1572C273.023 79.5001 272.67 78.6029 272.67 77.4656V71.0629H274.77V77.1461C274.77 77.9119 274.924 78.4738 275.232 78.8318C275.541 79.1897 276.05 79.3687 276.762 79.3687C277.45 79.3687 277.949 79.1897 278.257 78.8318C278.57 78.4693 278.726 77.9029 278.726 77.1326V71.0629H280.826Z" fill="white"/>
<path d="M284.531 75.4741H285.211C285.877 75.4741 286.369 75.3631 286.686 75.1411C287.003 74.919 287.162 74.5701 287.162 74.0944C287.162 73.6231 286.999 73.2878 286.672 73.0884C286.351 72.889 285.85 72.7894 285.17 72.7894H284.531V75.4741ZM284.531 77.1869V81H282.424V71.0629H285.32C286.67 71.0629 287.669 71.3099 288.317 71.8038C288.965 72.2932 289.289 73.0386 289.289 74.04C289.289 74.6245 289.128 75.1456 288.807 75.6033C288.485 76.0564 288.029 76.4121 287.44 76.6704C288.936 78.9043 289.91 80.3475 290.363 81H288.025L285.653 77.1869H284.531Z" fill="white"/>
<path d="M293.559 81V71.0629H295.666V79.26H299.697V81H293.559Z" fill="white"/>
<path d="M300.595 81V71.0629H302.702V81H300.595Z" fill="white"/>
<path d="M306.441 81H304.368V71.0629H310.064V72.7894H306.441V75.3518H309.812V77.0714H306.441V81Z" fill="white"/>
<path d="M316.895 81H311.172V71.0629H316.895V72.7894H313.279V74.9711H316.644V76.6976H313.279V79.26H316.895V81Z" fill="white"/>
<path d="M195.202 41.4316C195.202 42.5918 194.783 43.5059 193.945 44.1738C193.113 44.8418 191.953 45.1758 190.465 45.1758C189.094 45.1758 187.881 44.918 186.826 44.4023V41.8711C187.693 42.2578 188.426 42.5303 189.023 42.6885C189.627 42.8467 190.178 42.9258 190.676 42.9258C191.273 42.9258 191.73 42.8115 192.047 42.583C192.369 42.3545 192.53 42.0146 192.53 41.5635C192.53 41.3115 192.46 41.0889 192.319 40.8955C192.179 40.6963 191.971 40.5059 191.695 40.3242C191.426 40.1426 190.872 39.8525 190.034 39.4541C189.249 39.085 188.66 38.7305 188.268 38.3906C187.875 38.0508 187.562 37.6553 187.327 37.2041C187.093 36.7529 186.976 36.2256 186.976 35.6221C186.976 34.4854 187.359 33.5918 188.127 32.9414C188.9 32.291 189.967 31.9658 191.326 31.9658C191.994 31.9658 192.63 32.0449 193.233 32.2031C193.843 32.3613 194.479 32.584 195.141 32.8711L194.262 34.9893C193.576 34.708 193.008 34.5117 192.557 34.4004C192.111 34.2891 191.672 34.2334 191.238 34.2334C190.723 34.2334 190.327 34.3535 190.052 34.5938C189.776 34.834 189.639 35.1475 189.639 35.5342C189.639 35.7744 189.694 35.9854 189.806 36.167C189.917 36.3428 190.093 36.5156 190.333 36.6855C190.579 36.8496 191.156 37.1484 192.064 37.582C193.266 38.1562 194.089 38.7334 194.534 39.3135C194.979 39.8877 195.202 40.5938 195.202 41.4316Z" fill="white"/>
<path d="M207.99 32.1504V40.4648C207.99 41.4141 207.776 42.2461 207.349 42.9609C206.927 43.6758 206.314 44.2236 205.512 44.6045C204.709 44.9854 203.76 45.1758 202.664 45.1758C201.012 45.1758 199.729 44.7539 198.814 43.9102C197.9 43.0605 197.443 41.9004 197.443 40.4297V32.1504H200.159V40.0166C200.159 41.0068 200.358 41.7334 200.757 42.1963C201.155 42.6592 201.814 42.8906 202.734 42.8906C203.625 42.8906 204.27 42.6592 204.668 42.1963C205.072 41.7275 205.274 40.9951 205.274 39.999V32.1504H207.99Z" fill="white"/>
<path d="M211.137 32.1504H215.136C216.958 32.1504 218.279 32.4111 219.1 32.9326C219.926 33.4482 220.339 34.2715 220.339 35.4023C220.339 36.1699 220.157 36.7998 219.794 37.292C219.437 37.7842 218.959 38.0801 218.361 38.1797V38.2676C219.176 38.4492 219.762 38.7891 220.119 39.2871C220.482 39.7852 220.664 40.4473 220.664 41.2734C220.664 42.4453 220.239 43.3594 219.39 44.0156C218.546 44.6719 217.397 45 215.944 45H211.137V32.1504ZM213.861 37.2393H215.443C216.182 37.2393 216.715 37.125 217.043 36.8965C217.377 36.668 217.544 36.29 217.544 35.7627C217.544 35.2705 217.362 34.9189 216.999 34.708C216.642 34.4912 216.073 34.3828 215.294 34.3828H213.861V37.2393ZM213.861 39.4014V42.75H215.637C216.387 42.75 216.94 42.6064 217.298 42.3193C217.655 42.0322 217.834 41.5928 217.834 41.001C217.834 39.9346 217.072 39.4014 215.549 39.4014H213.861Z" fill="white"/>
<path d="M233.76 45H231.044V39.4541H225.955V45H223.23V32.1504H225.955V37.1865H231.044V32.1504H233.76V45Z" fill="white"/>
<path d="M244.878 45L243.946 41.9414H239.262L238.33 45H235.395L239.93 32.0977H243.261L247.813 45H244.878ZM243.296 39.6562C242.435 36.8848 241.948 35.3174 241.837 34.9541C241.731 34.5908 241.655 34.3037 241.608 34.0928C241.415 34.8428 240.861 36.6973 239.947 39.6562H243.296Z" fill="white"/>
<path d="M257.024 41.4316C257.024 42.5918 256.605 43.5059 255.768 44.1738C254.936 44.8418 253.775 45.1758 252.287 45.1758C250.916 45.1758 249.703 44.918 248.648 44.4023V41.8711C249.516 42.2578 250.248 42.5303 250.846 42.6885C251.449 42.8467 252 42.9258 252.498 42.9258C253.096 42.9258 253.553 42.8115 253.869 42.583C254.191 42.3545 254.353 42.0146 254.353 41.5635C254.353 41.3115 254.282 41.0889 254.142 40.8955C254.001 40.6963 253.793 40.5059 253.518 40.3242C253.248 40.1426 252.694 39.8525 251.856 39.4541C251.071 39.085 250.482 38.7305 250.09 38.3906C249.697 38.0508 249.384 37.6553 249.149 37.2041C248.915 36.7529 248.798 36.2256 248.798 35.6221C248.798 34.4854 249.182 33.5918 249.949 32.9414C250.723 32.291 251.789 31.9658 253.148 31.9658C253.816 31.9658 254.452 32.0449 255.056 32.2031C255.665 32.3613 256.301 32.584 256.963 32.8711L256.084 34.9893C255.398 34.708 254.83 34.5117 254.379 34.4004C253.934 34.2891 253.494 34.2334 253.061 34.2334C252.545 34.2334 252.149 34.3535 251.874 34.5938C251.599 34.834 251.461 35.1475 251.461 35.5342C251.461 35.7744 251.517 35.9854 251.628 36.167C251.739 36.3428 251.915 36.5156 252.155 36.6855C252.401 36.8496 252.979 37.1484 253.887 37.582C255.088 38.1562 255.911 38.7334 256.356 39.3135C256.802 39.8877 257.024 40.5938 257.024 41.4316Z" fill="white"/>
<path d="M269.883 45H267.167V39.4541H262.078V45H259.354V32.1504H262.078V37.1865H267.167V32.1504H269.883V45Z" fill="white"/>
<path d="M193.075 52.2334C192.05 52.2334 191.256 52.6201 190.693 53.3936C190.131 54.1611 189.85 55.2334 189.85 56.6104C189.85 59.4756 190.925 60.9082 193.075 60.9082C193.978 60.9082 195.07 60.6826 196.354 60.2314V62.5166C195.299 62.9561 194.121 63.1758 192.82 63.1758C190.951 63.1758 189.521 62.6104 188.531 61.4795C187.541 60.3428 187.046 58.7139 187.046 56.5928C187.046 55.2568 187.289 54.0879 187.775 53.0859C188.262 52.0781 188.959 51.3076 189.867 50.7744C190.781 50.2354 191.851 49.9658 193.075 49.9658C194.323 49.9658 195.577 50.2676 196.837 50.8711L195.958 53.0859C195.478 52.8574 194.994 52.6582 194.508 52.4883C194.021 52.3184 193.544 52.2334 193.075 52.2334Z" fill="white"/>
<path d="M209.625 63H206.909V57.4541H201.82V63H199.096V50.1504H201.82V55.1865H206.909V50.1504H209.625V63Z" fill="white"/>
<path d="M220.743 63L219.812 59.9414H215.127L214.195 63H211.26L215.795 50.0977H219.126L223.679 63H220.743ZM219.161 57.6562C218.3 54.8848 217.813 53.3174 217.702 52.9541C217.597 52.5908 217.521 52.3037 217.474 52.0928C217.28 52.8428 216.727 54.6973 215.812 57.6562H219.161Z" fill="white"/>
<path d="M236.704 63H233.241L227.651 53.2793H227.572C227.684 54.9961 227.739 56.2207 227.739 56.9531V63H225.305V50.1504H228.741L234.322 59.7744H234.384C234.296 58.1045 234.252 56.9238 234.252 56.2324V50.1504H236.704V63Z" fill="white"/>
<path d="M250.608 56.4521C250.608 58.5674 250.005 60.1875 248.798 61.3125C247.597 62.4375 245.859 63 243.586 63H239.947V50.1504H243.981C246.079 50.1504 247.708 50.7041 248.868 51.8115C250.028 52.9189 250.608 54.4658 250.608 56.4521ZM247.778 56.5225C247.778 53.7627 246.56 52.3828 244.122 52.3828H242.672V60.75H243.841C246.466 60.75 247.778 59.3408 247.778 56.5225Z" fill="white"/>
<path d="M255.996 55.8545H256.875C257.736 55.8545 258.372 55.7109 258.782 55.4238C259.192 55.1367 259.397 54.6855 259.397 54.0703C259.397 53.4609 259.187 53.0273 258.765 52.7695C258.349 52.5117 257.701 52.3828 256.822 52.3828H255.996V55.8545ZM255.996 58.0693V63H253.271V50.1504H257.016C258.762 50.1504 260.054 50.4697 260.892 51.1084C261.729 51.7412 262.148 52.7051 262.148 54C262.148 54.7559 261.94 55.4297 261.524 56.0215C261.108 56.6074 260.52 57.0674 259.758 57.4014C261.691 60.29 262.951 62.1562 263.537 63H260.514L257.446 58.0693H255.996Z" fill="white"/>
<path d="M273.021 63L272.089 59.9414H267.404L266.473 63H263.537L268.072 50.0977H271.403L275.956 63H273.021ZM271.438 57.6562C270.577 54.8848 270.091 53.3174 269.979 52.9541C269.874 52.5908 269.798 52.3037 269.751 52.0928C269.558 52.8428 269.004 54.6973 268.09 57.6562H271.438Z" fill="white"/>
</g>
<defs>
<linearGradient id="paint0_linear_34310_185248" x1="68.097" y1="71.7126" x2="41.2903" y2="82.0525" gradientUnits="userSpaceOnUse">
<stop offset="0.0216" stop-color="white"/>
<stop offset="0.1681" stop-color="#F3F3F4" stop-opacity="0.9309"/>
<stop offset="0.2988" stop-color="#C0C0C1" stop-opacity="0.7848"/>
<stop offset="0.4891" stop-color="#7D7D7D" stop-opacity="0.5718"/>
<stop offset="0.6614" stop-color="#474747" stop-opacity="0.379"/>
<stop offset="0.8093" stop-color="#202021" stop-opacity="0.2135"/>
<stop offset="0.927" stop-color="#090909" stop-opacity="0.0816"/>
<stop offset="1" stop-opacity="0"/>
</linearGradient>
<clipPath id="clip0_34310_185248">
<rect width="323" height="95" fill="white"/>
</clipPath>
</defs>
</svg>
