<svg width="192" height="58" viewBox="0 0 192 58" fill="none" xmlns="http://www.w3.org/2000/svg">
<g clip-path="url(#clip0_29983_47915)">
<path d="M125.082 9.68115C125.041 9.87731 124.993 10.0735 124.916 10.2577C124.673 10.87 124.132 11.7141 122.927 12.2194C122.303 12.4809 121.656 12.6355 120.984 12.683C119.66 13.2477 118.24 13.2596 118.217 13.2596L117.938 13.2537C117.456 13.2239 116.981 13.1169 116.53 12.9386C116.275 13.2596 115.835 13.7589 115.146 14.1275C114.421 14.5198 113.477 14.716 112.331 14.716C111.695 14.716 110.626 14.6565 109.64 14.3058C109.331 14.5198 108.981 14.7278 108.577 14.924V14.9181C107.71 15.3639 106.457 15.78 104.699 16.3685L104.437 16.4576L103.701 16.5587L103.107 18.3895C102.875 19.0969 102.555 20.0361 102.103 21.0109C102.026 21.1833 101.943 21.3557 101.86 21.5221L101.866 21.9323C101.884 22.5089 101.901 23.1271 101.943 23.7394L101.955 23.8701L101.949 24.0009C101.949 24.0128 101.919 25.4691 102.008 27.401C102.115 29.7074 102.418 31.9187 102.834 33.4642C103.161 34.653 103.535 35.3782 103.832 35.9667L103.933 36.1688C104.259 36.7454 105.043 38.2315 104.253 39.8127C103.772 40.7816 102.828 41.4414 101.735 41.5722L101.551 41.5959H101.325C99.7929 41.5959 98.4209 40.5973 97.7379 40.0029C96.5976 39.0221 95.7245 37.7025 95.1603 36.6979C94.7148 36.0559 94.406 35.2653 94.0971 34.4807C93.818 33.7733 93.4557 32.7925 93.135 31.669C92.6182 32.0911 92.0659 32.5072 91.4838 32.8876C90.1118 33.7852 87.9559 35.0097 85.0753 35.295C84.713 35.3247 84.422 35.3366 84.131 35.3366C82.7293 35.3366 81.4286 35.0632 80.2823 34.5163C78.6906 33.803 77.277 32.5428 76.4336 31.0568C76.0654 30.4802 75.8516 29.9273 75.6912 29.4994C72.9651 30.076 70.3815 30.4326 68.4215 30.6882L68.2314 30.712L67.9582 30.7179C67.2039 30.7179 66.6338 30.4564 66.3606 30.3078C65.3628 29.8203 64.5491 29.1011 63.9967 28.2451L61.0627 29.6123C61.2112 30.9616 61.2528 32.3169 61.1637 33.6722C60.932 36.8286 60.1005 39.8067 58.6989 42.5292C57.3566 45.2101 55.4441 47.6888 53.1991 49.6861C51.3876 51.3148 49.4454 52.5929 47.9249 53.538L47.824 53.6034C47.824 53.6034 47.6814 53.6985 47.0875 54.0551L46.4461 54.4356L46.2441 54.5485C45.8996 54.7447 45.5195 54.9587 45.0681 55.1964C43.6249 55.9692 42.0866 56.6587 40.5067 57.2532C40.388 57.2948 40.2692 57.3304 40.1504 57.378H192.024V9.68115H125.082Z" fill="#EE6C4D"/>
<path d="M60.902 18.0802C59.6488 17.8246 58.0095 17.9137 58.0095 17.9137C58.0095 17.9137 48.7917 20.9572 48.661 20.9988C48.6432 21.0226 48.6373 21.1533 48.6373 21.1831C48.6907 23.0674 49.4866 24.4108 49.8905 24.8982C49.9558 24.9815 49.9617 24.9815 49.9855 24.9755C50.1162 24.9339 59.1914 21.9142 59.1914 21.9142C59.1914 21.9142 61.7335 20.333 61.5909 20.2855C62.5412 19.4533 62.9688 18.3358 60.902 18.0802ZM36.7587 20.9631C36.6577 20.8977 36.3964 20.8264 36.3429 20.8205C34.7215 20.6421 34.1038 21.3673 33.9316 22.0212C33.6999 22.6751 33.7653 23.3587 33.8246 23.8223C33.8365 23.965 33.8543 23.9828 33.9137 24.0363C34.5552 24.6367 35.06 25.3441 35.351 26.093C35.6302 26.842 35.6836 27.6445 35.6243 28.4826C35.3867 30.0163 34.5849 31.6688 33.3911 33.1489C33.1416 33.5353 32.7971 33.8919 32.4764 34.2486L31.5083 35.3245C30.8491 35.9902 30.1542 36.5787 29.4296 37.0543C29.0494 37.3039 28.6574 37.5179 28.2536 37.6963C26.4599 36.7392 25.0345 36.1151 25.0345 36.1151C24.3871 35.8833 23.7159 35.6574 22.9616 35.4731C22.5815 35.3839 22.1895 35.3007 21.7025 35.2591C21.2511 35.2234 20.6453 35.1759 19.7901 35.4909C19.6 35.5741 19.4159 35.6693 19.2377 35.7703C19.0417 35.913 18.8457 36.0854 18.6794 36.2696L18.5547 36.4123C18.5131 36.4598 18.4121 36.6203 18.3527 36.7333C18.2874 36.8581 18.228 36.9948 18.1864 37.1256C18.1389 37.2683 18.1092 37.405 18.1033 37.4525C18.0558 37.7379 18.0617 38.1124 18.0914 38.2491C18.2102 39.0278 18.4418 39.4201 18.6794 39.8184C19.1605 40.5911 19.7663 41.1499 20.4374 41.5779C21.7916 42.4338 23.3061 42.6835 24.6484 42.6359C25.8244 42.5943 27.0241 42.4576 28.2536 42.1188C28.5268 42.0415 28.794 41.9524 29.0673 41.8572C31.5796 42.7548 33.9909 43.4563 33.789 43.3195C34.9769 43.6108 36.1232 43.7713 37.0556 43.7356C37.9822 43.7178 38.683 43.4265 38.8434 43.1828C39.0037 42.9272 38.7305 42.8202 38.0831 42.6181C37.4357 42.416 36.3489 41.988 34.6858 41.1796C33.985 40.817 33.2248 40.4009 32.4586 39.9848C33.1773 39.4439 33.8543 38.8732 34.4601 38.2669C34.8581 37.8508 35.2263 37.4228 35.6064 37.0008C35.9866 36.5787 36.3726 36.1686 36.7052 35.6752C38.1247 33.88 39.3541 31.6628 39.758 29.0236C39.9065 27.5553 39.7877 26.0039 39.2413 24.5772C38.6949 23.1566 37.8099 21.938 36.7587 20.9631ZM20.384 37.8092L20.3662 37.7914C20.1999 37.6665 20.283 37.7319 20.4196 37.827L20.384 37.8092ZM114.1 8.68226C113.768 8.61687 113.423 8.65254 113.091 8.61687C112.627 8.56338 112.188 8.36722 111.742 8.23644C111.291 8.10567 110.792 8.04028 110.37 8.23644C109.082 8.83681 109.266 10.4358 110.388 11.1194C111.065 11.5355 113.055 11.6128 113.708 11.2561C113.928 11.1372 114.088 10.9351 114.243 10.739C114.403 10.5309 114.564 10.3169 114.694 10.0851C114.837 9.83545 114.956 9.53824 114.872 9.2648C114.771 8.93787 114.433 8.74765 114.1 8.68226ZM121.798 8.42666C121.643 8.36722 121.483 8.3791 121.317 8.40288C121.412 8.34938 121.501 8.24833 121.542 8.14133C121.614 7.97489 121.293 7.7074 121.014 7.70146C121.008 7.48152 119.915 6.98814 119.428 7.15458C119.297 7.20214 119.167 7.25564 119.03 7.26158C118.87 7.26752 118.721 7.20808 118.573 7.16053C117.931 6.95248 117.165 6.9822 116.666 7.42802C115.538 8.43855 117.017 9.96622 118.121 10.0316C118.917 10.0792 120.331 9.51446 120.182 9.44907C120.711 9.51446 121.257 9.43718 121.744 9.22913C121.881 9.16969 122.029 9.09242 122.083 8.94975C122.172 8.7417 122.006 8.50393 121.798 8.42666ZM106.967 9.69279C105.441 9.2648 103.332 9.12214 103.332 9.12214L101.289 9.40746C101.099 9.14591 100.856 8.90814 100.481 8.71793C99.8163 8.38505 99.5134 8.43855 99.1036 8.43855C99.0086 8.44449 98.9016 8.45044 98.8185 8.46827L98.6581 8.50393L98.3433 8.5931L98.0404 8.69415L97.8445 8.78926L97.4525 8.98542C97.2802 9.08053 96.9654 9.3183 96.7635 9.5204C96.5794 9.72845 96.4368 9.91867 96.318 10.097L92.2496 10.6617L90.3609 11.1848C90.3372 11.2086 90.3075 11.3394 90.3015 11.375C90.0996 13.3069 90.9251 14.6563 91.3706 15.1496C91.4419 15.2329 91.4538 15.2328 91.4834 15.2269L93.1049 14.7751L95.0233 14.5076C94.8392 15.8154 94.7204 17.1053 94.6669 18.3833L94.6372 19.3641C94.3818 19.7446 94.1146 20.119 93.8057 20.5054C92.9445 21.5694 91.9586 22.6216 90.9311 23.6499C90.4322 24.1552 89.8739 24.708 89.3809 25.1598L88.6385 25.8255L87.8664 26.42C86.833 27.1511 85.6867 27.7455 84.6948 27.8763C84.19 27.9714 83.7802 27.912 83.4416 27.8347C83.1268 27.7218 82.919 27.5494 82.7051 27.2938C82.4913 27.0382 82.3547 26.5924 82.2478 26.1109C82.1825 25.5878 82.129 25.029 82.2181 24.5772C82.7883 24.4108 83.3763 24.2146 83.9999 23.9412C84.4275 23.7391 84.8671 23.5132 85.2887 23.2041C85.5026 23.0674 85.7045 22.8831 85.9064 22.7167C85.9421 22.6929 86.049 22.58 86.1143 22.5146C86.1915 22.4314 86.2509 22.3779 86.3578 22.2352C86.5182 22.0093 86.7617 21.724 86.8983 21.0345C86.928 20.8502 86.9339 20.66 86.928 20.4757C86.9042 20.2498 86.8508 20.012 86.7676 19.7921C86.6845 19.5603 86.5776 19.4117 86.4529 19.2393C86.3341 19.0788 86.1618 18.9064 86.0668 18.8351C85.847 18.6567 85.562 18.5022 85.4194 18.4546C85.2294 18.3774 85.0571 18.3298 84.9383 18.306C84.3919 18.199 84.0415 18.2228 83.7148 18.2585C83.0674 18.3298 82.5507 18.4963 82.0459 18.7102C81.06 19.1382 80.1928 19.7981 79.5098 20.6362C79.4148 20.7551 79.3316 20.8799 79.2485 21.0047C78.999 21.0582 78.7555 21.1177 78.5001 21.1771C77.7636 21.3436 77.0094 21.5219 76.2551 21.7181L75.1919 21.9915L74.1644 22.2293C72.0025 22.687 69.7396 23.0258 67.4886 23.3111C67.3996 23.3408 67.2273 23.4835 67.1917 23.5192C65.2495 25.564 66.6987 26.9312 67.7262 27.4067C67.8747 27.4899 67.9103 27.484 68.0113 27.4721C70.3514 27.1689 72.6737 26.8301 75.0434 26.3249L76.1778 26.0633L77.2707 25.778C77.5083 25.7185 77.7577 25.6591 77.9953 25.6056C78.0072 25.8731 78.0309 26.1346 78.0606 26.3902C78.0844 26.848 78.2507 27.3532 78.3576 27.8288C78.5476 28.3162 78.6961 28.8155 79.0168 29.2851C79.5395 30.254 80.5135 31.0981 81.5589 31.5677C82.6279 32.073 83.7445 32.1443 84.7423 32.073C86.7439 31.8709 88.3712 31.0684 89.7848 30.147C91.1805 29.2316 92.4397 28.0428 93.4553 27.0203C93.9601 26.521 94.459 26.0098 94.952 25.4867C95.1183 26.5924 95.3678 28.0011 95.7122 29.3862C96.3774 32.3286 97.7019 35.0867 97.6781 34.8073C98.278 35.9308 98.9967 36.8938 99.7094 37.506C100.416 38.1242 101.064 38.3739 101.337 38.3501C101.622 38.3145 101.574 38.0172 101.23 37.4109C100.915 36.7749 100.351 35.7763 99.8697 34.0405C99.3233 31.9957 99.0442 29.3981 98.9492 27.3294C98.8541 25.2608 98.8838 23.7213 98.8838 23.7213C98.8423 23.0674 98.8185 22.4135 98.8007 21.7597L98.7888 20.7789V20.5589C98.9789 20.2201 99.157 19.8753 99.3233 19.5187C99.6797 18.7459 99.9588 17.9672 100.196 17.2301L100.879 15.1377C101.04 14.6444 101.206 14.1272 101.366 13.5922L103.73 13.2594C103.73 13.2594 107.407 12.0348 107.234 11.9694C108.684 11.2918 109.527 10.2337 106.967 9.69279Z" fill="#201429"/>
<path d="M70.6245 24.203C69.8108 25.0054 69.3238 25.368 69.3238 25.368C69.7455 25.0649 70.4819 24.5061 71.3788 23.5134C71.8302 23.026 72.3053 22.4019 72.7686 21.6469C73.2318 20.8861 73.6654 19.9588 73.9267 18.8472C74.194 17.7475 74.2593 16.4635 74.0277 15.1855C73.802 13.9015 73.2972 12.6532 72.626 11.506C72.2994 10.9175 71.9014 10.3944 71.5035 9.84755C71.2897 9.59195 71.0759 9.33634 70.862 9.0748C70.767 8.94997 70.571 8.74192 70.3869 8.57548C70.2147 8.42093 70.0899 8.31393 69.9533 8.20099C69.4188 7.76111 68.914 7.37473 68.3735 6.97647C68.0943 6.78031 67.8152 6.58415 67.536 6.38204C67.2213 6.17994 66.9777 5.98972 66.4254 5.70439C62.8321 3.95678 58.6865 2.49449 54.1607 1.60879C51.8919 1.20458 49.5459 0.907367 47.1523 0.80037C44.7588 0.711206 42.3237 0.776593 39.8826 1.01436C30.1184 2.00111 20.5383 5.94811 13.2983 11.4941C9.66342 14.2523 6.60468 17.4324 4.32399 20.7791C4.05078 21.2071 3.77757 21.6291 3.5103 22.0452C3.26085 22.491 3.01734 22.9309 2.77383 23.3589C2.56001 23.8047 2.35214 24.2446 2.14426 24.6726C1.9542 25.1124 1.7879 25.5523 1.60972 25.9803C0.962339 27.7101 0.564406 29.3745 0.320894 30.9081C-0.166129 33.9813 -0.0057678 36.4957 0.196169 38.1958C0.297137 39.0518 0.421862 39.7056 0.516891 40.1515C0.600042 40.5973 0.659435 40.8291 0.659435 40.8291C1.50282 44.5086 3.19552 47.7482 5.28022 50.227C6.31366 51.4693 7.44806 52.5215 8.60029 53.3656C9.15858 53.8114 9.75845 54.1562 10.3108 54.5128C10.8869 54.8338 11.4393 55.137 11.9798 55.3866C14.1654 56.3734 16.0244 56.7776 17.2954 56.95C17.925 57.0629 18.4239 57.0629 18.7506 57.1045C19.0832 57.1283 19.2554 57.1402 19.2554 57.1402C21.0313 57.2353 22.4448 57.1937 23.8702 57.1402C25.2779 57.0926 26.6142 56.9916 27.8615 56.8786C30.3619 56.6349 32.5476 56.2426 34.4185 55.7849C38.1602 54.8516 40.6547 53.7579 42.3534 52.9614C44.052 52.147 44.9726 51.5585 45.5012 51.2554C46.0239 50.9403 46.1486 50.863 46.1486 50.863C46.1486 50.863 46.0951 50.0546 45.8813 49.8406C45.6675 49.6266 44.8598 49.4899 44.64 49.27C44.4203 49.05 43.7966 48.2713 43.7966 48.2713C43.66 47.9801 43.4284 47.6353 43.4284 47.6353L42.7454 47.9801C38.9086 50.1378 34.8461 51.4337 30.6826 52.2183C28.6039 52.6166 26.4954 52.8544 24.387 52.997C23.3298 53.0624 22.2785 53.11 21.2213 53.1397C20.7105 53.1456 20.2354 53.1337 19.7424 53.1337C19.2554 53.0981 18.7743 53.0565 18.2873 53.0089C14.4446 52.5215 10.9107 50.6312 8.44587 47.772C5.93354 44.9485 4.46653 41.3403 3.89636 37.75C3.32618 34.1418 3.66472 30.4861 4.78725 27.2286C5.88603 23.9533 7.89351 21.1654 10.0138 18.7283C14.3614 13.8956 19.493 10.5549 24.3751 8.26043C26.828 7.11319 29.2334 6.22155 31.5498 5.5439C33.8661 4.87814 36.0874 4.42043 38.1602 4.11133C42.3237 3.52879 45.9229 3.55257 48.7975 3.82006C51.6781 4.09944 53.8459 4.55715 55.2892 4.92569C56.0197 5.08619 56.5543 5.26452 56.9166 5.37152C57.2789 5.47851 57.463 5.53795 57.463 5.53795C60.7296 6.41176 63.2241 7.47579 65.1544 8.35554C65.683 8.63492 66.2294 9.03319 66.6867 9.36012C67.1559 9.69895 67.5717 10.014 67.9399 10.3112C68.124 10.4598 68.2963 10.6025 68.4388 10.7332C68.5754 10.8521 68.6883 10.9948 68.813 11.1434C69.0327 11.4109 69.2406 11.6427 69.395 11.8686C69.2347 11.6189 69.0387 11.3455 68.8189 11.0602C68.4744 10.549 67.8389 10.0556 67.2331 9.53251C66.6154 9.02724 65.9502 8.48037 65.291 8.07616C64.1031 7.48173 62.9806 6.8873 62.1194 6.54254C61.2701 6.17399 60.7236 5.93622 60.7236 5.93622L62.7014 6.78031C63.3607 7.05969 63.9903 7.40446 64.6377 7.70761L65.3207 8.01077C66.265 8.53981 67.1678 9.23529 68.0409 9.90699C68.2606 10.0794 68.4744 10.2518 68.6764 10.436C68.8783 10.6084 69.0446 10.8343 69.2228 11.0424C69.591 11.4525 69.9058 11.9102 70.2265 12.356C70.0187 12.035 69.8108 11.7141 69.591 11.399C69.3535 11.0958 69.1278 10.7867 68.8843 10.4895C68.3497 9.94266 67.738 9.45523 67.144 8.9678C67.4173 9.15207 67.7855 9.41362 68.1953 9.73461C68.4032 9.89511 68.6229 10.0734 68.8486 10.2755C69.0803 10.4836 69.2584 10.7392 69.4782 10.9889C70.3097 11.9934 71.1234 13.2833 71.5451 14.6327C71.9608 15.982 71.9252 17.3373 71.6936 18.2706C71.6282 18.5024 71.5688 18.7105 71.5154 18.8947C71.4441 19.0731 71.3847 19.2276 71.3372 19.3584C71.2897 19.4892 71.2422 19.5843 71.2125 19.6437C71.1828 19.7091 71.1649 19.7448 71.1649 19.7448C71.4025 19.3643 71.7054 18.7283 71.8836 17.8426C72.0618 16.9628 72.0855 15.8037 71.7173 14.5495C71.3491 13.3012 70.6245 11.9875 69.6267 10.7392C69.5019 10.5787 69.3713 10.4241 69.2406 10.2637C69.0921 10.0913 68.9258 9.9486 68.7714 9.81189C68.4566 9.53845 68.13 9.27096 67.7974 9.00347C67.4648 8.73597 67.1203 8.47443 66.7639 8.21288C66.3957 7.95133 66.0572 7.68978 65.5939 7.44012C61.6918 5.46662 56.9878 3.79034 52.082 2.99975C49.635 2.60743 47.1523 2.38749 44.735 2.36966C42.3177 2.36966 39.9658 2.5361 37.7682 2.82737C33.3791 3.45746 29.6314 4.54526 27.03 5.51418C26.3826 5.76384 25.8005 5.98972 25.2897 6.19182C24.7849 6.39393 24.3573 6.59604 24.0069 6.74464C23.6564 6.89919 23.3832 7.01808 23.205 7.09535C23.0269 7.17857 22.9318 7.22613 22.9318 7.22613C23.4842 6.85758 24.8502 6.12049 26.8577 5.2883L26.9884 5.2348L27.6952 4.98514C28.0515 4.86031 28.4316 4.72953 28.8355 4.58687C30.7658 3.933 34.7689 2.75009 39.9301 2.20322C42.2702 1.98922 44.6044 1.91789 46.8613 2.00111C49.2489 2.12 51.6187 2.39938 53.9053 2.82737C58.0213 3.64173 62.2738 5.08619 65.8671 6.8873C66.1225 7.01213 66.3125 7.13696 66.4907 7.25585C66.5264 7.27963 66.562 7.3034 66.5917 7.32124L66.8233 7.48173C66.948 7.56495 67.0668 7.64817 67.1856 7.73139C67.542 7.98105 67.8983 8.2426 68.2725 8.52792C68.6883 8.84297 68.9912 9.08669 69.2763 9.3304C69.4188 9.44929 69.6267 9.63356 69.7989 9.82378C69.9296 9.98427 70.0602 10.1388 70.1909 10.2934C71.1768 11.4763 71.8955 12.677 72.3409 13.8599C72.7329 14.8942 72.917 15.9404 72.8933 16.9807C72.8695 17.8485 72.6914 18.5559 72.5013 19.186L72.5132 19.1919C72.7032 18.5559 72.8814 17.8545 72.9052 16.9807C72.9289 15.9464 72.7448 14.8942 72.3528 13.8599C71.9074 12.6711 71.1887 11.4703 70.2028 10.2874C70.0721 10.1329 69.9415 9.97833 69.8108 9.81783C69.6385 9.62761 69.4307 9.44334 69.2881 9.31851C69.003 9.0748 68.7001 8.83108 68.2844 8.51604C67.9102 8.23071 67.5538 7.96916 67.1975 7.7195C67.0787 7.63628 66.954 7.55306 66.8352 7.46984L66.6036 7.30935C66.5679 7.28557 66.5323 7.26774 66.5026 7.24396C66.3185 7.12508 66.1344 7.00619 65.873 6.87542C62.2738 5.0743 58.0272 3.63579 53.9053 2.81548C51.6187 2.38749 49.2489 2.10811 46.8554 1.98922C44.6044 1.91195 42.2702 1.97734 39.9242 2.19133C34.7629 2.7382 30.7539 3.92111 28.8296 4.57498C28.4257 4.71765 28.0456 4.84842 27.6892 4.97325L27.1428 5.16941C27.4932 5.02675 27.8615 4.88408 28.2535 4.74142C31.039 3.69523 34.7689 2.62526 39.0392 2.09028C40.1024 1.92978 41.2071 1.87034 42.3296 1.77523C43.4521 1.73362 44.5984 1.66823 45.7625 1.7039C46.9266 1.69201 48.0967 1.79306 49.2786 1.86439C50.4546 2.00111 51.6424 2.10217 52.8184 2.3221C57.5402 3.05325 62.0956 4.64037 66.0334 6.53065C66.4729 6.75653 66.7224 6.9408 67.0074 7.12508C67.2747 7.31529 67.536 7.49956 67.7974 7.68384C68.3081 8.05833 68.8011 8.43282 69.2881 8.83108L69.6623 9.15207C69.787 9.25907 69.9712 9.43145 70.0899 9.57412C70.2919 9.81783 70.4938 10.0556 70.6957 10.2993C70.8977 10.5252 71.064 10.7927 71.2481 11.0364C71.4263 11.2801 71.5985 11.5298 71.747 11.7913C72.3766 12.8137 72.8577 13.9075 73.0952 15.0131C73.3387 16.1128 73.3447 17.2006 73.1843 18.1517C73.024 19.0968 72.7329 19.9171 72.4003 20.571C72.0737 21.2308 71.7292 21.748 71.4382 22.1522C71.1412 22.5564 70.8917 22.8417 70.7254 23.0379C70.5591 23.2341 70.4641 23.3292 70.4641 23.3292C70.767 23.0617 71.355 22.497 72.0202 21.5162C72.6557 20.5354 73.4219 19.0552 73.5169 17.0877C73.5585 16.1188 73.4219 15.0666 73.1012 14.0383C72.7804 13.004 72.2578 12.0172 71.6401 11.0721C71.4797 10.8402 71.3194 10.6084 71.1531 10.3766C70.9808 10.1507 70.7967 9.93672 70.6185 9.71083L70.3335 9.36607C70.2206 9.22935 70.0484 9.06291 69.9236 8.94997C69.6801 8.73003 69.4604 8.54576 69.2347 8.36743C68.7892 8.00483 68.3378 7.66006 67.8686 7.30935C67.6311 7.13696 67.3935 6.96458 67.1381 6.78625C66.8768 6.61387 66.6333 6.43554 66.1997 6.20966C64.0259 5.15752 61.7096 4.16483 59.2388 3.38018C56.7681 2.60743 54.1904 2.00111 51.5771 1.61474C46.3565 0.871701 41.0705 1.00842 36.521 1.78117C31.9536 2.50043 28.1228 3.79034 25.462 4.83653C24.7908 5.09213 24.2029 5.34774 23.6861 5.57957C23.1754 5.81139 22.724 5.98972 22.3735 6.16805C21.6668 6.51282 21.2807 6.70303 21.2807 6.70303C21.8152 6.39393 23.6208 5.40124 26.4479 4.31343C29.2631 3.21374 33.1118 2.0665 37.5782 1.38885C39.8113 1.07381 42.193 0.88359 44.6519 0.853868C47.1108 0.847924 49.6409 1.03814 52.1592 1.40074C54.6774 1.76334 57.166 2.38749 59.5595 3.12458C61.965 3.86761 64.21 4.84248 66.366 5.853C66.9362 6.15022 67.1916 6.34638 67.5182 6.56631C67.8271 6.78031 68.1181 6.98836 68.4091 7.20235C68.9912 7.63628 69.5198 8.03455 70.1137 8.5517C70.2503 8.67059 70.4938 8.89647 70.6482 9.0748L71.0105 9.50278C71.2422 9.78217 71.4738 10.0497 71.6817 10.3528C72.1152 10.9294 72.4954 11.5476 72.8339 12.1837C73.505 13.4557 73.9386 14.8705 74.0218 16.2614C74.1108 17.6464 73.8555 18.9542 73.4456 20.0123C72.6082 22.1403 71.4085 23.3945 70.6245 24.203Z" fill="#EE6C4D"/>
<path d="M70.422 13.5744C70.3923 13.4674 70.315 13.295 70.1547 13.0276C70.0775 12.8908 69.9884 12.7303 69.8815 12.5401C69.7568 12.3618 69.6083 12.1537 69.442 11.91C69.4301 11.8922 69.4123 11.8684 69.4004 11.8506C69.8518 12.5461 70.0834 13.0811 70.119 13.2356C70.1369 13.2297 70.5704 13.9846 70.422 13.5744Z" fill="#EE6C4D"/>
<path d="M1.01524 26.7766C0.914268 27.062 0.831117 27.3354 0.753906 27.5969C0.902389 27.0798 1.07463 26.5686 1.25875 26.0574C1.16966 26.307 1.08651 26.5448 1.01524 26.7766ZM16.6653 8.72388C14.937 9.82357 13.2146 11.0838 11.5456 12.4569C8.46313 15.0248 5.83202 17.9078 3.93144 20.8026C3.78295 21.0345 3.64041 21.2603 3.49193 21.4862L3.26623 21.8488C3.11775 22.0985 2.97521 22.3541 2.8386 22.6038C2.77921 22.7048 2.72576 22.8118 2.66636 22.9129C2.51194 23.1803 2.38128 23.4538 2.25655 23.7213C2.22092 23.7986 2.18528 23.8758 2.14964 23.9472C2.10807 24.0423 2.06055 24.1314 2.01898 24.2206C1.90019 24.4643 1.79329 24.7021 1.69826 24.9399C1.54977 25.2965 1.42505 25.6175 1.3122 25.9147C1.85862 24.4465 2.5357 23.0199 3.34938 21.6824C6.59819 16.3682 11.1477 12.5163 14.3906 10.2159C17.7284 7.82629 20.6862 6.364 22.1117 5.69824C20.2289 6.61366 18.3937 7.63013 16.6653 8.72388Z" fill="#EE6C4D"/>
<path d="M66.4431 10.1924L66.455 10.1983L66.4609 10.1924L66.449 10.1864C66.3659 10.1211 66.253 10.0259 66.0095 9.84762C65.8848 9.75845 65.7244 9.64551 65.5165 9.4969C65.3978 9.41368 65.0414 9.16997 64.8216 9.05108C63.3546 8.32588 59.4525 6.38805 54.1606 5.27647C51.3513 4.6761 48.4648 4.34322 45.5842 4.28972C45.2873 4.28378 44.9844 4.27783 44.6815 4.27783C41.9256 4.27783 39.051 4.53344 36.3011 5.02087C33.4443 5.51424 30.5221 6.31672 27.6178 7.39858C25.1649 8.31399 22.7535 9.43152 20.6391 10.6263C18.9286 11.5952 17.325 12.6176 16.1193 13.4974C15.7095 13.7768 15.3888 14.0264 15.1275 14.2285C15.0562 14.288 14.9849 14.3355 14.9255 14.3831L14.5098 14.7041L14.5157 14.716L14.9315 14.395C14.9908 14.3474 15.0621 14.2939 15.1334 14.2404C15.3888 14.0383 15.7095 13.7946 16.1253 13.5093C17.3309 12.6295 18.9345 11.6131 20.6451 10.6382C22.7595 9.44341 25.1708 8.33183 27.6238 7.41641C30.5281 6.32861 33.4502 5.53207 36.307 5.0387C39.3598 4.49183 42.5671 4.24217 45.5902 4.30161C48.4648 4.35511 51.3513 4.68799 54.1665 5.28836C59.4585 6.39994 63.3606 8.33777 64.8276 9.06297C65.0473 9.17591 65.4037 9.42557 65.5225 9.50285C65.7304 9.65145 65.8907 9.7644 66.0154 9.85356C66.2471 10.0319 66.3599 10.127 66.4431 10.1924Z" fill="#EE6C4D"/>
<mask id="mask0_29983_47915" style="mask-type:alpha" maskUnits="userSpaceOnUse" x="18" y="19" width="57" height="43">
<path d="M64.2695 54.5605L20.6928 61.6758L18.5547 48.5508L49.0649 19.7152L74.8356 19.0435L64.2695 54.5605Z" fill="url(#paint0_linear_29983_47915)"/>
</mask>
<g mask="url(#mask0_29983_47915)">
<path d="M57.5406 27.05C57.5525 26.9906 57.5703 26.9312 57.5881 26.8717C57.6237 26.7409 57.6297 26.6102 57.6475 26.4735L57.6772 26.1643C57.6831 26.0455 57.7009 25.9266 57.695 25.8077C57.695 24.8447 57.4455 23.9352 57.0595 23.1387C56.8694 22.7345 56.6378 22.366 56.3646 22.0093C56.0973 21.6526 55.7885 21.3198 55.3549 20.9631C55.2302 20.868 55.1055 20.7669 54.8441 20.6302C54.7729 20.5946 54.7253 20.5708 54.6303 20.5292C54.5175 20.4816 54.3987 20.446 54.2858 20.4162C54.2502 20.4044 54.1077 20.3746 54.0067 20.3687C53.8938 20.3568 53.7869 20.3509 53.6741 20.3509C53.6028 20.3449 53.3593 20.3746 53.1871 20.4222C52.997 20.4697 52.8248 20.5411 52.6585 20.6362C52.4743 20.7432 52.2962 20.8799 52.1417 21.0404C52.0645 21.1177 51.9992 21.2068 51.9398 21.29C51.8982 21.3495 51.8626 21.4149 51.827 21.4803C51.7557 21.611 51.6963 21.7537 51.6488 21.8904C51.5953 22.0628 51.6013 22.0866 51.5775 22.1817C51.5656 22.2649 51.5538 22.3422 51.5478 22.4254L51.5419 22.5443V22.6156C51.5419 22.7107 51.5478 22.7999 51.5597 22.895C51.5775 23.0496 51.6013 23.1447 51.625 23.2635L51.6963 23.5191C51.7913 23.8045 51.8864 24.0125 51.9754 24.2027L52.2071 24.6545C52.4565 25.13 52.6703 25.6294 52.8723 26.1287C52.9673 26.3665 53.0505 26.6102 53.1336 26.8539C52.9911 27.0619 52.8188 27.27 52.5753 27.4721C52.5753 27.4721 52.4862 27.5672 52.3318 27.7396C52.1239 27.8882 51.8923 28.1438 51.5003 28.3935C51.3043 28.5183 51.1083 28.6609 50.8767 28.8096C50.6213 28.9522 50.354 29.1068 50.0749 29.2613C49.5225 29.5942 48.9108 29.8676 48.3109 30.1767C47.0933 30.7414 45.8461 31.1754 44.9195 31.4429C43.999 31.6985 43.411 31.7995 43.5297 31.8174C41.3975 32.3286 39.5742 32.3107 39.1347 32.5604C38.8852 32.6733 38.9505 32.9765 39.6395 33.345C40.3166 33.7017 41.5995 34.1118 43.6248 34.1416C46.0243 34.2545 48.8989 33.6185 51.0548 32.8517C51.5894 32.6436 52.0883 32.4534 52.5337 32.2751C52.9911 32.0848 53.4187 31.859 53.7632 31.6925C53.8404 31.6509 53.8998 31.6152 53.9651 31.5736C53.9711 31.8649 53.9711 32.1621 53.9592 32.4534C53.9117 33.5234 53.7929 34.5933 53.5137 35.6395C53.4068 36.1686 53.2108 36.6798 53.0564 37.1969L52.7594 37.9578L52.611 38.3382L52.4268 38.6949C51.5597 40.6446 50.1877 42.3863 48.5722 43.8961C46.9448 45.406 45.1096 46.7553 43.0784 47.8253C39.0515 50.0128 34.9178 51.481 30.3148 52.2894C29.7684 52.3964 29.0854 52.5153 28.533 52.5748L26.6681 52.8066C25.5633 52.8839 24.8269 53.0265 23.7162 53.0384C23.6271 53.0562 23.051 53.1216 23.0154 53.1573C21.9879 54.0965 21.7562 54.9346 21.9404 55.6123C22.1185 56.284 22.7125 56.7952 23.1995 57.0746C23.342 57.1697 23.8706 57.134 23.9775 57.1281C25.1832 57.1102 25.8959 57.0151 27.1016 56.926L28.8834 56.6763C29.4833 56.605 30.0653 56.6406 30.6593 56.5217C35.5592 55.6658 40.4294 54.257 44.8661 51.6296C47.0458 50.3338 49.2255 48.9606 51.1558 47.219C53.098 45.4951 54.761 43.3552 55.9726 40.9478C57.1961 38.5641 57.9088 35.9665 58.1048 33.2796C58.2533 31.1932 58.0573 29.077 57.5406 27.05Z" fill="#201429"/>
</g>
<path d="M111.192 43.8851L112.343 41.6136H113.603L111.773 44.9831V47.1301H110.611V45.0209L108.781 41.6136H110.049L111.192 43.8851Z" fill="white"/>
<path d="M118.841 44.3643C118.841 45.2774 118.615 45.9793 118.162 46.4698C117.709 46.9603 117.06 47.2056 116.215 47.2056C115.37 47.2056 114.721 46.9603 114.268 46.4698C113.815 45.9793 113.589 45.2749 113.589 44.3568C113.589 43.4386 113.815 42.7381 114.268 42.2551C114.723 41.7696 115.375 41.5269 116.222 41.5269C117.07 41.5269 117.718 41.7709 118.166 42.2589C118.616 42.7469 118.841 43.4487 118.841 44.3643ZM114.815 44.3643C114.815 44.9806 114.932 45.4447 115.166 45.7566C115.4 46.0686 115.75 46.2245 116.215 46.2245C117.148 46.2245 117.615 45.6044 117.615 44.3643C117.615 43.1217 117.151 42.5003 116.222 42.5003C115.757 42.5003 115.406 42.6576 115.17 42.972C114.933 43.2839 114.815 43.748 114.815 44.3643Z" fill="white"/>
<path d="M124.011 41.6136V45.1831C124.011 45.5906 123.919 45.9478 123.735 46.2547C123.554 46.5616 123.291 46.7968 122.947 46.9603C122.602 47.1238 122.195 47.2056 121.724 47.2056C121.015 47.2056 120.464 47.0244 120.072 46.6622C119.679 46.2975 119.483 45.7994 119.483 45.168V41.6136H120.649V44.9907C120.649 45.4158 120.734 45.7277 120.906 45.9264C121.077 46.1252 121.36 46.2245 121.754 46.2245C122.137 46.2245 122.414 46.1252 122.585 45.9264C122.758 45.7252 122.845 45.4108 122.845 44.9831V41.6136H124.011Z" fill="white"/>
<path d="M126.068 44.0625H126.445C126.815 44.0625 127.088 44.0008 127.264 43.8776C127.44 43.7543 127.528 43.5606 127.528 43.2965C127.528 43.0349 127.437 42.8487 127.256 42.7381C127.078 42.6274 126.8 42.572 126.422 42.572H126.068V44.0625ZM126.068 45.0133V47.1301H124.898V41.6136H126.505C127.255 41.6136 127.81 41.7507 128.169 42.0249C128.529 42.2966 128.709 42.7104 128.709 43.2663C128.709 43.5908 128.62 43.8801 128.441 44.1342C128.262 44.3857 128.01 44.5832 127.683 44.7265C128.513 45.9667 129.054 46.7679 129.305 47.1301H128.007L126.69 45.0133H126.068Z" fill="white"/>
<path d="M134.336 45.5982C134.336 46.0962 134.156 46.4886 133.796 46.7754C133.439 47.0622 132.941 47.2056 132.302 47.2056C131.713 47.2056 131.193 47.0949 130.74 46.8735V45.7868C131.112 45.9528 131.427 46.0698 131.683 46.1377C131.942 46.2056 132.179 46.2396 132.393 46.2396C132.649 46.2396 132.845 46.1906 132.981 46.0925C133.12 45.9943 133.189 45.8484 133.189 45.6548C133.189 45.5466 133.159 45.451 133.098 45.368C133.038 45.2825 132.948 45.2007 132.83 45.1227C132.715 45.0448 132.477 44.9202 132.117 44.7492C131.78 44.5907 131.527 44.4385 131.359 44.2926C131.19 44.1467 131.056 43.9769 130.955 43.7832C130.854 43.5895 130.804 43.3632 130.804 43.1041C130.804 42.6161 130.969 42.2324 131.298 41.9532C131.63 41.674 132.088 41.5344 132.672 41.5344C132.959 41.5344 133.231 41.5684 133.491 41.6363C133.752 41.7042 134.025 41.7998 134.309 41.923L133.932 42.8324C133.638 42.7116 133.394 42.6274 133.2 42.5796C133.009 42.5318 132.82 42.5079 132.634 42.5079C132.413 42.5079 132.243 42.5595 132.125 42.6626C132.006 42.7657 131.947 42.9003 131.947 43.0663C131.947 43.1695 131.971 43.26 132.019 43.338C132.067 43.4135 132.142 43.4877 132.245 43.5606C132.351 43.6311 132.599 43.7593 132.989 43.9455C133.504 44.192 133.858 44.4398 134.049 44.6888C134.24 44.9353 134.336 45.2384 134.336 45.5982Z" fill="white"/>
<path d="M138.249 47.1301L137.849 45.817H135.838L135.438 47.1301H134.178L136.125 41.591H137.555L139.509 47.1301H138.249ZM137.57 44.836C137.2 43.6461 136.991 42.9733 136.944 42.8173C136.898 42.6613 136.866 42.5381 136.845 42.4475C136.762 42.7695 136.525 43.5657 136.132 44.836H137.57Z" fill="white"/>
<path d="M140.913 44.0625H141.291C141.66 44.0625 141.933 44.0008 142.109 43.8776C142.286 43.7543 142.374 43.5606 142.374 43.2965C142.374 43.0349 142.283 42.8487 142.102 42.7381C141.923 42.6274 141.645 42.572 141.268 42.572H140.913V44.0625ZM140.913 45.0133V47.1301H139.744V41.6136H141.351C142.101 41.6136 142.655 41.7507 143.015 42.0249C143.375 42.2966 143.555 42.7104 143.555 43.2663C143.555 43.5908 143.465 43.8801 143.287 44.1342C143.108 44.3857 142.855 44.5832 142.528 44.7265C143.358 45.9667 143.899 46.7679 144.151 47.1301H142.853L141.536 45.0133H140.913Z" fill="white"/>
<path d="M146.51 47.1301H145.34V42.5871H143.842V41.6136H148.007V42.5871H146.51V47.1301Z" fill="white"/>
<path d="M152.913 47.1301H151.747V44.7492H149.563V47.1301H148.393V41.6136H149.563V43.7757H151.747V41.6136H152.913V47.1301Z" fill="white"/>
<path d="M153.846 47.1301V41.6136H155.015V47.1301H153.846Z" fill="white"/>
<path d="M158.635 47.1301H157.484V41.6136H160.646V42.572H158.635V43.9945H160.506V44.9492H158.635V47.1301Z" fill="white"/>
<path d="M166.268 44.3643C166.268 45.2774 166.042 45.9793 165.589 46.4698C165.136 46.9603 164.487 47.2056 163.642 47.2056C162.797 47.2056 162.148 46.9603 161.695 46.4698C161.242 45.9793 161.016 45.2749 161.016 44.3568C161.016 43.4386 161.242 42.7381 161.695 42.2551C162.151 41.7696 162.802 41.5269 163.65 41.5269C164.497 41.5269 165.145 41.7709 165.593 42.2589C166.043 42.7469 166.268 43.4487 166.268 44.3643ZM162.242 44.3643C162.242 44.9806 162.359 45.4447 162.593 45.7566C162.827 46.0686 163.177 46.2245 163.642 46.2245C164.575 46.2245 165.042 45.6044 165.042 44.3643C165.042 43.1217 164.578 42.5003 163.65 42.5003C163.184 42.5003 162.833 42.6576 162.597 42.972C162.361 43.2839 162.242 43.748 162.242 44.3643Z" fill="white"/>
<path d="M168.118 44.0625H168.495C168.865 44.0625 169.138 44.0008 169.314 43.8776C169.49 43.7543 169.578 43.5606 169.578 43.2965C169.578 43.0349 169.487 42.8487 169.306 42.7381C169.128 42.6274 168.85 42.572 168.472 42.572H168.118V44.0625ZM168.118 45.0133V47.1301H166.948V41.6136H168.555C169.305 41.6136 169.86 41.7507 170.219 42.0249C170.579 42.2966 170.759 42.7104 170.759 43.2663C170.759 43.5908 170.67 43.8801 170.491 44.1342C170.312 44.3857 170.06 44.5832 169.733 44.7265C170.563 45.9667 171.104 46.7679 171.355 47.1301H170.057L168.74 45.0133H168.118Z" fill="white"/>
<path d="M173.129 47.1301V41.6136H174.299V46.1641H176.537V47.1301H173.129Z" fill="white"/>
<path d="M177.035 47.1301V41.6136H178.205V47.1301H177.035Z" fill="white"/>
<path d="M180.281 47.1301H179.13V41.6136H182.292V42.572H180.281V43.9945H182.152V44.9492H180.281V47.1301Z" fill="white"/>
<path d="M186.084 47.1301H182.907V41.6136H186.084V42.572H184.077V43.7832H185.945V44.7416H184.077V46.1641H186.084V47.1301Z" fill="white"/>
<path d="M114.25 24.2039C114.25 24.8935 114.001 25.4369 113.503 25.8339C113.009 26.231 112.319 26.4295 111.434 26.4295C110.619 26.4295 109.898 26.2763 109.271 25.9698V24.4651C109.787 24.695 110.222 24.8569 110.578 24.951C110.936 25.045 111.264 25.092 111.56 25.092C111.915 25.092 112.187 25.0241 112.375 24.8883C112.566 24.7525 112.662 24.5504 112.662 24.2823C112.662 24.1325 112.62 24.0001 112.537 23.8852C112.453 23.7668 112.33 23.6536 112.166 23.5456C112.006 23.4376 111.676 23.2652 111.178 23.0284C110.712 22.809 110.362 22.5982 110.128 22.3962C109.895 22.1942 109.709 21.9591 109.569 21.6909C109.43 21.4227 109.36 21.1093 109.36 20.7505C109.36 20.0748 109.588 19.5437 110.045 19.1571C110.504 18.7705 111.138 18.5771 111.946 18.5771C112.343 18.5771 112.721 18.6242 113.08 18.7182C113.442 18.8122 113.82 18.9446 114.214 19.1153L113.691 20.3744C113.284 20.2072 112.946 20.0905 112.678 20.0243C112.413 19.9581 112.152 19.9251 111.894 19.9251C111.588 19.9251 111.353 19.9965 111.189 20.1393C111.025 20.2821 110.943 20.4684 110.943 20.6983C110.943 20.8411 110.976 20.9665 111.043 21.0744C111.109 21.1789 111.213 21.2817 111.356 21.3827C111.502 21.4802 111.845 21.6578 112.385 21.9156C113.099 22.2569 113.589 22.6 113.853 22.9448C114.118 23.2861 114.25 23.7058 114.25 24.2039Z" fill="white"/>
<path d="M121.852 18.6869V23.6292C121.852 24.1934 121.725 24.688 121.471 25.1129C121.22 25.5379 120.856 25.8635 120.379 26.0899C119.902 26.3163 119.337 26.4295 118.686 26.4295C117.704 26.4295 116.941 26.1787 116.398 25.6772C115.854 25.1722 115.583 24.4825 115.583 23.6083V18.6869H117.197V23.3628C117.197 23.9514 117.315 24.3833 117.552 24.6584C117.789 24.9336 118.181 25.0712 118.728 25.0712C119.257 25.0712 119.64 24.9336 119.877 24.6584C120.117 24.3798 120.238 23.9444 120.238 23.3523V18.6869H121.852Z" fill="white"/>
<path d="M123.722 18.6869H126.099C127.183 18.6869 127.968 18.8419 128.456 19.1518C128.947 19.4583 129.192 19.9477 129.192 20.6199C129.192 21.0762 129.084 21.4506 128.868 21.7432C128.656 22.0357 128.372 22.2116 128.017 22.2708V22.3231C128.501 22.4311 128.849 22.6331 129.062 22.9291C129.278 23.2252 129.386 23.6188 129.386 24.1099C129.386 24.8064 129.133 25.3498 128.628 25.7399C128.127 26.13 127.444 26.325 126.58 26.325H123.722V18.6869ZM125.342 21.7118H126.282C126.721 21.7118 127.038 21.6439 127.233 21.5081C127.432 21.3722 127.531 21.1476 127.531 20.8341C127.531 20.5415 127.423 20.3326 127.207 20.2072C126.995 20.0783 126.657 20.0139 126.194 20.0139H125.342V21.7118ZM125.342 22.997V24.9876H126.397C126.843 24.9876 127.172 24.9022 127.385 24.7316C127.597 24.5609 127.703 24.2997 127.703 23.9479C127.703 23.314 127.251 22.997 126.345 22.997H125.342Z" fill="white"/>
<path d="M137.17 26.325H135.556V23.0284H132.531V26.325H130.911V18.6869H132.531V21.6805H135.556V18.6869H137.17V26.325Z" fill="white"/>
<path d="M143.779 26.325L143.225 24.5069H140.441L139.887 26.325H138.142L140.838 18.6555H142.818L145.524 26.325H143.779ZM142.839 23.1486C142.327 21.5011 142.038 20.5694 141.971 20.3535C141.909 20.1375 141.863 19.9669 141.836 19.8415C141.721 20.2873 141.391 21.3896 140.848 23.1486H142.839Z" fill="white"/>
<path d="M150.999 24.2039C150.999 24.8935 150.75 25.4369 150.252 25.8339C149.758 26.231 149.068 26.4295 148.183 26.4295C147.368 26.4295 146.647 26.2763 146.02 25.9698V24.4651C146.536 24.695 146.971 24.8569 147.326 24.951C147.685 25.045 148.013 25.092 148.309 25.092C148.664 25.092 148.936 25.0241 149.124 24.8883C149.315 24.7525 149.411 24.5504 149.411 24.2823C149.411 24.1325 149.369 24.0001 149.286 23.8852C149.202 23.7668 149.078 23.6536 148.915 23.5456C148.754 23.4376 148.425 23.2652 147.927 23.0284C147.461 22.809 147.11 22.5982 146.877 22.3962C146.644 22.1942 146.457 21.9591 146.318 21.6909C146.179 21.4227 146.109 21.1093 146.109 20.7505C146.109 20.0748 146.337 19.5437 146.794 19.1571C147.253 18.7705 147.887 18.5771 148.695 18.5771C149.092 18.5771 149.47 18.6242 149.829 18.7182C150.191 18.8122 150.569 18.9446 150.963 19.1153L150.44 20.3744C150.033 20.2072 149.695 20.0905 149.427 20.0243C149.162 19.9581 148.901 19.9251 148.643 19.9251C148.336 19.9251 148.101 19.9965 147.938 20.1393C147.774 20.2821 147.692 20.4684 147.692 20.6983C147.692 20.8411 147.725 20.9665 147.791 21.0744C147.858 21.1789 147.962 21.2817 148.105 21.3827C148.251 21.4802 148.594 21.6578 149.134 21.9156C149.848 22.2569 150.337 22.6 150.602 22.9448C150.867 23.2861 150.999 23.7058 150.999 24.2039Z" fill="white"/>
<path d="M158.643 26.325H157.028V23.0284H154.003V26.325H152.384V18.6869H154.003V21.6805H157.028V18.6869H158.643V26.325Z" fill="white"/>
<path d="M112.986 30.6248C112.377 30.6248 111.905 30.8546 111.57 31.3144C111.236 31.7706 111.069 32.408 111.069 33.2265C111.069 34.9297 111.708 35.7813 112.986 35.7813C113.522 35.7813 114.172 35.6472 114.935 35.379V36.7374C114.308 36.9986 113.608 37.1292 112.835 37.1292C111.723 37.1292 110.874 36.7931 110.285 36.1209C109.696 35.4452 109.402 34.4769 109.402 33.2161C109.402 32.422 109.547 31.7271 109.836 31.1315C110.125 30.5325 110.539 30.0744 111.079 29.7575C111.622 29.4371 112.258 29.2768 112.986 29.2768C113.728 29.2768 114.473 29.4562 115.222 29.815L114.7 31.1315C114.414 30.9957 114.127 30.8773 113.838 30.7763C113.549 30.6753 113.265 30.6248 112.986 30.6248Z" fill="white"/>
<path d="M122.824 37.0247H121.209V33.7281H118.184V37.0247H116.565V29.3866H118.184V32.3802H121.209V29.3866H122.824V37.0247Z" fill="white"/>
<path d="M129.433 37.0247L128.879 35.2066H126.094L125.54 37.0247H123.795L126.491 29.3552H128.471L131.178 37.0247H129.433ZM128.492 33.8482C127.98 32.2008 127.691 31.2691 127.625 31.0532C127.562 30.8372 127.517 30.6665 127.489 30.5412C127.374 30.987 127.045 32.0893 126.502 33.8482H128.492Z" fill="white"/>
<path d="M138.92 37.0247H136.862L133.539 31.2465H133.492C133.558 32.267 133.591 32.9949 133.591 33.4303V37.0247H132.144V29.3866H134.187L137.504 35.1073H137.541C137.489 34.1147 137.463 33.4129 137.463 33.0019V29.3866H138.92V37.0247Z" fill="white"/>
<path d="M147.185 33.1325C147.185 34.3898 146.827 35.3529 146.109 36.0216C145.395 36.6903 144.362 37.0247 143.011 37.0247H140.848V29.3866H143.246C144.493 29.3866 145.461 29.7157 146.151 30.374C146.841 31.0323 147.185 31.9518 147.185 33.1325ZM145.503 33.1743C145.503 31.5338 144.779 30.7136 143.33 30.7136H142.468V35.6873H143.163C144.723 35.6873 145.503 34.8496 145.503 33.1743Z" fill="white"/>
<path d="M150.388 32.7772H150.91C151.422 32.7772 151.8 32.6919 152.044 32.5212C152.288 32.3506 152.41 32.0824 152.41 31.7167C152.41 31.3544 152.284 31.0967 152.034 30.9434C151.786 30.7902 151.402 30.7136 150.879 30.7136H150.388V32.7772ZM150.388 34.0938V37.0247H148.768V29.3866H150.994C152.032 29.3866 152.8 29.5764 153.298 29.956C153.796 30.3322 154.045 30.9051 154.045 31.6749C154.045 32.1242 153.921 32.5247 153.674 32.8765C153.427 33.2248 153.077 33.4982 152.624 33.6967C153.773 35.4138 154.522 36.5232 154.871 37.0247H153.073L151.25 34.0938H150.388Z" fill="white"/>
<path d="M160.508 37.0247L159.954 35.2066H157.169L156.616 37.0247H154.871L157.566 29.3552H159.546L162.253 37.0247H160.508ZM159.567 33.8482C159.055 32.2008 158.766 31.2691 158.7 31.0532C158.637 30.8372 158.592 30.6665 158.564 30.5412C158.449 30.987 158.12 32.0893 157.577 33.8482H159.567Z" fill="white"/>
</g>
<defs>
<linearGradient id="paint0_linear_29983_47915" x1="40.479" y1="43.3927" x2="24.5444" y2="49.5391" gradientUnits="userSpaceOnUse">
<stop offset="0.0216" stop-color="white"/>
<stop offset="0.1681" stop-color="#F3F3F4" stop-opacity="0.9309"/>
<stop offset="0.2988" stop-color="#C0C0C1" stop-opacity="0.7848"/>
<stop offset="0.4891" stop-color="#7D7D7D" stop-opacity="0.5718"/>
<stop offset="0.6614" stop-color="#474747" stop-opacity="0.379"/>
<stop offset="0.8093" stop-color="#202021" stop-opacity="0.2135"/>
<stop offset="0.927" stop-color="#090909" stop-opacity="0.0816"/>
<stop offset="1" stop-opacity="0"/>
</linearGradient>
<clipPath id="clip0_29983_47915">
<rect width="192" height="56.4706" fill="white" transform="translate(0 0.764648)"/>
</clipPath>
</defs>
</svg>
