<svg width="192" height="58" viewBox="0 0 192 58" fill="none" xmlns="http://www.w3.org/2000/svg">
<g clip-path="url(#clip0_243_7632)">
<path d="M125.082 9.68066C125.04 9.87683 124.993 10.073 124.916 10.2573C124.672 10.8695 124.132 11.7136 122.926 12.2189C122.302 12.4804 121.655 12.635 120.984 12.6825C119.659 13.2472 118.24 13.2591 118.216 13.2591L117.937 13.2532C117.456 13.2235 116.981 13.1165 116.529 12.9381C116.274 13.2591 115.834 13.7584 115.145 14.127C114.421 14.5193 113.476 14.7155 112.33 14.7155C111.695 14.7155 110.626 14.656 109.64 14.3053C109.331 14.5193 108.98 14.7274 108.576 14.9235V14.9176C107.709 15.3634 106.456 15.7795 104.698 16.368L104.437 16.4571L103.7 16.5582L103.106 18.389C102.875 19.0964 102.554 20.0356 102.103 21.0104C102.025 21.1828 101.942 21.3552 101.859 21.5217L101.865 21.9318C101.883 22.5084 101.901 23.1266 101.942 23.7389L101.954 23.8696L101.948 24.0004C101.948 24.0123 101.919 25.4687 102.008 27.4005C102.115 29.7069 102.417 31.9182 102.833 33.4637C103.16 34.6526 103.534 35.3778 103.831 35.9662L103.932 36.1683C104.259 36.7449 105.043 38.231 104.253 39.8122C103.772 40.7811 102.827 41.4409 101.734 41.5717L101.55 41.5955H101.325C99.7923 41.5955 98.4203 40.5968 97.7373 40.0024C96.5969 39.0216 95.7238 37.702 95.1596 36.6974C94.7141 36.0554 94.4053 35.2648 94.0965 34.4802C93.8173 33.7728 93.455 32.792 93.1343 31.6685C92.6176 32.0906 92.0652 32.5067 91.4832 32.8871C90.1112 33.7847 87.9552 35.0092 85.0747 35.2945C84.7124 35.3243 84.4213 35.3361 84.1303 35.3361C82.7286 35.3361 81.4279 35.0627 80.2816 34.5158C78.6899 33.8025 77.2763 32.5423 76.433 31.0563C76.0647 30.4797 75.8509 29.9269 75.6905 29.4989C72.9644 30.0755 70.3808 30.4321 68.4208 30.6877L68.2308 30.7115L67.9576 30.7174C67.2033 30.7174 66.6331 30.4559 66.3599 30.3073C65.3621 29.8199 64.5484 29.1006 63.996 28.2446L61.062 29.6118C61.2105 30.9612 61.2521 32.3165 61.163 33.6717C60.9314 36.8282 60.0999 39.8062 58.6982 42.5287C57.3559 45.2096 55.4434 47.6883 53.1984 49.6856C51.3869 51.3143 49.4447 52.5924 47.9243 53.5375L47.8233 53.6029C47.8233 53.6029 47.6808 53.698 47.0868 54.0547L46.4454 54.4351L46.2435 54.548C45.899 54.7442 45.5189 54.9582 45.0675 55.196C43.6242 55.9687 42.0859 56.6582 40.5061 57.2527C40.3873 57.2943 40.2685 57.3299 40.1497 57.3775H192.024V9.68066H125.082Z" fill="#EE6C4D"/>
<path d="M60.9017 18.0802C59.6485 17.8246 58.0092 17.9137 58.0092 17.9137C58.0092 17.9137 48.7914 20.9572 48.6608 20.9988C48.6429 21.0226 48.637 21.1533 48.637 21.1831C48.6904 23.0674 49.4863 24.4108 49.8902 24.8982C49.9555 24.9815 49.9615 24.9815 49.9852 24.9755C50.1159 24.9339 59.1911 21.9142 59.1911 21.9142C59.1911 21.9142 61.7332 20.333 61.5906 20.2855C62.5409 19.4533 62.9685 18.3358 60.9017 18.0802ZM36.7584 20.9631C36.6574 20.8977 36.3961 20.8264 36.3426 20.8205C34.7212 20.6421 34.1035 21.3673 33.9313 22.0212C33.6996 22.6751 33.765 23.3587 33.8244 23.8223C33.8362 23.965 33.8541 23.9828 33.9135 24.0363C34.5549 24.6367 35.0597 25.3441 35.3508 26.093C35.6299 26.842 35.6834 27.6445 35.624 28.4826C35.3864 30.0163 34.5846 31.6688 33.3908 33.1489C33.1413 33.5353 32.7969 33.8919 32.4761 34.2486L31.508 35.3245C30.8488 35.9902 30.1539 36.5787 29.4293 37.0543C29.0492 37.3039 28.6572 37.5179 28.2533 37.6963C26.4596 36.7392 25.0342 36.1151 25.0342 36.1151C24.3868 35.8833 23.7157 35.6574 22.9614 35.4731C22.5813 35.3839 22.1893 35.3007 21.7022 35.2591C21.2508 35.2234 20.645 35.1759 19.7898 35.4909C19.5997 35.5741 19.4156 35.6693 19.2374 35.7703C19.0414 35.913 18.8454 36.0854 18.6791 36.2696L18.5544 36.4123C18.5128 36.4598 18.4119 36.6203 18.3525 36.7333C18.2871 36.8581 18.2277 36.9948 18.1862 37.1256C18.1387 37.2683 18.109 37.405 18.103 37.4525C18.0555 37.7379 18.0614 38.1124 18.0911 38.2491C18.2099 39.0278 18.4416 39.4201 18.6791 39.8184C19.1602 40.5911 19.766 41.1499 20.4372 41.5779C21.7913 42.4338 23.3058 42.6835 24.6481 42.6359C25.8241 42.5943 27.0239 42.4576 28.2533 42.1188C28.5265 42.0415 28.7938 41.9524 29.067 41.8572C31.5793 42.7548 33.9907 43.4563 33.7887 43.3195C34.9766 43.6108 36.1229 43.7713 37.0553 43.7356C37.9819 43.7178 38.6827 43.4265 38.8431 43.1828C39.0034 42.9272 38.7302 42.8202 38.0828 42.6181C37.4355 42.416 36.3486 41.988 34.6856 41.1796C33.9847 40.817 33.2245 40.4009 32.4583 39.9848C33.177 39.4439 33.8541 38.8732 34.4599 38.2669C34.8578 37.8508 35.226 37.4228 35.6062 37.0008C35.9863 36.5787 36.3723 36.1686 36.7049 35.6752C38.1244 33.88 39.3539 31.6628 39.7577 29.0236C39.9062 27.5553 39.7874 26.0039 39.241 24.5772C38.6946 23.1566 37.8096 21.938 36.7584 20.9631ZM20.3837 37.8092L20.3659 37.7914C20.1996 37.6665 20.2827 37.7319 20.4193 37.827L20.3837 37.8092ZM114.1 8.68226C113.767 8.61687 113.423 8.65254 113.09 8.61687C112.627 8.56338 112.188 8.36721 111.742 8.23644C111.291 8.10567 110.792 8.04028 110.37 8.23644C109.081 8.83681 109.265 10.4358 110.388 11.1194C111.065 11.5355 113.055 11.6128 113.708 11.2561C113.928 11.1372 114.088 10.9351 114.243 10.739C114.403 10.5309 114.563 10.3169 114.694 10.0851C114.837 9.83545 114.955 9.53824 114.872 9.2648C114.771 8.93787 114.433 8.74765 114.1 8.68226ZM121.797 8.42666C121.643 8.36722 121.483 8.3791 121.316 8.40288C121.411 8.34938 121.5 8.24833 121.542 8.14133C121.613 7.97489 121.293 7.7074 121.013 7.70146C121.007 7.48152 119.915 6.98814 119.428 7.15458C119.297 7.20214 119.166 7.25564 119.03 7.26158C118.869 7.26752 118.721 7.20808 118.572 7.16053C117.931 6.95248 117.165 6.9822 116.666 7.42802C115.537 8.43855 117.016 9.96622 118.121 10.0316C118.917 10.0792 120.33 9.51446 120.182 9.44907C120.711 9.51446 121.257 9.43718 121.744 9.22913C121.881 9.16969 122.029 9.09242 122.082 8.94975C122.172 8.7417 122.005 8.50393 121.797 8.42666ZM106.967 9.69279C105.441 9.2648 103.332 9.12214 103.332 9.12214L101.289 9.40746C101.099 9.14591 100.855 8.90814 100.481 8.71793C99.816 8.38505 99.5131 8.43855 99.1033 8.43855C99.0083 8.44449 98.9014 8.45044 98.8182 8.46827L98.6578 8.50393L98.3431 8.5931L98.0402 8.69415L97.8442 8.78926L97.4522 8.98542C97.2799 9.08053 96.9651 9.3183 96.7632 9.5204C96.5791 9.72845 96.4365 9.91867 96.3178 10.097L92.2493 10.6617L90.3606 11.1848C90.3369 11.2086 90.3072 11.3394 90.3012 11.375C90.0993 13.3069 90.9249 14.6563 91.3703 15.1496C91.4416 15.2328 91.4535 15.2328 91.4832 15.2269L93.1046 14.7751L95.023 14.5076C94.8389 15.8154 94.7201 17.1053 94.6666 18.3833L94.6369 19.3641C94.3815 19.7446 94.1143 20.119 93.8054 20.5054C92.9442 21.5694 91.9583 22.6216 90.9308 23.6499C90.4319 24.1552 89.8736 24.708 89.3807 25.1598L88.6382 25.8255L87.8661 26.42C86.8327 27.1511 85.6864 27.7455 84.6945 27.8763C84.1897 27.9714 83.7799 27.912 83.4413 27.8347C83.1266 27.7218 82.9187 27.5494 82.7049 27.2938C82.4911 27.0382 82.3544 26.5924 82.2475 26.1109C82.1822 25.5878 82.1288 25.029 82.2178 24.5772C82.788 24.4108 83.376 24.2146 83.9996 23.9412C84.4273 23.7391 84.8668 23.5132 85.2885 23.2041C85.5023 23.0674 85.7042 22.8831 85.9062 22.7167C85.9418 22.6929 86.0487 22.58 86.114 22.5146C86.1912 22.4314 86.2506 22.3779 86.3575 22.2352C86.5179 22.0093 86.7614 21.724 86.898 21.0345C86.9277 20.8502 86.9337 20.66 86.9277 20.4757C86.904 20.2498 86.8505 20.012 86.7674 19.7921C86.6842 19.5603 86.5773 19.4117 86.4526 19.2393C86.3338 19.0788 86.1615 18.9064 86.0665 18.8351C85.8468 18.6567 85.5617 18.5022 85.4191 18.4546C85.2291 18.3774 85.0568 18.3298 84.938 18.306C84.3916 18.199 84.0412 18.2228 83.7145 18.2585C83.0672 18.3298 82.5504 18.4963 82.0456 18.7102C81.0597 19.1382 80.1925 19.7981 79.5095 20.6362C79.4145 20.7551 79.3313 20.8799 79.2482 21.0047C78.9987 21.0582 78.7552 21.1177 78.4998 21.1771C77.7634 21.3436 77.0091 21.5219 76.2548 21.7181L75.1916 21.9915L74.1641 22.2293C72.0022 22.687 69.7394 23.0258 67.4884 23.3111C67.3993 23.3408 67.227 23.4835 67.1914 23.5192C65.2492 25.564 66.6984 26.9312 67.7259 27.4067C67.8744 27.4899 67.9101 27.484 68.011 27.4721C70.3511 27.1689 72.6734 26.8301 75.0432 26.3249L76.1776 26.0633L77.2704 25.778C77.508 25.7185 77.7574 25.6591 77.995 25.6056C78.0069 25.8731 78.0306 26.1346 78.0603 26.3902C78.0841 26.848 78.2504 27.3532 78.3573 27.8288C78.5473 28.3162 78.6958 28.8155 79.0166 29.2851C79.5392 30.254 80.5133 31.0981 81.5586 31.5677C82.6277 32.073 83.7442 32.1443 84.742 32.073C86.7436 31.8709 88.371 31.0684 89.7845 30.147C91.1803 29.2316 92.4394 28.0428 93.455 27.0203C93.9599 26.521 94.4588 26.0098 94.9517 25.4867C95.118 26.5924 95.3675 28.0011 95.7119 29.3862C96.3772 32.3286 97.7016 35.0867 97.6779 34.8073C98.2777 35.9308 98.9964 36.8938 99.7091 37.506C100.416 38.1242 101.063 38.3739 101.336 38.3501C101.622 38.3145 101.574 38.0172 101.23 37.4109C100.915 36.7749 100.351 35.7763 99.8695 34.0405C99.323 31.9957 99.0439 29.398 98.9489 27.3294C98.8538 25.2608 98.8835 23.7213 98.8835 23.7213C98.842 23.0674 98.8182 22.4135 98.8004 21.7597L98.7885 20.7789V20.5589C98.9786 20.2201 99.1567 19.8753 99.323 19.5187C99.6794 18.7459 99.9586 17.9672 100.196 17.2301L100.879 15.1377C101.04 14.6444 101.206 14.1272 101.366 13.5922L103.73 13.2594C103.73 13.2594 107.406 12.0348 107.234 11.9694C108.683 11.2918 109.527 10.2337 106.967 9.69279Z" fill="white"/>
<path d="M70.6243 24.2025C69.8106 25.005 69.3236 25.3676 69.3236 25.3676C69.7453 25.0644 70.4818 24.5056 71.3786 23.5129C71.83 23.0255 72.3051 22.4014 72.7684 21.6464C73.2317 20.8856 73.6652 19.9583 73.9266 18.8467C74.1938 17.747 74.2592 16.463 74.0275 15.185C73.8018 13.9011 73.297 12.6528 72.6259 11.5055C72.2992 10.917 71.9013 10.3939 71.5033 9.84706C71.2895 9.59146 71.0757 9.33586 70.8619 9.07431C70.7668 8.94948 70.5709 8.74143 70.3867 8.57499C70.2145 8.42044 70.0898 8.31344 69.9532 8.2005C69.4186 7.76062 68.9138 7.37425 68.3733 6.97598C68.0942 6.77982 67.815 6.58366 67.5359 6.38155C67.2211 6.17945 66.9776 5.98923 66.4252 5.70391C62.8319 3.95629 58.6863 2.494 54.1605 1.6083C51.8917 1.20409 49.5457 0.906879 47.1522 0.799882C44.7586 0.710718 42.3235 0.776105 39.8825 1.01388C30.1182 2.00062 20.5381 5.94762 13.2981 11.4936C9.66326 14.2518 6.60451 17.432 4.32382 20.7786C4.05061 21.2066 3.7774 21.6286 3.51013 22.0447C3.26068 22.4905 3.01717 22.9304 2.77366 23.3584C2.55985 23.8042 2.35197 24.2441 2.14409 24.6721C1.95404 25.112 1.78774 25.5518 1.60956 25.9798C0.962171 27.7096 0.564238 29.374 0.320726 30.9076C-0.166297 33.9808 -0.00593565 36.4952 0.196001 38.1953C0.296969 39.0513 0.421694 39.7051 0.516723 40.151C0.599874 40.5968 0.659267 40.8286 0.659267 40.8286C1.50265 44.5081 3.19535 47.7477 5.28005 50.2265C6.31349 51.4689 7.44789 52.521 8.60012 53.3651C9.15842 53.8109 9.75829 54.1557 10.3106 54.5123C10.8868 54.8333 11.4391 55.1365 11.9796 55.3861C14.1653 56.3729 16.0243 56.7771 17.2953 56.9495C17.9248 57.0624 18.4237 57.0624 18.7504 57.104C19.083 57.1278 19.2552 57.1397 19.2552 57.1397C21.0311 57.2348 22.4446 57.1932 23.8701 57.1397C25.2777 57.0921 26.614 56.9911 27.8613 56.8781C30.3617 56.6344 32.5474 56.2421 34.4183 55.7844C38.1601 54.8511 40.6546 53.7574 42.3532 52.9609C44.0518 52.1465 44.9724 51.558 45.501 51.2549C46.0237 50.9398 46.1484 50.8625 46.1484 50.8625C46.1484 50.8625 46.095 50.0541 45.8812 49.8401C45.6673 49.6261 44.8596 49.4894 44.6398 49.2695C44.4201 49.0495 43.7965 48.2708 43.7965 48.2708C43.6599 47.9796 43.4282 47.6348 43.4282 47.6348L42.7452 47.9796C38.9084 50.1373 34.8459 51.4332 30.6825 52.2178C28.6037 52.6161 26.4953 52.8539 24.3868 52.9965C23.3296 53.0619 22.2783 53.1095 21.2211 53.1392C20.7104 53.1451 20.2352 53.1333 19.7423 53.1333C19.2552 53.0976 18.7742 53.056 18.2871 53.0084C14.4444 52.521 10.9105 50.6307 8.4457 47.7715C5.93337 44.948 4.46636 41.3398 3.89619 37.7495C3.32602 34.1413 3.66456 30.4856 4.78709 27.2281C5.88586 23.9528 7.89334 21.165 10.0137 18.7278C14.3612 13.8951 19.4928 10.5544 24.3749 8.25994C26.8279 7.1127 29.2333 6.22106 31.5496 5.54341C33.8659 4.87765 36.0872 4.41994 38.1601 4.11084C42.3235 3.5283 45.9227 3.55208 48.7974 3.81957C51.6779 4.09895 53.8458 4.55666 55.289 4.92521C56.0195 5.0857 56.5541 5.26403 56.9164 5.37103C57.2787 5.47802 57.4628 5.53747 57.4628 5.53747C60.7294 6.41127 63.2239 7.4753 65.1542 8.35505C65.6828 8.63443 66.2292 9.0327 66.6865 9.35963C67.1558 9.69846 67.5715 10.0135 67.9397 10.3107C68.1239 10.4593 68.2961 10.602 68.4386 10.7328C68.5752 10.8516 68.6881 10.9943 68.8128 11.1429C69.0326 11.4104 69.2404 11.6422 69.3949 11.8681C69.2345 11.6185 69.0385 11.345 68.8188 11.0597C68.4743 10.5485 67.8388 10.0551 67.233 9.53202C66.6153 9.02675 65.9501 8.47988 65.2908 8.07567C64.1029 7.48124 62.9804 6.88682 62.1192 6.54205C61.2699 6.1735 60.7235 5.93573 60.7235 5.93573L62.7013 6.77982C63.3605 7.0592 63.9901 7.40397 64.6375 7.70713L65.3205 8.01028C66.2649 8.53932 67.1676 9.2348 68.0407 9.90651C68.2605 10.0789 68.4743 10.2513 68.6762 10.4355C68.8781 10.6079 69.0445 10.8338 69.2226 11.0419C69.5909 11.452 69.9056 11.9097 70.2264 12.3555C70.0185 12.0346 69.8106 11.7136 69.5909 11.3985C69.3533 11.0954 69.1276 10.7863 68.8841 10.489C68.3496 9.94217 67.7378 9.45474 67.1439 8.96731C67.4171 9.15158 67.7853 9.41313 68.1951 9.73412C68.403 9.89462 68.6228 10.0729 68.8485 10.2751C69.0801 10.4831 69.2583 10.7387 69.478 10.9884C70.3095 11.9929 71.1232 13.2829 71.5449 14.6322C71.9606 15.9816 71.925 17.3368 71.6934 18.2701C71.628 18.5019 71.5687 18.71 71.5152 18.8942C71.4439 19.0726 71.3845 19.2271 71.337 19.3579C71.2895 19.4887 71.242 19.5838 71.2123 19.6432C71.1826 19.7086 71.1648 19.7443 71.1648 19.7443C71.4024 19.3638 71.7053 18.7278 71.8834 17.8421C72.0616 16.9624 72.0854 15.8032 71.7171 14.549C71.3489 13.3007 70.6243 11.987 69.6265 10.7387C69.5018 10.5782 69.3711 10.4237 69.2404 10.2632C69.092 10.0908 68.9257 9.94812 68.7712 9.8114C68.4565 9.53796 68.1298 9.27047 67.7972 9.00298C67.4646 8.73548 67.1201 8.47394 66.7638 8.21239C66.3955 7.95084 66.057 7.68929 65.5937 7.43963C61.6916 5.46614 56.9877 3.78985 52.0818 2.99926C49.6348 2.60694 47.1522 2.387 44.7349 2.36917C42.3176 2.36917 39.9656 2.53561 37.7681 2.82688C33.3789 3.45697 29.6312 4.54477 27.0298 5.51369C26.3824 5.76335 25.8004 5.98923 25.2896 6.19134C24.7847 6.39344 24.3571 6.59555 24.0067 6.74415C23.6563 6.89871 23.3831 7.01759 23.2049 7.09487C23.0267 7.17809 22.9317 7.22564 22.9317 7.22564C23.484 6.85709 24.8501 6.12001 26.8576 5.28781L26.9882 5.23431L27.695 4.98465C28.0514 4.85982 28.4315 4.72905 28.8353 4.58638C30.7656 3.93251 34.7687 2.7496 39.93 2.20273C42.2701 1.98874 44.6042 1.9174 46.8611 2.00062C49.2487 2.11951 51.6185 2.39889 53.9052 2.82688C58.0211 3.64124 62.2736 5.0857 65.8669 6.88682C66.1223 7.01165 66.3124 7.13648 66.4905 7.25536C66.5262 7.27914 66.5618 7.30292 66.5915 7.32075L66.8232 7.48124C66.9479 7.56446 67.0667 7.64768 67.1854 7.7309C67.5418 7.98056 67.8982 8.24211 68.2723 8.52744C68.6881 8.84248 68.991 9.0862 69.2761 9.32991C69.4186 9.4488 69.6265 9.63307 69.7987 9.82329C69.9294 9.98378 70.0601 10.1383 70.1907 10.2929C71.1767 11.4758 71.8953 12.6765 72.3408 13.8594C72.7328 14.8938 72.9169 15.9399 72.8931 16.9802C72.8694 17.8481 72.6912 18.5554 72.5011 19.1855L72.513 19.1915C72.7031 18.5554 72.8812 17.854 72.905 16.9802C72.9288 15.9459 72.7446 14.8938 72.3526 13.8594C71.9072 12.6706 71.1885 11.4699 70.2026 10.2869C70.0719 10.1324 69.9413 9.97784 69.8106 9.81734C69.6384 9.62713 69.4305 9.44285 69.288 9.31802C69.0029 9.07431 68.7 8.83059 68.2842 8.51555C67.91 8.23022 67.5537 7.96867 67.1973 7.71901C67.0785 7.63579 66.9538 7.55257 66.835 7.46935L66.6034 7.30886C66.5678 7.28508 66.5321 7.26725 66.5024 7.24347C66.3183 7.12459 66.1342 7.0057 65.8729 6.87493C62.2736 5.07381 58.027 3.6353 53.9052 2.81499C51.6185 2.387 49.2487 2.10762 46.8552 1.98874C44.6042 1.91146 42.2701 1.97685 39.924 2.19084C34.7628 2.73771 30.7537 3.92062 28.8294 4.57449C28.4255 4.71716 28.0454 4.84793 27.6891 4.97276L27.1426 5.16892C27.4931 5.02626 27.8613 4.8836 28.2533 4.74093C31.0388 3.69474 34.7687 2.62477 39.0391 2.08979C40.1022 1.92929 41.2069 1.86985 42.3294 1.77474C43.452 1.73313 44.5983 1.66775 45.7624 1.70341C46.9265 1.69152 48.0965 1.79258 49.2784 1.86391C50.4544 2.00062 51.6423 2.10168 52.8183 2.32162C57.54 3.05276 62.0955 4.63988 66.0332 6.53016C66.4727 6.75604 66.7222 6.94031 67.0073 7.12459C67.2745 7.3148 67.5359 7.49908 67.7972 7.68335C68.308 8.05784 68.8009 8.43233 69.288 8.83059L69.6621 9.15158C69.7869 9.25858 69.971 9.43096 70.0898 9.57363C70.2917 9.81734 70.4936 10.0551 70.6956 10.2988C70.8975 10.5247 71.0638 10.7922 71.2479 11.0359C71.4261 11.2796 71.5984 11.5293 71.7468 11.7908C72.3764 12.8133 72.8575 13.907 73.0951 15.0126C73.3386 16.1123 73.3445 17.2001 73.1841 18.1512C73.0238 19.0964 72.7328 19.9167 72.4002 20.5705C72.0735 21.2303 71.729 21.7475 71.438 22.1517C71.141 22.5559 70.8916 22.8412 70.7253 23.0374C70.559 23.2336 70.4639 23.3287 70.4639 23.3287C70.7668 23.0612 71.3548 22.4965 72.02 21.5157C72.6556 20.5349 73.4217 19.0547 73.5167 17.0872C73.5583 16.1183 73.4217 15.0661 73.101 14.0378C72.7803 13.0035 72.2576 12.0167 71.6399 11.0716C71.4796 10.8398 71.3192 10.6079 71.1529 10.3761C70.9807 10.1502 70.7965 9.93623 70.6184 9.71035L70.3333 9.36558C70.2204 9.22886 70.0482 9.06242 69.9235 8.94948C69.68 8.72954 69.4602 8.54527 69.2345 8.36694C68.7891 8.00434 68.3377 7.65957 67.8685 7.30886C67.6309 7.13648 67.3933 6.96409 67.1379 6.78576C66.8766 6.61338 66.6331 6.43505 66.1995 6.20917C64.0257 5.15703 61.7094 4.16434 59.2387 3.3797C56.7679 2.60694 54.1902 2.00062 51.5769 1.61425C46.3563 0.871213 41.0703 1.00793 36.5208 1.78069C31.9535 2.49994 28.1226 3.78985 25.4618 4.83604C24.7907 5.09165 24.2027 5.34725 23.686 5.57908C23.1752 5.8109 22.7238 5.98923 22.3734 6.16756C21.6666 6.51233 21.2805 6.70254 21.2805 6.70254C21.8151 6.39344 23.6206 5.40075 26.4477 4.31295C29.263 3.21326 33.1116 2.06601 37.578 1.38836C39.8112 1.07332 42.1928 0.883101 44.6517 0.85338C47.1106 0.847436 49.6407 1.03765 52.159 1.40025C54.6773 1.76285 57.1658 2.387 59.5594 3.12409C61.9648 3.86713 64.2099 4.84199 66.3658 5.85251C66.936 6.14973 67.1914 6.34589 67.518 6.56583C67.8269 6.77982 68.1179 6.98787 68.4089 7.20186C68.991 7.63579 69.5196 8.03406 70.1135 8.55121C70.2501 8.6701 70.4936 8.89598 70.6481 9.07431L71.0104 9.5023C71.242 9.78168 71.4736 10.0492 71.6815 10.3523C72.1151 10.9289 72.4952 11.5471 72.8337 12.1832C73.5049 13.4552 73.9384 14.87 74.0216 16.2609C74.1107 17.6459 73.8553 18.9537 73.4455 20.0118C72.608 22.1398 71.4083 23.3941 70.6243 24.2025Z" fill="#EE6C4D"/>
<path d="M70.4224 13.5744C70.3927 13.4674 70.3155 13.295 70.1551 13.0276C70.0779 12.8908 69.9888 12.7303 69.8819 12.5401C69.7572 12.3618 69.6087 12.1537 69.4424 11.91C69.4305 11.8922 69.4127 11.8684 69.4008 11.8506C69.8522 12.5461 70.0838 13.0811 70.1195 13.2356C70.1373 13.2297 70.5709 13.9846 70.4224 13.5744Z" fill="#EE6C4D"/>
<path d="M1.01562 26.7766C0.914657 27.062 0.831506 27.3354 0.754295 27.5969C0.902778 27.0798 1.07502 26.5686 1.25914 26.0574C1.17005 26.307 1.0869 26.5448 1.01562 26.7766ZM16.6657 8.72388C14.9374 9.82357 13.215 11.0838 11.546 12.4569C8.46352 15.0248 5.8324 17.9078 3.93183 20.8026C3.78334 21.0345 3.6408 21.2603 3.49232 21.4862L3.26662 21.8488C3.11814 22.0985 2.9756 22.3541 2.83899 22.6038C2.7796 22.7048 2.72615 22.8118 2.66675 22.9129C2.51233 23.1803 2.38167 23.4538 2.25694 23.7213C2.2213 23.7986 2.18567 23.8758 2.15003 23.9472C2.10846 24.0423 2.06094 24.1314 2.01937 24.2206C1.90058 24.4643 1.79367 24.7021 1.69865 24.9399C1.55016 25.2965 1.42544 25.6175 1.31259 25.9147C1.85901 24.4465 2.53609 23.0199 3.34977 21.6824C6.59857 16.3682 11.1481 12.5163 14.3909 10.2159C17.7288 7.82629 20.6866 6.364 22.112 5.69824C20.2293 6.61366 18.394 7.63013 16.6657 8.72388Z" fill="#EE6C4D"/>
<path d="M66.443 10.1919L66.4549 10.1978L66.4609 10.1919L66.449 10.186C66.3658 10.1206 66.253 10.0255 66.0095 9.84713C65.8848 9.75796 65.7244 9.64502 65.5165 9.49642C65.3977 9.4132 65.0414 9.16948 64.8216 9.05059C63.3546 8.32539 59.4525 6.38756 54.1606 5.27598C51.3513 4.67561 48.4648 4.34273 45.5842 4.28923C45.2872 4.28329 44.9843 4.27734 44.6814 4.27734C41.9256 4.27734 39.051 4.53295 36.3011 5.02038C33.4442 5.51375 30.5221 6.31623 27.6178 7.39809C25.1649 8.31351 22.7535 9.43103 20.6391 10.6258C18.9286 11.5947 17.325 12.6172 16.1193 13.4969C15.7095 13.7763 15.3888 14.026 15.1274 14.2281C15.0562 14.2875 14.9849 14.3351 14.9255 14.3826L14.5097 14.7036L14.5157 14.7155L14.9314 14.3945C14.9908 14.3469 15.0621 14.2934 15.1334 14.2399C15.3888 14.0378 15.7095 13.7941 16.1252 13.5088C17.3309 12.629 18.9345 11.6126 20.645 10.6377C22.7594 9.44292 25.1708 8.33134 27.6237 7.41592C30.528 6.32812 33.4502 5.53159 36.307 5.03821C39.3598 4.49134 42.567 4.24168 45.5901 4.30112C48.4648 4.35462 51.3513 4.6875 54.1665 5.28787C59.4584 6.39945 63.3605 8.33728 64.8276 9.06248C65.0473 9.17542 65.4037 9.42508 65.5225 9.50236C65.7303 9.65097 65.8907 9.76391 66.0154 9.85307C66.2471 10.0314 66.3599 10.1265 66.443 10.1919Z" fill="#EE6C4D"/>
<mask id="mask0_243_7632" style="mask-type:alpha" maskUnits="userSpaceOnUse" x="18" y="19" width="57" height="43">
<path d="M64.2693 54.56L20.6925 61.6753L18.5544 48.5503L49.0646 19.7147L74.8353 19.043L64.2693 54.56Z" fill="url(#paint0_linear_243_7632)"/>
</mask>
<g mask="url(#mask0_243_7632)">
<path d="M57.54 27.0496C57.5519 26.9901 57.5697 26.9307 57.5875 26.8712C57.6232 26.7405 57.6291 26.6097 57.6469 26.473L57.6766 26.1639C57.6826 26.045 57.7004 25.9261 57.6944 25.8072C57.6944 24.8442 57.445 23.9348 57.0589 23.1382C56.8689 22.734 56.6372 22.3655 56.364 22.0088C56.0968 21.6522 55.7879 21.3193 55.3544 20.9626C55.2296 20.8675 55.1049 20.7665 54.8436 20.6297C54.7723 20.5941 54.7248 20.5703 54.6298 20.5287C54.5169 20.4811 54.3981 20.4455 54.2853 20.4158C54.2496 20.4039 54.1071 20.3741 54.0061 20.3682C53.8933 20.3563 53.7864 20.3504 53.6735 20.3504C53.6023 20.3444 53.3587 20.3741 53.1865 20.4217C52.9964 20.4692 52.8242 20.5406 52.6579 20.6357C52.4738 20.7427 52.2956 20.8794 52.1412 21.0399C52.064 21.1172 51.9986 21.2063 51.9392 21.2896C51.8977 21.349 51.862 21.4144 51.8264 21.4798C51.7551 21.6105 51.6957 21.7532 51.6482 21.8899C51.5948 22.0623 51.6007 22.0861 51.577 22.1812C51.5651 22.2644 51.5532 22.3417 51.5473 22.4249L51.5413 22.5438V22.6151C51.5413 22.7102 51.5473 22.7994 51.5591 22.8945C51.577 23.0491 51.6007 23.1442 51.6245 23.2631L51.6957 23.5187C51.7908 23.804 51.8858 24.012 51.9749 24.2023L52.2065 24.654C52.456 25.1296 52.6698 25.6289 52.8717 26.1282C52.9667 26.366 53.0499 26.6097 53.1331 26.8534C52.9905 27.0614 52.8183 27.2695 52.5748 27.4716C52.5748 27.4716 52.4857 27.5667 52.3312 27.7391C52.1234 27.8877 51.8917 28.1433 51.4997 28.393C51.3037 28.5178 51.1077 28.6605 50.8761 28.8091C50.6207 28.9517 50.3535 29.1063 50.0743 29.2608C49.522 29.5937 48.9102 29.8671 48.3103 30.1762C47.0928 30.741 45.8455 31.1749 44.919 31.4424C43.9984 31.698 43.4104 31.799 43.5292 31.8169C41.397 32.3281 39.5736 32.3102 39.1341 32.5599C38.8847 32.6728 38.95 32.976 39.6389 33.3445C40.316 33.7012 41.5989 34.1114 43.6242 34.1411C46.0237 34.254 48.8983 33.618 51.0543 32.8512C51.5888 32.6431 52.0877 32.4529 52.5332 32.2746C52.9905 32.0844 53.4181 31.8585 53.7626 31.692C53.8398 31.6504 53.8992 31.6148 53.9646 31.5732C53.9705 31.8644 53.9705 32.1616 53.9586 32.4529C53.9111 33.5229 53.7923 34.5928 53.5132 35.639C53.4063 36.1681 53.2103 36.6793 53.0558 37.1964L52.7589 37.9573L52.6104 38.3377L52.4263 38.6944C51.5591 40.6441 50.1872 42.3858 48.5717 43.8956C46.9443 45.4055 45.109 46.7548 43.0778 47.8248C39.051 50.0123 34.9172 51.4805 30.3142 52.2889C29.7678 52.3959 29.0848 52.5148 28.5324 52.5743L26.6675 52.8061C25.5628 52.8834 24.8263 53.026 23.7157 53.0379C23.6266 53.0557 23.0505 53.1211 23.0148 53.1568C21.9873 54.096 21.7557 54.9341 21.9398 55.6118C22.118 56.2835 22.7119 56.7947 23.1989 57.0741C23.3415 57.1692 23.8701 57.1335 23.977 57.1276C25.1827 57.1097 25.8954 57.0146 27.1011 56.9255L28.8829 56.6758C29.4827 56.6045 30.0648 56.6401 30.6587 56.5213C35.5586 55.6653 40.4289 54.2565 44.8655 51.6291C47.0453 50.3333 49.225 48.9601 51.1553 47.2185C53.0974 45.4946 54.7604 43.3547 55.972 40.9473C57.1955 38.5636 57.9083 35.966 58.1043 33.2792C58.2527 31.1927 58.0567 29.0766 57.54 27.0496Z" fill="white"/>
</g>
<path d="M111.191 43.8846L112.342 41.6132H113.602L111.772 44.9826V47.1296H110.61V45.0204L108.78 41.6132H110.048L111.191 43.8846Z" fill="white"/>
<path d="M118.84 44.3638C118.84 45.2769 118.614 45.9788 118.161 46.4693C117.708 46.9598 117.059 47.2051 116.214 47.2051C115.369 47.2051 114.72 46.9598 114.267 46.4693C113.814 45.9788 113.588 45.2744 113.588 44.3563C113.588 43.4381 113.814 42.7376 114.267 42.2546C114.722 41.7691 115.374 41.5264 116.221 41.5264C117.069 41.5264 117.717 41.7704 118.165 42.2584C118.615 42.7464 118.84 43.4482 118.84 44.3638ZM114.814 44.3638C114.814 44.9801 114.931 45.4442 115.165 45.7561C115.399 46.0681 115.748 46.224 116.214 46.224C117.147 46.224 117.614 45.604 117.614 44.3638C117.614 43.1212 117.15 42.4999 116.221 42.4999C115.756 42.4999 115.405 42.6571 115.169 42.9715C114.932 43.2834 114.814 43.7475 114.814 44.3638Z" fill="white"/>
<path d="M124.01 41.6132V45.1826C124.01 45.5901 123.918 45.9473 123.734 46.2542C123.553 46.5611 123.29 46.7963 122.946 46.9598C122.601 47.1233 122.194 47.2051 121.723 47.2051C121.014 47.2051 120.463 47.0239 120.071 46.6617C119.678 46.297 119.482 45.7989 119.482 45.1675V41.6132H120.648V44.9902C120.648 45.4153 120.733 45.7272 120.904 45.9259C121.075 46.1247 121.358 46.224 121.753 46.224C122.136 46.224 122.412 46.1247 122.583 45.9259C122.757 45.7247 122.844 45.4103 122.844 44.9826V41.6132H124.01Z" fill="white"/>
<path d="M126.067 44.062H126.444C126.814 44.062 127.087 44.0003 127.263 43.8771C127.439 43.7538 127.527 43.5601 127.527 43.296C127.527 43.0344 127.436 42.8483 127.255 42.7376C127.077 42.6269 126.799 42.5715 126.421 42.5715H126.067V44.062ZM126.067 45.0128V47.1296H124.897V41.6132H126.504C127.254 41.6132 127.809 41.7502 128.168 42.0244C128.528 42.2961 128.708 42.7099 128.708 43.2658C128.708 43.5903 128.619 43.8796 128.44 44.1337C128.261 44.3852 128.009 44.5827 127.682 44.7261C128.512 45.9662 129.053 46.7674 129.304 47.1296H128.006L126.689 45.0128H126.067Z" fill="white"/>
<path d="M134.335 45.5977C134.335 46.0957 134.155 46.4882 133.795 46.7749C133.438 47.0617 132.94 47.2051 132.301 47.2051C131.712 47.2051 131.192 47.0944 130.739 46.873V45.7863C131.111 45.9524 131.426 46.0693 131.682 46.1372C131.941 46.2052 132.178 46.2391 132.391 46.2391C132.648 46.2391 132.844 46.1901 132.98 46.092C133.118 45.9939 133.188 45.848 133.188 45.6543C133.188 45.5461 133.157 45.4505 133.097 45.3675C133.037 45.282 132.947 45.2002 132.829 45.1222C132.713 45.0443 132.476 44.9197 132.116 44.7487C131.779 44.5902 131.526 44.438 131.358 44.2921C131.189 44.1462 131.054 43.9764 130.954 43.7828C130.853 43.5891 130.803 43.3627 130.803 43.1036C130.803 42.6156 130.968 42.232 131.297 41.9527C131.629 41.6735 132.087 41.5339 132.671 41.5339C132.957 41.5339 133.23 41.5679 133.489 41.6358C133.751 41.7037 134.024 41.7993 134.308 41.9226L133.931 42.8319C133.637 42.7112 133.393 42.6269 133.199 42.5791C133.008 42.5313 132.819 42.5074 132.633 42.5074C132.412 42.5074 132.242 42.559 132.124 42.6621C132.005 42.7652 131.946 42.8998 131.946 43.0658C131.946 43.169 131.97 43.2595 132.018 43.3375C132.066 43.413 132.141 43.4872 132.244 43.5601C132.35 43.6306 132.598 43.7589 132.988 43.945C133.503 44.1915 133.857 44.4393 134.048 44.6883C134.239 44.9348 134.335 45.238 134.335 45.5977Z" fill="white"/>
<path d="M138.248 47.1296L137.848 45.8165H135.837L135.437 47.1296H134.177L136.124 41.5905H137.554L139.508 47.1296H138.248ZM137.569 44.8355C137.199 43.6457 136.99 42.9728 136.942 42.8168C136.897 42.6608 136.864 42.5376 136.844 42.447C136.761 42.769 136.524 43.5652 136.131 44.8355H137.569Z" fill="white"/>
<path d="M140.912 44.062H141.29C141.659 44.062 141.932 44.0003 142.108 43.8771C142.284 43.7538 142.373 43.5601 142.373 43.296C142.373 43.0344 142.282 42.8483 142.101 42.7376C141.922 42.6269 141.644 42.5715 141.267 42.5715H140.912V44.062ZM140.912 45.0128V47.1296H139.743V41.6132H141.35C142.1 41.6132 142.654 41.7502 143.014 42.0244C143.374 42.2961 143.554 42.7099 143.554 43.2658C143.554 43.5903 143.464 43.8796 143.286 44.1337C143.107 44.3852 142.854 44.5827 142.527 44.7261C143.357 45.9662 143.898 46.7674 144.15 47.1296H142.852L141.535 45.0128H140.912Z" fill="white"/>
<path d="M146.508 47.1296H145.339V42.5866H143.841V41.6132H148.006V42.5866H146.508V47.1296Z" fill="white"/>
<path d="M152.912 47.1296H151.746V44.7487H149.561V47.1296H148.392V41.6132H149.561V43.7752H151.746V41.6132H152.912V47.1296Z" fill="white"/>
<path d="M153.844 47.1296V41.6132H155.014V47.1296H153.844Z" fill="white"/>
<path d="M158.634 47.1296H157.483V41.6132H160.645V42.5715H158.634V43.9941H160.505V44.9487H158.634V47.1296Z" fill="white"/>
<path d="M166.267 44.3638C166.267 45.2769 166.041 45.9788 165.588 46.4693C165.135 46.9598 164.486 47.2051 163.641 47.2051C162.796 47.2051 162.147 46.9598 161.694 46.4693C161.241 45.9788 161.015 45.2744 161.015 44.3563C161.015 43.4381 161.241 42.7376 161.694 42.2546C162.149 41.7691 162.801 41.5264 163.649 41.5264C164.496 41.5264 165.144 41.7704 165.592 42.2584C166.042 42.7464 166.267 43.4482 166.267 44.3638ZM162.241 44.3638C162.241 44.9801 162.358 45.4442 162.592 45.7561C162.826 46.0681 163.176 46.224 163.641 46.224C164.574 46.224 165.041 45.604 165.041 44.3638C165.041 43.1212 164.577 42.4999 163.649 42.4999C163.183 42.4999 162.832 42.6571 162.596 42.9715C162.359 43.2834 162.241 43.7475 162.241 44.3638Z" fill="white"/>
<path d="M168.117 44.062H168.494C168.864 44.062 169.137 44.0003 169.313 43.8771C169.489 43.7538 169.577 43.5601 169.577 43.296C169.577 43.0344 169.486 42.8483 169.305 42.7376C169.127 42.6269 168.849 42.5715 168.471 42.5715H168.117V44.062ZM168.117 45.0128V47.1296H166.947V41.6132H168.554C169.304 41.6132 169.859 41.7502 170.218 42.0244C170.578 42.2961 170.758 42.7099 170.758 43.2658C170.758 43.5903 170.669 43.8796 170.49 44.1337C170.311 44.3852 170.059 44.5827 169.732 44.7261C170.562 45.9662 171.102 46.7674 171.354 47.1296H170.056L168.739 45.0128H168.117Z" fill="white"/>
<path d="M173.128 47.1296V41.6132H174.298V46.1637H176.536V47.1296H173.128Z" fill="white"/>
<path d="M177.034 47.1296V41.6132H178.204V47.1296H177.034Z" fill="white"/>
<path d="M180.279 47.1296H179.129V41.6132H182.291V42.5715H180.279V43.9941H182.151V44.9487H180.279V47.1296Z" fill="white"/>
<path d="M186.083 47.1296H182.906V41.6132H186.083V42.5715H184.076V43.7828H185.944V44.7412H184.076V46.1637H186.083V47.1296Z" fill="white"/>
<path d="M114.25 24.2039C114.25 24.8935 114.001 25.4369 113.503 25.8339C113.008 26.231 112.319 26.4295 111.434 26.4295C110.619 26.4295 109.898 26.2763 109.271 25.9698V24.4651C109.787 24.695 110.222 24.8569 110.577 24.951C110.936 25.045 111.264 25.092 111.56 25.092C111.915 25.092 112.186 25.0241 112.375 24.8883C112.566 24.7525 112.662 24.5504 112.662 24.2823C112.662 24.1325 112.62 24.0001 112.537 23.8852C112.453 23.7668 112.329 23.6536 112.166 23.5456C112.005 23.4376 111.676 23.2652 111.178 23.0284C110.711 22.809 110.361 22.5982 110.128 22.3962C109.895 22.1942 109.708 21.9591 109.569 21.6909C109.43 21.4227 109.36 21.1093 109.36 20.7505C109.36 20.0748 109.588 19.5437 110.044 19.1571C110.504 18.7705 111.138 18.5771 111.946 18.5771C112.343 18.5771 112.721 18.6242 113.08 18.7182C113.442 18.8122 113.82 18.9446 114.214 19.1153L113.691 20.3744C113.284 20.2072 112.946 20.0905 112.678 20.0243C112.413 19.9581 112.152 19.9251 111.894 19.9251C111.587 19.9251 111.352 19.9965 111.189 20.1393C111.025 20.2821 110.943 20.4684 110.943 20.6983C110.943 20.8411 110.976 20.9665 111.042 21.0744C111.109 21.1789 111.213 21.2817 111.356 21.3827C111.502 21.4802 111.845 21.6578 112.385 21.9156C113.099 22.2569 113.588 22.6 113.853 22.9448C114.118 23.2861 114.25 23.7058 114.25 24.2039Z" fill="white"/>
<path d="M121.852 18.6869V23.6292C121.852 24.1934 121.725 24.688 121.47 25.1129C121.22 25.5379 120.856 25.8635 120.378 26.0899C119.901 26.3163 119.337 26.4295 118.686 26.4295C117.704 26.4295 116.941 26.1787 116.397 25.6772C115.854 25.1722 115.582 24.4825 115.582 23.6083V18.6869H117.197V23.3628C117.197 23.9514 117.315 24.3833 117.552 24.6584C117.789 24.9336 118.181 25.0712 118.728 25.0712C119.257 25.0712 119.64 24.9336 119.877 24.6584C120.117 24.3798 120.237 23.9444 120.237 23.3523V18.6869H121.852Z" fill="white"/>
<path d="M123.722 18.6869H126.099C127.182 18.6869 127.968 18.8419 128.455 19.1518C128.947 19.4583 129.192 19.9477 129.192 20.6199C129.192 21.0762 129.084 21.4506 128.868 21.7432C128.656 22.0357 128.372 22.2116 128.017 22.2708V22.3231C128.501 22.4311 128.849 22.6331 129.061 22.9291C129.277 23.2252 129.385 23.6188 129.385 24.1099C129.385 24.8064 129.133 25.3498 128.628 25.7399C128.126 26.13 127.444 26.325 126.58 26.325H123.722V18.6869ZM125.342 21.7118H126.282C126.721 21.7118 127.038 21.6439 127.233 21.5081C127.431 21.3722 127.531 21.1476 127.531 20.8341C127.531 20.5415 127.423 20.3326 127.207 20.2072C126.994 20.0783 126.656 20.0139 126.193 20.0139H125.342V21.7118ZM125.342 22.997V24.9876H126.397C126.843 24.9876 127.172 24.9022 127.384 24.7316C127.597 24.5609 127.703 24.2997 127.703 23.9479C127.703 23.314 127.25 22.997 126.345 22.997H125.342Z" fill="white"/>
<path d="M137.17 26.325H135.555V23.0284H132.531V26.325H130.911V18.6869H132.531V21.6805H135.555V18.6869H137.17V26.325Z" fill="white"/>
<path d="M143.779 26.325L143.225 24.5069H140.44L139.887 26.325H138.142L140.837 18.6555H142.817L145.524 26.325H143.779ZM142.838 23.1486C142.326 21.5011 142.037 20.5694 141.971 20.3535C141.908 20.1375 141.863 19.9669 141.835 19.8415C141.72 20.2873 141.391 21.3896 140.848 23.1486H142.838Z" fill="white"/>
<path d="M150.999 24.2039C150.999 24.8935 150.75 25.4369 150.252 25.8339C149.757 26.231 149.068 26.4295 148.183 26.4295C147.368 26.4295 146.647 26.2763 146.02 25.9698V24.4651C146.536 24.695 146.971 24.8569 147.326 24.951C147.685 25.045 148.012 25.092 148.308 25.092C148.664 25.092 148.935 25.0241 149.123 24.8883C149.315 24.7525 149.411 24.5504 149.411 24.2823C149.411 24.1325 149.369 24.0001 149.285 23.8852C149.202 23.7668 149.078 23.6536 148.914 23.5456C148.754 23.4376 148.425 23.2652 147.927 23.0284C147.46 22.809 147.11 22.5982 146.877 22.3962C146.644 22.1942 146.457 21.9591 146.318 21.6909C146.179 21.4227 146.109 21.1093 146.109 20.7505C146.109 20.0748 146.337 19.5437 146.793 19.1571C147.253 18.7705 147.887 18.5771 148.695 18.5771C149.092 18.5771 149.47 18.6242 149.829 18.7182C150.191 18.8122 150.569 18.9446 150.962 19.1153L150.44 20.3744C150.032 20.2072 149.695 20.0905 149.426 20.0243C149.162 19.9581 148.9 19.9251 148.643 19.9251C148.336 19.9251 148.101 19.9965 147.937 20.1393C147.774 20.2821 147.692 20.4684 147.692 20.6983C147.692 20.8411 147.725 20.9665 147.791 21.0744C147.857 21.1789 147.962 21.2817 148.105 21.3827C148.251 21.4802 148.594 21.6578 149.134 21.9156C149.848 22.2569 150.337 22.6 150.602 22.9448C150.867 23.2861 150.999 23.7058 150.999 24.2039Z" fill="white"/>
<path d="M158.642 26.325H157.028V23.0284H154.003V26.325H152.383V18.6869H154.003V21.6805H157.028V18.6869H158.642V26.325Z" fill="white"/>
<path d="M112.986 30.6248C112.376 30.6248 111.904 30.8546 111.57 31.3144C111.236 31.7706 111.068 32.408 111.068 33.2265C111.068 34.9297 111.708 35.7813 112.986 35.7813C113.522 35.7813 114.172 35.6472 114.935 35.379V36.7374C114.308 36.9986 113.608 37.1292 112.834 37.1292C111.723 37.1292 110.873 36.7931 110.285 36.1209C109.696 35.4452 109.402 34.4769 109.402 33.2161C109.402 32.422 109.546 31.7271 109.835 31.1315C110.125 30.5325 110.539 30.0744 111.079 29.7575C111.622 29.4371 112.258 29.2768 112.986 29.2768C113.728 29.2768 114.473 29.4562 115.222 29.815L114.699 31.1315C114.414 30.9957 114.127 30.8773 113.837 30.7763C113.548 30.6753 113.264 30.6248 112.986 30.6248Z" fill="white"/>
<path d="M122.823 37.0247H121.209V33.7281H118.184V37.0247H116.565V29.3866H118.184V32.3802H121.209V29.3866H122.823V37.0247Z" fill="white"/>
<path d="M129.432 37.0247L128.879 35.2066H126.094L125.54 37.0247H123.795L126.491 29.3552H128.471L131.177 37.0247H129.432ZM128.492 33.8482C127.98 32.2008 127.691 31.2691 127.625 31.0532C127.562 30.8372 127.517 30.6665 127.489 30.5412C127.374 30.987 127.045 32.0893 126.502 33.8482H128.492Z" fill="white"/>
<path d="M138.92 37.0247H136.862L133.539 31.2465H133.492C133.558 32.267 133.591 32.9949 133.591 33.4303V37.0247H132.144V29.3866H134.187L137.504 35.1073H137.541C137.489 34.1147 137.462 33.4129 137.462 33.0019V29.3866H138.92V37.0247Z" fill="white"/>
<path d="M147.185 33.1325C147.185 34.3898 146.826 35.3529 146.109 36.0216C145.395 36.6903 144.362 37.0247 143.011 37.0247H140.848V29.3866H143.246C144.493 29.3866 145.461 29.7157 146.151 30.374C146.84 31.0323 147.185 31.9518 147.185 33.1325ZM145.503 33.1743C145.503 31.5338 144.778 30.7136 143.329 30.7136H142.467V35.6873H143.162C144.723 35.6873 145.503 34.8496 145.503 33.1743Z" fill="white"/>
<path d="M150.388 32.7772H150.91C151.422 32.7772 151.8 32.6919 152.044 32.5212C152.288 32.3506 152.41 32.0824 152.41 31.7167C152.41 31.3544 152.284 31.0967 152.033 30.9434C151.786 30.7902 151.401 30.7136 150.879 30.7136H150.388V32.7772ZM150.388 34.0938V37.0247H148.768V29.3866H150.994C152.032 29.3866 152.8 29.5764 153.298 29.956C153.796 30.3322 154.045 30.9051 154.045 31.6749C154.045 32.1242 153.921 32.5247 153.674 32.8765C153.427 33.2248 153.077 33.4982 152.624 33.6967C153.773 35.4138 154.522 36.5232 154.87 37.0247H153.073L151.25 34.0938H150.388Z" fill="white"/>
<path d="M160.508 37.0247L159.954 35.2066H157.169L156.615 37.0247H154.87L157.566 29.3552H159.546L162.252 37.0247H160.508ZM159.567 33.8482C159.055 32.2008 158.766 31.2691 158.7 31.0532C158.637 30.8372 158.592 30.6665 158.564 30.5412C158.449 30.987 158.12 32.0893 157.577 33.8482H159.567Z" fill="white"/>
</g>
<defs>
<linearGradient id="paint0_linear_243_7632" x1="40.4788" y1="43.3923" x2="24.5441" y2="49.5386" gradientUnits="userSpaceOnUse">
<stop offset="0.0216" stop-color="white"/>
<stop offset="0.1681" stop-color="#F3F3F4" stop-opacity="0.9309"/>
<stop offset="0.2988" stop-color="#C0C0C1" stop-opacity="0.7848"/>
<stop offset="0.4891" stop-color="#7D7D7D" stop-opacity="0.5718"/>
<stop offset="0.6614" stop-color="#474747" stop-opacity="0.379"/>
<stop offset="0.8093" stop-color="#202021" stop-opacity="0.2135"/>
<stop offset="0.927" stop-color="#090909" stop-opacity="0.0816"/>
<stop offset="1" stop-opacity="0"/>
</linearGradient>
<clipPath id="clip0_243_7632">
<rect width="192" height="56.4706" fill="white" transform="translate(0 0.764648)"/>
</clipPath>
</defs>
</svg>
