<svg width="151" height="150" viewBox="0 0 151 150" fill="none" xmlns="http://www.w3.org/2000/svg">
<path d="M40.3201 45.5009C35.0346 40.0484 33.8816 31.7952 34.2708 24.2113C34.4076 21.5454 34.7578 18.7356 36.3809 16.6163C38.2801 14.1363 41.7192 13.097 44.7846 13.6974C47.8501 14.2977 50.5078 16.3631 52.2492 18.9564C53.9906 21.5496 54.8847 24.6348 55.2894 27.7322C55.9025 32.4243 55.3504 37.4823 52.5929 41.3279C49.8354 45.1734 44.4988 47.3737 40.1422 45.5266" fill="white"/>
<path d="M66.3978 44.6669C61.1123 39.2144 59.9593 30.9612 60.3484 23.3774C60.4852 20.7114 60.8355 17.9016 62.4585 15.7823C64.3578 13.3023 67.7968 12.263 70.8623 12.8634C73.9277 13.4638 76.5854 15.5291 78.3268 18.1224C80.0683 20.7156 80.9624 23.8008 81.3671 26.8982C81.9801 31.5904 81.428 36.6483 78.6705 40.4939C75.9131 44.3394 70.5764 46.5397 66.2198 44.6926" fill="white"/>
<path d="M123.032 135.771C122.258 136.235 121.21 135.884 120.4 136.281C119.51 136.718 119.252 137.943 119.603 138.869C119.954 139.795 120.75 140.474 121.552 141.055C122.124 141.469 122.746 141.867 123.447 141.94C124.779 142.081 126.007 140.927 126.279 139.616C126.473 138.679 126.256 137.652 125.649 136.913C125.042 136.174 124.041 135.758 123.097 135.912C122.709 135.975 122.254 136.307 122.416 136.665" fill="#EE6C4D"/>
<path d="M92.8039 104.771C92.1381 101.636 91.7138 98.2039 93.1993 95.3647C94.0361 93.7653 95.4052 92.5153 96.8076 91.3788C98.151 90.2901 99.5702 89.2613 101.173 88.6132C105.286 86.9503 110.103 88.0476 113.871 90.3899C117.638 92.7322 120.566 96.1795 123.427 99.5695C125.105 101.557 126.803 103.575 127.908 105.929C128.695 107.606 129.165 109.418 129.96 111.091C131.174 113.644 133.152 115.827 135.573 117.286C133.225 118.676 130.291 118.292 127.563 118.355C124.678 118.421 121.831 119.037 119.06 119.843C115.177 120.971 111.406 122.482 107.813 124.338C105.817 125.369 100.282 130.213 98.297 128.942C96.1048 127.539 93.8599 118.72 93.3587 116.378C92.4191 111.989 93.7368 109.162 92.8039 104.771Z" fill="#EE6C4D"/>
<path d="M89.1857 144.284C88.9481 144.166 89.1285 144.245 88.0535 143.529C86.9596 142.62 86.0601 141.868 85.0798 140.218C83.0694 136.535 82.9377 133.651 83.9514 130.37C84.2419 129.618 84.441 129.135 84.3596 129.083C84.2932 129.038 83.9462 129.432 83.4956 130.163C80.7648 135.315 83.1151 142.229 87.9664 144.751C88.2979 144.917 88.5607 145.053 88.8 145.107C89.728 145.375 89.8048 145.231 89.8647 145.065C89.9249 144.898 89.9342 144.726 89.1857 144.284Z" fill="#201429"/>
<path d="M75.1297 140.512C75.0876 139.417 75.3551 138.516 75.185 138.437C75.0412 138.357 74.4325 139.189 74.2231 140.441C73.9827 141.681 74.2567 143.215 74.669 144.087C75.4158 145.696 76.2524 146.23 76.6344 146.447C77.0592 146.644 77.1623 146.52 77.2689 146.378C77.3755 146.236 77.4525 146.091 77.2276 145.758C77.0773 145.477 75.161 143.466 75.1297 140.512Z" fill="#201429"/>
<path d="M31.0622 9.72177C33.8858 7.45209 35.144 7.33432 34.717 6.16925C34.5952 5.83559 34.4707 5.53883 33.7299 5.5806C31.2457 5.86793 27.5268 8.65458 25.9545 12.3525C25.147 14.1564 25.0341 15.751 25.3621 15.8421C25.9964 16.0354 26.9326 13.025 31.0622 9.72177Z" fill="#201429"/>
<path d="M82.8516 7.50499C86.5805 9.54881 87.3149 10.8948 88.2377 10.0234C88.4959 9.77984 88.7164 9.54492 88.3101 8.80328C86.7887 6.37849 82.4957 3.74321 77.6352 3.47233C75.3609 3.34213 73.5862 3.83475 73.6196 4.17166C73.6687 4.8505 77.4858 4.54695 82.8516 7.50499Z" fill="#201429"/>
<path d="M67.0951 57.2125C66.7631 57.0595 66.4709 57.0026 65.9192 57.4843C65.6343 57.7165 65.279 58.0833 64.6675 58.5227C62.0293 60.3954 59.0349 60.5021 55.9775 59.5655C53.905 58.9437 52.2562 58.0355 52.0398 58.3372C51.8361 58.5998 53.1129 60.0668 55.2714 61.2419C59.3088 63.4482 63.6254 62.8305 66.2222 60.3115C66.979 59.572 67.3105 58.9041 67.4621 58.4468C67.7402 57.5087 67.4049 57.353 67.0951 57.2125Z" fill="#201429"/>
<path d="M110.94 20.1612C111.073 12.9281 110.788 12.7713 110.433 12.7648C110.078 12.7583 109.787 12.9042 109.655 20.1379C109.582 24.1011 109.714 32.6124 110.069 32.6189C110.424 32.6254 110.867 24.1249 110.94 20.1612Z" fill="#201429"/>
<path d="M120.007 28.1474C121.472 23.7193 121.229 23.5364 120.892 23.4247C120.555 23.3129 120.251 23.3151 118.786 27.7438C117.983 30.17 116.533 35.4679 116.87 35.5796C117.207 35.6908 119.204 30.5742 120.007 28.1474Z" fill="#201429"/>
<path d="M120.698 39.895C120.818 40.2292 124.521 39.2087 126.201 38.6064C129.267 37.5084 129.234 37.2143 129.114 36.8801C128.995 36.5459 128.834 36.2974 125.767 37.3961C124.087 37.9977 120.578 39.5602 120.698 39.895Z" fill="#201429"/>
<path d="M142.68 119.117C142.714 118.973 142.669 118.673 142.347 118.339C142.014 117.973 141.436 117.65 140.58 117.417C140.58 117.384 140.569 117.35 140.569 117.317C140.536 117.139 140.436 116.995 139.803 116.906C139.18 116.761 137.936 116.806 136.136 115.428C135.236 114.739 134.225 113.661 133.091 112.184C130.195 108.448 129.08 103.464 125.025 97.7167C121.858 93.2388 117.896 89.5994 112.78 87.6168C112.501 79.2374 112.056 49.8123 109.236 41.3506C109.236 41.35 109.236 41.35 109.236 41.3495C109.28 41.1939 109.252 41.0806 109.11 40.9762C108.834 40.2845 108.635 40.2725 108.436 40.3056C108.358 40.317 108.28 40.3393 108.214 40.406C106.341 39.3556 94.7996 38.3071 92.5915 38.1279C89.5582 37.8838 85.9359 37.6391 81.6247 37.4725C83.1025 33.55 83.4026 28.3281 81.7581 22.517C81.0914 20.317 79.9802 17.8056 77.9691 15.6393C72.3686 9.5317 63.9459 10.7139 60.9914 16.0728C59.46 18.8129 59.3802 22.1174 59.3802 25.2725C59.3913 28.206 59.6913 31.006 60.2247 33.506C60.5469 34.9389 60.947 36.2616 61.4025 37.4503C59.5803 37.5056 57.7024 37.5946 55.7691 37.7058C57.047 33.8614 57.247 28.8723 55.6803 23.3503C55.0136 21.1504 53.9025 18.639 51.8913 16.4726C46.2905 10.365 37.8681 11.5471 34.9135 16.9061C33.3823 19.6462 33.3025 22.9504 33.3025 26.1059C33.3136 29.0394 33.6136 31.8394 34.1469 34.3394C34.5803 36.2947 35.1803 38.0612 35.8581 39.5504C28.7731 40.3869 15.9782 42.4799 8.75439 44.7088C7.71384 41.715 8.79784 82.1967 9.01698 88.0064C9.96614 113.181 10.5616 113.686 11.2712 113.659C11.9808 113.632 12.5364 113.084 11.587 87.9098C11.093 74.807 9.54242 47.4801 8.77989 44.7935C9.16539 44.8131 9.06135 44.7968 9.22694 44.7946C9.46375 45.068 10.0041 45.5899 10.8158 46.3381C28.5855 62.6937 25.1794 57.8589 41.4679 73.2912C36.3477 78.4884 11.9869 113.645 12.771 114.214C13.5482 114.777 38.9404 81.2968 42.6414 74.3985C45.9096 77.4166 49.4156 80.3653 53.4978 82.3694C57.8613 84.4336 62.403 85.0941 66.8458 83.2559C70.9584 81.6759 73.9392 78.3876 79.2276 73.2429C81.4117 76.0157 91.8033 88.1613 94.1135 90.8389C93.2025 91.739 92.4025 92.7725 91.7804 93.9059C88.9279 98.9937 89.4333 104.987 90.758 110.617C90.8136 110.883 90.8803 111.139 90.9359 111.394C64.9021 113.131 57.0364 114.273 18.6915 114.273C14.2693 114.273 11.5358 114.295 11.5247 114.484C11.5247 114.777 20.982 115.685 35.9359 116.006C61.9664 116.518 78.3327 114.891 91.5358 113.851C94.1985 124.553 95.8398 127.747 94.8248 131.384C94.6283 131.58 92.4266 133.102 91.7693 134.895C91.4804 135.639 91.5913 136.672 92.1802 137.317C95.7129 141.481 113.841 135.543 118.763 133.96C119.078 134.458 119.346 134.838 119.578 135.126C118.018 136.134 117.398 139.116 118.985 141.246C120.184 142.835 122.558 143.64 124.731 142.84C127.865 141.708 128.739 137.423 126.56 135.155C125.124 133.685 122.97 133.469 121.53 134.255C121.437 133.953 121.291 133.58 121.085 133.126C127.85 130.626 133.759 127.772 137.736 125.139C139.747 123.806 141.269 122.517 142.069 121.372C142.48 120.806 142.68 120.261 142.68 119.873C142.669 119.495 142.536 119.328 142.502 119.328C142.447 119.339 142.491 119.528 142.414 119.839C142.336 120.15 142.103 120.583 141.669 121.05C140.802 121.995 139.247 123.117 137.202 124.283C133.125 126.628 127.104 129.216 120.272 131.494C119.294 129.665 116.614 125.453 115.242 124.363C115.244 124.363 115.245 124.362 115.247 124.362C115.591 124.228 115.936 124.117 116.269 123.995C119.88 122.75 123.047 121.817 125.78 121.094C131.247 119.661 135.025 119.072 137.536 118.872C140.058 118.673 141.269 118.939 141.736 119.128C142.202 119.328 142.303 119.406 142.502 119.328C142.58 119.295 142.658 119.261 142.68 119.117ZM61.2026 25.3056C61.3246 22.4948 61.4692 19.4392 62.8359 17.1394C65.199 13.0536 71.7763 12.4635 76.1136 17.3391C77.7469 19.15 78.7026 21.3061 79.2914 23.2505C80.3359 26.8502 80.5024 30.2948 80.1469 33.1171C79.9358 34.717 79.547 36.139 79.0136 37.3835C78.6247 38.3389 78.147 39.1837 77.6247 39.9058C77.6247 39.9172 77.6137 39.9172 77.6137 39.928C77.4691 40.1168 77.3248 40.3056 77.1802 40.4836C77.5397 37.2485 75.8728 33.2678 72.7358 31.3169C71.0246 30.2058 68.8691 29.9617 67.0914 30.4169C65.2914 30.8726 63.7248 32.0168 62.9581 33.5391C62.5359 34.3833 62.3359 35.2394 62.2803 36.0614H62.247C62.0137 35.1727 61.8025 34.2282 61.6358 33.2283C61.2581 30.8167 61.0914 28.1279 61.2026 25.3056ZM71.9692 43.5836C72.7662 42.8335 73.3006 41.7479 73.3469 41.5171C74.5062 39.4983 73.7106 36.0665 72.6913 34.2059C72.2581 33.4393 71.6135 32.5946 70.647 32.0613C71.0691 32.217 71.4692 32.428 71.858 32.695C76.0763 35.5171 76.8079 43.1982 71.9692 43.5836ZM65.347 36.9392C65.3581 37.0282 65.3915 37.1172 65.4247 37.2056C65.3686 37.3179 65.2233 37.5234 65.1358 37.8946C65.1358 37.8946 65.1247 37.8838 65.1247 37.8724C65.1552 37.6292 65.2839 37.1286 65.347 36.9392ZM68.5025 34.806C68.0655 34.7042 67.6166 34.6416 67.1691 34.7056C67.0359 34.7278 66.8802 34.7501 66.7248 34.806C66.9358 34.6172 67.1469 34.4615 67.3803 34.3394C68.0247 33.9835 68.6136 33.9167 69.1247 34.0947H69.1358C69.3691 34.2835 69.5803 34.4945 69.7692 34.7392C69.3188 34.6495 68.9204 34.6773 68.5025 34.806ZM62.2692 36.1167H62.2803V36.139C62.2803 36.139 62.2692 36.1281 62.2692 36.1167ZM35.1247 26.139C35.2469 23.3281 35.3915 20.2725 36.7581 17.9727C39.0978 13.9275 45.6404 13.261 50.0359 18.1724C51.6692 19.9834 52.6247 22.1394 53.2136 24.0838C54.2581 27.695 54.4247 31.1281 54.0692 33.9504C53.8803 35.406 53.5358 36.7059 53.0914 37.8615H53.0803C52.5011 39.393 51.6156 40.723 51.2469 41.1281C51.7279 38.2422 50.1404 33.9005 46.8247 31.8394C42.9223 29.3052 36.736 31.1575 36.3691 36.5838C36.2692 36.5725 36.1803 36.5725 36.0802 36.5616C35.8803 35.7722 35.7025 34.9389 35.558 34.0616C35.1803 31.65 35.0136 28.9612 35.1247 26.139ZM46.058 44.1055C46.6247 43.5728 47.0691 42.906 47.3803 42.1947C48.4241 40.1071 47.9025 38.6964 47.9025 38.1615C47.5309 35.9556 46.6896 33.7578 44.7914 32.606C49.9662 34.6141 51.3212 43.6931 46.058 44.1055ZM39.5137 37.7394C39.4292 37.8507 39.2933 38.1779 39.2359 38.3503C39.2359 38.2481 39.3247 37.7868 39.4469 37.4725C39.4581 37.5615 39.4803 37.6505 39.5137 37.7394ZM42.5692 35.3279C41.986 35.1944 41.4525 35.1407 40.8358 35.317C41.4825 34.7502 42.3467 34.3276 43.2136 34.6172C43.447 34.7946 43.6692 35.017 43.858 35.2611C43.4428 35.1784 43.0077 35.1927 42.5692 35.3279ZM36.358 37.5501C36.2581 37.2392 36.1692 36.9278 36.0914 36.5947C36.1803 36.6169 36.2692 36.6283 36.3691 36.65C36.3358 36.9614 36.3358 37.2615 36.358 37.5501ZM41.0469 45.2725C40.8939 45.2464 40.4554 45.223 40.2914 45.3501C40.2358 45.2503 40.1247 45.0837 39.9802 44.8613C40.3136 45.0392 40.6803 45.1727 41.0469 45.2725ZM74.1762 74.5694C71.8194 76.8063 69.3232 79.545 65.9055 80.9182C62.1146 82.5247 58.2768 81.9391 54.5142 80.2281C50.6717 78.4187 47.1368 75.5492 43.7883 72.5566C30.8015 61.0116 11.273 45.8926 9.49671 44.7729C23.3515 42.859 28.9322 42.1117 36.8136 41.3945C36.9358 41.6169 37.0691 41.8394 37.2025 42.039C37.7505 43.1352 37.936 43.2464 39.0358 44.4278C39.5914 44.9834 39.9802 45.3279 40.1803 45.4505C40.0107 45.7896 40.1713 45.9525 40.5469 46.2057C44.0385 48.3806 51.3246 46.5749 54.7247 40.1613C57.4358 40.0392 60.0581 39.9725 62.5359 39.928C62.5803 40.0279 62.6358 40.1168 62.6803 40.2058C63.1065 42.1033 64.2872 43.5843 65.9248 44.3502C66.0691 44.4837 66.1803 44.5727 66.2581 44.6172C66.2469 44.6394 66.2358 44.6725 66.2248 44.6947C66.147 44.8613 66.1136 45.0279 66.6247 45.3724C69.5229 47.1772 75.7525 46.2531 79.5137 41.3392C79.8469 40.9171 80.1581 40.4613 80.447 39.9725C94.0039 40.3205 105.88 41.6076 107.958 41.2171C107.958 41.2526 107.955 41.3134 107.947 41.4249C104.114 44.057 97.2203 51.0864 93.565 55.0099C93.4624 55.1235 82.1581 66.8265 74.1762 74.5694ZM79.7581 72.728C79.7578 72.7275 79.7575 72.7275 79.7573 72.7275C82.5688 69.99 95.2113 56.7263 95.3085 56.6148C103.051 47.9797 105.572 45.788 107.969 43.0753C108.111 46.224 108.848 52.5255 109.491 66.5394C109.758 71.8394 110.103 79.4723 110.625 86.9061C105.631 85.5354 100.198 86.2638 95.958 89.2726C91.8078 84.7375 84.3735 76.7698 79.7581 72.728ZM125.169 136.327C125.821 137.229 125.732 138.733 125.061 139.614C124.444 140.506 123.373 140.68 122.57 140.551C120.902 140.245 119.952 138.943 120.613 136.526C120.704 136.278 120.752 136.093 120.782 135.933C120.92 135.913 121.047 135.851 121.175 135.78C121.447 135.63 121.687 135.475 121.676 134.996C123.266 134.792 124.577 135.441 125.169 136.327ZM117.779 132.284C115.09 133.128 112.302 133.917 109.469 134.584C95.9168 137.727 93.9839 135.734 94.1024 135.806C94.059 135.632 94.473 135.12 94.5914 134.983C97.899 131.127 109.519 126.421 114.664 124.563C114.75 126.136 116.919 130.746 117.779 132.284ZM125.202 118.795C122.391 119.472 119.147 120.372 115.458 121.617C109.293 123.691 101.105 127.008 95.7913 130.706C96.7789 126.809 94.9898 122.888 92.5359 110.239C92.2247 108.539 91.9025 106.806 91.7914 105.072C91.5506 101.635 91.9869 98.0227 93.7469 95.0278C98.2474 87.2773 112.632 84.744 122.969 99.1723C126.979 104.723 128.071 109.576 131.425 113.517C132.714 115.039 133.925 116.183 135.091 116.928C135.202 116.995 135.314 117.061 135.414 117.117C132.869 117.272 129.547 117.761 125.202 118.795Z" fill="#201429"/>
<path d="M119.958 108.539C119.785 108.579 119.613 108.562 119.204 107.525C119.117 107.262 118.953 106.955 118.778 106.567C118.691 106.373 118.597 106.16 118.493 105.928C118.37 105.703 118.235 105.46 118.089 105.195C117.512 104.141 116.649 102.77 115.144 101.27C114.3 100.477 113.186 99.4637 111.816 98.638C110.458 97.802 108.901 97.1108 107.411 96.6724C105.921 96.2178 104.506 96.0951 103.479 96.0111C102.452 95.9834 101.799 95.9785 101.786 95.8825C101.774 95.8027 102.409 95.6378 103.47 95.5103C104.528 95.4398 106.026 95.4267 107.632 95.7902C109.235 96.1364 110.934 96.782 112.42 97.6186C113.917 98.4438 115.144 99.5023 116.051 100.358C117.671 101.974 118.577 103.481 119.141 104.649C119.28 104.944 119.407 105.215 119.524 105.463C119.614 105.723 119.696 105.961 119.771 106.177C119.914 106.611 120.035 106.957 120.073 107.256C120.278 108.429 120.13 108.499 119.958 108.539Z" fill="white"/>
<path d="M125.636 115.734C125.351 115.946 125.102 116.094 124.234 114.924C123.758 114.284 122.969 112.737 123.254 112.525C123.539 112.314 124.791 113.517 125.267 114.158C126.135 115.326 125.921 115.523 125.636 115.734Z" fill="white"/>
</svg>
