<svg width="103" height="49" viewBox="0 0 103 49" fill="none" xmlns="http://www.w3.org/2000/svg">
<path d="M51.1704 14.9779C50.1236 14.7617 48.7563 14.8371 48.7563 14.8371C48.7563 14.8371 41.0633 17.3859 40.9581 17.4211C40.9431 17.4412 40.9381 17.5468 40.9381 17.5769C40.9832 19.1555 41.6443 20.2766 41.9848 20.6888C42.0399 20.7592 42.0449 20.7592 42.065 20.7541C42.1702 20.719 49.748 18.1953 49.748 18.1953C49.748 18.1953 51.8716 16.8731 51.7514 16.8329C52.5427 16.1291 52.8983 15.194 51.1704 14.9779ZM31.0263 17.3909C30.9412 17.3356 30.7258 17.2803 30.6757 17.2703C29.3234 17.1245 28.8076 17.7278 28.6623 18.2757C28.467 18.8237 28.5221 19.3968 28.5722 19.7839C28.5822 19.9045 28.5972 19.9196 28.6473 19.9598C29.1832 20.4626 29.6039 21.0558 29.8443 21.6792C30.0797 22.3076 30.1248 22.9762 30.0697 23.68C29.8694 24.9619 29.2032 26.3444 28.2066 27.5811C27.9962 27.9079 27.7107 28.2045 27.4453 28.5061L26.6389 29.406C26.088 29.964 25.507 30.4567 24.906 30.8539C24.5904 31.065 24.2599 31.241 23.9243 31.3918C22.4318 30.5924 21.2398 30.0696 21.2398 30.0696C20.6989 29.8735 20.1379 29.6875 19.5118 29.5317C19.1963 29.4563 18.8708 29.3859 18.4601 29.3507C18.0844 29.3206 17.5786 29.2803 16.8624 29.5468C16.7021 29.6121 16.5468 29.6926 16.4016 29.7831C16.2363 29.9037 16.076 30.0495 15.9358 30.2003L15.8356 30.3159C15.8006 30.3562 15.7154 30.4919 15.6704 30.5874C15.6153 30.693 15.5702 30.8036 15.5301 30.9192C15.4901 31.0399 15.465 31.1505 15.465 31.1957C15.4249 31.437 15.4299 31.7437 15.455 31.8643C15.5552 32.5179 15.7455 32.8446 15.9458 33.1764C16.3465 33.8199 16.8524 34.2875 17.4133 34.6494C18.5402 35.3683 19.8074 35.5744 20.9292 35.5392C21.9109 35.504 22.9126 35.3884 23.9393 35.1069C24.1647 35.0415 24.3951 34.9661 24.6155 34.8857C26.709 35.6348 28.7224 36.2229 28.5571 36.1123C29.5488 36.3536 30.5054 36.4894 31.2817 36.4592C32.0581 36.4441 32.639 36.1978 32.7743 35.9967C32.9095 35.7856 32.6791 35.6901 32.1432 35.5242C31.6023 35.3532 30.6958 34.9963 29.3084 34.3226C28.7224 34.016 28.0914 33.6741 27.4503 33.3222C28.0513 32.8698 28.6172 32.3922 29.1231 31.8844C29.4537 31.5376 29.7592 31.1806 30.0797 30.8237C30.3953 30.4668 30.7208 30.1249 30.9963 29.7127C32.1833 28.2095 33.205 26.3545 33.5456 24.1425C33.6708 22.9108 33.5706 21.6138 33.1149 20.4173C32.6441 19.2259 31.9028 18.2104 31.0263 17.3909ZM17.3632 31.4923L17.3482 31.4772C17.208 31.3717 17.2781 31.427 17.3933 31.5074L17.3632 31.4923ZM95.5654 7.11527C95.29 7.05997 95.0045 7.09014 94.724 7.05997C94.3334 7.01473 93.9727 6.84883 93.5971 6.74326C93.2215 6.63266 92.8058 6.57736 92.4502 6.74326C91.3784 7.24598 91.5286 8.58322 92.4652 9.15633C93.0312 9.50321 94.6889 9.56856 95.2349 9.27196C95.4202 9.17141 95.5554 9.00551 95.6806 8.83961C95.8159 8.66366 95.9461 8.48771 96.0563 8.29165C96.1765 8.0805 96.2716 7.83417 96.2065 7.60291C96.1264 7.33144 95.8459 7.16555 95.5654 7.11527ZM101.991 6.8991C101.866 6.84883 101.726 6.85888 101.591 6.87899C101.671 6.83878 101.741 6.74829 101.781 6.66282C101.841 6.52206 101.576 6.30086 101.34 6.29584C101.335 6.11485 100.419 5.69759 100.013 5.83836C99.9028 5.87857 99.7976 5.92382 99.6824 5.92382C99.5522 5.92885 99.427 5.87857 99.3018 5.83836C98.7658 5.66743 98.1298 5.68754 97.7091 6.06458C96.7675 6.90916 97.9995 8.18607 98.9211 8.24137C99.5872 8.28159 100.764 7.80903 100.644 7.75373C101.085 7.80903 101.541 7.74368 101.951 7.57275C102.066 7.52248 102.187 7.45713 102.237 7.3415C102.302 7.16052 102.162 6.96446 101.991 6.8991ZM89.6154 7.95985C88.3432 7.59789 86.5802 7.48226 86.5802 7.48226L84.8724 7.71854C84.7121 7.49734 84.5117 7.30128 84.2012 7.14041C83.6453 6.86391 83.3949 6.90916 83.0493 6.90413C82.9691 6.90916 82.884 6.91418 82.8089 6.92424L82.6786 6.9544L82.4182 7.02981L82.1678 7.11527L82.0025 7.19571L81.677 7.36161C81.5367 7.43702 81.2713 7.64313 81.101 7.80903C80.9457 7.98498 80.8305 8.14083 80.7304 8.29165L77.3396 8.76421L75.762 9.20157C75.7419 9.22168 75.7169 9.33228 75.7119 9.36245C75.5416 10.9762 76.2327 12.1073 76.6034 12.5195C76.6585 12.5899 76.6685 12.5899 76.6985 12.5849L78.0508 12.2079L79.6535 11.9816C79.4983 13.0776 79.4031 14.1534 79.353 15.2242L79.328 16.0436C79.1176 16.3603 78.8872 16.6771 78.6318 16.9988C77.9156 17.8886 77.0892 18.7684 76.2328 19.6331C75.812 20.0554 75.3513 20.5179 74.9406 20.8949L74.3195 21.4479L73.6734 21.9456C72.807 22.5589 71.8554 23.0516 71.029 23.1672C70.6082 23.2477 70.2627 23.1974 69.9822 23.132C69.7167 23.0415 69.5464 22.8958 69.3661 22.6796C69.1908 22.4634 69.0757 22.0914 68.9855 21.6892C68.9304 21.2518 68.8853 20.7843 68.9605 20.4073C69.4363 20.2665 69.9271 20.1056 70.443 19.8744C70.7986 19.7035 71.1642 19.5175 71.5198 19.2611C71.7001 19.1454 71.8654 18.9946 72.0357 18.8539C72.0657 18.8337 72.1559 18.7433 72.2109 18.6829C72.2761 18.6125 72.3261 18.5673 72.4163 18.4517C72.5515 18.2606 72.7569 18.0244 72.8671 17.4462C72.8921 17.2904 72.8971 17.1345 72.8921 16.9787C72.8721 16.7877 72.827 16.5916 72.7569 16.4106C72.6868 16.2196 72.6016 16.0889 72.4914 15.9481C72.3913 15.8174 72.246 15.6666 72.1709 15.6113C71.9856 15.4605 71.7502 15.3348 71.63 15.2895C71.4747 15.2242 71.3245 15.184 71.2293 15.1639C70.7735 15.0734 70.483 15.0935 70.2126 15.1237C69.6717 15.184 69.2409 15.3247 68.8202 15.5007C67.9938 15.8576 67.2726 16.4157 66.7016 17.1144C66.6215 17.215 66.5564 17.3206 66.4813 17.4211C66.2759 17.4663 66.0706 17.5166 65.8602 17.5619C65.2442 17.7026 64.6181 17.8484 63.987 18.0143L63.1005 18.2456L62.2441 18.4416C60.4411 18.8237 58.5529 19.1052 56.6747 19.3465C56.5996 19.3717 56.4543 19.4873 56.4243 19.5225C54.8065 21.2317 56.0136 22.3779 56.87 22.7751C56.9952 22.8455 57.0253 22.8405 57.1104 22.8304C59.0637 22.579 61.002 22.2925 62.9803 21.8702L63.9269 21.654L64.8385 21.4177C65.0338 21.3675 65.2442 21.3222 65.4445 21.272C65.4545 21.4932 65.4746 21.7143 65.4996 21.9305C65.5196 22.3126 65.6599 22.7349 65.745 23.1371C65.9053 23.5443 66.0305 23.9615 66.2909 24.3587C66.7317 25.1681 67.5381 25.8769 68.4145 26.269C69.306 26.6913 70.2376 26.7516 71.074 26.6913C72.7469 26.5254 74.1042 25.8518 75.2811 25.0826C76.4481 24.3134 77.4949 23.3231 78.3413 22.4684C78.762 22.0461 79.1777 21.6239 79.5934 21.1865C79.7337 22.1115 79.939 23.2879 80.2295 24.4492C80.7804 26.9125 81.8923 29.22 81.8723 28.9888C82.3731 29.9288 82.9741 30.7332 83.5702 31.246C84.1612 31.7638 84.6971 31.9699 84.9275 31.9498C85.1628 31.9196 85.1278 31.6683 84.8373 31.1655C84.5769 30.6327 84.1011 29.7981 83.7004 28.3453C83.2446 26.636 83.0092 24.4592 82.9291 22.7299C82.8489 20.9955 82.874 19.7135 82.874 19.7135C82.8389 19.1655 82.8189 18.6176 82.8039 18.0696L82.7938 17.2451V17.0642C82.9541 16.7826 83.1044 16.4961 83.2396 16.1945C83.5401 15.5459 83.7705 14.8974 83.9708 14.2791L84.5368 12.5296C84.672 12.1174 84.8073 11.685 84.9425 11.2376L86.9158 10.9611C86.9158 10.9611 89.981 9.93555 89.8408 9.88025C91.0478 9.29709 91.754 8.41733 89.6154 7.95985Z" fill="#201429"/>
<path d="M59.2877 20.1057C58.6116 20.7743 58.2009 21.081 58.2009 21.081C58.5515 20.8296 59.1675 20.3571 59.9188 19.5276C60.2944 19.1204 60.6951 18.5975 61.0808 17.9641C61.4664 17.3307 61.832 16.5515 62.0474 15.6214C62.2678 14.7014 62.3228 13.6306 62.1325 12.5598C61.9422 11.489 61.5215 10.4384 60.9605 9.48318C60.6851 8.99051 60.3595 8.55314 60.024 8.09566C59.8487 7.88452 59.6684 7.66835 59.4881 7.44715C59.4079 7.3466 59.2477 7.17065 59.0874 7.02486C58.9471 6.89415 58.842 6.80366 58.7268 6.70815C58.281 6.33613 57.8603 6.01439 57.4095 5.68259C57.1792 5.51669 56.9438 5.35079 56.7084 5.1849C56.4479 5.01397 56.2426 4.85813 55.7818 4.61682C52.7817 3.15389 49.3259 1.93228 45.5445 1.18825C43.6513 0.846395 41.698 0.60006 39.6946 0.50957C37.6962 0.434162 35.6628 0.489461 33.6293 0.690551C25.4856 1.5301 17.4921 4.82796 11.4518 9.4681C8.41672 11.7756 5.8624 14.435 3.96419 17.2402C3.7338 17.5971 3.50842 17.9541 3.28805 18.3009C3.0827 18.673 2.87735 19.0399 2.672 19.4019C2.4917 19.7739 2.3164 20.1409 2.14612 20.5029C1.99085 20.8699 1.84561 21.2368 1.70036 21.5938C1.15945 23.0416 0.82388 24.4392 0.623542 25.7211C0.212847 28.2901 0.348076 30.3965 0.523372 31.8192C0.608516 32.533 0.713694 33.086 0.788821 33.453C0.85894 33.825 0.909024 34.0161 0.909024 34.0161C1.61021 37.0927 3.02761 39.8074 4.76554 41.8787C5.627 42.9193 6.5736 43.7991 7.53523 44.5079C8.00101 44.8799 8.50186 45.1715 8.96264 45.4681C9.44345 45.7345 9.90423 45.9909 10.355 46.197C12.1781 47.0215 13.7307 47.3634 14.7875 47.5041C15.3134 47.5996 15.7291 47.5996 16.0045 47.6298C16.28 47.6499 16.4253 47.66 16.4253 47.66C17.9078 47.7404 19.0848 47.7052 20.2768 47.66C21.4538 47.6198 22.5656 47.5393 23.6074 47.4388C25.6959 47.2377 27.519 46.9059 29.0766 46.5238C32.2019 45.7396 34.2804 44.8296 35.6978 44.161C37.1152 43.4773 37.8915 43.0249 38.3323 42.7685C38.768 42.5071 38.8682 42.4367 38.8682 42.4367C38.8682 42.4367 38.8181 41.7278 38.6428 41.5469C38.4625 41.3659 37.7914 41.2553 37.6111 41.0693C37.4308 40.8883 36.9049 40.2347 36.9049 40.2347C36.7897 39.9934 36.5994 39.7069 36.5994 39.7069L36.0284 39.9985C32.828 41.8032 29.4373 42.8891 25.9614 43.5477C24.2284 43.8795 22.4655 44.0806 20.7075 44.1962C19.826 44.2515 18.9445 44.2917 18.068 44.3118C17.6423 44.3169 17.2466 44.3068 16.8309 44.3068C16.4253 44.2766 16.0196 44.2465 15.6189 44.2012C12.4135 43.794 9.46349 42.2104 7.40501 39.8175C5.31147 37.4547 4.08439 34.4384 3.60859 31.427C3.12778 28.4208 3.40825 25.3642 4.34984 22.6344C5.2714 19.8895 6.93922 17.5569 8.71222 15.5209C12.3434 11.474 16.6206 8.67882 20.6975 6.75842C22.7409 5.79822 24.7543 5.04916 26.6826 4.48108C28.6159 3.92306 30.469 3.54099 32.2019 3.27957C35.6778 2.79193 38.6779 2.81204 41.0769 3.03324C43.481 3.26952 45.2891 3.65159 46.4961 3.95825C47.1021 4.09399 47.5529 4.2448 47.8534 4.33027C48.1539 4.42076 48.3092 4.466 48.3092 4.466C51.0388 5.19998 53.1173 6.08477 54.73 6.82377C55.1708 7.05503 55.6265 7.39185 56.0072 7.66332C56.3978 7.94484 56.7484 8.21129 57.0539 8.45762C57.2042 8.57828 57.3494 8.69893 57.4696 8.80953C57.5848 8.90505 57.675 9.03073 57.7802 9.15641C57.9605 9.38263 58.1358 9.57367 58.266 9.7647C58.1308 9.55356 57.9705 9.32733 57.7852 9.09105C57.4947 8.65871 56.9688 8.25151 56.4629 7.81414C55.9471 7.39185 55.3911 6.92934 54.8402 6.59755C53.8485 6.09985 52.9119 5.60216 52.1957 5.31058C51.4845 5.00391 51.0288 4.80283 51.0288 4.80283L52.6816 5.51167C53.2325 5.74794 53.7584 6.0345 54.2943 6.29089L54.8652 6.54728C55.6566 6.98967 56.4078 7.5678 57.1391 8.13085C57.3194 8.27664 57.4997 8.42243 57.67 8.57325C57.8403 8.71904 57.9755 8.90505 58.1258 9.081C58.4363 9.42788 58.6967 9.80492 58.9622 10.182C58.7919 9.91552 58.6166 9.64405 58.4313 9.38263C58.2359 9.13127 58.0406 8.86985 57.8403 8.62352C57.3945 8.16604 56.8837 7.75884 56.3878 7.35163C56.6182 7.50748 56.9187 7.72365 57.2693 7.99512C57.4446 8.13085 57.6249 8.28167 57.8152 8.44757C58.0106 8.61849 58.1608 8.83466 58.3411 9.04078C59.0373 9.88033 59.7134 10.9612 60.064 12.0873C60.4096 13.2184 60.3796 14.3546 60.1842 15.1288C60.1291 15.3198 60.0791 15.4957 60.034 15.6516C59.9739 15.8024 59.9238 15.9331 59.8837 16.0387C59.8437 16.1443 59.8036 16.2247 59.7785 16.28C59.7535 16.3353 59.7385 16.3604 59.7385 16.3604C59.9338 16.0387 60.1892 15.5108 60.3395 14.7668C60.4898 14.0278 60.5098 13.0626 60.2043 12.0119C59.8988 10.9662 59.2927 9.86525 58.4613 8.81958C58.3561 8.68888 58.251 8.55314 58.1408 8.4174C58.0156 8.27664 57.8753 8.15599 57.7501 8.04036C57.4897 7.80911 57.2142 7.58791 56.9388 7.36671C56.6583 7.14551 56.3728 6.92432 56.0723 6.70312C55.7668 6.48192 55.4863 6.26575 55.0956 6.05461C51.8401 4.40065 47.9135 2.99805 43.8216 2.33948C41.7781 2.01271 39.7096 1.8267 37.6912 1.81665C35.6728 1.81665 33.7145 1.95741 31.8814 2.19872C28.2202 2.72658 25.0899 3.63651 22.9162 4.44589C22.3753 4.65704 21.8895 4.84807 21.4638 5.01397C21.0381 5.1849 20.6875 5.35079 20.392 5.47647C20.1015 5.60216 19.8711 5.7027 19.7208 5.77308C19.5706 5.84346 19.4904 5.88368 19.4904 5.88368C19.9512 5.57702 21.0931 4.95867 22.766 4.26491L22.8762 4.21967L23.4672 4.01355C23.7627 3.90798 24.0832 3.79738 24.4188 3.68175C26.0265 3.13379 29.3671 2.14342 33.6744 1.68594C35.6277 1.50496 37.576 1.44966 39.4542 1.51502C41.4476 1.61556 43.4259 1.84681 45.3341 2.20375C48.7699 2.88745 52.3159 4.09399 55.316 5.59713C55.5314 5.7027 55.6866 5.80324 55.8369 5.90379C55.8669 5.9239 55.892 5.93898 55.922 5.95909L56.1124 6.0898C56.2125 6.16018 56.3177 6.23056 56.4179 6.30094C56.7184 6.51208 57.0139 6.72825 57.3244 6.96956C57.67 7.23601 57.9204 7.43709 58.1608 7.64321C58.281 7.74376 58.4563 7.8996 58.5966 8.05544C58.7067 8.18615 58.8169 8.31686 58.9221 8.44757C59.7435 9.43793 60.3445 10.4434 60.7151 11.4337C61.0407 12.2984 61.1959 13.1782 61.1759 14.0429C61.1559 14.7668 61.0106 15.36 60.8504 15.8879L60.8604 15.8929C61.0206 15.36 61.1709 14.7718 61.1859 14.0429C61.206 13.1782 61.0507 12.2984 60.7252 11.4287C60.3545 10.4333 59.7535 9.42788 58.9321 8.43751C58.8269 8.31183 58.7168 8.18112 58.6066 8.04539C58.4663 7.88452 58.291 7.7337 58.1708 7.62813C57.9304 7.42201 57.68 7.22092 57.3344 6.95448C57.0239 6.7182 56.7234 6.497 56.4279 6.28586C56.3277 6.21548 56.2275 6.1451 56.1224 6.07472L55.932 5.94401C55.902 5.9239 55.877 5.90882 55.8469 5.88871C55.6967 5.79319 55.5414 5.68762 55.321 5.58205C52.3209 4.07388 48.7699 2.87237 45.3341 2.18867C43.4259 1.8267 41.4476 1.59545 39.4542 1.49491C37.576 1.42955 35.6277 1.48485 33.6694 1.66583C29.3621 2.12331 26.0215 3.11368 24.4088 3.66164C24.0732 3.7823 23.7577 3.8929 23.4571 3.99344L23.0014 4.15431C23.2969 4.03366 23.6024 3.91301 23.9279 3.79235C26.2519 2.91761 29.3621 2.02277 32.9282 1.57534C33.8147 1.43961 34.7362 1.38934 35.6728 1.3089C36.6094 1.27371 37.566 1.21841 38.5376 1.24857C39.5093 1.23852 40.4859 1.32398 41.4726 1.38431C42.4543 1.49993 43.4459 1.5854 44.4226 1.76638C48.3643 2.3797 52.1607 3.70689 55.4512 5.29047C55.8169 5.4815 56.0272 5.63232 56.2676 5.78816C56.488 5.94401 56.7084 6.09985 56.9287 6.2557C57.3545 6.57241 57.7651 6.87907 58.1758 7.2159L58.4864 7.48234C58.5915 7.57283 58.7418 7.71862 58.842 7.83425C59.0123 8.04036 59.1775 8.24145 59.3478 8.43751C59.5181 8.62855 59.6583 8.84975 59.8086 9.05586C59.9589 9.26198 60.0991 9.4681 60.2243 9.68929C60.7502 10.5439 61.1509 11.4589 61.3462 12.3839C61.5515 13.3039 61.5515 14.2138 61.4213 15.0081C61.2861 15.8024 61.0457 16.4861 60.7652 17.0341C60.4948 17.5871 60.2093 18.0194 59.9639 18.3562C59.7184 18.6931 59.5081 18.9344 59.3679 19.0952C59.2276 19.2611 59.1475 19.3366 59.1475 19.3366C59.4029 19.1154 59.8887 18.6428 60.4447 17.8183C60.9756 16.9989 61.6116 15.7572 61.6918 14.1133C61.7268 13.2988 61.6116 12.4241 61.3462 11.5594C61.0807 10.6897 60.64 9.87027 60.1291 9.07597C59.9939 8.88494 59.8587 8.68888 59.7235 8.49281C59.5832 8.30178 59.428 8.1208 59.2777 7.93479L59.0423 7.64824C58.9471 7.53764 58.8019 7.39688 58.6967 7.30136C58.4964 7.12038 58.3111 6.96453 58.1258 6.81372C57.7551 6.50706 57.3795 6.2205 56.9888 5.92893C56.7935 5.78314 56.5932 5.63735 56.3778 5.49156C56.1624 5.34577 55.9571 5.19495 55.5965 5.00894C53.7834 4.12918 51.8501 3.29968 49.7917 2.64112C47.7332 1.9926 45.5745 1.48988 43.4009 1.16311C39.0435 0.544761 34.636 0.65536 30.8346 1.30387C27.0232 1.90211 23.8228 2.988 21.604 3.86273C21.0431 4.07388 20.5522 4.29005 20.1215 4.48108C19.6908 4.67212 19.3202 4.82293 19.0247 4.97375C18.4337 5.2603 18.1131 5.42118 18.1131 5.42118C18.5589 5.15976 20.0664 4.33027 22.4254 3.42034C24.7744 2.49533 27.9898 1.54015 31.7111 0.972076C33.5742 0.71066 35.5626 0.549788 37.6161 0.524652C39.6696 0.519625 41.7781 0.675469 43.8767 0.98213C45.9802 1.28376 48.0537 1.8066 50.0521 2.42495C52.0605 3.04832 53.9337 3.86273 55.7317 4.70731C56.2075 4.95364 56.4179 5.11954 56.6933 5.30052C56.9538 5.4815 57.1942 5.65745 57.4346 5.83341C57.9204 6.19537 58.3612 6.53219 58.857 6.96454C58.9722 7.06005 59.1775 7.25109 59.3027 7.4019L59.6033 7.76386C59.7986 7.99512 59.9889 8.22134 60.1642 8.47773C60.5248 8.96035 60.8454 9.47815 61.1258 10.011C61.6868 11.0768 62.0474 12.2632 62.1175 13.4195C62.1926 14.5808 61.9773 15.6717 61.6367 16.5615C60.9405 18.3763 59.9438 19.427 59.2877 20.1057Z" fill="#EE6C4D"/>
<path d="M59.119 11.2076C59.094 11.1221 59.0289 10.9713 58.8986 10.7501C58.8335 10.6395 58.7584 10.5038 58.6683 10.3429C58.5631 10.1921 58.4429 10.0161 58.3026 9.82005C58.2926 9.80497 58.2776 9.78988 58.2676 9.76978C58.6432 10.3529 58.8335 10.8004 58.8636 10.9311C58.8786 10.921 59.2392 11.5494 59.119 11.2076Z" fill="#EE6C4D"/>
<path d="M62.6391 13.6758C62.6091 12.5296 62.3086 11.3231 61.7777 10.192C61.5723 9.72945 61.3219 9.31722 61.0765 8.92007C61.0464 8.87482 61.0164 8.82455 60.9914 8.77428C60.9162 8.67373 60.8461 8.56816 60.776 8.46762C60.5606 8.16096 60.3403 7.84424 60.1049 7.5778L59.8795 7.30633C59.8544 7.27616 59.8294 7.246 59.8043 7.21584C59.7543 7.15551 59.6992 7.09016 59.624 7.00972C59.5038 6.87901 59.3486 6.73825 59.2484 6.64776L58.9729 6.41148C58.6123 6.10985 58.2918 5.86351 57.9963 5.64231C57.6757 5.40101 57.3702 5.17981 57.0747 4.97369C56.9796 4.90834 56.8894 4.84801 56.7943 4.78768L56.5939 4.65195C56.4387 4.5514 56.2233 4.4207 55.9478 4.27993L55.5021 4.07885C54.9862 3.84257 54.5104 3.63142 54.0897 3.44039C53.7241 3.28454 53.3885 3.15383 53.098 3.04324C52.9528 2.98794 52.8175 2.93766 52.6923 2.88739C52.3117 2.7416 52.0162 2.62598 51.8158 2.55057L51.5103 2.45002C51.2048 2.34445 50.7691 2.19866 50.2081 2.00763L49.9076 1.90708C49.7874 1.87189 49.6622 1.8367 49.537 1.80151C48.8859 1.6155 48.1496 1.39933 47.2932 1.20327C45.6454 0.80109 42.9559 0.29334 39.5 0.157605C39.0493 0.132469 38.6035 0.127441 38.1527 0.127441C35.2779 0.127441 32.3079 0.424048 29.4781 0.997152C27.8052 1.339 26.0322 1.81156 24.2042 2.4098C22.5013 2.99296 20.8335 3.66661 19.2408 4.40561C18.3292 4.82288 15.5495 6.09476 12.3591 8.38718C9.65456 10.3126 5.85814 13.5401 3.14355 17.9892C2.00162 19.8744 1.1602 21.9758 0.684393 24.0973C0.669368 24.1727 0.649334 24.2431 0.634308 24.3134C0.614275 24.414 0.589232 24.5095 0.569198 24.6101C0.559181 24.6452 0.559181 24.6855 0.549165 24.7207C0.534139 24.8011 0.514105 24.8815 0.49908 24.9569C0.459012 25.158 0.418944 25.3289 0.403919 25.4848C0.363851 25.7764 0.3338 25.9674 0.318775 26.073C0.318775 26.083 0.313767 26.0981 0.313767 26.1082C0.308758 26.1434 0.30375 26.1584 0.30375 26.1584C0.293733 26.2288 0.293733 26.2992 0.283716 26.3696C0.113428 27.7822 0.0683516 29.2301 0.173529 30.6327C0.323783 32.6235 0.679385 34.0914 0.879723 34.7902C0.959859 35.122 1.05001 35.3985 1.12514 35.6197C1.17021 35.7253 1.20027 35.8208 1.22531 35.9062C1.31045 36.1626 1.35553 36.2984 1.35553 36.2984C2.07174 38.3193 3.08345 40.1693 4.36562 41.7881C5.07181 42.6779 5.92325 43.5476 6.89489 44.362C7.85652 45.1463 8.93334 45.835 10.1003 46.4182C11.1972 46.9511 12.4343 47.3834 13.7765 47.7001C15.0737 47.9716 16.3659 48.1174 17.608 48.1224C17.6681 48.1224 17.7282 48.1224 17.7883 48.1224C20.0872 48.1224 22.326 47.9917 24.4546 47.7353C26.6833 47.4638 28.7669 47.0416 30.64 46.4785C32.3329 45.9758 33.9556 45.3625 35.4582 44.6687C36.4999 44.1911 37.5016 43.6834 38.5184 43.1153C39.2195 42.7181 39.6052 42.4969 39.6052 42.4969L39.6002 42.4869C39.6002 42.4869 39.2446 42.6829 38.5835 43.0499C37.9925 43.3717 37.0008 43.8895 35.6385 44.5179C33.9957 45.2519 32.413 45.835 30.8003 46.3076C28.817 46.8958 26.6132 47.3231 24.2492 47.5845C23.1023 47.7152 21.8752 47.8057 20.4929 47.856C19.1857 47.9012 17.9436 47.9414 16.3859 47.8509C13.1354 47.6046 9.98011 46.4232 7.50593 44.5279C6.18369 43.5326 4.99168 42.3059 3.96494 40.8882C2.96325 39.5057 2.14687 37.9825 1.53583 36.3587C0.358843 33.2418 -0.066877 29.7881 0.298741 26.3545C0.308758 26.269 0.313767 26.1836 0.323783 26.1031C0.323783 26.0931 0.328792 26.078 0.328792 26.068C0.388894 25.6155 0.469029 25.1631 0.559181 24.7207C0.56419 24.7056 0.56419 24.6905 0.569198 24.6754L0.574207 24.6654C0.599249 24.5447 0.624291 24.414 0.654342 24.2833C0.669368 24.223 0.679385 24.1626 0.69441 24.1023C0.729469 23.9364 0.774545 23.7705 0.82463 23.5895C0.929808 23.1773 1.05001 22.7349 1.21529 22.2573C1.35553 21.7998 1.53583 21.3273 1.78626 20.719C1.86138 20.5179 1.95154 20.3269 2.0517 20.1207C2.08676 20.0453 2.12683 19.9699 2.16189 19.8895C2.19194 19.8241 2.22199 19.7638 2.25204 19.6985C2.35722 19.4773 2.46741 19.246 2.59262 19.0248C2.6427 18.9393 2.68778 18.8539 2.73786 18.7684C2.85306 18.5623 2.96825 18.3461 3.09347 18.135L3.28379 17.8333C3.40399 17.6473 3.52419 17.4563 3.64941 17.2602C5.23709 14.8421 7.4308 12.4291 10.0001 10.2774C11.3925 9.12619 12.8299 8.07549 14.2724 7.15551C15.7949 6.19531 17.4077 5.30046 19.0705 4.49108C20.7133 3.71688 22.4462 3.0181 24.2142 2.41483C26.0423 1.82162 27.8203 1.34403 29.4881 1.00218C32.3129 0.429075 35.2829 0.132469 38.1577 0.132469C38.6085 0.132469 39.0543 0.137496 39.495 0.152578C42.9458 0.288313 45.6354 0.796063 47.2832 1.19824C48.1396 1.3943 48.8759 1.61047 49.527 1.79648C49.6572 1.83167 49.7774 1.87189 49.8976 1.90205L50.1981 2.0026C50.7591 2.19363 51.1948 2.34445 51.5003 2.44499L51.8058 2.54554C52.0062 2.62095 52.2967 2.73657 52.6823 2.88236C52.8075 2.93264 52.9427 2.98291 53.088 3.03821C53.3835 3.15383 53.7191 3.27952 54.0797 3.43536C54.5054 3.62639 54.9762 3.84257 55.4921 4.07382L55.9378 4.27491C56.2133 4.41064 56.4236 4.54638 56.5789 4.64692L56.7792 4.78266C56.8694 4.84298 56.9645 4.90834 57.0597 4.96867C57.3552 5.17478 57.6607 5.39598 57.9813 5.63729C58.2768 5.85848 58.5973 6.10482 58.9579 6.40645L59.2334 6.64273C59.3335 6.73322 59.4888 6.87399 59.609 7.00469C59.6841 7.09016 59.7392 7.15048 59.7893 7.21081C59.8144 7.24097 59.8394 7.27114 59.8644 7.3013L60.0898 7.57277C60.3252 7.83921 60.5456 8.15593 60.761 8.46259C60.8311 8.56314 60.9062 8.66871 60.9763 8.76925C61.0064 8.8145 61.0364 8.86477 61.0615 8.91001C61.3019 9.30717 61.5523 9.7194 61.7576 10.1819C62.2885 11.313 62.5891 12.5145 62.6191 13.6607C62.6642 14.8824 62.3937 16.1794 61.8478 17.3105C61.387 18.3009 60.7359 19.2359 59.9195 20.0906C59.2434 20.7994 58.4921 21.4379 57.6257 22.0361C57.24 22.3026 56.8443 22.5539 56.4487 22.7852C56.2433 22.9058 56.048 23.0114 55.8577 23.1119C55.6373 23.2276 55.472 23.313 55.2166 23.4287L55.2216 23.4387C55.477 23.3231 55.6423 23.2376 55.8627 23.122C56.058 23.0215 56.2483 22.9159 56.4587 22.7952C56.8544 22.569 57.25 22.3176 57.6357 22.0462C58.5021 21.4429 59.2534 20.8095 59.9296 20.0956C60.7509 19.241 61.402 18.3009 61.8628 17.3105C62.4138 16.1945 62.6842 14.8974 62.6391 13.6758ZM1.53082 36.3687C2.14186 37.9925 2.95824 39.5208 3.95993 40.8983C4.98667 42.316 6.17868 43.5426 7.50092 44.538C9.98011 46.4383 13.1354 47.6197 16.3859 47.866C17.0621 47.9062 17.6781 47.9213 18.2691 47.9213C19.0354 47.9213 19.7566 47.8962 20.4979 47.8711C21.8752 47.8158 23.1073 47.7303 24.2542 47.5996C26.6182 47.3432 28.822 46.9109 30.8053 46.3227C32.413 45.8551 33.9957 45.2669 35.6435 44.533C37.0058 43.9046 37.9975 43.3868 38.5885 43.065C38.7187 42.9946 38.8289 42.9293 38.9341 42.874C38.8088 42.9444 38.6686 43.0248 38.5083 43.1153C37.4916 43.6783 36.4899 44.1861 35.4482 44.6687C33.9456 45.3675 32.3229 45.9758 30.63 46.4785C28.7569 47.0416 26.6733 47.4638 24.4446 47.7353C22.316 47.9917 20.0772 48.1224 17.7783 48.1224C17.7182 48.1224 17.6581 48.1224 17.598 48.1224C16.3559 48.1174 15.0687 47.9716 13.7715 47.7001C12.4343 47.3834 11.1972 46.9511 10.1003 46.4182C8.93334 45.835 7.85652 45.1463 6.89489 44.362C5.92325 43.5426 5.07181 42.6779 4.36562 41.7881C3.08345 40.1693 2.07174 38.3243 1.35553 36.3034C1.35553 36.3034 1.31045 36.1677 1.22531 35.9113C1.21028 35.8208 1.18023 35.7202 1.14016 35.6096C1.06504 35.3884 0.974884 35.1069 0.894749 34.7801C0.699418 34.0864 0.343817 32.6184 0.188555 30.6277C0.0984024 29.4714 0.118436 28.285 0.223614 27.1136C-0.00677537 30.2908 0.43397 33.4731 1.53082 36.3687ZM0.413936 25.4798C0.428961 25.344 0.464021 25.1832 0.49908 25.0072C0.459012 25.2284 0.418944 25.4496 0.383885 25.6758C0.393902 25.6155 0.403919 25.5552 0.413936 25.4798ZM0.789571 23.6599C0.774546 23.7052 0.769537 23.7504 0.754512 23.7906C0.769537 23.7504 0.779554 23.7052 0.789571 23.6599ZM1.20027 22.2573C1.11512 22.4936 1.045 22.7248 0.979893 22.946C1.1051 22.5137 1.25035 22.0864 1.4006 21.6591C1.33049 21.8652 1.26037 22.0663 1.20027 22.2573ZM14.2623 7.15048C12.8199 8.07047 11.3825 9.12619 9.99013 10.2774C7.42078 12.424 5.22206 14.8421 3.63939 17.2602C3.51418 17.4563 3.39397 17.6473 3.27377 17.8333L3.08345 18.135C2.95824 18.3461 2.84304 18.5573 2.72785 18.7684C2.67776 18.8489 2.62768 18.9343 2.5826 19.0198C2.45238 19.246 2.3422 19.4722 2.23702 19.6934C2.20697 19.7588 2.17692 19.8191 2.14687 19.8845C2.11181 19.9599 2.07675 20.0403 2.03668 20.1157C1.93651 20.3218 1.84636 20.5179 1.77123 20.719C1.65103 21.0206 1.54084 21.2871 1.45069 21.5334C1.90646 20.3067 2.47242 19.1103 3.14856 17.9892C5.86315 13.5451 9.65456 10.3176 12.3591 8.39221C15.1438 6.39137 17.613 5.16975 18.805 4.61173C17.2324 5.38592 15.7048 6.23553 14.2623 7.15048Z" fill="#EE6C4D"/>
<path d="M55.7984 8.37722L55.8084 8.38224L55.8134 8.37722L55.8034 8.37219C55.7332 8.31689 55.6381 8.24148 55.4377 8.09066C55.3326 8.01525 55.2023 7.91974 55.0271 7.79406C54.9269 7.72368 54.6314 7.51756 54.4461 7.42204C53.219 6.81375 49.9635 5.19498 45.546 4.25991C43.1971 3.75719 40.793 3.48069 38.3889 3.43545C38.1385 3.43042 37.8881 3.43042 37.6326 3.43042C35.3338 3.43042 32.9297 3.64659 30.6408 4.0538C28.2568 4.46603 25.8177 5.13465 23.3936 6.04458C21.3501 6.80872 19.3367 7.74378 17.5687 8.7442C16.1413 9.55861 14.804 10.4082 13.7973 11.1472C13.4518 11.3835 13.1863 11.5896 12.9709 11.7605C12.9108 11.8058 12.8558 11.851 12.8007 11.8912L12.4551 12.1577L12.4601 12.1677L12.8057 11.9013C12.8558 11.8611 12.9108 11.8209 12.976 11.7706C13.1913 11.6047 13.4568 11.3936 13.8024 11.1623C14.8091 10.4283 16.1463 9.5737 17.5737 8.75928C19.3367 7.75887 21.3501 6.82883 23.3986 6.05966C25.8227 5.14973 28.2618 4.48111 30.6458 4.06888C33.1851 3.60637 35.8647 3.3902 38.3889 3.4455C40.788 3.49075 43.1971 3.76724 45.541 4.26997C49.9585 5.20001 53.214 6.81877 54.4361 7.4321C54.6214 7.52761 54.9169 7.73373 55.017 7.80411C55.1923 7.92979 55.3225 8.02531 55.4277 8.10072C55.6331 8.24651 55.7282 8.32192 55.7984 8.37722Z" fill="#EE6C4D"/>
<mask id="mask0_31816_5271" style="mask-type:alpha" maskUnits="userSpaceOnUse" x="15" y="15" width="48" height="37">
<path d="M53.9854 45.5083L17.624 51.4656L15.8359 40.4811L41.294 16.3504L62.8053 15.7874L53.9854 45.5083Z" fill="url(#paint0_linear_31816_5271)"/>
</mask>
<g mask="url(#mask0_31816_5271)">
<path d="M48.3693 22.4886C48.3794 22.4383 48.3944 22.388 48.4094 22.3378C48.4395 22.2322 48.4445 22.1166 48.4545 22.006L48.4795 21.7496C48.4845 21.649 48.4996 21.5485 48.4946 21.4479C48.4946 20.6436 48.2842 19.8794 47.9687 19.2158C47.8084 18.879 47.6181 18.5673 47.3877 18.2707C47.1623 17.9691 46.9069 17.6926 46.5463 17.396C46.4411 17.3155 46.3359 17.2351 46.1205 17.1195C46.0604 17.0893 46.0204 17.0692 45.9402 17.034C45.8451 16.9988 45.7499 16.9636 45.6497 16.9385C45.6197 16.9284 45.4995 16.9033 45.4143 16.8983C45.3242 16.8882 45.229 16.8832 45.1389 16.8832C45.0788 16.8782 44.8784 16.9033 44.7332 16.9435C44.5779 16.9837 44.4327 17.0441 44.2924 17.1195C44.1372 17.21 43.9869 17.3256 43.8617 17.4613C43.7966 17.5267 43.7415 17.6021 43.6914 17.6725C43.6564 17.7228 43.6263 17.7781 43.5963 17.8334C43.5362 17.944 43.4861 18.0596 43.446 18.1802C43.4009 18.321 43.4059 18.3461 43.3859 18.4215C43.3759 18.4869 43.3659 18.5573 43.3609 18.6226L43.3559 18.7232V18.7835C43.3559 18.8589 43.3609 18.9393 43.3709 19.0148C43.3859 19.1455 43.4059 19.2259 43.426 19.3264L43.4861 19.5376C43.5662 19.7739 43.6464 19.9498 43.7215 20.1107L43.9118 20.4877C44.1222 20.8849 44.2975 21.3021 44.4677 21.7194C44.5429 21.9205 44.618 22.1216 44.6831 22.3277C44.5679 22.4986 44.4227 22.6746 44.2173 22.8455C44.2173 22.8455 44.1422 22.9259 44.012 23.0667C43.8367 23.1924 43.6464 23.4035 43.3208 23.6147C43.1605 23.7202 42.9953 23.8409 42.7999 23.9615C42.5896 24.0822 42.3642 24.2079 42.1338 24.3436C41.673 24.6201 41.1622 24.8514 40.6613 25.1078C39.6446 25.5803 38.6028 25.9423 37.8315 26.1635C37.0602 26.3746 36.5744 26.4651 36.6696 26.4752C34.8916 26.9025 33.369 26.8874 32.9984 27.0935C32.788 27.189 32.8481 27.4454 33.4191 27.7521C33.985 28.0537 35.0568 28.3956 36.7447 28.4157C38.7481 28.5112 41.1471 27.9783 42.9452 27.3348C43.3909 27.1639 43.8066 26.998 44.1823 26.8522C44.5629 26.6913 44.9185 26.5003 45.209 26.3646C45.2741 26.3294 45.3192 26.2992 45.3793 26.264C45.3843 26.5104 45.3843 26.7567 45.3743 26.998C45.3342 27.8928 45.234 28.7927 45.0037 29.6675C44.9135 30.1098 44.7482 30.5372 44.623 30.9695L44.3726 31.608L44.2474 31.9247L44.0921 32.2213C43.3709 33.8501 42.224 35.308 40.8767 36.5749C39.5194 37.8367 37.9868 38.9628 36.2939 39.8627C32.9332 41.6926 29.4824 42.9243 25.6459 43.5979C25.1902 43.6884 24.6192 43.7839 24.1584 43.8392L22.6008 44.0303C21.6792 44.0956 21.0632 44.2163 20.1366 44.2263C20.0615 44.2414 19.5807 44.2967 19.5506 44.3269C18.6942 45.1161 18.5038 45.8149 18.6541 46.383C18.8044 46.946 19.2952 47.3734 19.7059 47.6046C19.8261 47.685 20.2668 47.6549 20.357 47.6499C21.3637 47.6348 21.9597 47.5543 22.9614 47.4789L24.4489 47.2678C24.9497 47.2075 25.4356 47.2376 25.9314 47.1421C30.0233 46.4232 34.0451 45.0357 37.7864 43.0449C39.6496 42.0395 41.4226 40.8078 43.0353 39.3549C44.6581 37.9121 46.0454 36.1174 47.0521 34.1065C48.0738 32.1157 48.6648 29.9389 48.8301 27.6918C48.9603 25.9523 48.7951 24.1827 48.3693 22.4886Z" fill="#201429"/>
</g>
<defs>
<linearGradient id="paint0_linear_31816_5271" x1="36.5942" y1="35.1492" x2="22.0059" y2="40.6815" gradientUnits="userSpaceOnUse">
<stop stop-color="white"/>
<stop offset="0.0272" stop-color="#F7F7F7"/>
<stop offset="0.5158" stop-color="#747474"/>
<stop offset="0.849" stop-color="#212121"/>
<stop offset="1"/>
</linearGradient>
</defs>
</svg>
