<svg width="23" height="24" viewBox="0 0 23 24" fill="none" xmlns="http://www.w3.org/2000/svg">
<path d="M15.3834 2.54883L15.3836 2.54878L15.3943 2.54709C15.4051 2.54541 15.4229 2.54277 15.4472 2.53965C15.496 2.53341 15.5705 2.52525 15.6664 2.51888C15.8587 2.5061 16.1346 2.50066 16.4601 2.53124C17.1135 2.59264 17.9456 2.79693 18.708 3.3573C19.6075 4.01834 20.3176 5.22592 20.6292 6.70791C20.9192 8.08752 20.8536 9.66356 20.3038 11.1666L1.73472 11.2827C1.197 6.989 2.6339 4.47041 4.57091 2.99427C6.61396 1.43733 9.29427 0.97998 11.0831 0.97998C12.3375 0.97998 13.3078 1.34445 13.9631 1.70613C14.2912 1.8872 14.5396 2.06725 14.7035 2.19951C14.7853 2.26556 14.8458 2.31944 14.8842 2.3552C14.9035 2.37308 14.9172 2.38639 14.9252 2.39439L14.9331 2.40225L14.9331 2.40232L14.9335 2.40268L14.9339 2.40311L15.1185 2.5968L15.3821 2.54905L15.3821 2.54905L15.3825 2.54898C15.3826 2.54897 15.3828 2.54893 15.383 2.5489C15.3831 2.54888 15.3831 2.54888 15.3833 2.54885C15.3834 2.54883 15.3833 2.54885 15.3834 2.54883Z" fill="#AF665A" stroke="#DFD6E5"/>
<path d="M0.265625 13.0576C0.265625 14.5773 1.52219 15.5069 2.59586 15.5069L3.68574 14.4443L4.49578 13.1849L3.68574 11.6711C3.35677 11.5095 2.98703 11.4185 2.59586 11.4185C1.52219 11.4185 0.608545 12.102 0.265625 13.0576Z" fill="#EBBAA1"/>
<path d="M0.266272 13.0581C0.172486 13.3193 0.121094 13.6007 0.121094 13.8943C0.121094 15.2614 1.22933 16.3697 2.59651 16.3697C2.98767 16.3697 3.3575 16.2786 3.68638 16.117L4.49643 15.3322L3.68638 14.4447C3.35741 14.6063 2.98767 14.6974 2.59651 14.6974C1.52284 14.6974 0.609192 14.0138 0.266272 13.0581V13.0581Z" fill="#E8A990"/>
<path d="M21.902 13.0576C21.902 14.5773 20.6455 15.5069 19.5718 15.5069L18.4819 14.4443L17.6719 13.1849L18.4819 11.6711C18.8109 11.5095 19.1806 11.4185 19.5718 11.4185C20.6454 11.4185 21.5591 12.102 21.902 13.0576Z" fill="#EBBAA1"/>
<path d="M21.902 13.0581C21.9958 13.3193 22.0472 13.6007 22.0472 13.8943C22.0472 15.2614 20.939 16.3697 19.5718 16.3697C19.1806 16.3697 18.8108 16.2786 18.4819 16.117L17.6719 15.3322L18.4819 14.4447C18.8109 14.6063 19.1806 14.6974 19.5718 14.6974C20.6455 14.6974 21.5591 14.0138 21.902 13.0581V13.0581Z" fill="#E8A990"/>
<path d="M11.0843 22.6576C15.1695 22.6576 18.4811 19.4026 18.4811 14.4507V11.6712C16.5538 10.8044 14.4867 8.22331 13.7628 7.26251C13.6135 7.06441 13.3327 7.02399 13.1343 7.17277C11.8657 8.12377 7.47519 11.2296 3.6875 11.6712V14.4507C3.6875 19.9759 6.99916 22.6576 11.0843 22.6576Z" fill="#FDD4BB"/>
<path d="M11.0843 21.8475C6.99916 21.8475 3.6875 18.5358 3.6875 14.4507V16.1231C3.6875 20.2082 6.99916 23.5199 11.0843 23.5199C15.1695 23.5199 18.4811 20.2082 18.4811 16.1231V14.4507C18.4811 18.5358 15.1694 21.8475 11.0843 21.8475V21.8475Z" fill="#F7C4A8"/>
<path d="M14.3896 15.332C14.7752 15.332 15.0877 15.0194 15.0877 14.6338V13.4335C15.0877 13.0479 14.7752 12.7354 14.3896 12.7354C14.004 12.7354 13.6914 13.0479 13.6914 13.4335V14.6339C13.6914 15.0194 14.0039 15.332 14.3896 15.332V15.332Z" fill="#565D76"/>
<path d="M7.82317 15.332C8.20884 15.332 8.52134 15.0194 8.52134 14.6338V13.4335C8.52134 13.0479 8.20884 12.7354 7.82317 12.7354C7.4375 12.7354 7.125 13.0479 7.125 13.4335V14.6339C7.125 15.0194 7.43759 15.332 7.82317 15.332V15.332Z" fill="#565D76"/>
<path d="M8.54113 18.5248C8.76309 19.0638 9.55288 19.9761 11.1049 19.9761C12.657 19.9761 13.4468 19.0638 13.6687 18.5248C13.8156 18.1683 13.6455 17.7602 13.289 17.6133C12.9327 17.4665 12.5245 17.6366 12.3776 17.993C12.3752 17.9989 12.1079 18.5798 11.1049 18.5798C10.1019 18.5798 9.83469 17.9989 9.83217 17.993C9.68537 17.6366 9.2772 17.4665 8.92086 17.6133C8.56426 17.7601 8.39415 18.1682 8.54113 18.5248V18.5248Z" fill="#201429"/>
</svg>
