<svg width="34" height="34" viewBox="0 0 34 34" fill="none" xmlns="http://www.w3.org/2000/svg">
<path d="M29.4545 27.8198L29.4569 27.817L29.4598 27.8136C29.5608 27.6957 29.6683 27.5703 29.7697 27.4436L29.77 27.4433C29.8114 27.3923 29.8592 27.3335 29.9048 27.273C32.1567 24.4564 33.5 20.883 33.5 17C33.5 7.88645 26.1136 0.5 17 0.5C7.88645 0.5 0.5 7.88645 0.5 17C0.5 20.1493 1.38485 23.0943 2.91365 25.5999C3.35407 26.3257 3.85106 27.0137 4.40477 27.6568C4.45761 27.7248 4.51483 27.7896 4.56044 27.8413L4.56266 27.8438C4.56305 27.8442 4.56344 27.8447 4.56382 27.8451C5.71944 29.1736 7.08658 30.3116 8.61249 31.2098C8.65605 31.2372 8.70107 31.2635 8.73763 31.2848L8.74121 31.2869L8.74183 31.2873C9.0468 31.4646 9.35876 31.6312 9.67766 31.7872C9.70181 31.7992 9.72613 31.8109 9.74631 31.8206C9.76845 31.8312 9.78621 31.8397 9.80257 31.8479L9.80256 31.8479L9.80727 31.8502C11.9815 32.909 14.4244 33.5 17 33.5C19.048 33.5 21.0095 33.1285 22.8166 32.4412L22.8174 32.4409C23.057 32.3492 23.2885 32.2545 23.5182 32.1571C23.7457 32.0631 23.9642 31.9592 24.1694 31.8617L24.1715 31.8606C24.1722 31.8604 24.1728 31.8601 24.1734 31.8598C24.2046 31.8452 24.2347 31.8301 24.2585 31.8182L24.2609 31.817C24.2877 31.8036 24.3074 31.7938 24.326 31.7851L24.326 31.7853L24.3365 31.7801C26.3019 30.8062 28.036 29.4505 29.4545 27.8198Z" fill="#FFC5A4" stroke="#DFD6E5"/>
<path d="M18.0625 6.0521C18.0625 6.0521 21.1376 5.59221 23.3443 6.97187C25.5477 8.35497 24.5524 12.0306 24.5524 12.0306C24.5524 12.0306 28.0839 14.7968 28.2761 17.8307C28.4683 20.8646 25.7056 21.98 25.7056 21.98L18.4229 20.8681L18.0625 6.0521Z" fill="#201429"/>
<path d="M11.0358 19.1621L9.89979 31.3389C9.59091 31.1878 9.28889 31.0265 8.99374 30.8549C8.95255 30.8309 8.91137 30.8069 8.87362 30.7829C7.39099 29.9111 6.06281 28.806 4.94054 27.5156C4.88906 27.4573 4.83758 27.3989 4.79297 27.3406C5.24943 26.0193 5.84316 24.6773 6.64281 23.5482C9.31978 19.7627 11.0358 19.1621 11.0358 19.1621Z" fill="#201429"/>
<path d="M24.1126 31.3324C24.0611 31.3565 24.0097 31.3839 23.9582 31.4079C23.7488 31.5075 23.5395 31.607 23.3233 31.6962C23.0968 31.7923 22.8702 31.885 22.6369 31.9742C20.8865 32.64 18.9852 33.0004 16.9981 33.0004C14.4996 33.0004 12.1315 32.4272 10.0243 31.4011C9.67419 31.2329 9.32755 31.051 8.99122 30.8554C8.95003 30.8314 8.90885 30.8073 8.87109 30.7833L11.0333 19.1625C11.0333 19.1625 14.6334 17.474 17.4511 17.5598C18.0345 17.5735 18.6146 17.6593 19.1843 17.7897C21.3636 18.2668 23.2889 19.444 23.8484 20.5971C24.1023 21.1154 24.1504 25.6628 24.1126 31.3324Z" fill="#F7F4F2"/>
<path d="M29.51 26.9662C29.4688 27.0211 29.4242 27.076 29.3796 27.131C29.2835 27.2511 29.1805 27.3712 29.0775 27.4913C27.6636 29.1181 25.927 30.46 23.9604 31.4072C23.7511 31.5068 23.5417 31.6063 23.3255 31.6955C23.099 31.7916 22.8725 31.8843 22.6391 31.9735H19.4714L18.4727 26.2833L19.1076 17.5557C19.1076 17.5557 25.7176 17.7582 29.51 26.9662Z" fill="#201429"/>
<path d="M19.1251 17.978C19.1251 17.978 17.8552 19.845 16.3692 20.9673C14.8866 22.0896 14.207 22.2234 14.207 22.2234L14.3031 18.6026L19.1251 17.978Z" fill="#F7F4F2"/>
<path d="M19.0503 14.2471L19.1121 17.8335C19.1121 17.8335 18.484 18.8768 16.3871 19.0828C14.8255 19.2372 14.2695 18.894 14.2695 18.894L14.4549 17.0716L14.6402 15.2973L18.4154 14.3981L19.0503 14.2471Z" fill="white"/>
<path d="M18.4176 14.3984C18.4107 14.498 18.3764 14.6112 18.318 14.7451C17.5458 16.5503 15.3596 16.9759 14.457 17.072L14.6424 15.2976L18.4176 14.3984Z" fill="#201429"/>
<path d="M13.7019 7.13311C13.7019 7.13311 11.8966 11.6634 12.6826 14.1516C13.4685 16.6398 15.7405 16.1696 17.0927 15.6376C18.4449 15.1091 19.0524 14.2477 19.0524 14.2477C19.0524 14.2477 20.3428 14.6389 21.1596 13.424C21.9764 12.209 21.4033 10.8603 20.6654 10.572C19.9241 10.2837 19.0764 10.8397 19.0764 10.8397L19.7147 9.51835C19.7113 9.51835 16.6362 3.01471 13.7019 7.13311Z" fill="white"/>
<path d="M19.2371 12.8027C19.1856 12.8027 19.1341 12.7787 19.0998 12.7341C19.0449 12.6586 19.0586 12.5522 19.1341 12.4938L20.73 11.3029C20.8055 11.2446 20.9153 11.2618 20.9702 11.3373C21.0286 11.4128 21.0114 11.5192 20.9359 11.5775L19.34 12.7684C19.3092 12.789 19.2748 12.8027 19.2371 12.8027Z" fill="#201429"/>
<path d="M20.712 12.7549C20.6983 12.7549 20.6846 12.7549 20.6708 12.7515L19.6 12.4975C19.5074 12.4769 19.4525 12.3842 19.4731 12.2916C19.4937 12.1989 19.5863 12.1406 19.679 12.1646L20.7498 12.4186C20.8424 12.4392 20.8973 12.5318 20.8768 12.6245C20.863 12.7034 20.791 12.7549 20.712 12.7549Z" fill="#201429"/>
<path d="M16.7374 9.00385C16.6859 9.00385 16.6379 8.98326 16.6036 8.93865C16.1574 8.37923 15.8691 8.47533 15.8657 8.47533C15.7799 8.50621 15.6803 8.46503 15.646 8.37923C15.6117 8.29343 15.646 8.19733 15.7284 8.15958C15.7799 8.13556 16.2535 7.95023 16.8713 8.72243C16.9296 8.79793 16.9193 8.90433 16.8438 8.96267C16.8129 8.99356 16.7752 9.00385 16.7374 9.00385Z" fill="#201429"/>
<path d="M13.2545 8.89382C13.2064 8.89382 13.1584 8.87323 13.1241 8.83547C13.0623 8.7634 13.0691 8.65357 13.1412 8.5918C13.6286 8.17653 14.0267 8.10102 14.0438 8.09759C14.1365 8.08043 14.2257 8.14221 14.2429 8.23487C14.26 8.32754 14.1983 8.41677 14.1056 8.43393C14.0987 8.43393 13.7727 8.50257 13.3643 8.85263C13.3334 8.88352 13.2922 8.89382 13.2545 8.89382Z" fill="#201429"/>
<path d="M13.9172 12.2978C13.8349 12.2978 13.7594 12.236 13.7491 12.1536C13.5535 10.8941 14.1026 9.98803 14.1266 9.95028C14.1746 9.87134 14.281 9.84388 14.3634 9.89536C14.4458 9.94341 14.4698 10.0498 14.4183 10.1322C14.4149 10.139 13.9138 10.973 14.0888 12.1021C14.1026 12.1948 14.0374 12.284 13.9447 12.2978C13.9344 12.2978 13.9241 12.2978 13.9172 12.2978Z" fill="#201429"/>
<path d="M13.2989 10.6201C13.2852 10.6201 13.2714 10.6201 13.2577 10.6133C13.1651 10.5892 13.1101 10.4966 13.1342 10.4039L13.3264 9.642L13.1033 9.24389C13.0587 9.16152 13.0861 9.05513 13.1685 9.01051C13.2509 8.9659 13.3573 8.99335 13.4019 9.07572L13.6593 9.53218C13.6799 9.56993 13.6867 9.61454 13.6764 9.65916L13.4671 10.4863C13.4465 10.5686 13.3744 10.6201 13.2989 10.6201Z" fill="#201429"/>
<path d="M15.9067 10.6235C15.893 10.6235 15.8793 10.6235 15.8655 10.6166C15.7729 10.5926 15.718 10.4999 15.742 10.4073L15.9307 9.66252L15.6184 9.26784C15.5601 9.19234 15.5738 9.08595 15.6459 9.0276C15.7214 8.96926 15.8278 8.98299 15.8861 9.05506L16.2533 9.51838C16.2877 9.55956 16.298 9.61447 16.2842 9.66595L16.0749 10.4931C16.0543 10.572 15.9857 10.6235 15.9067 10.6235Z" fill="#201429"/>
<path d="M19.0751 10.9425L18.4195 11.8108C18.4195 11.8108 17.0193 9.86827 17.0227 8.78719C17.0261 7.70611 17.0227 7.32859 17.0227 7.32859C17.0227 7.32859 15.6156 7.84339 14.459 7.80907C13.3024 7.77475 12.5714 7.16042 12.6503 6.6113C12.7259 6.06218 13.4088 4.38736 17.0227 4.93305C20.6332 5.48217 20.7018 9.7001 19.0751 10.9425Z" fill="#201429"/>
<path d="M12.4846 22.8169C12.3953 22.8169 12.3198 22.7482 12.313 22.659C12.3061 22.5629 12.3782 22.4839 12.4708 22.4737C12.5086 22.4702 16.1602 22.1476 19.0431 17.6963C19.0946 17.6174 19.201 17.5968 19.2799 17.6448C19.3589 17.6963 19.3829 17.8027 19.3314 17.8816C16.349 22.484 12.6527 22.8066 12.4983 22.8169C12.4948 22.8169 12.488 22.8169 12.4846 22.8169Z" fill="#201429"/>
<path d="M14.2147 22.1721C14.1152 22.1687 14.0396 22.0897 14.0431 21.9971L14.146 18.1086C14.1495 18.0125 14.225 17.9404 14.3211 17.9404C14.4172 17.9439 14.4892 18.0228 14.4892 18.1155L14.3863 22.0039C14.3828 22.1 14.3073 22.1721 14.2147 22.1721Z" fill="#F7F4F2"/>
<path d="M14.4312 13.5506C14.3557 13.5506 14.2871 13.5368 14.2219 13.5025C14.1395 13.4579 14.1086 13.355 14.1533 13.2692C14.1979 13.1868 14.3008 13.1559 14.3866 13.2005C14.4896 13.2554 14.8431 13.077 15.0936 12.8848C15.1691 12.8264 15.2755 12.8402 15.3339 12.9157C15.3922 12.9912 15.3785 13.0976 15.303 13.1559C15.1691 13.2589 14.7641 13.5506 14.4312 13.5506Z" fill="#201429"/>
</svg>
