<svg width="34" height="34" viewBox="0 0 34 34" fill="none" xmlns="http://www.w3.org/2000/svg">
<path d="M29.4545 27.8198L29.4569 27.817L29.4598 27.8136C29.5608 27.6957 29.6683 27.5703 29.7697 27.4436L29.77 27.4433C29.8114 27.3923 29.8592 27.3335 29.9048 27.273C32.1567 24.4564 33.5 20.883 33.5 17C33.5 7.88645 26.1136 0.5 17 0.5C7.88645 0.5 0.5 7.88645 0.5 17C0.5 20.1493 1.38485 23.0943 2.91365 25.5999C3.35407 26.3257 3.85106 27.0137 4.40477 27.6568C4.45761 27.7248 4.51483 27.7896 4.56044 27.8413L4.56266 27.8438C4.56305 27.8442 4.56344 27.8447 4.56382 27.8451C5.71944 29.1736 7.08658 30.3116 8.61249 31.2098C8.65605 31.2372 8.70107 31.2635 8.73763 31.2848L8.74121 31.2869L8.74183 31.2873C9.0468 31.4646 9.35876 31.6312 9.67766 31.7872C9.70181 31.7992 9.72613 31.8109 9.74631 31.8206C9.76845 31.8312 9.78621 31.8397 9.80257 31.8479L9.80256 31.8479L9.80727 31.8502C11.9815 32.909 14.4244 33.5 17 33.5C19.048 33.5 21.0095 33.1285 22.8166 32.4412L22.8174 32.4409C23.057 32.3492 23.2885 32.2545 23.5182 32.1571C23.7457 32.0631 23.9642 31.9592 24.1694 31.8617L24.1715 31.8606C24.1722 31.8604 24.1728 31.8601 24.1734 31.8598C24.2046 31.8452 24.2347 31.8301 24.2585 31.8182L24.2609 31.817C24.2877 31.8036 24.3074 31.7938 24.326 31.7851L24.326 31.7853L24.3365 31.7801C26.3019 30.8062 28.036 29.4505 29.4545 27.8198Z" fill="#ABD6FD" stroke="#DFD6E5"/>
<path d="M28.6916 27.9239C28.6572 27.9651 28.6229 28.0028 28.5852 28.0406C28.5371 28.0921 28.4856 28.1436 28.4376 28.1916C25.5341 31.1568 21.4844 32.9998 17.0022 32.9998C16.3089 32.9998 15.6191 32.9552 14.9498 32.8728C14.943 32.8694 14.9395 32.8694 14.9327 32.8694C13.2853 32.6532 11.7135 32.1899 10.2617 31.5138C10.399 25.7171 10.3407 20.6446 10.3407 20.5485C10.3956 20.4284 13.0794 19.7386 16.6521 19.6219C22.2737 19.4434 27.0236 22.6146 28.6916 27.9239Z" fill="#BB68D8"/>
<path d="M14.9496 32.873C14.9427 32.8696 14.9393 32.8696 14.9325 32.8696C13.2851 32.6533 11.7132 32.19 10.2615 31.5139C10.1414 31.459 10.0213 31.4007 9.90114 31.3423C7.53649 30.172 5.50475 28.4285 3.98438 26.2973C7.06631 22.0725 9.5854 20.8404 10.3404 20.5487C10.4949 20.4869 10.5738 20.4663 10.5738 20.4663L14.9496 32.873Z" fill="#BB68D8"/>
<path d="M17.367 10.3077C17.367 10.3077 20.998 10.572 21.2897 7.09195C21.602 3.38539 18.1769 2.9461 16.6806 4.40813C15.1842 5.87016 15.4176 7.40426 15.4176 7.40426C15.4176 7.40426 14.4257 6.4639 13.2863 7.5587C12.4523 8.36522 12.8367 9.7243 12.8367 9.7243C12.8367 9.7243 10.9628 9.60418 11.0967 11.2447C11.2305 12.8852 12.3803 13.7466 12.3803 13.7466L17.367 10.3077Z" fill="#201429"/>
<path d="M13.8828 16.6431L14.1642 20.5144C14.1642 20.5144 14.9433 21.5748 17.2221 21.5954C18.9176 21.6092 19.4838 21.187 19.4838 21.187L19.1063 19.2445L18.7357 17.3501L14.5795 16.7426L13.8828 16.6431Z" fill="white"/>
<path d="M14.582 16.7427C14.5992 16.8491 14.6472 16.9692 14.7227 17.1065C15.7283 18.9769 18.1273 19.2206 19.1088 19.2377L18.7382 17.3433L14.582 16.7427Z" fill="#201429"/>
<path d="M18.9568 8.46104C18.9568 8.46104 21.3421 13.1663 20.7346 15.9222C20.1271 18.6781 17.6355 18.3898 16.1289 17.9505C14.6222 17.5112 13.8843 16.6429 13.8843 16.6429C13.8843 16.6429 12.5287 17.1886 11.5334 15.96C10.5381 14.7279 11.0221 13.2212 11.7908 12.8403C12.5596 12.4559 13.5308 12.9741 13.5308 12.9741L12.7175 11.615C12.714 11.6082 15.3979 4.30489 18.9568 8.46104Z" fill="white"/>
<path d="M12.9965 16.9671C13.0288 17.5204 12.833 17.9826 12.5585 17.9995C12.284 18.0165 12.0358 17.584 12.0035 17.0329C11.9712 16.4796 12.167 16.0174 12.4415 16.0005C12.7139 15.9835 12.9642 16.416 12.9965 16.9671Z" fill="#FDABCE"/>
<path d="M13.525 15.0883C13.4941 15.0883 13.4632 15.0814 13.4358 15.0643L11.9257 14.1376C11.8433 14.0896 11.8193 13.9832 11.8708 13.9008C11.9188 13.8184 12.0252 13.7944 12.1076 13.8459L13.6177 14.7725C13.7001 14.8206 13.7241 14.927 13.6726 15.0093C13.6417 15.0574 13.5834 15.0883 13.525 15.0883Z" fill="#201429"/>
<path d="M12.2695 15.1912C12.2043 15.1912 12.1459 15.1569 12.115 15.0951C12.0738 15.0093 12.1082 14.9063 12.194 14.8651L12.9833 14.4773C13.0691 14.4361 13.1721 14.4705 13.2133 14.5563C13.2545 14.6421 13.2201 14.745 13.1343 14.7862L12.345 15.174C12.3209 15.1843 12.2969 15.1912 12.2695 15.1912Z" fill="#201429"/>
<path d="M19.5932 10.3008C19.5589 10.3008 19.5246 10.2905 19.4937 10.27C19.0716 9.96793 18.67 10.2356 18.6529 10.2459C18.5739 10.2974 18.4675 10.2802 18.416 10.2013C18.3646 10.1224 18.3817 10.016 18.4607 9.9645C18.4847 9.94734 19.075 9.54923 19.6962 9.99196C19.7751 10.0469 19.7923 10.1533 19.7374 10.2322C19.6996 10.2734 19.6447 10.3008 19.5932 10.3008Z" fill="#201429"/>
<path d="M18.9647 14.6831C18.951 14.6831 18.9407 14.6831 18.9269 14.6796C18.8343 14.659 18.7759 14.5664 18.7965 14.4737C19.1123 13.0494 18.2989 12.0816 18.292 12.0747C18.2302 12.0027 18.2371 11.8963 18.3092 11.8345C18.3812 11.7727 18.4876 11.7796 18.5494 11.8517C18.5872 11.8963 19.4829 12.9499 19.1294 14.5492C19.1157 14.6281 19.0436 14.6831 18.9647 14.6831Z" fill="#201429"/>
<path d="M19.5403 12.5794C19.4477 12.5794 19.3687 12.5039 19.3687 12.4112L19.3516 11.488C19.3516 11.3919 19.4236 11.3164 19.5197 11.313C19.609 11.313 19.6913 11.3885 19.6948 11.4812L19.7119 12.4044C19.7119 12.5005 19.6364 12.576 19.5403 12.5794Z" fill="#201429"/>
<path d="M16.9974 12.7577C16.9047 12.7577 16.8258 12.6822 16.8258 12.5896L16.8086 11.6664C16.8086 11.5703 16.8807 11.4948 16.9768 11.4913C17.0694 11.4879 17.1484 11.5668 17.1518 11.6595L17.169 12.5827C17.1724 12.6788 17.0969 12.7577 16.9974 12.7577C17.0008 12.7577 17.0008 12.7577 16.9974 12.7577Z" fill="#201429"/>
<path d="M19.4455 9.52495C19.4455 9.52495 18.9684 8.77678 18.0041 8.84199C17.0362 8.9072 16.5249 9.62792 16.5249 9.62792C16.5249 9.62792 17.0671 11.2238 15.8179 12.1813C14.5686 13.1389 13.5356 12.9741 13.5356 12.9741L12.5575 12.703L11.7578 11.3611L14.2975 8.18991L17.7261 6.04834L19.6617 7.56528L19.4455 9.52495Z" fill="#201429"/>
<path d="M18.1765 15.6546C17.8539 15.6546 17.2396 15.5619 16.8861 14.927C16.838 14.8446 16.8689 14.7382 16.9513 14.6936C17.0336 14.649 17.1366 14.6765 17.1846 14.7588C17.5553 15.4178 18.3035 15.3045 18.3344 15.3011C18.427 15.2874 18.5163 15.3491 18.53 15.4418C18.5471 15.5345 18.4819 15.6237 18.3893 15.6374C18.379 15.6408 18.2966 15.6546 18.1765 15.6546Z" fill="#201429"/>
<path d="M20.5549 13.9971C20.5412 13.9971 20.5274 13.9971 20.5137 13.9971C20.071 13.9868 19.6626 13.798 19.3606 13.4686C19.0585 13.1391 18.8972 12.7101 18.911 12.2571C18.935 11.3201 19.7003 10.5823 20.6029 10.5994C21.5124 10.6234 22.2331 11.4025 22.2091 12.3394C22.1988 12.7925 22.0169 13.2146 21.6978 13.5269C21.3854 13.8289 20.9839 13.9971 20.5549 13.9971ZM20.5583 10.9426C19.8513 10.9426 19.2713 11.5295 19.2507 12.2639C19.2404 12.6277 19.3709 12.9709 19.6111 13.2352C19.8513 13.496 20.1739 13.6436 20.5206 13.6539C20.8741 13.6642 21.2001 13.5303 21.4506 13.2832C21.7046 13.0327 21.8488 12.6964 21.8591 12.3326C21.8762 11.5844 21.3065 10.9632 20.5892 10.946C20.5823 10.9426 20.5686 10.9426 20.5583 10.9426Z" fill="#FDABCE"/>
<path d="M16.6408 14.2747C16.6271 14.2747 16.6134 14.2747 16.5962 14.2747C15.6593 14.2507 14.918 13.4716 14.942 12.5347C14.966 11.5977 15.7416 10.8564 16.682 10.8805C17.6189 10.9045 18.3602 11.6835 18.3362 12.6205C18.3156 13.5403 17.5606 14.2747 16.6408 14.2747ZM16.6408 11.2237C15.9098 11.2237 15.3058 11.8105 15.2852 12.545C15.268 13.2931 15.8583 13.9143 16.6065 13.9349C17.3547 13.9555 17.9759 13.3618 17.9965 12.6136C18.0136 11.8654 17.4233 11.2442 16.6751 11.2237C16.6648 11.2237 16.6511 11.2237 16.6408 11.2237Z" fill="#FDABCE"/>
<path d="M18.0041 12.6071C17.9149 12.6071 17.8393 12.535 17.8325 12.4458C17.8256 12.3497 17.8977 12.2708 17.9938 12.2639L19.1881 12.1953C19.2808 12.1884 19.3632 12.2605 19.37 12.3566C19.3769 12.4527 19.3048 12.5316 19.2087 12.5385L18.0144 12.6071C18.0109 12.6071 18.0075 12.6071 18.0041 12.6071Z" fill="white"/>
<path d="M15.1108 12.9363C15.0833 12.9363 15.0559 12.9295 15.0284 12.9157C15.0112 12.9054 13.4257 12.0612 12.6741 12.8231C12.6088 12.8917 12.499 12.8917 12.4304 12.8231C12.3617 12.7579 12.3617 12.648 12.4304 12.5794C13.3639 11.6356 15.1176 12.5725 15.1931 12.6137C15.2755 12.6583 15.3064 12.7647 15.2618 12.8471C15.2309 12.902 15.1691 12.9363 15.1108 12.9363Z" fill="#FDABCE"/>
<path d="M17.3694 21.8459C16.3775 21.8459 15.142 21.5714 13.7864 20.6516C13.7074 20.5967 13.6869 20.4903 13.7418 20.4148C13.7967 20.3359 13.9031 20.3153 13.9786 20.3702C17.1086 22.498 19.4629 21.036 19.5624 20.9708C19.6414 20.9193 19.7478 20.9433 19.7993 21.0223C19.8507 21.1012 19.8267 21.2076 19.7478 21.2591C19.734 21.2659 18.8108 21.8459 17.3694 21.8459Z" fill="white"/>
<path d="M15.8521 10.7536C15.8212 10.7536 15.7869 10.7433 15.756 10.7261C15.677 10.6746 15.6564 10.5682 15.7079 10.4893C16.1884 9.76172 16.9091 9.83723 17.2214 9.97794C17.3072 10.0157 17.345 10.1187 17.3072 10.2045C17.2695 10.2903 17.1665 10.328 17.0807 10.2903C17.0533 10.28 16.4321 10.0157 15.9928 10.6781C15.9619 10.7261 15.9104 10.7536 15.8521 10.7536Z" fill="#201429"/>
</svg>
